<svg xmlns="http://www.w3.org/2000/svg" width="512" height="512"><path fill="#ce6d4c" d="m250.656 50.867 5.844.008 5.844-.008C267 51 267 51 268 52c2.599.47 5.204.9 7.813 1.312C289.09 55.63 300.52 59.755 312 67v2l4 1c21.04 15.638 33.356 34.63 40 60l1.125 3.25c5.069 15.93 3.128 37.466-3.125 52.75q-1.921 5.605-3.816 11.219L349 200h-2l-1 5c-4.686 7.322-10.026 13.702-16 20l-2.445 2.605c-10.682 11.067-23.072 18.986-37.797 23.524-2.758.871-2.758.871-6.57 2.496-25.032 8.22-53.135 2.756-76.188-8.625-9.068-5.15-16.52-11.792-24-19l-3.687-3.375C168.043 210.292 160.158 195.169 156 179l-1.125-3.75c-4.572-16.983-2.87-36.877 3.125-53.25l1.813-5.438c2.262-5.752 4.914-10.339 8.187-15.562l1.414-2.984c1.654-3.146 3.473-5.368 5.899-7.954 2.646-2.846 5.175-5.664 7.625-8.687C187.382 76.477 192.624 71.125 199 69l1-2c2.174-1.21 4.39-2.344 6.625-3.438l3.664-1.808C221.462 56.474 232.638 53.066 245 52c1-1 1-1 5.656-1.133"/><path fill="#ce6d4d" d="M133 164c3.065 3.065 2.902 6.396 3.563 10.625l.753 4.727q.679 4.603 1.149 9.234L139 192h2c.954 2.366 1.81 4.77 2.625 7.188 2.532 7.057 5.67 13.021 9.836 19.238C155 221 155 221 155 224l4 2 3 5c14.045 17.348 14.045 17.348 22 20l1 2a514 514 0 0 0 7 4l4.375 2.938C201 263 201 263 205.063 265.25c4.4 2.451 8.622 5.053 12.875 7.75 5.905 3.719 11.775 6.986 18.062 10 6.96 3.74 13.702 7.808 20.45 11.914 2.134 1.254 4.303 2.458 6.523 3.555 3.758 1.9 7.23 4.136 10.777 6.406 5.964 3.764 11.915 7.048 18.25 10.125a750 750 0 0 1 6 4c4.694 2.601 9.4 5.164 14.156 7.648 2.644 1.397 5.248 2.869 7.844 4.352v2l5 1a114 114 0 0 1 6.188 3.75c3.934 2.502 7.636 4.637 11.875 6.625 14.106 7.5 27.102 20.962 32.16 36.344 2.263 8.241 3.884 16.198 3.938 24.767l.03 3.76.012 4 .017 4.14q.015 4.316.02 8.631c.01 4.429.041 8.857.072 13.286q.01 4.19.016 8.38l.038 4.044c-.008 3.093-.169 6.186-.366 9.273h-3v-2l-4-1a193 193 0 0 1-6.687-3.75l-3.797-2.203L358 450c-5.437-3.063-10.922-6.02-16.437-8.937-5.98-3.176-11.781-6.544-17.563-10.063l-4-2v-2l-5-1a109 109 0 0 1-6.125-3.687 240 240 0 0 0-14.863-8.684c-5.075-2.745-10.085-5.604-15.106-8.445a479 479 0 0 0-10.406-5.622L264 397v-2l-4-1a187 187 0 0 1-6.562-3.687 670 670 0 0 0-21.727-12.063c-6.049-3.226-11.912-6.588-17.711-10.25l-3.5-1.687L208 365v-2l-5-1c-2.326-1.348-4.646-2.707-6.93-4.125-3.623-2.212-7.306-4.296-11.007-6.375l-4.172-2.355a172 172 0 0 0-6.907-3.633C156.447 336.82 144.905 320.894 138 303c-3.486-11.547-5.154-22.39-5.114-34.443v-3.432q.002-5.592.016-11.184l.005-7.772q.006-10.211.024-20.423.014-10.426.02-20.853.016-20.447.049-40.893"/><path fill="#cf927c" d="m250.656 50.867 5.844.008 5.844-.008C267 51 267 51 268 52c2.599.47 5.204.9 7.813 1.312C289.09 55.63 300.52 59.755 312 67v2l4 1c7.156 5.318 14.294 11.102 20 18l-1 2-6-6-2 1v-2h-2v-2l-4-1v-2h-3v-2l-3-1v-3h-5l-1-4h-5l-3-3v-2h-4l-1-2c-12.615-4.883-24.58-5.316-37.937-5.25l-4.807-.023-4.596.007-4.168.007C241 56 241 56 237 58c-3.326.396-6.66.736-10 1 2-2 2-2 6-4h3v-2q4.492-.569 9-1c1-1 1-1 5.656-1.133"/><path fill="#d29b84" d="M133 164c2 2 2 2 2.227 6.53q-.001 3.036-.032 6.07l-.009 3.34q-.011 3.6-.036 7.199c-.025 3.789-.038 7.578-.048 11.367-.023 8.04-.061 16.08-.102 24.119-.047 9.319-.088 18.637-.112 27.956-.013 3.748-.038 7.495-.063 11.242q-.012 3.417-.02 6.836l-.032 3.192c0 2.384.1 4.768.227 7.149h2l1 7h2l-.062 3.25c.065 5.01 1.005 9.115 2.308 13.918.688 2.585 1.23 5.209 1.754 7.832h2c2.916 4.765 4.9 8.496 6 14h4l1 5a136 136 0 0 0 6 7c-12.562-6.281-20.027-21.515-25-34-3.502-11.537-5.154-22.397-5.114-34.443v-3.432c0-3.728.008-7.456.016-11.184l.005-7.772q.006-10.211.024-20.423.014-10.426.02-20.853.016-20.447.049-40.893"/><path fill="#ca8971" d="M336 90c11.192 9.953 16.92 25.746 20 40l1.027 2.977c4.738 14.725 3.69 35.73-2.027 50.023h-1c-.362-7.97-.362-7.97 1-11.844 1.955-6.17 1.172-12.749 1-19.156l-.055-4.074c-.387-11.642-2.926-21.894-8.945-31.926h-3v-2h2v-2l-3-1v-6l-4-4c-1.353-3.614-2.103-7.233-3-11"/><path fill="#cf9780" d="M173 93c0 4.561-1.314 8.786-3 13l-3 1v2h-2v5h-2a1352 1352 0 0 0-1 10l-2 3-1 5h-2c-1.687 15.386-1.953 31.618 0 47l-2-1c-4.382-18.015-3.353-38.651 3-56l1.813-5.437c2.262-5.753 4.914-10.34 8.187-15.563l1.75-3.5C171 95 171 95 173 93"/><path fill="#c66f51" d="M352 127c7.263 10.894 5.823 28.414 5 41a300 300 0 0 1-2 6c-.34 2.577-.628 5.162-.875 7.75-.786 6.764-2.08 12.16-5.125 18.25h-2l-1 5-3 3c-.357-5.707.656-9.791 3-15l3-3c.73-3.654 1.401-7.322 2-11l1-1 .438-4.062L353 170h2c.259-2.937.259-2.937.266-7l.007-4.375-.023-4.625.023-4.625-.007-4.375-.007-4.062L355 138h-2c-1.722-3.445-1.054-7.22-1-11"/><path fill="#cc8d74" d="M237 285c8.16 3.264 15.48 7.468 23 12l2.82 1.379c3.806 1.94 7.332 4.193 10.93 6.496 4.646 2.937 9.235 5.738 14.188 8.125 4.062 2 4.062 2 5.062 4-11.774-3.387-11.774-3.387-17-6v-2a228 228 0 0 0-9-3l-2-1v-2l-5-2-4.062-2.062C252 297 252 297 248 296l-1-4-5-1v-2h-3v-2l-4-1z"/><path fill="#c36f52" d="m250.656 50.867 5.844.008 5.844-.008C267 51 267 51 268 52l3.813.375C276 53 276 53 280 56c-1.16-.01-2.321-.02-3.517-.032a5499 5499 0 0 0-15.733-.093l-5.535-.05-5.293-.02-4.888-.032C241 56 241 56 237 58c-3.326.396-6.66.736-10 1 2-2 2-2 6-4h3v-2q4.492-.569 9-1c1-1 1-1 5.656-1.133"/><path fill="#d7a48f" d="M368 369c4.643 4.643 6.523 9.155 8.125 15.375l1.008 3.836c1.322 5.777 1.99 11.351 2.028 17.275l.03 3.76.012 4 .017 4.14q.015 4.316.02 8.631c.01 4.429.041 8.857.072 13.286q.01 4.19.016 8.38l.038 4.044c-.008 3.093-.169 6.186-.366 9.273h-3v-2l-4-1-4-3c2.675.255 5.344.591 8 1l1 2q.037-12.198.055-24.396.008-4.147.02-8.296.017-5.969.023-11.937l.015-3.735c.001-14.965.001-14.965-3.113-19.636-.54-3.641-.89-7.281-1.242-10.945L372 376l-4-1z"/><path fill="#ca8569" d="M158 178h1l1.375 4.688C162 188 162 188 165 193l2.563 5 2.437 4 2-3h4v2l-2 1c-.75 4.063-.75 4.063-1 8h2c.414 2.32.749 4.656 1 7-10.227-9.35-17.337-24.277-19-38z"/><path fill="#b9795f" d="M134 171c2.262 3.393 2.839 6.025 3.688 10 .271 1.238.543 2.475.824 3.75C139 188 139 188 138 191v-2h-2c-.218 2.747-.285 5.506-.303 8.262l-.05 5.46-.026 5.965-.051 6.054q-.067 7.99-.113 15.98-.078 12.79-.188 25.583-.033 4.487-.055 8.974l-.04 5.46-.03 4.845L135 279h-1a325 325 0 0 1-.114-9.914v-3.192c0-3.506.009-7.013.016-10.519l.005-7.264q.006-9.588.024-19.176.014-9.773.02-19.544.016-19.196.049-38.391"/><path fill="#cc8c71" d="M320 428h6l2 2 4 1v2c2.757.551 5.525 1.07 8.313 1.438L343 435v2l5 2v2h2v2l5 1c2.813 2.563 2.813 2.563 5 5-4.419 0-7.061-1.927-11-4l-3.508-1.836A400 400 0 0 1 324 431l-4-2z"/><path fill="#ce9077" d="M203 241c4.898.507 9.443 1.063 14 3v2l3.438.438L224 247l1 3h5l2.625 1.438c4.677 2.165 9.28 2.127 14.375 2.562v2c-15.076 1.478-30.08-6.072-43-13z"/><path fill="#ca8a70" d="M176 218c5 1 5 1 8 2l1 4h2v3l3 1v3h4v3l4 1 4 2 1 4c-10.813-4.325-19.17-13.59-27-22z"/><path fill="#ca795c" d="M376 402h1c.446 7.865.57 15.732.68 23.608q.07 4.023.205 8.044c.126 3.839.183 7.672.224 11.512l.163 3.677c-.007 3.337-.007 3.337-1.272 8.159-6.779-.162-11.729-1.726-17-6 5.232-1.308 8.028.11 13 2l3 2-.016-4.865q-.026-8.89-.039-17.779-.008-3.855-.02-7.712-.017-5.525-.023-11.05l-.015-3.513c0-2.694.05-5.388.113-8.081"/><path fill="#cf9b81" d="m141 307 3 1v3h2c2.916 4.765 4.9 8.496 6 14h4l1 5a136 136 0 0 0 6 7c-10.538-5.269-17.74-17.428-22-28z"/><path fill="#cd8e75" d="M293 317c5.598 2.24 10.738 5.085 16 8q3.093 1.689 6.188 3.375L320 331c-4.588 1.53-7.632-.253-12-2l-1-3a299 299 0 0 0-8-1v-2l-4-2v-2l-3-1z"/><path fill="#cb886d" d="M342 208c0 6.896-8.76 13.893-13.437 18.625C324.153 231 324.153 231 323 231v-5h2l1-3h2v-2h2l1-3 4-4h2l1-3 2 1z"/><path fill="#d7a590" d="m250.656 50.867 5.844.008 5.844-.008C267 51 267 51 268 52l4.063.5L276 53v1c-2.915.103-5.833.13-8.75.133l-5.469.004-5.781-.012-5.781.012-5.469-.004-5.078-.004L236 54v-1q4.5-.507 9-1c1-1 1-1 5.656-1.133"/><path fill="#cd8d73" d="M352 183h2c-1.019 5.926-2.594 11.487-5 17h-2l-1 5-3 3c-.357-5.71.54-9.826 3-15a524 524 0 0 1 5-4c.688-3.25.688-3.25 1-6"/><path fill="#ce8f75" d="m192 354 5 2q2.898.782 5.813 1.5L208 359v2h3v2h4l1 5c-3.375-.5-3.375-.5-7-2l-1-3-5-1c-9.38-4.76-9.38-4.76-11-8"/><path fill="#d0947c" d="M267 302c5.817 1.491 10.053 4.68 15 8q2.73 1.415 5.5 2.75C292 315 292 315 293 317c-11.774-3.387-11.774-3.387-17-6v-2l-5-2v-2h-3z"/><path fill="#daac97" d="M357 136h1c2.886 14.678 2.583 33.042-3 47h-1c-.353-5.289.092-9.333 1.508-14.469 1.77-6.83 1.8-13.265 1.617-20.281A721 721 0 0 1 357 136"/><path fill="#cd896e" d="M216 368c8.862.283 8.862.283 12 1l2 4c3.125 1.75 3.125 1.75 6 3l-4 2c-5.683-2.477-11.004-5.319-16-9z"/><path fill="#cf9a81" d="M258 392h4v2h5l1 2 5 1.938 5 2.062 1 3a589 589 0 0 0 7 3l2 3c-5.106-1.449-9.187-3.773-13.687-6.562-7.021-4.34-7.021-4.34-10.313-5.438v-2l-4-1z"/><path fill="#ca8e76" d="M139 192h2c1.043 2.508 1.983 5.06 2.875 7.625 1.873 5.384 3.965 9.656 7.125 14.375l-1 2-2-4h-3v-3l-3-1a299 299 0 0 1-1-8h-2c-.25-4-.25-4 0-8"/></svg>