<svg xmlns="http://www.w3.org/2000/svg" width="1024" height="1024"><path fill="#d06e4d" d="M554 179c3.605 2.837 6.744 5.744 10 9v2h2c7.647 9.097 13.06 19.263 18 30l2.332 4.863c8.045 17.47 13.337 35.69 18.668 54.137l1.71 5.758c12.419 43.29 19.495 88.343 28.121 132.497C652.478 507.565 652.478 507.565 664 540l1.922 5.504C677.705 577.906 677.705 577.906 688 585c4.383.783 6.262.452 10.063-1.875 7.59-8.076 11.044-18.03 14.812-28.25C718.7 539.494 724.575 524.893 735 512l3.688-4.625c11.572-12.714 28.49-20.677 45.5-22.25 10.33-.447 17.588 1.37 25.812 7.875 5.946 7.211 7.528 13.276 7.375 22.422-.923 8.81-5.793 15.017-12.375 20.578-4.27 2.428-8.142 3.206-12.937 3.875-5.727.9-9.51 2.357-14.063 6.125-7.76 10.928-12.235 23.851-16.75 36.375C755.328 598.04 747 611.313 735 623l-3.937 3.875c-13.837 10.644-31.424 15.734-48.805 13.684-20.638-3.952-35.855-16.224-47.613-33.204-14.342-23.62-22.858-50.02-30.645-76.355l-.905-3.024c-14.453-48.823-22.664-100.09-31.91-150.102C549.087 258.581 549.087 258.581 525 226c-5.11-3.066-6.35-3.67-12-3-6.893 2.545-10.2 5.753-14 12-33.467 78.708 16.406 194.453 39.551 270.165 71.917 235.258 71.917 235.258 33.074 311.773-9.758 17.221-25.256 30.878-44.48 36.25L524 854l-4.812 1.25c-16.746 2.421-34.203 1.006-48.188-9.25-21.057-17.479-33.098-41.37-41.937-66.937l-1.546-4.438c-12.264-35.846-20.276-73.127-27.474-110.272a6281 6281 0 0 0-2.681-13.732 5507 5507 0 0 1-8.253-42.96c-4.477-23.814-9.252-47.508-14.796-71.098-.26-1.11-.518-2.22-.784-3.364C355.625 456.727 355.625 456.727 337 440l-1-1c-6.28 0-7.448.126-12 4-5.186 7.222-8.093 15.282-11.312 23.5-12.086 30.22-25.055 55.04-56 68.875-10.977 3.805-23.035 5.995-34.25 2C214.267 531.73 209.462 526.849 207 517c-.508-9.66.9-15.804 7.063-23.25 7.033-7.42 15.215-8.806 24.937-10.75 13.99-8.394 19.04-26.045 24.41-40.636 7.347-19.849 19.418-41.905 39.23-51.665 17.636-7.825 35.022-9.1 53.36-2.699 8.188 3.372 13.746 7.932 20 14l2.5 2.207c19.123 17.54 27.493 45.823 35.5 69.793l1.03 3.08c12.276 37.419 19.669 76.763 26.932 115.4a4801 4801 0 0 0 3.124 16.426c5.382 28.115 5.382 28.115 7.617 40.465C469.996 744.268 469.996 744.268 490 783l1.559 3.105C494.45 791.673 497.273 796.83 502 801c5.903.82 10.019.283 15-3 11.33-10.226 14.393-25.448 16-40 .864-22.74.631-45.512-3-68l-.604-3.828c-3.39-20.862-8.232-41.362-13.333-61.86l-.875-3.53c-3.943-15.853-8.445-31.46-13.338-47.043-2.104-6.782-3.977-13.63-5.87-20.473a384 384 0 0 0-5.847-18.868c-3.267-9.694-6.22-19.468-9.133-29.273l-1.5-5.027a11273 11273 0 0 1-3-10.071 2520 2520 0 0 0-3.002-9.985C415.745 289.3 415.745 289.3 449 214l1.398-3.328c6.797-15.007 20.546-29.71 35.602-36.672 23.095-8.371 46.87-9.16 68 5"/><path fill="#d06e4d" d="M237 312c7.789 5.786 11.27 10.818 12.938 20.375.158 14.275-7.44 22.077-16.567 31.977-3.029 3.383-5.665 7.003-8.371 10.648-2.736 3.28-5.507 6.53-8.277 9.781a423 423 0 0 0-8.582 10.52 1014 1014 0 0 1-4.844 6.054C195.705 410.785 188.31 420.351 181 430l-1.826 2.396C132.46 493.72 132.46 493.72 133.125 515c6.32 28.888 29.118 56.158 46.875 79l2.035 2.64A1178 1178 0 0 0 187 603l3.438 4.438c3.815 4.886 7.681 9.728 11.562 14.562l4 5 2.016 2.516a945 945 0 0 1 3.843 4.843c4.904 6.2 10.025 12.195 15.184 18.184a520 520 0 0 1 9.855 11.875 195 195 0 0 0 4.329 5.133c6.145 7.185 9.152 13.861 8.773 23.511-.668 5.8-2.69 10.093-6 14.938h-2v2c-8.835 5.622-13.527 7.446-24 7-11.014-2.497-16.975-9.698-23.723-18.187-2.134-2.636-4.353-5.134-6.652-7.625-4.55-4.992-8.662-10.276-12.8-15.61-2.724-3.45-5.53-6.803-8.387-10.14-7.811-9.156-14.975-18.792-22.172-28.43a770 770 0 0 0-7.016-9.133c-63.185-82.14-63.185-82.14-57.824-130.734 4.994-26.593 22.894-52.174 38.793-73.395 3.007-4.05 5.896-8.17 8.781-12.308a389 389 0 0 1 14.098-18.79c3.28-4.122 6.496-8.29 9.714-12.46 6.893-8.874 14.014-17.542 21.188-26.188q2.346-2.873 4.688-5.75c4.1-5.017 8.277-9.968 12.476-14.902a762 762 0 0 0 5.734-6.852c12.035-14.491 23.2-23.71 42.102-14.496m577.438-2c4.885 3.212 7.944 6.426 11.562 11l3.375 3.813c4.312 4.98 8.47 10.075 12.625 15.187q2.28 2.782 4.563 5.563 5.147 6.293 10.214 12.652 2.514 3.149 5.04 6.289c5.53 6.886 11.016 13.799 16.374 20.82 2.142 2.803 4.299 5.596 6.461 8.383 9.622 12.441 18.653 25.19 27.348 38.293l3.066 4.602c18.695 28.444 34.658 57.274 29.157 92.355-8.389 35.673-33.63 67.384-55.7 95.773-2.86 3.707-5.661 7.455-8.46 11.207C870.364 648.89 860.226 661.464 850 674l-6.75 8.313-3.258 4.003a1466 1466 0 0 0-5.422 6.711 395 395 0 0 1-12.258 14.473l-2.636 2.969c-5.326 5.038-10.66 6.354-17.926 6.781-9.447-.497-15.142-3.53-21.75-10.25-5.218-8.028-5.691-14.582-5-24 2.13-7.262 6.179-11.681 11.281-17.04 2.82-3.07 5.332-6.26 7.844-9.585a185 185 0 0 1 10.766-12.96c3.552-4.066 6.815-8.358 10.129-12.618 3.07-3.911 6.204-7.763 9.355-11.61 6.728-8.257 13.202-16.69 19.625-25.187l3.027-3.96c43.27-56.972 43.27-56.972 44.16-79.852C887.344 493.39 877.636 478.068 868 464l-3.625-5.562c-10.559-15.839-22.317-30.962-34.25-45.782-2.544-3.18-5.053-6.386-7.562-9.594-6.34-8.077-12.84-16.008-19.438-23.875-4.616-5.517-9.03-11.177-13.441-16.859-2.45-3.037-5.004-5.87-7.684-8.703-6.058-6.675-7.556-12.864-7.277-21.734.784-8.172 4.473-13.272 10.277-18.891 9.665-6.355 18.746-6.933 29.438-3"/><path fill="#d17759" d="m356 388 2 2-5 1v-2h-4v-2l-4 1c-4.923-.072-9.837-.174-14.756-.39-3.06-.063-3.06-.063-8.244.39-3 5-3 5-4 9-4.5-.062-4.5-.062-9-1l-1-3h-5v2l-2.75 1.188c-4.056 2.261-5.236 4.706-7.25 8.812l3-1-2 4-1-2h-3v5l-4 2 1 4-4 2 1 4-5 2-1 3-2-2-4 2v2l-3 1c3.775-15.102 18.07-31.026 31-39 17.987-8.887 36.936-11.002 56-4"/><path fill="#d06f4f" d="M572 200c14.861 14.861 23.989 44.646 29 65l-1 4-1-2-5-1v-2l-4-2c-.437-4.687-.437-4.687 0-9l3 1c-.169-5.662-.551-8.402-4-13v-3h-2l1-3h-3l-1 2c-3.062.75-3.062.75-6 1v-2h-2v4h-2c-.266-3.684-.266-3.684-.25-8.437l-.016-4.747L574 223l2-1v-4h2c-.25-3.5-.25-3.5-1-7h-2a270 270 0 0 1-3-11"/><path fill="#d99b85" d="m347 452 4 1v5h5v-2l3-1 1 5-3 3c.375 3.563.375 3.563 1 7l-1 2h2l1.375 4.125L362 480l4-2v2h2l-1 3h-2c-1 5-1 5 0 9h2v11h2a168 168 0 0 1 2 6l2 3c.125 2.918.125 2.918 0 6.188V524h2l.438 4.438L376 533l3 1c.883 3.29.994 6.159.875 9.563.139 4.928 1.143 9.195 2.332 13.96.818 3.587 1.36 7.145 1.856 10.79L385 574h2v3h2l-1 3-1 3.188-1 2.812h-1a214 214 0 0 1-1.68-7.64l-1.048-5.058-1.147-5.552c-17.283-81.837-17.283-81.837-32.727-109.977C347 455 347 455 347 452"/><path fill="#d5876d" d="M722 533c1.67 3.34.632 6.437 0 10h-2v5l-2 1a380 380 0 0 0-3 9l-1 1c-.237 6.525-.237 6.525 1 9-2 5-2 5-4 9l-5 1c-1 4-1 4 0 6l-2 1 1 2-1 2h-2v-2l-4 1-5.312-.062c-4.843.053-8.15.65-12.688 2.062v-2h-2v-6h-2c-1.442-4.326-1.059-8.472-1-13a146 146 0 0 1 5.938 8.563C684 582 684 582 688 585c4.302.637 6.333.408 10.063-1.875 7.725-8.218 11.26-18.48 15.125-28.875q1.548-4.118 3.105-8.234l1.36-3.648c1.29-3.225 2.746-6.287 4.347-9.368"/><path fill="#d58d73" d="M864 369c16.068 15.508 28.611 35.061 41.379 53.266a286 286 0 0 0 5.523 7.593L913 433l-1 2-5-2v-4l-4-1-2-3-3 3h-2l1-7h-2l-.375-3c-.734-4.696-2.184-7.931-4.625-12l-5-3-.812-4.625L883 394c-4.125-.812-4.125-.812-8-1v-4l-2 2h-3c-1-5-1-5 1-9q-3.422-4.56-7-9z"/><path fill="#d6927b" d="m761 562 2 1v3h2v-3l3-1c-7.828 26.729-18.786 50.382-41 68l-5 2c.813-4 .813-4 2-8h3l2 2v-3h2l-1-4h5v-2h2v-2h2v-2h2l1-4h3v-2h2v-4h2l-1-4h2l1-3-2-1h5l-1-5h2c.75-4 .75-4 1-8h-2v-6h3l.5-3 .5-3h5l-2-5z"/><path fill="#d5876c" d="M396 431c8.602 11.469 12.51 26.983 17.063 40.438l1.519 4.438 1.39 4.183 1.259 3.76C418 487 418 487 417 491l-1-1v-5h-3q-.57-3.49-1-7l-2-1-1-3c-3.437-.875-3.437-.875-7-1l-2 3h-2c-.75-3.375-.75-3.375-1-7l2-2 2 2-1-5 2-2v-5l1-3v-4h-2c-1.47-3.594-2-6.078-2-10h-2v-3h-2c.375-3 .375-3 1-6"/><path fill="#d28066" d="m405 684 1 3h3c1.316 4.488 1.316 4.488 2.563 10.313 2.249 10.404 2.249 10.404 4.437 13.687.413 3.22.733 6.452 1 9.688.527 6.336 1.402 12.165 3 18.312v7h2c1.07 2.852 1.07 2.852 2.125 6.625l1.07 3.727C426 760 426 760 426 766l3 1-1 5 3 1c-.312 3.063-.312 3.063-1 6-9.617-14.426-12.143-35.913-16.312-52.625l-.789-3.151C405 691.554 405 691.554 405 684"/><path fill="#d48267" d="M829 410c5 2 5 2 8 4v2h6l1-2 2 2h2v2h2v-2h2l-1.062 3.938c-.31 1.34-.62 2.68-.938 4.062l3 1-1 4-2 1a312 312 0 0 0 4 10v2h4c.73 1.977 1.394 3.98 2 6l3 2v3h2c.625 3 .625 3 1 6-3.886-3.886-6.82-7.777-10-12.25-7.689-10.735-15.455-21.41-23.75-31.687C829 411 829 411 829 410"/><path fill="#d9937b" d="M545 175c-9.074.252-9.074.252-13.629-.988-5.354-1.24-10.317-1.314-15.808-1.325l-5.934-.05L505 173l-1 3h-4v2c-3.375.25-3.375.25-7 0l-2-2-4 1v2q-4.487.624-9 1c4.754-4.754 9.64-6.697 15.938-8.625l4.152-1.29c14.59-4.051 34.354-4.502 46.91 4.915"/><path fill="#d58468" d="M597 500c2 4 2 4 2 8h2l2 3 4 1c2-2 2-2 3-5h2c.313 5.5.313 5.5 0 11h-3v2l-3-1c-.47 9.059-.47 9.059 1 12l2 1q.523 3.998 1 8l2 4h3l-1-3 2-2h3v3l-2 1-1 3h-2c-.25 5-.25 5 0 10h2q-.378 3.518-1 7c-1.988-2.983-2.858-5.321-3.918-8.723l-1.104-3.535c-.384-1.255-.77-2.51-1.165-3.804l-1.2-3.895a927 927 0 0 1-7.676-26.543l-.905-3.285C597.81 508.638 597 504.765 597 500"/><path fill="#d58f76" d="m483 508 1 2 3.188-.812L490 509c-.75 3.375-.75 3.375-2 7l2 1v5l2 1-.562 4.563L491 532h3c.73 1.977 1.394 3.98 2 6l2 2-1 1c-.375 4-.375 4 0 8l5 1v2h-2c.063 5.438.063 5.438 1 11l5 1c.488 4.473.488 4.473.313 10.063l-.137 5.597L506 584c-2.037-3.055-2.795-5.33-3.777-8.844l-1.041-3.668-1.12-3.988c-3.912-13.756-8.123-27.4-12.519-41.01l-1.356-4.24-1.207-3.734c-.977-3.506-1.55-6.906-1.98-10.516"/><path fill="#d7927b" d="M581 425h2l.375 4 .625 4h4c.125 3.438.125 3.438 0 7l2 1c-.07 3.358-.257 6.713-.5 10.063-.24 3.307-.428 6.621-.5 9.937h2c3 7.038 3 7.038 3 11h4v2h-2c-.305 5.19-.35 8.3 2 13 .012 3.234.012 3.234-.312 6.75l-.301 3.547L597 500h-1a302 302 0 0 1-2.11-9.184l-.628-2.892q-1.011-4.68-2.012-9.361l-1.37-6.361C581 430.909 581 430.909 581 425"/><path fill="#d38468" d="M145 388c2 3 2 3 2 5l3 1v2h-3l-2 2v-2l-4 2c-.625 3.438-.625 3.438-1 7l-2 3h-5l-1 4h-3a150 150 0 0 0-1 6h-2l-1 2h-2v3h-2c-.25 4.438-.25 4.438 0 9l2 1-4 2-2-2-4 1-1 4c-2.562 2.75-2.562 2.75-5 5 0-4.465 2.326-6.687 4.875-10.312l3.059-4.364L118 424l2.535-3.605A834 834 0 0 1 140 394l2.73-3.656z"/><path fill="#d58971" d="M814 311c5.952 2.38 7.939 5.098 12 10l3.375 3.813c4.312 4.98 8.47 10.075 12.625 15.187q2.28 2.782 4.563 5.563 5.368 6.562 10.636 13.207c1.574 1.949 3.214 3.845 4.864 5.73L864 367l-1 2c-3.715-1.238-5.289-3.221-8-6l-3-2v-3l-2-1v-3h-3v-2h-2l-1 2-1-3h-2l-1-3h2l-1-5h-2v-4l-5-1-.875-3.5L832 331c-3.625-.687-3.625-.687-7-1v-4h-2a506 506 0 0 1-2-6l-2-1v-3l-3-1v-2l-3-1z"/><path fill="#d07051" d="m504 217 1 4c4.473.242 4.473.242 10.063-.125l5.597-.32L525 220v-2h3c1 5 1 5 0 9l4 1c1.478 2.957 1.06 5.742 1 9a408 408 0 0 1-5.937-8.125C524 225 524 225 520 223c-6.07-.7-9.875.746-15 4-4.923 5.491-7.507 11.095-10 18-1.322-3.966-.734-6.927 0-11h2l-1-5 1-4-3-1v-4h2v2h2v-4c4-1 4-1 6-1"/><path fill="#d48a72" d="M549 279h2c1.678 4.008 2 6.556 2 11h3c1.352 3.621 1.352 3.621 2.625 8.438.425 1.566.85 3.132 1.29 4.746C561 308 561 308 561.522 312.91 562 317 562 317 564 320c.043 2.666.04 5.334 0 8l1 5h2c.15 4.697-.009 9.365-.125 14.063L567 351h2c1.27 4.95 1.154 9.92 1 15h-1a196 196 0 0 1-1.602-7.328l-.975-4.763-1.048-5.159c-4.364-21.095-9.079-42.056-15.527-62.625C549 283 549 283 549 279"/><path fill="#d47f62" d="M339 433c9.218.479 9.218.479 13 3v2c-5 2-5 2-7 2 .25 3.34.584 6.676 1 10-3-3-3-3-5-6.062-2-2.938-2-2.938-5-4.938-6.28 0-7.448.126-12 4-5.209 6.901-7.96 14.979-11 23-2-3-2-3-1.812-6.187L312 457h3q.063-4 0-8h2v-4l3-1-1-3h2l1-4 5-1 3-1 4.688.063L339 435z"/><path fill="#d68e75" d="m356 388 2 2-5 1v-2h-4v-2l-4 1c-4.923-.072-9.837-.174-14.756-.39-3.06-.063-3.06-.063-8.244.39-3 5-3 5-4 9-4.5-.062-4.5-.062-9-1l-1-3h-5v2c-4 2-4 2-8 1 16.431-14.02 41.447-15.182 61-8"/><path fill="#d38367" d="M887 495c3 2 3 2 6 5l-1 2h2a126 126 0 0 1 2 6l2 4c-.172 3.488-.172 3.488-.75 7.313-.18 1.274-.36 2.55-.547 3.863L896 526l-2-1 1-2h-2l-1 5h-2l-1 5h-2l-.5 3.5-.5 3.5h-2v6h-2l-3 5-5 2c1.807-4.518 3.873-8.368 6.313-12.562 12.657-22.401 12.657-22.401 9.843-33.88a198 198 0 0 0-2.246-6.87C887 497 887 497 887 495"/><path fill="#d58268" d="M565 821h3c-5.256 13.14-18.884 22.476-31 29-4.647 1.787-8.032 3-13 3v-2h6v-2h5v-2h4v-4l-3-1v-2c3-2 3-2 6-2l-1-4h6l4-1h6l-1-4h2v-2h5v-3h2z"/><path fill="#cf7152" d="M497 355h1c.713 3.22 1.366 6.452 2 9.688 2.27 11.276 4.897 22.451 7.625 33.625l1.164 4.778c1.584 6.455 3.185 12.883 5.047 19.264C515 427 515 427 514 431v-3h-2l-1-6h-2l-1-2-4 1c-.187-3.312-.187-3.312 0-7l-1-2h2c-.32-2.002-.656-4.002-1-6 .194-3.476.566-6.906.941-10.367L505 393h-2l-2-11h-2v-9l-2-3c-.23-3.574-.23-3.574-.187-7.687l.019-4.137z"/><path fill="#da9b86" d="M418 491c2.25 3.376 2.93 6.075 3.918 10.008l1.104 4.384 1.166 4.733 1.198 4.836a1150 1150 0 0 1 7.676 33.476c.3 1.39.598 2.781.906 4.214l.817 3.908.715 3.415C436 563 436 563 436 568l-2-2 .063-3.625L434 559h-3c-3.781-7.562-3.135-15.06-2.812-23.281L428 532l-3-1c-.625-3.625-.625-3.625-1-8-.543-4.576-1.256-7.641-3-12h-7v-5l5-1 1-4h-3c0-5 0-5 1-6z"/><path fill="#d48468" d="M149 642h2l1 2 4 2c3 3 3 3 4 6l5 2c.688 3.125.688 3.125 1 6h2l-1-1 3-2 2 1v3h2v2h-2l3 3c2 3 2 3 3 8l3 4v2l5 2c.813 3.625.813 3.625 1 7-7.674-7.434-14.41-15.614-21-24l-2.738-3.465C149 643.452 149 643.452 149 642"/><path fill="#d8957e" d="M816 505h1c.933 9.246.135 16.024-5 24-5.973 6.968-11.007 9.63-19.937 10.875-5.696.883-9.5 2.443-14.063 6.125-3 4.313-3 4.313-5 8-1-2-1-2 .063-6.562L774 543l-2-1 2.813-.875C778 540 778 540 781 538c4.767-2.384 11.762-1.251 17.012-1.328L802 536l-1-5c2.65-.727 5.32-1.39 8-2l1-4c.938-3.25.938-3.25 2-6h2v-5h1l.5-4.5z"/><path fill="#d5896f" d="M648 619c2 1 2 1 3 3h2l1 4 5 1 2 3c4.063 1.313 4.063 1.313 8 2l1-2h6c1 3 1 3 0 7 3.908.342 7.532.414 11.438.313l3.279-.03c7.247-.101 14.225-.518 21.283-2.283v2c-15.067 5.885-31.061 5.018-45.812-1.312-8.058-4.175-14.79-8.247-20.188-15.688z"/><path fill="#dda38f" d="M386 586h1a470 470 0 0 1 2.563 12.25l.708 3.512C392 610.48 392 610.48 392 615h2l1 9h2c1 3 1 3 .438 8.188L397 637h2c.288 2.47.454 4.954.563 7.438.341 7.466.341 7.466 1.437 8.562l-.062 4.563L401 662h2c.358 2.33.688 4.664 1 7l2 4c-.312 5.75-.312 5.75-1 11h-1a492 492 0 0 1-2.512-12.254l-.754-3.854q-1.217-6.225-2.421-12.455l-1.648-8.453a21057 21057 0 0 1-3.22-16.555 4152 4152 0 0 0-3.574-18.171l-.859-4.342q-.738-3.73-1.487-7.46C386.55 595.489 386 591.094 386 586"/><path fill="#d5856b" d="M601 269c3.16 4.74 4.198 10.241 5.688 15.688l1.054 3.845c2.68 9.957 5.082 19.965 7.32 30.03l.943 4.176.843 3.89.75 3.44C618 333 618 333 617 337l-2-1 .063-3.562L615 329h-3l-5-1-1-4 3-3c.75-4.625.75-4.625 1-9l-1-1a603 603 0 0 1-2.504-15.36c-1.29-8.332-1.29-8.332-3.496-11.64-1.048-5.065-2-9.821-2-15"/><path fill="#d68d75" d="M82 532h2l1 3 3 3v5h1l1 5 3 3v6l5-1v3l4-1c.188 3.313.188 3.313 0 8 .228 3.342.54 6.682 1 10h2c.625 3 .625 3 1 6-10.915-10.915-19.882-31.159-24-46z"/><path fill="#d99e8a" d="M463 440c4 4 4 4 4 10h2c2.002 4.005 2.517 6.732 3.063 11.125.84 6.68.84 6.68 1.937 8.875l-1 5h2v3h2c1.705 4.263 2.472 7.513 3 12l2-2 2-2c.125 7.75.125 7.75-1 10h-2v4h2c.083 2.665.083 5.335 0 8-1.863-3.725-3.105-7.204-4.355-11.168l-1.378-4.363-1.454-4.656-1.484-4.741c-2.946-9.473-5.82-18.962-8.517-28.51l-.881-3.096C463.837 447.52 463 444.116 463 440"/><path fill="#d78e76" d="M472 738c3.18 4.77 4.452 10.324 6.188 15.75 2.952 9.073 6.088 17.797 10.402 26.332 1.42 2.937 2.584 5.76 3.41 8.918-2 0-2 0-4.625-2.312C485 784 485 784 485 781h-2v2l-4-1c-1.487-5.206-.957-10.523-.742-15.879C478 763 478 763 475 758c-.422-3.46-.501-6.85-.594-10.332L474 745h-3c.313-3.5.313-3.5 1-7"/><path fill="#d48065" d="m878 624 5 1 2 5c-2.437 3.707-2.437 3.707-6 7.813-3.64 4.244-7.117 8.355-10.312 12.949L866 654l-2-4 3-1v-4l2-1c1-4 1-4 .875-8.312L870 632l3 1 1-5h4z"/><path fill="#d59078" d="m347 452 4 1v5h5v-2l3-1 1 5-3 3c.375 3.563.375 3.563 1 7l-1 2h2l1.375 4.125L362 480l4-2v2h2l-1 3h-2c-1 5-1 5 0 9h2c.25 4 .25 4 0 8h-2c-1.018-2.408-1.018-2.408-2.102-5.781l-1.225-3.721-1.298-3.998c-3.327-10.002-6.89-19.457-11.977-28.727C347 455 347 455 347 452"/><path fill="#f1ccbd" d="m524 654 1 3h2c.62 3.128 1.12 6.28 1.563 9.438 1.344 9.47 1.344 9.47 2.437 10.562l1 9 1 1c1.844 16.988 2.229 34.05 2.313 51.125l.052 5.382c-.004 11.622-.581 23.16-3.365 34.493h-2c.424-2.87.858-5.742 1.395-8.594 6.362-35.792.226-73.267-6.892-108.443C524 658 524 658 524 654"/><path fill="#dfac9a" d="M585 702h1c3.84 31.623 5.092 68.064-7 98-1-3-1-3 .438-7.625 1.494-5.14 1.99-9.064 1.562-14.375h-2l-1-3 3-2 2 1c1.952-8.829 2.257-17.286 2.16-26.297l-.016-3.984a3048 3048 0 0 0-.082-12.469q-.042-6.3-.07-12.597-.019-3.907-.054-7.813c-.017-2.947.017-5.894.062-8.84"/><path fill="#d99d88" d="M159 453h4c-1.92 3.84-4.08 7.147-6.5 10.688-5.526 8.24-10.617 16.677-15.5 25.312l-1.855 3.25c-3.525 6.545-5.296 12.793-6.602 20.11-.18.87-.358 1.742-.543 2.64h-1c-.128-2.498-.176-5-.187-7.5l-.043-4.219L131 500h2l.875-4.375L135 491l4-2v-3h2v-5h2v-2h2v-6l1-2h2q1.02-2.994 2-6l2-1v-2h3v-2l-2-1 3-.187 3-.813z"/><path fill="#d48266" d="M226 653c3.624 3.578 7.12 7.247 10.563 11l2.816 3.063c4.823 5.405 4.823 5.405 6.621 7.937l-1 2-2-2a221 221 0 0 0-7-2c-6-3-6-3-7-5l-3 2 .125-4-.125-4h-2l-1-4h2z"/><path fill="#d69079" d="m842 597 1 4h-2v4h-3l-1 3h4v3h-2l-1 2v-2l-4 1v2h-3l-.937 3.375L829 621l-4 2v2l-4 1v3h-2l-.312 2.938L818 635l-5 1v3l-5 2c2.19-4.382 4.817-7.598 7.938-11.375 5.26-6.41 10.43-12.875 15.539-19.406 3.475-4.433 6.996-8.827 10.523-13.219"/><path fill="#daa08b" d="M506 584h2q.51 2.999 1 6l2 1q.554 3.993 1 8h1a77.6 77.6 0 0 1 2.438 15.063L516 619h3c1.246 5.442 2 10.413 2 16h2c.955 6.018 1.097 11.916 1 18-2.486-4.972-3.628-10.08-4.934-15.45l-.844-3.415q-1.335-5.41-2.66-10.822-1.32-5.385-2.648-10.77-.828-3.347-1.643-6.698c-1.158-4.691-2.415-9.272-3.963-13.852C506 588 506 588 506 584"/><path fill="#d48063" d="M901 592c3 4 3 4 3 7l3-1c-1.886 3.773-3.982 7.034-6.375 10.5l-2.336 3.406C896 615 896 615 892 619l.578-2.844.672-3.656.703-3.656L894 606h-4v-6h2v2h4l1 2c2-5 2-5 1-10z"/><path fill="#d89c86" d="M237 312c5.851 4.347 9.474 8.13 12 15 .831 5.819 1.154 10.232 0 16h-1c-.298-3.447-.45-6.896-.621-10.352-.374-3.598-.814-6.384-2.379-9.648l-5-2-1-3h-2v-3l-5-2v-2c-8.167.583-8.167.583-11 2l-5-2v2c-3.378.637-6.562 1-10 1 10.308-7.543 19.623-7.546 31-2"/><path fill="#d68a70" d="M588 231c3.363 3.363 4.368 8.088 5.938 12.5l1.052 2.898c6.29 17.483 6.29 17.483 5.01 22.602l-1-2-5-1v-2l-4-2c-.437-4.687-.437-4.687 0-9l3 1c-.169-5.662-.551-8.402-4-13v-3h-2c.251-2.344.586-4.68 1-7"/><path fill="#da927a" d="M491 245h3c-.222 3.692-.874 7.269-1.501 10.91-1.787 11.22-1.879 22.348-1.978 33.688l-.08 4.457-.04 4.046L490 301h-3c-.313-3.677-.419-7.185-.398-10.867l-.01-3.349q-.002-3.517.017-7.036c.016-3.6 0-7.199-.02-10.799q.004-3.408.013-6.816l-.019-3.283c.025-2.62.207-5.238.417-7.85l3-2z"/><path fill="#d7957e" d="M434 785h1v5h2l1 5h1v5l3 1-1 3h2v4h3v2l5 2 2 1v2h-2c.188 4.5.188 4.5 1 9h3v3h2l3 5-1 3c-11.236-13.243-19.559-28.897-26-45z"/><path fill="#ce6a48" d="M94 475v2h2c-1 4-1 4-2 7l3 1c-1.187 3.563-1.187 3.563-3 7h-2v2l-3-1-4 2c-.375-4.875-.375-4.875 0-10h2v-5h2v-4c3-1 3-1 5-1"/><path fill="#d99982" d="M570 366c3 4 3 4 4 9l2 2 .438 4.625L577 386h3v2l-2 1v5l2 2-1 4-1-1 .656 3.438.844 4.562.844 4.5c.62 4.253.851 8.21.656 12.5h-1a202 202 0 0 1-1.523-7.531l-.907-4.84-.945-5.129-.922-4.941q-.912-4.894-1.815-9.79a1237 1237 0 0 0-1.784-9.382l-.83-4.293-.745-3.791C570 371 570 371 570 366"/><path fill="#d79179" d="m802 307.75 3.625-.016C809 308 809 308 814 310v1c-5.214-.354-10.418-.786-15.625-1.234L794 310c0 5 0 5 1 7h-2l-2 2-2-1c-2.008.281-4.01.61-6 1l2 1v2h-3v2h-4l-1 5c-1-4-1-4 1.438-8.375 6.334-8.224 13.036-12.92 23.562-12.875"/><path fill="#d6927c" d="M490 302h1a660 660 0 0 1 1.375 13.313c1.019 10.479 2.3 20.795 4.172 31.16C497 350 497 350 496 354q-1.471-4.374-2.937-8.75l-1.653-4.922c-1.33-4.083-2.369-8.163-3.41-12.328l-1-3h2c.123-3.081.12-6.167.063-9.25-.162-9.354-.162-9.354.937-13.75"/><path fill="#d68970" d="M128 614h2v2l3 1 2 4 5 2v3h2v2l4-1 1 2 1-2 3 1c.813 3.5.813 3.5 1 7l-2 1c-.625 3.063-.625 3.063-1 6-3.908-3.908-7.143-7.927-10.5-12.312l-3.406-4.426c-2.66-3.665-5.08-7.206-7.094-11.262"/><path fill="#d6937c" d="M444 357c3 3 3 3 3.438 8.563L448 371l4 2c.6 3.924.977 7.617 1.188 11.563.725 11.35.725 11.35 1.812 12.437.144 4.002.042 7.994 0 12-1.907-3.814-2.761-6.863-3.656-11.004l-.91-4.185-.934-4.373-.934-4.292C444 364.01 444 364.01 444 357"/><path fill="#d78e76" d="m534 236 1 4 3 1q.553 3.493 1 7h2v2h3l1 6h3c1.371 5.257 1.371 5.257 0 8l2 1h-2l1 3c.04 3.666.043 7.334 0 11-2.168-4.336-3.634-8.656-5.187-13.25a234 234 0 0 0-9.625-23.66C533 239 533 239 534 236"/><path fill="#d68f76" d="M196 616c3.329 3.247 6.39 6.571 9.313 10.188l2.359 2.91c2.79 3.479 5.558 6.976 8.328 10.472 2.106 2.56 4.319 4.991 6.563 7.43l3.437 4-1 2-3-3h-3l-1-5-5-2-2-3.562-2-3.438-5-1v3h-2l.063-4.937L202 628l-3-1-1-4h-1a202 202 0 0 1-1-7"/><path fill="#d3846a" d="m761 562 2 1v3h2v-3l3-1c-1.825 6.657-4.075 13.098-6.5 19.563l-1.781 4.753L758 590l-3 1q.444-4.506 1-9h-2v-6h3l.5-3 .5-3h5l-2-5z"/><path fill="#d48e76" d="M293 501h2c-2.622 10.488-14.019 20.664-22.75 26.512-3.375 1.981-6.668 3.909-10.25 5.488l-2-1 1-3h6v-2l-2-1 5-1 1-2h4v-3l2-2 1-3 5-2 1-2h2l1-5h3v-3h3z"/><path fill="#da9a85" d="M825 697h5c-2.032 4.064-4.209 6.71-7.25 10.063l-2.828 3.16c-5.458 5.188-10.684 6.587-18.172 7.027-7.96-.419-14.118-2.466-19.75-8.25l2-1v-2h2l1 3-1 1 5 1v2h3v2c3.938.188 3.938.188 9 0l5.063-.125L812 714v-6l3 3v-2h4v-4h2l1-3z"/><path fill="#d48b72" d="m206 391 3 2c-2.203 4.406-4.86 7.641-8 11.438a340 340 0 0 0-15.074 19.671L184 426l-2-4 2-1 .938-3.062c.35-.97.7-1.94 1.062-2.938h3l1-4h3c-.312-3-.312-3-1-6l1 2h4v-6l4-4h2v-4h3z"/><path fill="#d2856b" d="M243 336h2l-.062 3.5.062 3.5h3c-2.153 10.766-12.392 19.392-20 27v-10a150 150 0 0 1 6-1v-2h3l1-4h3v-4h2l-1-4c-.08-2.665-.087-5.335 0-8z"/><path fill="#d88e77" d="m495 849 1 3c3.063-.25 3.063-.25 6-1v-1c3.5-.687 3.5-.687 7-1v2h9v2h6c-11.844 5.922-27.722 3.703-40 0v-1l5.5-.437L495 851z"/><path fill="#d69179" d="M649 490c2.483 4.966 3.591 10.072 4.875 15.438 1.661 6.845 3.365 13.614 5.563 20.312C661 531 661 531 660 535l-2-2h-1v-6c-4-.875-4-.875-8-1l4-3 2-2-5 1v-5l2-1c-.392-4.074-1.197-7.984-2-12h-1a172 172 0 0 1-.062-7l.027-3.937z"/><path fill="#d68c74" d="M358 390c11.57 2.892 20.377 13.385 28 22l1 4h-6a706 706 0 0 1-1-7c-3-1.312-3-1.312-6-2l-1-2-4-1-2-1v-5h-2l-1-4-3 1z"/><path fill="#d4856a" d="m624 579 3 3 5 1 1 5 1 4h-2l1.438 2.625c1.758 3.798 1.6 5.41.562 9.375-3.658-3.658-5.384-7.37-7.687-12l-2.45-4.875C622 583 622 583 622 580z"/><path fill="#d69078" d="M143 541c3.316 3.946 6 8.104 8.688 12.5a297 297 0 0 0 12.792 19.023L166 575l-1 2-3 1-2-5-2-2-2-5-3-2-1.375-3.25c-1.703-3.93-3.771-6.588-6.625-9.75l-.937 3-1.063 3h-1c0-6 0-6 2-10-.375-3.25-.375-3.25-1-6"/><path fill="#da9781" d="M83 484c1 4 1 4 .5 7.688-1.688 17.936-1.688 17.936 1.5 24.312h-2v6l-1 2v8h-1c-3.942-15.77-3.13-32.612 2-48"/><path fill="#d69780" d="M913 435c10.998 10.998 19.2 28.674 25 43v2h-3c-2-3-2-3-2-9h-2v-3h-2l-.437-3.5L928 461h-3v-3l-2-1v-5h-2c-4-5.412-4-5.412-4-8h-2c-2-3-2-3-2-9"/><path fill="#d68a71" d="m780 350 3.438 1.063L787 352l1-2 4 3v4h3c1 5 1 5 0 8h2v3l3 2 1 5c-3.738-3.637-7.15-7.442-10.5-11.437l-2.781-3.31L785 357l-2.844-3.348C780 351 780 351 780 350"/><path fill="#d68e77" d="M604 523h1q.52 2.997 1 6c1 2 1 2 3 3q.523 3.998 1 8l2 4h3l-1-3 2-2h3v3l-2 1-1 3h-2c-.25 5-.25 5 0 10h2q-.378 3.518-1 7c-3.454-5.18-4.742-11.332-6.562-17.25l-1.249-3.973-1.193-3.855-1.088-3.513A65 65 0 0 1 603 524z"/><path fill="#d99178" d="m529 779 1 4-2 3-.5 3.188L527 792h-2v4l-2 1-1 3h2l-1 2-2-1 .25 3.5-.25 3.5c-2.937.125-2.937.125-6-1l-1-3a257 257 0 0 0-11-1v-1l5.125-.812c7.305-1.477 10.207-2.845 14.5-8.875 2.395-4.349 4.446-8.74 6.375-13.313m-8 27 2 1Z"/><path fill="#d79881" d="M939 540c2.02 6.057-3.367 12.779-6.086 18.313C922.94 578.06 922.94 578.06 917 584c-.125-6.75-.125-6.75 1-9h3l-.625-3-.375-3h5v-6l4-4h2v-4h2v-4h2l-.125-3.812L935 543z"/><path fill="#d78f76" d="M558 574c2.187 3.28 2.93 5.914 3.945 9.715l1.075 4.017 1.105 4.206 1.129 4.193C568 606.487 568 606.487 568 611h-5l-3-3v-2h2v-2h-2v-2h2c0-6 0-6-1-9v-5l-2-5-2 1c-.187-4.375-.187-4.375 0-9z"/><path fill="#d6927b" d="M129 409c1 2 1 2 .188 5.625L128 418h-2l-1 2h-2v3h-2c-.25 4.438-.25 4.438 0 9l2 1-4 2-2-2-4 1-1 4c-2.562 2.75-2.562 2.75-5 5 0-4.465 2.326-6.687 4.875-10.312l3.016-4.305L118 424l2.922-4.133c6.844-9.633 6.844-9.633 8.078-10.867"/><path fill="#d27a5c" d="M706 626h2l3 3c5.188 1.375 5.188 1.375 10 2v-3l3 1c-2 4-2 4-5.25 5.75C715 636 715 636 709 636v1c-4 .25-4 .25-8 0v-3l2-1v-5h3z"/><path fill="#d99781" d="M633 413h1c.745 3.21 1.418 6.437 2.066 9.668l.601 2.99q.63 3.147 1.254 6.293c.635 3.206 1.281 6.41 1.929 9.613l1.216 6.104 1.124 5.634C643 458 643 458 643 463l-1-3-4-1 2-1 1-3h-2c-.587-4.092-.9-8.185-1.242-12.305L637 439l-4-2 1-3h-3v-4h2c.122-2.83.12-5.667.063-8.5A325 325 0 0 1 633 413"/><path fill="#d8947d" d="M814 311c5.952 2.38 7.939 5.098 12 10l3.375 3.813a914 914 0 0 1 8.563 10l2.34 2.769C842 340 842 340 842 343h-3v-4l-5-1-.875-3.5L832 331c-3.625-.687-3.625-.687-7-1v-4h-2a506 506 0 0 1-2-6l-2-1v-3l-3-1v-2l-3-1z"/><path fill="#d68b71" d="M580 667h1c.75 4.164 1.429 8.318 2.063 12.5l.564 3.555C585.47 695.078 585.47 695.078 585 701l-2-1-.25-4.625L582 691q-3.012.43-6 1c-.88-5.575.214-9.208 3-14 1-3 1-3 1-7.187z"/><path fill="#d8937b" d="M625 372h1a209 209 0 0 1 1.629 7.7l.947 4.853.986 5.135.999 5.076C633 407.365 633 407.365 633 413c-5.048-5.048-5.673-7.833-7-15l-1-3c-.097-3.903-.14-7.785-.125-11.687l-.012-3.284c.004-2.677.065-5.353.137-8.029"/><path fill="#d78f76" d="M572 200c5.762 5.762 8.523 12.698 12 20l2.563 5.375L588 229l-1 2-1-4-3 1v-2h-2v-2l-4-1-1-5h2c-.25-3.5-.25-3.5-1-7h-2a270 270 0 0 1-3-11"/><path fill="#d99a85" d="M533 491c4.8 4.8 5.806 13.81 7.76 20.303a1637 1637 0 0 0 2.804 9.158q.882 2.906 1.76 5.812l1.628 5.357C548 536 548 536 547 540v-3l-4-1c-.355-2.966-.696-5.938-.824-8.922C542 524 542 524 541 519h-2c-2-5-2-5-3-9.625-1-4.375-1-4.375-3-7.375-.08-3.666-.086-7.334 0-11"/><path fill="#d48b72" d="M205 315c1 2 1 2 .313 6.063L204 325l-4 1v5h-2l-1 3-3-2-1 2h-2v2h-2v3c-3 1.688-3 1.688-6 3 2.225-4.45 4.903-7.516 8.188-11.25 3.728-4.24 7.434-8.487 11.062-12.812z"/><path fill="#d58970" d="M829 410c5 2 5 2 8 4v2h6l1-2c1.791 4.531 2.004 5.982 1 11l2 2c.4 2.323.74 4.657 1 7-4.62-4.346-8.451-9.24-12.312-14.25l-1.956-2.508C829 411.132 829 411.132 829 410"/><path fill="#d48a70" d="M581 425h2l.375 4 .625 4h4c.125 3.438.125 3.438 0 7l2 1c-.018 2.857-.164 5.713-.375 8.563l-.336 4.753L589 458l-1-4h-2a245 245 0 0 1-2.625-12.25l-.695-3.512c-.866-4.457-1.68-8.686-1.68-13.238"/><path fill="#d68d75" d="m287 403 1 3-1 2-3 1q-1.034 3.49-2 7l-3 3-2-1 2 3h2l1 3-3 1-1 3-2-2-4 2v2l-3 1c2.542-10.168 10.644-20.644 18-28m-5 17 2 1v2h-2z"/><path fill="#da9882" d="M809 492c4.002 4.563 5.807 7.033 7 13l-2-1v-3l-5-2c-2.25-3.062-2.25-3.062-4-6l-1-1-.187 2.875L803 498l-5 2c1.875-5.75 1.875-5.75 3-8l-1-2-5-1v-2c-2.998-.122-6-.12-9-.062-3 .053-6 .083-9 .062v-1c12.187-2.066 22.024-1.516 32 6"/><path fill="#d6886f" d="m816 385 4 1v4l2 1c2 4 2 4 2 9l3 2c1 5 1 5 1 8l-2.23-2.852-2.957-3.773-2.918-3.727a234 234 0 0 0-5.758-6.984C812 390 812 390 812 388l4-1z"/><path fill="#db9f8b" d="M559 312h1l.375 2.938c.706 4.588 2.121 8.676 3.625 13.062l1 5h2c.15 4.697-.009 9.365-.125 14.063L567 351h2c1.27 4.95 1.154 9.92 1 15h-1a226 226 0 0 1-1.742-7.89l-1.043-5.032-1.09-5.328q-1.056-5.133-2.117-10.266l-1.023-4.947a250 250 0 0 0-2.805-11.521C558 316 558 316 559 312"/><path fill="#daa18d" d="M415 728h2c2.02 6.296 3.147 11.375 3 18h2c1.07 2.852 1.07 2.852 2.125 6.625l1.07 3.727C426 760 426 760 426 766l3 1-1 5 3 1c-.312 3.063-.312 3.063-1 6-2.96-4.44-4.217-9.448-5.812-14.5l-1.073-3.378C415 735.274 415 735.274 415 728"/><path fill="#dda693" d="M442 598h1c.648 2.922 1.225 5.86 1.777 8.8l1.057 5.593 1.103 5.92 1.092 5.79q1.042 5.534 2.068 11.067c.53 2.836 1.071 5.67 1.638 8.5.846 4.27 1.337 7.044.265 11.33l-1-4h-2c-.344-2.922-.344-2.922-.5-6.75-.19-4.638-.392-7.034-2.5-11.25a310 310 0 0 1-1.562-11.5c-1.332-11.077-1.332-11.077-2.438-15.5a128 128 0 0 1 0-8"/><path fill="#d27c5e" d="M642 607h2l2 8c2 0 2 0 6-1v4l5 1-1 2h-2c.375 3 .375 3 1 6l-2-1v-4l-3 1-2-3-4-1c-6-6.346-6-6.346-6-9h3z"/><path fill="#d37f63" d="M839 681h2c-.195 5.12-1.936 7.645-5.375 11.313l-2.398 2.613C831 697 831 697 828 698l-3-1v2l-4-1c.063-3.062.063-3.062 1-6h3l1-3c2 1 2 1 3 3l5-1q.622-3.482 1-7l3-1z"/><path fill="#d69178" d="M322 437c4.063.25 4.063.25 8 1l-2.125 1.438C319.882 446.562 316.641 456.2 313 466c-2-3-2-3-1.812-6.187L312 457h3q.063-4 0-8h2v-4l3-1-1-3h2z"/><path fill="#d99983" d="M149 642h2l1 2 4 2c3 3 3 3 4 6l5 2v6l2 1v2l4 2v3h2l1 5c-9.27-8.98-19.193-19.387-25-31"/><path fill="#d99a84" d="M515 431c3.834 5.75 5.193 12.867 7.188 19.438l1.443 4.626 1.35 4.432 1.246 4.068C527 467 527 467 526 471l-1.375-4-1.625-4h-2v-9h-2l-1-5h-3c.375-2.937.375-2.937 1-6l-1-1a484 484 0 0 1 0-11"/><path fill="#e0ad9b" d="M938 480c2.566 2.566 3.021 4.782 4.063 8.25l1.035 3.39c4.011 14.936 3.838 33.974-2.098 48.36l-2-1a239 239 0 0 1 2.125-9.625C942 525 942 525 941 522l2-1c.2-2.89.26-5.79.25-8.687l.016-4.825c-.238-4.02-.853-6.774-2.266-10.488a574 574 0 0 1-3-17"/><path fill="#d4856b" d="m575 800 3 1c-1.729 6.808-4.704 12.84-8 19h-1c-1.859-13.424-1.859-13.424 0-19 3 1 3 1 5 2z"/><path fill="#d68c74" d="M860 659c0 4.392-2.26 5.93-5.125 9.188-3.296 3.796-6.532 7.565-9.5 11.625L843 683h-1c.125-5.437.125-5.437 1-11l5-1 2-4h3v-6c3.5-1.562 3.5-1.562 7-2"/><path fill="#d7957e" d="M105 443c1 2 1 2 .438 5.063L105 451l2 1v2h-3v-2h-3a195 195 0 0 0 0 7l-2 4h-2v2h-2v3h-2l-1 4-3 1c1.554-5.447 4.107-10.073 6.875-15l2.617-4.687c4.268-7.34 4.268-7.34 6.508-10.313"/><path fill="#d7917a" d="M458 681c1.746 3.492 2.64 6.184 3.508 9.938l.8 3.46.817 3.602.84 3.602C466 710.484 466 710.484 466 715h-2l-1 2c-1-5-1-5 0-10h-2l-1-2-1 2h-2v-3h2a212 212 0 0 0-.375-11.5l-.172-3.324c-.142-2.726-.296-5.451-.453-8.176"/><path fill="#da9983" d="M572 627c2.597 5.194 3.464 10.534 4.563 16.188l.67 3.33c1.213 6.148 2.18 12.235 2.767 18.482l-4-3v-6l-4-4c-.29-4.344-.375-8.42-.25-12.75l.055-3.559c.047-2.897.119-5.794.195-8.691"/><path fill="#d99983" d="M661 535c3.378 3.378 4.329 8.182 5.875 12.625 2.33 6.69 4.902 13.058 8.125 19.375v2h-2v-2h-2l-1 3 .625-3 .375-3h-2v-6l-4-1c-.04-3.333-.043-6.667 0-10l-3 1c-1.442-4.326-1.059-8.472-1-13"/><path fill="#d69078" d="m864 567 1 4-2 3 2 1-4 1a224 224 0 0 0-5 10l-2 2h-3l-1 5h-4c1.788-4.47 3.148-6.645 6.188-10.187 4.267-5.083 8.077-10.329 11.812-15.813"/><path fill="#dc9f8a" d="M256 531h2v2l2 1q-2.842.974-5.687 1.938l-3.2 1.09c-5.416 1.692-10.415 2.159-16.05 2.222l-4.153.078c-4.05-.34-6.478-1.2-9.91-3.328v-1h6v1c2.77.102 5.541.13 8.313.125l4.675.008C244 536 244 536 247 535v-2h9z"/><path fill="#d6947e" d="M890 520h1c.083 2.665.083 5.335 0 8h-1l-1 5h-2l-.5 3.5-.5 3.5h-2v6h-2l-3 5-5 2c1.807-4.518 3.873-8.368 6.313-12.562 3.802-6.668 6.84-13.32 9.687-20.438"/><path fill="#d79d8b" d="M246 677c3.046 3.046 3.256 5.768 4 10-.09 8.511-1.077 13.795-6 21h-2v2l-4 3-2-1 2-5h3l1-3 3-1v-4h2a194 194 0 0 0-.375-11l-.172-3.18c-.142-2.607-.296-5.214-.453-7.82"/><path fill="#d89781" d="M205 710c2.344.251 4.68.586 7 1v2q4.003-.477 8-1l5 1c3.533-.365 6.63-.877 10-2l1 3c-5.845 3.586-11.3 3.447-18 3-6.074-1.538-8.518-2.518-13-7"/><path fill="#d4866d" d="m503 172 2 3-5 1v2c-3.375.25-3.375.25-7 0l-2-2-4 1v2q-4.487.624-9 1c4.411-4.411 8.597-6.395 14.563-7.75l3.378-.797C499 171 499 171 503 172"/><path fill="#c67154" d="m583 700 2 1c1.888 11.695 1.154 23.967 1.13 35.785-.005 3.199 0 6.397.007 9.596q0 3.042-.004 6.084l-.004 5.55L586 762h-1c-.15-2.76-.229-5.522-.281-8.285l-.114-5.236-.105-5.542q-.104-5.361-.219-10.722l-.092-4.84c-.167-3.871-.48-7.567-1.189-11.375h-1c.039-2.69.157-5.377.313-8.062l.238-4.536z"/><path fill="#d9967d" d="M525 218h3c1 5 1 5 0 9l4 1c1.478 2.957 1.06 5.742 1 9a408 408 0 0 1-5.937-8.125C524 225 524 225 520 223c-4.326-.236-7.712.142-12 1l1-3c3.598-.441 3.598-.441 8.063-.562 2.648-.077 5.298-.203 7.937-.438z"/><path fill="#d3795c" d="M526 172c3.003.65 6.003 1.322 9 2a239 239 0 0 0 6.25.438C547 175 547 175 552 178l-4 2-3-1h-4l-2 2-2-3h-3l-1-2-5.625.063L522 176l1-3 3 1z"/><path fill="#dca38f" d="M497 355h1a434 434 0 0 1 2.313 10.938c1.822 9.023 3.813 17.97 6.085 26.894C507 396 507 396 506 399l-1-1v-5h-2l-2-11h-2v-9l-2-3c-.23-3.574-.23-3.574-.187-7.687l.019-4.137z"/><path fill="#d99f8a" d="M708 635h4v2c-12.922 5.048-26.812 5.187-40 1l-3-2 4.813.5c11.296.94 22.97 1.318 34.187-.5z"/><path fill="#d88f76" d="m476 180 2 1-2 3v5h-2l-1 2-3 4h-8c3.191-6.382 8.34-10.755 14-15"/><path fill="#d89a84" d="M548 540c2.06 3.09 2.895 5.548 3.945 9.094l1.075 3.62 1.105 3.786 1.129 3.785C558 569.61 558 569.61 558 573l-3-1v-4h-2v-6h-2a202 202 0 0 1-1-7h-1c-.24-2.495-.417-4.997-.562-7.5l-.254-4.219z"/><path fill="#d6886e" d="M418 491c4.495 6.742 5.663 15.045 5 23l-2-1v-2l-3.5.188L414 511v-5l5-1 1-4h-3c0-5 0-5 1-6z"/><path fill="#d6947e" d="M565 821h3c-3.8 9.502-11.705 16.283-20 22l-2-4h4v-3l3-1 1-2h3l-1-4h2v-2h5v-3h2z"/><path fill="#dca693" d="m524 654 1 3h2c.62 3.128 1.12 6.28 1.563 9.438 1.344 9.47 1.344 9.47 2.437 10.562l1 9 1 1c.188 5.063.188 5.063 0 10h-2c-.654-2.503-.654-2.503-1.219-5.992l-.636-3.828-.645-4.055q-.639-3.903-1.281-7.805l-.617-3.792c-.526-3.085-1.136-6.156-1.758-9.223C524 658 524 658 524 654"/><path fill="#d99680" d="M618 337h1c1.232 4.873 2.14 9.822 3.125 14.75l.879 4.234.816 4.063.759 3.745C625 367 625 367 624 371q-.755-2.904-1.5-5.812l-.844-3.27C621 359 621 359 621 356h-5v-3h2v-3h-2l-1 2v-3h2a195 195 0 0 0 0-7z"/><path fill="#da9e89" d="M268 431c1.247 4.99.005 6.373-2 11l-.5 4.25C265 450 265 450 262 453l-.437 3.938C261 461 261 461 257 465h-2c2.153-7.548 5.247-14.793 8.188-22.062l1.404-3.49q1.7-4.226 3.408-8.448"/><path fill="#d79680" d="M455 409h2c4.99 4.99 4.453 12.353 5 19l1 3c.04 3 .043 6 0 9-2.492-4.984-3.742-10.133-5.125-15.5l-.84-3.168C455.943 417.13 455 413.36 455 409"/><path fill="#daa18c" d="M454 204c1.72 3.441.076 6.489-1 10h-2a706 706 0 0 0-1 7l-2 2-.5 4.125L447 231h-2v5l-4-1c.93-3.832.93-3.832 2.875-8.812l2.027-5.196A204 204 0 0 1 454 204"/><path fill="#d99781" d="M796 654c0 5.214-.86 7.813-4 12l-1 3a201 201 0 0 1-6 3l-1 2-5 2c2.38-4.761 5.467-8.011 9-12 2.7-3.308 5.35-6.652 8-10"/><path fill="#d9977f" d="M132 515c2 4 2 4 3.813 8.625 1.55 3.808 3.119 7.17 5.062 10.75L143 539l-2 4-.312-3-.688-3h-3v-3l-3 1-2-1v-2l2-1-1-1a218 218 0 0 1-.562-7.562l-.254-4.192z"/><path fill="#d28164" d="m897 418 4 4 2-1c4.034 3.489 7.127 7.52 10 12l-1 2-5-2v-4l-4-1-2-3-3 3h-2l1-7h-2v-2z"/><path fill="#d7947d" d="M187 689c3.375 0 3.375 0 7 1l1 5 4 4v2h4l1-2-1 5c.938 3.313.938 3.313 2 6-3.838-3.796-7.567-7.679-11.25-11.625l-3.203-3.414C188 692 188 692 187 689"/><path fill="#d78b71" d="M183 600c5.878 4.149 9.804 9.607 13 16l-4-2-5-2-2 1-1-5h-2q.376-4.016 1-8"/><path fill="#c87155" d="M386 581h2c1.528 3.48 2 5.99 1.938 9.813L390 594l3 1h-2l.875 3.813c1.229 5.667 1.271 10.413 1.125 16.187-2.632-5.265-3.507-10.707-4.625-16.437l-.695-3.432c-.95-4.8-1.68-9.225-1.68-14.131"/><path fill="#dc9f89" d="M778 676h1v6l-2 2 1 3c.336 2.247.645 4.497.938 6.75.674 4.902 1.492 9.54 3.062 14.25-4.903-4.387-6.72-7.838-7.3-14.402-.04-11.986-.04-11.986 3.3-17.598"/><path fill="#d5876c" d="m347 452 4 1v5h5v-2l3-1 1 5-3 3v5h-2l-1-4h-2c-5-8.214-5-8.214-5-12"/><path fill="#d99881" d="m405 684 1 3h3c1.951 5.705 2.245 11.008 2.188 17l-.02 4.563L411 712h-1a435 435 0 0 1-2.562-11.75l-.71-3.367C405.83 692.533 405 688.454 405 684"/><path fill="#d3866b" d="M439 583h1c1.586 6.64 2.28 13.093 2.71 19.875.29 3.125.29 3.125 1.415 8.188C445 615 445 615 444 619l-3-2-2 2-1-5h3c.11-3.48.11-3.48-.25-8.187l-.352-4.942-.734-8.96c-.243-2.97-.457-5.94-.664-8.911"/><path fill="#dfae9b" d="M601 269c3.425 5.137 4.45 11.272 6.063 17.188l1.103 3.947c1.726 6.28 3.296 12.348 3.834 18.865-2-1-2-1-3.5-4.812a89 89 0 0 1-2.562-11.563C605 287 605 287 603 284c-1.048-5.065-2-9.821-2-15"/><path fill="#d99c86" d="M722 533c1.67 3.34.632 6.437 0 10h-2v5l-2 1-1.375 4.313C715 558 715 558 711 562c6.8-24.8 6.8-24.8 11-29"/><path fill="#e1ac99" d="M209 501c1.255 5.02.604 9.195.059 14.297L209 518h2l1 5c1 3 1 3 2 5l4 2v3c-5.565-2.782-8.037-6.568-10.312-12.312-1.276-6.841-1.415-13.21 1.312-19.688"/><path fill="#d78f75" d="M733 515c0 3 0 3-2 7l4 1-1 2-2-1v2l-3 3-1 3-5 1c.834-6.17 5.711-13.711 10-18"/><path fill="#d5886f" d="M476 478c3.282 3.282 3.202 7.555 4 12l2-2 2-2c.125 7.75.125 7.75-1 10h-2v4h2c.083 2.665.083 5.335 0 8-3.973-7.946-5.376-15.163-6-24a171 171 0 0 0-1-6"/><path fill="#d58a70" d="m176 424 5 1 1 4c-2.055 3.234-2.055 3.234-4.875 6.75l-2.805 3.547L172 442h-1c-.75-3.5-.75-3.5-1-7h3v-2h3v-4h2z"/><path fill="#d6927a" d="m159 370 1 2c-1.75 3.563-1.75 3.563-4 7l-3 1 2 4v3c-4 1-4 1-9 1 2.01-4.019 4.308-7.148 7.063-10.687l2.722-3.512C158 371 158 371 159 370"/><path fill="#d89179" d="M466 715c1.938 3.875 3.058 7.391 4.188 11.563l1.105 4.003C472 734 472 734 471 737v-2l-3-.187-3-.813c-.537-4.068.005-7.019 1-11 .04-2.666.044-5.334 0-8"/><path fill="#d89a86" d="M507 400h1c1.394 4.362 2.473 8.819 3.625 13.25l1.023 3.8.954 3.653.885 3.364C515 427 515 427 514 431v-3h-2l-1-6h-2a270 270 0 0 1-1-9l-1-2a242 242 0 0 1 0-11"/><path fill="#dba28e" d="M240 315c4.962 2.926 6.923 6.733 9 12 .831 5.819 1.154 10.232 0 16h-1c-.298-3.447-.45-6.896-.621-10.352-.374-3.598-.814-6.384-2.379-9.648l-5-2-1-3h-2v-2z"/><path fill="#d8967e" d="m505 222 1 2 2 1-2.562 1.938c-5.523 4.92-7.732 11.297-10.438 18.062-1.322-3.966-.734-6.927 0-11h2l-1-5h2l1-2h2v-2h2l1-2z"/><path fill="#dfa490" d="M254 465c1 4 1 4 0 8h-2c-.75 3-.75 3-1 6h2l-1 5-2-1v-5c-5.875 4.75-5.875 4.75-7 7-3.562.125-3.562.125-7 0 2.617-1.744 5.303-3.382 8-5 4.29-4.505 7.095-9.522 10-15"/><path fill="#d6927b" d="M159 453h4c-2.074 4.148-4.449 7.879-7 11.75l-2.687 4.11L151 472h-2c.25-3.437.25-3.437 1-7l2-1v-2h3v-2l-2-1 3-.187 3-.813z"/></svg>