<svg xmlns="http://www.w3.org/2000/svg" width="1408" height="768"><path fill="#ce6c4c" d="m1052.375-.5 3.602.03c10.615.225 18.767 1.916 28.023 7.47.014 6.507-2.2 12.705-4.125 18.875l-1.045 3.37c-3.902 12.336-8.306 24.492-12.694 36.661-5.09 14.12-10.047 28.282-14.948 42.469-4.915 14.215-9.86 28.417-14.944 42.573-3.399 9.462-6.701 18.957-9.996 28.457-14.741 42.48-14.741 42.48-19.998 56.283-3.6 9.476-6.954 19.019-10.235 28.61a3606 3606 0 0 1-10.64 30.577c-3.518 9.994-7.03 19.99-10.5 30-5.718 16.47-11.563 32.897-17.45 49.309a2996 2996 0 0 0-13.886 39.594c-2.788 8.11-5.71 16.16-8.707 24.195-2.294 6.295-4.472 12.627-6.644 18.964-4.518 13.174-9.176 26.293-13.877 39.402A7667 7667 0 0 0 907.312 516l-1.422 4.002a2169 2169 0 0 0-7.265 20.81C891.175 562.138 883.058 583.306 874 604l-1.98 4.574A519 519 0 0 1 858 638l-2.375 4.66c-5.4 10.453-11.257 20.452-17.625 30.34l-1.727 2.805c-3.783 6.131-7.904 12.017-12.086 17.883l-3.394 4.761L818 702h-2l-2 4a551 551 0 0 1-7 7q-3.514 3.989-7 8l-4 4h-2v2c-26.695 25.627-62.145 42.287-99.25 41.813l-5.964-.048c-14.982-.315-27.93-2.114-41.786-7.765l-5.223-2.117C627.405 752.528 615.31 743.833 604 733l-2.687-2.562c-26.441-27.87-37.882-64.276-37.458-102.29.794-22.772 5.93-43.77 13.645-65.086l1.365-3.786c2.74-7.316 5.926-13.697 10.135-20.276q1.788-3.027 3.563-6.062l1.628-2.786a365 365 0 0 0 4.153-7.468c7.623-13.442 17.156-25.848 26.367-38.235 2.92-3.95 5.773-7.934 8.601-11.949 5.271-7.414 10.922-14.421 17-21.187 4.422-5.172 8.426-10.595 12.477-16.06 4.1-5.43 8.388-10.696 12.715-15.948C678 416 678 416 679.714 412.57L681 410h2l2-4 3-4.25c19.123-27.114 35.66-57.994 30.309-92.164-3.831-16.766-11.903-30.958-26.274-40.8C672.682 257.401 652.547 255.661 631 261c-14.805 4.519-27.994 12.352-40 22l-2.773 2.14C586 287 586 287 585 289h-2l-2 4a215 215 0 0 1-5 5c-33.184 36.696-56.13 84.114-79.16 127.555-15.23 28.518-32.142 56.513-51.695 82.289a715 715 0 0 0-6.196 8.312c-5.59 7.6-11.359 14.752-17.867 21.586C419 540 419 540 418 542h-2l-2 4c-5.864 6.29-12.266 11.67-19 17l-2.96 2.406C373.823 579.905 352.843 591.82 330 597l-4.578 1.121C288.904 606.19 251.535 598.91 219 581l-4.238-2.234c-14-7.523-27.057-16.345-40.047-25.473-3.352-2.341-6.691-4.622-10.153-6.793l-2.816-1.777L159 543c-8.055-5.06-15.977-10.306-23.883-15.595-6.99-4.67-14.033-9.25-21.101-13.8-5.257-3.41-10.457-6.904-15.649-10.414a134 134 0 0 0-6.703-4.093c-7.255-4.154-14.172-8.872-21.16-13.457-2.227-1.46-4.457-2.912-6.688-4.364C36.674 463.455 8.226 440.907 0 408c-1.02-15.632-1.558-31.49 5-46l2.313-5.312c22.55-39.334 69.031-61.528 107.234-83.141 4.607-2.635 9.108-5.4 13.605-8.215 6.748-4.09 13.616-7.976 20.474-11.878A291 291 0 0 0 167 242a651 651 0 0 1 8.008-4.387c8.575-4.623 16.95-9.562 25.242-14.675 11.77-7.233 23.756-14.086 35.75-20.938l4.305-2.465c11.35-6.443 22.851-12.61 34.364-18.755q3.282-1.753 6.556-3.517a2016 2016 0 0 1 9.15-4.888l2.713-1.468c8.332-4.395 18.297-9.425 27.912-7.907 6.137 4.282 9.23 11.921 11 19 1.211 18.747-4.058 34.329-16 49h-2l-2 4c-18.494 20.955-44.142 35.214-68.313 48.575-8.592 4.764-17.013 9.776-25.414 14.867-8.133 4.914-16.364 9.634-24.664 14.26-3.914 2.185-7.778 4.404-11.574 6.79-4.906 3.05-9.945 5.782-15.035 8.508l-8.738 4.692C148.008 338.209 137.921 343.899 128 350l-4.102 2.434c-8.913 5.327-17.556 10.963-26.085 16.878l-2.934 2.03c-4.15 2.907-8.08 5.831-11.93 9.138C80 383 80 383 78 383c-2 4-2 4-4 9 5.396 12.497 23.287 20.828 34 28l2.735 1.837c8.77 5.89 17.543 11.775 26.484 17.405 10.5 6.636 20.87 13.466 31.191 20.375a683 683 0 0 0 10.215 6.633c5.818 3.722 11.572 7.535 17.313 11.375C247.54 512.081 247.54 512.081 268 520l4.2 1.68c18.34 6.963 36.322 8.581 54.714.793 8.891-4.243 16.465-9.29 23.906-15.75C353 505 353 505 355 505l1-3q2.695-2.28 5.395-4.559c5.832-5.465 13.01-12.25 16.605-19.441h2l2-4c1.47-1.96 2.975-3.894 4.5-5.812 8.22-10.57 15.384-21.857 22.5-33.188l2.371-3.742C420.48 416.813 428.727 401.934 437 387l4.938-8.875A4605 4605 0 0 0 452.5 359c.92-1.67 1.838-3.341 2.785-5.062q2.61-4.748 5.211-9.5C466.722 333.122 473.271 322.023 480 311l1.688-2.768c5.861-9.597 11.835-19.038 18.312-28.232l1-2h2l2-4c7.36-11.547 16.478-21.255 26-31l2.863-2.984c29.1-29.889 69.372-51.583 111.614-52.282q5.073-.008 10.148.016l5.14-.023c23.457.036 47.202 5.697 67.235 18.273l3.18 1.965C752.46 221.638 768.722 239.79 779 263l1.863 3.902c15.525 34.34 13.857 74.239 1.317 109.168-8.947 22.98-20.92 43.852-35.18 63.93l-1.91 2.707c-4.57 6.379-9.342 12.61-14.09 18.856l-2.014 2.65c-4.577 6-9.257 11.907-13.986 17.787-17.496 22-34.828 44.316-50 68l-2.934 4.57c-17.364 27.916-30.872 60.974-24.004 94.43 5.708 19.975 14.956 32.605 32.875 42.813 13.81 5.966 28.319 7.645 42.704 2.582 11.758-4.881 22.238-10.274 31.297-19.332L747 673h2l1-3c2.6-2.753 5.338-5.311 8.125-7.875C767.18 652.486 774.276 641.341 781 630l2.938-4.75C793.92 608.538 802.353 590.88 810 573l1.269-2.853c4.33-9.848 8.04-19.896 11.69-30.013a3358 3358 0 0 1 3.12-8.595 1080 1080 0 0 0 10.49-30.272c2.371-7.073 4.936-14.073 7.494-21.08 8.742-24.082 17.21-48.26 25.57-72.477 8.394-24.283 17.05-48.475 25.672-72.678a5609 5609 0 0 0 11.04-31.299 7893 7893 0 0 1 7.53-21.42l1.557-4.417q4.636-13.124 9.38-26.209a801 801 0 0 0 7.625-22c3.866-11.72 8.044-23.323 12.217-34.937a4462 4462 0 0 0 20.08-57.168 3385 3385 0 0 1 7.434-21.332 3333 3333 0 0 0 5.373-15.549A3016 3016 0 0 1 989.5 66.5l1.277-3.578C992.45 58.25 994.157 53.608 996 49l-2-1h3a594 594 0 0 0 1.875-6.684C1004.053 26.053 1013.53 11.715 1028 4c8.383-3.64 15.28-4.645 24.375-4.5M1202 211l2.49 1.525c10.296 6.308 20.523 12.685 30.51 19.475 9.688 6.537 19.491 12.853 29.387 19.07 4.014 2.55 7.98 5.151 11.926 7.805 13.106 8.799 26.488 17.174 39.937 25.438 8.202 5.049 16.307 10.239 24.375 15.5l3.231 2.1c24.817 16.255 47.896 34.423 60.144 62.087l2.18 4.867c2.708 7.62 2.364 15.326 2.257 23.32l.022 4.561c-.042 7.363-.13 13.534-3.459 20.252l-1.797 3.965c-3.78 7.69-7.567 14.509-13.203 21.035l-1.98 2.375c-19.568 22.811-47.591 38.235-73.02 53.625l-2.772 1.685a1188 1188 0 0 1-30.224 17.741c-9.217 5.243-18.334 10.65-27.453 16.062-6.506 3.856-13.03 7.68-19.551 11.512l-12.742 7.496-8.578 5.04c-6.665 3.912-13.317 7.84-19.93 11.839-9.49 5.706-19.112 11.175-28.75 16.625l-4.535 2.566c-17.21 9.651-34.733 18.779-52.465 27.434l-3.176 1.563c-4.898 2.333-9.338 4.437-14.824 4.437-6.296-3.778-8.822-6.551-11.195-13.523-4.027-17.397 1.224-33.288 10.035-48.196 9.178-13.942 21.518-24.796 35.16-34.281l3.27-2.277c11.298-7.686 23.025-14.68 34.73-21.723l4.21-2.543c21.453-12.921 43.155-25.416 64.92-37.8 5.16-2.94 10.302-5.899 15.382-8.977 4.488-2.68 4.488-2.68 9.738-5.243 8.964-4.4 17.462-9.658 26.015-14.798 2.489-1.492 4.988-2.965 7.489-4.436C1325.32 407.02 1325.32 407.02 1334 394c-1.78-8.898-9.338-13.21-16.437-18.25l-4.813-3.418L1308 369l-4.062-2.863c-10.11-7.042-20.495-13.606-30.938-20.137q-4.783-3.03-9.562-6.062a1222 1222 0 0 0-18.25-11.313c-6.784-4.126-13.499-8.348-20.188-12.625a1255 1255 0 0 0-24.77-15.418c-4.12-2.514-8.208-5.072-12.293-7.644-6.786-4.256-13.667-8.329-20.582-12.372-7.51-4.425-14.933-8.993-22.355-13.566l-4.27-2.602A269 269 0 0 1 1117 248l-6.125-4.5c-14.925-11.248-29.93-25.807-34.875-44.5.29-7.712 1.175-12.878 6.375-18.625 35.637-23.348 89.56 12.144 119.625 30.625"/><path fill="#ce7e62" d="M857 444h1c.188 4 .188 4 0 8h-2l-1 5-1.625 4.625C852 466 852 466 853 469v2l3 1-1 3-5 2a101 101 0 0 0-2 6l-3 1q-.062 3.5 0 7h-2a290 290 0 0 0-1 6 142 142 0 0 1-3 9l-2 1c-1.86 4.76-2.997 8.973-3.562 14.063L833 525h-2c-1.932 4.346-3.07 8.379-3.937 13.063-1.047 4.863-2.603 7.688-5.063 11.937-1.713 5.456-2.95 10.423-3.437 16.125L818 570l-4 1v5l-3 1a180 180 0 0 0-1 6h-2v6c-1.104 3.776-2.567 7.329-4 11l5-2h5l-1 4h-6l-1 2h-5l-1 3h-2l-1 4h-3c-.792 2.705-1.572 5.416-2.246 8.152-.856 3.234-1.986 6.004-3.754 8.848h-2v3l-3 3h-3c.754-3.77 2.282-6.451 4.32-9.71 10.11-16.182 18.188-33.773 25.68-51.29l1.269-2.853c4.33-9.848 8.04-19.896 11.69-30.013a3358 3358 0 0 1 3.12-8.595 1076 1076 0 0 0 10.46-30.184c2.523-7.52 5.246-14.966 7.961-22.418l3.281-9.035 1.606-4.414c2.198-6.115 4.32-12.255 6.431-18.4z"/><path fill="#d38d74" d="M711 362h1c-.37 5.544-.925 9.813-3 15h2v-2h2l-1 4 4 1-2 4h-2v2c-2.937 1.375-2.937 1.375-6 2l-1-4c-5.875 9.75-5.875 9.75-7 12h2c-.125 2.938-.125 2.938-1 6l-4 1-1 3-5-1v3l-4 1-2 5h-2l-1 5h-2v4h2v3l-2.625.25c-4.848 1.077-6.457 3.882-9.375 7.75l-1 2h-2c-.816 2.555-.816 2.555-1.562 5.875-1.364 5.977-1.364 5.977-2.438 8.125l2 2-5 2c-5.013 2.314-8.045 4.045-12 8h-2l-2 5c-2.375 2.063-2.375 2.063-5 4l-4 4c2.674-6.685 5.96-10.968 11-16 6.739-7.627 12.838-15.715 18.895-23.887 4.065-5.384 8.32-10.602 12.609-15.808C678 416 678 416 679.714 412.57L681 410h2l2-4 3-4.25c8.476-12.018 15.665-24.485 22-37.75z"/><path fill="#d1927c" d="m655.813 187.688 5.1-.01c23.39.1 47.115 5.785 67.087 18.322l3.18 1.965c9.713 6.24 19.088 13.424 26.82 22.035l-1 2-3.187-3.312c-3.853-3.726-4.801-4.2-9.813-4.688v-3l-4-1v-2h-2v-2c-5.412-1.294-5.412-1.294-8 0v-2h-2l-1-4-4-1-2-1v-4h-5l-4-1v-2l-5-1c-4.312-1.437-4.312-1.437-8-3v-2c-2.773-.16-2.773-.16-6.375-.062-6.428.16-6.428.16-8.625-.938v-2c-3.937-.25-3.937-.25-8 0l-1 2h-3v-2c-3.47-1.735-7.303-1.131-11.125-1.125l-5.008-.008L652 191v1a539 539 0 0 1-14.59-.303c-7.297-.12-12.797.84-19.41 4.303l-1 4h-2l1 5c-4-2-4-2-8-5l-3 1c-3.78-.412-7.307-1.077-11-2a1731 1731 0 0 1 11.438-3.812l3.181-1.08c15.667-5.129 30.76-6.58 47.193-6.42"/><path fill="#d0937d" d="m1056 85 2 1c-1.267 8.454-4.492 16.428-7.375 24.438l-3.254 9.128-1.688 4.72c-2.686 7.522-5.34 15.056-7.995 22.589l-1.537 4.353a8559 8559 0 0 0-9.217 26.256c-4.621 13.18-9.282 26.347-13.934 39.516-2-4-2-4-.75-8.75L1014 204h2v-5h2c.266-3.027.266-3.027.25-6.937l.016-3.903L1018 185l-2-1 3-2 2 1c.73-3.654 1.394-7.323 2-11l1-2h-6l-1 2c1-4 1-4 4-8l2-1v3l5 1c.688-5.687.688-5.687.762-8.95C1029 155 1029 155 1031 151h2v-6l3-3c.914-3.11.914-3.11 1.625-6.75l.727-3.61c.648-3.64.648-3.64 1.046-7.53L1040 121l3-1v-4h2c.757-2.79 1.405-5.609 2-8.437a181 181 0 0 1 2-8.563l2-1 1-4.5 1-4.5 2-1z"/><path fill="#d29a84" d="m1019 10 2 1-3.125 3.063c-4.79 4.866-7.226 9.343-8.875 15.937l4 1-1 5-2-2-5 2c-1.187 3.125-1.187 3.125-2 6h-2a382 382 0 0 0-2.145 8.598c-1.254 4.99-2.911 9.637-4.855 14.402h-2c-.344 2.625-.344 2.625-.5 6s-.156 3.375-.5 6h-2a270 270 0 0 0-2.078 7.66c-.98 3.553-2.199 6.95-3.485 10.403-2.046 5.592-3.414 11.058-4.437 16.937l-1 3h-2q-1.023 5.496-2 11l-2 2c-1.382 3.542-2.13 6.793-2.75 10.563-1.424 5.055-2.97 6.553-7.25 9.437 1.273-6.2 2.934-12.041 5.063-18l1.867-5.25q1.034-2.876 2.07-5.75l1.142-3.168 1.178-3.27 1.191-3.304q1.143-3.166 2.292-6.328c1.777-4.907 3.509-9.822 5.146-14.778 2.282-6.903 4.724-13.746 7.176-20.59l1.34-3.755c1.777-4.97 3.574-9.905 5.535-14.807l-2-1h3a594 594 0 0 0 1.875-6.684C1003.041 29.035 1009.92 19.08 1019 10"/><path fill="#cf7d60" d="M632 475v6l-2 1c-2.226 4.452-3 6.93-3 12h-2l-1 2 3-1 3 1v2l-3 3q-.541 4.495-1 9h-2v-5h-2c-.75 2.813-.75 2.813-1 6l2 3-2 1-3-1v-2c-3.187-.437-3.187-.437-7 0-2.687 2.188-2.687 2.188-5 5l-2.25 2.5C602 522 602 522 601 527l-2 3h-3l-1 4h-2c2.925-12.768 13.354-24.812 21.082-35.105 3.39-4.525 6.687-9.113 9.98-13.707 5.7-7.95 5.7-7.95 7.938-10.188"/><path fill="#ce7d62" d="m574 293 4 2c0 2 0 2-2 4.063L573 302c-14.496 15.259-25.48 33.82-36.055 51.918C535 357 535 357 532 360q.376-4.513 1-9h2v-2h2v-2h2v-6h2v-3h3l1-5h2v-4h2c0-6 0-6-1-11l1-2h3v-5a168 168 0 0 1 5-8v-1l5-1 2-2 1 4h3v-5l5-1z"/><path fill="#d18267" d="m779 634 1 4a187 187 0 0 1-4 6l-1 5 3 1c.375 4.125.375 4.125 0 8l-3-1c-1 1-1 1-3 5-3.062-.875-3.062-.875-6-2l-1 2h-4c-2 4-2 4-2 6v3l-4 1 .5 4 .5 4-4 1-2 4h-4v-2l-4.25 1.438C737 686 737 686 733 685l4.188-3.187c2.781-2.152 5.255-4.256 7.75-6.75L747 673h2l1-3c2.6-2.753 5.338-5.311 8.125-7.875 7.994-8.51 14.527-18.345 20.875-28.125"/><path fill="#d08d75" d="M573 577h1c1.137 6.514.912 11.659-1 18h-2c2 5 2 5 3 7h-2v3h-3c-2.452 12.86-1.876 28.1 0 41l4-3 1 5h-2v5h-1c-.3 6.306.173 11.942 2 18h3l-1 3h-1c-.687 3.5-.687 3.5-1 7h2v5l2 1-2 3c-13.423-37.29-13.295-72.88-3-111z"/><path fill="#ce8368" d="M1091 224h2l1 2 5 3 2 4a210 210 0 0 0 8 5l2 2 5 2 5 3 2-3 4 2-2 4c2.563 2.75 2.563 2.75 6 5h5l1 3 2 1v3h2v2c8.118 1.294 8.118 1.294 12 0 2 3 2 3 3 5l3 1 3 5q2.963 1.575 6 3l4 4 4.688 1.438L1181 283l1 5c-13.098-5.239-25.033-13.614-37-21l-4.281-2.61A268 268 0 0 1 1117 248l-6.125-4.5c-7.294-5.475-14.383-11.16-19.875-18.5z"/><path fill="#c37154" d="M774 255c15.323 15.323 17.813 47.066 18.313 67.75-.332 21.017-5.131 41.932-13.313 61.25h-1v-6h2l-.125-5.5.125-5.5h4a159 159 0 0 0 1-11l1-1c2.209-20.287 3.333-42.725-2.117-62.488-1.164-4.631-1.036-8.769-.883-13.512h-2c-1.084-2.97-2.067-5.978-3-9l-1.625-4.812C774 257.955 774 257.955 774 255"/><path fill="#c97e64" d="M321 163c6.137 4.282 9.23 11.921 11 19 1.081 16.734-2.775 27.675-11 42-1-2-1-2 0-7h2v-6q1.959-3.524 4-7c3.23-8.765 1.795-18.027 0-27l-2.937-.437L321 176c-1.25-3.062-1.25-3.062-2-6h-2v-2h-2v2h-3v-2c-2.773.68-2.773.68-6.375 1.875C299.165 172 299.165 172 297 172v2l-6 1v2l3 2h-4l-1 3v-2h-2v-3l-3-1c26.449-14.666 26.449-14.666 37-13"/><path fill="#d29179" d="M365 578h3l1 3c-5.035 3.208-10.573 5.527-16 8l-3.633 1.68C320.951 602.949 288.86 604.115 259 597v-1c3.314.066 6.627.204 9.938.375l5.59.273C279 597 279 597 280 598c15.32.911 32.62.625 47-5l2-2-1-3c3.014.603 6.019 1.255 9 2l2-1 3.5.188L346 589l2-4c4.016-1.785 6.507-2 11-2v-2l5-1 1 2z"/><path fill="#ce8166" d="M1070 2c5.346.535 9.55 1.956 14 5-.154 6.534-2.191 12.677-4.125 18.875l-1.012 3.27c-3.643 11.523-7.683 22.91-11.738 34.293l-1.019 2.867c-.965 2.712-1.938 5.42-2.91 8.129l-1.719 4.783C1060 83 1060 83 1058 86c-.192-4.885.126-7.315 2-12l.5-4.75.5-4.25 2-1 1-3h2l.5-5.5.5-5.5h2c0-6 0-6-1-9l-4-2h2l1-5c1.375-3.25 1.375-3.25 3-6l3-1 2-5h2c2.04-5.098 3.425-9.536 4-15-2.687-1.062-2.687-1.062-6-1l-3-1V3z"/><path fill="#cf8e75" d="M170 549c3.013.603 6.019 1.255 9 2v2h2v2l5 2 4.313 1.813L194 560v-3l4 1-1 5c2 4 2 4 7 6l3.313 1.688L210 572v-1c3-.75 3-.75 6-1v3h2l2 5q3.986 1.06 8 2l2 4q3.49.57 7 1l3 3c5.134 1.06 7.234 1.383 12-1 6.344-.328 6.344-.328 9 1v2l-4.562-.062L252 590l1 3c3.063 1.188 3.063 1.188 6 2-11.91 2.978-31.627-9.378-42-15l-3.8-2.012c-11.54-6.274-22.382-13.56-33.2-20.988l-2.856-1.952A474 474 0 0 1 170 550z"/><path fill="#cc6f50" d="M1402 361c6.575 9.863 6.591 19.713 6.438 31.188l.021 4.56c-.042 7.363-.128 13.536-3.459 20.252l-1.902 4.14-2.035 4.11-2.028 4.14C1397 433 1397 433 1393 437c-1-4-1-4 0-7h2l1-5 3-3h1c1.892-7.805 3.14-15.946 3-24h-2l2-8v-2h-4l-1 2h-2c1-5 1-5 2-6l.5-5.062.5-4.938h1q.562 3.491 1 7c2.1-2.1 1.702-6.194 2-9v-3h-1a256 256 0 0 1 0-8"/><path fill="#ce8267" d="m529 357 3 3c-1.05 5.77-4.567 10.747-7.5 15.75l-3.273 5.664-1.652 2.853c-6.862 11.907-13.34 24-19.641 36.21-.32.58-.32.58-1.934 3.523h-1v-6h2v-6l1-2-2-1c2-3 2-3 5-4v-2l-4-2h3v-5h2v-7l2-1-.062 3.438L506 395h3a253 253 0 0 0 2-6l3-2 1-4h-2l-1-4h2l1-4c1.914-3.828 7.116-4.705 11-6q.554-3.993 1-8h2z"/><path fill="#ce7d62" d="m456 353 1 2c-.96 2.35-1.969 4.68-3 7l-1.562 4.688C451 371 451 371 449 375h-2v3h-2c0 5 0 5 2 9l-5-2c-1 2.938-1 2.938-1 6l3-1v2l4-1-1 5h-2l-2 5-2 3-2-3-2-1-1-2a195 195 0 0 0-4 11h3l-1 3h-2v-2h-3l-1 2h-3l-1 4h-2c1.202-5.343 4.086-9.43 7-14q3.025-5.486 6-11l1.574-2.915 3.171-5.878C445.04 372.398 450.387 362.632 456 353"/><path fill="#d08267" d="M898 537c1.528 4.584-.41 7.485-2.086 11.96l-2.074 5.563-1.106 2.921a1505 1505 0 0 0-3.207 8.572C884.73 578.849 879.505 591.453 874 604l-1.634 3.739A292 292 0 0 1 869 615h-1c.714-6.429.714-6.429 2-9h2c-.125-4.625-.125-4.625-1-9l-4 2c0-3 0-3 3-7h2a150 150 0 0 0 1-6h1v6h2l.5-3.5.5-3.5h2l1-4h2v-6l2-4a772 772 0 0 0 2-7l2-5c.813-4.375.813-4.375 1-8l-3 1-4-4v-2h6c1.25-3.562 1.25-3.562 2-7l2 1v2h2v-2l3-1z"/><path fill="#ce775a" d="M519 256v3l-2 2-1 3.125-1 2.875h-2l-1 5-1 2h-3v4h-2v2l2 1v5l-1 1 3 1-1 3-3-1-1 4c-3.5.313-3.5.313-7 0l-1-1-1 2h-2l-.875 2.688c-1.195 3.518-2.592 5.62-5.125 8.312h-2l-1 5c-2.5 2.438-2.5 2.438-5 4l-1-2c1.71-3.183 3.483-6.24 5.375-9.312l1.654-2.723a319 319 0 0 1 12.326-18.63C500 280 500 280 501 278h2l2-4a341 341 0 0 1 4.875-7l2.617-3.687C515 260 515 260 519 256"/><path fill="#d0836a" d="M159 327c3 .375 3 .375 6 1-3.995 3.459-8.177 5.786-12.875 8.188-8.247 4.302-16.196 8.954-24.125 13.812l-4.445 2.66c-8.62 5.185-16.898 10.576-24.93 16.637L96 371l-2-1 1-3h3l1-4-3-1c3-3 3-3 6-5l4.75.188L111 357l-1-5 4-1 1-2h3l1-2v2h4v-5c2.625-.637 2.625-.637 6-.687a88 88 0 0 0 6-.313v-2l3.5-.437L142 340v-3h4v-2h3v-2c5-2 5-2 8-2v-2h2z"/><path fill="#d49d86" d="m594 201-5 2v2h-4l-2 5h2v2c-5 2-5 2-8.375 1.438L574 213l1 3c-3 1-3 1-6 0v2l-4 1v2c-5 3-5 3-10 5-4.792 3.376-4.792 3.376-6 7h-3l-1 4-5 2-1 3c-4.107 4.107-7.926 6.251-13 9l-4 3c2.482-4.965 6.036-8.335 9.938-12.187l2.343-2.322c44.42-43.59 44.42-43.59 59.719-38.491"/><path fill="#ce7e63" d="m34 325 2 1-3 3 1 2c-4 4-4 4-7 5l-2 3 1 5h-2l-2 2-1-1c0 3 0 3 1 7l3-1v4l-5 1-1 2c-5-1-5-1-7-2-.71 1.985-1.367 3.99-2 6l-3 5c-1.992 4.622-3.242 8.996-4.062 13.938-.31 1.67-.62 3.34-.938 5.062l-2 1c-1.895-14.892 6.676-31.25 15.34-42.836 5.719-6.802 12-13.281 18.66-19.164"/><path fill="#d18c75" d="M1121 176c25.821.684 65.832 19.832 84 38-3.812.188-3.812.188-8 0l-3-3-4-2v-2l-3-1v-2a270 270 0 0 0-9-1l-2-1-1-3c-3.25-1.562-3.25-1.562-7-3l-5-2v-2c-4.937-1.25-4.937-1.25-10-2l-1 2-3-3-2 4-4-4 1-4-5-2v-1c-4.972-.77-9.954-1.427-14.941-2.086L1120 179z"/><path fill="#d9a895" d="M857 444h1c.188 4 .188 4 0 8h-2l-1 5-1.625 4.625C852 466 852 466 853 469v2l3 1-1 3-5 2a101 101 0 0 0-2 6l-3 1q-.062 3.5 0 7h-2a290 290 0 0 0-1 6 142 142 0 0 1-3 9l-2 1c-1.86 4.76-2.997 8.973-3.562 14.063L833 525h-2c-1.932 4.346-3.07 8.379-3.937 13.063-1.042 4.842-2.51 7.76-5.063 11.937l-1.562 4.25C819 558 819 558 816 561a134 134 0 0 1 5.938-18.5c3.518-8.865 6.623-17.844 9.687-26.875 5.734-16.885 11.751-33.658 17.858-50.411 2.163-6.01 4.246-12.048 6.322-18.089z"/><path fill="#cf8165" d="M961 347h5c-.826 7.632-3.993 14.946-6.625 22.125q-1.347 3.714-2.691 7.43c-.45 1.238-.898 2.477-1.36 3.753-2.373 6.619-4.646 13.274-6.899 19.935A301 301 0 0 1 946 407h-1v-10l-1-3-1 4h-3c.563-3 .563-3 2-6h4l1-3h2l1-4 1.938-5.562c1.953-5.777 3.112-11.42 4.062-17.438l-4 3c-1.312-2.625-1.312-2.625-2-6 1-3 1-3 6.063-6l4.937-3z"/><path fill="#d48c72" d="M634 754c3.676.209 7.347.543 11 1v2c2.333.044 4.667.04 7 0 3 1 3 1 4 3 9.485 4.12 18.71 5.826 29 6l-8-1c4.136-2.757 8.09-3 13-3v2h6l5 3v-2c3.748-1.874 7.912-1.151 12-1l3 2v-2c3.035-.598 3.035-.598 7.063-1.062l3.972-.473L731 762q3.501-.487 7-1c-12.291 8.194-28.89 7.864-43.062 7.75l-5.993-.027c-20.004-.356-37.167-4.271-54.945-13.723z"/><path fill="#ce6f4d" d="M733 686v5c-4.5.688-4.5.688-9 1v2l-5 1-3 4c-5.36 2.135-10.217 2.184-15.937 2.063-7.926-.156-14.642-.031-22.063 2.937-4.187-1.375-4.187-1.375-8-3h-2l1.063-3 .937-3h-3l-1-4h-3v-3a175 175 0 0 1 10.25 4.5c12.923 5.818 27.07 6.51 40.496 1.855 4.954-2.063 9.712-4.454 14.453-6.964C731 686 731 686 733 686m-61 11v3Z"/><path fill="#cf8065" d="M711 362h1c-.37 5.544-.925 9.813-3 15h2v-2h2l-1 4 4 1-2 4h-2v2c-2.937 1.375-2.937 1.375-6 2l-1-4c-5.875 9.75-5.875 9.75-7 12h2c-.125 2.938-.125 2.938-1 6l-4 1-1 3-5-1v3h-3c1.024-5.118 2.767-7.657 5.77-11.805 7.567-10.84 13.894-22.12 19.23-34.195"/><path fill="#d28d73" d="M222 496c3.888 1.555 6.894 3.047 10.395 5.23l6.417 3.957c9.46 5.754 18.83 10.832 29.188 14.813l3.86 1.52A774 774 0 0 0 281 525c-3.842 1.28-5.221.308-9-1l-3.5-.437c-3.5-.563-3.5-.563-6.312-2C259 520 259 520 253.625 518.938L249 518v-2c-4-1-4-1-8 1l-5-1-1-3h-2l1-3h-6l-1-4h3l-3-5h-3v-2h-2z"/><path fill="#cf8b74" d="M455 488h3c-3.432 8.58-9.515 15.615-15 23l-3.363 4.54c-5.852 7.778-11.877 15.184-18.59 22.237C419 540 419 540 418 542h-2l-2 4c-4 4.313-4 4.313-8 8l-2-1c.688-3.062.688-3.062 2-6h3v-2h2v-3l4-1v-2h3v-4h3v-4h2v-2h2l1-4h4c.625-3 .625-3 1-6h2v-5l3 1v-2h2l1-4h2v-3h2v-3.375c0-3.625 0-3.625 2-5.625l1-2 4 2v-4h2v-2h3z"/><path fill="#cf846b" d="m760 413 3 1c-2.225 5.564-5.29 10.193-8.625 15.125l-1.931 2.872c-4.347 6.439-8.756 12.807-13.444 19.003l-3.336 4.434c-6.848 9.04-6.848 9.04-9.664 12.566h-1c-.187-4-.187-4 0-8h2l1-3h2l-2-5v-4h5l2 3v-2h2l1-4h2v-4l5-1v-3h2c.23-3.988-.027-7.108-1-11l2-4 5-1-2 3 2 1 2-4h3v-6z"/><path fill="#cf8267" d="m83 292 2 1c-1.562 3.063-1.562 3.063-4 6h-5v2h-3c1 3 1 3 4 5a124 124 0 0 1-6 4l-3 4-5 1 1-5-2-1c-3 2-3 2-4 5-5.129 3.714-8.83 5.136-15 6l-2 4-5 1c9.857-10.176 22.094-17.47 34-25l3.906-2.512 3.531-2.238 3.122-1.984c.402-.21.402-.21 2.441-1.266"/><path fill="#cf6d4f" d="m278 259 3 1c-9.1 9.1-22.44 15.365-33.562 21.813l-2.758 1.616c-2.191 1.255-4.432 2.422-6.68 3.571l-2-1-1-3h6l-1-4h6v-2h2l-.562-3-.438-3h3l1-3 5-2 2 1 1-4h3l2-1-1 4 5 1v-2l5-1v-3h5z"/><path fill="#d0957e" d="M649 570h3c-1.514 5.949-4.05 11.487-6.437 17.125C636.02 610.043 632.588 636.47 642 660l-1 3-3-3h-1c-1.25-3.986-2.18-7.899-3-12h-2l1-4h2c.211-3.098.211-3.098.16-7.418l-.033-4.744-.064-5.025c-.237-21.872-.237-21.872.937-31.813h2l2-4h2l.5-5 .5-5h2q1.026-4.494 2-9z"/><path fill="#cf8067" d="m604 268 4 2c-1.875 1.844-1.875 1.844-5 4l-2.937 2.219-6.125 4.562c-7.759 5.86-7.759 5.86-8.938 8.219h-2l-2 4-3 2v-6h2c1.315-8.37 1.315-8.37 0-11 2-4 2-4 4.938-5.312C588 272 588 272 591 273l1-2 5 2h4v-4z"/><path fill="#d3937c" d="M1255 451v2l3 2c-7.75 1.125-7.75 1.125-10 0v2l-6 1v2l-5 3 3 1-1 3c-3.666.044-7.334.04-11 0l-5 2c.375 3.563.375 3.563 1 7l-3 1-4-2c-4 1-4 1-7 4-6.333 1.333-6.333 1.333-9 0l2.148-1.223c8.38-4.778 16.744-9.586 25.102-14.402l3.333-1.918 3.245-1.871 3.15-1.81a199 199 0 0 0 5.903-3.607c6.723-4.268 6.723-4.268 11.119-3.169"/><path fill="#d39881" d="m893 342 1 4 1-1 1 3h2v2l-4 2-1 3h-2l-.375 4c-.662 5.3-2.171 8.303-4.625 13-1.45 3.964-2.724 7.978-4 12l-1.117 2.992C880 390 880 390 880 396l3 3-2 1-3-2a379 379 0 0 0-4 9c-2.75 3.063-2.75 3.063-5 5 1.33-6.735 3.329-12.854 5.813-19.25 6.436-16.782 12.275-33.778 18.187-50.75"/><path fill="#cc6f50" d="m753 230 2.438 2.125L758 234l1-2c7.625 7.781 15.583 16.73 16 28l2 2c1.5 5.125 1.5 5.125 2 10h-6l-1-2-3-2 1-3c-1-2-1-2-3-3l-1-4 2-3h2c-1.25-5-1.25-5-3-10h-2l-5-5-5-3c-1.312-3.687-1.312-3.687-2-7"/><path fill="#cf866c" d="M33 457h6l4 4 2.688 2C48 465 48 465 49 469l5 1a524 524 0 0 1 5 4l3.813 1.625L66 477v2l5 1 1-3c3.625 2.625 3.625 2.625 7 6l-1 3 4 2 2 5c-6.932-2.773-12.779-6.907-19-11l-3.125-2.02C51.752 473.371 41.962 466.128 33 458z"/><path fill="#d69e87" d="M988 281c1.418 4.253.035 6.511-1.43 10.727l-1.65 4.784-1.795 5.114-1.796 5.172A4349 4349 0 0 1 976 322l-1.487 4.24a2734 2734 0 0 1-3.763 10.635l-1.12 3.163c-.842 2.333-1.73 4.65-2.63 6.962h-1c-.254-4.648.073-8.282 1.25-12.812L968 330l-4-3 1-5 2 4h2v-2h2v-2h2l-.562-3.25C972 315 972 315 975 311h2l-1-5 3-1 1-5 2-2q1.036-4.993 2-10h1l1-5h2z"/><path fill="#d59e89" d="m1317 411-1 5h-3v3h-2v2h-3l-1 5c-4.375 1.25-4.375 1.25-9 2l-3 1v2l-10 2v2l-6 3-4 4c-3.981 1.375-7.863 2.173-12 3 3.548-3.548 7.192-5.525 11.563-8 26.931-15.442 26.931-15.442 38.25-24.418C1315 411 1315 411 1317 411"/><path fill="#d1886e" d="M1273 258c4.811 1.924 8.5 4.155 12.813 7 5.756 3.769 11.532 7.492 17.374 11.125l3.907 2.445a798 798 0 0 0 8.125 4.985l3.968 2.445 3.606 2.188L1325 290l-3 2v-2l-5-1-1-2-3-1-1-2h-3v-2c-4.937-.812-4.937-.812-10-1l-1 3-3-1v-3h-3l1-4-3-2v-3h-2v-2l-4-1-3-2v-2l-5-1-1-2-4-2z"/><path fill="#d19a85" d="M1325 291c3.877 1.55 6.707 2.956 10.133 5.195l2.945 1.922 3.047 2.008 2.977 1.938c16.466 10.79 33.088 22.84 45.898 37.937l-1 2-3-3-4-2v-2h-3v-2l-5-2-1-5-5-2-4-2v-3l-3-1v-2l-2.937-.937L1355 314l-1-3-4-1v-2l-4-1v-2l-4.5-1.5-4.5-1.5v-2h-5v-2h-2v-3h-3v-2l-3-1z"/><path fill="#d18469" d="M1213 219c4.977 1.99 8.897 4.384 13.375 7.313l4.398 2.863A362 362 0 0 1 1242 237c-4.414 1.104-7.098.698-11.562 0-7.11-1.11-7.11-1.11-10.438 0l-2-5-2-1v2h-2c1-4 1-4 3-6v-2l-3-1zm4 15 1 2-2-1z"/><path fill="#d28d74" d="M1182 288c4.973.355 8.1 1.936 12 5v2l5 1c7.615 1.615 7.615 1.615 11 5 2.688.563 2.688.563 6 1 4.313.813 4.313.813 8 2l1 4h-2c1.265 2.7 2.601 5.367 4 8-4.634-1.853-8.304-3.957-12.5-6.625-5.087-3.217-10.179-6.42-15.312-9.562-5.769-3.548-11.519-7.11-17.188-10.813z"/><path fill="#d5a38e" d="M1116 174v1c-2.29.137-4.582.233-6.875.313-6.766.401-11.957 1.733-18.125 4.687l-3.437 1.5C1085 183 1085 183 1082 187c-1.334 5.94-1.225 11.938-1 18h2l4 10 2.313 2.875L1091 220l-1 4c-6.89-8.838-14-18.31-14-30 1.084-5.556 2.192-9.051 5.875-13.375 10.655-6.78 21.704-7.532 34.125-6.625"/><path fill="#d4977e" d="M212 217v2h-3v3h-4c-2 4-2 4-3 7-2.477 1.246-2.477 1.246-5.625 2.438-3.648 1.43-6.847 2.836-10.25 4.812-3.168 1.774-5.575 2.243-9.125 2.75l-1 2h-2v2c-7.294 4-7.294 4-10 4v2a270 270 0 0 1-11 3c6.214-6.214 14.376-10.288 22.078-14.422 10.666-5.76 20.998-12.039 31.281-18.453C210 217 210 217 212 217"/><path fill="#cf7d62" d="M1362 319h2v3l3-1 2 3 5 2v5l5 2v2h3l1 2 5 3c4.8 3.535 7.508 6.975 10.375 12.188l2.086 3.73C1402 359 1402 359 1402 361h-2v-3h-3v-4h-3l-1-2-3-2h2v-3h-2l-1 2c-1.058-2.644-2.1-5.298-3-8l-4-2-2 1-2-2h-2v-4c-2.875-1.125-2.875-1.125-6-2l-2-2-2 1-2-6-3-2z"/><path fill="#cf8267" d="m668 537 3 2c-2.118 5.294-4.796 9.58-7.875 14.375-5.935 9.26-5.935 9.26-8.258 13.727L653 570h-4v-3h2l-1-2-3-1c1.363-5.452 1.655-4.655 6-9l1-5h4l1 1 2-1v-3h2v-2h2l.5-3 .5-3h2z"/><path fill="#ce7f65" d="M760 662v3l-2 2 1 4-4 1 .5 4 .5 4-4 1-2 4h-4v-2l-4.25 1.438C737 686 737 686 733 685l4.188-3.187c2.781-2.152 5.255-4.256 7.75-6.75L747 673h2l1-3a249 249 0 0 1 6-4z"/><path fill="#d49e88" d="m1147 511 2 1-2 4-4 1-4 4h-3v2l-5 2-1 2-3 1-2 3-3.75 1.25c-5.008 2.062-7.081 4.422-10.25 8.75l-1 3c-3.518 3.323-5.065 4.013-10 5a312 312 0 0 0-6 7l-1-2c12.393-15.852 29.336-27.124 46-38l4.813-3.187z"/><path fill="#d18e75" d="m484 445 1 2c-1.47 2.699-3.057 5.333-4.687 7.938l-3.043 4.875-1.62 2.566a1405 1405 0 0 0-4.95 7.933C462.43 483.57 462.43 483.57 459 487v-5h3a330 330 0 0 0 1-9h2l.5-4 .5-4h2c-1-5-1-5-2-8l4-1 2-3v6l1-2h2v-2h2v-4h2v-2l3-1z"/><path fill="#c96e50" d="M1048 0c-1.875 2.5-1.875 2.5-5 5h-10l2 5c-2 3.375-2 3.375-5 6-3.25 0-3.25 0-6-1l-1-2-3 3h-3v2l-4 1 2.75-3.187c3.25-3.813 3.25-3.813 5-6.438 7.18-7.58 17.306-9.676 27.25-9.375"/><path fill="#cf8f78" d="M1314 369h2l3 3v2l4 2a127 127 0 0 1 7 5v2l4 2 3 2c.578 9.133.578 9.133-2 13h-3l-2 4-1 2h2c-1 2-1 2-3.625 3.063-3.456.96-6.817 1.51-10.375 1.937 4.068-4.203 8.402-8.056 12.793-11.914C1332 397 1332 397 1334 394c-2.188-10.94-14.394-16.875-23-23l3-1z"/><path fill="#cf7c60" d="M1292 502c2 1 2 1 5 3v-2c3 .375 3 .375 6 1-4.26 4.26-8.697 6.811-13.937 9.625l-2.71 1.484c-4.066 2.21-8.05 4.17-12.353 5.891v-4h3v-5h5l-5-2 1-4 1 2 4-1-1-2 3-1 2 1v2h4z"/><path fill="#d59a85" d="M929 449c1.568 4.704-.737 8.65-2.367 13.137l-1.073 3.014q-1.126 3.153-2.266 6.301c-1.167 3.23-2.32 6.463-3.47 9.698l-2.191 6.112-1.055 2.954A292 292 0 0 1 914 497h-1c.033-3.093.07-6.186.16-9.277L913 485l-2-1h3c.399-2.658.725-5.327 1-8l2-4q1.515-3.494 3-7c2.5-5.9 4.878-11.053 9-16"/><path fill="#cf7c62" d="M815 702c0 3 0 3-3.562 6.688l-2.208 2.12c-3.278 3.221-6.222 6.721-9.23 10.192l-4 4h-2v2h-3c1.125-5 1.125-5 3-10h7v-3l-3 1-3-1 1-2h2l2-5h-2l1-3c5 1 5 1 7 2h3l1-2z"/><path fill="#d39982" d="M1092 556c0 4.66-1.486 8.628-3 13l-3 1q-.622 3.482-1 7l-1 1-.437 4-.563 4-2 1c-1.961 5.883-1.73 12.398 1 18h3c-.314 2.336-.65 4.669-1 7l2 4-1 3c-6.333-6.333-7.31-14.07-7.562-22.687.348-13.487 4.641-30.392 14.562-40.313"/><path fill="#cf8b72" d="m529 357 3 3c-1.053 5.964-4.788 11.146-7.812 16.313q-1.574 2.712-3.145 5.425l-1.542 2.647c-1.478 2.574-2.902 5.178-4.325 7.783L513 396h-1v-5h2c.75-4 .75-4 1-8h-2l-1-4h2l1-4c1.914-3.828 7.116-4.705 11-6q.554-3.993 1-8h2z"/><path fill="#d39b86" d="M421 416c1 4 1 4-1 9l-3 3a131 131 0 0 0-3 5.5c-1.813 3.513-3.162 5.662-6 8.5l-1.5 3.5C405 449 405 449 402 452c-7.636 9.662-7.636 9.662-8.375 16.438L393 471l-4-2c0-5.47 2.998-8.666 6.063-13 4.806-6.909 9.499-13.85 13.937-21q2.655-4.25 5.313-8.5l2.55-4.094A275 275 0 0 1 421 416"/><path fill="#d38a71" d="M886 564h3c-1.605 8.025-4.97 15.42-8 23l-1.375 3.464a3127 3127 0 0 1-4.437 11.098l-1.455 3.661c-3.503 8.662-3.503 8.662-5.733 9.777.875-6.75.875-6.75 2-9h2c-.125-4.625-.125-4.625-1-9l-4 2c0-3 0-3 3-7h2a150 150 0 0 0 1-6h1v6h2l.5-3.5.5-3.5h2l1-4h2v-6l2-4 .938-3.75z"/><path fill="#d09079" d="M311 229h5v2h-2l-2 4c-6.284 7.12-13.566 13.13-21 19l-2.7 2.32c-.758.555-1.518 1.109-2.3 1.68l-2-1 2-4h3v-3h2l1-3c1.438-3.187 1.438-3.187 3-6h2l-1-3q4.007.446 8 1v-2h3v-4h2v-2h2z"/><path fill="#ce8167" d="M1232 541c2.665-.083 5.335-.083 8 0-4.083 3.476-8.429 6.125-13.062 8.813l-4.54 2.636L1218 555l-3.71 2.207C1206.225 562 1206.225 562 1204 562v-3h2v-2h4v-2h4v-6h2l1-4c2.875-.875 2.875-.875 6-1l3 2 3-1 1-2h2z"/><path fill="#d79a83" d="M1011 217c1.727 5.18-1.47 10.15-3.375 15.063q-1.386 3.65-2.766 7.304l-1.435 3.8c-2.28 6.14-4.422 12.326-6.549 18.52l-1.181 3.436Q994.344 269.06 993 273c-1.396-4.188-.422-7.24.375-11.562l.836-4.63C995 253 995 253 996 251h2c.349-8.953.349-8.953-1-13l1-3c3 1 3 1 4 2l1.438-3.937c.515-1.341 1.03-2.682 1.562-4.063h2c1.062-3.314 2.06-6.65 3-10z"/><path fill="#d8a28b" d="M592 534c1.6 3.198.025 5.696-1 9l-1 4-4 8v2h2l-1 4-2-1-1 5-2-1-1.5 4.5-1.5 4.5-2-1-2 4c-1.691-5.074 1.225-9.753 3.063-14.562l1.162-3.174c2.621-6.95 5.795-12.994 9.775-19.264z"/><path fill="#d38f76" d="M0 398c2.226 4.452 3.05 8.569 4.023 13.418L5 414l4 1v3h2c4 6 4 6 5 10h-3c.923 3.693 1.945 7.343 3 11C6.806 429.806.094 415.87-.062 402.75z"/><path fill="#d6a08b" d="M319 595h6c-6.722 6.722-16.349 6.257-25.491 6.38l-3.322-.005-3.499.002c-11.456-.144-22.54-1.72-33.688-4.377v-1c3.314.066 6.627.204 9.938.375l5.59.273C279 597 279 597 280 598c12.647.752 25.45-.455 38-2z"/><path fill="#d4947d" d="M1191 486v2h-3l1 3a263 263 0 0 1-5 4v3l-5 2v2c-2.937 1.188-2.937 1.188-6 2l-1-1c-6 0-6 0-9 2l-4-1c28.402-18 28.402-18 32-18"/><path fill="#d08065" d="M965 146c.457 3.653.791 7.324 1 11h-2l3 4-1 5-3 1v2l-3-1h-3l-3 3c.98-4.897 2.332-9.44 3.875-14.187l1.555-4.856C961.794 146 961.794 146 965 146"/><path fill="#d3917a" d="m151 252 2 1 3 1-1 4c-3.093.807-5.809 1-9 1-.687 3.5-.687 3.5-1 7l-2-3c-3.31.752-6.043 2.022-9.062 3.563C131 268 131 268 126 269l-1 2h-2v2c-2.32.414-4.656.749-7 1 3.263-3.263 5.516-5.084 9.395-7.312l3.146-1.82 3.272-1.868 3.236-1.867q3.093-1.784 6.196-3.551a358 358 0 0 0 6.892-4.082z"/><path fill="#d7a38e" d="M254 193v2c-3 2-3 2-6 2l-1 3-4 1-4 4a352 352 0 0 1-7 3l-1 2h2v2c-2.312 2.188-2.312 2.188-5 4l-6-2-2.937 1.5C216 217 216 217 212 216c22.712-13.305 22.712-13.305 33.375-19.375l3.773-2.148C252 193 252 193 254 193"/><path fill="#d0876e" d="m1022 163 1 3 4 1c.023 2.723.023 2.723-.625 6.063l-.602 3.347L1025 179h-2l.52 2.526c.602 4.353-.359 6.932-1.829 11.06l-1.513 4.316-1.615 4.473-1.604 4.543A1806 1806 0 0 1 1013 217c-2-4-2-4-.75-8.75L1014 204h2v-5h2c.266-3.027.266-3.027.25-6.937l.016-3.903L1018 185l-2-1 3-2 2 1c.73-3.654 1.394-7.323 2-11l1-2h-6l-1 2c.98-3.92 2.07-6.07 5-9"/><path fill="#cf6d4c" d="m769 380 4 1-1 5 1 3h2l1-4c1.318 5.273-.14 6.93-2.625 11.688l-2.23 4.292L769 405l-1.613 3.05A186 186 0 0 1 764 414h-1v-5h2a224 224 0 0 0 1-6l2-4c.313-5.312.313-5.312 0-10l-3 1c0-3 0-3 1-6h2z"/><path fill="#d8a996" d="m387 468 1 4c-3.887 4.998-8.132 8.997-13 13-2.613 2.976-4.212 5.423-6 9l-2 1-2 4h-2l-1 4a107 107 0 0 1-6 4l-3 3-5 2-3 4-4-1a1445 1445 0 0 1 5.875-5l3.305-2.812C353 505 353 505 355 505l1-3q2.695-2.28 5.395-4.559c5.832-5.465 13.01-12.25 16.605-19.441h2l2-4a237 237 0 0 1 5-6"/><path fill="#cb7053" d="m628 190-1 3-4.5 1.438L618 196l-1 4h-2l1 5c-4-2-4-2-8-5l-3 1c-3.78-.412-7.307-1.077-11-2l5.363-1.715 6.95-2.222 3.537-1.131 3.388-1.084 3.126-1c4.478-1.44 6.604-1.848 11.636-1.848"/><path fill="#e0b7a5" d="M703 277h2a749 749 0 0 1 4 6l3 2v3h2v4l3 1c3.663 11.05 4.384 22.515 4.438 34.063l.03 3.382c-.077 7.362-1.338 13.513-3.468 20.555l-.562 4.688L717 359h-2l-3 3c.78-3.903 1.721-7.42 2.938-11.187 6.11-19.954 6.259-40.214-2.813-59.313-2.599-4.86-5.7-9.179-9.125-13.5z"/><path fill="#d39178" d="M944 407c1.275 3.825.48 5.055-.95 8.777l-1.321 3.498-1.417 3.663q-1.351 3.543-2.699 7.09l-1.33 3.499c-1.89 5.117-3.593 10.286-5.283 15.473-1-3-1-3-2-8h2c.858-2.634 1.587-5.31 2.25-8l1.14-4.5.61-3.5h-2l-1 3h-2c-1-5-1-5 1-9h4l1 2 2-1 .438-3.625L939 413l3 1c1.188-3.437 1.188-3.437 2-7"/><path fill="#d3967e" d="M1091 224h2l1 2 5 3 2 4a210 210 0 0 0 8 5l2 2 5 2 5 3 2-3 4 2-2 4 3 3-2 1 1 2c-12.918-6.46-25.24-16.392-35-27z"/><path fill="#d0886e" d="M701 382c1.43 5.716-.417 8.834-3 14h2c-.125 2.938-.125 2.938-1 6l-4 1-1 3-5-1v3h-3c1.04-5.202 2.936-7.99 6.012-12.219 3.195-4.469 6.066-9.13 8.988-13.781"/><path fill="#d1866e" d="m186 305 1 2c3.063 1.25 3.063 1.25 6 2v-2h3v2l2 1a2706 2706 0 0 1-9.625 5.875l-2.738 1.684c-9.306 5.637-9.306 5.637-13.637 6.441-.437-2.812-.437-2.812 1-6q4.487-.624 9-1l1-4 1-3-2-1z"/><path fill="#d29178" d="M603 731h5l2 5c4 2 4 2 8 3l3-1 2-5 4-1c-2.75 6.75-2.75 6.75-5 9 3.09 4.121 5.362 6.68 10 9v2h2v2c-11.526-2.637-21.689-13.06-30-21z"/><path fill="#d49a85" d="M1160 189c5.802 1.16 10.27 3.654 15.375 6.5l2.952 1.63c22.044 12.241 22.044 12.241 26.673 16.87-3.812.188-3.812.188-8 0l-3-3-4-2v-2l-3-1v-2a270 270 0 0 0-9-1l-2-1-1-3a881 881 0 0 0-7-3l-4-4z"/><path fill="#d28971" d="m594 201-5 2v2h-4l-2 5h2v2c-5 2-5 2-8.375 1.438L574 213l1 3c-3 1-3 1-6 0v2l-4 1v2l-5 3-2-1c1.636-1.37 3.307-2.7 5-4l1-2 3-1 2-4c3.23-2.254 3.23-2.254 7.188-4.562l3.917-2.317c9.97-5.43 9.97-5.43 13.895-4.121m48 462c2.306 3.074 4.232 6.03 6.188 9.313 3.266 5.194 7 8.837 11.812 12.687l3 3-4-1.437c-5-1.563-5-1.563-9.312-1.813C646 684 646 684 643.625 680.5L642 677l-2-1 2-2z"/><path fill="#d19179" d="m34 325 2 1-3 3 1 2c-4 4-4 4-7 5l-2 3 1 5h-2l-2 2-1-1-1 3-4 1a283 283 0 0 0-5 7H9v3H7c4.21-10.525 10.967-18.35 18.875-26.312l2.309-2.34c1.877-1.847 3.84-3.607 5.816-5.348"/><path fill="#d08c74" d="M226 289h2l1 3c-2.302 1.793-2.302 1.793-5.668 3.758l-3.646 2.144-3.874 2.223-3.814 2.246c-9.402 5.48-9.402 5.48-13.998 6.629l1-4h2v-2h5v-2h3l-.68-2.922L208 295c2.492-.953 2.492-.953 5.875-1.25 2.047-.2 4.092-.439 6.125-.75l1-2h5z"/><path fill="#d3937c" d="M699 497h3c-2.41 4.821-5.54 8.946-8.75 13.25l-1.844 2.488A3307 3307 0 0 1 686 520c-.55.791-.55.791-3.328 4.797L680 528c-2-3-2-3-2-6.625l1-3.375 3.063-.437L685 517c.412-3.704.7-6.601-1-10 4 1 4 1 6 2v-2l4-1 .5-3.562.5-3.438h4z"/><path fill="#d08a72" d="M749 746c5.788-.232 9.569-.173 15 2-4.33 4.33-8.048 6.209-13.562 8.813l-5.13 2.457C741 761 741 761 738 760l2-2v-3l5-1-2-3 3-1v2c4.563-.25 4.563-.25 9-1-1-2-1-2-6-4z"/><path fill="#d39a85" d="m431 519 4 1c-2.84 5.682-6.935 10.15-11 15l-3.437 4.188L418 542h-2l-2 4c-4 4.313-4 4.313-8 8l-2-1c.688-3.062.688-3.062 2-6h3v-2h2v-3l4-1v-2h3v-4h3v-4h2v-2h2l1-4h4l.5-3.062z"/><path fill="#d19079" d="m396 557 4 2c-7.937 8.286-18.86 15.619-29 21l-2-1 3-6-2-1c3 0 3 0 5 1v-2h4v-2l4 1v-3h2v-2h4v-3l-2-1 3.5.188L394 561v-3z"/><path fill="#d3876d" d="M1253 245c4.843 1.937 8.51 4.207 12.813 7.125l4.082 2.758L1273 257c-4 1-4 1-7 1v-2h-2v2l-5-1 1-2-4-1-1 1-1-2-3.562-.5-3.438-.5v-2h5z"/><path fill="#c77054" d="m722 290 3 1q.553 3.492 1 7h2v2l-5 3c-1.353 5.411-1.064 10.712-1 16.25.045 3.92.048 7.828 0 11.75h-1c-.165-2.727-.28-5.457-.375-8.187-.384-7.991-1.67-15.077-3.625-22.813v-5l3-1-1-2z"/><path fill="#d18d74" d="m87 492 2 1v3h5v2c5 2 5 2 8.75 1.938L106 500l1 3 3 1v-2h2c2 5 2 5 1 10-3.817-1.908-7.241-4.046-10.812-6.375-3.586-2.338-7.138-4.597-10.887-6.664C88 497 88 497 84 493z"/><path fill="#d29580" d="M1388 437h4c0 5.422-4.993 8.79-8.555 12.566-4.867 4.852-10.073 9.16-15.445 13.434l-3.227 2.844L1362 468l-2-1 1-4h4v-2h2v-5l5 1 1-3h3v-3h2v-2h2l3-5 4-1v-5z"/><path fill="#d4927a" d="M75 396c4.078 3.04 8.13 6.102 12.125 9.25 5.27 4.145 10.8 7.914 16.324 11.71L106 419l-2 1c-7.314-3.314-7.314-3.314-10-6l-4 1v-2l-3-.437-3-.563v-3l-5-3c-4-7.027-4-7.027-4-10"/><path fill="#d49278" d="m722 205 1 2 5 1v2l3.688.5c10.523 2.971 19.121 11.447 26.312 19.5l-1 2-3.187-3.312c-3.853-3.726-4.801-4.2-9.813-4.688v-3l-4-1v-2h-2v-2c-5.412-1.294-5.412-1.294-8 0v-2h-2l-1-4-4-1-2-1z"/><path fill="#d6a18a" d="M685 406c0 3 0 3-2 8h-2l-1 5h-2v4h2v3l-2.625.25c-4.848 1.077-6.457 3.882-9.375 7.75l-1 2h-2l-2 4-5 3c1.9-3.799 3.953-6.668 6.563-10l2.69-3.465L670 426q2.51-3.274 5-6.562l2.188-2.88C679 414 679 414 681 410h2z"/><path fill="#d49078" d="m1145 597-3.91 2.047-5.152 2.703-5.098 2.672a178 178 0 0 0-8.774 4.969L1119 611l-3-1 3-3 1-2h2v-3h2v-4c2.675-.067 5.354-.11 8.027-.004 4.347.006 9.126-2.92 12.973-.996"/><path fill="#cf7f64" d="m1356.063 463.75 4.937.25c0 3 0 3-1.812 5.25-4.281 3.693-8.897 7.646-14.188 9.75l-2-4h3v-5l3-1 1-4c1-1 1-1 6.063-1.25"/><path fill="#d6a08b" d="M634 754c3.676.209 7.347.543 11 1v2c2.333.044 4.667.04 7 0 3 1 3 1 4 3a179 179 0 0 0 8.688 3.063l4.824 1.597c3.54 1.057 6.856 1.77 10.488 2.34v1c-7.103.565-13.432-1.172-20.187-3.125l-3.348-.952c-7.887-2.307-15.19-5.055-22.465-8.923z"/><path fill="#d08369" d="M1185 567v2c3 .625 3 .625 6 1-3.166 3.166-6.189 5.023-10.062 7.25l-3.786 2.203L1174 581l-2-1 1-4h3q.569-4.493 1-9c2.9-1.45 4.921-.736 8 0"/><path fill="#d08f76" d="m954 373 2 2c-1.168 7.28-3.618 14.132-6.062 21.063l-1.104 3.2A342 342 0 0 1 946 407h-1v-10l-1-3-1 4h-3c.563-3 .563-3 2-6h4l1-3h2l1-4c1.193-4.08 2.533-8 4-12"/><path fill="#d59782" d="M1407 400h1c.607 9.714-2.697 16.688-6.937 25.25l-2.028 4.14C1397 433 1397 433 1393 437c-1-4-1-4 0-7h2l1-5 3-3h1a706 706 0 0 0 2-10l1-3h2q1.06-4.486 2-9"/><path fill="#d29882" d="M159 327c3 .375 3 .375 6 1-4.027 3.492-8.261 5.828-13 8.25a224 224 0 0 0-19.559 11.414L130 349l-2-1 1-4c3.063-.625 3.063-.625 6-1v-2l3.5-.437L142 340v-3h4v-2h3v-2c5-2 5-2 8-2v-2h2z"/><path fill="#d2937a" d="m284 177-1 4h-3v2l-3 2 3 1v2h-2v2l-4-1v-2c-3.612.795-6.717 1.853-10 3.563-3.365 1.612-6.306 2.068-10 2.437 2.89-2.89 5.107-4.276 8.691-6.137l3.362-1.748 3.51-1.803 3.521-1.837C281.736 177 281.736 177 284 177"/><path fill="#d5937c" d="M87 371c3.563-.187 3.563-.187 7 0-2.979 2.979-5.862 5.62-9.125 8.25l-2.633 2.14C80 383 80 383 78 383c-4.167 8.333-4.167 8.333-3 13l-3-3 .625-3.062L73 387l-5-2-1-3q4.993-.569 10-1v-2l3.5-.375L84 378v-4h2z"/><path fill="#d7a390" d="M687 191c15.967 1.832 35.498 8.498 47 20-5.75-.875-5.75-.875-8-2v-2l-5-1v-2h-5l-4-1v-2l-5-1c-4.312-1.437-4.312-1.437-8-3v-2h-6v-2l-5 1z"/><path fill="#d79f8a" d="M938 214h1c.337 7.406.443 13.24-3 20l-3 1c-.625 2.688-.625 2.688-1 6-.375 3.313-.375 3.313-1 6l-3 1-1 5-3 3c2.155-8.273 4.731-16.31 7.563-24.375l1.208-3.48c1.66-4.76 3.356-9.464 5.229-14.145"/><path fill="#d59b85" d="M192 476c4.356 1.743 7.292 3.443 11.063 6.125 5.52 3.895 11.11 7.654 16.769 11.344L222 495v1c-6.452.365-6.452.365-10-2v-3l-4.375-1.375L203 488l-2-5a101 101 0 0 0-7-1c-2-3-2-3-2-6"/><path fill="#d2917a" d="M724 468c0 3.943-1.27 4.843-3.812 7.813-4.824 5.72-9.423 11.592-14 17.511L704 496h-1v-5h3a150 150 0 0 0 1-6h2l2-4 2-3v-3l1-3h7v-3z"/><path fill="#d39c85" d="M1145 266c4 .313 4 .313 8 1v2l4 2v2l3.188.438c5.183.764 8.148 2.898 11.812 6.562l4.625 1.375L1181 283l1 5c-13.027-5.211-25.244-13.416-37-21z"/><path fill="#d07f64" d="m1258 516 4 4c3.25-.25 3.25-.25 6-1l-1 2 3-.687 3-.313v3c-2.555 1.824-2.555 1.824-5.875 3.688l-3.305 1.886C1261 530 1261 530 1259 530v-6l-3 1c0-6 0-6 2-9"/><path fill="#cc785c" d="M989 273h3c-.256 2.948-.672 5.343-2 8h-2v2h-2v6h-1a156 156 0 0 0-1.5 6 156 156 0 0 1-1.5 6h-1c-.138-3.654-.162-6.513 1-10h-2v-2h-2l-1-4a134 134 0 0 1 6-3l2-4 3 1q.51-2.999 1-6"/><path fill="#d7a08b" d="M953 171c2 8 2 8 2 12h-2v4h-4v5l-2 3-.937 4.875C945 205 945 205 942 210l1 3-4 1c.14-5.1 2.25-9.92 3.941-14.68l1.768-5 1.854-5.195 1.865-5.266q2.28-6.432 4.572-12.859"/><path fill="#d59a85" d="m610 505 2 2 2-2c-.187 2.813-.187 2.813-1 6l-5 3c-3.791 4.52-5.833 7.167-7 13l-2 3h-3l-1 4h-2c1.247-5.63 4.375-10.21 7.375-15.062l2.898-4.723c4.458-6.891 4.458-6.891 6.727-9.215"/><path fill="#d4937b" d="M857 444h1c.188 4 .188 4 0 8h-2l-1 5-1.625 4.625C852 466 852 466 853 469v2l3 1-1 3-5 2c-1.25 3.125-1.25 3.125-2 6h-1c-.847-9.25 1.833-16.586 4.938-25.125l1.42-4.055c2.492-7.028 2.492-7.028 3.642-9.82"/><path fill="#d3866c" d="M106 420c4.556 1.823 7.923 3.799 11.938 6.563l3.59 2.44c.815.66 1.631 1.318 2.472 1.997l-2 1c-3.637-1.523-7.163-3.234-10.715-4.945L108 426l-3 3h-3v-2l-4-1 1-5c3 .313 3 .313 6 1z"/><path fill="#cf7e64" d="M1158 589c-7.02 6.019-15.706 9.674-25 10l-5-1c4.884-4.884 4.884-4.884 10-6h11v-2c3-1 3-1 9-1"/><path fill="#cf8a72" d="M1045 114h1c.618 7.56-1.246 13.612-3.937 20.563l-1.131 3.056c-.932 2.478-1.926 4.932-2.932 7.381h-1c-.328-6.007.605-11.174 2-17l.438-4 .562-3 3-1v-4h2z"/><path fill="#d29b85" d="M33 457h6l4 4 2.688 2C48 465 48 465 49 469l5 1c3.726 2.608 6.835 5.745 10 9-9.787 0-24.08-14.71-31-21z"/><path fill="#e0bba9" d="M786 284c8.882 17.764 7.473 43.934 4 63h-1a252 252 0 0 1-.027-8.54l.037-5.386q.052-5.664.117-11.328l.033-5.41.051-4.983c-.192-3.964-.824-6.687-2.211-10.353a179 179 0 0 1-.625-8.875l-.227-4.617z"/><path fill="#d3967f" d="M818 558c1.426 4.278.815 7.613 0 12l-4 1v5l-3 1a180 180 0 0 0-1 6h-2l-1 4-4 4c2.105-8.288 5.534-15.653 9.258-23.34C814 564 814 564 815 561z"/><path fill="#ce876e" d="M973 319h1c.568 6.85-1.11 12.093-3.437 18.5l-1.934 5.406L967 347h-1c-.254-4.648.073-8.282 1.25-12.812L968 330l-4-3 1-5 2 4h2v-2h2v-2h2z"/><path fill="#c87a5f" d="m1111.25 174.813 5.516-.043 4.234.23v2h5v1a690 690 0 0 1-16.406-.303l-3.516-.052-3.237-.083C1100 178 1100 178 1096 182h-3v2l-2.75-.5c-3.25-.5-3.25-.5-7.25 1.5 2.99-3.986 4.087-4.816 8.438-6.687l2.87-1.262c5.713-2.23 10.855-2.217 16.942-2.238"/><path fill="#d79c89" d="m675 257 4-1 3 1c1.063 3.125 1.063 3.125 1 6-3.735.098-6.857-1.294-10.375-2.5-7.893-2.56-15.366-2.592-23.625-2.5-3.333.037-6.667.048-10 0v-1c4.94-1.067 9.9-1.296 14.938-1.562l4.652-.254c10.75-.448 10.75-.448 16.41 1.816"/><path fill="#d2957f" d="M868 412h1c.626 6.73-.907 13.616-3 20h-2v2h2l-1 5h-2v2h-2l-1 3h-2c1.104-6.575 3.198-12.597 5.563-18.812 3.35-8.84 3.35-8.84 4.437-13.188"/><path fill="#d19b86" d="M551 328c0 4.425-2.498 7.08-4.855 10.672-3.195 4.957-6.148 10.053-9.13 15.14C535 357 535 357 532 360q.376-4.513 1-9h2v-2h2v-2h2v-6h2v-3h3l1-5h2v-4z"/><path fill="#d48f78" d="M851 644h3c-1.082 5.092-3.765 9.277-6.437 13.688l-2.372 3.949C843 665 843 665 840 668l.625-3.5.375-3.5h-2l-1-3c2.59-3.885 4.407-5.753 8.75-7.562L850 649z"/><path fill="#dea994" d="M636 611h1a141 141 0 0 1-.008 6.324l-.05 4.06q-.066 4.228-.157 8.454c-.113 10.797 1.198 20.119 5.215 30.162l-1 3-3-3h-1c-1.25-3.986-2.18-7.899-3-12h-2l1-4h2c.124-4.394.137-8.733.063-13.125q-.053-3.69-.09-7.383l-.055-3.332c.082-3.155.415-6.076 1.082-9.16"/><path fill="#cf8b75" d="M683 263c12.245 1.245 12.245 1.245 17 6l4-1v3l2 1h-2l1.438 2.875c.515 1.031 1.03 2.063 1.562 3.125l-1 2-1-3-4-1a87 87 0 0 1-4.75-3.812c-4.176-3.458-8.312-5.902-13.25-8.188z"/><path fill="#d59982" d="M127 434c4.768 1.907 8.61 4.136 12.938 6.875l4.152 2.617c3.328 2.135 6.63 4.3 9.91 6.508-4 1-4 1-9 0v-2l-5-1-2-1v-2h-2v-3l-3-.5-3-.5v-3h-3z"/><path fill="#d3957e" d="M1116 611c-3.408 3.408-6.345 4.701-10.75 6.625l-4.172 1.852c-3.836 1.433-6.997 2.316-11.078 2.523l-4-2c2.94-1.47 5.75-1 9-1l2-1v-3l-3-1h2v-2l10 2v-2c5-1 5-1 10-1"/><path fill="#d08368" d="M782 729v2l3-2h5c-3.721 5-7.614 7.896-13 11v-3h-3v-2h-2c1.695-5.086 4.956-6 10-6"/><path fill="#d29781" d="M495 288c1.38 5.523-.469 8.006-3 13-2.125 3.063-2.125 3.063-4 5h-2l-1 5c-2.5 2.438-2.5 2.438-5 4l-1-2a209 209 0 0 1 5.688-9.812l1.646-2.737c2.654-4.367 5.326-8.575 8.666-12.451"/><path fill="#c46e52" d="M905 312c1.407 5.626-.253 9.564-2 15h-2l1 5 1-3 3-1v6h-2l-2 4h-5q-1.024 4.995-2 10l-2 2c.486-5.541 1.418-10.043 4-15h2c.472-2.863.936-5.727 1.36-8.598.954-5.07 2.748-9.609 4.64-14.402"/><path fill="#d69a86" d="M625 256c5.5-.437 5.5-.437 11 0l3 3c-3.004 1.176-3.004 1.176-7.562 2.313-5.821 1.562-11.04 3.251-16.375 6.062L610 270l-2-1 3.5-1.875L615 265v-2l3.313-1.375C622 260 622 260 625 256"/><path fill="#d39279" d="m753 230 2.438 2.125L758 234l1-2c5.824 5.943 10.963 12.712 15 20l-1 2c-3-1-3-1-4.687-3.937C767 247 767 247 767 245h-2l-5-5-5-3c-1.312-3.687-1.312-3.687-2-7"/><path fill="#d4957e" d="m1019 10 2 1-3.125 3.063c-4.79 4.866-7.226 9.343-8.875 15.937l4 1-1 5-2-2-3.125 1.25L1004 36c0-9.364 4.916-16.159 11.313-22.812z"/><path fill="#ddad9b" d="M329 176c3.82 3.82 3.225 8.89 3.313 14-.113 13.23-4.815 22.683-11.313 34-1-2-1-2 0-7h2v-6c1.813-3.5 1.813-3.5 4-7 2.758-4.686 3.361-8.015 3.25-13.437-.015-1.257-.03-2.514-.047-3.81-.197-3.636-.628-7.158-1.203-10.753"/><path fill="#d6a28b" d="M579 697c5 3 5 3 6 7l3 3v4h2v2h2v2h3c3 7.667 3 7.667 3 12-15.833-19-15.833-19-19-30"/><path fill="#d38b71" d="M822 684c3.75.063 3.75.063 7 1-1.927 3.855-4.08 7.25-6.5 10.813l-2.406 3.582L818 702l-2-1c.91-4.022 2.15-7.3 4-11l-3-1 3-2z"/><path fill="#d7967e" d="M231 586c7.875.875 7.875.875 9 2 7.35 1.325 7.35 1.325 12-1 6.344-.328 6.344-.328 9 1v2l-4.562-.062L252 590l1 3c3.063 1.188 3.063 1.188 6 2-5.673 1.418-9.846-.815-15.125-2.812l-3.074-1.12c-7.522-2.789-7.522-2.789-9.801-5.068"/><path fill="#d5a28c" d="M1314 369h2l3 3v2l4 2a127 127 0 0 1 7 5v2l4 2v2l2 1c.25 4.063.25 4.063 0 8h-2l-.187-3.062c-2.089-10.121-14.868-16.284-22.813-21.938l3-1z"/><path fill="#d39882" d="m59 307 2 1c-1.393 4.377-3.05 6.037-6.75 8.813-4.05 2.084-6.833 2.569-11.25 3.187l-2 4-5 1c3.427-3.566 6.964-6.622 10.938-9.562l3.027-2.254c6.28-4.518 6.28-4.518 9.035-6.184"/><path fill="#d6957e" d="M769 649h4l1 3-5 1v3l2 1-2 4-3-1-1 2-2.687.813c-3.88 1.39-6.277 3.44-9.313 6.187 2.34-4.681 5.3-7.3 9-11a276 276 0 0 0 3.688-4.937z"/><path fill="#d08065" d="M558 306h3c1 5 1 5 0 8h-2l-.312 3.063c-.826 4.728-2.603 7.312-5.688 10.937-1.559-3.118-.677-5.678 0-9h2v-2h2v-3l-3-1c2-4 2-4 4-7"/><path fill="#d7a18c" d="M794 607c1.532 3.063.26 5.046-.75 8.25-.345 1.119-.69 2.238-1.047 3.39-1.18 3.298-2.455 6.324-4.203 9.36h-2v3l-3 3h-3c1.068-5.342 4.122-9.46 7-14 2.383-4.307 4.698-8.649 7-13"/><path fill="#d18870" d="m1317 411-1 5h-3v3h-2v2h-3l-1 5c-4.062.938-4.062.938-8 1v-2h4l-1-3c3.347-3.995 9.612-11 15-11"/><path fill="#d08268" d="m760 413 3 1c-2.14 5.35-4.457 9.454-8 14-5.625 1.688-5.625 1.688-9 0 .563-3 .563-3 2-6l5-1-2 3 2 1 2-4h3v-6z"/><path fill="#d4a18c" d="M1264 339c5.658.483 8.88 2.88 13.406 6.234C1280 347 1280 347 1284.813 349.063c4.425 2.047 6.559 3.859 9.187 7.937l-2 1c-3.074-1.765-6.085-3.64-9.062-5.562l-4.973-3.192L1273 346l-2.628-1.707A365 365 0 0 1 1264 340z"/><path fill="#d1856c" d="m927 252 1 2h3c2 2 2 2 3 4-6.235 4-6.235 4-9 4v3h-2a179 179 0 0 0-4 8c-1.32-3.963-.315-5.524 1.188-9.375l1.292-3.398c1.51-3.205 3.065-5.675 5.52-8.227"/><path fill="#d1937a" d="M1048 0c-2.062 2.5-2.062 2.5-5 5-3.562.188-3.562.188-7 0l-4 2h-3v2q-3.984.624-8 1c7.813-7.813 16.186-10.328 27-10"/><path fill="#d28970" d="m1223 471 1 5-3 1-4-2c-4 1-4 1-7 4-6.333 1.333-6.333 1.333-9 0a436 436 0 0 1 6.5-4l3.656-2.25c4.341-1.976 7.131-2.488 11.844-1.75"/><path fill="#d7a08c" d="m473 323 1 2c-1.312 3.625-1.312 3.625-3 7h-2a175 175 0 0 0-1 6c-3.458 10.953-3.458 10.953-8.312 14.25L457 353c1.514-3.784 3.073-7.144 5.004-10.703l1.744-3.219 1.815-3.328 1.826-3.375c4.477-8.24 4.477-8.24 5.611-9.375"/><path fill="#d39a86" d="M573 577h1c1.137 6.514.912 11.659-1 18h-2v5l-4 4c.567-6.434 1.741-12.35 3.5-18.562l1.344-4.817z"/><path fill="#d39178" d="M173 464c4.582 1.833 8.188 3.894 12.313 6.563l3.8 2.44L192 475v1c-3 .043-6 .04-9 0h-3l-1-2h2v-2h-2v-2l-4 1c-2-4-2-4-2-7"/><path fill="#d1896f" d="M919 469c2.346 9.385-1.415 19.327-5 28h-1c.033-3.093.07-6.186.16-9.277L913 485l-2-1h3c.399-2.658.725-5.327 1-8 2-4 2-4 4-7"/><path fill="#daa492" d="M663 688a175 175 0 0 1 10.25 4.5c8.531 3.862 16.735 4.773 26.004 5.254L702 698v1c-3.373.13-6.75.176-10.125.188l-5.695.042c-4.284-.19-7.345-.39-11.18-2.23v-2l-3.937.125L667 695l-1-4h-3z"/><path fill="#d49881" d="M865 615h3c-1.027 5.136-2.708 9.024-4.937 13.75l-2.153 4.61C859 637 859 637 857 638c-.812-4.875-.812-4.875-1-10l3-1 1-3h2l1-4z"/><path fill="#cf8269" d="M328 588c3.014.603 6.019 1.255 9 2l5-1 1 2-3.375.938L336 593l-1 3c-4.888 1.417-8.02 2.245-13 1l3-1v-2l4-3z"/><path fill="#d9a892" d="M1079 583h1c.033 3.974-.07 7.94-.16 11.914.15 3.845.504 6.62 2.16 10.086h3c-.314 2.336-.65 4.669-1 7l2 4-1 3c-6.638-6.638-7.27-14.454-7.312-23.437.071-4.463.23-8.232 1.312-12.563"/><path fill="#d18f78" d="m493 423 3 2c-1.79 4.473-3.802 8.566-6.062 12.813l-2.16 4.082L486 445h-1v-5h2v-7h2v-4l-3-1 1-2 5-1z"/><path fill="#d1886f" d="m584 555 4 2-1 4-2-1-1 5-2-1-1.5 4.5-1.5 4.5-2-1-2 4c-1.331-3.994-.27-5.622 1.25-9.5l1.328-3.469C579 560 579 560 582 557h2z"/><path fill="#d0947e" d="m255 273 4 2q-5.18 3.044-10.375 6.063l-2.984 1.76c-2.513 1.453-5.074 2.822-7.641 4.177l-2-1-1-3h6l-1-4h6v-2l9-2z"/><path fill="#daa690" d="m1112 535 4 1-2.437 2.313C1111 541 1111 541 1110 544c-3.518 3.323-5.065 4.013-10 5a312 312 0 0 0-6 7l-1-2c5.436-6.954 11.873-13.783 19-19"/><path fill="#d3957e" d="m751 427 3 1c-2.12 5.298-4.784 9.276-8.062 13.938l-3.286 4.714L740 450c-1.606-3.211-.862-5.614 0-9l5-1v-3h2c.35-6.3.35-6.3-1-9l5 1z"/><path fill="#d39983" d="M1241 325c6 0 6 0 10 3a221 221 0 0 0 7 3l2 1 1 3 3 3-2 1c-3.031-1.658-6.002-3.428-8.937-5.25l-4.903-3.016C1244 328 1244 328 1241 325"/><path fill="#d0795d" d="m225 284 1 2q4-.492 8-1v2l2 1c-5 3-5 3-8 3v-2h-2v2h-5l-1 3-2-3h2l.375-2.937L221 285z"/><path fill="#dcac99" d="m917 273 2 2c-.25 3.625-.25 3.625-1 7h-2l-1 5-2 5v4h-2l.188 4.375L911 305l-5 2c1.372-6.861 3.686-13.32 5.938-19.937l1.38-4.174 1.334-3.916 1.219-3.617z"/><path fill="#d59f89" d="M774 255c3.76 3.76 5.079 7.409 7.125 12.313l2.133 5.05C785.89 279.37 785.89 279.37 786 283l-3-1v-3h-2c-1.084-2.97-2.067-5.978-3-9l-1.625-4.812C774 257.955 774 257.955 774 255"/><path fill="#d29b86" d="m775 385 2 1c-.995 4.973-2.523 8.38-4.812 12.875l-2.083 4.117c-1.956 3.724-3.936 7.404-6.105 11.008h-1v-5h2l.41-2.54c.696-4.08 2.166-7.144 4.028-10.835l1.87-3.773L773 389h2z"/><path fill="#d9a694" d="M733 686v5c-4.5.688-4.5.688-9 1v2l-5 1-3 4-5-1a195 195 0 0 0-7 0c3.558-1.779 6.93-3.043 10.688-4.312C720.333 691.709 727.357 686 733 686"/><path fill="#c46f52" d="M250 592c3.301.396 6.552.91 9.813 1.563 3.187.437 3.187.437 7.687.312 5.71.13 10.667 1.107 16.203 2.395 3.744.829 7.493 1.273 11.297 1.73v1c-2.477.101-4.958.13-7.437.125l-4.184.008C280 599 280 599 279 598c-4.922-.509-9.85-.903-14.781-1.305-5.086-.677-9.444-1.841-14.219-3.695z"/><path fill="#d2866c" d="M296 238h4l1 5-2.937.938c-1.011.35-2.022.7-3.063 1.062v6c-4.375 3.938-4.375 3.938-9 7l-2-1 2-4h3v-3h2l1-3c1.438-3.187 1.438-3.187 3-6h2z"/><path fill="#d28970" d="M233 210v2c-2.312 2.188-2.312 2.188-5 4l-6-2-2.937 1.5C216 217 216 217 212 216q2.87-1.727 5.75-3.437l3.234-1.934c5.103-2.757 6.465-2.85 12.016-.629"/><path fill="#d09a86" d="m1066 56 2 1c-1.131 6.768-3.286 13.104-5.562 19.563l-1.88 5.378L1059 86h-1c-.287-4.88.132-7.33 2-12l.5-4.75.5-4.25 2-1 1-3h2z"/><path fill="#d8a48d" d="M567 659c2 4 2 4 2 7h2l2 5h3l-1 3h-1c-.687 3.5-.687 3.5-1 7h2v5l2 1-2 3a1389 1389 0 0 1-3.437-9.875l-1.934-5.555c-1.545-5.284-2.276-10.09-2.629-15.57"/><path fill="#d3957d" d="M154 451c6.858 3.106 13.345 6.998 19 12-3.198 1.6-5.696.025-9-1l-4-1v-2l-4-1c-1.25-3.562-1.25-3.562-2-7"/><path fill="#d48f76" d="m431 398 1 2-1 3h2l-.562 3-.438 3h3l-1 3h-2v-2h-3l-1 2h-3l-1 4h-2c1.199-5.327 4.071-9.46 7-14z"/><path fill="#d2917c" d="M1402 361c5.27 7.906 6.834 15.705 6 25l-3 1c-1.792-6.13-2-11.641-2-18h-1a256 256 0 0 1 0-8"/><path fill="#cd7e65" d="M483 310c1.522 4.566-.296 7.645-2 12h-2v2l-7 7c2.765-13.241 2.765-13.241 8-17h2z"/><path fill="#d59d84" d="M309 166c-7.75 4-7.75 4-10 4v2h-2v2l-6 1v2l3 2h-4l-1 3v-2h-2v-3l-3-1q4.058-2.195 8.125-4.375l4.57-2.46c9.291-4.672 9.291-4.672 12.305-3.165"/><path fill="#d3a28d" d="M1070 2c5.346.535 9.55 1.956 14 5 .32 6.197-2.05 12.151-4 18h-1c-.272-4.9.161-8.638 1.375-13.437L1081 7c-2.687-1.062-2.687-1.062-6-1l-3-1V3z"/><path fill="#d49983" d="m339 516 2 1-2 4-4.875 1.438c-5.382 1.64-5.962 2.382-9.125 6.562h-6l-2-3c2.332-1.21 2.332-1.21 5.813-2.375 5.772-2.036 10.836-4.643 16.187-7.625"/><path fill="#d29079" d="M1292 502c2 1 2 1 5 3v-2c3 .375 3 .375 6 1-3.333 3.333-5.604 5.129-9.625 7.313l-2.914 1.613L1288 514l-2-1 1-3h3a374 374 0 0 0 2-8"/><path fill="#daa995" d="M787 347h2c-.318 7.094-1.785 13.424-3.875 20.188l-1.555 5.105c-1.342 4.023-2.755 7.875-4.57 11.707h-1v-6h2l-.125-5.5.125-5.5h4a159 159 0 0 0 1-11l1-1 .438-4.062c.185-1.3.37-2.6.562-3.938"/><path fill="#d79d87" d="m904 510 4 1c-.955 8.918-4.938 17.613-8 26-1-3-1-3-1-9l2-4h2c.033-3.06.056-6.12-.027-9.18C903 512 903 512 904 510"/><path fill="#d7a490" d="M1298 274c4.768 1.907 8.61 4.136 12.938 6.875l4.152 2.617L1319 286l3.691 2.195L1325 290l-3 2v-2l-5-1-1-2-3-1-1-2h-3v-2l-5-1-1-2h-3v-2h-3z"/><path fill="#d8a893" d="M180 236v2l-3 1-1 2h-2v2c-7.294 4-7.294 4-10 4v2a270 270 0 0 1-11 3c5.268-5.268 19.14-16 27-16"/><path fill="#d18469" d="M906 497a150 150 0 0 1 1 6h1l.375-3 .625-3h3c1.735 5.205-.828 9.127-3 14l-4-2v-3l-2-1v-5l-1-2c2-1 2-1 4-1"/><path fill="#daa591" d="M519 256v3l-2 2-1 3.125-1 2.875h-2l-1 5c-1.51 3.019-4.017 3.6-7 5l-2 1c1.998-3.995 4.282-7.368 6.875-11l2.617-3.687C515 260 515 260 519 256"/><path fill="#d5a08b" d="M886 564h3c-.993 4.965-2.52 9.17-4.375 13.875l-1.836 4.68c-3.232 8.031-3.232 8.031-4.789 11.445h-1c-.187-4.5-.187-4.5 0-9h2l1-4h2v-6l2-4 .938-3.75z"/><path fill="#d08468" d="m1178 496 4 1c-3 4-3 4-7 6h-9l-3 2-4-1c6.358-4.508 11.233-6 19-6z"/><path fill="#d79f8a" d="m456 353 1 2c-.96 2.35-1.969 4.68-3 7l-1.562 4.688C451 371 451 371 449 375l-5 2c1.576-5.596 4.273-10.329 7.125-15.375l2.758-4.898z"/><path fill="#d2927b" d="m800 713 4 1 2-1c-2.518 5.035-5.913 8.168-10 12h-2v2h-3c1.125-5 1.125-5 3-10h7z"/><path fill="#d4937d" d="M1294 358h6l1 1 3.563-.312L1308 359v6l3 5c-3.863-1.931-7.203-4.107-10.75-6.562l-3.547-2.442L1294 359z"/><path fill="#c87358" d="M527 249c3 1 3 1 5 4l-4 4h-3v2l-5 1-4 2c3.072-5.332 5.849-9.528 11-13"/><path fill="#dcad99" d="M628 190c-4 2-4 2-7.75 2.5l-3.25.5v2c-3.594 1.47-6.078 2-10 2v2c-2.844.414-2.844.414-6.5.625l-3.656.227L594 200c3.78-3.78 9.712-4.589 14.75-6.125l3.578-1.129 3.469-1.066 3.167-.977C622 190 622 190 628 190"/><path fill="#c67257" d="M715 697v2c-5.63 2.767-11.753 2.295-17.875 2.25l-3.184.023c-5.953-.014-11.24-.542-16.941-2.273 6.466-1.617 13.03-1.013 19.668-.937C702.827 697.99 708.856 697 715 697"/><path fill="#d5a491" d="M129 522c4.56.398 7.387 1.57 11.063 4.25l2.609 1.898C145 530 145 530 147.812 532.875 150 535 150 535 155 536v3c-4.506-.976-7.69-2.98-11.312-5.75-3.563-2.68-7.14-5.254-10.875-7.687L129 523z"/><path fill="#d29883" d="M1232 541c2.665-.083 5.335-.083 8 0-4.135 3.524-8.545 6.23-13.25 8.938l-4.328 2.527L1219 554l-1-3 5-2v-2h4v-2h2l1-2h2z"/><path fill="#d0957e" d="m16 439 4 1v3l4 1 1 3 5 1 2 5h2l-2 4c-6.79-4.421-11.88-11.134-16-18"/><path fill="#d39d88" d="m278 259 3 1c-3.547 3.547-7.35 5.963-11.562 8.688l-4.63 3.011C261 274 261 274 259 274v-4h3l1-3h5v-2l5-1v-3h5z"/></svg>