<svg xmlns="http://www.w3.org/2000/svg" width="1408" height="768"><path fill="#ce714f" d="M823 144a394 394 0 0 1 6.375 4.938c6.401 5.06 13.213 9.217 20.207 13.406 5.061 3.043 10.015 6.227 14.969 9.441 3.56 2.286 7.157 4.5 10.761 6.715 7.259 4.525 14.36 9.262 21.438 14.063l3.118 2.109a422 422 0 0 1 18.352 13.265 106 106 0 0 0 6.13 4.202L927 214v2l4 2c1.64 1.398 3.24 2.84 4.813 4.313 3.034 2.796 5.935 5.22 9.312 7.625.949.68 1.898 1.36 2.875 2.062v2h2v2h2v2l4 2c38.616 36.937 63.725 84.771 65.934 138.531.776 52.216-19.288 101.903-49.934 143.469q-2.535 3.591-5.062 7.188c-6.91 9.653-14.451 18.514-22.555 27.183C942 559 942 559 939 563h-2l-2 4a103 103 0 0 1-4.375 4.5l-2.336 2.281L926 576l-4 4h-2v2c-1.532 1.372-3.13 2.672-4.75 3.938a199 199 0 0 0-12.187 10.562c-5.724 5.296-11.75 9.934-18.063 14.5l-7.812 5.75A2507 2507 0 0 1 870 622l-3.328 2.566c-4.362 2.891-8.739 4.715-13.61 6.621l-5.152 2.043c-22.733 8.193-45.002 4.742-66.91-4.23-4.72-2.607-8.86-5.556-13-9l-2.937-2.434c-3.953-3.42-6.701-5.842-9.063-10.566h-2c-14.275-20.105-20.933-42.105-17.312-66.664 6.192-30.292 24.413-50.381 49.375-67.336a234 234 0 0 0 6.687-4.75c3.25-2.25 3.25-2.25 7.563-4.625 4.068-2.279 7.785-4.772 11.57-7.484 4.045-2.779 8.203-5.355 12.367-7.954 8.145-5.113 16-10.497 23.75-16.187l3.129-2.258c7.3-5.269 7.3-5.269 10.555-7.969C864 420 864 420 866 420v-2l2.063-1.562c8.773-7.28 16.208-18.369 18.937-29.438 1.06-11.804-3.19-20.603-10-30l-2.75-3.937C858.395 333.243 835.764 319.12 815 305a1336 1336 0 0 1-10-7l-3.262-2.262C793.425 289.913 785.65 283.668 778 277l-4.187-3.562c-8.35-7.529-15.454-15.155-21.813-24.438l-3.062-4.125C735.438 222.47 731.634 195.53 737 170c2.377-7.8 5.662-15.083 10-22h2l2-4c23.696-18.312 47.88-16.52 72 0m-43 31c-5.267 13.168-3.836 27.572 1.441 40.543 4.664 9.923 10.842 17.74 18.559 25.457h2l1 3c12.474 11.822 27.458 21.38 41.56 31.136 13.964 9.67 27.832 19.596 40.717 30.684C888 308 888 308 890 308l2 4a392 392 0 0 0 7 6l1 2h2l2 4a147 147 0 0 0 4.125 4.375c14.453 15.868 21.43 37.021 21.117 58.203-1.464 26.742-18.703 47.376-37.762 64.512-7.202 6.022-14.85 11.45-22.48 16.91l-4.332 3.137C854.37 478.52 843.751 485.299 833 492c-48.124 30.378-48.124 30.378-54.309 50.691-2.504 11.986-1.011 23.775 5.309 34.309 3 4 3 4 6 7h2v2c8.737 7.466 16.572 9.43 27.938 9.438l5.59.058c9.585-.869 16.074-4.621 23.472-10.496q3.368-2.385 6.75-4.75c9.598-6.834 18.4-14.486 27.25-22.25l3-2.312 2-1.688v-2l4-2c5.597-4.587 10.285-9.527 15-15l3.938-3.875c3.541-3.596 6.72-7.286 9.82-11.266a292 292 0 0 1 4.922-6.093c32.96-40.042 59-91.475 53.855-144.563C973.948 329.4 953.415 298.247 926 270l-3.36-3.504C920 264 920 264 918 264v-2c-3.623-3.07-7.29-6.04-11-9l-3.66-3.027C824.664 185 824.664 185 805 185l-1-3c-5.383-4.577-10.56-8.637-17.625-9.687C783 173 783 173 780 175m-158.812-44.25 5.48-.078c11.407.702 23.204 6.2 31.332 14.328 13.727 17.159 16.255 36.6 15 58-2.701 21.401-11.294 40.357-25 57h-2l-2 4c-10.865 12.05-23.483 21.455-36.625 30.852a481 481 0 0 0-10.812 8.023c-3.538 2.675-7.109 5.158-10.875 7.5C569.769 320.318 554.872 332.389 541 345l-3.375 2.938c-8.59 9.627-15.893 20.907-17.062 33.937 1.057 12.384 6.953 19.989 14.875 29.063C538 414 538 414 538 416h2v2l4 2c2.578 2.044 5.064 4.18 7.563 6.32 4.95 3.86 10.187 7.243 15.437 10.68l3.315 2.18q5.245 3.447 10.497 6.882l3.809 2.494a32825 32825 0 0 0 24.004 15.694l2.702 1.766c3.49 2.276 6.978 4.55 10.514 6.756 23.826 14.88 41.723 35.473 48.596 63.04 4.67 23.546.437 45.245-12.488 65.383-13.197 18.81-32.254 30.759-54.613 35.598-25.579 4.08-49.022-3.15-69.899-17.98Q530.213 616.416 527 614l-3.902-2.676L520 609v-2l-4-2c-6.179-4.76-11.992-9.772-17.746-15.031-2.593-2.265-5.372-4.092-8.254-5.969a141 141 0 0 1-5-5l-3.875-3.812a180 180 0 0 1-7.5-8.063c-3.714-4.226-7.633-8.124-11.684-12.023C460 553 460 553 460 551h-2c-1.733-2.007-3.385-4.084-5-6.187l-3.012-3.915L447 537l-2.457-3.086c-40.57-51.268-61.963-110.143-57.11-175.777 3.972-28.888 16.407-56.83 32.876-80.657 1.658-2.431 3.177-4.956 4.691-7.48h2l2-4a262 262 0 0 1 5.813-6.937l3.144-3.653A166 166 0 0 1 446 247c2.563-2.499 4.935-4.915 7.125-7.75 3.353-3.79 7.056-6.759 11.004-9.91 2.595-2.115 5.047-4.309 7.496-6.59 19.659-17.858 42.701-32.332 65.031-46.59 3.209-2.073 6.372-4.202 9.532-6.347a127 127 0 0 1 11.437-6.875c6.942-3.703 13.163-8.276 19.441-12.993 13.94-10.344 26.41-19.045 44.121-19.195M614 175c-2.948 2.139-5.842 4.34-8.73 6.559-5.547 4.141-11.416 7.754-17.27 11.441q-2.61 1.663-5.219 3.328c-8.483 5.415-16.978 10.806-25.531 16.11-4.968 3.097-9.835 6.269-14.594 9.68a326 326 0 0 1-6.187 4.265c-9.054 6.113-17.74 12.593-26.313 19.355a295 295 0 0 1-8.687 6.555L498 255v2l-4 2c-33.11 27.615-60.714 66.429-65.754 110.23-2.423 37.111 8.078 70.542 25.754 102.77l2.176 3.969A201 201 0 0 0 469 496l2.238 3.234c6.083 8.732 12.725 16.79 19.762 24.766l3.75 4.313L498 532l2.129 2.48c1.915 2.21 3.889 4.37 5.871 6.52h2l2 4 3 3h2l1 3c5.465 5 5.465 5 8 5v2c3.62 3.075 7.282 6.047 11 9l3.648 2.98c6.647 5.407 13.31 10.598 20.54 15.204a93 93 0 0 1 5.437 3.789c9.42 6.827 19.928 7.853 31.313 6.402 5.423-1.052 10.21-2.67 15.062-5.375l2-4 5-2c8.693-8.54 12.026-18.12 12.313-30.062-.161-14.1-5.933-24.334-15.313-34.438-6.006-5.774-13-10.04-20-14.5q-4.688-3.06-9.375-6.125a1829 1829 0 0 0-16.969-10.91C546.546 473.918 524.942 459.224 506 441l-3.75-3.5c-15.557-16.754-23.732-37.39-23.523-60.215.937-14.685 7.16-29.169 15.273-41.285v-2h2c1.723-2.187 3.44-4.38 5.113-6.605 2.396-3.04 5.153-5.661 7.887-8.395v-2h2v-2l4-2c1.849-1.626 3.657-3.3 5.438-5 6.219-5.783 12.745-10.945 19.562-16l3.805-2.824A925 925 0 0 1 565 274c26.163-18.239 26.163-18.239 37.867-29.059C605 243 605 243 608.063 240.625c13.381-11.958 21.912-27.58 23.14-45.605.105-7.169-.248-13.348-3.203-20.02-5.45-3.877-8.417-3.295-14 0"/><path fill="#ce714f" d="M629.344 358.602c4.235 2.778 7.126 5.91 10.468 9.71 5.425 5.948 10.36 10.466 17.188 14.688l5 3.188c21.142 11.892 43.72 13.444 66.91 7.445 9.083-2.914 17.454-6.906 25.09-12.633h2v-2a1579 1579 0 0 1 6.238-4.66c3.266-2.767 5.907-5.85 8.7-9.09 4.976-5.495 8.477-8.265 16.062-9.25 6.45.086 10.725 1.276 16 5 5.633 5.937 6.526 11.912 6.367 19.793-.55 4.811-2.38 7.428-5.367 11.207l-1.844 2.543C796.171 402.46 788.976 408.175 781 414l-3.262 2.445c-27.538 19.985-61.064 25.58-94.347 21.942C650.483 432.42 619.659 414.32 600 387c-2.498-5.573-2.143-10.038-1-16 2.18-5.186 3.982-7.982 8-12 7.968-3.081 14.458-4.175 22.344-.398"/><path fill="#cf714e" d="M548 434h2v4h3l1-2c6.031.177 9.697.697 14 5l2.375 2.625c3.086 2.792 5.638 3.378 9.625 4.375l1 2 3 1v3c2.327.372 4.662.698 7 1 4.634 1.853 7.764 4.192 11 8v3a539 539 0 0 0 11 3v2h3l2 4 3 2-2 3c-5-1-5-1-7-2a254 254 0 0 0 0 8l-1 5c-5 3-5 3-7 3l-1-4-5-1-2 3h2v4l2 1-1 3c-3.5.313-3.5.313-7 0-1-2-1-2 0-6-4-1-4-1-8 0l-1-2-3.187-.375L577 491l2-4 1-4h-5l-1-2-4.625.688c-6.39.371-7.533-.814-12.375-4.688l-4.875-1.562c-1.361-.475-2.722-.95-4.125-1.438l-1-4h-2c-.687-3.437-.687-3.437-1-7l1-1-3.5-.75L538 460l1-5 4 1 1-2h4v-2h-4l-1-4h3v-2h2v-4l-2-1c.75-3.562.75-3.562 2-7"/><path fill="#cf856a" d="M998 296c19.501 19.501 23.43 60.717 24 87-.172 32.921-9.15 63.872-22.625 93.688l-1.417 3.153c-2.218 4.822-4.325 9.245-7.958 13.159-.125-3.5-.125-3.5 0-7h2l.438-3.312C993 479 993 479 996 476l.5-4.687.5-4.313h3c.392-2.659.72-5.327 1-8l2-3-1-3c-1.187-4-1.187-4-2-8l2-3 3.625-.375L1009 441v-5l3-5a149 149 0 0 0 1.688-9.437c.25-1.65.502-3.298.761-4.997C1015 412 1015 412 1015 406l-2-2c.242-2.871.242-2.871.875-6.437.77-4.724 1.237-9.153 1.125-13.938V379h2c1.905-7.621.396-16.322-1-24l-1-1-.312-4c-.73-5.304-2.241-9.259-4.688-14l-1 1v2c-5 3-5 3-7 3-.15-3.885.009-7.735.125-11.621L1002 327l-2-1v-2h6c.063-5.5.063-5.5-1-11h-3l-1 2v-5h-5v-4h3a192 192 0 0 0-2-7z"/><path fill="#ce714e" d="M631 361c3 3 3 3 4 7h-2v2h-3v4h5l1 3 4 3c-1 2-1 2-4 4l-1 2h-3v2h-2v4h-2l-2-2-3 1-1 3c-3.062.813-3.062.813-6 1v-2h-2v-5h-4l-1 2c-6.875-2.75-6.875-2.75-9-7-.414-4.1-.223-7.854 0-12l3-1v-2h2v-4h4v-2c7.073-2.688 14.643-2.393 22-1"/><path fill="#cf7350" d="M628 478c18.018 9.009 31.964 27.531 39 46 7.103 22.587 7.477 45.276-3.062 66.938-2.096 4.017-3.729 6.853-6.938 10.062l-1-5-3-1 1-3 3-1v2h2v-4h2l1-3 1-3h2c-.187-4.5-.187-4.5-1-9h-3c-.328-3.36-.328-3.36-.25-7.75.015-1.439.03-2.877.047-4.36C661 558 661 558 662 554h2v5l3 1c1.254-8.779 1.153-16.388-1-25l-4-1v-4h2v-2l-4-1c-2-3-2-3-2-7h2c-3.273-7.515-3.273-7.515-7-10h2l-1-2c-3.436.382-6.643 1.16-10 2l-4-2h2v-2l-3.812.313L634 506c-1.875-3.25-1.875-3.25-3-7l-2-4 3-4h2c1-3 1-3-1-8l-5-2z"/><path fill="#cf7957" d="M847 477c4.563-.187 4.563-.187 9 0-4.073 4.073-7.988 6.658-12.875 9.688l-5.168 3.226L833 493c-10.174 6.42-20.14 13.107-30 20l-4.5 3.125c-9.633 7.913-16.515 17.621-19.5 29.875-1.076 13.268.732 24.2 9 35l4 3-1 2-2.75-1.875C785 582 785 582 780 582l-1 2-3-1h2l-1-5h-2l-3-5 1-4 3 1-1-4a254 254 0 0 1-.187-9.062l-.043-4.848C775 548 775 548 777 545l.5-3.687.5-3.313h2q.506-5 1-10l2-1 1 2 .375-3 .625-3h2l1-4h3v-3h-4l-1 5c-3.5 0-3.5 0-7-1l-1-3h2v-3h3l1-2 4-2v-4h2l-1-3 5-1 1 2 .375-3 .625-3h2l-.25 3.563L798 505c3-.187 3-.187 6-1v2h-2v2l5-1v-2l4 1-1-3h4v-3h3l1-3h3v-2h3v-2h3l1-5 3-1 1-3h4v-2h2v3h3v-2h2v-2l3-1z"/><path fill="#ce7352" d="M446 534c5 2 5 2 8 4v4l5-1c.395 2.324.722 4.66 1 7l4 2v-2c3-2 3-2 7-2v2l-3 .375-3 .625v4h2v3h3v-3l4-1v2h3l-1-4h4l.438 3.563L481 557l5-1 2 4-4 1c.563 5.125.563 5.125 2 10l3-1 1 5h-2l1 4 4 1h-2v2l5 2 5 3 1-2c3.5-.125 3.5-.125 7 0h1l3.063.625L516 586v-2h2c0 5.549-.685 6.022-4 10l2 1-4 1c1.188 2.938 1.188 2.938 3 6l1 2c-4.268-2.134-7.169-4.607-10.75-7.75-4.95-4.303-9.99-8.33-15.25-12.25a141 141 0 0 1-5-5l-3.875-3.812a180 180 0 0 1-7.5-8.063c-3.714-4.226-7.633-8.124-11.684-12.023C460 553 460 553 460 551h-2a162 162 0 0 1-5.562-6.812l-3.004-3.833C447 537 447 537 446 534m43 34h3v2h-3z"/><path fill="#d08f76" d="M398 319c1.635 6.539.169 13.321-2.5 19.438-6.421 15.25-4.607 34.649-4.187 50.812l.104 4.38c.325 10.366 1.547 20.192 3.583 30.37l-.062 3.813L395 431h2c1 3 1 3 .875 7.188L398 442h3l1-2c1 3 1 3 0 7h3l-1 5c.945 3.35 1.948 6.683 3 10 .353 2.33.695 4.663 1 7h1v6c-23.441-31.255-26.03-84.404-20.937-121.437 2.29-11.76 6.154-23.213 9.937-34.563"/><path fill="#d0876b" d="m439 321 4 1c-.54 2.516-.54 2.516-2 6-10.898 28.239-14.615 54.266-9.46 84.18L432 416h-2c-.667-3.893-1.03-7.79-1.437-11.719L428 401h-2c-1.853-5.56-1.435-11.616-1.625-17.437l-.156-4.05-.133-3.884-.124-3.56C424 369 424 369 425 365h-2l-1 2c0-5 0-5 1-6l-3-1v-2h-2v-2l-2-1 1-3 5-1 1-3 1 4 5 1c.383-2.93.383-2.93.125-6.875-.242-3.93-.242-3.93-.125-7.125l3-1c.66-2.906.66-2.906 1.063-6.5.248-2.175.546-4.346.937-6.5l2-1 1 2h2z"/><path fill="#d1886e" d="M800 360c4.43 2.215 5.533 3.832 8 8 2.22 6.661 2.03 13.805-.937 20.125L804 392l-1.844 2.543C796.173 402.457 788.981 408.186 781 414l-3.578 2.621c-10.39 7.413-10.39 7.413-15.422 8.379v-4l3.375-.437L769 420c2-5 2-5 3-10l2.938-.437L778 409a253 253 0 0 0 2-6h5v2l3-1 1-2h3v-4h-2v-2l3 .563 3 .437v-3l-4-1 2-5h2v-3l4-1 1-3v2l4-1c.819-6.757-.477-10.342-4-16-.75-3.437-.75-3.437-1-6"/><path fill="#ce7c5d" d="M492 526c5.512 3.859 9.645 8.92 14 14 3.452 3.543 7.032 6.919 10.688 10.25l2.886 2.64C522 555 522 555 524 556v2l4 2a224 224 0 0 1 5.813 4.938c6.252 5.39 12.8 10.207 19.558 14.945L556 582c-3.774 1.887-8.178-.805-12-2h-2v-2h3v-2l-5-2-3-2v-2l-5.5-.812L526 568v-5h-2l-2-4-3-2v-2l-5-1v2h-2v-2h-2l-1-3-2 2-1-3h-2v-2l-3 1-3 1q-.508-4-1-8h-3v-2h-2c.476-5.476.476-5.476 3-8l-4-1z"/><path fill="#cf8468" d="m555 211 1 3c-3.275 2.507-6.544 4.761-10 7-14.646 9.598-28.563 19.943-42.207 30.918C501 254 501 254 498 255v2l-2-1 1-5-5-1 2.313-2.187C497 245 497 245 500 240l2 1v2l4-1v-1l3.5.063L513 241v-2l5-1 1-3 2-2h3l-1-5 5-3 2-5c4.25-.25 4.25-.25 9 0 3.563-.312 3.563-.312 6-1v-3h-3v-2l4-1v2l5-1v-2c2-1 2-1 4-1"/><path fill="#d08468" d="M519 377h1c.281 2.121.523 4.247.75 6.375 1.672 11.822 7.23 19.212 15.02 27.938C538 414 538 414 538 416h2v2l4 2a183 183 0 0 1 5.188 4.25c3.59 3 7.18 5.734 11.125 8.25L564 435c-2 1-2 1-6 0v-2c-5.39-1.078-10.5-2-16-2l-1-5-3 1-1-3-3.687-.375L530 423l2-5v-5l-4 2-1-2 2-3c-5-7.5-5-7.5-8-9l-1 2-5-1 1-3v2h2v-2h3l-1.312-3.75c-2-6.223-1.983-10.75-1.688-17.25z"/><path fill="#d7987f" d="M923 516c0 3.758-1.17 5.746-3 9l-3 3h-2v3l-3 1c-3 5-3 5-4.5 9s-1.5 4-4.5 9l-3.187-.25c-3.813.25-3.813.25-7.938 4.563l-1.883 2.425C888 559 888 559 883 562l-1 2h2c-1 4-1 4-2 6l2 1-1 2h-2v-3c-4.796-1.2-5.869-.425-10 2l-2 2-4 1-3 4-4-1 4.813-3.937 3.035-2.485q3.04-2.487 6.086-4.969c13.32-10.862 13.32-10.862 17.566-15.109 2.5-2.5 2.5-2.5 5.875-5.312 3.937-3.463 7.2-7.222 10.625-11.188l3.938-3.875c4.417-4.485 8.19-9.166 12.062-14.125z"/><path fill="#c27659" d="M652 381c5 2 5 2 9.688 4.875 18.857 11.375 40.675 13.673 61.937 9.125 11.068-2.863 21.202-7.12 30.375-14l2 1-3 2-1 3h-2l-1 3h-4v2a186 186 0 0 1-8 2c-5.208 1.551-10.05 3.769-15 6-5.796 2.318-9.48 2.071-15.687 1.75l-5.7-.266c-8.668-.748-16.402-2.707-24.613-5.484l-3.562-.562L670 395v-2a192 192 0 0 0-7-2l-4-2-2 5-2-1v-3l2-1 1-4a129 129 0 0 0-6-1z"/><path fill="#d07253" d="m978 507 2 4c-2.332 3.906-2.332 3.906-5.812 8.5l-1.828 2.438A1121 1121 0 0 1 967 529l-4.75 6.438a660 660 0 0 1-9.25 11.937l-2.25 2.836L949 552c-1-2-1-2 0-6l2-1v-5l3 3c1.125-8.5 1.125-8.5 0-13h3l.438-4 .562-4h4c1.125-3 1.125-3 2-6h2v-2h6l1-5z"/><path fill="#d5a18c" d="M739 531h1a229 229 0 0 1-.008 8.066l-.05 5.1q-.067 5.355-.157 10.71l-.043 5.128-.067 4.713c.338 4.454 1.413 7.287 3.325 11.283l1.5 5.75C746 587 746 587 749 590l1 5 2 3 1 4 4 1v4h2v2c4 2 4 2 10 2l1 4h3c.625 3.375.625 3.375 1 7l1 2c-7.29-3.645-13.536-8.975-19-15v-2h-2c-14.115-19.88-21.015-41.922-17.36-66.266.68-3.291 1.364-6.524 2.36-9.734"/><path fill="#d08368" d="M775 624c3.5.313 3.5.313 7 1v2l3.938.375c5.39.665 9.166 2.354 14.062 4.625 1.994.37 3.993.713 6 1l3 2c3.76.196 7.43.278 11.188.25l3.138.023c2.56-.006 5.118-.129 7.674-.273v-2h3q.063-3.5 0-7h2l1 3 1-4c4 .063 4 .063 8 1l1 3c2.014-.623 4.011-1.3 6-2 2.332-.075 4.669-.093 7 0-3.568 2.676-6.153 4.014-10.25 5.563l-3.266 1.253c-22.459 7.63-43.957 3.687-65.484-4.816-3.625-2.164-3.625-2.164-6-4z"/><path fill="#cf7252" d="M411 474c3 3 3 3 6 8v4h2l-1-4 5-1 1-2v5h-2c1.25 4.563 1.25 4.563 3 9l2-1c3-1 3-1 6 0v2l-4 2-1 2h-2c.25 4 .25 4 1 8h2v2h2c3 5 3 5 5.563 10.313L439 523h2a190 190 0 0 1 3 9c-13.659-13.659-30.783-37.836-35-57z"/><path fill="#cb795c" d="M669 541h1c3.44 16.074 1.593 35.435-6 50l-1.59 3.063c-1.597 2.875-1.597 2.875-4.41 6.937-2-3-2-3-2-5l-3-1 1-3 3-1v2h2v-4h2l1-3 1-3h2c-.187-4.5-.187-4.5-1-9h-3c-.328-3.36-.328-3.36-.25-7.75l.047-4.36C661 558 661 558 662 554h2v5l3 1c.695-4.059.695-4.059 1.125-9.437.264-3.19.549-6.379.875-9.563"/><path fill="#d07150" d="M456 476c3.198 3.198 5.109 6.314 7.438 10.188 4.653 7.574 9.808 14.589 15.289 21.582C481 511 481 511 481 514l-2.75-2.437C475 509 475 509 471 508v2h-5v-3c-1.99-.39-3.992-.719-6-1l-2-2h3l-1-5 1-3-3-1 1-4 3-1c-1.472-2.519-2.96-5.032-4.582-7.457C456 480 456 480 456 476"/><path fill="#d3947c" d="M671 175h1c4.19 26.411-1.394 51.744-16 74h-1c-.61-5.974 1.036-8.932 4-14l-1-4h-2c1-4 1-4 2-7l3 .625 3 .375 1-5q1.481-4.506 3-9c1.537-4.795 2.272-8.996 2.379-14.027l.103-3.897.08-4.013q.09-3.983.192-7.965l.072-3.547z"/><path fill="#d08b72" d="M847 477c4.563-.187 4.563-.187 9 0-4.073 4.073-7.988 6.658-12.875 9.688l-5.168 3.226L833 493a590 590 0 0 0-26.7 17.91C803 513 803 513 800 513l1-2-1-4c3.438-.125 3.438-.125 7 0v-2l4 1-1-3h4v-3h3l1-3h3v-2h3v-2h3l1-5 3-1 1-3h4v-2h2v3h3v-2h2v-2l3-1z"/><path fill="#cf866a" d="m785 523 3 1c-1 4-1 4-3.375 8.188-6.309 11.566-6.952 21.882-4.5 34.687C782.758 574.071 785.84 579.38 792 584l-1 2-2.75-1.875C785 582 785 582 780 582l-1 2-3-1h2l-1-5h-2l-3-5 1-4 3 1-1-4a254 254 0 0 1-.187-9.062l-.043-4.848C775 548 775 548 777 545l.5-3.687.5-3.313h2q.506-5 1-10l2-1 1 2 .313-3.062z"/><path fill="#cb7a5c" d="m568 624 4 1-.812 2.875L571 631c7.834 3.701 15.598 3.417 24.063 3.313l4.068.01c7.287-.041 7.287-.041 9.869-.323v-2l5-1v-1q4-.063 8 0c-13.591 9.06-32.397 9.134-48 7-9.027-2.101-17.678-4.915-26-9 4-1 4-1 7.5-.937C559 627 559 627 563 625l4 2z"/><path fill="#cb7354" d="M1012 431c1.997 5.992-.74 12.352-3 18h-2a128 128 0 0 0-.437 6c-.919 7.937-3.608 14.452-6.938 21.625l-1.463 3.16c-2.298 4.808-4.532 9.276-8.162 13.215-.125-3.5-.125-3.5 0-7h2l.438-3.312C993 479 993 479 996 476l.5-4.687.5-4.313h3c.392-2.659.72-5.327 1-8l2-3-1-3c-1.187-4-1.187-4-2-8l2-3 3.625-.375L1009 441v-5z"/><path fill="#d1967f" d="M620 581c0 3 0 3-1 6h-2l-1 4-4 1-3 3c-12.166 4.943-26.37 5.26-39 2l-1 1-5 1c-2-5-2-5-2.875-8.687C560 587 560 587 556 585l1-2c2.328 1.23 2.328 1.23 5.25 3.188 11.807 7.834 22.727 10.32 36.84 7.574 7.04-1.843 12.06-4.358 16.91-9.762z"/><path fill="#d09178" d="M484 353h1c.568 7.239-.966 14.085-3 21h-1c-.101 1.998-.13 4-.125 6l-.008 3.375L481 386h1c.928 3.918.985 7.314.938 11.375L483 402h2l1 2 2-2 2 4 4 2-1 3-4-1 1.938 4.563c1.66 4.376 2.661 7.831 3.062 12.437-11.406-11.406-16.01-29.632-16.312-45.437.046-10.176 2.554-19.169 6.312-28.563"/><path fill="#d38b70" d="M654 601h3c-6.297 12.594-19.695 22.672-32 29l-3-1 2-1-1-2h5v-2l3-3-1-4 5 1c-2-3-2-3-5-5l2-5h2l1-3 2 2h3l1 4 5-1 2-4h4z"/><path fill="#d18467" d="M549 475c4.886.171 7.429.547 11.313 3.625 5.13 3.305 8.804 2.174 14.687 1.375v2l5 1c-1 5-1 5-3 8l3.5-.187 3.5.187v3h2v3h2v2h2l1 3c-5.58-2.232-10.35-5.26-15.375-8.5l-2.946-1.89C554.35 479.825 554.35 479.825 549 476z"/><path fill="#cf7c5e" d="M585 304h6v3c-2.502 1.645-5.015 3.275-7.574 4.828-5.213 3.305-10.102 7.026-15.043 10.719C565 325 565 325 560 328v-4h3v-3l-4-2v-3l6-1v-3l-3-1 4-4c5 1 5 1 9 3 4.313.313 4.313.313 8 0l-1-3h5v-2z"/><path fill="#d1886d" d="M791 471v2h-3l-1 4h-2l-1 3c-.97.35-1.939.701-2.937 1.063L778 483a424 424 0 0 0-2 10l-5 3-3-3h-2l-1 2h2l1 3h4l-1 3c-5 1-5 1-8-1v-2c-3.214 1.428-6.073 3.049-9 5 4.993-9.986 25.202-32 37-32"/><path fill="#d2967e" d="M432 417c2.324 4.647 3.674 9.277 5.188 14.25 4.392 14.068 10.158 26.991 17.406 39.836L456 474l-1 2-2-1v-2h-2c-3-5-3-5-3-8l-3-1c-1.062-2.687-1.062-2.687-2-6a100 100 0 0 0-2-6l-2-1v-3h-3c-.798-3.43-.99-6.814-1.172-10.324l-.203-3.551-.148-3.43L434 428l-3-1c-.45-7.099-.45-7.099 1-10"/><path fill="#d5977e" d="M801 133c11.88 1.047 22.715 11.35 31.727 18.535 4.762 3.586 9.837 6.613 14.96 9.653L850 163l-3 2v-2h-3v-2l-3 1-3-3c-4.187-1.312-4.187-1.312-8-2v2h-2c-.823-3.29-1-5.684-1-9h-2l-1-2-4-1v-2l-4-1v-2h-6v2h-4v-3l-3 1v-3l2-1c-1.875-2.562-1.875-2.562-4-5"/><path fill="#d99f88" d="M921 211c3 1.25 3 1.25 6 3v2l4 2c1.64 1.398 3.24 2.84 4.813 4.313 3.034 2.796 5.935 5.22 9.312 7.625.949.68 1.898 1.36 2.875 2.062v2h2v2h2v2l4 2a102 102 0 0 1 4.813 4.5l2.457 2.406L965 249l-1 2-2.562-2.625c-3.59-3.524-6.948-5.207-11.438-7.375v-2l-3.937-.375L942 238c-1-4-1-4 0-6l-3-1-5-4-3-1v-5a772 772 0 0 0-7-2l-1-5-2-1z"/><path fill="#d2856c" d="m790 230 2.063 2.125A132 132 0 0 0 798.5 238c3.5 3 3.5 3 5.832 5.352 7.83 7.771 16.524 14.507 25.668 20.648l-4 1-3-3-5-1-2-1v-2l-5 2-2-5h-3v-2h-3c1-3 1-3 3-5-3.875-2.625-3.875-2.625-8-5v3h-5v-3h3c-.625-3-.625-3-2-6h-3c-.687-3.5-.687-3.5-1-7"/><path fill="#d2937a" d="M446 534c5 2 5 2 8 4v4l5-1c.395 2.324.722 4.66 1 7l4 2v-2c3-2 3-2 7-2v2l-3 .375-3 .625v4h2l2 4 4 3v2h2v2h2l1.063 2.938c2.67 5.598 6.43 8.816 10.937 13.062-3 0-3 0-7.25-4a233 233 0 0 1-8.187-8.937c-3.69-4.208-7.592-8.082-11.622-11.961C460 553 460 553 460 551h-2a162 162 0 0 1-5.562-6.812l-3.004-3.833C447 537 447 537 446 534"/><path fill="#d5977e" d="M605 169h5v2c2.887.16 2.887.16 6.688.063 4.444-.107 7.907.056 12.312.937 4.81 7.215 3.536 18.6 3 27l-2 4 .07-3.586c.207-18.079.207-18.079-2.07-24.414-3.88-2.206-5.892-2.282-10.187-1.187-4.721 2.708-8.886 5.938-13.141 9.324C602 185 602 185 599 185c.125-3.375.125-3.375 1-7l3-2 1 1-.062-3.437C604 170 604 170 605 169"/><path fill="#d7a792" d="M516 191v2l-3 1-2.5 2.563C508 199 508 199 505 199l-2 4-4 1v2a844 844 0 0 1-9 6l-1 2-3.312 1.313c-3.958 1.81-5.088 3.332-7.688 6.687a402 402 0 0 1-6 3l-3 4c-3.59 3.779-7.293 7.646-12 10l-2 4-5 1c4.069-6.048 8.504-10.277 14.164-14.73 2.6-2.08 5.028-4.25 7.461-6.52C506.578 191 506.578 191 516 191"/><path fill="#d49277" d="m548 333 4 1a264 264 0 0 1-7.98 7.77c-10.481 9.944-19.222 21.052-23.02 35.23h-1c-.147-4.92.031-9.157 1-14h2l1-2 2 1c.367-2.662.695-5.33 1-8l2-5-.812-3.687L528 342c3.375-1.625 3.375-1.625 7-2l1 3h-5v4l2-1v2h2v-3h2v-2h2v-2h2v-2h2v-2h3z"/><path fill="#dba792" d="m621.938 130.813 5.714.019L632 131v1c-5.21.033-10.415-.07-15.625-.16L612 132v2c-6.075 3.586-12.383 6.507-19.125 8.563C589 144 589 144 586.25 147.125L585 150l3 1v2h-5l-1 3h-2v-2l-3.25 1.438C573 157 573 157 569 156c33.159-25.338 33.159-25.338 52.938-25.187"/><path fill="#d6977d" d="m801 133-4.453-.14-5.797-.11-5.766-.14C780 133 780 133 776 137l2 1h-2v3c-2.937.813-2.937.813-6 1l-1-2-5 3-5 1c-7.053 2.526-7.053 2.526-10 4 3.944-7.888 13.425-11.697 21.063-15.562 8.998-2.96 22.447-3.683 30.937.562"/><path fill="#daaa93" d="M780 171c6.056-.252 12.057-.251 18 1 3 4 3 4 3 6l4 2 1 2 2.938.313L812 183l2 5 1 2-4-2-2.937-1.312C804.71 184.84 802.7 182.7 800 180c-5.876-4.514-9.51-6.904-17-6l-3 1c-2.275 8.5-2.105 16.69-1.875 25.45L778 204h-2c-4.002-8.003-1.292-22.556 1-31h3z"/><path fill="#d2947c" d="m870 415 1 2-2 3h-2v4c-2.781 1.71-2.781 1.71-6.5 3.375-13.995 6.615-13.995 6.615-17.5 13.625h-4l-2 4a127 127 0 0 1-5 7h-2v-2l-5 3c-4.312.688-4.312.688-8 1 3.971-3.971 7.549-6.242 12.375-9.062 7.269-4.37 13.907-9.08 20.488-14.415 10.92-8.784 10.92-8.784 16.137-10.523v-2z"/><path fill="#d5a089" d="M835 202c5.313.398 9.449 2.3 14 5l1 4 5 1 2 4h5v2h4l2 5 5 1 2 2 5 2 3 3 2 1v2l3.563 1 3.437 1-1 2v2c-4.138-2.07-7.56-4.48-11.312-7.187-7.063-5.026-14.229-9.846-21.5-14.563l-2.977-1.93q-2.828-1.834-5.66-3.667c-4.887-3.166-9.746-6.362-14.551-9.653z"/><path fill="#d7a58e" d="M747 148h2c-.125 3.438-.125 3.438-1 7l-4 1c-.392 3.66-.72 7.329-1 11l-3 5c-1.233 10.943-1.326 21.968-1.605 32.97l-.114 3.925-.092 3.557L738 215h-1c-4.925-23.01-2.602-46.904 10-67"/><path fill="#d28f77" d="m945 551 3 1c-1.909 2.409-3.925 4.733-6 7l-3 4h-2l-2 4a103 103 0 0 1-4.375 4.5l-2.336 2.281L926 576l-4 4-2-1 1-5h-2v-3h2v2h5l1-4 1-2-2-1c0-2 0-2 3.063-5.062 4.047-3.02 6.042-3.538 10.937-3.938v-2h2v-2h2z"/><path fill="#d07251" d="M604 286c4 0 4 0 8 1v2l2 1c-2.472 2.045-5.034 3.983-7.625 5.875l-4.414 3.242L598 302l-4 3-2-1 1-5-2-4c2.297-1.08 4.638-2.07 7-3l3-4h3z"/><path fill="#cf7354" d="m919 580 1 2c-1.887 1.777-1.887 1.777-4.687 3.938-5.591 4.405-10.746 9.143-15.88 14.07L897 602l-2-1v-4h3l-.625-3.312L897 590l5-3 1-3c3.563-1.238 3.563-1.238 8-2.312l4.438-1.114z"/><path fill="#d1876c" d="M800 360c4.43 2.215 5.533 3.832 8 8 1.112 3.337 1.203 5.988 1.25 9.5l.078 3.469C809 384 809 384 806 387h-3v2h-3v2h-3v6l-1-3-4-1 2-5h2v-3l4-1 1-3v2l4-1c.819-6.757-.477-10.342-4-16-.75-3.437-.75-3.437-1-6"/><path fill="#daa08a" d="M882 303c4.28 2.568 6.607 4.528 10 8l4.313 3.688L900 318v2h2a105 105 0 0 1 4.375 5.188l2.336 2.917L911 331l2.352 2.738L915 336l-1 2-1.812-2.375L910 333h-4v-2l-3.062.625L900 332l1-4h-2l.125-3.437L899 321l-4-1v-4l-2 5-2-1-.375-3.937L890 312l-4-2-2-4-2-1z"/><path fill="#d18467" d="M815 190h5l2 2 4 1 1 2c5.563.75 5.563.75 11 1v-2l4-2v2l5 2 1 2h-2l1 3-2 1-2-1v3l2 1-4-1-4.437-1.062c-8.025-2.796-15.52-6.895-21.563-12.938"/><path fill="#cf8569" d="m738 215 3 2 .5 5.563.5 5.437 3 1v5l3 1 4 4 3 1 2 5 2 4c1.237 6.525 1.237 6.525 0 9a167 167 0 0 1-7-9l-3-4c-5.585-9.309-10.057-19.108-11-30"/><path fill="#dbaa94" d="M652 381c5 2 5 2 9.688 4.875C680.144 397.008 702.139 399.741 723 395l4 1c-6.365 3.466-12.437 3.423-19.5 3.313l-3.508-.03c-8.446-.127-16.68-.715-24.992-2.283l-5.437-1-3.563-1v-2a192 192 0 0 0-7-2l-4-2-2 5-2-1v-3l2-1 1-4a129 129 0 0 0-6-1z"/><path fill="#d49980" d="M800 359v1c-5.143.21-10.284.32-15.43.426L780 361l-2 4-3 1-1 4h-2l-2 4c-5 3-5 3-10 5l-4 2v-2a1626 1626 0 0 1 6.238-4.66c3.266-2.767 5.907-5.85 8.7-9.09 8.207-9.061 17.724-11.92 29.062-6.25"/><path fill="#d39278" d="M516 604c5 1 5 1 8 4l1 2c2.813 1.25 2.813 1.25 6 2l4-2 4 4 3.313 1 2.687 1-1 4 1 3 3 1v3c-5.11-1-8.505-3.67-12.5-6.875-4.065-3.243-8.137-6.294-12.5-9.125l-3-2v-2l-4-2z"/><path fill="#d5947a" d="M888 603c4 0 4 0 6 1-2.262 2.004-2.262 2.004-5.687 4.563l-3.645 2.734L881 614l-3.074 2.266a757 757 0 0 1-5.48 3.968c-2.177 1.572-4.315 3.197-6.446 4.828L863 627l-3-1 5-3 1-3.125 1-2.875 5-1v-3h3l-2-5 1-2q4.506 1.481 9 3v-2h2v-2h3z"/><path fill="#d3957c" d="M863 172c13.058 5.223 25.965 14.339 37 23l-2 1c-5.125-2.312-5.125-2.312-10-5v-2l-4-1c-3.25-.937-3.25-.937-6-2v-2l-5 1c-4.2-1.81-6.477-3.173-8.937-7.062C863 175 863 175 863 172"/><path fill="#d07350" d="M632 132c5.252.4 9.083 1.743 13.688 4.25l3.324 1.766c3.05 2.026 4.883 4.013 6.988 6.984h-5l-2-3-4 2-3 1-1-1-1 2-4 1v-3a169 169 0 0 0-6-2v-2l4.063-.312L638 139l-1-5-5-1z"/><path fill="#d59b83" d="M516 551c4 2 4 2 8 5v2l4 2a224 224 0 0 1 5.813 4.938c6.252 5.39 12.8 10.207 19.558 14.945L556 582c-3.774 1.887-8.178-.805-12-2h-2v-2h3v-2l-5-2-3-2v-2l-5.5-.812L526 568v-5h-2l-2-4-3-2a100 100 0 0 1-3-6"/><path fill="#dcae9a" d="m856 579 2 1c-2.483 3.82-3.462 4.865-8 6l-1.75 2.813c-3.098 4.388-5.137 5.308-10.25 7.187-5.904.536-11.764.467-17.687.375l-4.823-.004c-11.786-.09-11.786-.09-17.49-2.371v-2h-2a125 125 0 0 1-4-6c2.501 1.25 4.97 2.574 7.375 4 6.908 3.811 12.452 4.32 20.375 4.375l5.672.086c9.616-.795 16.176-4.515 23.578-10.461 2.285-1.732 4.607-3.42 7-5"/><path fill="#d79c83" d="M599 371h1c.228 3.058.451 6.118.621 9.18C601 383 601 383 603 385l-1 2 5 2 2 1 2-4 1 2h2v5h2l-1 3-2-1c1.963 5.166 4.298 8.898 8 13-9.131-4.566-18.447-15.305-22.625-24.625-.476-4.286-.093-8.133.625-12.375"/><path fill="#d8997f" d="M888 377h1l.438 4.875C890 387 890 387 892 389h3c-.182 4.825-.514 6.514-4 10l-3-1-3 4h-2l-2 5-4 2-2.125 3.188L873 415l-2-1c1.633-2.178 3.279-4.347 4.984-6.469 7.823-9.823 10.964-18.083 12.016-30.531"/><path fill="#dbaa95" d="M660 511c11.775 15.7 13.787 37.717 11.574 56.64-.415 2.475-.974 4.924-1.574 7.36h-1c-.156-4.602.092-8.46 1-13 .116-2.602.175-5.208.188-7.812l.042-4.083L670 547h-2a1794 1794 0 0 1-1-11l-2-3-2-8-2-3a285 285 0 0 1-1-11"/><path fill="#d8a38d" d="M629.813 358.813C633 361 633 361 637 365l-1 2-1.687-2.312c-6.178-5.012-14.555-3.865-22.188-3.375L609 362v2h-4v4h-2v2l-3 1c1.184-5.487 2.463-8.598 7-12 8.239-3.252 14.695-4.047 22.813-.187"/><path fill="#d59d86" d="M891 240c3.394.947 5.725 1.767 8.438 4.063 3.164 2.392 5.685 2.48 9.562 2.937v2h2v3h2l1 4c2.726 2.41 5.608 4.518 8.531 6.684C925 265 925 265 926 270a250 250 0 0 1-8-6v-2l-4-2a675 675 0 0 1-6.277-5.633c-4.195-3.647-8.648-6.939-13.098-10.265C892 242 892 242 891 240"/><path fill="#d19780" d="M905 433h4c-4.99 9.978-15.365 17.208-24 24l-2.695 2.316L880 461l-2-1-1-3h4v-2h3v-2h2v-2h3v-6c3.438-.125 3.438-.125 7 0l1-4 4-4h4z"/><path fill="#d28669" d="M634 365c5.653 2.62 9.725 7.587 14 12l4 4c-5-1-5-1-7-3l-2.812 1.125L639 380c-2.937-1.75-2.937-1.75-5-4l1-2h-5v-4h3z"/><path fill="#d08c72" d="M920 402c2 1 2 1 3.563 4.188.749 8.24-3.725 15.003-8.56 21.492-1.582 1.85-3.281 3.598-5.003 5.32h-1v-6l3-2 1-5 3-3h2c-1-5-1-5-2-7h2l-1-4h3z"/><path fill="#d08f78" d="m459 291 3 1c-1.824 3.649-3.815 6.634-6.187 9.938-3.988 5.682-7.343 11.499-10.5 17.675L444 322h-1a97 97 0 0 1-.75-6l-.36-3.375L442 310h3l1-5h3v-2h2l1-4h3l1-5h2z"/><path fill="#d6a793" d="M924 355c7.38 11.07 7.55 26.91 5.387 39.598-.684 2.83-1.526 5.62-2.387 8.402l-1.125 3.75L925 409h-1c-.187-3.5-.187-3.5 0-7h2c.259-2.58.259-2.58.266-6.176l.007-3.951-.023-4.185.023-4.057c-.015-7.834-.73-14.961-2.273-22.631z"/><path fill="#d39a83" d="M645 260c0 3 0 3-2.457 5.82-6.902 6.798-13.906 13.22-21.543 19.18l-2.687 2.309L616 289l-2-1 1-3 4-2v-2l4-2v-2l4 1 1-5 3 1-1-5h5v-5l4 1 1-4z"/><path fill="#d28b71" d="M528 456h2l3 4 3-1v3l4.375-.687L545 461c1.688 2.938 1.688 2.938 2 6h-2v3h2l2 5c-8.415-4.208-15.92-9.844-23-16l2-2z"/><path fill="#d28f77" d="M590 182h2l1 3c3.063.688 3.063.688 6 1-4 4-7.613 6.27-12.5 9.063-4.367 2.503-8.471 4.915-12.5 7.937-2-1-2-1-3.625-4.062L570 196c3.813-.187 3.813-.187 8 0l1-3 5-1 1-2 3.063-1 2.937-1v-2h-2z"/><path fill="#d59378" d="M656 145h2c6.81 8.513 13 18.858 13 30-2-4-2-4-4-9l-5-1v-2l-3.125-.937L656 161l2-3c.339-4.661.129-6.742-2-11z"/><path fill="#d3967f" d="M827 490h3v2l3 1-2.5 1.582c-8.22 5.238-16.25 10.686-24.2 16.328C803 513 803 513 800 513l1-2-1-4c3.438-.125 3.438-.125 7 0v-2l4 1-1-3h4v-3h3l1-3h3v-2h3v-2h3z"/><path fill="#e0b6a3" d="M970 332h2c1.18 4.132 2.068 8.305 3 12.5l1 3.5h2c3.78 11.512 3.454 23.722 3.375 35.688l.035 5.474-.012 5.225-.01 4.725C981 403 981 403 978 407l.5-5.25c1.625-22.037-.535-41.702-7.293-62.75-1.207-4-1.207-4-1.207-7"/><path fill="#d8a895" d="M775 624c3.5.313 3.5.313 7 1v2l3.938.375c5.39.665 9.166 2.354 14.062 4.625 1.994.37 3.993.713 6 1l3 2c3.094.227 3.094.227 6.855.195l4.073-.02 4.26-.05 4.294-.027q5.259-.036 10.518-.098c-14.318 7.159-33.604 2.239-48-2.375-5.891-1.967-11.06-3.806-16-7.625z"/><path fill="#d2937b" d="m439 321 4 1c-.531 2.473-.531 2.473-2 6l-1.656 4.496-3.688 9.875C434 347 434 347 432.906 351.098L432 354h-2c.444-6.18 1.477-12.268 2.5-18.375l.781-4.71C434 327 434 327 435 324l4 2z"/><path fill="#d8aa98" d="M614 630q4-.063 8 0c-13.575 9.05-32.412 9.157-48 7-5.767-1.38-11.43-2.96-17-5v-1c11.342-.493 11.342-.493 16 3 5.255 1.051 9.958 1.133 15.313 1.125l5.488.008L598 635v-1l5.5.063L609 634v-2l5-1z"/><path fill="#d1856a" d="M915 338c6.098 6.098 9.222 13.655 10.125 22.188L925 366l-4 1c-3.288-4.384-3.297-4.991-3-10.125.166-6.14-.971-11.042-3-16.875z"/><path fill="#d29379" d="M764 263h5v2h2l1 3 3 1v2l5-1v3h4l2 1v5c1.5 3.313 1.5 3.313 3 6-9.576-4.788-17.689-13.259-25-21z"/><path fill="#d38568" d="M650 498a278 278 0 0 1 5 5l2.688 2.563c3.345 4.973 3.492 9.508 4.312 15.437l2 4c1.648 4.682 3.026 9.128 4 14l-2-4-4-1v-4h2v-2l-4-1c-2-3-2-3-2-7h2l-1.312-2.562C657 514 657 514 656.688 510.25L656 507c-3.062-1.25-3.062-1.25-6-2v-3l-3-1 3-1z"/><path fill="#d7a68f" d="M494 427h2l1 2 4 1 1 5 5 2a282 282 0 0 1 5 5h2v3l3 1v4l4 1c2.75 3.063 2.75 3.063 5 6-8.834 0-19.396-14.14-25.441-20.078-2.734-3.122-4.738-6.196-6.559-9.922"/><path fill="#d08e73" d="M885 557c0 3 0 3-3 7h2c-1 4-1 4-2 6l2 1-1 2h-2v-3c-4.796-1.2-5.869-.425-10 2l-2 2-4 1-3 4-4-1 2.195-1.793 2.93-2.394 3.047-2.485a296 296 0 0 0 6.203-5.265C875 564 875 564 880 562c2.813-2.625 2.813-2.625 5-5"/><path fill="#daa68d" d="M519 377h1c.281 2.121.523 4.247.75 6.375 1.678 11.864 7.25 19.229 15.117 27.938L538 414l-1 2c-1.997-2.227-3.987-4.461-5.895-6.766C529 407 529 407 525 405l-4-4-1 2-5-1 1-3v2h2v-2h3l-1.312-3.75c-2-6.223-1.983-10.75-1.688-17.25z"/><path fill="#daab94" d="M629 203h1c.592 7.336-.977 12.349-4 19l-1.625 3.625L623 228h-2l-1 5c-3.016 5.027-3.858 5.965-9 8h-3l1-3h2l2-4 3.188-3.375c6.75-8.188 11.004-17.138 12.812-27.625"/><path fill="#d49e88" d="M675 433h5v2c3 .044 6 .04 9 0l4 1c2.534.138 5.072.225 7.61.281l4.472.114 9.383.21 4.457.114 4.112.092c.49.03.49.03 2.966.189v1c-15.34 2.685-38.472 4.035-53-2z"/><path fill="#d5a18a" d="M456 476c3.198 3.198 5.109 6.314 7.438 10.188 4.653 7.574 9.808 14.589 15.289 21.582C481 511 481 511 481 514c-6.875-5.5-6.875-5.5-8-10h-2c-4-5.412-4-5.412-4-8l-4-2a117 117 0 0 1-3-7l-2.187-3.687C456 480 456 480 456 476"/><path fill="#d9a793" d="M934 278h2l3 4 3 1v2l4 1 1 5h2l.875 2.938L951 297l4 1v5h3l1 5h2q.624 3.984 1 8c-3.272-3.272-5.242-6.535-7.625-10.5A145 145 0 0 0 940 286c-6-6.947-6-6.947-6-8"/><path fill="#d1927a" d="M980 403h1c.24 6.492-.057 11.829-2 18l-.437 5-.563 4-3-1-2 4-2 4c-1.696-3.392.17-6.434 1.25-9.937 1.555-5.11 3.086-10.208 4.438-15.375C978 407 978 407 980 403"/><path fill="#d69279" d="M778 205c2.67 5.342 4.924 10.846 7.246 16.348C787 225 787 225 790 228l-1 2-2-2-3 2h-3l-1-5h-3l-1-4 3-1c.074-3.379.074-3.379-.312-7.562l-.364-4.192z"/><path fill="#d6a791" d="m420 491 2 4 2 2v4h3v5h2v2h2c3 5 3 5 5.563 10.313L439 523h2a190 190 0 0 1 3 9c-4.683-4.683-8.182-9.755-11.937-15.187l-2.131-3.042c-3.988-5.743-7.927-11.44-10.932-17.771z"/><path fill="#d29780" d="M751 424c5.563.188 5.563.188 11 1-9.316 6.987-23.324 12-35 12l3-1v-2l4.5-.812L739 432v-5h2v3l2-1 3.563.25L750 429z"/><path fill="#dbad97" d="M509 317h2c-.187 3-.187 3-1 6h-3v2l-5 3c-3.215 3.443-4.94 6.813-6.625 11.188-2.172 5.609-2.172 5.609-4.375 7.812v2c-2.437 2.25-2.437 2.25-5 4l-1-2c1.11-2.645 1.11-2.645 2.75-5.812l1.61-3.145c1.468-2.725 3.048-5.389 4.64-8.043h2l2-4q3.46-4.034 7-8l2.313-3z"/><path fill="#d59278" d="m772 483 2 1-4 4 4 2-3.937 1.375C766 493 766 493 765 495h2l1 3h4l-1 3c-5 1-5 1-8-1v-2c-3.214 1.428-6.073 3.049-9 5 3.968-7.937 10.964-14.687 18-20"/><path fill="#d28467" d="M474 508c7.133 4.302 13.109 9.167 18 16l-1 2-3-3-1 2-5-1-2-4-3-1c-2-3-2-3-3-5h3l-3-4z"/><path fill="#d79f89" d="M596 457c11.14 5.57 22.11 12.417 32 20-2 1-2 1-6.562-.187L617 475l-1-4h-3v-2a359 359 0 0 0-7-1l-4-2v-3l-4-2z"/><path fill="#d29880" d="m806 386 1 2c-1.695 2.426-1.695 2.426-4.125 5.313l-2.383 2.863c-4.747 5.38-9.84 10.397-15.492 14.824l-1-4 5-2v-3h3v-4h-2v-2l3.5.75 3.5.25v-6h3v-2h3v-2z"/><path fill="#d8a28b" d="M564 436c11.209 5.605 21.638 12.974 32 20l-4 1-1-2-3.562-.437L584 454v-3l-4-1v-2l-3.187-.312c-4.566-.824-5.812-2.27-8.813-5.688l-3-2z"/><path fill="#d49178" d="M998 296c3.551 3.551 5.105 6.964 7.25 11.5l2.203 4.594C1009 316 1009 316 1008 319l-3-2v-4h-3l-1 2v-5h-5v-4h3a192 192 0 0 0-2-7z"/><path fill="#d28265" d="m655 229 1 2h2v3l2 1-1.812 3c-2.188 4-2.188 4-2.5 8.375-.942 6.333-3.386 8.946-7.688 13.625l-2-1v-4l4-1a256 256 0 0 0 1-11h2c.293-3.056.576-6.115.754-9.18C654 231 654 231 655 229"/><path fill="#d59f8a" d="M850 279c11.651 5.826 21.868 14.9 32 23-4 1-4 1-6 0v-2l-3-1v-2l-4-1-2-1v-2h-2v-2l-3-1-3-1v-2h-4c-4-4-4-4-5-8"/><path fill="#d4987f" d="M789 285c5.692 1.138 8.9 2.9 13 7h3l1-2 2 4 4 1-1 2a101 101 0 0 0 3 6c-4.163-1.665-6.741-3.076-10.25-5.687l-2.879-2.141L798 293l-2.715-2.047A334 334 0 0 1 789 286z"/><path fill="#d49983" d="M965 526h3c-2.13 5.326-4.678 8.588-8.312 13l-3.426 4.188c-2.647 3.093-5.329 5.994-8.262 8.812.375-2.937.375-2.937 1-6l2-1v-5l3 3 .375-3 .625-3h2v-2h2c.125-3.5.125-3.5 0-7l1 2c3-1 3-1 4-2z"/><path fill="#d39d88" d="M1004 461c1.749 5.247-1.94 10.088-4.187 14.875l-1.502 3.3c-2.373 5.122-4.638 9.498-8.311 13.825-.125-3.5-.125-3.5 0-7h2l.438-3.312C993 479 993 479 996 476l1-3.687 1-3.313h3v-5z"/><path fill="#d9a48e" d="M629 542c2.432 3.648 2.354 5.844 2.563 10.188.112 2.272.248 4.544.437 6.812h1v5l-1 1-.437 3.563L631 572h-2l-1 5-4 4-3-1 2.125-3.312C629.864 565.7 629.375 554.51 629 542"/><path fill="#dcb09d" d="m549 284 2 1c-4.975 6.795-4.975 6.795-11 8l-2 4-2.75 1.313c-4.132 2.145-6.246 5.172-9.25 8.687l-5 2-4 4-2-1c6.478-7.068 14.294-12.95 21.938-18.691 2.8-2.11 5.525-4.291 8.25-6.497z"/><path fill="#d3947b" d="M921 211c3 1.25 3 1.25 6 3v2l4 2c3.21 2.504 6.045 5.175 9 8v3l3 1c-3 1-3 1-6 0l-3-3-3-1v-5a772 772 0 0 0-7-2l-1-5-2-1z"/><path fill="#d69177" d="M556 583c5.168 2.095 9.759 5.347 14.414 8.379C573 593 573 593 577 595l-1 2h-6l-1 1-5 1c-2-5-2-5-2.875-8.687C560 587 560 587 556 585z"/><path fill="#d1927b" d="M871 460q3.518.378 7 1c-3.908 4.127-8.119 7.5-12.687 10.875l-4.012 2.992L858 477l-2-1 1-2-2-1h5v-2h3l1-3h3v-3h-4l1-2h2l2-2 3 1z"/><path fill="#cf8c75" d="M496 257c-5.453 6.987-12.194 12.385-19 18v-5h2l1-3c2-3 2-3 6-4l-1-4c3.929-1.871 6.577-2 11-2"/><path fill="#d49f88" d="M639 421h6l-1 3q4 .062 8 0v2c3.196.852 6.417 1.418 9.668 2.023 3.635 1.066 5.534 2.474 8.332 4.977l3 2c-6.655-.554-12.533-2.883-18.687-5.312l-3.127-1.186c-5.114-2.001-8.248-3.564-12.186-7.502"/><path fill="#d69f87" d="m579 263 2 1c-2.584 4.952-5.058 6.68-10 9-3.317 2.94-4.997 4.994-7 9l-3-1v-2l-4 1c4.091-4.091 8.458-7.432 13.125-10.812l2.496-1.85c2.081-1.51 4.226-2.933 6.379-4.338"/><path fill="#cf9a83" d="M780 171c5-.187 5-.187 10 0v1l-3.812.125L782 173c-5.074 8.347-4.028 17.858-3.84 27.273L778 204h-2c-4.002-8.003-1.292-22.556 1-31h3z"/><path fill="#d7a48f" d="M489 581c4.478 1.25 7.643 2.741 11 6v3h4l2 3 3.5 1.875C513 597 513 597 515 602l1 2c-4.268-2.134-7.169-4.607-10.75-7.75-3.95-3.439-7.85-6.694-12.062-9.812C490 584 490 584 489 581"/><path fill="#d79f86" d="M941 492h1v6l-2 1c-2 5-2 5-1 9l-5 1a228 228 0 0 0-9 7c0-4.02 1.462-5.045 4.063-8.062 3.179-3.767 6.15-7.56 8.937-11.625z"/><path fill="#d89d86" d="M628 478c8.346 4.173 15.8 11.095 22 18l-1 2h-1l-3 1v-3h-2v-4l-3.937-.437L635 491l-1-5-1-3-5-2z"/><path fill="#ce7a5c" d="m810.203 594.637 5.406.002 5.641.048 5.688-.01c10.266.042 10.266.042 14.062.323l1 2c-2.53 2.53-4.539 3.17-8 4l-4-2v-2c-4.765-.526-9.584-.37-14.375-.375l-4.14-.074-3.946-.012-3.65-.025L801 597l-2 4-1-2-2-1c5.576-3.346 7.835-3.375 14.203-3.363"/><path fill="#d89c86" d="m790 230 2.063 2.125A132 132 0 0 0 798.5 238c2.988 2.562 5.72 5.22 8.5 8 2.32 2.016 4.65 4.019 7 6-3 0-3 0-8-1l-1-4c-3.562-2.437-3.562-2.437-7-4v3h-5v-3h3c-.625-3-.625-3-2-6h-3c-.687-3.5-.687-3.5-1-7"/><path fill="#d08b72" d="m978 507 2 4c-2.176 3.672-2.176 3.672-5.312 7.75l-3.114 4.11L969 526h-1c.477-4.055 1.199-7.994 2-12h2l1-5z"/><path fill="#d19984" d="m548 333 4 1-21 21c.313-3.5.313-3.5 1-7h3v-3h2v-2h2v-2h2v-2h2v-2h3z"/><path fill="#d69a82" d="M984 274c3.959 3.705 6.93 7.577 9.875 12.125l2.43 3.695L998 293l-1 3h-3c-2-3-2-3-2-9l-5-1-3-1 2-4c-.875-3.75-.875-3.75-2-7"/><path fill="#d49c88" d="m919 580 1 2c-1.887 1.777-1.887 1.777-4.687 3.938-5.591 4.405-10.746 9.143-15.88 14.07L897 602l-2-1v-4h3v-2l5-1v-3h2v-2h4v-4h4v-3c2.938-1.312 2.938-1.312 6-2"/><path fill="#ddaf9b" d="M968 440c2.02 6.059-1.997 13.165-4 19l-1 2h-2l-.437 4.063L960 469l-3-1v3h-2l-1 5h-2c1.242-5.118 3.785-9.478 6.313-14.062 3.86-7.174 6.955-14.27 9.687-21.938"/><path fill="#d9ab97" d="m1015 422 2 1c-.742 12.835-5.745 26.321-11 38h-1c.727-9.455.727-9.455 2-12h2c.816-3 .816-3 1.563-7l.78-4.129c.496-2.922.884-5.863 1.22-8.808L1013 426h2z"/><path fill="#d58c73" d="m615 512 3 3 2-3 3 1 1 3h-4c.688 4.25.688 4.25 2 9l1 4-5-5-2.113-2.078A570 570 0 0 1 610 516v-1h5z"/><path fill="#d3937b" d="M621 408c6.75.875 6.75.875 9 2v-2h2c1 3 1 3 0 6 5 1 5 1 8 1 0 3.125 0 3.125-1 6-4.523-1.81-7.42-3.595-11.25-6.5l-3.203-2.406C622 410 622 410 621 408"/><path fill="#d3977f" d="M834 317a162 162 0 0 1 9 0l2 2 4 2-2 2c3 3 3 3 5 4a134 134 0 0 1 3 6c-3.941-1.97-7.02-4.186-10.5-6.875l-3.406-2.617C838 321 838 321 834 317"/><path fill="#cb8a70" d="m623 529 4 1v2h2l1 6h2c.914 4.568 1.166 8.487 1.188 13.125l.042 4.258C633 559 633 559 631 562l-.148-4.375-.227-5.625c-.07-1.856-.14-3.712-.21-5.625-.138-1.444-.274-2.888-.415-4.375h-2c-1.838-4.288-3.525-8.574-5-13"/><path fill="#d39981" d="M609 289h5c-4.697 5.183-10.336 8.965-16 13l-4 3-2-1v-3h4a169 169 0 0 0 2-6h3l1-4v2c5-2 5-2 7-4"/><path fill="#d19077" d="m759 609 4 2h6l1 4h3c.625 3.375.625 3.375 1 7l1 2c-6.894-3.447-12.023-7.372-16-14z"/><path fill="#daac95" d="m607 241 1 2-3 2-3 5c-2.629 2.457-2.629 2.457-5.562 4.813l-2.942 2.394C591 259 591 259 589 259v2a140 140 0 0 1-8 2c3.707-3.868 7.635-7.167 11.875-10.437 3.926-3.04 7.715-6.085 11.438-9.375z"/><path fill="#d19077" d="m555 211 1 3a173 173 0 0 1-10 7l-3.5 2.5-2.5 1.5-2-1 1-4q2.992-.55 6-1v-3h-3v-2l4-1v2l5-1v-2c2-1 2-1 4-1"/><path fill="#d0937c" d="M585 304h6v3c-2.125 1.648-2.125 1.648-5 3.375-3.632 2.191-7.126 4.401-10.625 6.813L572 319l-1-4h2v-2h2v-2l4.063-.437L583 310l-1-3h5v-2z"/><path fill="#d5896d" d="M492 526c4.063 2.99 7.434 6.434 11 10l-1 2-4-4 .625 2.875L499 540l-2 2h-3v-2h-2c.476-5.476.476-5.476 3-8l-4-1z"/><path fill="#d59d85" d="M549 475c6.472.227 10.055 1.863 15 6l1 2 5 2 2 5c-5.343-2.137-9.537-4.86-14.312-8.062l-4.926-3.286L549 476z"/><path fill="#d59176" d="M901 323c5.155 2.062 6.519 3.318 9.875 7.5l2.43 2.969L915 336l-1 2-1.812-2.375L910 333h-4v-2l-3.062.625L900 332l1-4h-2z"/><path fill="#d8aa94" d="m738 215 3 2 .5 5.563.5 5.437 3 1v5l3 1a150 150 0 0 1 1 6l2 1 2 4-1 3c-7.411-9.942-12.923-21.56-14-34"/><path fill="#d28e74" d="m586 145 2 1-3 4 3 1v2h-5l-1 3h-2v-2l-3.25 1.438C573 157 573 157 569 156q2.837-2.196 5.688-4.375l3.199-2.46C581 147 581 147 586 145"/><path fill="#daa48e" d="M632 132c5.252.4 9.083 1.743 13.688 4.25l3.324 1.766c3.05 2.026 4.883 4.013 6.988 6.984h-5l-1-4c-3.105-.754-6.13-.948-9.312-1.215L638 139l-1-5-5-1z"/><path fill="#deb29e" d="M484 353h1c.566 7.212-.879 14.13-3 21l-2 2c-.379 3.04-.379 3.04-.562 6.625-.114 2.127-.25 4.253-.438 6.375h-1c-1.032-12.875 1.235-24.087 6-36"/><path fill="#deb4a0" d="M548 170v3l-7 3v3c-2.291 1.093-4.64 2.063-7 3q-3.108 1.471-6.187 3l-3.043 1.5C522 188 522 188 518 191l-2-1c6.657-4.993 13.686-9.418 20.703-13.887a241 241 0 0 0 6.594-4.383C546 170 546 170 548 170"/><path fill="#d9a690" d="M753 503c1 2 1 2 .25 4.875C752 511 752 511 749 515l-1 3-2 1-.875 3.875C744 527 744 527 740 530c.556-5.302 2.412-9.328 4.813-14.062l2.082-4.16c1.815-3.258 3.525-6.086 6.105-8.778"/><path fill="#d9a994" d="m754 381 2 1-3 2-1 3h-2l-1 3h-4v2c-5.927 1.866-11.825 2.485-18 3 5.213-2.607 10.583-4.797 15.957-7.05C747 386 747 386 750.887 383.206z"/><path fill="#d8a18b" d="M409 296c1.6 3.198.025 5.696-1 9l-1 4a194 194 0 0 1-2.375 6.375l-1.273 3.336L402 321l-3-2c1.031-5.156 2.739-9.017 5-13.75l2.188-4.61C408 297 408 297 409 296"/><path fill="#ce8468" d="M926 270h6l1 5 4 1 3 3v-2l-2-1 4 1 2 6 2 1-2 2-2-1v-2l-4-1-2-4-4-1c-2.071-2.27-4.08-4.6-6-7"/><path fill="#cc7e61" d="M515 313c0 5 0 5-3 9l3 2h-4v3h-4v3h-5l-3 4-2-1c3.188-4.062 3.188-4.062 7-8h3v-2h3q.516-3.998 1-8c3-2 3-2 4-2"/><path fill="#d3927a" d="M665 584c1 3 1 3-.582 6.46l-2.23 3.915-2.208 3.96L658 601c-2-3-2-3-2-5l-3-1 1-3 3-1v2h2v-4h2l2-4 1 1z"/><path fill="#e0b6a1" d="m870 415 1 2-2 3h-2v4c-2.781 1.71-2.781 1.71-6.5 3.375-5.737 2.683-10.47 5.755-15.5 9.625l-2-1c16.038-13.68 16.038-13.68 23-16v-2z"/><path fill="#daab95" d="M800 359v1c-5.534.17-11.065.256-16.602.328-5.635.701-7.595 1.596-11.398 5.672 2.62-5.242 4.106-6.662 9.625-8.75 7.003-1.629 11.931-1.472 18.375 1.75"/><path fill="#d2937c" d="M470 274c3.188.688 3.188.688 6 2-2.39 3.983-4.546 6.928-7.625 10.313l-2.414 2.675L464 291h-1v-6h2v-2h2l-1-4 5-1z"/><path fill="#e0af9b" d="m785 523 3 1c-1 4-1 4-3.375 8.188-4.732 8.676-6.011 16.094-6.414 25.847L778 561h-1c-.103-2.52-.13-5.041-.125-7.562l-.008-4.254c.122-3.829.354-7.433 1.133-11.184h2q.506-5 1-10l2-1 1 2 .313-3.062z"/><path fill="#d38a70" d="M883 364c3.25-.75 3.25-.75 7 0l1 3h2l1 3-1 2h-2q-.063 4.5 0 9h-1l.063-5.5L890 370h-2c-.125 3.5-.125 3.5 0 7-2.17-4.339-3.953-8.251-5-13"/><path fill="#d9a691" d="M620 581c0 3 0 3-1 6h-2l-1 4-4 1-3 3c-5.187.188-5.187.188-10 0 3-2 3-2 7.375-3.812 4.327-2.047 6.493-3.698 9.625-7.188z"/><path fill="#daa68f" d="m895 546 4 1-3.25 3.188C892 554 892 554 889.813 556.938L888 559h-4a283 283 0 0 0-5 5l-2-1c5.014-5.386 10.426-10.195 16-15z"/><path fill="#d8a893" d="m815 454 2 1c-2.187 2.563-2.187 2.563-5 5h-3l-2 5a228 228 0 0 1-10 3l-2 3-4-1c2.934-2.555 5.764-4.422 9.188-6.312a99 99 0 0 0 10.25-6.563z"/><path fill="#ddb29d" d="M398 319c1.963 7.852-.581 15.866-4 23l-1 4h-2a330 330 0 0 0-1 9h-1c.4-7.775 2.141-14.592 4.5-21.937l.973-3.112A639 639 0 0 1 398 319"/><path fill="#d7a28e" d="M900 196c4.473 1.789 7.287 3.502 11.063 6.375l3.097 2.336C917 207 917 207 921 211h-5v-2h-3v-3l-5-1v-2l-2.875-.437L902 202c-2-3-2-3-2-6"/><path fill="#d39b83" d="M411 474c5.148 5.148 6.795 9.972 8 17l-1 3a1130 1130 0 0 1-3.937-6.687l-2.215-3.762C410 480 410 480 409 475z"/><path fill="#ddaf9a" d="m469 558 4 2v2h2v2h2l1.063 2.938c2.67 5.598 6.43 8.816 10.937 13.062-3 0-3 0-7.25-4-5.236-5.415-10.228-10.97-14.75-17z"/></svg>