<svg xmlns="http://www.w3.org/2000/svg" width="1408" height="768"><path fill="#cf7656" d="M700 180c-3.764 2.823-7.204 4.618-11.437 6.625-9.369 4.625-17.868 9.969-25.563 17.063-6.47 4.286-12.924 5.748-20.383 7.73-26.847 7.561-52.413 22.378-72.18 42.144L568 256h-2l-2 4-7 7c-31.79 39.398-46.808 87.956-41.687 138.418 4.25 34.51 17.792 68.823 41.312 94.832C560 504 560 504 560 506h2q2.432 2.788 4.84 5.598C588.44 535.62 621.447 554.72 654 557c24.63.223 46.552-8.402 64.402-25.25 20.275-21.464 26.656-52.895 27.785-81.5-.785-21.993-6.18-38.067-22.125-53.453-4.205-3.841-8.525-7.35-13.062-10.797l-3.437-3.562L704 381c-4.281 2.297-7.53 5.64-11 9l-6.187 5.5c-14.678 13.69-23.03 28.04-24.063 48.438.215 17.58 5.977 32.963 18.563 45.312C691.787 497.061 702.1 499.484 715 499l5.688-.875L725 498c-.049 4.676-1.89 8.061-4.25 12l-1.766 3-1.984 3-2.035 3.34c-4.351 3.904-8.606 3.432-14.153 3.222l-3.246-.07A145.6 145.6 0 0 1 670 519l-4.3-.926c-37.342-9.144-68.28-34.506-88.388-66.761-17.859-31.855-21.863-68.278-12.562-103.438 6.033-19.609 15.17-36.149 28.25-51.875l2.188-2.656c1.547-1.831 3.17-3.597 4.812-5.344h2v-2c26.815-25 26.815-25 38-25l.844-3.922C644.019 243.133 652.952 230.826 662 220l1.969-2.578c15.265-18.201 40.415-29.15 63.476-32.14 39.859-3.154 79.727 12.368 110.555 37.405q2.505 2.15 5 4.313 2.964 2.413 5.938 4.813c3.24 2.62 6.098 5.223 9.062 8.187v2h2c2.42 2.618 4.72 5.263 7 8l2.11 2.488c35.065 41.968 52.597 96.229 48.202 150.825C912.163 450.347 893.588 492.62 861 527l-2.852 3.047C825.205 564.217 776.703 587.413 729 589c-23.418.42-23.418.42-34-1l1-3c2.79-1.19 5.584-2.37 8.402-3.488 8.2-3.445 16.17-7.268 22.723-13.324 6.582-4.304 12.606-4.562 20.328-5.465C762.89 560.71 776.915 555.453 791 549l3.777-1.719C822.517 534.051 848.756 511.12 865 485l1-4c-2.352-2.098-2.352-2.098-5.625-4.062l-3.227-2.036L854 474c-2.61 1.938-2.61 1.938-5 5l-2.29 2.91-2.335 3.152A208 208 0 0 1 821 511h-2c-.592 3.21-.9 6.423-1.242 9.668-1.114 4.899-3.368 7.416-7.508 10.144-5.113 1.869-9.304 1.875-14.437.063-5.111-3.407-7.45-6.262-8.813-12.312 0-6.368 1.347-9.753 5.625-14.438C798.435 500.466 804.29 501 811 501c28.395-18.96 44.606-57.819 51.176-89.707 1.766-10.195 1.766-10.195 1.824-14.293l-4-2c-3.984-5.312-4.484-8.424-4-15 2.44-5.857 5.143-8.56 11-11 5.587-.602 9.306-.13 14 3 3.678 3.433 4.885 5.492 6 10.438 0 4.853-.553 7.403-3 11.562-4.205 4-4.205 4-7 4-.166 1.995-.224 3.998-.25 6-.956 17.718-6.267 37.958-15.937 52.938L860 461c3.718 3.906 7.648 6.995 13 8 20.965-24.865 23.121-70.977 20.504-101.852C890.388 342.253 882.742 319.131 871 297l-1.523-3.016c-3.752-7.254-8.45-13.567-13.477-19.984l-3.562-4.75C835.885 248.777 835.885 248.777 827 247c-3.452 2.588-5.39 5.475-8 9 2.302 4.603 5.122 6.696 9 10v2h2c2.449 2.605 4.728 5.243 7 8l2.52 3.016c8.057 9.912 15.799 20.656 20.984 32.386 2.47 4.289 7.02 4.885 11.496 6.598 3.932 3.932 4.91 6.756 5.313 12.313-.417 6.254-2.319 8.93-6.938 13-4.29 3.048-7.067 3.142-12.375 2.687-4.257-2.098-7.158-3.868-10-7.687-1.65-5.463-2.08-11.005.375-16.25 1.485-7.278-6.644-16.073-10.5-21.938A428 428 0 0 0 833 293l-2.055-3.008L829 288c-4.671 1.168-5.204 2.303-8 6l-3 2c1.122 4.49 2.786 6.637 5.563 10.313 12.253 16.949 19.99 36.03 23.437 56.687l.555 3.02c1.84 16.448 1.399 33.912-2.555 49.98l-.914 3.934c-8.5 34.31-31.811 63.58-61.746 81.921-6.564 3.732-12.841 7.065-20.028 9.395-6.589 3.41-7.7 6.34-10.566 12.934-10.99 24.02-33.83 40.5-57.746 49.816-29.291 10.64-59.734 6.968-87.635-5.874-9.29-4.379-18.11-8.966-26.365-15.126l-2.852-2.035C530.088 516.757 501.292 468.185 492 411c-6.383-49.762 5.567-102.153 35-143l2.11-2.973c6.85-9.413 14.662-17.813 22.89-26.027l2.078-2.219C591.178 197.813 646.993 178.308 700 180m-10 44v2l-5 2c-10.95 9.671-20.925 24.859-23.625 39.355-1.136 5.61-1.946 8.663-6.797 11.997-4.142 2.024-8.34 3.837-12.578 5.648-26.632 14.887-45.831 38.965-55 68v4c2.938 2.262 2.938 2.262 7 4.688l4.422 2.652c42.229 24.537 42.229 24.537 65.613 19.851C677.68 380.045 689.175 372.075 700 363l3-2c4.445 1.111 6.084 2.53 9.563 5.438C729.266 379.53 746.657 386.95 768 385c13.403-2.583 25.371-10.15 37-17l5-2.91 4.438-2.777 3.933-2.45C821 357 821 357 821.137 352.723c-7.157-29.732-29.626-52.776-54.887-68.41-25.303-14.248-55.896-18.928-84.41-13.75C679 271 679 271 673 271c.586-3.035.586-3.035 2.375-7.062l1.71-3.973c1.827-3.783 3.652-7.426 5.915-10.965 26.877-8.959 63.06 1.664 87.488 13.102 11.515 5.887 22.173 12.738 31.637 21.586L806 287c5.367-1.342 8.033-4.228 12-8l1-3c-15.639-17.468-40.395-31.838-63-38-6 0-6 0-10 3-4.915 1.638-9.33 1.546-14.25-.062-3.64-2.565-5.007-4.848-6.75-8.938-.599-5.558-.17-9.35 3-14 3.886-3.692 6.065-4.006 11.5-4.5 5.479.498 7.591.782 11.5 4.5l1.52 3.406c3.476 5.037 6.954 5.693 12.73 7.531q2.99 1.002 5.973 2.024l2.973 1.018c8.896 3.238 17.148 7.827 24.991 13.083C804 248 804 248 809 247c2.492-1.96 2.492-1.96 4.875-4.375l2.43-2.398L818 238c-2.784-8.352-19.646-14.172-27.258-18.152C758.084 203.723 720.266 201.3 690 224M583 374c-.323 3.548-.423 6.886-.375 10.438l.03 3.2c.619 31.506 14.853 58.048 36.908 79.901 6.52 6.122 13.523 12.218 21.437 16.461l2-2a1087 1087 0 0 0-5.637-6.844c-11.288-15.075-15.352-33.495-18.489-51.67-3.594-20.267-11.536-33.423-28.249-45.423C586 375 586 375 583 374m240 1c-15.359 8.51-25.902 22.382-31 39-.978 4.391-1.712 8.81-2.437 13.25-3.616 20.54-9.896 38.642-23.563 54.75v2c22.145-8.858 40.01-30.265 49.617-51.59 7.38-17.788 12.507-36.978 10.383-56.41z"/><path fill="#cf7a5b" d="M651 342c4.954 2.123 8.012 4.518 11 9 1.884 5.651 1.752 11.743-.125 17.375-3.6 5.041-7.744 8.423-13.875 9.625-6.23-.173-10.193-.976-15-5-5.242-5.809-5.375-10.214-5-18 1.832-5.605 5.422-8.421 10-12 4.07-2.035 8.585-1.237 13-1"/><path fill="#ce7453" d="M769 342c5.474 2.26 8.147 4.842 11 10 1.94 5.82 1.752 11.273-.687 16.875-3.674 4.964-7.208 7.834-13.313 9.125-6.23-.173-10.193-.976-15-5-4.084-4.526-4.943-7.05-5.312-13.25.317-5.85.709-8.246 4.312-12.75 6.26-5.161 10.997-5.828 19-5"/><path fill="#ce7150" d="m830 532 1 3 3 1 1 4 1-2h4l1-4 2 4-2 1v2h-2v2h-2v2h-2v2l-2 2h-4l-.187 2.625c-.813 3.375-.813 3.375-5 6.813C819 561 819 561 815.438 561L813 560v-2l-4 1-2-2-5 1h-2c-.324-4.3-.431-6.353 2-10l3.125-.5L808 547v-3a136 136 0 0 1 6-5l4-4 5 1 1 2v-4c3-2 3-2 6-2"/><path fill="#cf7150" d="M811 504h5v2l3 1v2l-4 3c-.328 3.355-.328 3.355-.25 7.188-.14 3.812-.14 3.812-.75 6.812-4 .688-4 .688-8 0l-1 3c-4.5.375-4.5.375-9 0l-1-3-4-1-1-2h-2c-1.23-6.34-1.424-8.294 2-14h3l1-3c3.934-1.05 5.985-1.004 10 0v2c3.5-.75 3.5-.75 7-2zm5-257v3h2v-2l2 1c-1.062 3.125-1.062 3.125-3 6l-5-1v4l3-1 1 3 5 1c2.125 2.875 2.125 2.875 4 6l3 3 1 5h4c1.438 2.875 1.438 2.875 2 6l-3 2 2 1v2l-3.312-.187L827 286l-3 5c-2.437 2.438-2.437 2.438-5 4l-4-2 1 4-2 1a506 506 0 0 1-2-6h-2c.092-3.962.812-5.766 3.313-8.875C816 281 816 281 820 281l1-3h2v-2h-2l-.375-3.062L820 270l-4 1-2-2-4-2c-2.5-3.5-2.5-3.5-4-7l4-2v-2h-4l-1-3 1-2 4-1 1-2c3-1 3-1 5-1"/><path fill="#d18265" d="m814 536 2 1c-2.75 3.563-2.75 3.563-6 7h-2v3l-2.875.625L802 549c-1.375 4.625-1.375 4.625-2 9l4-2v2l4-2 2 2h3v2l4 1c-15.36 13.639-47.694 25-68 25l1-2h8v-2l8-1v-2c5.899-3.244 10.521-4.877 17.25-5.437L788 573v-2c5-2 5-2 10-2l-4-2v-3h4c1.02-4.702 1.025-9.299 0-14-3.937-.562-3.937-.562-8 1l-1 3c-5.521 3.054-10.767 3.573-17 4 2.615-2.615 5.16-3.32 8.625-4.625 10.346-4.063 20.577-8.602 29.75-14.937z"/><path fill="#ce6f4e" d="M798 550a161 161 0 0 1 0 11l2 1h-2v2h-4l2 4 3 1c-2 1-2 1-6.625 1.438L788 571v2c-4.747 1.124-9.114 2-14 2v-5l-4-2 1-3h2v-3c-3.5-.687-3.5-.687-7-1 3.235-2.157 5.471-2.66 9.25-3.437 4.863-1.075 9.305-2.24 13.75-4.563l1-2c3-1 3-1 8-1"/><path fill="#d4876b" d="m752 220 2.07 2.352c3.276 2.96 5.59 3.817 9.805 5.023 8.095 2.517 15.548 5.845 23.125 9.625 1.152.565 2.305 1.13 3.492 1.71 2.566 1.313 5.052 2.781 7.508 4.29l-3 2-5-2-1 2-2-2h2l-1-4c-3.375-.187-3.375-.187-7 0l-3-1v2l4 1-5 2 2 2h2l1 4c-5.701-1.808-11.09-4.162-16.562-6.562C759.778 240.07 756.27 239 750 239l-4 3h-3v-3c4-3 4-3 8.75-3.5l4.25-.5v-3h3v-2l7 1v-2h-6v-2h-6l-3-3z"/><path fill="#cf7f62" d="M827 489v3l-4 1 1 4-2 4h3l4 2c-3.625 4.125-3.625 4.125-8 8h-2c-.592 3.21-.9 6.423-1.242 9.668-1.114 4.899-3.368 7.416-7.508 10.144-5.165 1.888-9.361 1.914-14.5-.062C793 529 793 529 789 525l1-5h1v5l5 1v3c4.438-.187 4.438-.187 9-1l1-2 3.5.188L813 525c.72-3.347.813-6.478.832-9.898C814 512 814 512 816 509h3l-3-3v-2h-5v2c-3 2-3 2-7 2v-2c-3.812-.312-3.812-.312-8 0l-3 3-4 1c2.084-4.168 3.106-5.597 7-8 5.101-.862 9.816-1 15-1 2.563-1.863 2.563-1.863 5-4.312 3.416-3.4 6.443-5.96 11-7.688"/><path fill="#d38d74" d="m688.5 179.938 3.36.013q4.07.02 8.14.049c-3.764 2.823-7.204 4.618-11.437 6.625-9.369 4.625-17.868 9.969-25.563 17.063-9.153 6.064-20.315 8.175-31 10.312l1-3h3v-2c4.456-2.865 6.9-3.093 12-2v-2l5.5.125L659 205v-4h2v-2h2l-1-3 5 1v-3h4v-3h2c.813-3 .813-3 1-6-3 0-3 0-5 1-3.315.07-6.618-.003-9.934-.062C656 186 656 186 653 187c-3 .04-6 .043-9 0 4.59-2.295 8.714-3.08 13.75-4.062l5.234-1.036c8.622-1.55 16.782-2.032 25.516-1.964"/><path fill="#d38a6f" d="m816 338 3 1c1.133 3.238 1.133 3.238 2.125 7.313l1.008 4.05L823 354l1 4c-2.238 1.781-2.238 1.781-5.312 3.5-5.482 3.088-5.482 3.088-7.688 7.5 3.272 3.02 5.433 3.945 9.875 4.375L824 373v-2l3 1c.356 2.988.356 2.988.328 6.957l-.015 4.31-.063 4.546-.016 4.51c-.08 11.06-.08 11.06-1.234 15.677h-2l-1 3 .438-3.34c.994-8.13 1.775-16.218 2-24.41l.12-4.36L825 376c-8.556 3.422-14.625 9.492-21 16h-1c-.687-4-.687-4-1-8h3l3-2v-2h2v-4h-4v-5h-4v3c-8.273 2.364-8.273 2.364-11 1l3.297-1.906q4.571-2.664 9.117-5.371a335 335 0 0 1 8.422-4.852c3.032-1.782 5.665-3.396 8.164-5.871.587-6.127-1.47-10.501-4-16z"/><path fill="#d38f76" d="M747 252v1l-3.937.375L739 254l-1 3c-3.5-.062-3.5-.062-7-1l-1-4h3v-2l-5 1-5-1c-5.573-.153-11.018.054-16.562.563L701 251l-1-1c-4.911-.242-7.539-.23-12 2h-5c-1.087 2.717-2.14 5.453-3 8.25-1 2.75-1 2.75-3 3.75l-1 5a108 108 0 0 0 6.48-1.361c7.743-1.405 15.739-.923 23.582-.889l5.475-.023 5.186.007 4.742.007L725 267l1 2 5.5 1 5.5 1 1 2c-7.335-.88-7.335-.88-10.84-1.512-14.83-2.534-30.411-2.646-45.222.075-6.481.965-6.481.965-9.938.437.614-8.354 6.342-17.215 11-24 18.965-6.322 45.534-1.59 64 4"/><path fill="#ce6e4d" d="M826 354h2c-1 5-1 5-2 8h-2v2l4-1c1.125 3.438 1.125 3.438 2 7h2c.15 4.177-.009 8.322-.125 12.5L832 386h2v2h-2v6h2v2h-2v2h-2v2h2v2l-3 1-2 2-.06-3.013c-.095-4.475-.205-8.95-.315-13.425-.03-1.565-.062-3.13-.094-4.744l-.117-4.502-.095-4.173L826 372l-2-1v2c-4.789 1.466-6.615 1.198-11.125-1.125L810 369c3.557-5.929 7.108-7.57 13-11l2-3z"/><path fill="#d07455" d="m696 548 2 1-5 5v3l3 1v2h2l.313 2.938L699 566l5 1-1-2 6 1c-3.262 3.262-5.696 4.442-10 6h-5v-2l-3.187 1.375C687 573 687 573 682 573v-5h2v4h2c-.023-3.027-.023-3.027-.375-6.937l-.336-3.903L685 558v-1c-5 1-5 1-6 2-2.014.1-4.03.13-6.047.133l-3.75.004-3.953-.012-3.906.012-3.766-.004-3.456-.004C651 559 651 559 646 558v-1c2.292.006 4.584.058 6.875.125 14.244.05 26.926-2.542 40.063-8.016z"/><path fill="#d17859" d="M878.188 370.125c5.11 3.407 7.448 6.262 8.812 12.313 0 4.853-.553 7.403-3 11.562-4.205 4-4.205 4-7 4a196 196 0 0 0 0 7h-1c-.552-3.376-.97-6.763-1.402-10.156L874 392h-2v-2h6v-6h2v-2h-2l.375-3.375L878 375c-4.19-1.606-7.525-2-12-2l2 1v2h-4v4l-5-1c-1.25 4.438-1.25 4.438-2 9h-1c-.549-6.254.219-9.958 4-15 5.941-4.456 11.143-5.361 18.188-2.875"/><path fill="#d58a6f" d="M762 562c-7.73 1.869-15.336 3.449-23.223 4.473C736 567 736 567 732 569l-1 3 3 1v6l-1 1h-5v-2h-2l-1 2-2-2-5 3v-2c-4.391 1.796-6.555 3.555-10 7 2.937 2.937 12.657 1.562 16.66 1.719L729 588v1c-11.29.362-22.79.504-34-1l1-3c2.79-1.19 5.584-2.37 8.402-3.488 8.2-3.445 16.17-7.268 22.723-13.324 7.869-5.145 16.679-5.208 25.875-6.188 5-1 5-1 9 0"/><path fill="#cd6e4e" d="M623 555c3.25.25 3.25.25 7 1l5-1v2c3.666.044 7.334.04 11 0l5 1c4.685.221 9.372.185 14.063.188l3.876.037 3.721.005 3.395.013C679 558 679 558 683 556l4 1-2 1-.5 4.125L684 566l-2-1v-5c-4.937.563-4.937.563-10 2l-1 2h-7v2h-2v-3l-3.5.5-3.5.5v-3h-2l-1 5h-2v-3l-5 1h-3v-4c-2.625-.32-2.625-.32-6-.125-1.998.106-4 .167-6 .125v-2h-2v2h-6z"/><path fill="#cc6e4d" d="M494 354h1l-.062 5.438L495 365l2 1 1 4-1 1a403 403 0 0 0-.125 11.813l-.012 3.294c.009 7.35.266 14.59 1.137 21.893h2v4h2v4l-2 1v9l-2-1a109 109 0 0 1-1-7l-2 2c-4.775-9.55-2.15-25.83-2.125-36.25l-.012-5.008c.007-8.306.08-16.496 1.137-24.742"/><path fill="#ce6f4d" d="m700 547 1 2 5-2c.188 4.313.188 4.313 0 9l2 1 2 2 3 1v3h-5l1 3h-5l1 2c-3.5-.625-3.5-.625-7-2v-6h-2v-2l-4-1c1.141-4.565 2.576-5.91 6-9z"/><path fill="#d58c70" d="M774 454h2q.062 4 0 8l1 1 1-8 1 2 3-1c-3.027 10.861-9.17 19.172-16 28l2.957-1.969 3.856-2.531 3.832-2.531C780 475 780 475 783 475c-1.625 2.938-1.625 2.938-4 6-3.125.688-3.125.688-6 1l-2 3c-3.437 1.125-3.437 1.125-7 2l-3 1v-6h2v-2h2v-2h2v-3h2l-.5-3.5-.5-3.5h2v-6h2v-2h2z"/><path fill="#cc6e4d" d="m863 414 2 2 2-1 2 1 1 4h-2c.235 2.651.476 5.302.758 7.95.332 4.179.13 7.954-.758 12.05l-4-1-1 3h-4c-1.437-2.375-1.437-2.375-2-6 1.25-4.937 1.25-4.937 3-10 1.186-4.018 2.177-7.884 3-12"/><path fill="#d3896f" d="M875 406h1c.59 6.669-1.222 12.854-2.875 19.25l-.816 3.297c-2.044 8.056-2.044 8.056-4.309 11.453q-.04-4.875-.062-9.75l-.036-5.484C868 420 868 420 869 416h-3c-3.41 3.41-3.815 5.418-5 10l-2 5c-1.483-4.448.042-7.535 1.313-12l1.363-4.875C863 410 863 410 865 407l5 1v4h2l1-3z"/><path fill="#d8957b" d="M817 238c0 3 0 3-3.937 7.063L809 249l-1 2h-2v5h4v2l-3 3c1.75 2.5 1.75 2.5 4 5l1 3c-3.877-1.939-7.014-4.124-10.5-6.687-4.676-3.382-9.367-6.508-14.375-9.375L782 250v-1c4.438-.75 4.438-.75 9-1l1 3 4-3c1 3 1 3 0 6l3 1v2c2-1 2-1 4-5h2v-4l5-3a276 276 0 0 0 7-7"/><path fill="#cd6f4e" d="m838 292 2 1v3h2v-2h6c5 8.478 5 8.478 5 12h2c.875 2.875.875 2.875 1 6-4 2-4 2-8 1a506 506 0 0 1-2-6l-4-2-1-5-2-2-3-4z"/><path fill="#d39077" d="M797 567q4.5-.125 9 0c-14.275 10.706-39.096 19-57 19l1-2h8v-2l8-1v-2c5.899-3.244 10.521-4.877 17.25-5.437L788 573v-2c5-2 5-2 10-2z"/><path fill="#d2896f" d="M830 452c-5.96 14.898-19.196 29.508-32 39l-2-1v-6l5 1-1-4h5c.688-2.875.688-2.875 1-6l2-2h5v-4l4-2 2-4 1-2h3v-4h2v-4c2-1 2-1 5-1"/><path fill="#cb6e4e" d="m571 344 1 2h4v2h-2l-1 3-1 3h-2v-2h-2c-.25 4-.25 4 0 8h2c0 4.886-.876 9.253-2 14h-2v-2h-2c-.379 2.844-.379 2.844-.562 6.5-.114 2.169-.25 4.337-.438 6.5h-1c-.102-2.873-.13-5.75-.125-8.625l-.008-4.852c.107-3.653.229-6.985 1.133-10.523h2c.044-3.333.04-6.667 0-10 1-4 1-4 6-7"/><path fill="#d1957e" d="M681 251c1 2 1 2-.312 7.063C679 263 679 263 677 264l-1 5a108 108 0 0 0 6.48-1.361c7.743-1.405 15.739-.923 23.582-.889l5.475-.023 5.186.007 4.742.007L725 267l1 2 5.5 1 5.5 1 1 2c-7.335-.88-7.335-.88-10.84-1.512-14.83-2.534-30.411-2.646-45.222.075-6.53.972-6.53.972-9.938.437.27-2.816.27-2.816 1.813-6.562l1.562-3.856c1.668-3.677 3.44-7.183 5.625-10.582"/><path fill="#d6947c" d="M878.188 370.125c5.11 3.407 7.448 6.262 8.812 12.313 0 4.727-.8 7.427-3 11.562l-1-4h2c-.212-6.055-1.841-9.905-5-15v-2c-3.062-.195-3.062-.195-7-.125l-3.937.055L866 373l2 1v2h-4v4l-5-1c-1.25 4.438-1.25 4.438-2 9h-1c-.549-6.254.219-9.958 4-15 5.941-4.456 11.143-5.361 18.188-2.875"/><path fill="#ce7150" d="M748 217c4.387 3.29 4.382 4.146 6 9q2.992.55 6 1v2h6v2l-7-1v2h-3v3c-6 0-6 0-8-1v-2h-4v-2h4v-6h-2c-.812-2.937-.812-2.937-1-6z"/><path fill="#d38f76" d="M816 509h3c-.082 7.32-.317 13.085-5 19-5.042 3.781-8.75 4.694-15 4-4.57-1.757-6.427-3.427-10-7l1-5h1v5l5 1v3c4.438-.187 4.438-.187 9-1l1-2 3.5.188L813 525c.72-3.347.813-6.478.832-9.898C814 512 814 512 816 509"/><path fill="#cc6f4f" d="m658 570 1 2h5l1 4h2l-.5-3-.5-3h2v4h3l1 2 3 2h-34l3-1v-2l-4-1h6v-2h4v2c3.438.375 3.438.375 7 0z"/><path fill="#ce6e4c" d="M732 522h2c1 3 1 3 .438 6.188L734 531h2c-.317 2.915-.682 5.365-2 8l5-1-2 1v2h-2v2h-2v2l-2-1 .75-5.625L732 533c-2.875.063-2.875.063-6 1-1-4-1-4 .75-7.25L729 524h3zm-9 7 2 4c-2.187 2.438-2.187 2.438-5 4l-3-3a168 168 0 0 1 6-2z"/><path fill="#c96f50" d="M893 344h3a424 424 0 0 1 2 10h2c.3 3.063.3 3.063.313 7l.05 3.938L900 368h-3c-.325 2.846-.325 2.846-.258 6.781l.043 4.239.09 4.48q.064 4.359.117 8.719l.074 3.935L897 399h-1c-.247-4.15-.428-8.283-.562-12.437l-.134-3.71a434 434 0 0 1-.144-25.083L895 355h-2c-.312-5.5-.312-5.5 0-11"/><path fill="#d28669" d="M819 421c1.053 4.212.89 6.795 0 11h-2l3 4h-2l.125 3.875L818 444l-4 2v2l-4 1-1 3-4-1c2-5 2-5 4.75-9.375 3.992-6.49 6.577-13.515 9.25-20.625"/><path fill="#d17e60" d="m713 536 4 1c.085 4.413-.432 6.404-3.5 9.625L711 549l-1 5h-2l-2 2-.25-4.062L705 548l-4 1-3-2c2.227-1.84 2.227-1.84 5.625-3.937 3.552-2.215 6.404-4.092 9.375-7.063"/><path fill="#ce6d4c" d="m835 481 3 1c.875 2.938.875 2.938 1 6l-3 2-1 3h-2v2h-2v2h-2v5c-2.875.938-2.875.938-6 1l-2-2 2-5v-3c3.375-1.125 3.375-1.125 7-2l2-1 .5-4 .5-4zm-4 3 2 1-2 1z"/><path fill="#ce6f4e" d="M626 430h2c2 4 2 4 2 8h2c.375 5.375.375 5.375 0 11l-4 2-3-1a101 101 0 0 1-1-7l-1-1v-5h2l-1-5h2z"/><path fill="#cd6f4e" d="m621 402 3 2c.04 2.666.043 5.334 0 8h2v2h-2c-.152 3.722.009 7.41.125 11.133-.12 3.732-.75 6.421-2.125 9.867-2.245-4.489-2.235-7.055-2-12l1-3h-2v-4l-.687-5.562L618 405z"/><path fill="#d3876b" d="M628 501c3.3.471 6.222 1.078 9.375 2.188L640 504v-2c4-.25 4-.25 8 0v2h2l1-2c1 1 1 1 1 6h-2l3 1 2 5c-5.73-1.146-10.528-3.425-15.75-5.937l-2.941-1.381c-7.184-3.431-7.184-3.431-8.309-5.682"/><path fill="#d28c71" d="M855 303c3 3 3 3 4.688 7 2.312 4 2.312 4 6.562 6l3.75 1-3 2v-2l-3.375 1.063L860 319l-2-3-1-1c-4 3-4 3-6 7v-3h-2c-1.473-2.3-1.473-2.3-3.062-5.312l-1.598-2.989C843 308 843 308 842 305c3 1 3 1 5 4v3c5 1 5 1 9 0l-1-2c-.04-2.333-.043-4.667 0-7"/><path fill="#d49076" d="M739 495h1c.188 3.875.188 3.875 0 8l-2 2a147 147 0 0 0-2.75 7.063l-1.422 3.847L733 519l2 1v2h-3v2l-3 1-1.812 2.875c-2.44 3.485-4.236 4.665-8.188 6.125l-2-1a338 338 0 0 1 6-7c6.624-8.671 11.714-18.055 15.137-28.453z"/><path fill="#d59780" d="M663 425h2c-.242 2.676-.242 2.676-.875 6.313-2.555 16.666.158 30.438 6.875 45.687v3l-2 1a159 159 0 0 1-3-7l-3-5c.438-3.312.438-3.312 1-6h-2c-2.63-10.67-3.177-22.182-1-33h2z"/><path fill="#d1856a" d="m662 220 1 3-1 2h-2c1 3 1 3 2 5h-2l-1 5c-.812 3.5-.812 3.5-2 6l-4-3-2 4-3 4-2 3c-1-3-1-3 .082-5.68 4.564-8.426 9.874-15.89 15.918-23.32"/><path fill="#d4886c" d="m821 241 2 3-1 2h3l1-3c5 2 5 2 6 4h-5c-3.413 2.65-5.38 5.462-8 9l2 5c-5-1-5-1-7-3h-2v-4l5 1c1-4 1-4 1-5h-2v-3l-2-1 5-1z"/><path fill="#ce6e4d" d="M538 258h2v2h-2v4h2v4h-2v2h2v2l-3.437.438L533 273l-1 3h-3a150 150 0 0 0 1 6h-2c-2.199-4.398-2.395-5.443-1-10 2.375-2.875 2.375-2.875 5-5h3v-6z"/><path fill="#d79982" d="m696 548 2 1c-4 4-4 4-8 6h-5v2l-5 1-1 1c-2.014.1-4.03.13-6.047.133l-3.75.004-3.953-.012-3.906.012-3.766-.004-3.456-.004C651 559 651 559 646 558v-1c2.292.006 4.584.058 6.875.125 14.244.05 26.926-2.542 40.063-8.016z"/><path fill="#c76f50" d="M912 349c2.255 3.382 2.333 5.012 2.563 9 .197 3.288.392 5.866 1.437 9 .096 2.357.13 4.716.133 7.074l.004 4.21-.012 4.404.012 4.439-.004 4.197-.004 3.878L916 398h-1a683 683 0 0 1-.518-15.85c-.27-8.831-.27-8.831-2.482-12.15l-1-5-3-1v-4h2v-6h2z"/><path fill="#cd6e4d" d="M853 508c1.39 2.78.912 4.975.75 8.063L854 522l5 1v2h-2v2h-2v2l-3 1 1-4-1-1v-5h-4l1-5-3-1 1-5c4-1 4-1 6-1"/><path fill="#d69781" d="M725 498c-.297 4.83-1.98 8.209-4.437 12.313l-1.872 3.175C717 516 717 516 715 517v-6h2v-2h2v-5l-3-1v-2c-2.962-.033-5.926-.056-8.887.027C704 501 704 501 699 500v-1c2.5-.049 5-.036 7.5 0 6.225.044 12.343-1 18.5-1"/><path fill="#dca48e" d="M513 365h1c.022 3.733-.009 7.455-.062 11.188-.093 11.716.746 23.166 2.062 34.812q.324 3.404.625 6.813L517 422l-1-3h-3l.563-3.562L514 412l-4 1c1-5 1-5 2-8 .232-7.536.232-7.536-1-10-.208-6.747.295-13.348.938-20.062l.527-5.66z"/><path fill="#ce704e" d="M878 492c3 .125 3 .125 6 1v2h-3l.063 3.563L881 502l-4-1v2h-2l-1 4-3-1-1 3h3l-1 2-4 1c-1.5-4.937-1.5-4.937-2-10h4v2h2v-2h4v-2h-2l1-4h3z"/><path fill="#d5957d" d="M790 418h1c-.455 13.193-3.183 25.709-8 38-2.697-4.045-1.915-6.349-1-11h2q.569-4.493 1-9l1-1c.194-2.973.384-5.946.523-8.922C787 423 787 423 790 418"/><path fill="#cf6e4c" d="m827 407 3 1c.375 4.125.375 4.125 0 8l-3-1-1 5-1 4h1v6l-3-1 1 3h-2v2l-5 1v-3h2v-5l2-4h2l1-5 1-1 .875-5.125z"/><path fill="#dfaa98" d="m712 578 2 1c-3 5-3 5-6 7 2.937 2.937 12.657 1.562 16.66 1.719L729 588v1c-11.29.362-22.79.504-34-1 1-3 1-3 3.582-4.316l3.23-1.246c3.503-1.37 6.818-2.753 10.188-4.438"/><path fill="#e1b19f" d="M890 338h1q.508 4 1 8l1 1-.062 4.063L893 355h2c.326 3.14.505 6.295.633 9.45l.254 5.946.238 6.291.262 6.233C897 397.79 897 397.79 897 404l-3 3 .048-2.772c.268-18.053.141-35.409-3.048-53.228a1083 1083 0 0 1-2-12z"/><path fill="#ddab97" d="M565 347c1.242 4.97.73 8.959 0 14h-2c-.211 2.779-.211 2.779-.16 6.648l.033 4.239.064 4.488c.224 18.508.224 18.508-.937 26.625h-1c-3.03-18.763-.745-37.742 4-56"/><path fill="#d69e89" d="M777 349c3.89 3.89 3.95 5.23 4.313 10.75-.391 6.56-2.013 10.01-6.688 14.563-6.052 3.89-10.548 3.936-17.625 2.687l-2-2 3.063.324 3.937.363 3.938.387L769 376v-3h4v-3h2l2-4 2 1c.355-8.44.355-8.44 0-12h-2z"/><path fill="#d0866b" d="M555 263h5l-6 8-2.367 3.203-2.446 3.297-2.332 3.156L545 283h-1c-.187-4.5-.187-4.5 0-9h2l1-2 2 1 .313-3.375L550 266l5-1z"/><path fill="#ce704f" d="M731 217h5v3l-5 3c-1 1-1 1-1.187 5.063L730 232h2l1 3 3 1v3h-6l-1-3-2-1c-.484-3.09-.484-3.09-.75-6.937l-.297-3.84C726 221 726 221 728 219h3z"/><path fill="#d4957d" d="M628 213h3v2c-2.712 1.31-5.473 2.521-8.25 3.688-5.815 2.503-11.338 5.088-16.75 8.375L601 230l-2-1 1-2h2l2-4h4v-2c5-3 5-3 10-2l1-4q4.5-.124 9 0z"/><path fill="#daa590" d="M740 415h3c2.045 4.413 2 8.214 2 13h2c.427 2.934.427 2.934.668 7.008l.268 4.43.251 4.687.288 4.617c.716 12.469.716 12.469-.475 18.258-2.729-4.093-2.127-6.855-2-11.75.123-13.635-1.74-25.328-6-38.25z"/><path fill="#d3886e" d="M624 448c3.5 1.625 3.5 1.625 7 4v3l3 1v2h-2l1.5 3.75L635 466l-2 4a3778 3778 0 0 1-3.375-6.687l-1.898-3.762C624 451.887 624 451.887 624 448"/><path fill="#cd6e4c" d="m653 238 5 2v2h-2l-1 5-2 5c-5 1-5 1-7 1 2.364-10.045 2.364-10.045 5-14l1 1z"/><path fill="#cd6e4d" d="m551 244 1 2h2v2h-4l1 4h-5v2h2v2l-3 1 3 1c-.687 3.063-.687 3.063-2 6h-2v2h-2v-4l2-1-3-3 2-4 .875-3.75L545 247h4v-2z"/><path fill="#d69983" d="M821 212c11.603 4.641 22.202 14.202 31 23l-2 2v-2l-2.875-.25L844 234a127 127 0 0 1-2-6l-5-2c-2.936-2.167-5.414-4.414-8-7l-3-1v-2h-3v-2l-3 1z"/><path fill="#cf6e4d" d="M898 403h2v3h4v2h-2c-.065 3.141.139 6.24.32 9.375L902 420h-4v-4h-2l-1 2a196 196 0 0 1 0-7h1l.938-4z"/><path fill="#d49881" d="m596 382 5 1v2l4 2c4 3 4 3 7 8v2h2l1 9h2c.083 2.665.083 5.335 0 8-2-4-2-4-3.625-8.562-4.042-9.255-9.442-16.158-17.375-22.438z"/><path fill="#cd6f4e" d="M802 371h4v3h-2v2h-2l-2 4c-2.666.04-5.334.043-8 0v3l-4-1 1-5c5-2 5-2 9.313-2.437L802 374z"/><path fill="#d2886c" d="m769 342 5 3-2 2v-2l-3 1v2h-3v-2c-8.667 2.333-8.667 2.333-12 4v-3l-2-1c5.188-4.892 10.17-4.55 17-4"/><path fill="#d4977f" d="M703 360c4.55 1.138 6.56 2.82 10.188 5.75 5.091 4.017 10.085 7.241 15.812 10.25v1c-6.39 0-8.91-2.312-14-6l-2-2-5-2-1 3v-2l-2-1h2l-2-5-5 3h-3c2.75-2.562 2.75-2.562 6-5"/><path fill="#d69982" d="M796 308h5c2.188 3.875 2.188 3.875 4 8l2 2v3h3l.438 2.938L811 327l4 1c1 4 1 4 0 6l2 1-2 3c-1.664-2.637-1.664-2.637-3.625-6.687-3.512-6.916-7.39-12.4-12.375-18.313z"/><path fill="#d79177" d="m811 502-4 2 4 2c-3 2-3 2-7 2v-2c-3.812-.312-3.812-.312-8 0l-3 3-4 1c2.031-4.063 3.35-5.48 7-8 5.207-1.302 9.697-.568 15 0"/><path fill="#d79c85" d="M891 420h1c-.043 8.808-.802 16.739-4 25l-.562 3.563L887 451h-2l-1 4-3 1 1.305-4.324a1609 1609 0 0 0 4.82-16.488l1.57-5.458C890 425 890 425 891 420"/><path fill="#dcaa97" d="m582 373 2 1c.096 3.52.073 7.042 0 10.563-.132 9.637.45 18.904 2 28.437l-1-2h-2a338 338 0 0 1-1-10l-1-2c-.1-3.82-.139-7.618-.125-11.437l-.012-3.221c.01-7.962.01-7.962 1.137-11.342"/><path fill="#dea48f" d="M847 370h1c.55 15.539.695 30.801-3 46-.838-3.352-1.61-6.57-2-10h2c.122-3.164.12-6.334.063-9.5A406 406 0 0 1 845 387h1c.214-2.83.37-5.665.5-8.5s.286-5.67.5-8.5"/><path fill="#d3947b" d="M830 318c3.441 3.441 4.665 6.408 6.563 10.875l1.816 4.242C842 341.79 842 341.79 842 346l-4-2a241 241 0 0 1-2-9l-3-4c-1.43-4.288-2.346-8.532-3-13"/><path fill="#e1b2a0" d="M721.723 266.848 725 267l1 2 5.5 1 5.5 1 1 2c-3.665-.44-7.321-.886-10.963-1.496-9.198-1.494-18.108-1.712-27.412-1.567q-4.168.053-8.336.09l-3.665.055L685 270v-1c6.413-1.242 12.927-1.33 19.437-1.563l3.315-.13c4.656-.177 9.314-.31 13.97-.46"/><path fill="#d2896e" d="m877 501 4 2c-1.91 3.152-1.91 3.152-5.062 6.938l-3.098 3.777C870 517 870 517 867 520l-1-5h2l2-5 3-1h-3l1-4 1 2h2l1-4h2z"/><path fill="#d59881" d="M648 205c2.625-.195 2.625-.195 6-.125l3.375.055L660 205c-3.344 3.344-7.825 3.81-12.312 5.063l-5.676 1.597A161 161 0 0 1 632 214l1-3h3v-2c4.456-2.865 6.9-3.093 12-2z"/><path fill="#d3886e" d="m576 543 4 1c1 4 1 4 1 6l3.938.813L589 552l1 5c-5.233.201-8.42-2.442-12.375-5.562l-3.21-2.504L572 547l3-1z"/><path fill="#ce6f4f" d="M505 447c3.563-.5 3.563-.5 7 1-.125 4.438-.125 4.438-1 9l1 2-2 2-4-1c-.75-2.625-.75-2.625-1-6l-.5-3.937z"/><path fill="#dba28c" d="m824 371 3 1c.356 2.988.356 2.988.328 6.957l-.015 4.31-.063 4.546-.016 4.51c-.08 11.06-.08 11.06-1.234 15.677h-2l-1 3 .438-3.34c2.677-21.887 2.677-21.887 1.562-31.66l-3-1v-2h2z"/><path fill="#d18c73" d="M841 483h3c-1.198 4.79-3.17 6.897-6.375 10.625l-2.96 3.477C832 500 832 500 829 502v-5h2v-2h2v-2h2l1-4 3-1v-3h2z"/><path fill="#d89c85" d="m878 308 3 2-1 2 3 1v6h2v2l3 1c1.01 5.36 1.474 8.051-1 13l-1.46-4.234c-.633-1.82-1.264-3.64-1.915-5.516l-1.898-5.484C880 315 880 315 878 311z"/><path fill="#d39279" d="M830 452c-1.893 4.733-3.984 8.072-6.937 12.188l-2.653 3.73C818 471 818 471 815 473v-5l2-1 2-4 1-2h3v-4h2v-4c2-1 2-1 5-1"/><path fill="#d28569" d="m791 249 1 2 4-3c1 3 1 3 0 6l3 1-1 3c-5.683-1.894-10.842-4.985-16-8v-1c6.568-1.216 6.568-1.216 9 0"/><path fill="#d69076" d="M620 551c8.774.319 17.56 2.675 26 5v1a162 162 0 0 1-11 0v-2h-4l-1 2c-6 0-6 0-8-1v-3h-2z"/><path fill="#d49078" d="M751 517h4c-.927 5.105-3.806 9.107-6.625 13.375l-2.477 3.773L744 537c-2-4-2-4-2-6h3v-4h2l-1-4h3v-2l2-1z"/><path fill="#d6967e" d="m849 332 2 4 4 1 1 5c3.681 1.84 7.95 1.637 12 2-2 2-2 2-5.625 2.438-5.373-.538-8.134-2.147-12.375-5.438-2-5-2-5-1-9"/><path fill="#d2896e" d="M833 478c1.389 5.554.106 8.734-2 14l-4-1-4 1c0-3 0-3 3.313-6.437L830 482zm-2 6 1 2 1-2z"/><path fill="#daa38e" d="M880 456c1.128 4.511.79 5.825-1 10-1.812 2.875-1.812 2.875-4 5-5 0-5 0-8-2v-2l-4.562-1.375L858 464l1-4c2.53 1.643 5.054 3.308 7.457 5.133C869 467 869 467 873 469c3.086-4.188 5.067-8.167 7-13"/></svg>