<svg xmlns="http://www.w3.org/2000/svg" width="1408" height="768"><path fill="#ce6d4d" d="M606 364v2l4 2c25.682 24.42 45.196 56.301 56 90l1.348 3.957c17.343 54.046 12.85 117.98-11.793 169.117-2.435 4.694-4.965 9.316-7.555 13.926l-1.992 3.73c-4.363 8.011-9.486 15.21-15.059 22.426a199 199 0 0 0-5.367 7.313c-5.83 8.337-12.313 14.226-22.582 16.531-13.058 1.911-23.718.238-34.562-7.562-8.24-8.24-12.706-16.926-12.813-28.625.159-11.522 3.125-18.75 10.375-27.813 2.735-3.955 5.365-7.978 8-12l1.785-2.652C598.478 581.973 606.05 541.323 599 501c-2.752-13.291-7-25.839-13-38l-2.129-4.34c-4.545-8.923-9.498-16.942-15.871-24.66l-3-3.684c-17.715-21.143-41.31-37.665-68-45.316l-4.895-1.5c-22.784-6.68-44.65-7.907-68.043-3.875-13.745 2.314-24.177 1.318-36.25-6.25-9.674-8.564-14.227-18.447-15.062-31.187.66-11.049 5.572-21.738 13.586-29.43 7.936-5.69 17.218-7.1 26.664-8.758l3.344-.648C484.21 291.282 556.539 317.372 606 364"/><path fill="#ce6d4c" d="M965.547 300.973c17.091.272 35.493 2.643 51.453 9.027v2h3v2l4 2c7.098 9.205 11 18.256 11 30-1.449 11.062-5.667 19.487-14 27-12.54 8.601-23.204 9.105-38 6.562-40.462-6.765-79.025 2.868-113 25.438-3.867 2.811-7.45 5.801-11 9l-2.867 2.402C828.243 440.49 811.173 477.775 807 514c-2.797 43.738 8.932 85.538 37.5 119.5 7.057 9.073 8.908 18.213 8.5 29.5-1.966 11.616-8.802 21.47-18.25 28.375-11.624 5.037-22.503 6.072-34.563 2-31.354-17.783-50.59-63.08-60.097-96.58C723.957 536.917 729.485 475.198 758 420a328 328 0 0 1 6-9 743 743 0 0 0 3.312-5.313C773.663 395.68 780.916 385.682 789 377h2l2-4a181 181 0 0 1 8-8h2v-2c1.57-1.438 3.209-2.8 4.875-4.125l3.082-2.457L814 354l4.562-3.813C838.4 334.425 860.484 323.074 884 314l3.204-1.272c9.534-3.627 19.146-5.678 29.171-7.478l5.08-.918c14.848-2.573 29.032-3.285 44.092-3.36"/><path fill="#ce6d4d" d="M549.125 115.125c9.967 7.475 14.944 16.313 18.5 28.063C572.17 157.134 578.049 170.317 587 182v2h2q2.006 3.496 4 7c22.087 27.112 55.26 46.492 90.063 51.438q3.465.326 6.937.562l3.863.36C733.841 246.63 769.506 231.964 800 207c9.06-8.084 16.344-16.868 23-27l2.148-3.21c7.712-11.968 12.61-24.629 16.668-38.216C843.331 134 845.44 130.072 848 126l1.625-3.125c5.88-7.119 14.47-11.051 23.375-12.875 11.2-1.044 19.375.676 29.125 6.438 7.959 7.316 13.816 15.721 15.281 26.57.34 11.283-3 21.334-6.406 31.992l-1.113 3.73c-1.884 6.115-4.428 10.924-7.887 16.27a654 654 0 0 0-3.687 7.563c-6.107 12.328-13.685 23.082-22.715 33.433-2.361 2.73-4.583 5.521-6.785 8.379-3.65 4.427-7.422 7.954-11.813 11.625l-2.375 2.375C842.417 270.583 828.767 280.124 814 289l-2.706 1.665c-7.271 4.384-14.658 7.832-22.544 10.96l-3.594 1.44C737.952 321.76 685.286 324.388 637 308l-5.25-1.707C608.889 298.492 587.84 287.125 569 272l-2.648-2.121c-7.778-6.286-15.28-12.806-22.352-19.879v-2h-2c-3.1-3.609-6.06-7.262-9-11l-3.062-3.777C521.347 222.393 514.53 211.129 508 199l-2.246-4.012c-9.465-17.657-18.798-41.217-13.317-61.238 6.069-11.248 13.187-18.73 25.375-23.125 10.854-1.62 21.9-1.714 31.313 4.5"/><path fill="#ce866c" d="M655 627c1 3 1 3-1.508 8.348a598 598 0 0 1-3.617 6.715l-1.927 3.547c-5.586 10.092-11.91 19.245-18.948 28.39l-2.684 3.777C620.161 686.314 613.642 692.611 603 695c-13.058 1.911-23.718.238-34.562-7.562-8.24-8.24-12.706-16.926-12.813-28.625.098-8.71.957-16.395 7.375-22.813a684 684 0 0 1-.875 6.5l-.492 3.656L561 649h-2c-.256 3.451-.352 6.914-.375 10.375l-.086 5.836L559 670l4 2c6 8.077 6 8.077 6 13 9.434 3.774 17.779 6.319 28 7v-2c2.773-.45 2.773-.45 6.375-.687l3.586-.262C610 689 610 689 612 690l-1-3h3v-2l4-2c-1-3-1-3-3-5 2.188-2.625 2.188-2.625 5-5h3l-1-3-1-4c3.5-1.5 3.5-1.5 7-2l-1 4h2l1-3 2-1c1.963-4.633 3.376-9.005 4-14l1 2 4-1v-3l4-1v-6h2v-4h2v-4h2v-2h3z"/><path fill="#cc6f50" d="M860 325v3c-3 2-3 2-6 2l-2 4c-3.875 2.125-3.875 2.125-8 4l-4 2v3a524 524 0 0 1-7 4l-1 3-5 1-4 4h-5c-3.875 2.813-3.875 2.813-7 6l1 3 1 4 3-2 4 3c-3 4-3 4-8 7h-4v-2c-6 0-6 0-10 1v6l-3 4h-2l-1-3c-3 1-3 1-6 6l-2.875 2.375C780 393 780 393 777.375 396.688 775 400 775 400 771 402c1.963-4.908 4.429-8.236 7.766-12.285 2.256-2.741 4.43-5.537 6.609-8.34L789 377h2l2-4a181 181 0 0 1 8-8h2v-2c1.57-1.438 3.209-2.8 4.875-4.125l3.082-2.457L814 354l4.563-3.812C850.223 325 850.223 325 860 325"/><path fill="#cf7e61" d="M1032 331c3.941 5.912 3.202 13.46 2.313 20.25-3.184 11.521-9.355 19.663-19.563 25.75-10.214 5.716-20.578 4.482-31.75 2.563-15.563-2.615-30.864-2.852-46.582-1.72L933 378v-1c10.797-1.935 21.238-2.275 32.188-2.187l4.79.001c11.6.045 11.6.045 15.022 1.186 3.717.123 7.408.185 11.125.188l3.113.037c2.589.005 5.177-.101 7.762-.225l1-2h-2v-2h-2c1-4 1-4 3-6l2.375-2.75L1012 361l4 2-3 3h6v2h4v-5h-2c-.25-3.875-.25-3.875 0-8l2-2h3l1 2 3-1 1-3h2c-.018-3.336-.167-6.67-.375-10l-.336-5.625z"/><path fill="#cc6f4f" d="M549.125 115.125c9.967 7.475 14.944 16.313 18.5 28.063 3.874 11.938 8.814 24.731 16.375 34.812l-1 2-4-3v-2h-2v-2h-2l-1-9h-2c-3-5-3-5-3-8h-2l-1-3-2 2h-2l-2 3-2-4h-2v-6l-3-1c3.154-2.716 4.874-3.968 9-5-.125-3.562-.125-3.562-1-7h-2v-4c-2.937.375-2.937.375-6 2a180 180 0 0 0-1 6l-5 1-1-2h4v-8l4-2c-.625-3.125-.625-3.125-2-6h-2l-1-3a442 442 0 0 0-7-3v-2c-7.647-2.55-16.47-1.41-24 1-2.666.075-5.335.094-8 0 10.651-7.988 28.24-7.06 39.125.125"/><path fill="#d1927a" d="M834 439c0 4.44-2.583 7.047-4.934 10.656-21.72 35.148-27.55 77.15-18.355 117.157q1.29 5.194 2.64 10.375L814 581h-3v-4h-2l-2-2-4-3 2-4c.16-3.059.16-3.059.063-6.437-.113-4.213.097-7.364.937-11.563h-3c-.372-2.883-.372-2.883-.363-6.91l.002-4.444.048-4.708-.01-4.534c.126-26.207.126-26.207 3.323-29.404l.438-5.437C807 489 807 489 809 487c1.813-5.625 1.813-5.625 3-11h-3c.125-3.937.125-3.937 1-8l3-1v2h2v-2h2v-2h2v-5l2-3h2l1-4 1-4h2l.5-3 .5-3h2v-3z"/><path fill="#d49b85" d="M577 342c10.601 5.3 20.417 13.901 29 22v2l4 2c16.439 15.63 30.949 34.625 41 55l-1 2c-3-3-3-3-6-7l-4-2-1 2v-3l-2-1h2v-4h-2l-.875-3.25C635 403 635 403 631 399c-3.628-3.628-5.387-7.162-7-12l-3.125-.937L618 385l1-4h-2a401 401 0 0 1-3-6c-3.25-3.25-5.797-4.26-10-6l-5-3v-3h-2l-1 2-2-2v-5h-3l-3-3v-3l-5-2v-2l-4-1v-2h-2z"/><path fill="#cf8569" d="M492 306c29.31 2.776 61.474 17.597 85 35-2 1-2 1-6 0v-2l-4.5-.5-4.5-.5v-2c-1 1-1 1-2 4h-4v-3l-5 2c-3-5-3-5-2.875-8.812L548 327h-5l-2-4c-3.52-.793-3.52-.793-7.812-1.187-4.492-.44-8.755-.926-13.188-1.813l-1-3-5-2v-2l-3-.5-3-.5v-2a138 138 0 0 0-8-1c-2.343-.26-4.682-.574-7-1z"/><path fill="#e3b9a5" d="M965.547 300.973c17.091.272 35.493 2.643 51.453 9.027v2h3v2l4 2c6 8.308 6 8.308 6 11-4.036-1.345-4.852-3.42-7-7l-1-3-4-1v-2h-4l-1-3a530 530 0 0 0-10-2v-2q-3.509.438-7 1v-1c-12.799-3.214-25.504-3.428-38.625-3.313l-5.66-.01c-8.754.035-16.158.157-24.371 3.358-6.225 1.796-12.789 2.104-19.223 2.733-5.621.606-10.284 1.21-15.121 4.232-3.849 2.078-5.556 3-10 3v2h-6l-2 4c-9.612 2.347-9.612 2.347-15 1q5.56-2.35 11.125-4.688l3.113-1.318A661 661 0 0 1 884 314l3.283-1.316c9.502-3.61 19.103-5.64 29.092-7.434l5.08-.918c14.848-2.573 29.032-3.285 44.092-3.36"/><path fill="#d0876b" d="M846 637c5.59 5.59 6.832 13.62 7.375 21.313-1.025 12.81-6.512 21.69-15.375 30.687-4.32 2.979-7.777 4.49-13 5 3-2 3-2 5-2v-4c3-.625 3-.625 6-1v-2h3l-1-4h3l1-4 3-5-5 2 1-3h5v-2h2c.414-2.844.414-2.844.625-6.5l.227-3.656L849 656l-3 2h-3l-1-4-2-1h3l1-5 1-2-4 1v-3h5c.313-3.5.313-3.5 0-7"/><path fill="#ce8469" d="m884 219 3 2c-2.849 5.366-7.13 9.91-11 14.563-6.918 8.331-6.918 8.331-9.191 11.246-2.879 3.487-6.39 6.245-9.809 9.191l-2.375 2.375C848.198 264.802 841.42 270.738 834 276h-1v-5l4-2 1-4 3-3h3v-2h5l-.562-3-.438-3h6v-2h-2v-2l8-1v-2h2v-2h2v-5h-2v-2l5-2 1 5 3-5 2-3h3v-4h2l1-4h2l1-4h2z"/><path fill="#d1977f" d="M762 310c-3.704 2.47-6.899 3.043-11.25 4l-4.453 1c-13.947 2.633-27.477 3.386-41.672 3.375h-5.88c-17.082-.136-33.236-1.806-49.745-6.375v-1c3.873-.136 7.538-.068 11.375.5 3.625.5 3.625.5 8.563.438 5.062.062 5.062.062 8.632 1.05 5.486 1.253 10.781 1.299 16.375 1.278l3.42.005q3.563.002 7.126-.01c3.63-.011 7.258 0 10.888.012q3.471 0 6.941-.007l3.277.012c5.134-.032 9.686-.104 14.403-2.278v-1c2.349-.245 4.705-.418 7.063-.562l3.972-.254c3.663-.17 7.3-.217 10.965-.184"/><path fill="#cd8469" d="M599 560h1c.724 6.223-1.24 11.406-3.223 17.207C596 580 596 580 597 582l4-1c1 2.875 1 2.875 1 6l-4 1v-3h-2l1 3-3 3c-1 2-1 2-1.375 6.563L592 602l-3 1 1 1v3h-4l-2 5-3 5-4 1 1 4-5 2 1 3v5c-5 2-5 2-9 3l-2 1c1.989-3.977 4.39-7.42 6.945-11.047 13.355-19.194 23.083-39.151 28.293-62.015z"/><path fill="#d28f74" d="M814 581c3.051 3.051 3.834 6.775 5.313 10.813C825.67 607.952 834.854 621.74 846 635l-1 2-1-1-2 2a349 349 0 0 1-4-5h-6c-.279-3.692-.174-6.477 1-10h-2v-3h-2c-1-3-1-3-2-7l-4-1v-6l-4 1c-3.187-.812-3.187-.812-6-2l-1-2 1-2h2l-1-5h2a519 519 0 0 0-2-9z"/><path fill="#d19078" d="M675 503h1c3.976 33.141-.033 66.04-9 98h-1c.598-19.598.598-19.598 4-23 .26-3.223.407-6.455.5-9.687.23-6.236.536-12.284 1.563-18.438 1.26-8.31 1.044-16.602.863-24.983-.115-7.555.55-14.48 2.074-21.892"/><path fill="#ce7e61" d="m498 169 2 1 1 7 2 1c1 4 1 4 1.25 7.125L505 188l5 2 1 1 4.563 1.438L520 194v2h2v4h-2v2h-2l2 5c2 6 2 6 0 11-4.04-4.04-6.529-8.812-9.312-13.75l-1.765-3.129C498.173 181.757 498.173 181.757 497 171z"/><path fill="#cf8063" d="M666 462c8.362 12.543 9.638 33.328 9 48l-1 5h-1a686 686 0 0 1-.125-6.562c-.227-3.622-.227-3.622-.875-6.438-3.5-.125-3.5-.125-7 1l-1-3h-4l1-3 3 1v-2h-2v-2h-2c-.865-3.54-1.165-5.506 0-9l6 3v2h2v-2l2-2q-1.485-3.506-3-7c0-6 0-6 1-7l-.937-2.812C666 466 666 466 666 462"/><path fill="#d0937a" d="M899 116c8.127 4.064 13.8 12.028 17.438 20.25 2.09 13.938-1.183 25.44-5.438 38.75l-1.184 3.941c-2.408 7.787-2.408 7.787-5.816 10.059 2.186-9.606 4.503-19.067 7.559-28.437L912 158l-3-1v-7l-1-5 1-2 2 1-1 3 2 1 1 1a861 861 0 0 0-.812-9l-.458-5.062L911 131h-3l-.375-2.875L907 125l-5-2v-3l-3-1z"/><path fill="#d0896e" d="M860 325v3c-3 2-3 2-6 2l-2 4c-3.875 2.125-3.875 2.125-8 4l-4 2v3a524 524 0 0 1-7 4l-1 3-5 1-4 4h-5c-2.316 1.785-2.316 1.785-4.562 4.063L809 363l-4-1c11.132-11.502 38.483-37 55-37"/><path fill="#d18c70" d="m898 114 1 2-4-.562c-4.642-.407-8.453-.412-13 .562l-1 3-1-2h-3l-1 2-4-1v-2c-8.852.542-13.983 3.703-20 10h-2l-.312 3.375L849 133l-5 2c2.068-8.067 6.355-14.262 13.25-18.875 13.318-7.725 26.837-8.432 40.75-2.125"/><path fill="#d5937b" d="M520 218h3l1 4 3 1 4 4 2 1 1-5 2-1 2 1v3h-3c-1.437 3-1.437 3-2 6h4v5c3.125-.312 3.125-.312 7-1 3.438.938 3.438.938 6 2l-4 2c0 5.628 1.244 9.963 4.98 14.297 1.957 1.953 3.984 3.834 6.02 5.703-3 0-3 0-5.48-2.117l-2.707-2.758-2.731-2.742C544 250 544 250 544 248h-2a313 313 0 0 1-9-11l-3.484-4.445C520 220.275 520 220.275 520 218"/><path fill="#d08162" d="m508 115 2 1-4 3v5h5l-1 2 3 1c-1 2-1 2-3 3l1 2-4-1 1-2-4 3v3c-5-1-5-1-8-2-2.469 4.938-2.483 8.746-2.75 14.25l-.297 5.516L493 157h2v6h2c.083 2.665.083 5.335 0 8-6.153-9.23-7.153-21.223-6-32 2.711-9.902 8.836-17.877 17-24"/><path fill="#d69d86" d="M420 304c-8.002 4.001-16.995 7-26 7v2l-4 4h-4c-.687 3.938-.687 3.938-1 8l-1 1 .188 3.688L384 333l-4-2-4 1c-.3 4.114-.371 7.958-.25 12.063l.055 3.455c.047 2.827.119 5.655.195 8.482-3.564-5.346-3.375-11.721-3-18 2.211-10.364 7.072-20.752 15.875-27.062 9.215-5.189 20.626-7.285 31.125-6.938"/><path fill="#dba893" d="M454 373c7.6-.537 12.803-.004 19.938 2.91 8.134 2.895 17.42 4.649 26.062 4.09l2-2v2l2 1h-2l1 2 2.875.938C509 385 509 385 512 388c-4.24 1.413-6.972-.272-11.055-1.684-23.208-7.743-44.54-9.8-68.777-8.507L427 378v-1a97.3 97.3 0 0 1 21.375-2H454z"/><path fill="#d28a6e" d="M376 356h3c4 5.143 4 5.143 4 9 5 2 5 2 9 1l4 1v2l4-1v3l-4-1v4c3.06.765 6.151 1.41 9.25 2l4.75 1v1c3.975.153 7.12-.03 11-1 3.25.375 3.25.375 6 1v1c-14.466 3.137-26.346 2.425-39.187-5.625-5.467-4.84-10.006-10.148-11.813-17.375"/><path fill="#d58f75" d="M606 206c5 3 5 3 9.313 6.563 8.04 6.521 16.937 12.203 26.304 16.609L645 231l-2 2 4 2c-3.34 1.67-6.437.632-10 0v-2c-2 1-2 1-4 5l-1-3h-2l-1 3h-3v-2h2v-2h-2v-3l5-1-3.375-1.187C624 227 624 227 622 222v-3c-2.75-1.062-2.75-1.062-6-2l-4-2v-2h-2l-2-4-2-1z"/><path fill="#d39d86" d="M843 135c1.241 4.964.124 8.042-1 13a194 194 0 0 0 0 7c-1 3-1 3-4 5l-1 4h-2l-1 4h-2l-.375 3.875L831 176l-4 2-2 5-2 3h-2l-.625 3.125c-1.88 5.3-4.805 6.62-9.375 9.875-2.958 2.91-5.828 5.888-8.68 8.902L800 210l-2-1c2.178-2.3 4.45-4.51 6.75-6.687 7.078-6.947 12.857-14.014 18.25-22.313l2.14-3.203c8.384-12.991 13.59-27 17.86-41.797"/><path fill="#c37153" d="m957.813 302.813 5.76-.038 5.572-.005 5.073-.013c4.815.245 9.106 1.106 13.782 2.243q4.5.507 9 1l1 1h5v2c-3.626.108-7.215-.074-10.84-.223L989 309l-1 3q-2.988.57-6 1l-2 2 .686-4.45L980 306c-4.063-.873-6.891-1.005-10.973-.809l-3.37.053c-3.575.064-7.146.19-10.72.318q-5.364.138-10.73.244-3.35.072-6.697.19c-2.502.073-5.007.051-7.51.004l1-2c8.592-2.136 18.032-1.185 26.813-1.187"/><path fill="#d08e75" d="M596 289c3.938.313 3.938.313 8 1l1 3q4.494.556 9 1v2c2.938.813 2.938.813 6 1l1-3 2 1v2c3.576 3.576 6.097 4.116 11 5v-2l5 1 1 5c3.563.125 3.563.125 7 0v3l2 2c-14.632-3.04-28.243-8.407-41.687-14.812l-3.062-1.455c-7.12-3.47-7.12-3.47-8.251-5.733"/><path fill="#dcad98" d="M772 228v2l-4 1-2 4a174 174 0 0 1-9 2l-2 2a741 741 0 0 1-11 3l-1 1q-3.996.53-8 1l-5 1c-27.821 2.636-27.821 2.636-41 0l1-2c2.337.046 4.673.217 7 .438 24.853 1.803 47.713-4.183 70.27-14.301C770 228 770 228 772 228"/><path fill="#cd8e77" d="m880 395 3 1c-3.345 3.345-7.052 5.552-11.04 8.059-12.708 8.332-23.734 18.93-32.96 30.941h-1v-6h2l1-3 1-3h2v-2h3v-5q3.01.44 6 1v-4h2v-2h4v-3h2v-3h6v-4c3-.625 3-.625 6-1v-2l7-1z"/><path fill="#d69f87" d="M594 474c2 3 2 3 2 6h2l.438 3.563L599 487l3-1 4 3-4 1 1 5h-2q.984 3.505 2 7c1.769 16.884 2.057 34.278-1 51h-1c.095-2.42.254-4.836.438-7.25 1.627-21.503-1.04-41.765-7.329-62.293C593 479 593 479 594 474"/><path fill="#d79f87" d="M562 636c2.011 4.022-.076 8.817-1 13h-2c-.256 3.451-.352 6.914-.375 10.375l-.086 5.836L559 670l4 2c6 8.077 6 8.077 6 13l5 2 6 6c-7.437-1.487-12.574-5.854-17.133-11.766-6.732-10.309-7.806-18.954-6.867-31.234 1.232-5.131 3.056-9.584 6-14"/><path fill="#cc6f4e" d="M548 327c10.399 0 20.94 7.542 29 14-2 1-2 1-6 0v-2l-4.5-.5-4.5-.5v-2c-1 1-1 1-2 4h-4v-3l-5 2c-2.89-4.818-3.952-6.603-3-12"/><path fill="#cf6e4d" d="M764 626c2.29 4.58 1.736 6.127 1 11l2 1q-.475 5.002-1 10c.438 4.125.438 4.125 1 7-3.351-3.926-5.85-8.03-8.312-12.562-.36-.65-.36-.65-2.176-3.942C755 635 755 635 756 631h3l2-4zm2 9h2l-1 2z"/><path fill="#d49e88" d="m930 305-1 2c-6.052 1.372-11.871 2.099-18.062 2.438-8.212.513-14.84 2.303-21.938 6.562q-2.999.51-6 1v2h-6l-2 4c-9.612 2.347-9.612 2.347-15 1q11.973-5.064 24-10l3.973-1.637c13.003-5.008 28.046-8.634 42.027-7.363"/><path fill="#cf6e4d" d="M603 551h1c.31 5.363-.608 8.217-3 13h2l.25 3.125L604 570c3-.812 3-.812 6-2 1.284 3.852.292 5.196-1 9l-.5 4.438L608 585l-2-1c-1.294-7.412-1.294-7.412 0-10-3.437.063-3.437.063-7 1-.812 3.438-.812 3.438-1 7l-2 2c-1.125-4.501-.646-5.695.875-9.937 1.597-4.825 2.432-9.113 2.688-14.188C600 554 600 554 603 551"/><path fill="#d2886e" d="m584 180 3 2v2h2l1.738 3.074c2.408 4.18 5.122 7.257 8.45 10.738 5.728 6.02 5.728 6.02 6.812 8.188a261 261 0 0 1-7.062-.625l-3.973-.352L592 204c.254-3.086.254-3.086 1-6h-3l-2-1h-5l-1-3 5-2c-1.187-3.875-1.187-3.875-3-8z"/><path fill="#d3957d" d="M933 378c-4.196 2.098-7.942 3.031-12.5 4.125-12.319 3.17-24.557 7.31-35.5 13.875l-2-1c1-3 1-3 3.813-4.562.525-.238.525-.238 3.187-1.438l4-2v-5l2-1v2l2-1c5.194-.54 10.394-.965 15.598-1.402 6.595-.73 12.765-2.598 19.402-2.598"/><path fill="#d89981" d="m801 365 2 1c-2.548 2.733-5.293 5.213-8.035 7.75L793 376l3 1v-2h2c0 6 0 6-3 10h-2l-1-3c-3 1-3 1-6 6l-2.875 2.375C780 393 780 393 777.375 396.688 775 400 775 400 771 402c1.963-4.908 4.429-8.236 7.766-12.285 2.256-2.741 4.43-5.537 6.609-8.34L789 377h2l2-4c4-4.312 4-4.312 8-8"/><path fill="#d49c86" d="M561 129c3.856 3.856 4.476 7.159 6.063 12.375 4.076 12.63 8.925 25.943 16.937 36.625l-1 2-4-3v-2h-2v-2h-2l-1-9h-2c-3-5-3-5-3-8h-2l-.437-3.25C566 149 566 149 563 145c-.73-3.89-.73-3.89-1.187-8.25l-.481-4.39z"/><path fill="#d08c73" d="M577 342c12.069 6.034 26.93 16.86 33 29-4.875-.975-7.176-1.976-11-5v-3h-2l-1 2-2-2v-5h-3l-3-3v-3l-5-2v-2l-4-1v-2h-2z"/><path fill="#d49f89" d="M546 410c4 2 4 2 7 5l2-2 1 4 4 1v4l4 1c2.75 2.438 2.75 2.438 5 5v2h2v4l2 1 1 3 4 2a650 650 0 0 1 3 10l3 1-2 4-1.25-2.273c-4.037-7.156-8.438-13.475-13.75-19.727-.944-1.14-1.887-2.28-2.86-3.453-5.673-6.768-11.415-12.83-18.14-18.547z"/><path fill="#cc7b5d" d="M770 402h1v6l-4 1a165 165 0 0 0-3 11l-1 2h3v-3h2l-1 4 1 3-5 2-1-2 1-2c-3 2-3 2-4 6h-3v2l-3 1c3.018-11.47 9.957-21.585 17-31"/><path fill="#d08f77" d="m901 187 3 2c-2.79 11.158-9.673 21.51-16 31-1.998-3.996-.547-8.726 0-13h2v-2h2l1-3 1-3h2v-2h2l-.562-3.437L897 190l3-1z"/><path fill="#d7a994" d="M549.125 115.125c4.673 3.488 8.34 7.24 11.875 11.875l-1 2a222 222 0 0 1-8-6l-2-1-1-3a442 442 0 0 0-7-3v-2c-7.647-2.55-16.47-1.41-24 1-2.666.075-5.335.094-8 0 10.651-7.988 28.24-7.06 39.125.125"/><path fill="#c87457" d="M1021 316c3.012 1.506 3.572 4.026 5 7 2 3 2 3 5 4 2.893 7.461 2.651 16.107 2 24h-2c-.15-4.177.009-8.322.125-12.5L1031 335h-2l-1.937-3.5L1025 328h-3c-4-4-4-4-5-8h4z"/><path fill="#daab95" d="M752 433c1.247 4.988.084 6.406-2 11a218 218 0 0 0-1.937 7.375c-1.897 7.348-4.674 13.847-8.063 20.625-.569 3.848-.951 7.696-1.34 11.566C738 487 738 487 735 490c.964-19.606 8.591-39.44 17-57"/><path fill="#cc7456" d="M835 433h2l1 4c-4 3-4 3-8 3v3h-2l-.5 3-.5 3h-2v5l-2 3h-2v5h-1c-.266-4.603-.105-6.79 2-11l-2-1-1-5c4-3 4-3 7-3l1-3h4v-2h2v-2h2z"/><path fill="#d3947c" d="M841 671c4.625-.437 4.625-.437 9 0-2.31 9.24-8.832 15.246-16 21-5 2-5 2-9 1l5-1v-4c3-.625 3-.625 6-1v-2h3l-1-4h3l1-4 3-5-5 2z"/><path fill="#d79e87" d="M583 605c1.868 3.736.158 7.21-1 11l-5 2 1 4-5 2 1 3v5c-5 2-5 2-9 3l-2 1c1.981-3.962 4.365-7.391 6.922-10.996 3.175-4.59 6.16-9.296 9.16-14A363 363 0 0 1 583 605"/><path fill="#cf8468" d="M519 384h5v3h2l-1 4 2 4v2c-5.719-1.354-10.916-4.123-16-7l-2-5 5 2h4z"/><path fill="#d39e8b" d="M834 439c0 4.437-2.577 7.04-4.93 10.645C822.76 459.87 818.206 470.784 814 482h-1c-.698-6.424 1.31-11.226 4-17h2v-5l2-3h2l1-4 1-4h2l.5-3 .5-3h2v-3z"/><path fill="#d1937c" d="m504 189 4 2c.4 2.323.74 4.657 1 7h2v4l4 1 5 2v5l2 3-2 5c-4.254-4.254-6.753-9.28-9.687-14.5l-1.838-3.207C504 192.371 504 192.371 504 189"/><path fill="#d4a18a" d="m873 112-3 .875-3 1.125v2c-3 2-3 2-5.812 2.75-4.058 1.591-6.205 4.131-9.188 7.25h-2l-.312 3.375L849 133l-5 2c2.471-9.638 7.956-15.568 16.219-20.59 4.75-2.408 7.506-3.729 12.781-2.41"/><path fill="#ddb09c" d="m965.25 374.75 4.816-.023 8.716.014C982 375 982 375 984 377q3.493 1.025 7 2v1c-3.005-.284-6.004-.63-9-1-14.846-1.785-28.966-1.984-43.867-1.191L933 378v-1c10.808-1.931 21.288-2.305 32.25-2.25"/><path fill="#d49983" d="m796 210 2 1-2 5h-2l-2 4h-3v2c-4.377 2.626-8.162 4.464-13 6l-4-1 4.688-2.875c5.876-3.71 11.26-7.915 16.66-12.281z"/><path fill="#dbae9c" d="M732 546c3.197 4.796 3.173 7.68 3.375 13.5.343 6.984 1.348 12.858 3.625 19.5.36 2.663.703 5.329 1 8h1c.407 2.66.75 5.328 1.063 8l.535 4.5.402 3.5c-2.938-4.407-3.734-9.344-4.937-14.437l-.804-3.381c-3-12.943-5.497-25.853-5.259-39.182"/><path fill="#d49980" d="M860 325v3c-3 2-3 2-6 2l-2 4c-4.061 2.41-7.236 3.903-11.937 4.5L837 339l-1 4-1-2-2-1c22.833-15 22.833-15 27-15"/><path fill="#d29d86" d="M376 356h3c4 5.143 4 5.143 4 9l4 1 1 4c1.986.706 3.988 1.369 6 2l7 7c-10.28-2.056-16.686-8.004-22.54-16.45C377 360 377 360 376 356"/><path fill="#daae98" d="M492 306c15.656 1.447 30.658 6.694 45 13v1h-6v-2a229 229 0 0 0-8-1c-5-.937-5-.937-9-2v-2l-3-.5-3-.5v-2a138 138 0 0 0-8-1c-2.343-.26-4.682-.574-7-1z"/><path fill="#da9d85" d="M599 560h1c.724 6.223-1.24 11.406-3.223 17.207C596 580 596 580 597 582l4-1c1 2.875 1 2.875 1 6l-4 1v-3h-2l1 3c-3 3-3 3-7 4 0-4.686 2.097-8.674 3.883-12.922 1.883-5.189 3.039-10.558 4.285-15.93z"/><path fill="#d39983" d="M803 295c-26.231 12.59-26.231 12.59-31 11v-2l4-.437 4-.563v-3c5-2 5-2 9.313-3.062L793 296v-1c7.561-1.22 7.561-1.22 10 0"/><path fill="#cf886d" d="M520 218h3l1 4 3 1 4 4 2 1 1-5 2-1 2 1v3h-3c-1.437 3-1.437 3-2 6h4v5h-2l-1-3-2.79-1.34c-3.713-1.92-5.216-3.814-7.585-7.222l-2.086-2.942C520 220 520 220 520 218"/><path fill="#d19880" d="m501 378 1 2 2 1h-2l1 2 2.875.938C509 385 509 385 512 388c-4.421 1.474-7.538-.388-11.77-1.883-2.958-1.023-5.968-1.89-8.98-2.742L487 382v-2l-3-1c1.143.095 2.287.19 3.465.29 1.476.11 2.952.22 4.473.335l4.464.352L500 380z"/><path fill="#d09781" d="m884 219 3 2c-2.888 5.437-7.225 10.078-11.125 14.813l-3.758 4.582C869 244 869 244 867 245l-1-4h2l3-5 2-3h3v-4h2l1-4h2l1-4h2z"/><path fill="#d39c86" d="M655 627c1 3 1 3-.14 5.711l-1.755 3.234c-.625 1.16-1.251 2.318-1.896 3.512l-2.021 3.668-1.987 3.691c-4.926 9.047-4.926 9.047-7.201 10.184.25-4.437.25-4.437 1-9l4-1v-6h2v-4h2v-4h2v-2h3z"/><path fill="#d09982" d="M562 636c2.011 4.022-.076 8.817-1 13h-2c-.149 3.33-.167 6.667-.125 10l.055 5.625L559 669l-1-2h-2c-1.134-11.247-.384-21.423 6-31"/><path fill="#daaa97" d="m786 681 5 4v-4l3 1v3c3 3 3 3 8 5l1 2c5.703 1.9 11.978 1.47 17.95 1.719L825 694v1c-11.207 1.45-21.07 1.023-31-5-4.5-3.625-4.5-3.625-8-7z"/><path fill="#d59c85" d="M552 327c5.714 1.368 10.35 4.446 15.313 7.5l4.863 2.969C576 340 576 340 577 342c-3-.375-3-.375-6-1v-2l-4.562-.375L562 338l1-4c-3.312-.187-3.312-.187-7 0l-2-1v-4l-3-1z"/><path fill="#dcb3a1" d="m497 127 1 4-1.883 2.602c-2.883 4.627-2.797 8.363-2.992 13.773l-.242 5.46L493 157h2v6h2c.083 2.665.083 5.335 0 8-6.127-9.19-7.221-21.26-6-32 1.22-4.52 2.623-8.623 6-12"/><path fill="#d1876e" d="M811 467h2v2h2l1-2v6l-2 2a94 94 0 0 0-.937 6.375c-.876 6.73-2.23 13.09-4.063 19.625h-1c-.228-5.178-.345-8.31 2-13q.57-3.49 1-7l1-5h-3c.475-7.475.475-7.475 2-9"/><path fill="#d48a6f" d="M660 444c2.483 2.483 3.073 4.618 4.188 7.938l1.105 3.214C666 458 666 458 665 461v2l-1 3-3-2-2 1-3-2c.063-3.187.063-3.187 1-6l4 1c-.25-4.687-.25-4.687-1-10z"/><path fill="#c67254" d="M811 688c4.404 1.17 8.68 2.56 13 4a100 100 0 0 0 6-1c-4.058 4.058-8.928 3.167-14.375 3.188l-5.086.042C806 694 806 694 801 692v-1l3.875-.437C809 690 809 690 811 688"/><path fill="#d08266" d="M833 624c5.431 2.897 9.493 5.91 13 11l-1 2-1-1-2 2a349 349 0 0 1-4-5h-6c-.452-6.097-.452-6.097 1-9"/><path fill="#d39e8b" d="m767 655 5 2 1 5 4 1c.625 3.063.625 3.063 1 6h2c3 4 3 4 3 7h2l1 5c-7.793-7.306-13.778-15.73-19-25z"/><path fill="#bf7156" d="M694 245c12.04.333 24.006.066 36-1-8.552 5.701-23.667 3.184-33.625 3.188l-5.645.037-5.332.005-4.885.013L677 247v-2c5.65-1.884 11.246-1.15 17 0"/><path fill="#c47457" d="M471 304c3.009.243 6.008.599 9 1q3.25.264 6.5.5c5.5.5 5.5.5 6.5 1.5l5.563 1 5.437 1v1c-4.344-.012-8.66-.103-13-.25l-3.7-.082c-6.584-.22-12.336-.53-18.3-3.668z"/><path fill="#d29580" d="M756 631c4 3 4 3 5 8l3 1 3 15c-3.351-3.926-5.85-8.03-8.312-12.562-.36-.65-.36-.65-2.176-3.942C755 635 755 635 756 631"/><path fill="#d08d73" d="M651 425c2.504 3.338 4.366 6.372 6.25 10.063l1.64 3.16C660 441 660 441 659 444h-3v-3l-2-1v3h-2l-1-5h2q-1.474-5.508-3-11z"/><path fill="#e2baa7" d="M824 179c0 3.738-1.285 5.703-3 9l-2 5a655 655 0 0 1-8 6c-2.954 2.914-5.828 5.888-8.68 8.902L800 210l-2-1c2.178-2.3 4.45-4.51 6.75-6.687 7.08-6.916 12.77-14.105 18.25-22.313z"/><path fill="#d79d86" d="M665 601c1.653 4.96-1.052 9.412-2.812 14.125l-1.12 3.113c-2.807 7.632-2.807 7.632-5.068 8.762l.5-3.625C657 619 657 619 657 613c.875-3.375.875-3.375 2-6h2l1-2h2z"/><path fill="#d7a693" d="M673 565h1c.252 4.942-.33 9.235-1.496 14.027l-.943 3.897-.999 4.014-.986 4.095c-1.794 7.329-1.794 7.329-2.576 9.967h-1c.598-19.598.598-19.598 4-23q.514-4.499 1-9z"/><path fill="#c57d61" d="M603 551h1c.266 4.603.105 6.79-2 11-1.102 5.174-2.045 10.368-3 15.57-1 4.43-1 4.43-3 6.43-1.125-4.501-.646-5.695.875-9.937 1.597-4.825 2.432-9.113 2.688-14.188C600 554 600 554 603 551"/><path fill="#d39c84" d="M762 310c-3.802 2.535-7.227 3.132-11.687 4.125l-4.7 1.07c-4.32.754-8.24.955-12.613.805l2-3 5-1v-1c2.349-.245 4.705-.418 7.063-.562l3.972-.254c3.663-.17 7.3-.217 10.965-.184"/><path fill="#d08a6f" d="m637 406 4 2 1 3 3 1c1.64 2.434 1.64 2.434 3.25 5.438l1.64 2.996L651 423l-1 2c-3-3-3-3-6-7l-4-2-1 2v-3l-2-1h2v-4h-2z"/><path fill="#d8a38d" d="M606 366c4.962 2.481 8.237 6.027 12 10l3.875 4.063c3.004 3.784 4.246 6.247 5.125 10.937l-3-2v-2l-3.062-.875L618 385l1-4h-2l-1.125-2.5c-2.548-4.756-6-7.752-9.875-11.5z"/><path fill="#d7a794" d="m743 603 3 1c1.077 2.973 2.053 5.983 3 9a840 840 0 0 0 4.793 11.547C755 628 755 628 755 633c-3.351-4.469-5.06-8.688-7.125-13.875l-2.133-5.305c-2.634-7.289-2.634-7.289-2.742-10.82"/><path fill="#c26e50" d="m383 330-1 5-4 2c-.61 4.352-.61 4.352-.75 9.625l-.172 5.29L377 356c-2.367-4.733-2.3-7.795-2.312-13.062l-.051-4.848C375 334 375 334 378 331c2-1 2-1 5-1"/><path fill="#d9ac97" d="m568 270 4 2 3.125 1.438C578 275 578 275 580 278l5 1 1 3 5 1 4 2 1 4c-10.226-2.984-18.86-10.327-27-17z"/><path fill="#d9a996" d="m1019 369 4 2c-9.847 7.964-18.32 11.005-31 10v-1c3.13-.033 6.247.07 9.375.16L1004 380v-2h5v-3h4l1-2h3v-3z"/><path fill="#d19177" d="M819 285c-10.333 9-10.333 9-16 9l-1-3h3v-2h4c-1-3-1-3-2-5 3.752-1.876 8.067.143 12 1"/><path fill="#dbac95" d="M770 402h1v6l-4 1-1.5 5.5-1.5 5.5-4 1c-1.75 3.063-1.75 3.063-3 6l-1-3c1.695-3.328 1.695-3.328 4.125-7.25l2.383-3.89c2.394-3.709 4.846-7.327 7.492-10.86"/></svg>