<svg xmlns="http://www.w3.org/2000/svg" width="1408" height="768"><path fill="#c56342" d="M842.477 111.542c42.734-10.55 103.983-25.167 144.797-2.15 14.222 10.36 17.674 27.96 20.35 44.445 3.64 25.106 4.22 50.33 4.146 75.66l-.01 4.302c-.131 37.834-2.002 75.544-4.33 113.298-1.344 22.022-2.264 44.032-2.886 66.087l-.133 4.696q-.325 11.661-.635 23.322c-1.276 47.454-3.04 94.869-5.63 142.27q-.305 5.625-.606 11.251a4300 4300 0 0 1-.967 17.285q-.18 3.14-.352 6.283a1600 1600 0 0 1-.497 8.48l-.279 4.777L995 635c-2.748 1.374-4.942 1.13-8.02 1.134l-3.892.013-4.299-.002-4.51.01q-7.434.013-14.869.013l-10.357.01q-10.899.009-21.798.007c-9.244 0-18.487.014-27.73.031q-10.725.015-21.449.013-5.103 0-10.207.013c-49.551.103-49.551.103-73.494-4.554l-3.552-.674c-27.156-5.304-54.085-15.69-76.557-31.998-5.648-4.024-5.648-4.024-9.012-3.98-4.345 1.288-7.463 3.52-11.191 6.089C662.087 622.26 623.668 629.339 586 623c-32.127-6.871-59.224-21.47-83-44q-2.774-2.509-5.562-5c-2.53-2.28-5.03-4.593-7.438-7v-2h-2c-51.955-60.778-70.006-139.966-64.504-218.383 5.407-61.962 28.942-126.168 74.086-170.191C500 174 500 174 502.438 170.875c4.225-4.74 9.411-8.198 14.562-11.875l3.18-2.297c33.627-23.843 74.668-35.781 115.883-29.64 23.178 4.525 43.714 12.215 63.23 25.714 3.522 2.112 5.633 3.165 9.707 3.223 3.813-2.312 3.813-2.312 6.098-3.977 6.355-4.43 13.213-8.121 19.902-12.023l5-3c19.725-8.367 41.577-16.577 63.023-18.435 13.52-1.239 26.29-3.704 39.454-7.023m-71.79 92.52c-1.116.52-2.233 1.038-3.384 1.573-8.063 3.884-8.063 3.884-10.303 8.365 2.078 3.992 2.078 3.992 5.25 8.875 6.687 10.621 11.827 21.6 16.75 33.125l1.707 3.844c10.868 25.463 17.199 55.176 19.574 82.708.425 4.599 1.26 8.928 2.317 13.422 2.764 14.07 2.764 14.07-.598 20.026-9.07 4.769-20.776 3.329-30.686 2.86-5.234-.234-10.433-.246-15.671-.223a1205 1205 0 0 1-9.858-.223l-4.782-.022c-7.372-.439-7.372-.439-11.003-2.392-1.493-5.161-.758-9.751 0-15-1.309-29.105-7.649-63.778-23-89l-3-1c-7.905 9.838-11.512 22.04-15 34l-1.426 3.105c-19.719 48.784-10.926 112.475 8.332 159.555 17.493 38.678 46.66 69.85 86.211 86.024 23.37 8.725 47.415 10.643 72.172 10.546h5.898q6.108-.003 12.216-.024c5.23-.017 10.458-.021 15.687-.02 5.004 0 10.008-.01 15.012-.018l5.703-.003 5.213-.02 4.61-.011C922 564 922 564 923 563c.1-4.775.134-9.536.127-14.312l.005-4.628c.004-5.164 0-10.327-.003-15.49l.006-11.05q.005-13.488 0-26.977-.003-10.957-.001-21.915v-3.144l.001-6.322q.004-29.68-.006-59.36-.005-25.496.001-50.991.01-29.57.005-59.14l-.001-6.299v-3.131q-.002-10.952.002-21.903.004-14.724-.005-29.449l.002-10.845q.002-7.365-.006-14.732l.007-4.399c-.02-9.799-.02-9.799-1.134-10.913a204 204 0 0 0-7.767-.145l-5.072-.02-5.552-.003-5.696-.01q-6.003-.008-12.005-.007-6.105 0-12.208-.02c-5.885-.02-11.769-.024-17.653-.025l-5.429-.022c-28.69.05-53.977 4.11-79.93 16.315M558 219l-3.75 3c-3.74 3.453-6.968 7.106-10.25 11l-2.383 2.723C525.783 254.099 514.463 277.029 507 300l-1.39 4.254c-17.337 55.926-14.27 120.201 11.503 173.082A394 394 0 0 0 523 488l2.375 4.563C531.502 502.92 538.686 512.316 547 521l2.07 2.262C561.766 536.683 577.295 545.25 595 550l3.75 1.09c18.95 4.058 38.802-.221 55.25-10.09-1.05-3.004-1.05-3.004-3.312-6.562l-2.364-3.825L646 527c-5.198-8.446-9.702-17.07-14-26l-1.973-4.012C606.003 445.931 600.91 385.31 609 330l.454-3.115C615.25 288.413 628.68 251.61 650 219c3-5 3-5 4-9-30.631-18.379-68.87-13.763-96 9"/><path fill="#d27251" d="M699.293 152.68C703 155 703 155 706.488 156.133L709 157v3c1.906 2.016 1.906 2.016 4.5 4.25l2.773 2.418L719 169c13 11.228 24.337 23.769 34 38v2h5v-2l4-1-4-2v-2l-3-1q3.482-.622 7-1v2c3.5.75 3.5.75 7 1v-2c3 .375 3 .375 6 1-4.571 3.428-9.342 5.65-14.492 8.086L758 212c1.967 4.917 4.337 9.028 7.062 13.562 5.746 9.845 10.482 19.942 14.938 30.438l1.645 3.715C794.665 290.255 810.258 342.967 802 376c-2.833.723-2.833.723-6.675 1.025l-4.338.347c-14.94.899-29.848 1.5-44.815 1.046l-4.65.022c-4.408-.228-7.537-.53-11.522-2.44-4.499-6.713-5.683-13.591-5.506-21.566l1.01-4.586c1.595-9.156 1.058-16.148-1.192-25.098l-.785-3.54c-3.718-16.386-9.16-32.107-16.527-47.21v-2l-5 1 .562-3.813c.563-6.673-1.926-9.935-5.562-15.187l-3.188-5.313C684.692 234.442 672.013 220.098 657 212l-4 2v-4c-2.746-1.598-2.746-1.598-6.438-3.063l-3.87-1.546c-21.703-8.176-42.634-7.29-63.817 1.796-7.748 3.6-14.251 7.442-20.875 12.813l-3.25 2.5c-3.583 3.258-6.623 6.8-9.75 10.5l-2.387 2.727C526.782 254.104 515.463 277.03 508 300l-1.39 4.254c-17.337 55.926-14.27 120.201 11.503 173.082A394 394 0 0 0 524 488l2.375 4.562C532.503 502.921 539.691 512.31 548 521l3.687 4c12.718 11.796 26.63 19.524 43.313 24l3.828 1.07c4.441.99 8.63 1.342 13.172 1.555l4.562.227L620 552l-3 2a124 124 0 0 0 7 11l2.129 3.008c4.5 6.167 9.334 11.883 14.535 17.469 2.003 2.164 3.928 4.4 5.836 6.648 5.598 6.197 11.328 11.572 18.5 15.875l1 2c4 .875 4 .875 8 1l1-4 1 2 3 1c-39.16 18.821-80.725 18.87-121.5 4.875-20.71-7.884-38.53-20.742-54.5-35.875a1166 1166 0 0 0-5.563-5c-2.528-2.28-5.03-4.593-7.437-7v-2h-2c-51.955-60.778-70.006-139.966-64.504-218.383 5.406-61.962 28.942-126.168 74.086-170.191C500 174 500 174 502.437 170.875c4.226-4.74 9.412-8.198 14.563-11.875l3.18-2.297c53.948-38.252 124.012-41.666 179.113-4.023"/><path fill="#b65e40" d="M656 543c4.988 4.306 8.986 9.688 13.184 14.746C672 561 672 561 675.348 564.286 678 567 678 567 678 569l4 2c2.843 2.707 5.532 5.536 8.246 8.371C693 582 693 582 698 585v2h2v2l3 1-1 3h-2v-2c-2.937-.75-2.937-.75-6-1l-1 2-2 2 2 4-4 2-1 3-3 1v3c-4 2-4 2-9 2l-1-1-1 3c-4 .375-4 .375-8 0l-1-3-5-2c-15.732-13.389-28.768-28.66-40.375-45.687l-2.398-3.512L616 554c3.963-1.981 7.39-2.921 11.688-3.937 4.544-1.096 8.837-2.25 13.25-3.813 4.526-1.393 8.356-1.322 13.062-1.25z"/><path fill="#ba6041" d="M656 211c20.2 8.783 39.528 33.38 48 53-.182 3.416-.472 5.943-2 9h-2l-1 2-5-1v3h-2v-3l-2 1q-.617 4.487-1 9c-4.376-4.133-8.072-8.217-10-14h-2c-4-4.47-4-4.47-4-7h-2v-2l-4-2v-2l-4-2-3-3v-2l-4.312-1.375C651 247 651 247 648 243l-3.687-.812L641 241c-1.689-8.612 4.173-16.292 8.184-23.523C651 215 651 215 655 214z"/><path fill="#e0b8a9" d="M836.1 112.991c43.97-11.495 108.743-27.03 151.067-3.585 13.49 9.663 17.112 25.417 19.962 40.949 4.24 26.198 4.737 52.66 4.64 79.141l-.01 4.303c-.142 37.834-2.001 75.543-4.33 113.298-1.343 22.022-2.263 44.032-2.885 66.087l-.133 4.696q-.325 11.661-.635 23.322c-1.276 47.454-3.04 94.869-5.63 142.27q-.305 5.625-.606 11.251-.466 8.643-.967 17.285-.18 3.14-.352 6.283a1600 1600 0 0 1-.497 8.48l-.279 4.777L995 635c-2.748 1.374-4.942 1.13-8.02 1.134l-3.892.013-4.299-.002-4.51.01q-7.434.013-14.869.013l-10.357.01q-10.899.009-21.798.007c-9.244 0-18.487.014-27.73.031q-10.725.015-21.449.013-5.103 0-10.207.013c-49.545.103-49.545.103-64.869-3.242v-1c3.12-.295 6.247-.51 9.375-.688l5.273-.324C822 631 822 631 824 633c44.792 15.505 111.878 28.761 157.177 10.003 14.03-7.465 19.727-18.708 24.25-33.3 18.158-63.781 12.653-135.79 10.47-201.256-.77-23.575-.646-47.008.115-70.581C1021.71 156.676 1021.71 156.676 994 117c-16.002-15.319-39.196-17.264-60.35-17.397-32.066.934-63.44 6.946-94.372 15.12-11.45 2.985-22.678 4.847-34.457 5.86C800 121 800 121 795 122a195 195 0 0 1-7 0c4.757-2.379 8.793-2.843 14.062-3.563l5.41-.753a159 159 0 0 1 10.325-.962c6.29-.564 12.207-2.133 18.303-3.73"/><path fill="#d5a594" d="M842.174 185.574c60.13-8.785 60.13-8.785 81.826 1.426 12.227 11.297 11.986 30.379 12.843 45.851.304 9.117.237 18.193.017 27.308a546 546 0 0 0-.043 22.166l.166 9.571c.33 20.024.085 40.01-.349 60.029-.358 17.216-.191 34.365.34 51.576 4.298 142.188 4.298 142.188-15.33 164.132-12.992 10.72-30.734 11.046-46.764 9.644-17.52-1.896-34.332-5.621-51.135-10.885-3.983-1.168-7.647-1.87-11.745-2.392-2.698-.912-5.375-1.895-8-3v-1c3.345.274 6.665.629 10 1l4.025.397c8.412.839 16.76 1.836 25.115 3.128 57.956 8.65 57.956 8.65 78.86-1.525 12.965-12.38 11.838-34.546 12.274-51.118.05-7.097-.09-14.175-.296-21.267a533 533 0 0 1-.146-21.931l.04-3.145.082-6.325c.244-19.812-.057-39.588-.544-59.393-.406-17.028-.351-34.004.042-51.031.456-19.733.632-39.435.353-59.172l-.085-6.302-.043-3.133c-.08-7.314.045-14.608.242-21.92 1.244-50.549 1.244-50.549-8.978-66.387-8.693-8.499-22.396-8.227-33.851-8.495-17.142.293-34.016 2.236-50.942 4.88-8.684 1.246-17.41 1.986-26.148 2.739q-3.406.31-6.812.625L803 192l1-2q4.493-.569 9-1l2-1c2.428-.162 4.86-.278 7.291-.375 6.704-.354 13.244-1.06 19.883-2.05"/><path fill="#d37e5f" d="M658 608c5 2 5 2 10 5v-2h6l1-4 1 2 3 1c-38.45 18.48-78.916 18.716-119.187 5.75L555 614v-1c2.767-.215 5.54-.37 8.313-.5 8.36-.391 8.36-.391 11.687-1.5l1 3 2 1 2-5 4 2v-2h2v3h2v3c-4 .188-4 .188-8 0l3 1 1 3c9.69 2.985 19.899 2.257 29.938 2.188l5.423-.002c13.217-.045 13.217-.045 16.639-1.186v-2h3v2h2v-3h-3l2-4 5-1-3-2c3-2 3-2 8-3 2.918-1.459 4.855-.678 8 0"/><path fill="#c7765a" d="M707 589h2v2h4l3 1 4-1 5 1-2 3 3 1v2l-2 2 2 5 5 1c3.313 1.438 3.313 1.438 6 3v2c5-2 5-2 7-3l3 3v2l3 1 3 1v2l3.563-.562L760 616l-1 3 4 1v2l4 1c-5.814 1.938-12.27-2.516-17.687-4.812l-4.267-1.8c-11.117-4.787-20.973-10.255-30.78-17.372-5.65-4.025-5.65-4.025-9.024-3.977-4.285 1.27-7.342 3.459-10.992 6.024C687.187 606 687.187 606 685 606l-1-3h4l1-4 4-1v-2l-3-1 2-5c4.125.063 4.125.063 8 1v2h2v-2h5z"/><path fill="#d78f75" d="M481 195v7l1 2-5-1c.134 3.005.653 5.305 2 8l-1 3h-2v5c-3.437.688-3.437.688-7 1l-1 2h-3v5c-2.375 2.813-2.375 2.813-5 5h-2c-.25 5.438-.25 5.438 0 11l2 1v2h-2v2h-4c-1.875 3.938-1.875 3.938-3 8l2 1-1 4h-3v-2h-2v4h-2v3l-3 1c.826-4.13 1.774-7.108 3.441-10.902l1.507-3.427 1.615-3.608 1.656-3.703c3.811-8.423 7.835-16.537 12.781-24.36l2.688-4.293c4.785-7.523 9.665-14.805 15.312-21.707"/><path fill="#d17250" d="m729 286 4 1c.907 7.646-.714 15.68-3 23l-3 3-1-3c-.08 3-.139 6-.187 9l-.106 5.063L726 328h3c.337 4.297-.15 7.746-1 12h-1a871 871 0 0 1-2.687-13.375c-2.078-10.488-4.557-20.39-8.31-30.414C715 293 715 293 716 290v2h3v4c2.938-.937 2.938-.937 6-3l1-5 3 1z"/><path fill="#d99a84" d="M795 309h1c3.07 15.178 5.307 30.425 6.375 45.875l.256 3.63c.379 6.32.379 6.32.369 9.495l.5 4.3-1.5 3.7c-5.209 1.422-10.477 1.264-15.848 1.273l-4.838.067q-5.076.047-10.151.033c-5.21.002-10.41.121-15.618.248q-4.915.025-9.83.027l-4.763.143c-7.396-.127-7.396-.127-10.952-1.791-1.495-4.826-1.06-9.104 0-14h1l-.265 2.833c-.311 3.584-.446 6.636.265 10.167 4.147 1.043 6.18.919 10.313.313q3.517-.355 7.039-.668l4.055-.377c5.335-.311 10.587-.213 15.929-.069l5.92.142q5.93.159 11.857.402l5.492.1 4.974.163L800 374c.029-4.253.029-4.253-1-9q-.062-4.875 0-9.75c.077-20.902.077-20.902-2.527-26.578-1.718-4.282-1.807-7.515-1.723-12.11.015-1.421.03-2.843.047-4.308z"/><path fill="#de987d" d="m580 610 4 2v-2h2v3h2v3c-4 .188-4 .188-8 0l3 1 1 3c7.148 1.931 13.884 2.225 21.258 2.16l3.118-.016c3.25-.017 6.5-.048 9.749-.082q4.927-.042 9.856-.07 4.431-.03 8.863-.074L641 622v1c-29.087 5.636-58.473 1.01-86-9v-1c2.767-.215 5.54-.37 8.313-.5 8.36-.391 8.36-.391 11.687-1.5l1 3 2 1z"/><path fill="#d17f62" d="M630 190h2v2h2l-.625 3.063L633 198l4-1 3 1-1 5c-4.187-.625-4.187-.625-9-2-17.726-3.828-35.412-1.277-51.32 6.89C576 209 576 209 573 208l4-3v-2l3-3c3.005.28 6.007.61 9 1v-2h5v-2c5.812-.123 11.591-.038 17.402.078 3.2.04 6.4-.01 9.598-.078v-2h4v-2l5 1z"/><path fill="#e5baaa" d="M501 313h2c-.426 6.481-1.681 12.762-2.937 19.125-6.243 33.916-5.885 69.827 3.125 103.285C504 439 504 439 503 443v-2h-2c-2.07-5.174-2-8.526-2-14h-2c-.29-2.93-.454-5.871-.562-8.812-.344-8.907-.344-8.907-1.438-12.188-1.849-19.581-1.183-39.43-.625-59.062l.093-3.896c.1-3.018.304-6.032.532-9.042h2c.563-2.844.563-2.844 1-6.5s.438-3.656 1-6.5h2z"/><path fill="#dfab99" d="M615 295c1.242 4.97.73 8.959 0 14h-2c-1.36 8.297-1.004 16.616-.84 25-.16 4-.16 4-2.16 6-2.013 7.02-2.28 13.787-2.23 21.035v3.392q.006 3.52.024 7.042c.019 3.614.02 7.227.02 10.842l.018 6.85.003 3.294c.017 2.516.085 5.03.165 7.545h1c-.066 2.835-.204 5.67-.375 8.5l-.273 4.781L608 417h-1c-6.056-39.741-2.61-83.273 8-122"/><path fill="#cd8268" d="M684 432c2.541 3.812 3.336 7.453 4.563 11.875 3.795 12.902 8.66 25.342 15.214 37.113C706 485 706 485 706 487h-5v-6h-2v-4l-4.562-.312L690 476c.125-3.312.125-3.312 1-7l-3-4 1-4c-.312-5.75-.312-5.75-1-11h-2c-1.523-6.093-2.232-11.729-2-18"/><path fill="#d47f62" d="m443 477 3 1c-.312 3.313-.312 3.313-1 7v4h2v7l2 1c2 3 2 3 2 7h3v-2h2v2l4-1 4 1c-1 5-1 5-3 9l-2 1 2 4c-.375 3.25-.375 3.25-1 6-3.99-5.32-6.573-11.08-9.437-17.062l-1.737-3.569c-9.42-19.588-9.42-19.588-7.826-24.369l2 1z"/><path fill="#d4917a" d="M679 343h1c-.1 2.544-.26 5.085-.437 7.625-1.346 24.116-1.317 48.003 3.539 71.766C684 427 684 427 684 432l-2-1 .125-3.562L682 424h-4c.75-2.687.75-2.687 2-6v-5l-3-1-1 4c-3-1-3-1-4-2-.375-3.5-.375-3.5 0-7l5-1c.438-4.5.438-4.5 0-9l-2-1v-2h-2l1-4 2-1c.223-2.873.31-5.756.344-8.637l.09-5.377.066-5.673q.064-5.507.156-11.012l.057-4.964c.256-3.874.76-6.788 2.287-10.337"/><path fill="#daa28d" d="M426 326h1c.128 3.165.176 6.333.188 9.5l.042 5.344L427 345h-2a183 183 0 0 0-.047 11.004l.062 3.467q.068 3.669.151 7.337c.082 3.658.145 7.316.205 10.975.249 13.17.896 26.2 2.218 39.307.39 4.67.56 9.226.411 13.91h-1a272 272 0 0 1-1.5-9.187l-.781-5.168c-3.78-29.69-3.333-61.07 1.281-90.645"/><path fill="#c46747" d="m801 185 1 4c3.665.124 7.336.126 11 0v1l-4.437.438L804 191l-1 2a164 164 0 0 1-8 2.375c-6.288 1.771-12.05 3.911-18 6.625l-2-1 1-2h4v-2h2l-1-5c4.922-2.953 8.467-3.831 14-5 4-2 4-2 6-2"/><path fill="#d38264" d="M441 267c1 4 1 4 0 6l5 1-2 4h-2v2l-2 2v2h2v-2h4v2h-2v5h-2v3h-2v-2h-2l-1-3c-1 5-1 5-.875 9.813-.185 7.687-1.687 11.75-7.125 17.187.6-7.57 2.296-14.527 4.313-21.812l.896-3.33c2.014-7.38 4.316-14.62 6.791-21.858"/><path fill="#cd8268" d="M691 295c1.42 4.257-.061 6.376-1.625 10.563-3.224 9.25-5.114 18.485-6.813 28.103A528 528 0 0 1 681 342h-1c-.033-4.918.07-9.829.16-14.746L680 323l-2-1c-1.211-4.844-1.42-9.19 0-14h5l2-1 1-5 2 1a131 131 0 0 0 3-8"/><path fill="#be6343" d="m699 272 3 1c-1.807 4.517-3.797 8.911-5.832 13.328C695 289 695 289 693.812 292.688L693 295h-2l-1 2v-6c-4 .25-4 .25-8 1v-2h3l1-3 1 2h2c.108-3.626-.074-7.215-.223-10.84L689 275l3-1v3h2v-3l5 1z"/><path fill="#d89a82" d="M528 245h2l2 5c-1.133 2.453-1.133 2.453-3.125 5.25C519.37 269.764 511.673 286.291 507 303c-2-4-2-4-1-8l.438-3.25L507 289h2l.438-3.5.562-3.5h3a202 202 0 0 0-1-7h2l1-4h2v-2h2v-4h2l-1-5h2l1-4 4-1v-4h2l-.5-3z"/><path fill="#ce876f" d="M757 541c4.278 1.711 8.175 3.622 12.25 5.75 9.697 4.884 19.694 8.767 30.25 11.352l3.5.898v1c-4.5.188-4.5.188-9 0v-2l-3 .5-3 .5v-2c-3.14-.107-6.237.074-9.375.223L776 557v-3l-5 2-3-1-1-5-2-1 1-2-2.75-.312L760 546z"/><path fill="#d3937d" d="M804 560c4.682.384 9.333.918 13.995 1.491 12.284 1.432 24.408 1.833 36.767 1.888l6.039.051c5.23.046 10.458.08 15.688.113q11.144.069 22.289.162 5.918.049 11.835.08l5.335.041 4.725.03L924 564v1a303 303 0 0 1-9.528.13l-3.069.005q-5.062.004-10.126-.002l-7.012.003q-7.37.002-14.741-.006-9.44-.006-18.878.004-7.251.004-14.503 0-3.479 0-6.957.002-4.876.003-9.753-.007l-5.605-.002c-7.291-.192-13.085-1.288-19.828-4.127z"/><path fill="#cf8971" d="M725 605c4.547.433 8.077 1.665 12 4v2c5-2 5-2 7-3l3 3v2l3 1 3 1v2l3.563-.562L760 616l-1 3 4 1v2l4 1c-4.132 1.377-5.809.105-9.793-1.57l-4.1-1.72-4.294-1.835-4.237-1.766c-6.871-2.906-13.455-5.774-19.576-10.109z"/><path fill="#d48366" d="M481 195v7l1 2-5-1c.134 3.005.653 5.305 2 8l-1 3h-2v5c-4.562 1.25-4.562 1.25-9 1-.248-6.33 2.872-10.328 6.438-15.312.988-1.4 1.977-2.798 2.996-4.239C479 197 479 197 481 195"/><path fill="#d79278" d="M518 591c4 .313 4 .313 8 1v2l3 1 1 2h6a749 749 0 0 1 4 6c3.75 1.25 3.75 1.25 7 2v2c3.378.637 6.562 1 10 1l-2 5c-13.552-2.956-26.186-12.623-37-21zm21 9 3 1Z"/><path fill="#ca7f66" d="M641 232c1.559 3.118.677 5.678 0 9h-2l1.125 3.5.875 3.5h-4c-1 5-1 5 0 7l-1 3-4 2v3l-3 1-2-1c2.4-11.14 8.18-21.3 14-31"/><path fill="#d68b6f" d="M781 261c5.24 7.86 7.917 17.858 10 27l-1 4-1-2h-2l-.375-3.312C786 283 786 283 782 280l-1 4c-1-4-1-4-.437-8.25L781 272h-2v-2l-2-1 3-1v2h3l-2-1a128 128 0 0 1 0-8"/><path fill="#d78e73" d="m490 565 4.375 2.125L499 569l2-4h2c-1 4-1 4-2 7l3 2v2h4l2 3 4 2h-2c.375 3 .375 3 1 6-4.689-2.344-7.326-5.265-11-9q-3.989-3.514-8-7l-4-4z"/><path fill="#cc856d" d="m616 453 1 2h2a190 190 0 0 1 3 9l1 3-.125 3.625L623 474l3 1v6l1 1v6l2 1-2 3c-2.92-7.387-5.7-14.81-8.312-22.312l-1.551-4.426c-1.144-4.288-1.351-7.847-1.137-12.262"/><path fill="#db9b82" d="M586 130c-16 4-16 4-20.594 4.82L562 136l1 5-4 1-2 2c-3.666.044-7.334.04-11 0-2.01.272-4.018.572-6 1 10.277-7.708 32.768-18.308 46-15"/><path fill="#cb785d" d="M806 625h2l1 1c3 0 3 0 8-1l-1 4 3 1-1 2c-12.384.85-25.037.596-37-3v-1c5.13.008 10.253.081 15.38.215 2.875.038 5.75-.077 8.62-.215z"/><path fill="#d38164" d="M791 292c3.635 7.27 4.444 13.896 4 22l-2 1-1-4-3 2-1-5 1-1h-3v3h-2c0-5 0-5 2-8h2v-3h2c.414-2.32.749-4.656 1-7"/><path fill="#d99d86" d="m715 290 1 2h3v4h2v7h2c.41 4.166.511 8.317.656 12.5L724 319h2l-.062 4.5.062 4.5h3c.337 4.297-.15 7.746-1 12h-1a874 874 0 0 1-2.687-13.375c-2.08-10.462-4.543-20.387-8.211-30.414C715 293 715 293 715 290"/><path fill="#d79177" d="M540 145c-2 4-2 4-7 7v5c-5 3-5 3-7 3v-3l-4 1-1 3h-4l-1 3-4-1c22.537-18 22.537-18 28-18"/><path fill="#d9957b" d="m510 164 2 1a115 115 0 0 1-4 5l-3 5-3 1-1 3 4-1-3 5-5 1v-2l-4 1-1 4-6 3c2.139-4.278 4.395-6.562 7.813-9.875A147 147 0 0 0 505 168c2.688-2.437 2.688-2.437 5-4"/><path fill="#dda18a" d="M594 197c4.361-.009 8.648.102 13 .313l3.758.146A380 380 0 0 1 620 198v1c-2.727.165-5.457.28-8.187.375-12.36.648-22.11 2.855-33.133 8.516C576 209 576 209 573 208l4-3v-2l3-3c3.005.28 6.007.61 9 1v-2h5z"/><path fill="#d8977e" d="M642 129c12.967 1.742 26.475 5.77 38 12l-4 2-5-2v-2c-3.14-.107-6.237.074-9.375.223L659 139v-3h-6l-1-3a299 299 0 0 0-8-1v-2z"/><path fill="#d29782" d="M615 295c1.242 4.97.73 8.959 0 14h-2c-1.36 8.297-1.004 16.616-.84 25-.16 4-.16 4-2.16 6a626 626 0 0 0-2 9h-1c-.38-9.27.706-17.884 2.313-27l.646-3.867c1.34-7.82 3.022-15.46 5.041-23.133"/><path fill="#d1937d" d="m788 122-1 3c-2.73.66-2.73.66-6.187 1.063-4.51.54-8.623 1.13-12.813 2.937l-3 4c-5.697 4.197-12.257 3.27-19 3 2.514-2.514 4.722-3.126 8.074-4.312l3.713-1.32 3.9-1.368 3.842-1.367C781.453 122 781.453 122 788 122"/><path fill="#db977d" d="M704 268h2v2h4l2-2v3l5 2-2 3 1 3-2 1-1 4 3 1-1 5c-2.065-3.098-3.562-6.184-5.125-9.562l-1.633-3.504C707 274 707 274 707 272l-5 1z"/><path fill="#ca8066" d="M762 200v2c3.5.75 3.5.75 7 1v-2c3 .375 3 .375 6 1-4.508 3.38-9.206 5.796-14.2 8.379C758 212 758 212 757 214h-2l-1-5h4v-2l4-1-4-2v-2l-3-1c2-1 2-1 7-1"/><path fill="#d99f88" d="M501 313h2c-.567 8.644-2.457 17.127-4.062 25.625C498 344 498 344 497.5 349.188L497 353h-2c-.202-3.161-.26-6.332-.25-9.5l-.016-5.344L495 334h2c.563-2.844.563-2.844 1-6.5s.438-3.656 1-6.5h2z"/><path fill="#cb7d64" d="m724 512 2.066 2.11c4.34 4.276 8.916 8.287 13.461 12.343L742 529c-3.838 1.92-8.035-.02-12-1-3-3-3-3-3.062-7.187L727 517h-2z"/><path fill="#d78e74" d="M531 502c5.701 5.345 10.668 11.502 15 18h-5v-4l-3.875.625L533 517c-1.625-2.687-1.625-2.687-2-6l2-4h-2z"/><path fill="#d08e76" d="M626 263h1c.25 3.813.25 3.813 0 8l-3 3 1.063 4.625L626 283l-4 1-1 4-2 1-2 5c-1.27-3.81-.493-5.161.836-8.91l1.226-3.498 1.313-3.654c.425-1.21.85-2.42 1.29-3.667 3.129-8.858 3.129-8.858 4.335-11.271"/><path fill="#d79178" d="M466 534c4.875 1.563 4.875 1.563 10 4 2 5 2 5 1 9h2v3l3 3-1 3c-15-19.369-15-19.369-15-22"/><path fill="#da9b83" d="m443 477 3 1c-.312 3.313-.312 3.313-1 7v4h2v7l2 1c2 3 2 3 2 7l2 1-2 3a1724 1724 0 0 1-4.375-9.437l-2.46-5.31c-1.968-4.775-3.227-9.188-4.165-14.253l3 1z"/><path fill="#cd8c74" d="m784 190 3 1-1 4 2 1v-2c5.678-2.044 9.012-3.198 15-2-3.715 1.858-7.247 3.148-11.187 4.438l-4.016 1.32L784 199l-5.437 1.813L775 202l1-3h4v-2h2l-1-5z"/><path fill="#ca836b" d="m728 144 2 1-2.375 2.75C725 151 725 151 725 156l-3 1-1-3a136 136 0 0 0-9 2h-3c6.22-4.213 12.447-8.32 19-12"/><path fill="#bd7055" d="M692 590h5v2h2v3l-5 1h2c-1 5-1 5-4.937 7.813C687 606 687 606 685 606l-1-3h4l1-4 4-1v-2l-3-1z"/><path fill="#c37c62" d="M652 214v9c1 3 1 3 3 5l-5 1-1-4v4l-1 1-1 4-1-2h-4c1.63-4.073 3.349-7.498 5.563-11.25l1.878-3.203C651 215 651 215 652 214"/><path fill="#d78b6e" d="M640 614h2v2c5.678 1.032 11.242 1.09 17 1-6.714 3.357-13.434 5.63-21 5l-2-1v-2h3v2h2v-3h-3z"/><path fill="#d78f75" d="m549 222 2 5c-3.562 4-3.562 4-8 8l-3 3-2 2-1-5h4v-4h2q.508-4 1-8c2-1 2-1 5-1"/><path fill="#ce8870" d="M706 487c2.865 2.865 4.932 5.648 7.188 9l2.167 3.188C717 502 717 502 717 505c-3.937-1.062-3.937-1.062-8-3-1-4-1-4 0-7l-3 1c-.187-4.437-.187-4.437 0-9"/><path fill="#d89a83" d="M497 413c2.938 4.406 3.591 9.33 4.688 14.438l.72 3.181c1.715 7.89 1.715 7.89.592 12.381v-2h-2c-2.07-5.174-2-8.526-2-14h-2c-.195-3.062-.195-3.062-.125-7l.055-3.937z"/><path fill="#d79982" d="M555 613c1.998-.101 4-.13 6-.125l3.375-.008L567 613v1l5 1v2q5.498 1.01 11 2l1 2c-6.516.813-12.343-1.411-18.437-3.437l-3.084-.987A281 281 0 0 1 555 614z"/><path fill="#d69f8c" d="M804 560a293 293 0 0 1 6.73.648c3.745.403 7.494.739 11.247 1.07.705.065.705.065 4.277.387q4.43.4 8.86.79l4.238.386 3.87.346L846 564v1c-4.36.102-8.702.138-13.062.125l-3.725.012c-9.121-.01-16.702-.553-25.213-4.137z"/><path fill="#d49d8a" d="M824 633c4.079.279 8.105.466 12.188.563 3.942.105 7.872.249 11.812.437v1c-8.787 1.057-17.075.878-25.875.125l-3.586-.277C808 634.005 808 634.005 803 633v-1a218 218 0 0 1 8.813-.687l4.957-.325C821 631 821 631 824 633"/><path fill="#c6856c" d="m699 272 3 1a225 225 0 0 1-4.5 10.438c-1.741 3.8-3.306 7.547-4.5 11.562-1-3-1-3-2-8l2-4h2l-.125-3.437L695 276l4-1z"/><path fill="#db9d85" d="M435 286c2.082 8.326 1.85 16.299-2 24l-4 4c.579-6.591 1.823-12.683 3.563-19.062l1.378-5.098z"/></svg>