<svg xmlns="http://www.w3.org/2000/svg" width="1408" height="768"><path fill="#d18264" d="M925.236 187.65q3.285-.025 6.57-.082a759 759 0 0 1 9.475-.091l5.72-.06L951 188c-1.01 5.05-2.532 8.144-5 12.625a354 354 0 0 0-9.438 18.75 403 403 0 0 1-9.261 18.586c-4.968 9.391-9.838 18.83-14.676 28.289l-2.58 5.037Q906.02 279.143 902 287l-10.5 20.5-2.534 4.945a3745 3745 0 0 1-15.162 29.252 784 784 0 0 0-7.617 14.928c-7.953 16.023-16.265 31.873-24.625 47.688-4.31 8.17-8.46 16.41-12.562 24.687-6.817 13.73-13.685 27.419-20.871 40.96A436 436 0 0 0 803 480c-2.373 4.798-4.862 9.524-7.375 14.25-4.701 8.89-9.206 17.872-13.688 26.875C762.288 560.503 762.288 560.503 752 570l-2.938 3.313c-14.568 13.223-31.722 17.1-50.875 16.96-17.274-.91-31.044-8.302-43.187-20.273l-3.625-3.25c-7.22-8.021-11.917-17.653-16.871-27.176l-1.578-3.03c-5.89-11.348-11.602-22.786-17.301-34.231l-4.7-9.42q-1.486-2.981-2.967-5.965c-2.005-4.037-4.027-8.06-6.123-12.052-1.357-2.585-2.617-5.222-3.835-7.876 3 0 3 0 7.375 3.625 13.382 10.99 29.593 14.8 46.625 13.375 20.093-3.343 35.22-13.316 49-28l1-2h2l.875-2.75C706 448 706 448 710 444c9.537-13.68 16.614-29.14 24.004-44.04 2.109-4.184 4.292-8.324 6.496-12.46 5.008-9.407 9.766-18.93 14.46-28.496A1077 1077 0 0 1 761 347l2.293-4.633 2.332-4.492 2.102-4.133L770 331c3.055.46 3.055.46 6 2l3.5 1.75L782 337c-1.22 5.753-4.355 10.971-7 16.188l-1.484 2.949c-3.9 7.72-7.929 15.37-11.98 23.011-3.251 6.221-6.373 12.502-9.494 18.788-3.527 7.084-7.198 14.082-10.937 21.056-2.082 3.964-4.035 7.975-5.98 12.008-14.128 28.34-35.389 53.361-65.75 64.375-9.654 3.063-19.301 4.015-29.375 4.625 11.952 5.39 26.305 5.895 38.934 2.172 17.45-6.67 40.324-20.688 49.066-38.172h2l2-5a243 243 0 0 1 4.437-6.562c9.115-13.514 16.445-27.895 23.286-42.665 3.22-6.748 6.754-13.317 10.308-19.894 3.358-6.615 3.358-6.615 1.969-11.129-1.475-5.532-.854-9.676 1.312-14.937C776 361 776 361 781.535 359.52c9.66-3.91 12.532-13.707 16.59-22.645q2.47-5.224 4.945-10.445l2.443-5.233c3.247-6.786 6.75-13.42 10.286-20.058 2.53-4.757 4.943-9.557 7.326-14.389a598 598 0 0 1 11.477-21.977C836 262 836 262 836 260q3.486-3.016 7-6c.59-.77 1.18-1.542 1.79-2.336 2.775-3.345 5.91-5.805 9.335-8.476l3.758-2.958C861 238 861 238 863 238l.25-3.062c.97-5.093 3.124-7.312 6.75-10.938 5.418-2.709 9.66-2.585 15.5-1.125L888 224v2l4 2c2.117 5.293 2.463 8.369 2 14-2.532 4.971-5.989 8.494-11 11-4.008.236-6.68.128-10.438-1.375C869 251 869 251 864.937 253.563L861 257l-3.063 2.25c-6.78 6.348-11.129 14.624-15.312 22.813l-1.497 2.912q-1.65 3.213-3.293 6.432c-2.771 5.426-5.563 10.842-8.353 16.259q-2.175 4.222-4.343 8.448a1408 1408 0 0 1-16.924 31.98c-4.683 9.06-7.307 15.51-5.457 25.707.301 3.982-.651 5.854-2.758 9.199-4.158 3.977-7.98 7-14 7l-2 5a971 971 0 0 1-5.125 10.313l-3 5.968-1.488 2.957c-1.85 3.685-3.68 7.38-5.512 11.075-17.49 34.871-17.49 34.871-29.965 49.453-1.719 2.01-3.323 4.118-4.91 6.234 19.563-4.883 34.371-30.411 44.121-46.5 6.866-11.778 12.734-24.033 18.504-36.375 3.134-6.66 6.517-12.867 10.375-19.125a257 257 0 0 0 3.437-6.25l1.56-2.89c1.208-3.444.808-5.34.003-8.86-.325-6.574-.451-9.248 3-15 2.842-2.763 4.513-3.9 8.43-4.7 4.686-1.706 5.338-3.446 7.437-7.898l1.981-4.095c.67-1.442 1.338-2.884 2.027-4.37q2.114-4.397 4.23-8.792l2.033-4.275c2.867-5.96 5.98-11.767 9.124-17.585 1.512-2.857 2.888-5.785 4.238-8.722 5.896-10.761 14.575-18.883 26.29-22.844C890.634 260 890.634 260 895.612 260c3.387-1 3.387-1 6.196-5.164q1.351-2.713 2.628-5.461l2.86-5.8 1.392-2.89c1.735-3.554 3.608-7.025 5.498-10.497C924.26 211.354 924.26 211.354 928 202c-26.233-2.588-55.714 6.433-76 23h-2v2l-3.875 2.813c-18.808 14.26-28.444 40.37-38.145 61.007-1.98 4.18-1.98 4.18-3.867 7.422C803 301 803 301 805 306c.685 6.05-.735 9.893-4 15-5.26 4.126-9.412 4.65-16 4-5.358-1.92-8.458-4.917-11-10-.461-6.918-.503-11.555 4-17l5.187-2.437C791.32 291.486 794.174 283.878 798 276l3.937-7.875 1.97-3.977C811.122 249.85 818.58 236.348 830 225l3.5-4.25c22.73-25.667 59.243-32.918 91.736-33.1M876 234l-1 1v5l1 1h5l1-1v-5l-1-1zm1 46c-8.636 8.177-13.255 18.47-18.5 29q-1.36 2.686-2.723 5.371c-2.622 5.195-5.2 10.411-7.777 15.629l-2.508 4.89-2.273 4.548-2.033 3.996c-1.388 4.173-.935 5.632.814 9.566.47 5.255-.132 8.549-3 13-2.916 2.916-4.822 3.952-8.844 5.031-5.696 2.699-6.74 5.636-9.469 11.282l-1.47 2.968a821 821 0 0 0-3.308 6.776c-2.983 6.161-6.037 12.286-9.091 18.412a2029 2029 0 0 0-4.88 9.864C784.195 456.187 760.964 489.81 722 504c-7.6 2.258-15.278 4.114-22.988 5.95-4.471 1.17-8.819 2.576-13.2 4.05l-4.667 1.563A210 210 0 0 0 672 519c1.648 9.848 10.278 19.352 18 25 12.662 6.83 25.336 7.97 39.125 4 11.964-4.14 22.765-11.2 31.875-20v-2h2c1.508-2.23 1.508-2.23 3.125-5.187l1.633-2.918C769 515 769 515 769 510l-3.375 2.563c-13.044 9.694-25.616 17.815-41.48 22.039-3.925 1.745-4.986 3.761-7.145 7.398-4.772 3.421-8.14 4.746-14 4-5.162-1.822-7.556-4.112-10-9-1.33-6.294-1.379-10.441 2-16 4.115-3.554 7.566-4.906 13-5 4.127 1.274 7.41 2.607 11 5 11.541-.21 21.05-6.317 30-13l4.125-2.812L756 503v-2l4-2c9.087-8.127 16.698-17.282 24-27l3-3.879a276 276 0 0 0 16.762-24.453c1.894-3.104 3.856-6.137 5.863-9.168 3.47-5.435 6.25-11.148 9.078-16.937 2.617-5.198 5.415-10.286 8.234-15.375 4.617-8.364 8.82-16.847 12.84-25.516 3.125-6.567 6.537-12.969 9.953-19.387A406 406 0 0 0 855 347c4.911-9.92 10.16-19.669 15.363-29.437a968 968 0 0 0 12.84-24.942 917 917 0 0 1 4.797-9.496c2-4.125 2-4.125 2-6.125-6.215-1.243-7.699-.323-13 3m-90 26-1 1v5c5 1 5 1 7 0v-5l-1-1zm-2 64-2 2c1 4 1 4 4 6l4-4-2-4zM641 517l-1 2a240 240 0 0 0 5.375 11.313l1.669 3.304C657.2 553.398 669.248 567.927 691 575c16.439 3.288 30.914-.305 45-9 4.187-3.25 4.187-3.25 7-6v-2c-4.777.861-9.27 2.09-13.875 3.625-14.109 3.89-29.917 2.246-42.875-4.375-13.82-8.11-20.887-20.013-27.977-33.941-2.6-3.786-3.846-4.458-8.273-5.309-4.813-.75-4.813-.75-9-1m64 10-2 2 1 5 4 1 3-3-2-5z"/><path fill="#ce7a5a" d="M456 188c3.48-.748 3.48-.748 8.775-.745l5.961-.037q3.283.026 6.565.055 3.34.002 6.68-.003 7.042.002 14.086.058c5.976.045 11.95.046 17.927.033 4.615-.007 9.23.006 13.845.026q3.299.011 6.598.007c24.481-.006 45.408 4.147 63.563 21.606 8.663 8.863 14.28 19.087 20 30l2.57 4.816c4.6 8.659 9.046 17.383 13.407 26.164 2.083 4.139 4.23 8.238 6.398 12.332 5.774 10.913 11.402 21.9 17.029 32.888a1542 1542 0 0 0 12.872 24.558 399 399 0 0 1 5.787 11.367c3.016 6.068 6.088 12.091 9.363 18.023 1.362 2.468 2.661 4.97 3.949 7.477 3.389 4.357 6.366 5.023 11.625 6.375l3 2c-4.566 4.457-7.387 5.894-13.75 6.313-5.604-.334-7.718-1.17-12.25-4.313-2.152-2.89-2.152-2.89-3.937-6.25l-2.055-3.824a1160 1160 0 0 1-7.57-15.043c-3.106-6.222-6.3-12.396-9.5-18.57l-1.943-3.748-3.98-7.678a8414 8414 0 0 1-6.003-11.61c-10.796-20.91-10.796-20.91-15.95-30.59-3.458-6.497-6.76-13.062-10.03-19.656-2.845-5.645-5.828-11.215-8.81-16.789-2.183-4.167-4.238-8.38-6.284-12.617-8.501-17.035-19.86-28.205-37.813-34.937-7.368-2.426-14.253-2.964-21.937-3.25l-3.256-.131q-3.966-.158-7.932-.307l2.332 2.281C538 207 538 207 540.688 210.5c5.585 4.533 10.901 5.533 17.796 7.273 14.784 4.016 25.512 13.002 33.614 25.891 4.227 7.413 8.089 15.062 11.422 22.918 3.515 8.008 3.515 8.008 9.043 10.356L617 278c4.052 3.19 6.024 5.923 7 11 .088 6.128-.65 8.532-4.375 13.5-4.397 4.245-5.396 4.42-11.437 4.813-6.707-.405-9.164-2.077-13.563-6.938-2.916-6.057-1.91-11.954-.625-18.375-2.528-6.547-5.83-12.742-9-19l-2.137-4.3C576.473 246.206 569.4 237.36 556 232c5.971 12.88 12.303 25.482 19 38q2.316 4.342 4.625 8.688l1.977 3.699a763 763 0 0 1 5.988 11.8 1747 1747 0 0 0 9.75 19.239l1.385 2.695q2.83 5.51 5.667 11.014 2.101 4.082 4.198 8.166l2.496 4.849C613 344 613 344 614 347l4.688 1.25c5.895 1.942 7.82 3.737 11.312 8.75 1.553 4.66 1.79 9.22-.223 13.758-2.067 8.623 7.005 20.114 11.285 27.43 5.76 8.95 11.627 12.833 21.938 15.812 8.011.495 8.011.495 11-1l-4.937-2.375C654.697 402.581 648.99 388.138 642 374l-2.05-4.066c-2-3.97-3.976-7.952-5.95-11.934q-3.59-7.22-7.187-14.437l-1.803-3.63c-2.552-5.12-5.13-10.139-7.998-15.093L615 321c1-3 1-3 5.375-5.75C625 313 625 313 628 314a206 206 0 0 1 5.688 10.563l1.626 3.174a1534 1534 0 0 1 8.811 17.575c3.57 7.206 7.474 14.196 11.414 21.204 3.07 5.593 5.895 11.288 8.672 17.03 3.824 7.382 7.403 11.33 14.789 15.454 8.018 1.757 13.846.65 21.063-3.125 7.256-5.298 11.441-11.313 15.218-19.29 2.07-4.317 4.294-8.54 6.532-12.772l2.605-4.938q2.467-4.659 4.945-9.312a948 948 0 0 0 12.403-24.125c2.71-5.384 5.5-10.724 8.297-16.063 4.405-8.414 8.73-16.86 12.937-25.375 4.747-9.593 9.602-19.115 14.64-28.559a1076 1076 0 0 0 4.907-9.351c4.483-8.634 9.056-16.995 14.453-25.09l2.313-3.687L801 215h2l2-4c16.734-16.203 35.96-23.399 59.188-23.25l3.79-.023c3.01.006 6.017.127 9.022.273-1.804 3.608-6.228 4.3-9.812 5.75-6.613 2.723-13.013 5.595-19.356 8.887-3.115 1.5-6.271 2.683-9.52 3.863-19.12 7.193-29.588 21.813-38.312 39.5a1834 1834 0 0 1-4.125 7.813c-5.028 9.526-9.956 19.103-14.875 28.687-9.406 18.323-9.406 18.323-14.062 27.125-11.688 22.109-22.996 44.42-34.375 66.688-.503.981-1.005 1.963-1.522 2.975-6.042 11.818-12.031 23.659-17.918 35.555-11.668 22.85-29.651 44.014-54.498 52.47-17.183 5.154-33.657 3.67-49.625-4.313-16.644-10.08-24.979-22.514-33.398-39.723-2.432-4.932-4.958-9.797-7.54-14.652-4.105-7.75-8.05-15.566-11.95-23.42-3.811-7.655-7.783-15.22-11.788-22.775a598 598 0 0 1-6.199-12.18c-6.147-12.381-12.623-24.595-19.059-36.828a1605 1605 0 0 1-17.914-35.156c-4.261-8.576-8.647-17.082-13.088-25.565a5032 5032 0 0 1-13.814-26.638l-2.111-4.09Q469.059 215.992 466 210l-2.225-4.352-2.166-4.277-1.954-3.85L458 194l-1.652-3.174zm23 14c.184 2.59.184 2.59 2 6l1.465 3.832C485 215 485 215 489.816 215.762l5.747-.075c13.198.241 21.09 1.968 30.777 11.305C538 240.176 538 240.176 538 246l-3.125-3c-9.768-8.55-20.814-14.194-33.875-14.5l-4.062-.156L494 229c-.208 4.42 1.502 8.41 4 12 3.188.883 3.188.883 7 1.125 12.167 1.203 21.755 4.668 30.055 14.246 5.604 7.338 9.787 15.412 13.945 23.629l1.754 3.46c2.68 5.34 5.332 10.693 7.981 16.047 1.98 4 3.967 7.996 5.952 11.993.643 1.3 1.285 2.601 1.946 3.942 9.232 18.561 9.232 18.561 19.367 22.558 4 4 4 4 6 9-.299 4.837-.825 9.299-2 14 1.59 3.547 1.59 3.547 3.938 7.75 3.014 5.501 5.978 10.997 8.75 16.625l1.953 3.906q1.972 3.941 3.927 7.89c1.774 3.577 3.57 7.14 5.37 10.704.56 1.141 1.121 2.283 1.7 3.458 6.208 12.205 14.844 23.44 28.23 27.944 8.898 2.053 17.365.84 26.132-1.277v2l-5 2a419 419 0 0 0-6.125 3.063c-8.408 4.287-15.444 4.704-24.875 3.937-20.93-7.544-28.065-27.937-37.227-46.445-3.406-6.859-6.958-13.637-10.574-20.387a171 171 0 0 1-3.804-7.617c-3.466-7.272-7.162-9.347-14.395-12.551-2.976-2.855-4.613-4.865-5.937-8.75-.063-3.25-.063-3.25 1.375-7.625.62-6.196-.08-7.656-2.903-12.977l-2.234-4.283L556 324q-2.01-3.995-4-8l-2-4-6-12-1.983-3.961a3283 3283 0 0 1-4.173-8.386l-2.121-4.27-1.906-3.847C528.4 268.995 522.717 259.98 511 256h-4c1.079 5.395 2.95 8.983 5.563 13.813 3.137 5.862 6.241 11.726 9.187 17.687 3.66 7.38 7.448 14.692 11.25 22 3.694 7.102 7.382 14.202 10.938 21.375 4.116 8.293 8.386 16.505 12.648 24.724 6.66 12.849 13.248 25.734 19.829 38.623 26.713 52.254 26.713 52.254 47.273 60.216 13.478 4.055 28 2.1 40.312-4.438 5-3 5-3 9-6v-2l4-2c5.08-3.342 7.849-7.87 11-13v-2a239 239 0 0 0-9 2c-12.342 2.244-23.134 1.003-34.25-4.687-10.016-6.985-14.786-14.255-20.062-25.063a3141 3141 0 0 0-3.614-7.234l-1.575-3.21c-2.485-4.653-4.032-6.602-8.937-8.743-5.014-2.267-7.15-4.238-9.562-9.063-.238-9.045-.238-9.045.723-12.898.38-4.259-1.033-6.302-3.16-9.977-2.947-5.24-5.784-10.48-8.438-15.875-5.364-10.8-11.027-21.443-16.703-32.082-3.978-7.486-7.856-14.977-11.422-22.668-3.543-7.64-7.388-15.083-11.355-22.512a600 600 0 0 1-5.446-10.508c-9.495-18.724-19.033-31.3-39.324-38.605-5.96-1.814-11.618-2.16-17.812-2.312l-5.278-.184zm127 86-2 2 1 4 5 1 2-4-3-3zm-30 58-3 3 1 4 5 1 2-2-1-5zm37 14-2 5 2 3c3.125 0 3.125 0 6-1v-5c-3-2-3-2-6-2"/><path fill="#d0876b" d="M510.25 252.625c5.75.375 5.75.375 8.625 2.75L521 258l5 2c1.688 3.063 1.688 3.063 3 6l2 1v3h2l1 4 2.938-.562L540 273l2 5 3 1 2 5 1-3-2-1v-2l-3-1c-2.786-4.179-2.615-8.063-3-13 3.353 3.353 4.999 6.484 7.188 10.688l2.433 4.671A1723 1723 0 0 1 560 300q3.37 6.784 6.75 13.563l1.683 3.39c1.507 3.024 3.032 6.038 4.567 9.047l2.113 4.145c2.745 4.153 6.363 4.996 10.887 6.855 3.995 3.315 5.015 5.037 7 10-.299 4.837-.825 9.299-2 14 1.59 3.547 1.59 3.547 3.938 7.75 3.014 5.501 5.978 10.997 8.75 16.625l1.953 3.906q1.972 3.941 3.927 7.89c1.774 3.577 3.57 7.14 5.37 10.704.56 1.141 1.121 2.283 1.7 3.458 6.104 12 14.084 22.402 27.194 26.913 7.446 1.772 15.013 1.005 22.543.129L670 438v2c-2.155 1.417-4.377 2.734-6.625 4l-3.727 2.125c-8.49 4.363-16.191 4.748-25.648 3.875-20.91-7.538-28.625-27.968-37.746-46.45-3.58-7.242-7.303-14.398-11.121-21.519a180 180 0 0 1-3.766-7.5c-3.346-6.947-6.305-8.785-13.367-11.531-3.25-3.134-5.483-5.547-7-9.812 0-3.188 0-3.188 1.438-7.563.62-6.196-.08-7.656-2.903-12.977l-2.234-4.283L555 324q-2.01-3.995-4-8l-2-4-6-12-1.982-3.961a3751 3751 0 0 1-4.176-8.386l-2.123-4.27-1.908-3.847c-5.493-10.727-10.42-17.775-21.874-22.723L507 256l1 5-3 1c-.75-3.875-.75-3.875-1-8 1-1 1-1 6.25-1.375M576 346l-3 3 1 4 5 1 2-2-1-5z"/><path fill="#d08568" d="M562 198c11.297-1.658 20.618.52 30 7v2l4 2 2 4 5 3 2 5a525 525 0 0 0 4 5q1.71 2.986 3.25 6.063l1.578 3.097C615 238 615 238 615 242h3l2 3h1c.766 3.144 1.426 6.305 2.086 9.473L624 257l3-1v2h3c1.691 2.832 1.691 2.832 3.563 6.813 2.839 5.893 5.739 11.724 8.812 17.5 5.774 10.912 11.402 21.899 17.029 32.887a1542 1542 0 0 0 12.872 24.558 399 399 0 0 1 5.787 11.367c3.016 6.068 6.088 12.091 9.363 18.023 1.362 2.468 2.661 4.97 3.949 7.477 3.389 4.357 6.366 5.023 11.625 6.375l3 2c-4.566 4.457-7.387 5.894-13.75 6.313-5.604-.334-7.718-1.17-12.25-4.313-2.152-2.89-2.152-2.89-3.937-6.25l-2.055-3.824a1160 1160 0 0 1-7.57-15.043c-3.106-6.222-6.3-12.396-9.5-18.57l-1.943-3.748-3.98-7.678a8414 8414 0 0 1-6.003-11.61c-10.796-20.91-10.796-20.91-15.95-30.59-3.458-6.497-6.76-13.062-10.03-19.656-2.838-5.631-5.815-11.186-8.782-16.75-3.003-5.713-5.869-11.49-8.719-17.281-1.531-3-1.531-3-2.531-4l.125-3.562L599 225h-3l-2-5-4-2-1-4c-2.504-2.07-2.504-2.07-5.562-4.125A118 118 0 0 1 578 206v-2a222 222 0 0 0-9-2c-4.062-1-4.062-1-7-2z"/><path fill="#cf8266" d="M885.5 222.875 888 224v2l4 2c2.117 5.293 2.463 8.369 2 14-2.532 4.971-5.989 8.494-11 11-4.008.236-6.68.128-10.437-1.375C869 251 869 251 864.938 253.563L861 257l-3.062 2.25c-6.817 6.381-11.171 14.706-15.375 22.938l-1.492 2.888c-3.155 6.118-6.247 12.267-9.333 18.42l-2.191 4.333a1121 1121 0 0 0-4.29 8.578l-1.984 3.913-1.768 3.54L820 326c-2-3-2-3-1.812-7.187L819 315h3c2.252-5.033 3.193-10.572 4-16-3 0-3 0-5 1l-2-1-1.312 3.938c-2.025 6.074-4.245 11.433-9.688 15.062 1.552-5.316 3.955-9.937 6.563-14.812l2.707-5.086L820 293c14.614-27.457 14.614-27.457 16-33 2.3-2.039 4.636-4.037 7-6l1.785-2.328c2.777-3.35 5.911-5.81 9.34-8.484l3.758-2.958C861 238 861 238 863 238l.25-3.062c.97-5.093 3.124-7.312 6.75-10.938 5.418-2.709 9.66-2.585 15.5-1.125M876 234l-1 1v5l1 1h5l1-1v-5l-1-1z"/><path fill="#cf7453" d="m864.188 187.75 3.79-.023c3.01.006 6.017.127 9.022.273-1.804 3.608-6.228 4.3-9.812 5.75-6.613 2.723-13.013 5.595-19.356 8.887-3.115 1.5-6.271 2.683-9.52 3.863-19.12 7.193-29.588 21.813-38.312 39.5a1834 1834 0 0 1-4.125 7.813c-5.82 11.024-11.507 22.115-17.19 33.21a3007 3007 0 0 1-11.681 22.563l-2.252 4.306L763 317h-1v-5h2v-4h2l-1-5h3l1-4 1-2h2v-4h2l.375-4.062c.644-5.086 2.048-7.615 4.625-11.938v-5l3-1a129 129 0 0 0-1-6h2v-4h2c-.25-3-.25-3-1-6h-2l1-5-1-2c4.051-9.531 9.267-18.4 15-27l2.313-3.687L801 215h2l2-4c16.734-16.203 35.96-23.399 59.188-23.25"/><path fill="#cd7554" d="M925.689 187.574a826 826 0 0 0 9.682-.111q3.06-.015 6.121-.022l5.605-.04L951 188c-1.06 5.298-2.843 9.082-5.312 13.875l-2.364 4.68L941 210l-4-1 1 4h-2l-.937 3-1.063 3h-3v9l-3 1c-1.062 2.688-1.062 2.688-2 6-1 3.375-1 3.375-2 6h-2v4h-2l-1 4-4-1v-2h-3l-1 5h-3v-3h2l1-5h2v2h2l-2-3c.255-5.945.885-8.808 4-14h2l.438-3.437L920 221l3-1c1.084-2.97 2.067-5.978 3-9l2.797-5.3L930 201c-4.191-.775-7.007-.697-11.187-.25l-3.487.268c-3.449.278-6.885.623-10.326.982l-5.355.48c-11.04 1.117-11.04 1.117-14.645 3.52h-6v2c-2 1-2 1-6.125.938L869 209v2h-4v2c-8.328 1.448-8.328 1.448-12-1 1.38-4.142 3.457-5.507 7-8 3.875-.937 3.875-.937 7-1v2h4v-2h-2v-2l-2-1 4-2 3-3c2.756-.962 5.557-1.8 8.375-2.562l4.523-1.254c12.98-3.012 25.532-3.586 38.791-3.61"/><path fill="#d07452" d="m793 459 1 2c-1.25 3.063-1.25 3.063-3 6l-3 1 1 5-2 1-2-1-2 5c-2 3-2 3-7 6-2.21 2.2-2.21 2.2-4.375 4.688l-2.336 2.68L767 494l-4 4.313C760 502 760 502 759 507l1 3 5-1 1-2 2 1c-1.879 7.515-9.47 11.402-15.762 15.375C730.464 536 730.464 536 721 536l-2 5c-4.054 3.795-6.717 5.828-12.312 6.25-5.252-.356-8.32-1.806-11.938-5.625-4.097-6.146-4.06-10.55-2.75-17.625 2.488-4.147 4.487-5.727 8.75-8 7.26-1.708 11.988.243 18.25 4 12.675 0 23.565-7.771 33-15.437 2-1.563 2-1.563 4-1.563v-2a592 592 0 0 1 8-7c8.34-7.792 15.065-16.742 21.89-25.863l2.735-3.637 2.477-3.344zm-88 68-2 2 1 5 4 1 3-3-2-5z"/><path fill="#d08669" d="M643 285c6.988 9.317 11.705 20.36 16.867 30.766 2.322 4.609 4.72 9.172 7.133 13.734 3.091 5.843 6.125 11.704 9.063 17.625 15.934 32.063 15.934 32.063 22.562 34.75L703 383l3 2c-4.566 4.457-7.387 5.894-13.75 6.313-5.604-.334-7.718-1.17-12.25-4.313-2.152-2.89-2.152-2.89-3.937-6.25l-2.055-3.824a1139 1139 0 0 1-7.559-15.02c-3.172-6.354-6.433-12.661-9.699-18.969l-1.944-3.76a1727 1727 0 0 0-9.478-18.091l-1.706-3.219q-1.592-2.999-3.205-5.986c-1.2-2.263-2.318-4.568-3.417-6.881l1-2h2q1.519 4.494 3 9l3 4c3.28-.633 6.016-1.508 9-3l-4-1-1-4h-2l-.937-3.375C646 301 646 301 643 299c-.187-4-.187-4 0-8z"/><path fill="#ce7757" d="m572 229 4 1v2h2v2l5 2c3.213 3.213 4.243 5.875 6 10l2 1 2 4 2 1v2l3 1c1.455 2.55 2.793 5.166 4.063 7.813l2.097 4.332L606 271l2 4 4.313 1.438c5.742 1.914 8.367 3.921 11.062 9.312.87 4.524.66 7.742-.375 12.25-5.667 7.556-5.667 7.556-10 9-8.812.572-8.812.572-13.375-1.625-4.804-4.346-6.529-6.813-6.937-13.437C593 287 593 287 594 282c-2.528-6.547-5.831-12.741-9-19l-2.066-4.195c-3.651-7.184-7.625-13.383-12.954-19.438C565 233.414 565 233.414 565 230h2l1 2 3 1zm34 59-2 2 1 4 5 1 2-4-3-3z"/><path fill="#d49278" d="M456 188c3.6-.508 3.6-.508 8.888-.518l5.962-.038q3.275.011 6.548.025l6.676-.012q7.035-.008 14.069.022c5.968.022 11.935.01 17.903-.015 4.61-.014 9.221-.01 13.832 0q3.294.005 6.59-.01c24.481-.08 45.38 4.09 63.532 21.546 8.663 8.862 14.27 19.094 20 30l2.629 4.863C629 255.698 629 255.698 629 258h-6c-1.172-2.59-1.172-2.59-1.75-5.937A122 122 0 0 0 620 246l-2-1v-3l-4 1v-5c-1.645-3.664-1.645-3.664-3.812-7.625l-2.145-3.977C606 223 606 223 603 220l-2-5-5-3-2-4-2-1v-2a567 567 0 0 0-9-3l-5-3c-3.48-.258-3.48-.258-7.187-.125-6.646.209-6.646.209-8.813-.875v2h6l3 2 3.375.813c4.202 1.376 5.64 2.983 8.625 6.187l4.313 3.125L591 215v3l4 2 1 5h3v5c-4-4-4-4-7.125-7.812-13.004-14.054-29.427-19.117-48.125-19.875-3.583-.125-7.166-.225-10.75-.313l2.332 2.281C538 207 538 207 540.688 210.5c5.585 4.533 10.901 5.533 17.796 7.273 16.326 4.435 27.1 14.843 35.516 29.227l2 4-1 3-2-2-2-1v-4l-4-2a442 442 0 0 1-3-7l-3-1-3-3v-2h-2v-2l-4-1-1 4-4-1v-2h-2a243 243 0 0 0 5 9l-14-7 2 4-1 3-1.375-2.937C554 233 554 233 552 232v-3c4.5-.187 4.5-.187 9 0l-3-3 1-3c-5-2-5-2-10.625-2.937C543 219 543 219 540 216l-1.437-3C537 210 537 210 533 207v-2l-4-1v-4c5.817-.248 11.503-.078 17.314.156l3.682.094 3.412.14L556 200l1-4h-5l-1-2 2-1v-2c-10.393-1.313-20.866-1.217-31.328-1.316l-5.531-.063q-8.695-.097-17.391-.184l-11.832-.13q-14.46-.16-28.918-.307l2 1v6c-3-4-3-4-4-8"/><path fill="#cf7553" d="m769 524 2 2-2 2-.5 4.125L768 536h-2q-.514 4.499-1 9l-2 2-.5 3.125L762 553h-2l1 5-3 .375-3 .625c.25 3.375.25 3.375 1 7l-2 3h-3v-2l-4 2v2h-2v2h-4l-1 4c-3.437 1.375-3.437 1.375-7 2l-2-2h-6v-2c8-4 8-4 13-4l1 2c3-2 3-2 4-5l-3-1 1-2h3v-2h2a253 253 0 0 0 2-6l2-2v-3c-5.371 1.371-5.371 1.371-7 3h-5l-1 4c-3-1-3-1-5-2v2c-13.515 3.63-29.863 4.098-43-1v-2l-5-2-1-2 2.938.813L689 553l1-5-3-3c4.152.981 8.04 2.016 12 3.625 10.278 2.827 20.718 1.837 31-.625l4-.5c3-.5 3-.5 5-2.5 5-2 5-2 10-2a207 207 0 0 0 4-5l4.125-2.562C761 533 761 533 763 529c3-2.875 3-2.875 6-5"/><path fill="#cf7554" d="m518 248 4.938 1 4.062 1v2l3 1-1 2 4 1 .438 3 .562 3 5 1c2 5 2 5 2.938 8.625C543 275 543 275 546 278v2l3 1-2 4-.75-2.937L545 279l-4-1-1-5a150 150 0 0 0-6 1l-1-4h-2v-3l-4-2-1-5-5-1-2.125-2.562C516 254 516 254 510.125 253.313L505 254c-.375 2.813-.375 2.813 1 6l3 3c.914 2.813.914 2.813 1.625 6 .699 3.065 1.38 6.017 2.375 9h2c.833 1.925 1.564 3.893 2.25 5.875 1.66 4.547 3.457 8.547 6.063 12.625C526 301 526 301 526 306h-2v2h3l-1 4h-2v2h-2l-1-3-2-1v-5h-2l-.437-2.812C516 299 516 299 513 296v-6h-2c-1.23-2.784-2.454-5.573-3.586-8.398C506 279 506 279 502 277v-3l-2-1v-4l-3-1-1-5 3 3-2-4v-3h-2c0-4.323.03-7.85 1-12 6.13-4.444 15.317-1.029 22 1"/><path fill="#cc7656" d="M499 199c5.952.38 10.71 2.314 16 5v2h5l1 5-5-2q-3.246-1.29-6.5-2.562l-3.344-1.317C497.874 202.18 487.7 200.592 479 202c.438 5.875.438 5.875 2.578 9.242 5.976 4.817 12.654 3.764 20.05 3.735 11.027.048 17.666 4.225 25.493 11.796 5.238 5.87 10.37 12.698 12.879 20.227-3.677-1.838-6.36-3.775-9.562-6.312-10.257-7.797-20.671-11.27-33.504-12.157L494 229c1.063 4.813 1.063 4.813 4 10v2c2.264.214 4.539.316 6.813.375 12.428.702 21.767 4.504 30.335 14.008 1.726 2.121 3.304 4.362 4.852 6.617l-1 2-5-2a180 180 0 0 1-1-6l-4-1v-2l-2-1v-2l-3 1-7-3c-6.898-1.792-13.087-3.112-20-1-1.74 4.189-1.805 7.363-2 12h2a212 212 0 0 1 4 9l-3-1-1-2-2 1a221 221 0 0 1-6.062-11.187l-1.682-3.237c-4.111-7.996-4.111-7.996-5.256-12.576h2l1-2c1.617 3.087 2.99 5.97 4 9.313l1 2.687 3 1-1-4-1-4h2l-1-4-2-1-1-5-2-4 1-2c3.1-.176 6.208-.213 9.313-.187l5.476.039c4.18.119 8.246.383 12.399.835L520 227l1-3c-2.309-1.316-2.309-1.316-5.437-2.562A88 88 0 0 1 510 219v-2c-5.754-.123-11.474-.039-17.227.078l-3.671.047-3.396.07C483 217 483 217 481 215c-2.416-4.74-4.187-8.694-3-14 4.594-.867 4.594-.867 10.5-.875 3.5-.032 7-.071 10.5-.125z"/><path fill="#cd7e61" d="M888 272c3.063.063 3.063.063 6 1 .063 2.5.063 2.5-1 6l-1.062 3.938C889.246 289.97 885.664 296.43 882 303l-2.129 3.96L878 310h-2c-2 4-2 4-2.5 7.75L873 321h-2q-1.014 4.497-2 9l-2 1v4c4 2 4 2 6 2l1-5h2l.414-3.035c.645-4.363 1.989-7.47 3.961-11.402l1.836-3.747L884 311h3c1.125-2.875 1.125-2.875 2-6l1-2h2v-3h2c-1.374 5.795-4.384 11.032-7.062 16.313l-1.477 2.916q-1.5 2.954-3.005 5.903a898 898 0 0 0-4.042 8.09l-2.351 4.653-2.09 4.18L872 345h-4l-1 5a133 133 0 0 1-3 6c-1-3-1-3-1-7l-1-4h-2l-1 2h-4a209 209 0 0 0-2 9l-3 3c-1-3-1-3 .3-5.906l2.013-3.594 2.242-4.07L857 341q2.48-4.681 4.938-9.375a3684 3684 0 0 1 9.687-18.312c4.26-8.04 8.337-16.161 12.375-24.313l3.5-7 2.5-5c-7.12.254-10.736 2.246-16 7-5.979 8.113-10.283 17.085-14.812 26.063a4243 4243 0 0 1-4.583 9.035l-2.026 4.016L851 326h-1c.36-5.752 2.125-10.034 5-15h2v-6h2v-2l2-1 1-4h2v-4h2l-1-5h2l1-2-4 1-1 3c-2-1-2-1-4-4l-2 3h-2v2h-2v3h-2c1.548-5.678 3.488-10.277 7-15v4c5-2 5-2 6-4h2v2h2v3h3v-4h2l-1-4 5-1 3-2a418 418 0 0 1 8-1z"/><path fill="#cf7454" d="m823 296 1 2 3 1c-.776 5.82-1.904 10.97-5 16l-2 1c-.611 3.397-.981 6.763-1.254 10.203-.926 4.711-2.814 8.218-5.121 12.422l-2.398 4.414c-4.994 8.883-4.994 8.883-8.227 9.961v4h-2a100 100 0 0 0-1 6l-1 3 1 4c.5 4.813.5 4.813 0 9-3.48.262-3.48.262-7-1-.832-3.562-.832-3.562-.812-8a187 187 0 0 0-.188-8l-2-1c.125-3.5.125-3.5 1-7l4-1c.563-2.5.563-2.5 1-6 2.571-8.143 2.571-8.143 4-11h2l1.5-3.5 1.5-3.5h2l.313-5.125c.754-6.447 1.556-7.285 5.687-11.875 1.638-3.415 3.122-6.868 4.57-10.367L819 299h3z"/><path fill="#d18a6f" d="m768 457 2 4h3c.938 2.691.938 2.691 1 6-1.625 2.527-1.625 2.527-4 4.938l-2.543 2.617L765 477l-3.312 3.563C756.76 485.156 751.47 489.08 746 493l-3.937 2.938C735.086 499.48 727.746 500 720 500v-2h-4l-1 5c-3.625.125-3.625.125-7-1 1.155-5.776 2.325-6.728 7-10h3v4l2-2c7.5-5 7.5-5 11-5v-2c5-2 5-2 9-2v-2l4-1 1-4c4.798-6.855 10.396-12.877 17-18h3z"/><path fill="#d07d5e" d="m651 512 1 2 5-2 2 1-1 2 3 2c2 5 2 5 2 8h2l2 9h2v-2h3c-1-4-1-4-3-8l1-3v-3l3 1c.707 1.986 1.367 3.99 2 6 6.564 11.589 13.711 17.999 26 23 5.403 1.08 10.624 1.403 16.113 1.719L720 550v1c-11.294 1.039-20.545-.794-31-5l2 4-1 4h-4l3 2v2c11.121 2.988 24.824 3.794 36 1l3.75.063L732 559v-2l4 1 1 2c-13.741 6.403-30.915 5.802-45 1-15.779-6.929-24.745-18.584-32.375-33.562-3.913-7.161-3.913-7.161-9.937-9.5C645 518 645 518 641 519c1.313 2.938 1.313 2.938 3 6l-1 2-2-1v-2h-2l1-4h-3v-6c5.875-.25 5.875-.25 9.18-.016L649 514z"/><path fill="#d17453" d="M697 420h5c1 5 1 5 0 8h-3c-.187 3.5-.187 3.5 0 7l-1-2h-2l.813 2.5c.187 3.5.187 3.5-2.5 7.188A176 176 0 0 1 690 447l-2.79 2.746C672.242 464 672.242 464 662 464l-3-2-3 2c-6.972 2.024-14.767 3.27-22 2l-1-4h-5l-1-2c6.838-1.71 13.923-.9 20.938-.742C653 459 653 459 657 456h4v-2c3-3 3-3 7.375-4.312 5.031-1.836 6.516-3.482 9.625-7.688l3-1 3-5 3-1v-2l3-2 1.438-3.5C693 424 693 424 697 422z"/><path fill="#cc8367" d="m748 551 3 1c-1 4-1 4-4 9l-1 2h-2v2h-3v2l2 1-1 4h-2l-1 2-1-3c-4.875 1.25-4.875 1.25-10 3l-3 1c4 2 4 2 7 2l3 1 4-3h2v-2h4v-2h2l1-4h3l1 3c-6.615 8.228-16.34 13.136-26 17-2.436.086-4.876.081-7.312 0-3.801-.125-3.801-.125-6.688 0v2c-3.578.266-3.578.266-8.25.25l-4.64.016C695 589 695 589 691 587h3v-2h-5c.063-2.937.063-2.937 1-6l2-1-3-2 5.906.07q3.798.029 7.594.055l3.902.05c3.2.018 6.4-.07 9.598-.175v-2c1.906-.809 3.853-1.52 5.813-2.187 8.244-3.046 15.806-6.638 21.187-13.813l-3.062.75L737 559l1-4c2.813-1.125 2.813-1.125 6-2z"/><path fill="#ce7555" d="M859 285c2 2 2 2 4 5l3-3h2l-1 3-2-1 1 5h-2v4h-2l-1 5h-2v2h-2v6h-2a126 126 0 0 0-2 6l-2 4-.937 4.563C849 330 849 330 846 333h-2v4h-2v4h-2a101 101 0 0 0-1 7l-2-2v-1l-2.937-.187L831 344c-1.925-4.934-.463-9.08 1-14a254 254 0 0 1 5.188-10.687l1.49-2.92q1.472-2.877 2.956-5.747a759 759 0 0 0 3.542-6.97c1.512-2.943 3.152-5.82 4.824-8.676h3v-3h2v-2h2z"/><path fill="#d09177" d="M508 261c2.956 2.956 4.249 5.15 6.074 8.855l1.76 3.55 1.854 3.783 1.915 3.87Q522.308 286.525 525 292c3.625 7.324 7.27 14.632 11.078 21.863l1.648 3.134q1.613 3.06 3.24 6.114c5.41 10.255 5.41 10.255 6.034 13.889h-4v-3h-2l-2-5h-6c.125 3.938.125 3.938 1 8l4 1v3h-2l-1 3c-.895-1.729-1.79-3.457-2.71-5.238-5.525-10.667-11.049-21.332-16.665-31.95-3.682-6.971-7.238-13.996-10.727-21.066-2.436-4.807-5.065-9.497-7.746-14.172C496 269 496 269 497 266l3 3v4l3 1-1 3 5 2c4 6.81 4 6.81 4 11h2l.438 3.938L514 298l3 1v6h2v5l3 1v3h2v-2h2l1-4h-3v-2h2c-1.61-6.482-5.146-12.25-8.223-18.125-1.585-3.457-2.215-6.167-2.777-9.875h-2c-3.587-5.979-4.022-10.157-5-17"/><path fill="#cf7454" d="m572 392-.562 2.813L571 398c2.21 2.21 4.217 3.609 7 5v-2h3c2.985 4.434 5.258 9.306 7.688 14.063l2.126 4.013 2.01 3.897 1.847 3.57c1.441 3.75 1.4 6.484 1.329 10.457 2.794 3.492 4.972 4.986 9 7v5l-2 1 2 2-3 1-2-1v-2l-3 1c-3.187-2.687-3.187-2.687-6-6v-4l-4-2c-2-1-2-1-4-5h-2c-4.855-7.782-7.58-14.77-8-24h-2c-4.438-12.104-4.438-12.104-5-18 2-1 2-1 6 0"/><path fill="#c87757" d="M596 432a121 121 0 0 1 8.125 8.688C607 444 607 444 610 446l-1 4a176 176 0 0 0 10 3l1 2c8.193 1.252 16.475 1.335 24.746 1.621C649 457 649 457 651 459l-4.27.184-5.543.253-5.519.247C631 460 631 460 628 461l5 1 1 3c7.415 1.026 14.827-.055 22-2l-2-2c6.175 0 6.853.097 11 4q-2.842.974-5.687 1.938l-3.2 1.09c-15.952 4.983-32.457 2.3-47.113-5.028-10.889-6.595-23.75-16-27-29l2-1 1 5 4 2c2 1 2 1 4 6 4.324 4 4.324 4 7 4v2h3v-3h2v-5h-4v-2l-4-2v-2l-2-1z"/><path fill="#cf7454" d="m860 344 3 1v4l2 1a237 237 0 0 1-4 8c-1.192 3.136-1.981 5.863-2.437 9.188C858 370 858 370 855 373l-1 4h-2v4h-2l-1 4-1 4h-2v4h-3l1 4h-2v4h-2l-1 4v-2h-2v4h-2l-1.437 5.563L832 418c-3-1-3-1-6-4l-2 4c-1-2-1-2-.187-5.625L825 409h2l2-5 1.938-3.812C833 396 833 396 834.625 391.625 836 388 836 388 838 386l.938-4.562c.35-1.465.7-2.93 1.062-4.438l3-1v-2h2v-4h2c.38-1.992.703-3.994 1-6 .938-3.375.938-3.375 2-6h2l1.375-5.5L855 347h4z"/><path fill="#d17655" d="m460 196 3 2h2l1 5h2v5h6l3 4-4 2c1.568 3.86 3.033 7.033 6 10l3-1v-3l-2-1c3.523-2.349 5.029-2.257 9.2-2.266l3.661-.007 3.827.023 3.86-.023c3.153.006 6.304.129 9.452.273v2l4 1a357 357 0 0 1 8 4l-2 1v2c-5.826.23-11.469.04-17.285-.406l-5.527-.406-5.333-.458L488 226c1 5 1 5 3 9l-1 2 3 1v4h-2c2 4 2 4 4 5h-2v3l-4-1a142 142 0 0 1-3-9h-1c-4-1-4-1-5.628-3.386l-1.579-3.16-1.78-3.505-1.825-3.699q-1.79-3.555-3.583-7.11l-1.78-3.564c-2.404-4.71-4.96-9.328-7.546-13.94C460 199 460 199 460 196"/><path fill="#d08264" d="M816 212c3.813.563 3.813.563 7 2-1.562 2.063-1.562 2.063-5 5-6.225 6.527-10.707 13.09-15 21l-2.852 5.164c-3.111 5.71-6.02 11.507-8.898 17.336a1107 1107 0 0 1-13.652 26.586q-2.954 5.587-5.852 11.203l-1.666 3.22q-1.622 3.138-3.234 6.28A410 410 0 0 1 763 317h-1v-5h2v-4h2l-1-5h3l1-4 1-2h2v-4h2l.375-4.062c.644-5.086 2.048-7.615 4.625-11.938v-5l3-1a129 129 0 0 0-1-6h2v-4h2c-.25-3-.25-3-1-6h-2l1-5-1-2c3.74-8.767 8.228-17.398 14-25l1 2c-1.257 2.708-2.521 5.415-3.871 8.078C792 236 792 236 792 242l5-1 1-2h2v-5l3-1 1-4 1-2h2v-2h3a150 150 0 0 0 1-6h2v-3l3-2z"/><path fill="#cf8264" d="m775 501 2 1-3 5a242 242 0 0 0-2 11l4-2v2l3-1 1-5 5-1c.221 5.564-3.04 10.504-5.5 15.313l-1.357 2.656c-1.374 2.68-2.758 5.356-4.143 8.031l-2.383 4.703c-4.265 8.293-8.556 16.173-14.617 23.297-2-4-2-4-2-6h4c.625-3 .625-3 1-6h2v-8l2-1 1-4.062 1-3.938h2v-3.812c0-4.188 0-4.188 2-7.188l-2.375 2C765 529 765 529 763 529l-2 5a336 336 0 0 1-8 5l-2.062 2.75c-2.694 3.128-4.928 2.828-8.938 3.25l-5 3c-2.324.394-4.658.735-7 1l-2 1c-2.333.04-4.667.043-7 0 3.532-1.766 6.824-2.963 10.563-4.187 9.299-3.296 24.82-10.58 29.437-19.813h2l2-5 1.563-2.875C768 515 768 515 768.313 511.563c.93-4.825 3.228-7.174 6.687-10.563"/><path fill="#d07554" d="M562 198c11.297-1.658 20.618.52 30 7v2l4 2 2 4 5 3 2 5a525 525 0 0 0 4 5q1.71 2.986 3.25 6.063l1.578 3.097C615 238 615 238 615 242h3l2 3h1c.188 3.938.188 3.938 0 8l-2 1-2 3c-2.312-3.687-2.312-3.687-5-9l-2.687-5.25C607 238 607 238 605 233l-5-2-1-1v-5h-3l-2-5-4-2-1-4c-2.504-2.07-2.504-2.07-5.562-4.125A118 118 0 0 1 578 206v-2a222 222 0 0 0-9-2c-4.062-1-4.062-1-7-2zm46 280c6.623-.132 12.63 2.53 18.73 4.844 7.382 2.61 14.789 2.518 22.52 2.781l3.953.156 7.193.257C663 486 663 486 664 485h5v2h2l1-2 1 3c-2 4-2 4-6.125 5.688-7.352 1.979-14.279 2.434-21.875 2.375l-4.562-.028L637 496l4-2-3.5-.875L634 492v-2h-6v-2h-2l-1 4-2-1-1.375 2.938L620 497h-4a783 783 0 0 1-2-9l-4-2c-2-4-2-4-2-8"/><path fill="#d08a71" d="m805 352 1 2-2 3.188c-2.465 5.93-1.886 9.963-1.066 16.226.076 4.13-.744 6.124-2.934 9.586-4.158 3.977-7.98 7-14 7l-2 5a971 971 0 0 1-5.125 10.313l-3 5.968-1.488 2.957c-1.85 3.685-3.68 7.38-5.512 11.075-19.58 39.04-19.58 39.04-24.875 41.687q.376-4.016 1-8h2v-4l-4-1-1-4-4 2c2.116-5.29 4.749-9.896 7.625-14.812l1.563-2.678q1.902-3.257 3.812-6.51l1 2-2 5-1 4c-1 4-1 4-3 9l2.688-1.375c2.713-1.331 5.505-2.502 8.312-3.625 1-5 1-5 1.313-9.187L759 430l4-2 1-4h3v-5h3v-6l2-2 1-4h3v-6l1-2h2v-4h2v-4h2v-4q3.518.378 7 1v-2h5l1-5 1-2h3c-.25-3.035-.25-3.035-1-7.062-.907-5.853-1.5-9.813 2-14.938h2v-4z"/><path fill="#d27754" d="M885.5 222.875 888 224v2l4 2c2.117 5.293 2.463 8.369 2 14-2.532 4.971-5.989 8.494-11 11-3.97.234-6.695.117-10.437-1.312-3.563-.688-3.563-.688-8 1.687L861 256v-5l5-1v-3c5 0 5 0 8 2v-4l5-1-3.062-.937L873 241c.25-4.687.25-4.687 1-9h-2v-5l-4-1c5.84-4.672 10.347-4.913 17.5-3.125M876 234l-1 1v5l1 1h5l1-1v-5l-1-1z"/><path fill="#ce7655" d="m805 472 1 2c-1.906 4.07-3.906 8.026-6 12l-2.488 4.738q-2.565 4.877-5.145 9.746A614 614 0 0 0 786 513l-1-2-5 1v5l-4 1v-2l-5 3c1.765-13.235 1.765-13.235 6-18h2l.313-4.5.687-4.5h5c.688-3.687.688-3.687 1-8l2-5c3.777-.91 7.116-1 11-1l3-3z"/><path fill="#cf8569" d="m864.188 187.75 3.79-.023c3.01.006 6.017.127 9.022.273-1.804 3.608-6.228 4.3-9.812 5.75-5.624 2.316-11.163 4.64-16.563 7.438-5.052 2.614-10.215 4.609-15.555 6.558-3.003 1.226-5.621 2.687-8.383 4.379L823 214v-5h2v-2c5.24-2.58 10.404-4.401 16-6l2-2v-3c-9.545.424-18.192 3.658-26 9l-4 2c-3.392 3.635-6.473 7.164-9.125 11.375C802 221 802 221 797 223c2-5 2-5 4-8h2l2-4c16.734-16.203 35.96-23.399 59.188-23.25"/><path fill="#cd7454" d="m731 355 1 3h2c.75 3.5.75 3.5 1 7h-2v4h-2c-.627 3.078-.964 6.16-1.34 9.277L729 381l-3 1v4h-2v4h-2v4h-2l-1 4-2-1-1 3-1 3-2-1 1-2-3 1-2 5-4-4-4-2c4-3 4-3 7-3v-3l-4 2c2.92-3.439 5.81-6.81 9-10 1.373-3.052 2.535-6.155 3.719-9.285C718 374 718 374 721 372a560 560 0 0 0 2-8h2c.73-1.977 1.394-3.98 2-6 1-2 1-2 4-3"/><path fill="#d07354" d="m817 360 3 1 4.625.813L829 363c1 4 1 4-1 8h-5v6h-2c-.73 1.977-1.394 3.98-2 6l-1 2h-3a126 126 0 0 0-1 6c-1.312 3.813-1.312 3.813-3 7l-4 1c-.044 2.666-.04 5.334 0 8l-3 5h-5v2h-5c1.063-4.625 1.063-4.625 3-10l1.063-3.625L799 398h2v-2h2q.577-3.991 1-8l1-2h2l-1-3 3-3 1 1 1.375-2.75C813 375 813 375 816 372c-1 1-1 1-3 2 .375-3 .375-3 1-6h2l.438-4.062c.185-1.3.37-2.6.562-3.938"/><path fill="#d1896c" d="M867 227h5v5h2l-.875 4.375L873 241c3.938 1.563 3.938 1.563 8 2l-6 3v4c4.5.188 4.5.188 9 0v1c-5 .188-5 .188-10 0v-2c-4-1.312-4-1.312-8-2v3l-5 1v6c-2.686 3.087-5.51 4.753-9 7l-1-3-2 1v2l-6-2v2h-2l2-5h2v-3l3-2 1.813-3.187c3.555-6.196 6.482-10.13 13.187-12.813.625-3.375.625-3.375 1-7z"/><path fill="#d17454" d="M582 301h5c1.438 2.438 1.438 2.438 3 6l3.125 4.5c2.594 4.06 3.304 5.936 3.875 10.5l3 1v3h3q.502 4 1 8a146 146 0 0 0 4.063 8.813C612 350.708 612 350.708 612 354l-2 1a224 224 0 0 0-2 8l-1 2h-3c.038-3.66.532-7.207.969-10.84L605 351l-3-1-1-3-4-4 3-4-3-2-5-10-3-2v-6h-2c-1.35-2.575-2.58-5.213-3.75-7.875l-1.984-4.43L580 303z"/><path fill="#cf7554" d="m652 371 1.813 2.313C656 376 656 376 659 379c1.302 3.024 2.408 6.09 3.523 9.188C664 391 664 391 669 394l1 4c10.107 5.82 19.065 3.187 30 1l-4 3 4-1-1 3h-4v2h3v3c-5.257 1.371-5.257 1.371-8 0l-5.062.063c-5.373-.057-9.801-.547-14.938-2.063v-2l-3.312.063C663 405 663 405 660 402v-3l-3-2c-3.713-5.887-5.907-11.115-7-18h1q.562-3.993 1-8"/><path fill="#d8a188" d="M643 285c6.974 9.298 11.701 20.32 16.832 30.715 3.31 6.542 6.838 12.968 10.36 19.398C672 339 672 339 671 342c-3.428-3.428-5.576-6.677-7.062-11.312L663 328h-2v-2l-2 1c-1.312 4.75-1.312 4.75-2 10l3 5a183 183 0 0 1 2 9c-3.114-1.557-3.687-4.136-5.187-7.25a640 640 0 0 0-8.711-17.195l-2.074-3.952q-2.085-3.967-4.187-7.924l-1.939-3.702-1.766-3.342L637 305l1-2h2q1.519 4.494 3 9l3 4c3.28-.633 6.016-1.508 9-3l-4-1-1-4h-2l-.937-3.375C646 301 646 301 643 299c-.187-4-.187-4 0-8z"/><path fill="#d07353" d="M896 277h1c1.06 6.846 1.037 12.352-1 19h-2v4h-2v3h-2c-.73 1.977-1.394 3.98-2 6l-1 2h-3c-.729 1.978-1.375 3.987-2 6l-2.562 5.063C877 327 877 327 876 332l-2 1-1 4-3 1-4-3 1-5h2a100 100 0 0 0 1-6l1-3h2l-.312-3c.374-4.788 2.008-6.026 5.238-9.367 3.653-4.637 5.778-10.054 8.18-15.414 1.86-4.143 3.724-8.229 5.894-12.219h2z"/><path fill="#ce7554" d="M852 214c-.687 3.063-.687 3.063-2 6h-2l-1 4-4 1-.187 3.375c-1.16 6.603-4.81 11.212-9.813 15.625l-3.3.441c-.892.185-1.782.37-2.7.559v6l-1-2h-2l-.5 3-.5 3h-2l-1 3h-3v-3l-2 1-1-3 4-4a161 161 0 0 0 3-7l2-3 .875-3.437C825 232 825 232 829 228h3l1-3h3l1-4c9.227-8.924 9.227-8.924 15-7"/><path fill="#cf8a6f" d="m869 197 3 1-3 3v2h2v2h-4v-2c-4.875 1.063-4.875 1.063-10 3l-2 5-1 1c3.81.709 7.08 1 11 1v-2h4v-2l10-1v-2l5-1 4-2c10.104-1.98 20.421-2.246 30.688-2.375l3.46-.079c3.176-.007 3.176-.007 7.852.454l-2 4v-3c-27-1.214-54.93 5.792-76 23h-2v2a210 210 0 0 1-8 5c-.312-3.375-.312-3.375 0-7l5-2 1-3h2c1.063-3.125 1.063-3.125 1-6-6.08.507-9.777 3.861-14 8l-1 3h-3l-1 4-4 1c-5.667 6-5.667 6-7 10h-2c3.005-7.513 7.6-13.116 14-18l2.277-2.84c8.548-9.921 22.145-16.37 33.723-22.16"/><path fill="#cf7454" d="M716 446v5l-3 1-1 2h3v3h-2l-.5 3-.5 3h-2l-1 2h-2l-1 4-3 1-1 3-2 1-2 4h-5l1 3c-2.714 1.146-5.033 2-8 2v2a174 174 0 0 1-9 2c1-2 1-2 4-4h-4l-1 2-3-3 5-2 1-3a837 837 0 0 1 8-5 161 161 0 0 0 5-5c10.867-11.177 10.867-11.177 16-14h2l2-5c3-2 3-2 4-2"/><path fill="#cc7658" d="M807 318c2 4 2 4 1.313 7.563C807 329 807 329 804 332l-1 5-3-1a167 167 0 0 0-3 11c-.937 3.625-.937 3.625-2 6l-4 1c-.563 4.88.138 7.344 2 12 .266 3.262.266 3.262.25 6.688l.016 3.449C793 379 793 379 791 381c-5.292.49-6.59.307-11-3l-.375-4.687L779 369h-6c.062 4.578.616 8.657 1.875 13.063.203 4.775-2.422 7.988-4.875 11.937l-1-2 2.063-4.687c2.098-5.756 1.864-6.837-.063-12.313.18-5.824.931-9.742 5-14l5.527-1.469c9.704-3.905 12.647-13.885 16.723-22.844q1.286-2.715 2.582-5.423A942 942 0 0 0 807 318m-22 52-2 2c1 4 1 4 4 6l4-4-2-4z"/><path fill="#d9987f" d="M499 199c5.952.38 10.71 2.314 16 5v2h5l1 5-5-2q-3.246-1.29-6.5-2.562l-3.344-1.317C497.874 202.18 487.7 200.592 479 202c.438 5.875.438 5.875 2.578 9.242 5.976 4.817 12.654 3.764 20.05 3.735 11.027.048 17.666 4.225 25.493 11.796 5.238 5.87 10.37 12.698 12.879 20.227-3.677-1.838-6.36-3.775-9.562-6.312-8.987-6.831-17.833-10.51-29.125-11.5l-4.075-.395L494 229l-1 4-1-5c2.44-.612 2.44-.612 5.992-.602l3.824-.046 4.059.023q3.934.001 7.867-.04c.587.004.587.004 3.558.018L520 227l1-3c-2.309-1.316-2.309-1.316-5.437-2.562A88 88 0 0 1 510 219v-2c-5.754-.123-11.474-.039-17.227.078l-3.671.047-3.396.07C483 217 483 217 481 215c-2.416-4.74-4.187-8.694-3-14 4.594-.867 4.594-.867 10.5-.875 3.5-.032 7-.071 10.5-.125z"/><path fill="#ce7454" d="M933 203h2c3 7.154 3 7.154 3 10h-2l-.937 3-1.063 3h-3v9l-3 1c-1.062 2.688-1.062 2.688-2 6-1 3.375-1 3.375-2 6h-2v4h-2l-1 4-4-1v-2h-3l-1 5h-3v-3h2l1-5h2v2h2l-2-3c.255-5.945.885-8.808 4-14h2l.438-3.437L920 221l3-1 1-3h2l.875-2.75C928 211 928 211 932 207z"/><path fill="#d28d71" d="m572 229 4 1v2h2v2l5 2c3.213 3.213 4.243 5.875 6 10l2 1 2 4 3 3 1 4-3 3h-3l-1 3v-2h-2l-1 2c-3.542-3.542-4.762-5.219-6.687-9.562-2.733-5.703-6.114-10.216-10.262-14.965C565 233.383 565 233.383 565 230h2l1 2 3 1z"/><path fill="#cf7d60" d="M770 333h3v2h3v2l3 1c-.687 4.063-.687 4.063-2 8h-2l.105 3.008c-.128 4.848-1.513 7.61-3.793 11.867l-2.074 3.992C767 368 767 368 762 369l-2 5-1-4h-4c.871-4.357 1.801-7.218 4-11h2c.367-2.662.695-5.33 1-8 .938-3.5.938-3.5 2-6h2a190 190 0 0 0 3-9z"/><path fill="#d18466" d="M742 449c1 3 1 3 1 5l5 1-1 4h-2l-.437 4.438L744 468l-3 1-1-1-3 5h-2l-1 4-2 2h-3v2l-2-1 1-2h-4l-1 2-2.562.688c-4.695 1.792-7.701 5.011-11.438 8.312l-2-1c1.982-2.04 4.067-3.98 6.188-5.875l3.605-3.242L720 476c3-3 3-3 5-8l3-4h2l2-5c3.115-4.883 4.923-6.954 10-10"/><path fill="#cf8567" d="M603 326c2.831 3.775 4.972 7.469 7.188 11.625l2.167 4.04C614 345 614 345 614 347a140 140 0 0 0 8 2l-3 3c-.43 6.138-.43 6.138 1 9v6l-3 3c-6 0-6 0-10-3l-1 3c2.695 5.39 5.664 7.332 11 10l-1 2c-7.11-2.994-12.414-5.827-16-13-.234-8.894-.234-8.894.688-13.25.415-3.66-.958-5.578-2.688-8.75l1-2c3 2 3 2 4 5l2 1c.203 3.996.084 7.57-.687 11.5L604 365h3a706 706 0 0 0 2-10l3-3c-1.387-3.293-1.387-3.293-3.687-7.187-3.076-5.243-5.227-9.8-6.313-15.813zm10 34-2 5 2 3c3.125 0 3.125 0 6-1v-5c-3-2-3-2-6-2"/><path fill="#cf7655" d="M558 309c6.757 3.378 6.757 3.378 8.125 6.875.662 2.365 1.28 4.742 1.875 7.125l3 1c3 9.556 3 9.556 3 14l2 1v3h-3q-1.024 4.995-2 10l-3 2-3-2a199 199 0 0 1 0-10c-.375-4.062-.375-4.062-1-7l-2-1v-2l-2-1c-.895-3.077-1.54-6.181-2.219-9.312L557 319l-2-1c-.812-3.625-.812-3.625-1-7l3 1z"/><path fill="#cf7c5e" d="m823 296 1 2 3 1c-.776 5.82-1.904 10.97-5 16l-2 1c-.611 3.397-.981 6.763-1.254 10.203-.926 4.711-2.814 8.218-5.121 12.422l-2.398 4.414A367 367 0 0 1 806 352l-4 1 1-4h3a192 192 0 0 0 2-10l1.188-3.437C810 333 810 333 809 330l2-1v-4l-4 1c-.115-6.567 1.91-9.182 6-14 1.633-3.417 3.122-6.868 4.57-10.367L819 299h3z"/><path fill="#d89479" d="m660 555 2.938 2.563c13.728 11.616 25.246 17.805 43.625 17.562l5.378-.055L716 575c-5.082 2.541-8.654 2.128-14.312 2-3.229-.073-6.46-.098-9.688 0l1 2h-3c-1 3-1 3-1 6h5l1 3c3.816.582 3.816.582 8.563.813l4.753.269L712 589v-2q5.5-.124 11 0c-12.14 6.07-29.033 4.121-41.633.29-5.123-1.962-9.67-4.46-14.367-7.29 4-1 4-1 7 0 1.403-6.195 1.403-6.195 0-9l2.938 1c3.062 1 3.062 1 4.062 1-4.544-1.562-8.812-2.97-13.562-3.75L664 568c-.25-3.5-.25-3.5 0-7l-4-2z"/><path fill="#cf7454" d="M798 292h2c-.687 4.875-.687 4.875-2 10-3 2-3 2-7.625 2.125L786 305c-1 4-1 4-1 8l-1 1c4.101.643 7.827 1 12 1 .625-3.062.625-3.062 1-6l3 1 1-2c1.408 4.223.387 6.839-1 11l-4 2-1 3c-4.562.313-4.562.313-9 0v-2l-4-1c-3-3-3-3-5-8 .255-5.352 1.17-9.43 4-14 3.94-2.626 7.334-2.489 12-3 4-2 4-2 5-4"/><path fill="#d07b5c" d="m591 375 2 1 1 3 4 1c1.633 3.203 1.633 3.203 3.125 7.25l1.508 4.016L604 395l2 5-1 2 4 1 2 2 2 1c.409 2.656.745 5.325 1 8l-1-3h-3l-.187 3.813L609 418c-4.872-1.596-7.385-4-10.05-8.336-3.327-6.57-6.022-11.923-5.825-19.414L593 386h-3c-1.375-4.937-1.375-4.937-2-10z"/><path fill="#cd8367" d="m556 247 2 1v2h2v-2l3 1v3l4 2c2.07 3.414 2.07 3.414 4.125 7.625l2.07 4.164c1.742 4.065 3.013 7.86 3.805 12.211h-2l1 3h2c-.062 3.375-.062 3.375-1 7l-5 2c-2.187-5.312-2.187-5.312-4-11l-2-1c-2-5-2-5-2-8h2l1 2v-3h-3c-4.126-3.095-4.99-4.455-7-9l-1.75-3.562C554 253 554 253 555 248z"/><path fill="#cc7555" d="m761 317 1 2c-.94 2.173-1.995 4.297-3.094 6.395l-2.103 4.047-2.303 4.37-4.687 8.985-2.422 4.623a1933 1933 0 0 0-6.828 13.22l-2.077 4.048a5272 5272 0 0 0-3.925 7.673A575 575 0 0 1 730 381h-1c-.245-4.896-.224-7.552 2-12h2v-4h2c-.25-3.5-.25-3.5-1-7h-2l-1-2h-3c-1.125 2.875-1.125 2.875-2 6l-1 2h-2c1.3-5.349 3.961-10.087 6.5-14.937l2.406-4.653L734 341l2 1v2h3v2c3.5-.25 3.5-.25 7-1v-2h2v-4h2l.438-2.625c.606-3.64 1.715-6.197 3.562-9.375l2-1 .938-2.875C758 320 758 320 761 317"/><path fill="#d17554" d="M510.25 252.625c5.75.375 5.75.375 8.625 2.75L521 258l5 2c1.688 3.063 1.688 3.063 3 6l2 1v3h2l1 4 2.938-.562L540 273l2 5 3 1c3.394 6.546 5.304 11.624 6 19h2v5l-4 1c-4-6.667-4-6.667-4-11h-2v-5l-4 1c-4.488-4.488-6.717-10.065-9.55-15.703-4.804-8.428-9.552-12.418-18.45-16.297l-4-1 1 5-3 1c-.75-3.875-.75-3.875-1-8 1-1 1-1 6.25-1.375"/><path fill="#d18b6f" d="M613 406c2.632 3.509 4.566 6.837 6.625 10.688C626.138 428.15 634.151 435.315 647 439c3.332.23 3.332.23 6.813.188l3.683-.043c2.968-.123 5.928-.427 8.879-.77L670 438v2c-4.875 3.188-4.875 3.188-10 6l-2-1-1-3q3.008.45 6 1v-2c-2.645-.07-5.293-.026-7.937.063-6.732.078-11.795-.419-18.063-3.063l-4.75-1.375c-4.3-1.644-6.411-3.054-9.25-6.625v-2l-4 1 1-4-5 2 1-6-3 2c0 5.961 1.894 8.063 5 13l-1 3c-3.595-4.115-6.494-8.248-9.187-13l-2.043-3.562c-1.605-3.117-2.773-6.085-3.77-9.438l2.875 1.813L608 416l2-5 3-1z"/><path fill="#d8a48e" d="M719 520c6.62-.112 11.93-2.539 18-5l2 1c-2.601 3.902-4.56 3.852-9 5-4 2-4 2-5 4-4.425-1.106-8.68-2.54-13-4-3.62-1.206-6.192-1.323-10-1-5.538 3.077-5.538 3.077-7 6h-2c-.312 4.938-.312 4.938 0 10l3 1 1 4c4.602 1.534 9.18 1.716 14 2v-2l2.938-.812L717 539l1-5c4.943-1.76 8.703-2 14-2v-2h5v-2c3-3 3-3 8-5h3v-2l4 2c-17.971 11.436-17.971 11.436-27.8 12.355L721 536l-2 5c-4.054 3.795-6.717 5.828-12.312 6.25-5.252-.356-8.32-1.806-11.938-5.625-4.097-6.146-4.06-10.55-2.75-17.625 2.488-4.147 4.487-5.727 8.75-8 7.26-1.708 11.988.243 18.25 4"/><path fill="#d2967d" d="M648 355c3.25 3.25 4.632 6 6.625 10.125l2.129 4.313L659 374a827 827 0 0 0 4.563 9.125l2.066 4.133c3.545 5.595 7.575 8.911 13.558 11.68 6.035 1.332 10.695.835 16.813.062l-1 2c-7.365 1.99-14.242 2.944-21.375-.125C669 398 669 398 668 394l-5-3c-1.582-2.848-1.582-2.848-2.812-6.062l-1.27-3.223C658 379 658 379 658 377l-3-1-2-3c-1.134 7.513-.485 11.745 2 19l1 4 5 2v6c-8.424-7.68-13.045-17.687-17.875-27.812l-1.797-3.678-1.695-3.53-1.535-3.19C637 363 637 363 637 359c2 2 2 2 2 5l3 1 1 5h2a150 150 0 0 1 4 7v-4h2a164 164 0 0 0-1-11h-1a202 202 0 0 1-1-7"/><path fill="#d08467" d="m793 459 1 2c-1.25 3.063-1.25 3.063-3 6l-3 1 1 5-2 1-2-1-2 5c-2 3-2 3-7 6-2.21 2.2-2.21 2.2-4.375 4.688l-2.336 2.68L767 494l-4 4.313C760 502 760 502 759 507l1 3 5-1 1-2 2 1c-1.196 4.782-2.54 5.664-6.312 8.688l-2.926 2.386C756 521 756 521 752 522c-2-3-2-3-3-8l-2 1c-2.666.04-5.334.043-8 0 2.72-2.72 5.4-4.867 8.5-7.125l2.906-2.133C753 504 753 504 756 503v-2a592 592 0 0 1 8-7c8.34-7.792 15.065-16.742 21.89-25.863l2.735-3.637 2.477-3.344z"/><path fill="#cd7758" d="M508 261c2.956 2.956 4.249 5.15 6.074 8.855l1.763 3.553 1.85 3.78 3.782 7.667 1.84 3.74c2.069 4.165 4.227 8.282 6.379 12.405 3.15 6.234 4.783 12.205 6.312 19h2c1.125 3.063 1.125 3.063 1 6-3.937 0-3.937 0-8-1v-2l-5-2-2-1v-3l-2-1v-2h2v-2h2l1-4h-3v-2h2c-1.61-6.482-5.146-12.25-8.223-18.125-1.585-3.457-2.215-6.167-2.777-9.875h-2c-3.587-5.979-4.022-10.157-5-17"/><path fill="#d18d72" d="M564 370c3.914 5.22 6.695 10.841 9.688 16.625l1.837 3.508 1.737 3.344 1.592 3.065C580 399 580 399 580 401h-2l1 4a125 125 0 0 1-6-4v-2l-3-1 .563-3.125L571 392l-4 1c.414 3.816.414 3.816 1.625 8.563l1.164 4.753L571 410h2q.624 3.984 1 8c-5.281-5.281-7.946-12.424-11.25-19.062l-2.297-4.534-2.156-4.314-1.99-3.973c-.43-1.029-.862-2.057-1.307-3.117l1-2 3 1v3l4 1 3-5-3-1c0-9 0-9 1-10"/><path fill="#d3947a" d="m688 468 2 1c-2.827 4.547-6.386 6.483-11 9l-3 3-2 1 2 2c3.125-.875 3.125-.875 6-2l-1 3h5v-2l3.5-.937L693 481v-3l5-1c-5.392 10.783-20.37 15.256-31.074 19.105C662.73 497.441 659.444 498 655 498c4.04-4.04 7.652-4.005 13.164-4.863L671 492c1.086-3.168 1.086-3.168 1-6l-3 1v-2l-2.607.87c-5.607 1.867-11.172 1.184-17.018.942l-3.66-.095c-19.73-.733-19.73-.733-24.715-5.717l10 2c17.035 3.407 34.2-.02 49-9a977 977 0 0 0 8-6"/><path fill="#d17351" d="M754 475v4l-5 3c-4 3-4 3-8 7l1 2c-1 2-1 2-4 4l-2 3c-5.45 1.218-10.411 2-16 2v-2h-4l-1 5c-3.625.125-3.625.125-7-1 1.155-5.776 2.325-6.728 7-10h3v4l2-2c7.5-5 7.5-5 11-5v-2c5-2 5-2 9-2v-2l4-1 1-4c4-3 4-3 9-3"/><path fill="#ce7454" d="m821 419 6 3v4h-2l-1 5-1.5 2.875c-1.639 3.414-1.979 6.404-2.5 10.125h-2v4h-2l-1 4-2-1c-.625 2.938-.625 2.938-1 6l-2-2v-4c-4.989 0-6.798.654-11 3l2-5 5-2v-3l3-3h2l1-4c3.313-11.745 3.313-11.745 6-16h3z"/><path fill="#ce7e5f" d="M657 553c3 2 3 2 5 5l3 3v6c3.438 2 3.438 2 7 3l1-2v2q2.999.51 6 1c2.354.95 4.694 1.94 7 3-4.88 1.22-6.582.124-11-2l1 4-2 4c-4.702.367-7.797-.168-11.71-2.875-6.344-5.506-10.136-10.902-12.29-19.125h2v-2l5-1z"/><path fill="#d07452" d="m677 445 1 2h-2v2h-2l.5 3 .5 3h-2v2l-3 1-3 5c-5 1-5 1-8-1l-3 2c-6.972 2.024-14.767 3.27-22 2l-1-4h-5l-1-2c6.838-1.71 13.923-.9 20.938-.742C653 459 653 459 657 456h4v-2c3.71-3.71 7.06-4.376 12-6z"/><path fill="#d7a68f" d="m781 250 1 2-2 5 1 2c-2.455 5.727-2.455 5.727-5 7a282 282 0 0 0-3 9c-2.609 7.609-2.609 7.609-6 11h-2l-1 4-1 4h-2l-.437 3.313C760 301 760 301 757 304h-2l-.937 4.25C753 313 753 313 750 317h-2a1842 1842 0 0 0-1.95 6.914c-1.933 5.68-4.734 11.09-8.05 16.086l-3 1c2.144-7.134 5.17-13.526 8.688-20.062q1.62-3.054 3.238-6.11l1.592-3.002c2.623-5.003 5.098-10.078 7.568-15.158 1.491-2.858 3.12-5.645 4.797-8.398 3.285-5.41 5.965-11.03 8.617-16.77 3.447-7.46 7.165-14.512 11.5-21.5"/><path fill="#cf7453" d="M584 418h2l1 7h2l2 4 5 3v5c2.832 3.382 5.02 5.01 9 7v5l-2 1 2 2-3 1-2-1v-2l-3 1c-3.187-2.687-3.187-2.687-6-6v-4l-4-2c-2-1-2-1-4-5h-1c-1.217-10.348-1.217-10.348 0-14h2z"/><path fill="#cf7554" d="m722 577-3 5 4-.625 4-.375v2h-6v2l-3.937-.125L713 585l-1 4c-3.676.46-3.676.46-8.312.375l-4.614-.04C695 589 695 589 691 587h3v-2h-5c-.312-2.937-.312-2.937 1-6 4.526-1.173 8.702-.992 13.375-.937 6.087-.068 12.924-2.963 18.625-1.063"/><path fill="#cd7454" d="M659 326h2v2l4 1c1.125 2.688 1.125 2.688 2 6 .938 3.313.938 3.313 2 6l3 1 1 4-2 1 4 1-1 3 1.375 3.125L676 357c-3.375 1-3.375 1-7 1v-2h-2v-6h-3l-1 2c-2-3-2-3-3.5-8.062C658 339 658 339 656 337c1.53-9.53 1.53-9.53 3-11"/><path fill="#d17350" d="M640 505c2.844-.023 2.844-.023 6.5.625l3.656.602L653 507v2c3.503-.071 7.004-.26 10.5-.5s6.997-.429 10.5-.5v2h-3l-1 3h-3c-.312 4.5-.312 4.5 0 9h2c2.188 3.875 2.188 3.875 4 8l-1 2h-3v2h-2l-2-9h-2l-1.437-3.875C660 517 660 517 657 515v-2l-5 1h-2l-3 1-2-1v-2h-5z"/><path fill="#d17352" d="m709 519 4 2c-3 2-3 2-6.562 3-3.438 1-3.438 1-5.438 3-.687 5.625-.687 5.625 0 11 4.313.875 4.313.875 9 0l3-3h2l-.125-3.437L715 528l4-1c1.268 5.071.119 7.308-2 12-3 2-3 2-6 2v2c-10.043.478-10.043.478-15-2l-1-4-2-1c-.25-5.062-.25-5.062 0-10h2l2-4c5.045-3.027 6.425-3.507 12-3"/><path fill="#cb7454" d="m637 282 2 2 2-1v2h2c1.587 4.342 2.139 6.444 1 11v3l4 4v5h2l1 4h5l-1 3a330 330 0 0 1-9 1l-1 2-7-14-1-1-.375-4.25C636 294 636 294 633 289v-5h3z"/><path fill="#d5a48e" d="M890.336 273.465 893 274c-.063 3.5-.063 3.5-2 7h-2l1-4c-7.023-.255-10.916 2.408-16 7-5.979 8.113-10.283 17.085-14.813 26.063a4238 4238 0 0 1-4.582 9.035l-2.026 4.016L851 326h-1c.36-5.752 2.125-10.034 5-15h2v-6h2v-2l2-1 1-4h2v-4h2l-1-5h2l1-2-4 1-1 3c-2-1-2-1-4-4l-2 3h-2v2h-2v3h-2c1.548-5.678 3.488-10.277 7-15v4c5-2 5-2 6-4h2v2h2v3h3v-4h2l-1-4 5-1c4.338-2.892 8.222-2.575 13.336-2.535"/><path fill="#cf7453" d="m888 193-5 2 2 2-4 2 6 1c-2.762 2.762-5.207 2.579-9 3l2 2-4 1v2l-7 1v2h-4v2c-8.328 1.448-8.328 1.448-12-1 1.38-4.142 3.457-5.507 7-8 3.875-.937 3.875-.937 7-1v2h4v-2h-2v-2l-2-1 4-2 3-3c9.1-3.225 9.1-3.225 14-2"/><path fill="#e1a78c" d="M840 348c2.695 2.695 2.966 4.544 3.25 8.313-.39 5.752-2.156 8.616-6.25 12.625L834 371l-3-1 .188-3.437L831 363c-2.875-1.312-2.875-1.312-6-2l-2-2c0-6 0-6 2-8 4.125-.25 4.125-.25 8 0v2l4-2h3z"/><path fill="#d18c70" d="M622 350c4.05 2.025 5.45 3.396 8 7 1.558 4.674 1.78 9.23-.227 13.785-1.102 4.583.492 6.74 2.664 10.84 3.665 6.967 3.665 6.967 2.563 11.375h-2v-2h-2v2h-2c.023 3.063.023 3.063.375 7l.336 3.938L630 407c-3.412-3.412-4.99-6.617-7.125-10.937l-2.133-4.278C619 388 619 388 618 384h5v-3l3-1v4l-2 1v3l3 3c3.215-6.43 1.27-13.108 0-20l-2 2 1-5c.138-4.952-.025-9.127-1-14l-3-1z"/><path fill="#ce927a" d="m805 352 1 2-2 3.188c-2.465 5.93-1.886 9.963-1.066 16.226.076 4.13-.744 6.124-2.934 9.586-4.158 3.977-7.98 7-14 7l-2 5a968 968 0 0 1-5.125 10.313l-2.969 5.902-1.484 2.949c-2.684 5.354-5.321 10.733-7.961 16.11L765 433h-1c-.25-4.5-.25-4.5 0-9h3v-5h3v-6l2-2 1-4h3v-6l1-2h2v-4h2v-4h2v-4q3.518.378 7 1v-2h5l1-5 1-2h3c-.25-3.035-.25-3.035-1-7.062-.907-5.853-1.5-9.813 2-14.938h2v-4z"/><path fill="#db9c81" d="m846 332 1 2a104 104 0 0 1-2.875 6.375c-1.757 3.62-3.146 6.71-4.125 10.625-3.562 1.375-3.562 1.375-7 2v-2a74 74 0 0 0-12 2v-4l-5 1c-1.953 3.905-2.426 6.74-3 11h-1c-.345-6.46-.398-9.337 3-15 2.895-2.815 4.663-3.919 8.625-4.875C827 340 827 340 828.938 336.875L830 334c1 4 1 4 1 10h6l1 3 .875-3 1.125-3h2v-4h2v-4z"/><path fill="#d08264" d="m805 472 1 2c-1.906 4.07-3.91 8.024-6 12l-2.523 4.879c-7.05 13.553-7.05 13.553-10.477 18.121l.063-4.812C787 499 787 499 786 496l3-3-1-5h-2c0-3.875 0-3.875 1-8 4.277-2.43 6.069-1.986 11-1l4-4z"/><path fill="#ca7656" d="M867 189v3c-5.035 2.014-7.7 2.08-13 2-4 .25-4 .25-7 1v4h-4v-3c-9.545.424-18.192 3.658-26 9l-4 2c-3.392 3.635-6.473 7.164-9.125 11.375C802 221 802 221 797 223c2-5 2-5 4-8h2l2-4c11.293-10.935 23.837-19.317 40-20l1 1 1-2c6.659-.938 13.283-1.384 20-1"/><path fill="#ce7354" d="m750 377 1 3h4v5h-2v-2h-3v3h2c.313 3.5.313 3.5 0 7h-3v9l-3 1v2l-2 1-1 3h-2l-1 2-2-2 1-5h-2l1-5h2l1-5h-2v-2h2c.71-1.985 1.367-3.99 2-6 1.5-3.437 1.5-3.437 3-6l2 1z"/><path fill="#d17453" d="m537 327 4 3v4h2v3l3-1c1.11 3.328 1.505 6.532 2 10l1 3h2v4h2v6l3 5-1 4h-2q-2.021-4.991-4-10l-2-1-.375-3.437L546 350l-4-2v-2l-3-.937-3-1.063v-3h2v-3l-4-1c-1-2-1-2-1-8z"/><path fill="#d08567" d="m714 520 1 2c2.656.409 5.325.745 8 1l-2 1c.375 3 .375 3 2 6 4.125 1 4.125 1 8 1v-2c4-2 4-2 10-2l-4 1v2h-5v2c-2.844.844-2.844.844-6.5 1.5l-3.656.719L719 534v-6h-3a202 202 0 0 0-1 7h-2l-1 3c-2.986 1.493-5.709 1.118-9 1l-2-1c-.994-3.977-1.364-6.929-1-11 4.524-4.524 6.89-4.849 13-6zm-9 7-2 2 1 5 4 1 3-3-2-5z"/><path fill="#d27756" d="M577 339c4.149.281 7.967.992 12 2 2.086 5.215 2.571 8.452 2 14l-5 1c-.016 2.871-.016 2.871.75 6.438 1.324 6.414 1.324 6.414.25 8.562h-4l-1.75-3.937L579 363c-4.25-.875-4.25-.875-8-1 0-2 0-2 2-4l-2-1v-2l5.375 1.063L582 357c2.468-3.701 2.307-5.622 2-10l-2-4-4-1z"/><path fill="#d28a6d" d="M596 254c3.03 1.515 3.65 3.94 5.125 6.938l1.633 3.277C604 267 604 267 604 269h-2v-2h-4c-1 3-1 3 0 7l3 1-3 5h2c-2 5-2 5-5 8a161 161 0 0 0 0 11c-2-2-2-2-2.187-6.812C593 287 593 287 594 282c-1.687-4.137-1.687-4.137-4-8.687a210 210 0 0 1-4-8.313l1-2 2.938-.875C593 261 593 261 595 257z"/><path fill="#daac95" d="m853 244 2 1a189 189 0 0 1-5 6l-3 5h-2v3h-2l-.937 2.938L841 265l-3 1-2 5-1 2h-2l-1 4-3 3a127 127 0 0 0-3.312 6.688c-.554 1.179-1.107 2.358-1.676 3.574L823 293h2v-2l4-2c1.25 3.438 1.25 3.438 1 7a140 140 0 0 1-8-1v5l-3-1a374 374 0 0 0-3 9c-4.21 7.474-4.21 7.474-8 10 1.552-5.316 3.955-9.937 6.563-14.812l2.707-5.086L820 293c14.614-27.457 14.614-27.457 16-33 2.3-2.039 4.636-4.037 7-6a1049 1049 0 0 0 4-5c3.125-2.875 3.125-2.875 6-5"/><path fill="#cf866a" d="M537 224h2v2l4-1c3.438 1.188 3.438 1.188 6 3l-3 4h-2v2h2a207 207 0 0 1 3 8l2 4 3 1-1-4 1-4-2-3v-4l3 1 2 6 3 1c1.64 2.652 1.64 2.652 3.25 5.938l1.64 3.277L566 252l-1 2-4-1 1-4-2-1v2h-2l-2-2-2 5h-2l-1-3-4-2c-2.324-3.668-2.324-3.668-4.687-8.187l-2.387-4.481c-1.761-3.961-2.772-7.013-2.926-11.332"/><path fill="#d3957b" d="m630 407 3 1v2l3 1v2h6l2 5h2v-2l4 1 1 4 3 1v2c3.495.202 6.999.26 10.5.25l5.906.016L675 424v-2c2.844.242 2.844.242 6.5.875l3.656.617L688 424c-8.356 5.57-19.257 6.051-28.957 4.54-11.798-2.576-20.077-8.688-28.043-17.54z"/><path fill="#ca7657" d="M780 369q.576 4.492 1 9l3 3c-3 3-3 3-6 4l-2 3h-2c-3.53 11.676-3.53 11.676-1 18h-2l1 4c-2.812.875-2.812.875-6 1l-2-2-3 3-2 2c.994-4.972 2.488-8.193 4.875-12.625l2.117-3.977C768 394 768 394 771 391c2.86-4.597 3.102-6.792 2-12-.25-5.312-.25-5.312 0-10 3-1 3-1 7 0"/><path fill="#d17452" d="M736 405c1.48 2.959.439 4.834-.375 8a86 86 0 0 0-2.187 12.813L733 430h-2v6h-2l-.375 3.625c-.656 4.591-1.763 6.798-4.625 10.375h-1c-.241-6.517-.241-6.517 1-9h-2v-2h-2l1-3h2v-3l2-2v-2h-2v2h-2c1-5 1-5 3-7l1 2 .813-3.5L727 419h3a379 379 0 0 0 3-10z"/><path fill="#d59d84" d="m775 501 2 1-3 5c-.71 2.969-1.42 5.938-2.117 8.91-1.283 4.492-3.332 8.2-5.883 12.09l-3 1-2 5a336 336 0 0 1-8 5l-2.062 2.75c-2.694 3.128-4.928 2.828-8.938 3.25l-5 3c-2.324.394-4.658.735-7 1l-2 1c-2.333.04-4.667.043-7 0 3.532-1.766 6.824-2.963 10.563-4.187 9.299-3.296 24.82-10.58 29.437-19.813h2l2-5 1.563-2.875C768 515 768 515 768.313 511.563c.93-4.825 3.228-7.174 6.687-10.563"/><path fill="#d3a08c" d="M868 345h3c-5.132 21.746-21.428 44.17-31.871 63.922a526 526 0 0 0-5.692 11.265L831 425h-1c-.245-4.896-.224-7.552 2-12l1.5-3.25L835 407h2v-4h2l1-2h2v-4h2l-1-4h3v-4h2c.39-1.99.719-3.992 1-6l1-2h2v-4h2q.52-2.997 1-6l2-2 .813-4.812c1.274-5.57 2.2-6.485 6.187-10.188l2.125-4.812z"/><path fill="#d89e85" d="M604 270c3 3 3 3 4 5l4.25 1.313c5.727 2.034 8.416 4.019 11.125 9.437.843 4.382.498 7.884-.375 12.25l-4 4-2-1 1.125-4.062L619 293h-4l-1 4c-3.875 1-3.875 1-8 1-3-4-3-4-2.75-7.187C604 288 604 288 605 287h6l2 2 2-2 4 2v-4h-2l-3-5c-3.66-.407-7.327-.744-11-1l-1-3 2-4zm2 18-2 2 1 4 5 1 2-4-3-3z"/><path fill="#d1886b" d="m620 509 6 2 3-1-.687 2.688c-.46 6.345 2.318 11.025 5.687 16.312l3 2 3-1c2 3 2 3 2 8h2v2h-2c-.195 2.625-.195 2.625-.125 6l.055 3.375L642 552c-3.579-4.1-5.903-8.432-8.328-13.293l-2.422-4.846-2.5-5.048c-.84-1.678-1.68-3.356-2.547-5.084C620 511.267 620 511.267 620 509"/><path fill="#d28f74" d="m826 431 1 2a215 215 0 0 1-4.875 10.063l-1.511 2.97A1754 1754 0 0 1 816 455l-2.703 5.238c-4.473 8.563-4.473 8.563-6.297 11.762h-1c.354-5.869.806-10.515 3-16l-2 1-1 5h-2l-1 2-3-2v-6c-3 1.125-3 1.125-6 3 2-5 2-5 5-7h5l1-2h6v5l2-4h2l1-3h2v-4h2c.043-2.333.04-4.667 0-7l1-2h2l1-3z"/><path fill="#d27a5b" d="M844 307c1.836 3.672.072 7.247-1 11h-3a262 262 0 0 0-1 8h-2v5l-2 4 4-2v-3h2l1-3h3l1 4h-3a406 406 0 0 0-1 10h-2a101 101 0 0 0-1 7l-2-2v-1l-2.937-.187L831 344c-2.204-5.647-.164-11.344 2.18-16.693a393 393 0 0 1 4.383-8.745l1.537-3.044c3.731-7.35 3.731-7.35 4.9-8.518"/><path fill="#cc7454" d="M868 227h4v5h2l-.875 4.375L873 241c3.938 1.563 3.938 1.563 8 2l-6 3v4c4.5.188 4.5.188 9 0v1c-5 .188-5 .188-10 0v-2c-4-1.312-4-1.312-8-2v3c-3.312 1.313-3.312 1.313-7 2l-3-2h2v-2l-2-1c4.364-4 4.364-4 7-4l2 3c2.125-2.312 2.125-2.312 4-5h-7l2-2a257 257 0 0 0 2-7z"/><path fill="#d08a6f" d="M672 342c3.431 1.716 4.346 5.34 6 8.688l2.125 4.261c1.542 3.332 2.815 6.544 3.875 10.051l-3.875-2.312L676 361c-2.487 6.217-1.232 7.882 1 14 .393 2.324.75 4.656 1 7-3.336-3.336-4.813-6.33-6.875-10.562-2.328-4.772-4.688-9.504-7.187-14.188C662 353 662 353 663 349l4 1v6h2v2c3.125-.437 3.125-.437 6-2-.687-3.562-.687-3.562-2-7l1-1-3-1z"/><path fill="#d9aa94" d="M807 318c2 4 2 4 1.313 7.563C807 329 807 329 804 332l-1 5-3-1a167 167 0 0 0-3 11c-.937 3.625-.937 3.625-2 6l-4 1v6c-3.006.784-6.02 1.553-9.07 2.145-2.93.855-2.93.855-5.555 4.043L775 369h-2c.302 4.472.64 8.742 1.875 13.063.203 4.775-2.422 7.988-4.875 11.937l-1-2 2.063-4.687c2.098-5.756 1.864-6.837-.063-12.313.18-5.824.931-9.742 5-14l5.527-1.469c9.704-3.905 12.647-13.885 16.723-22.844q1.286-2.715 2.582-5.423A942 942 0 0 0 807 318"/><path fill="#dbaa95" d="M499 199c5.952.38 10.71 2.314 16 5v2h5l1 5-5-2q-3.246-1.29-6.5-2.562l-3.344-1.317C497.874 202.18 487.7 200.592 479 202c.438 5.875.438 5.875 2.578 9.242 5.974 4.814 12.635 3.77 20.027 3.711 9.119.08 15.758 2.59 22.395 9.047-5.21 0-9.38-2.717-14-5v-2c-5.754-.123-11.474-.039-17.227.078l-3.671.047-3.396.07C483 217 483 217 481 215c-2.416-4.74-4.187-8.694-3-14 4.594-.867 4.594-.867 10.5-.875 3.5-.032 7-.071 10.5-.125z"/><path fill="#d2967c" d="M651 316c3 .75 3 .75 6 2l1 3 5 1c2.492 3.71 2.492 3.71 4.875 8.375l2.43 4.648C672 339 672 339 671 342c-3.428-3.428-5.576-6.677-7.062-11.312L663 328h-2v-2l-2 1c-1.312 4.75-1.312 4.75-2 10l3 5a183 183 0 0 1 2 9c-3.448-1.724-4.428-5.34-6.125-8.687l-2.195-4.262C652 334 652 334 652 328l-2-1c-.187-5-.187-5 0-10z"/><path fill="#ce7353" d="m812 257 2 1v4h2v5h-2v4h-2a331 331 0 0 0-1.812 9.813L809 285h-4l-1 3c-2.197-4.395-2.14-6.094-1.75-10.875l.266-3.617c.47-3.413 1.145-6.335 2.484-9.508h2v-2h2v-2z"/><path fill="#d59c84" d="M685 431c0 4.426-1.808 7.208-4 11l-5 3-2.375 2.625c-3.222 2.915-5.404 2.888-9.625 3.375l-1 3h-2v2l-6 2v2c-4-1-4-1-6-2a728 728 0 0 0-15.771-.518c-5.317-.164-9.244-.488-14.229-2.482v-2a224 224 0 0 0-6-1l-4-2 1-3c2.695.95 2.695.95 6.125 2.688 13.68 6.87 27.392 7.087 41.875 2.312 9.546-4.24 16.751-10.544 24-18z"/><path fill="#cf7554" d="m896 266-2 5c-2.979.756-5.985 1.404-9 2-3.852 1.438-7.324 3.116-11 5l-1 3h-2v4h-3v-3h-2v-2h-2l-2 4h-3l-1 2-2-1c2.813-4.187 2.813-4.187 6-8l1 2 5-2 3-1 2-5c3.833-3.833 17.731-7.634 23-5"/><path fill="#d19b85" d="M795 245h2c1.55 6.2-1.992 10.644-4.812 16.063A1652 1652 0 0 1 785 275c-.883 1.693-1.764 3.387-2.673 5.132q-2.371 4.518-4.765 9.023-2.935 5.549-5.813 11.125l-1.668 3.224q-1.622 3.14-3.237 6.285A410 410 0 0 1 763 317h-1v-5h2v-4h2l-1-5h3l1-4 1-2h2v-4h2l.375-4.062c.637-5.036 1.735-7.822 4.625-11.938h2v-2h2l1-5c2.009-7.824 4.897-14.103 9-21l2-1z"/><path fill="#d59e88" d="M925.689 187.574a826 826 0 0 0 9.682-.111q3.06-.015 6.121-.022l5.605-.04L951 188c-1.019 5.094-2.664 8.696-5 13.313l-2.187 4.363L942 209h-1v-6h2c.399-2.658.725-5.327 1-8l1-4c-3.954-.47-3.954-.47-9.605-.426l-3.003.01q-3.162.015-6.323.06c-3.224.043-6.448.06-9.673.073-15.676.103-15.676.103-20.396 1.283-2.666.04-5.334.044-8 0 11.315-5.658 25.322-4.403 37.689-4.426"/><path fill="#d57a59" d="m817 360 3 1 4.625.813L829 363c1 4 1 4-1 8h-5v6h-2a253 253 0 0 0-2 6l-2 2-2-5h-2a101 101 0 0 1 2-6v-1l-2 1c.375-3 .375-3 1-6h2l.438-4.062c.185-1.3.37-2.6.562-3.938"/><path fill="#d39277" d="m748 551 3 1c-1 4-1 4-4 9l-1 2h-2v2h-3v2l2 1-1 4h-2l-1 2-1-3c-9.333 2.333-9.333 2.333-11 4q-5.5.062-11 0c3-2 3-2 8.563-4.187 6.97-2.855 14.163-6.402 18.437-12.813l-3.062.75L737 559l1-4c2.813-1.125 2.813-1.125 6-2z"/><path fill="#d29075" d="M571 324c3 3 3 3 4.125 5.938 2.695 4.4 6.172 5.194 10.875 7.062l4 3-1 2h-3l-1-2c-3.562-.25-3.562-.25-7 0v2l4 1c3.313 4.417 3.665 5.683 3 11l-4 4-2-1v-2h-5c-2.454-3.681-2.233-5.653-2-10l1-3h3a618 618 0 0 0-4-10c-.75-4.625-.75-4.625-1-8m5 22-3 3 1 4 5 1 2-2-1-5z"/><path fill="#d37653" d="M637 409h3v2l4-1 4 3a624 624 0 0 0 10 4l1 1c3.885.163 7.768.255 11.656.328L674 419l1 5c-4.077 1.02-7.434 1.133-11.625 1.125l-4.04.008C656 425 656 425 654 424v-2l-4-1v-4l-4-1v2h-2l-2-5-4-2z"/><path fill="#ce9881" d="M885.5 222.875 888 224v2l4 2c2.117 5.293 2.463 8.369 2 14-2.532 4.971-5.989 8.494-11 11-3.97.234-6.695.117-10.437-1.312-3.563-.688-3.563-.688-8 1.687L861 256v-5l5-1v-3c5 0 5 0 8 2v2c5 .25 5 .25 10 0v-2h3c1.125-3.437 1.125-3.437 2-7l1-1c.824-8.944.824-8.944-2.437-13.125-6.336-3.334-12.718-2.04-19.563-.875 5.708-5.708 9.581-6.105 17.5-4.125"/><path fill="#d29177" d="M580 401c3.919 5.225 6.736 10.844 9.75 16.625l1.863 3.508 1.746 3.344 1.609 3.065L596 430l-1 2-5-3-1-4h-2l-1-7h-2v2h-2c-.195 3.063-.195 3.063-.125 7l.055 3.938L582 434c-3.349-4.465-5.688-8.926-8-14l1-3 1 4 2-1 1-3h2c.344-5.39-.342-10.653-1-16"/><path fill="#ce7756" d="M676 358c2.438 2 2.438 2 5 5l4 2 1 4-1 1 1.25 4.25c.75 4.75.75 4.75-1.375 7.938L682 384c-4-2-4-2-6-6l-1-5-1.25-4.437c-.75-4.563-.75-4.563.313-8.438z"/><path fill="#cd7654" d="M838 265h3v2l3 1-1 4h-3l1 4-5 1 2 2c-.307 2.943-.673 5.345-2 8h-4v3c-3 1-3 1-7 1v2h-2c1.613-5.824 3.72-10.923 7-16l2-1 1-3 2-2 2-5z"/><path fill="#ce7455" d="M859 285c2 2 2 2 4 5l3-3h2l-1 3-2-1 1 5h-2v4h-2l-1 5h-2v2c-3 1-3 1-6.687-.25L849 303v-3h2v-5h2v-3h2v-2h2z"/><path fill="#d7a58d" d="m869 197 3 1-3 3v2h2v2h-4v-2c-4.937 1.188-4.937 1.188-10 3l-1 3c-4 3-4 3-7.25 4.25-4.725 2.205-8.013 5.142-11.75 8.75l-1 3h-3l-1 4-4 1c-5.667 6-5.667 6-7 10h-2c3.005-7.513 7.6-13.116 14-18l2.277-2.84c8.548-9.921 22.145-16.37 33.723-22.16"/><path fill="#d0967d" d="M576 274c3.738 1.869 4.825 6.743 6.5 10.375 5.644 12.09 11.706 23.94 18.293 35.547C603 324 603 324 603 326h-3l-1-3-3-3-1.312-3.687c-1.884-4.814-4.569-8.223-7.688-12.313v-3h-2c-1.106-2.273-2.11-4.596-3.062-6.937-2.86-6.985-2.86-6.985-3.938-8.063v-5h-2l-2-3 1-3 1 1z"/><path fill="#d3a48d" d="M628 314c2.043 3.309 2.043 3.309 4.188 7.438l2.167 4.12C636 329 636 329 636 331h-2l-1-2h-2l-.437-3.437L630 322l-3-1-2-4-4 2c1.19 5.948 3.717 10.335 6.602 15.625C629 338 629 338 628 343h2v5c-3.69-4.92-6.394-10.128-9.25-15.562l-1.719-3.194c-1.423-2.707-2.736-5.473-4.031-8.244 1-3 1-3 5.375-5.75C625 313 625 313 628 314"/><path fill="#cb7455" d="m733.5 465.25 3.5.75c1 2 1 2 0 7h-2l-1 4-2 2h-3v2l-2-1 1-2h-4l-1 2-2.562.688c-4.695 1.792-7.701 5.011-11.438 8.312l-2-1c1.86-1.892 3.822-3.684 5.813-5.437 4.37-3.9 8.307-7.77 12-12.313C729 466 729 466 733.5 465.25"/><path fill="#cf7454" d="m823 296 1 2 3 1c-.776 5.82-1.904 10.97-5 16l-2 1-.437 5-.563 5-3 1v-6l-3-3c1-5 1-5 2.5-7.937 1.522-3.108 2.036-5.66 2.5-9.063l1-2h3z"/><path fill="#d29981" d="M510.25 252.625c5.75.375 5.75.375 8.625 2.75L521 258l5 2c1.688 3.063 1.688 3.063 3 6l2 1v3h2c4.188 7.06 4.188 7.06 3 13l3 1-2 4-1.977-3.91-2.648-5.152-2.602-5.098c-4.981-8.693-9.561-12.825-18.773-16.84l-4-1 1 5-3 1c-.75-3.875-.75-3.875-1-8 1-1 1-1 6.25-1.375"/><path fill="#d3a18a" d="m748 521 4 2c-17.971 11.436-17.971 11.436-27.8 12.355L721 536l-2 5c-4.14 3.877-6.754 5.92-12.5 6.125C703 547 703 547 700 546l-2-4c.938.095 1.877.19 2.844.29 1.206.11 2.413.22 3.656.335l3.656.352L711 543v-2l2.938-.812L717 539l1-5c4.943-1.76 8.703-2 14-2v-2h5v-2c3-3 3-3 8-5h3z"/><path fill="#cd7455" d="M791 433h2l-1 5-3-1a285 285 0 0 0-2 9h-2l-1 5-1-2h-2l1 5h-2l-1 3c-1-5-1-5 0-7l-3.062-.312L773 449c1.696-4.24 3.246-7.412 6-11h3v-3c5.257-1.371 5.257-1.371 8 0z"/><path fill="#cd7454" d="M583 242c4 1 4 1 8 5l2 4 3 3 1 4-3 3h-3l-1 3v-2h-2l-1 2c-3-5-3-5-2-10h-2v-8l-2-1z"/><path fill="#d4a18a" d="m672 545 2.5 2.25c3.662 2.877 7.305 4.756 11.5 6.75l3 2v2c11.121 2.988 24.824 3.794 36 1l3.75.063L732 559v-2l4 1 1 2c-13.741 6.403-30.915 5.802-45 1-7.834-3.44-13.913-8.013-20-14z"/><path fill="#d29b85" d="M823 371c4-.375 4-.375 8 0l-4 2a150 150 0 0 0-5.375 9.875l-1.546 3.028c-3.018 5.931-5.976 11.893-8.942 17.85l-1.93 3.874a2022 2022 0 0 0-3.75 7.582A609 609 0 0 1 801 424h-1c1.333-11.333 1.333-11.333 5-15l.938-5.062c.35-1.63.7-3.26 1.062-4.938l4-2c1.688-4.437 1.688-4.437 3-9l1-3h3c1.125-2.875 1.125-2.875 2-6l1-2h2z"/><path fill="#d1977e" d="m496 266 4 3v4l3 1-1 3 5 2c4 6.81 4 6.81 4 11h2l.438 3.938L514 298l3 1v6h2v5l3 1v5l3 1-1 3 3 1-2 4-2.273-4.582c-8.2-16.488-16.557-32.874-25.547-48.95C496 269 496 269 496 266"/><path fill="#ce7352" d="m768 457 2 4h3l1 5h-3l-1 4-3-1v2h-2v2h-2v3l-5 1c-2.125-2.625-2.125-2.625-3-6 2.313-2.812 2.313-2.812 5-5v-4c3-2 3-2 5-2z"/><path fill="#d3a28b" d="M648 355c3.25 3.25 4.632 6 6.625 10.125l2.129 4.313L659 374a827 827 0 0 0 4.563 9.125l2.066 4.133c3.545 5.595 7.575 8.911 13.558 11.68 6.035 1.332 10.695.835 16.813.062l-1 2c-7.365 1.99-14.242 2.944-21.375-.125C669 398 669 398 668 394l-5-3c-1.844-3.477-1.844-3.477-3.5-7.625-1.912-4.634-3.806-8.924-6.25-13.312-2.532-4.572-5.25-9.716-5.25-15.063"/><path fill="#d49e86" d="m460 196 3 2h2l1 5h2v5h6l3 4-4 2c1.625 3.875 1.625 3.875 4 8 2 4 2 4 3 9l2 3v5c-3.34-3.858-5.534-7.787-7.75-12.375-3.39-6.919-6.932-13.733-10.586-20.516C460 199.263 460 199.263 460 196"/><path fill="#cf7353" d="m765 350 2 1 1 3 2 1v5h-2l-.875 3.938L766 368l-4 1-2 5-1-4h-4c.871-4.357 1.801-7.218 4-11h2l.438-3.937L762 351z"/><path fill="#d39980" d="M618 415a292 292 0 0 1 5.625 7.75c6.486 8.168 12.917 14.131 23.375 16.25 6.555.505 12.853.133 19.375-.625L670 438v2c-4.875 3.188-4.875 3.188-10 6l-2-1-1-3q3.008.45 6 1v-2c-2.645-.07-5.293-.026-7.937.063-6.732.078-11.795-.419-18.063-3.063l-4.625-1.187c-5.435-2.252-7.922-5.111-11.375-9.813v-3h-2q-.624-4.487-1-9"/><path fill="#ce7453" d="M634 510h3v2l4 2h-4l1 4-1 2h3l-1 4h2v2l3 1c.313 4 .313 4 0 8l-2 1-2-2v-4l-4 2v-2l-3-1c-2.057-5.142-2.08-6.796-1-12l1-2z"/><path fill="#d08c73" d="m693 438 3 1c-5.492 10.985-17.545 19.152-28 25l-3-1 3-3 2-3h3v-4l1-4h2v-2l5-1 1 2 1-1h5v-2h2v-4h2z"/><path fill="#cf9177" d="M508 261c2.987 2.987 4.297 5.247 6.145 8.996l1.802 3.635 1.865 3.807 1.83 3.7q1.804 3.65 3.595 7.303a439 439 0 0 0 3.585 7.075c1.447 2.8 2.82 5.639 4.178 8.484l-1 2h-2v-4l-4-2c-2.105-3.484-2.105-3.484-4.187-7.75l-2.106-4.234c-1.482-3.486-2.132-6.322-2.707-10.016h-2c-3.587-5.979-4.022-10.157-5-17"/><path fill="#ce917b" d="M892 300h2c-1.374 5.795-4.385 11.031-7.062 16.313l-1.47 2.916C875.811 338.316 875.811 338.316 872 345h-1c-.187-4-.187-4 0-8h2l1-5h2l.414-3.035c.645-4.363 1.989-7.47 3.961-11.402l1.836-3.747L884 311h3c1.125-2.875 1.125-2.875 2-6l1-2h2z"/><path fill="#d39d86" d="M583 433c2 2 2 2 2 5l4 2c2 1 2 1 4 6 4.324 4 4.324 4 7 4v2l4 1 1 5 5 2 1 2 5.563 1.5L622 465v2l2 1c-13.37-1.371-24.916-10.647-34-20-3.553-4.392-6.61-8.44-8-14z"/><path fill="#d28366" d="M850 295h1v5h-2v3c3.438 1.125 3.438 1.125 7 2 1 1 1 1 1 6h-2a126 126 0 0 0-2 6l-2 4-1 4.625C849 330 849 330 847 332l.438-2.687c.486-3.729.938-7.447 1.312-11.188l.36-3.43L849 312l-3-1c-1-2.437-1-2.437-1-6 2.375-5.375 2.375-5.375 5-10"/><path fill="#d18f76" d="M654 461c6.175 0 6.853.097 11 4q-2.842.974-5.687 1.938l-3.2 1.09c-5.978 1.867-11.394 2.107-17.613 2.097l-5.031.008C629 470 629 470 624 469v-1l5-1 1-2c2.665-.095 5.334-.074 8 0 6.327.085 11.875-.218 18-2z"/><path fill="#cf7454" d="m557 365 4 2v2l3 1c.188 3.375.188 3.375 0 7v3l2 1c-2 5-2 5-4 7l-3-3v-3l-4-1c-.812-4.5-.812-4.5-1-9l1-1v-2h2z"/><path fill="#d49f89" d="M494 233c3 4 3 4 4 8 2.992.469 2.992.469 6.875.5 11.52.502 19.37 3.647 28.125 11.5 2.618 2.904 4.775 5.76 7 9l-1 2-5-2a180 180 0 0 1-1-6l-4-1v-2l-2-1v-2l-3 1c-3.687-1.312-3.687-1.312-7-3v-2h-5l-1-2c-2.836-.379-2.836-.379-6.375-.562-6.347-.345-6.347-.345-9.625-1.438-.687-4.562-.687-4.562-1-9"/><path fill="#d28466" d="M596 432a121 121 0 0 1 8.125 8.688C607 444 607 444 610 446l-1 4a198 198 0 0 0 10 3v2c-5-1-5-1-8.312-2.812L608 451v4l3-1v2h2l-1 5c-6.89-2.756-6.89-2.756-8.812-7L602 450l3-1v-5h-4v-2l-4-2v-2l-2-1zm14 24 1 2Z"/><path fill="#d18f74" d="m580 308 2 3 3 1c2 4 2 4 2 7h2l.375 2.75C590 325 590 325 594 329c3 5 3 5 3 8l5 1c-1 3-1 3-4 5l-1 2-1.906-3.629-2.594-4.933-2.738-5.223a645 645 0 0 0-5.242-9.711l-2.207-4.004-2.012-3.594C579 311 579 311 580 308"/><path fill="#d17f62" d="M765 412c3.143 6.286 3.143 6.286 2 12h-4l-2-4c-2 3-2 3-2 6l-4 1 2 3c.25 4.125.25 4.125 0 8l-2 1-1-5h-1v-6l-1-2c1.145-2.855 1.145-2.855 2.813-6.187.27-.554.27-.554 1.644-3.356.51-.81 1.018-1.622 1.543-2.457l2 1 1-2z"/><path fill="#d19c86" d="M558 201c6 0 6 0 9 2l5.5 1.125c6.908 1.64 12.418 4.907 17.5 9.875l1 4 4 2 1 5h3v5c-4-4-4-4-7.125-7.812C582.079 211.602 569.949 206.082 556 203z"/><path fill="#d1977f" d="M816 212c3.813.563 3.813.563 7 2-1.562 2.063-1.562 2.063-5 5-6.225 6.526-10.68 13.104-15 21l-2.437 4.25L799 247c-1.245-4.98-.417-8.112 1-13l3-1 1-4 1-2h2v-2h3a150 150 0 0 0 1-6h2v-3l3-2z"/><path fill="#d18d72" d="M484 237c3 3 3 3 4.5 7.625L490 249l3 1v-3h3c.337 4.297-.15 7.746-1 12h2a212 212 0 0 1 4 9l-3-1-1-2-2 1a221 221 0 0 1-6.062-11.187l-1.682-3.237c-4.111-7.996-4.111-7.996-5.256-12.576h2z"/><path fill="#c97959" d="m637 437 3.438 1.313c6.497 1.97 12.406 2.186 19.16 2.378L663 441v2h-5v3q-5.495.562-11 1v2c-4.437.375-4.437.375-9 0l-1-4 5-2c-1-2-1-2-5-4z"/><path fill="#d5a48f" d="m805 352 1 2-2 3.188c-2.465 5.93-1.886 9.963-1.066 16.226.076 4.13-.744 6.124-2.934 9.586-4.158 3.977-7.98 7-14 7l-2 5h-1c-.5-4.062-.5-4.062 0-8 3.5.125 3.5.125 7 1v-2h5l1-5 1-2h3c-.25-3.035-.25-3.035-1-7.062-.907-5.853-1.5-9.813 2-14.938h2v-4z"/><path fill="#d29982" d="M536 344c4 1 4 1 5 2l-.187 3.5.187 3.5 4 1c2.29 3.57 2.29 3.57 4.625 8.125l2.352 4.508c1.77 3.822 3.23 7.234 4.023 11.367l-2 3c-1.449-2.011-1.449-2.011-3.117-5.332l-1.84-3.611-1.918-3.87-1.895-3.74a1283 1283 0 0 1-3.62-7.215 737 737 0 0 0-4.055-7.994C536 346 536 346 536 344"/><path fill="#d4a28d" d="m937 209 3 1c-.98 3.919-2.295 6.786-4.125 10.375l-2.14 4.215c-.21.41-.21.41-1.264 2.488-1.776 3.528-3.522 7.07-5.268 10.613l-2.03 4.106a2991 2991 0 0 0-4.068 8.257l-1.91 3.848-1.718 3.484C916 260 916 260 914 261v-4h2l-.5-3-.5-3h2l1-5 4-1v-4h2l.438-2.625c.606-3.64 1.715-6.197 3.562-9.375l2-1 .438-4.562c.185-1.465.37-2.93.562-4.438h3a169 169 0 0 0 2-6h2z"/><path fill="#d39b83" d="m598 345 4 2 1 3 2 1c.35 4.818-.152 8.694-1.187 13.438L603 369l3 1 2 4c2.923 2.615 5.462 4.23 9 6l-1 2c-7.11-2.994-12.414-5.827-16-13-.234-8.894-.234-8.894.688-13.25.417-3.676-.894-5.592-2.688-8.75z"/><path fill="#d29b83" d="M790 295v2l-4.437.813L781 299l-1 5-2 5c.313 3 .313 3 1 6l1 5c3.063 1.188 3.063 1.188 6 2v2q4 .063 8 0v1c-5.868.356-10.059.332-15-3-3.717-4.118-4.939-6.078-5.312-11.687.322-5.475 1.126-7.944 4.312-12.313 3.932-2.622 7.323-3 12-3"/><path fill="#d49c84" d="M622 350c4.05 2.025 5.45 3.396 8 7 1.565 4.696 1.74 9.24-.195 13.84-1.09 4.278.106 6.06 2.133 9.91A133 133 0 0 1 635 387l-1 2h-3c-2.458-5.957-3.492-11.598-4-18l-2 2 1-5c.138-4.952-.025-9.127-1-14l-3-1z"/><path fill="#d3977d" d="m781 250 1 2-2 5 1 2c-2.455 5.727-2.455 5.727-5 7a282 282 0 0 0-3 9c-2.609 7.609-2.609 7.609-6 11h-2l-1 4-1-2a134 134 0 0 1 3-6l1-3c8.034-23.034 8.034-23.034 14-29"/><path fill="#e0b9a4" d="m793 459 1 2c-1.25 3.063-1.25 3.063-3 6l-3 1 1 5-2 1-2-1-2 5c-2 3-2 3-7 6-2.07 2.059-2.07 2.059-4.125 4.438l-2.332 2.64a1317 1317 0 0 0-5.43 6.281c-.482.55-.482.55-2.926 3.329l-2.707 3.136L756 506l-4-1 4-2v-2a592 592 0 0 1 8-7c8.34-7.792 15.065-16.742 21.89-25.863l2.735-3.637 2.477-3.344z"/><path fill="#cd7555" d="M663 568c3.404 0 5.944.472 9 2l1-2v2q2.999.51 6 1c2.354.95 4.694 1.94 7 3-4.88 1.22-6.582.124-11-2l1 4-2 4c-3.437 0-3.437 0-7-1-3.018-4.024-4.196-6.01-4-11"/><path fill="#d29179" d="m712 407 3 2c-2.256 10.463-9.97 21.127-17 29l-2-2v-3h2l1-5h3v-9c3-2 3-2 7-3v-3h2l.438-3.125z"/><path fill="#ce7554" d="M603 396h2c1 4 1 4 0 6l4 1 2 2 2 1c.409 2.656.745 5.325 1 8l-1-3h-3l-.25 3.813L609 418c-3.625-1.562-3.625-1.562-7-5 .188-4.312.188-4.312 1-8h-2v-2h3v-2l-2-1h2z"/><path fill="#dbb5a1" d="M770 331c4.615.799 8.522 2.87 12 6-.375 2.75-.375 2.75-2 6l-2.062 4.375c-.64 1.196-1.28 2.392-1.938 3.625h-1v-5h2c.75-3.937.75-3.937 1-8l-2-1v-2h-3v-2h-3l-1 5c-1.62 4.269-2.743 6.743-6 10-2.167 4.613-4.12 9.29-6.062 14L755 366l-3 1c2.377-7.779 6.275-14.799 10-22l2.094-4.227 2.031-3.898 1.82-3.57z"/><path fill="#d07352" d="M564 270h2l1 2 4-1 2 5 3 3v2h2c-.062 3.375-.062 3.375-1 7l-5 2c-2.187-5.312-2.187-5.312-4-11l-2-1c-2-5-2-5-2-8"/><path fill="#d9a892" d="m693 496 2 1v3c-6.914 6.914-21.965 7.358-31.187 7.438-5.909-.087-11.143-.736-16.813-2.438v-1c2.523.004 5.047.016 7.57.066 14.62.272 25.176-1.949 38.43-8.066"/><path fill="#cf8d71" d="M643 285c2.763 3.683 4.927 7.277 7.125 11.313l2.133 3.863c1.722 3.78 2.731 6.664 2.742 10.824l-4 1-1-4h-2l-.937-3.375C646 301 646 301 643 299c-.187-4-.187-4 0-8z"/><path fill="#d47553" d="M608 451c2.625.625 2.625.625 6 2l3.063 1c2.677.912 5.31 1.95 7.937 3 1.5 3.563 1.5 3.563 2 7l-3 1-5-3-3.875-.375L612 461l1-5-5-1z"/><path fill="#cd8065" d="M912 246h3l3 3-1 4v-2h-2l.5 3 .5 3h-2l.25 2.813c-.368 6.159-3.069 9.928-6.25 15.187h-1c-.187-4.5-.187-4.5 0-9h2v-3.25c0-3.75 0-3.75 2-7.75l.438-4.75z"/><path fill="#d39e85" d="M599 230c5.502 2.165 7.496 4.678 10.313 9.813l2.05 3.644c1.535 3.322 2.356 5.911 2.637 9.543l-1 2 3 1-1 3 3 1-2 4c-14.796-27.389-14.796-27.389-17-34"/><path fill="#d6aa94" d="m835 192 2 1c-5 3-5 3-8 3v2c-2.484 1.656-2.484 1.656-5.75 3.5l-3.234 1.844A205 205 0 0 1 813 207c-3.392 3.635-6.473 7.164-9.125 11.375C802 221 802 221 797 223c2-5 2-5 4-8h2l2-4c8.838-8.557 18.3-15.045 30-19"/><path fill="#dcad96" d="m820 413 1 2c-1.785 4.802-3.709 9.417-6 14l-1 4c-1 4-1 4-3 8h-2l-1 3h-2v3l-4 2-3 3c1.628-4.07 3.229-7.11 5.563-10.75 5.698-9.115 10.632-18.64 15.437-28.25"/><path fill="#cd7f61" d="m723 424 1 4h2v2h2v2l-3-1v-2h-2v2h-2c1-5 1-5 2-7m7 7h1v5h-2l-.375 3.625c-.656 4.591-1.763 6.798-4.625 10.375h-1c-.241-6.517-.241-6.517 1-9h-2v-2h-2l1-3h2v-3l3-1 2 2z"/><path fill="#ce7554" d="M596 267h6v2h2c1 5 1 5-1 9 4 3 4 3 8 5h-6v2h-3v4h-3a330 330 0 0 1 1-9h-2c1-4 1-4 2-5l-2-1c-2-4-2-4-2-7"/><path fill="#d09982" d="m836 291 1 2c-2.462 5.748-5.447 11.256-8.312 16.813-.8 1.59-1.598 3.18-2.42 4.818l-2.319 4.514-2.146 4.198L820 326c-2-3-2-3-1.812-7.187L819 315h3c1.063-2.75 1.063-2.75 2-6l2-4h2l.438-2.812C829 299 829 299 832 296h2v-4z"/><path fill="#d3977d" d="m620 509 6 2 3-1-.625 2.875c-.375 4.125-.375 4.125 2 8.375 3.152 5.703 3.38 9.32 3.625 15.75-3.559-4.745-6.062-9.834-8.687-15.125l-1.55-3.074C620 511.253 620 511.253 620 509"/><path fill="#dca48a" d="m612 344 2 1v2a140 140 0 0 0 8 2l-3 3c-.43 6.138-.43 6.138 1 9v6l-3 3h-6l-2-2c.25-4.625.25-4.625 1-9h2l1-3 2-1a228 228 0 0 0-3-9zm1 16-2 5 2 3c3.125 0 3.125 0 6-1v-5c-3-2-3-2-6-2"/><path fill="#d17453" d="M616 419h1v6h3v3h3q3.03 3.474 6 7l3 1 1 4c-4-2-4-2-7.687-5.437L622 432l-1 5-9-9c0-5 0-5 4-9"/><path fill="#d7a792" d="m815 269 2 1c-1.322 5.462-4.022 10.454-6.437 15.5l-2.372 4.969C806 295 806 295 804.09 298.28 803 301 803 301 805 306c.188 3.813.188 3.813 0 7h-1l-.375-3.937L803 305l-3-1c-.812-3.562-.812-3.562-1-7h2v-5l4-1a101 101 0 0 0 2-6h2v-4h2v-4h2v-4h2z"/><path fill="#d6987d" d="m751 428 1 2-2 5-1 4c-1 4-1 4-3 9l4-2c-1 4-1 4-3 6l-1 2h-3l-1-4-4 2c2.116-5.29 4.749-9.896 7.625-14.812l1.563-2.678q1.902-3.257 3.812-6.51"/><path fill="#d5967a" d="M880 265h-2v2l3 1-3.312 1.188C874 271 874 271 871 276l-4 3-5-1-3 2c3.09-6.18 13.289-17.57 21-15"/><path fill="#d4a591" d="M598 466c3.485 1.743 6.165 3.54 9.25 5.875 4.394 3.244 8.757 5.864 13.75 8.125-3 1-3 1-8.25-1l-4.75-1c-.125 4.313-.125 4.313 1 9-2.962-3.949-5.001-7.772-7.187-12.187l-2.168-4.356C598 467 598 467 598 466"/><path fill="#d38d71" d="M636 331c3 4 3 4 4 8l-1 3h-2l1 3h-2c-.195 3.281-.195 3.281-.125 7.5l.055 4.219L636 360c-6-8-6-8-6-12h5l-2-5 1-1v-2h-2a128 128 0 0 1 0-8l4 3z"/><path fill="#d6957b" d="m593 270 1 2 4-1v3l3 1-3 5h2c-2 5-2 5-5 8a161 161 0 0 0 0 11c-2-2-2-2-2.187-6.812C593 287 593 287 594 282a318 318 0 0 0-4-9c1-2 1-2 3-3"/><path fill="#d5a18a" d="M618 439c5 1 5 1 9 4l3.75 1.063L634 445v2c2.844.703 2.844.703 6.5 1.25l3.656.578L647 449v-2l-2-1h13c-4.294 4.294-9.947 4.342-15.75 4.438-10.18-.131-16.794-3.374-24.25-10.438z"/><path fill="#d39c85" d="M540 264c5.525 5.525 8.448 13.1 12 20l1.957 3.719c1.413 2.727 2.738 5.5 4.043 8.281l-1 2-3-1-1-4-2-1v-2h-2q-.507-4.5-1-9l-2-1v-2l-3-1c-2.786-4.179-2.615-8.063-3-13"/><path fill="#cf7554" d="m572 229 4 1v2h2v2l3 1 1 3c-1.812 2.938-1.812 2.938-4 5l-2-4h-6c-5-5.87-5-5.87-5-9h2l1 2 3 1z"/><path fill="#d2977d" d="m540 286 1 2h2v5h2c1.762 3.07 1.762 3.07 3.688 7.125l1.949 4.008c1.402 3.977 1.49 5.872.363 9.867-3.257-4.342-5.694-8.775-8.25-13.562l-2.766-5.13C538 291 538 291 539 288z"/><path fill="#d07351" d="M852 214c-.687 3.063-.687 3.063-2 6h-2l-1 4-4 1-2 3-3-2 1-5 3-1 1-4c2.97-2.97 5.055-3.315 9-2"/><path fill="#d79f86" d="M874 231c4.535-.713 7.656-.448 12 1 .938 4.438.938 4.438 1 9-4 2-4 2-10 2l-4-2c-.312-5.125-.312-5.125 1-10m2 3-1 1v5l1 1h5l1-1v-5l-1-1z"/><path fill="#daaf9b" d="M513 230c4.96.365 8.52.76 13 3h6c1.79 2.3 1.79 2.3 3.625 5.313l1.852 2.988C539 244 539 244 540 247c-3.677-1.838-6.36-3.775-9.562-6.312-5.563-4.25-11.006-6.98-17.438-9.688z"/><path fill="#d79075" d="M768 394c1 2 1 2 2 7l3 3v2h-2l1 4c-2.812.875-2.812.875-6 1l-2-2-3 3-2 2c1.012-5.062 2.599-8.315 5.063-12.812l2.222-4.083z"/><path fill="#d39e87" d="M577 228c8.795 4.398 15.076 14.141 19 23l-1 3-2-2-2-1v-4l-4-2a442 442 0 0 1-3-7l-3-1-3-3v-2h-2l1-2z"/><path fill="#e4bdaa" d="m918.688 200.625 3.46-.079c3.176-.007 3.176-.007 7.852.454l-2 4v-3c-17.007-.765-33.96 2.218-49.926 7.914C875 211 875 211 871 212l1-3q3.492-.553 7-1v-2l5-1 4-2c10.104-1.98 20.421-2.246 30.688-2.375"/><path fill="#d69980" d="M828 289c2 2 2 2 2 7l-8-1v5l-3-1a374 374 0 0 0-3 9c-4.21 7.474-4.21 7.474-8 10 1.648-5.615 4.168-10.665 6.813-15.875l2.582-5.18L820 293h5v-2z"/><path fill="#d78f72" d="M858 280v4c5-2 5-2 6-4h2v2h2v5l-4 1-1 3c-2-1-2-1-4-4l-2 3h-2v2h-2v3h-2c1.548-5.678 3.488-10.277 7-15"/><path fill="#dda58d" d="M649 409c2.844.8 2.844.8 6.5 2.313 5.76 2.204 10.259 3.311 16.5 2.687l2-1-2-2c5 1 5 1 8 3-6.71 2.497-12.933 2.146-20 2l13 1c-4.615 3.077-8.58 2.361-14 2-3.25-1.875-3.25-1.875-5-4l1-2-3.5-.437L648 412z"/><path fill="#dbaf9c" d="M529 200c4.2-.426 4.2-.426 9.688-.312l5.449.074C549 200 549 200 554 201v1c-3.5.074-7 .083-10.5.063l-5.906-.028L533 202l2.273 2.27q3.189 3.196 6.352 6.417C545 214 545 214 548 216c-6.417-1.283-10.183-4.73-15-9v-2l-4-1z"/><path fill="#dca78f" d="m775 501 2 1-3 5c-.71 2.968-1.419 5.936-2.117 8.906-1.285 4.501-3.297 8.215-5.883 12.094h-3c0-3.688 1.844-6.713 3.563-9.875C768 515 768 515 768.313 511.563c.93-4.825 3.228-7.174 6.687-10.563"/><path fill="#d8aa94" d="M806 381c1 3 1 3 1 5h-2l-1 5-1 5h-2v2h-2l-.937 5.438L797 409l-3 1v2h-3c2.482-10.706 8.87-21.996 15-31"/><path fill="#d17453" d="M559 251c2.961 3.948 5 6.952 5 12h2l-1 5h-3l-3-5-3-4c-.937-3.125-.937-3.125-1-6z"/><path fill="#d39b83" d="m771 538 1 2a91.6 91.6 0 0 1-15 25c-2-4-2-4-2-6h4c.625-3 .625-3 1-6h2c.083-2.665.083-5.335 0-8l2 4h2a224 224 0 0 0 1-6c2-4 2-4 4-5"/><path fill="#d28c70" d="M758 503v3l-3 1-.437 3.313C754 514 754 514 750 518l-1-4-2 1c-2.666.04-5.334.043-8 0 5.428-5.428 10.44-9.303 18-11z"/><path fill="#d59d85" d="m734 415 3 2v4h2v-4l3-1c-1.632 5.919-4.637 11.06-7.625 16.375l-1.562 2.809A2397 2397 0 0 1 729 442c-1-2-1-2 0-6h2v-6h2c.044-3.666.04-7.334 0-11z"/><path fill="#d59176" d="M636 391c3.875 3.875 6.194 8.304 9 13 1.291 1.7 2.602 3.387 4 5a109 109 0 0 1-7-1l-1-2-3.5 1.063-3.5.937-1-3 3-3h2l-1-1q-.555-4.995-1-10"/><path fill="#e2bcab" d="m864.188 187.75 3.79-.023c3.01.006 6.017.127 9.022.273-1.622 3.243-4.623 3.787-7.875 5.188l-3.805 1.667C862 196 862 196 859 195c5.75-3 5.75-3 8-3v-3c-3.341.239-6.675.594-10 1l-5.562-.125L847 190l-1 3c-4.562-.312-4.562-.312-9-1 7.795-5.197 18.154-4.308 27.188-4.25"/><path fill="#d39c84" d="M644 527c2.77 3.694 4.762 7.222 6.875 11.313 2.731 5.21 5.683 9.913 9.125 14.687l-1 2-4-1a772 772 0 0 1-2-7l-4-2c-4-9.778-4-9.778-4-13h-2z"/><path fill="#d3a38e" d="m694 381 12 3c-4.523 4.775-7.206 6.91-14 7.25-5-.25-5-.25-9-2.25l-1-3 4 1c3.665.12 7.336.13 11 0l1-2-1-1z"/><path fill="#d9a289" d="M573 344c7.935 0 7.935 0 12 3 .625 3.438.625 3.438 0 7l-4 4-2-1v-2h-5c-2.438-3.657-2.24-5.69-2-10zm3 2-3 3 1 4 5 1 2-2-1-5z"/><path fill="#d4a18b" d="m744 350 1 2c-.959 2.221-2.031 4.393-3.148 6.54l-2.047 3.944-2.18 4.141-2.156 4.164c-3.888 7.45-3.888 7.45-5.469 10.211h-1c-.245-4.896-.224-7.552 2-12h2v-4h3a169 169 0 0 0 2-6h2v-4h2v-4z"/><path fill="#d9ae98" d="M885.5 222.875 888 224v2l4 2c2.07 5.173 2.246 8.506 2 14h-1l-.625-4.625c-1.597-6.243-2.906-8.076-8.375-11.375-5.484-.533-10.583.078-16 1 5.708-5.708 9.581-6.105 17.5-4.125"/><path fill="#d1947a" d="M718 534h1c.438 3.188.438 3.188 0 7-3.956 4.043-6.814 5.922-12.5 6.125C703 547 703 547 700 546l-2-4c.938.095 1.877.19 2.844.29 1.206.11 2.413.22 3.656.335l3.656.352L711 543v-2l2.938-.812L717 539z"/><path fill="#d6a690" d="m848 359 2 3c-1.25 4.188-1.25 4.188-3 8h-2v4h-2v2l-2 1c-.776 3.085-1.347 6.185-1.926 9.313L838 389l-5 1c1.32-6.71 5.396-13.026 8.5-19.062.594-1.19 1.189-2.381 1.8-3.608 1.459-2.835 3.064-5.594 4.7-8.33"/><path fill="#d8a58d" d="m663 349 4 1v6h2l.438 3.25C670 363 670 363 673 367a228 228 0 0 1 3 9l1.188 3.563L678 382c-3.336-3.336-4.813-6.33-6.875-10.562-2.328-4.772-4.688-9.504-7.187-14.188C662 353 662 353 663 349"/><path fill="#d28c70" d="m888 193-5 2 2 2-4 2 6 1c-2.59 2.59-4.399 2.77-8 3l-1-3a159 159 0 0 0-11 1c4.846-6.23 13.285-9.929 21-8"/><path fill="#d28f75" d="m460 196 3 2h2l1 5h2v5h6l3 4c-2.562 1.375-2.562 1.375-6 2-4.682-2.341-5.379-3.893-7.75-8.437l-1.86-3.497C460 199 460 199 460 196"/><path fill="#d3937a" d="M716 498h4v2a464 464 0 0 0 11-2h5c-3.6 2.7-6.365 4.138-10.5 5.75l-3.406 1.36C719 506 719 506 715 505c0-3.562 0-3.562 1-7"/><path fill="#d9a78f" d="M788.688 368.75 793 370c.688 4.438.688 4.438 0 9-2 2-2 2-5.437 2.375L784 381c-3-4-3-4-3-9 3-3 3-3 7.688-3.25M785 370l-2 2c1 4 1 4 4 6l4-4-2-4z"/><path fill="#d8a691" d="M844 307c1.836 3.672.072 7.247-1 11h-3a262 262 0 0 0-1 8h-2v5c-2.5 2.813-2.5 2.813-5 5-1.173-4.69-.638-5.45 1.492-9.605l1.637-3.229 1.746-3.353 1.723-3.39c4.206-8.227 4.206-8.227 5.402-9.423"/><path fill="#dba68f" d="m660 555 2.938 2.563C670.7 564.132 677.642 569.09 687 573c-4.297 1.432-7.008-.372-11.059-1.969C673 570 673 570 667.812 569.188L664 568c-.312-3.5-.312-3.5 0-7l-4-2z"/><path fill="#ce8a6f" d="m748 402 1 2c-1.074 2.531-1.074 2.531-2.687 5.5l-1.575 2.969C743 415 743 415 739 417v4h-2c-2-5-2-5-1-10h4l1-2h2l1-4h2v-2z"/><path fill="#ce7353" d="m849 252 1 3c3-1 3-1 5-2v5l-3 1 2 3-3 2v-3l-2 1v2l-6-2v2h-2l2-5h2v-3z"/><path fill="#d1967e" d="M848 202c-3.028 2.018-5.714 3.075-9.125 4.313-4.353 1.613-8.235 3.38-12.187 5.812L823 214v-5h2v-2c8.066-4.033 14.09-5.154 23-5"/><path fill="#d89a80" d="m670 518 3 1 .813 2.5c1.187 3.5 1.187 3.5 4.375 8.25L681 534l-1 2-3-2c-4 0-4 0-7 1l-1-3h3c-1-4-1-4-3-8l1-3z"/><path fill="#d39b84" d="M595 299h4l2 3c4.133.293 4.133.293 9.125.188l5.008-.083L619 302c-3 4-3 4-6 5-8.85.575-8.85.575-13.5-1.75C597 303 597 303 595 299"/><path fill="#e2b49f" d="m681 536 3.5 2.75c10.277 7.422 20.208 10.481 32.754 11.04L720 550v1c-11.382 1.047-20.442-.954-31-5l-4-1v-2l-4-1z"/><path fill="#ce9279" d="M833 390h2c0 5 0 5-3 10l-2.562 4.813c-.805 1.381-1.61 2.763-2.438 4.187h-2c-1.125 3-1.125 3-2 6-1.758-5.274 1.737-10.157 4-15 4.513-8.513 4.513-8.513 6-10"/><path fill="#d09780" d="M713 457h5c-2.053 4.107-4.257 6.656-7.375 10l-2.898 3.125A363 363 0 0 1 701 477l-2-1 1-2-3-1h5l1-4 3-1 1-3h2l1-3 2-3z"/><path fill="#d28569" d="m837 228 2 1v4h-2l1 2 2-1c-1.957 3.914-4.111 6.74-7 10h-1c-1.25-4.75-1.25-4.75-2-10l3-4h3z"/><path fill="#cc9079" d="M814 331h1c-.388 5.358-1.828 9.152-4.437 13.813l-1.872 3.394C807 351 807 351 805 353h-3l1-4h3a352 352 0 0 0 2-10c1.438-3.625 1.438-3.625 3-6h3z"/><path fill="#d29b86" d="m906 275 1 2a252 252 0 0 1-5.312 11.063l-1.553 3.126c-3.873 7.68-3.873 7.68-6.135 8.811v-4h2l-.187-2.875c.305-6.729 3.2-12.137 7.937-16.875z"/><path fill="#d79b83" d="m732 404 1 4-1 1 1 4c-1.25 3.25-1.25 3.25-3 6h-3v6l-3 3-2-2c1.075-5.373 2.96-9.01 5.563-13.812l2.503-4.645z"/><path fill="#d59f86" d="m734 341 2 1v2h3v3l-5-1c-.687 3.25-.687 3.25-1 7l-2 3h-3c-1.125 2.875-1.125 2.875-2 6l-1 2h-2c1.3-5.349 3.961-10.087 6.5-14.937l2.406-4.653z"/><path fill="#d4a18a" d="M508 261c3.836 3.836 5.868 8.261 8.25 13.063l1.43 2.798c1.173 2.348 2.254 4.74 3.32 7.139l-1 2h-2l-1-4h-2v-4h-2c-3.587-5.979-4.022-10.157-5-17"/><path fill="#ca7555" d="M638 338c3 3 3 3 3.5 6.625L642 348l3 1-1 2c-4 1-4 1-6 1v2l-3 1c.238-4.521.563-8.689 2-13h2z"/><path fill="#dbac96" d="M637 514c2.992-.437 2.992-.437 6.875 0l3.867.375C651 515 651 515 653 517l4 2-1 2a492 492 0 0 1-6-2c-5.062-1.187-5.062-1.187-9-1 .938 4.438.938 4.438 3 9l-3-1v-2h-2l1-4h-3z"/><path fill="#e4bca9" d="m621 481 10 2c11.77 2.354 22.5.907 34-2l3 1-1 2q-2.999.51-6 1l-2 2c-3.83.063-7.555 0-11.375-.187l-3.3-.151c-18.68-1.016-18.68-1.016-23.325-5.662"/><path fill="#f9e2d6" d="M827.5 351.875C831 352 831 352 832 353v6l-2 2h-5l-2-2c0-6.964 0-6.964 4.5-7.125"/><path fill="#dcb5a1" d="M864 328h1c-.36 5.752-2.125 10.034-5 15h-2v4h-3a522 522 0 0 0-2 9l-3 3c-1-3-1-3 .406-6.117l2.094-3.758 2.223-4.027L857 341q1.973-3.717 3.938-7.437A155 155 0 0 1 864 328"/><path fill="#d5aa96" d="m761 317 1 2c-1.032 2.367-2.177 4.685-3.367 6.977l-2.184 4.218-2.324 4.43-2.3 4.453c-4.147 7.968-4.147 7.968-5.825 10.922h-1c.313-3.5.313-3.5 1-7h2v-4h2l.438-2.625c.606-3.64 1.715-6.197 3.562-9.375l2-1 .938-2.875C758 320 758 320 761 317"/><path fill="#cf937c" d="M837 403h2c1.27 6.353-.296 8.227-3.375 13.813l-2.523 4.644L831 425h-1c-.245-4.896-.224-7.552 2-12l1.5-3.25L835 407h2z"/><path fill="#d4a38d" d="M511 295c3 1.625 3 1.625 6 4v6h2v5l3 1v5l3 1-1 3 3 1-2 4-2.555-5.145-3.32-6.668-1.684-3.392-1.62-3.252-1.492-3C513 301 513 301 511 298z"/><path fill="#e2bfae" d="M636 436c5 1 5 1 7.887 2.05 3.469 1.058 6.306 1.182 9.926 1.137l3.683-.042c2.968-.123 5.928-.427 8.879-.77L670 438v2c-4.875 3.188-4.875 3.188-10 6l-2-1-1-3q3.008.45 6 1v-2c-2.625-.043-5.252.02-7.875.125-7.512.107-12.494-.652-19.125-4.125z"/><path fill="#d19177" d="M620 322c4.412 4.738 6.63 10.04 9 16l-1 5h2v5c-2.504-3.338-4.366-6.372-6.25-10.062l-1.64-3.16C621 332 621 332 622 329l-2-4z"/><path fill="#d9ab94" d="m667 391 3.438 2.813c8.807 6.152 15.259 6.49 25.562 5.187l-1 2c-7.255 1.96-14.23 2.94-21.312.063C669 398 669 398 667.313 394.188z"/><path fill="#e0bba7" d="M722 364c1 4 1 4-1 9l-3 3a115 115 0 0 0-2.125 5.688c-2.668 6.705-6.101 10.044-11.875 14.312l-2-1 2.813-2.562c7.95-7.574 12.38-18.726 17.187-28.438"/><path fill="#d6a993" d="m560 331 3 1-1 2 3 1c.955 5.012.976 9.23.438 14.313C565 354 565 354 567 358l-1 3c-3.315-3.636-4.813-6.049-5-11l1.125-4.812c.978-5.798.12-8.836-2.125-14.188"/><path fill="#e1bca9" d="M927 205c1.536 6.145-1.177 9.42-4 15l-2 1-.937 3.375C919 228 919 228 916 231a106 106 0 0 0-2.562 5.688L911 242h-2c5.103-12.758 11.409-24.957 18-37"/><path fill="#c5795d" d="M488 226c4.367-.46 4.367-.46 9.875-.375l5.492.04C508 226 508 226 511 228l-4.227-.246-5.398-.191-5.414-.247L492 228c.664 3.59.664 3.59 2 7-4-1-4-1-7-5z"/><path fill="#d0886c" d="m786 420 1 4h2c0 4.375 0 4.375-1 9-3.062 1.375-3.062 1.375-6 2v3h-2c1.354-6.412 2.672-12.295 6-18"/><path fill="#d38568" d="m794 410 1 3 4 1v-2h3v5c-3.437 1.438-3.437 1.438-7 2l-1-2h-2l-1 2-1-1-1 2h-2c.791-2.8 1.698-5.396 3-8h4z"/><path fill="#d49f87" d="m580 308 2 3 3 1c2 4 2 4 2 7h2q.625 5.489 1 11c-2.816-3.755-5.012-7.445-7.25-11.562l-2.203-4.004C579 311 579 311 580 308"/><path fill="#d28f75" d="M792 491h2c1.283 5.13.027 6.636-2.375 11.25l-1.96 3.828L788 509h-1v-10l-1-3 4-1z"/><path fill="#d3a28c" d="M558 298c3.344 4.46 5.766 9.163 8.25 14.125l1.43 2.785c1.17 2.332 2.253 4.708 3.32 7.09l-1 2c-3-3-3-3-5-6v-5l-4-2c-1.145-2.748-2-5.01-2-8h-2z"/><path fill="#d0947b" d="M750 383h3v2l5-1c-.862 4.413-3.053 8.377-5.062 12.375l-1.598 3.21L750 402h-1c-.25-4.5-.25-4.5 0-9h3c.313-3.5.313-3.5 0-7h-2z"/><path fill="#e0b49f" d="M610 447c2.695.95 2.695.95 6.125 2.688 7.533 3.783 13.868 5.51 22.313 5.875 2.522.112 5.044.247 7.562.437v1c-3.572.13-7.115.185-10.687.188l-3.053.037c-5.097.01-8.465-.307-13.26-2.225v-2a224 224 0 0 0-6-1l-4-2z"/><path fill="#dbac96" d="M878 301c1 2 1 2 0 7l-3 3q-1.024 4.995-2 10h-2v3h-3l-1 4h-2c1.275-5.284 3.935-9.87 6.5-14.625 4.477-8.328 4.477-8.328 6.5-12.375"/><path fill="#d07352" d="M651 316c2.938.313 2.938.313 6 2 1.563 2.938 1.563 2.938 2 6l-5 5c-3.115-5.073-4.194-7.029-3-13"/><path fill="#d49980" d="M620 241c4.01 4.154 9 11.126 9 17h-6c-1.172-2.59-1.172-2.59-1.75-5.937A122 122 0 0 0 620 246l-2-1c1-3 1-3 2-4"/><path fill="#d7a58e" d="M552 229c3.875-.312 3.875-.312 8 0l2 2 5 2c1.813 3.125 1.813 3.125 3 6l-14-7 2 4-1 3-1.375-2.937C554 233 554 233 552 232z"/><path fill="#be795c" d="m933 200-2 5h-2l1-4c-3.008-.346-3.008-.346-7.34-.137l-4.658.19-4.94.26q-4.794.218-9.59.425l-4.335.22L896 202v-1c9.99-2.073 27.71-5.645 37-1"/></svg>