<svg xmlns="http://www.w3.org/2000/svg" width="1408" height="768"><path fill="#cc7150" d="m1015 151.438 3.45-.082c4.889.023 8.04.327 12.234 2.933 3.101 3.63 3.389 5.975 3.316 10.711-1.677 4.679-2.917 5.937-7 9-4.476 1.119-8.447 1.187-13.062 1.313C979.37 176.835 942.203 184.633 912 202l-2.75 1.547C882.667 218.998 861.576 239.469 846 266l-2.184 3.64c-21.393 36.633-30.292 78.698-39.996 119.536-4.748 19.982-9.95 39.723-15.977 59.36l-1.12 3.655-1.008 3.257C785 458 785 458 785 460h-2a273 273 0 0 0-2.02 6.816c-1.535 4.987-3.543 9.769-5.52 14.594a263 263 0 0 0-3.273 8.527c-4.047 9.368-9.32 18.122-14.75 26.75C755 521 755 521 755 526l-5 3a130 130 0 0 0-5.125 6.5c-5.185 6.736-10.592 12.775-16.875 18.5l-2.996 2.738C705.61 573.198 683.979 579.037 659 580c15.64 9.83 32.309 15.76 50.867 12.273C726.32 588.135 738.35 581.218 751 570l3.938-3.25c8.322-7.682 14.659-16.66 19.562-26.875 1.5-2.875 1.5-2.875 4.313-6.437 3.957-5.51 6.527-11.223 9.187-17.438l1.207-2.8c1.292-3.056 2.54-6.128 3.793-9.2l1.773-4.18c13.646-32.846 21.343-67.78 29.781-102.235C842.237 325.488 842.237 325.488 860 295q1.792-3.275 3.563-6.562L866 284l2-4h2l1-4h2l2-4c4.154-5.158 8.576-10.074 13-15l2.824-3.195c8.498-9.092 18.634-15.38 29.176-21.805l3.883-2.375C931.623 225 931.623 225 934 225v-2c2.303-.984 4.66-1.84 7.031-2.645l4.548-1.545c21.694-7.153 42.217-12.618 65.046-14.31l4.048-.31 3.804-.221 3.377-.205c3.727.28 5.991 1.258 9.146 3.236 2.258 3.787 3.014 6.213 2.938 10.625-1.026 3.69-2.286 5.643-4.938 8.375-3.055 1.528-6.235 1.364-9.592 1.595C980.482 230.274 938.476 240.525 910 269h-2v2l-3.5 2.938c-5.138 4.368-8.7 9.535-12.5 15.062l-3.5 4.813c-15.784 22.818-25.54 49.443-32.5 76.125l-1.364 5.144c-4.998 19.007-9.721 38.085-14.421 57.168-3.13 12.673-6.344 25.277-10.215 37.75 4.022-3.657 6.35-7.12 8.707-12.004l2.017-4.157c.69-1.452 1.378-2.905 2.088-4.401l2.154-4.488A442 442 0 0 0 859 412l1.434-3.336c1.652-3.864 3.167-7.773 4.674-11.696 3.921-10.192 8.14-20.13 12.892-29.968q1.474-3.216 2.938-6.437C890.08 340.827 900.706 323.24 914 306l3-4h2v-2c1.847-1.676 3.704-3.34 5.61-4.95q2.378-2.04 4.656-4.195C950.202 271.063 982.233 257.787 1011 257l4.465-.234c10.583-.343 10.583-.343 14.36 1.945 3.333 3.507 4.187 6.515 4.112 11.289-1.064 4.544-2.351 6.114-5.937 9-3.172 1.586-6.516 1.302-10 1.493-32.879 1.926-60.874 14.407-83.687 38.257-14.917 16.84-25.02 36.937-34.313 57.25l-1.604 3.361c-4.022 8.463-7.555 16.99-10.833 25.764C877.645 431.114 867.206 457.023 853 481l-1.871 3.203C844.5 495.075 836.58 505.604 828 515h-2l-2 4a136 136 0 0 1-5.75 5.5l-3.11 2.844C812 530 812 530 808.939 531.758c-4.18 3.19-5.805 6.958-8.188 11.617-6.802 12.9-14.955 23.985-24.5 34.98C774 581 774 581 772 584h-2l-2 4a205 205 0 0 1-9 7l-2.547 1.984C734.621 613.65 710.763 617.404 684 616c-5.32-.765-10.003-2.053-15-4l-3.437-1.18c-18.48-6.97-34.971-22.027-46.563-37.82-.88-1.14-1.758-2.282-2.664-3.457-14.293-19.214-24.638-41.486-33.149-63.793l-1.32-3.454c-4.715-12.41-9.032-24.949-13.3-37.517C548.041 404.364 548.041 404.364 538 382l-1.233-2.751C530.825 366.099 524.27 353.876 516 342l-2.012-2.996C490.278 304.754 455.67 289.32 416 282c-7.955-1.248-15.94-1.299-23.977-1.43-10.294-.297-10.294-.297-15.023-3.57-2.77-3.754-3-5.856-3-10.562 1.157-5.136 1.713-6.456 6-9.438a98 98 0 0 1 12.75-.437l3.69.063c35.143.809 71.329 9.806 99.544 31.358 3.886 2.918 7.888 5.458 12.016 8.016a58.5 58.5 0 0 1 6.824 7.32c2.291 2.822 4.734 5.421 7.239 8.055C536.407 326.98 546.942 344.937 556 364l2.113 4.438c10.625 22.947 18.796 46.842 26.853 70.785 19.393 57.565 19.393 57.565 38.878 68.351C635.73 513.15 646.63 513.315 659 509c3.051-1.921 6.066-3.904 9-6h2v-2l2.5-1.562c7.03-4.897 11.726-11.325 15.898-18.711C690 478 690 478 691.914 475.273c5.666-8.138 9.794-16.753 13.836-25.773l1.645-3.667c3.589-8.16 6.692-16.411 9.605-24.833l1.596-4.47c4.33-12.174 8.293-24.439 12.121-36.778q1.465-4.719 2.941-9.436c5.161-16.555 5.161-16.555 7.467-24.89 2-7.108 4.54-13.974 7.188-20.863.487-1.275.975-2.549 1.478-3.861 3.385-8.756 6.952-17.33 11.209-25.702.677-1.386 1.354-2.771 2.05-4.2 4.985-9.892 10.6-19.208 16.638-28.488l2.16-3.329c4.01-6.07 8.214-11.612 13.152-16.983l2.3-2.617C813.218 221.52 831.218 205.978 852 194l3.422-2.016c13.095-7.624 26.357-13.934 40.578-19.172l4.078-1.537c36.42-13.551 76.168-19.285 114.922-19.838M829 239a300 300 0 0 0-7 8l-3.875 3.813c-32.142 32.629-48.182 77.557-60.77 120.583C750.238 395.59 742.348 419.57 733 443l-2.031 5.309c-12.608 32.182-31.049 67.018-63.703 82.32-12.47 5.235-26.939 4.538-40.266 4.371l2 1 2 4c8.827 9.49 19.294 15.4 32.367 16.3 21.968.058 39.07-8.953 54.633-24.3 4.71-5.112 8.405-9.513 11-16h2c14.248-18.617 23.853-41.835 31-64l2.05-5.125c9.957-24.9 15.8-52.014 21.719-78.113 14.637-64.467 14.637-64.467 28.63-91.59 1.796-3.559 3.448-7.17 5.101-10.797 5.243-11.267 11.796-21.508 19.742-31.074C841 233 841 233 841 231c-4.49 0-8.698 5.092-12 8"/><path fill="#cd7453" d="m393.688 151.5 3.749.056c41.634.959 84.562 10.05 121.563 29.444q3.437 1.658 6.875 3.313C539.949 191.38 552.608 200.333 565 210l3.965 3.055c7.594 5.989 14.684 12.318 21.535 19.132l2.27 2.253c5.23 5.302 5.23 5.302 5.23 7.56h2c20.01 21.154 36.8 48.852 48.77 75.18 1.762 3.808 3.615 7.512 5.539 11.238 4.243 8.449 7.597 17.184 10.941 26.02l1.973 5.174c6.767 17.836 13.13 35.804 19.347 53.837l1.243 3.603q1.147 3.332 2.284 6.668c1.424 4.153 2.866 8.201 4.716 12.186 1.77 4.615.367 7.652-1.438 12.094-1.933 4.07-3.888 8.113-5.937 12.125l-1.754 3.445L684 466c-3-1-3-1-4.98-4.883-5.053-12.001-9.59-24.095-13.765-36.431-6.81-20.002-13.747-39.973-21.192-59.748l-1.248-3.34c-3.2-8.398-6.926-16.5-10.815-24.598l-1.77-3.694c-7.6-15.718-15.547-30.76-25.23-45.306a1742 1742 0 0 1-3.687-6.062c-3.071-4.578-6.289-8.436-10.036-12.446-2.34-2.56-4.502-5.208-6.652-7.93C581 257 581 257 578 254v-2l-3-1q-2.536-2.97-5-6l-2-1v-2l-4-2a220 220 0 0 1-5.937-5c-45.57-38.987-103.656-58.52-163.338-59.43-7.537-.202-13.744-.44-19.225-6.195-2.072-4.662-1.746-7.462-.5-12.375 5.153-6.214 11.191-5.695 18.688-5.5"/><path fill="#ce795a" d="m398.25 204.125 4.173.15C437.632 205.822 472.96 214.187 504 231l4.383 2.324c11.936 6.49 22.168 14.106 32.101 23.344 2.128 1.972 4.316 3.879 6.516 5.77 9.804 8.731 18.082 18.098 26 28.562l2.691 3.453 2.496 3.235 2.231 2.886C582 303 582 303 582 306h2a278 278 0 0 1 6.063 10.938l1.783 3.357q1.776 3.345 3.546 6.694c1.29 2.417 2.626 4.81 3.975 7.195 14.243 25.395 23.936 54.012 32.696 81.691 4.28 13.328 8.77 26.54 13.75 39.625l1.521 4.035c3.187 8.237 6.862 16.088 10.938 23.924 1.55 3.175 2.885 6.11 3.728 9.541-3.724 4.655-9.423 5.623-15 7-6 0-6 0-8.062-1.812-2.76-4.54-4.829-9.326-6.938-14.188l-1.488-3.184c-8.815-19.206-15.084-39.581-21.872-59.564-7.665-22.556-15.61-44.617-25.64-66.252l-1.996-4.434c-10.1-22.128-23.257-44.248-40.824-61.304C538 287 538 287 538 285l-4-2q-2.51-2.992-5-6c-29.415-25.485-67.13-42.925-106-47l-4.934-.52c-11.267-1.099-22.436-1.731-33.757-1.843C380 227 380 227 376.969 224.738c-2.793-3.884-2.903-7.012-2.969-11.738l2-5h2v-2c6.628-2.853 13.184-2.138 20.25-1.875"/><path fill="#cd6f4d" d="M588 479c4.563 1.25 4.563 1.25 9 3l3 1c.813 3.438.813 3.438 1 7l-2 2-1 4h4v3c4.313 1.625 4.313 1.625 9 3 4.052 1.35 6.008 4.008 9 7l-.625 4.688L619 518h5v-2c3.34.26 6.674.6 10 1h3v-2l-4-1q4.375-.04 8.75-.062l4.922-.036C651 514 651 514 655 515v-2l4.375-.875L664 511l2-4 5-1v-2c2.75-1.75 2.75-1.75 6-3l4 2 3.688.938L688 505l1 3 3 1-1 2h-2v2h-2v2h-2v2h-4v4q-3.991.577-8 1l-2 3h-4l-1 5-3 1-3 2c-13.133 1.443-26.449 2.707-39-2 5.833 10.31 5.833 10.31 11 14l1 3h-2l-1 4-3 1-2 4a129 129 0 0 1-6-1l-1 3-5-1c-2-3-2-3-2-6h-5c-1.04-2.879-1.04-2.879-1.625-6.562-.602-3.692-.602-3.692-1.375-6.438l-3 1 1-4h-3q-.523-3.998-1-8l-3-3c-3-8.111-3-8.111-3-11h-2v-8h-2v-2h-2v-4h-2c-.416-3.324-.75-6.66-1-10l2 2 1-3-1-1v-6z"/><path fill="#cb704e" d="m392.478 205.482 4.21.018 4.252.009c10.847.169 22.965.396 31.06 8.491 3.008-.247 6.011-.579 9-1l2 1 1 3c5 1 5 1 10 1 4.25 1.375 4.25 1.375 8 3l1 2h3l3 1v-2l-3-1h3v-2h2v2l2.75.437C477 222 477 222 481 225l4 1v6c-3.688 1.75-3.688 1.75-8 3l-5 2c-6.088.385-10.912.653-16-3l-1-4h-4v2l-4-1v-3l-2.938.75L441 229c-.688-3.563-.688-3.563-1-7l-3 2q-3.498.509-7 1l-4 2c-3.383.23-3.383.23-7.125.187l-3.758-.019C412 227 412 227 410 226a146 146 0 0 0-6.363.078l-3.877.078q-4.056.093-8.11.235l-3.888.062-3.564.099c-4.178-.721-5.603-2.27-8.198-5.552-.938-3.688-.938-3.688-1-7l2-2 1 4 .312-3.313c1.55-8.308 7.16-7.118 14.166-7.205"/><path fill="#cd6f4e" d="M638 307c3 3 3 3 4 5l2-1v2h3c8.358 14.296 13.88 30.646 20 46l2 5c1.31 8.407.805 14.39-3 22-3.062 1.5-3.062 1.5-6 2l-1-4h-2l-1-2-4-2a370 370 0 0 1-3-11h-2l-.437-5.5L646 358h-3c-1.99-3.982-2.745-7.15-3.562-11.5-.735-3.868-1.483-7.68-2.438-11.5l-3-1a624 624 0 0 1-4-10l-3-3c-1.312-4.187-1.312-4.187-2-8h2v2c2.875-.062 2.875-.062 6-1l2-5z"/><path fill="#cb704f" d="M706 449h1c.25 3.938.25 3.938 0 8l-3 1-1 5 4 2c-1.187 2.813-1.187 2.813-3 6l-1 5h-6l-4 1-1 5-1.687 3.813L689 489h2l2.5-2.562L696 484c3.777 1.889 5.146 4.291 7 8h5c.313-3.312.313-3.312 0-7v-3l-4-3 6-2h-2v-3h2v-2l4-1 1-2h6v-4l3-3a147 147 0 0 0 3-7c1 3 1 3-.266 6.09A1339 1339 0 0 1 720 474l-2.668 5.117C712.297 488.563 707.234 497.105 700 505l-2.242 2.598C688.284 518.465 677.708 527.885 664 533l-4-1c2-2 2-2 4-3l2 1 1-5h4l2-4h8v-4h4v-2h2v-2h2v-2h2v-2l-4-3-1-2-4 1-3-3c-4.187.688-4.187.688-8 2v2l-5 1-2 5c-4.625.688-4.625.688-9 1v2c-4.697.15-9.365-.009-14.062-.125L637 515v2c-8.13 1.435-8.13 1.435-13-1v2h-5c-1.366-4.197-.884-6.582 0-11l-5-2v-2a522 522 0 0 0-9-2l-3-2v-3h-4c0-5 0-5 2-9-1-2-1-2-3.625-4.125C594 480 594 480 594.313 475.688L595 472h-2c-3.227-3.227-3.948-4.449-4.098-8.918L589 454c2.685 4.027 3.977 8.26 5.625 12.813 6.941 18.58 15.676 34.083 34.125 43 10.207 3.73 20.15 2.71 30.25-.813 3.051-1.921 6.066-3.904 9-6h2v-2l2.5-1.562c7.016-4.887 11.695-11.296 15.875-18.657 1.896-3.246 3.977-6.34 6.063-9.469 4.069-6.258 7.246-12.697 10.25-19.523z"/><path fill="#cd6f4e" d="M664 589c4.27.633 4.27.633 9.813 2.125l5.519 1.445C684 594 684 594 687 596a178 178 0 0 0 11.188.313l3.08.048c7.604.005 13.39-1.132 19.732-5.361 5.625-.75 5.625-.75 11-1l1 2 3 1-.812 3.5L735 600c3.875.75 3.875.75 8 1l1 3q-3.49.57-7 1v2h-5v2l-8 1v2c-16.014 3.68-38.2 4.703-53-3l-5.687-1C660 607 660 607 657 604l-3-1-2-5h2l1-2h4l.5-3.187.5-2.813 4 3z"/><path fill="#cb6e4d" d="m732 402 5 1 1 5h-2c.25 4 .25 4 1 8h2c.23 3.988-.027 7.108-1 11h-2l.063 4-.063 4h-3v6c-4.105 4-4.105 4-6 4 0 6 0 6 1 10-2.312 5.25-2.312 5.25-5 10h-2v4h-6l-1 3h-4v2h-2l3 4c-2.812.75-2.812.75-6 1l6 3-2 1-.312 4.5L708 492l-5 1-2-2v-3c-4-2-4-2-6-2l-3 1-1 3-2-1c.91-4.55 1.785-7.951 4-12 3.247-1.556 5.414-2 9-2 1.607-3.277 2.847-6.54 4-10h-3l-1-5 2-3h3l-.062-3.687c.062-4.313.062-4.313 2-7.375.68-.64 1.36-1.28 2.062-1.938l1 1c2.768-4.036 3.227-7.553 3.5-12.312L716 427l3-1c.76-2.673 1.509-5.35 2.18-8.047 1.104-3.976 2.68-7.432 4.82-10.953l2 2c2-2 2-2 4-7m-15 35-1 2h2z"/><path fill="#cc6e4c" d="M443 268c5.903-.725 11.3.446 17 2l2 2q3 .504 6 1c2.301.837 4.574 1.757 6.813 2.75l3.457 1.484L481 279l1 5h-2l-1 3-3-1v4l5-3 2 1 1-2v2h6c.625 3.063.625 3.063 1 6l4-1c6.267 1.367 10.71 3.394 14.813 8.5C512 305 512 305 512 308l3 1v2c-6.36 6-6.36 6-10 6l1 3c-6.109-1.222-7.373-3.108-11-8v-3l-2.875-.25c-5.998-1.09-9.333-4.009-14.125-7.75v-2l-4-.5-4-.5v-2l-4-2-3-3v-2l-3.187.063c-7.543-.098-15.176-.832-21.063-5.813L437 281l-1 1c-5.437-.25-5.437-.25-11-1l-2-3c5.281-1.76 10.7-.325 16 1v-6h2z"/><path fill="#cd704f" d="M1029.824 258.71c3.334 3.508 4.188 6.516 4.113 11.29-1.064 4.544-2.351 6.114-5.937 9-3.172 1.586-6.517 1.302-10 1.494-11.873.693-22.334 2.543-33.7 6.166-3.477 1.084-6.7 1.869-10.3 2.34l3-2 3-3 4-2c-3-1-3-1-7.188.437L973 283c-.313-3.813-.313-3.813 0-8l-3-1v-2h-2l-1 2-5.563.312c-6.004.365-9.485 2.203-14.437 5.688l-2-1c15.985-13.108 64.784-32.43 84.824-20.29"/><path fill="#cc6f4e" d="M832 382h2l-1 4h2l1 2 1-2h2v-2l5 2 1-3 2 2-1 5 1 5c-.844 5.714-1.852 10.63-4 16l-.5 3.313L842 417h-2c-.433 3.176-.743 6.368-1 9.563-.965 11.863-.965 11.863-3 17.437l-2 1a140 140 0 0 0-1 8l-2-3h-3l-2 5-3 2-1 4h-3v-5l-3-1a95 95 0 0 1 4-5v-2l2-2-3-1-1 5h-1c-1.17-12.995 1.17-25.927 6-38l.5-4c.5-4 .5-4 2.5-9h2l.5-4 .5-4h2l.5-4.5z"/><path fill="#cc7150" d="m398.25 204.125 4.173.15C432.782 205.61 467.158 211.17 494 226v2l-2 1c2 2 2 2 6 3a60.5 60.5 0 0 1 7 6h3v5l-4 2-4-2-1 4c-5 1-5 1-7 0v-2h-7l-1-2-4-1v1c-7.288-.26-13.675-2.377-20.543-4.598-24.713-7.775-49.263-10.509-75.148-10.765C380 227 380 227 376.969 224.738c-2.793-3.884-2.903-7.012-2.969-11.738l2-5h2v-2c6.628-2.853 13.184-2.138 20.25-1.875M379 209c-.687 3.688-.687 3.688-1 7l-2-4c-1.053 4.389-1.364 6.323.813 10.375C379 225 379 225 381 226c2.155.074 4.313.083 6.469.063l3.918-.024L395.5 226q4.015-.038 8.031-.062l3.612-.036C410 226 410 226 412 227c2.29.123 4.583.176 6.875.188l3.742.042C426 227 426 227 430 225l3.563-.5C437 224 437 224 440 222l.313 3.438L441 229c3-.312 3-.312 6-1l1 4h3v-2h4l1 4c5.094 3.657 9.902 3.452 16 3 3.75-1.375 3.75-1.375 7-3l3.438-.812L485 232v-6c-3.312-1.75-3.312-1.75-7-3l-3-2h-4v-2h-2v2l-3 1h3v2l-5-2-1 1-3-3c-4.75-2.099-8.86-2.086-14-2l-2-1-1-3c-2-1-2-1-6.437-.375L432 214l-3-3c-10.255-5.26-21.047-5.477-32.312-5.5l-4.21-.018c-10.086.126-10.086.126-13.478 3.518"/><path fill="#cc6f4e" d="m877 391 2 1-2 1zm-2 3 3 1h3c2 4 2 4 .5 8.75L880 408h2v3h-3a256 256 0 0 0 0 8h-2a354 354 0 0 0-2 10l-1 1-.437 3.563L873 437h-2l-.937 4.813C869 447 869 447 866 450l-2 1-1 3.063-1 2.937h-2v4c-4.5-.125-4.5-.125-9-1v-2c-4-1-4-1-7 0l-1 5h-2c.426-2.555.426-2.555 1.313-5.875l.863-3.305C844 451 844 451 845 449h2c1.065-2.662 2.11-5.337 3-8.062 2.032-5.97 2.032-5.97 4-7.938l.375-3.875C855 425 855 425 858 422l2 1c.608-3.262.904-6.528 1.242-9.828C862 410 862 410 866 407l1-5 5-1 1-5z"/><path fill="#cc6e4d" d="M760 473c4 2 4 2 5 3l1-2h2l1 7h2c-.426 2.555-.426 2.555-1.312 5.875l-.864 3.305C768 493 768 493 767 495h-2l-1 4h-4c.313 2.875.313 2.875 1 6l-1 2h-2v3.313c0 3.687 0 3.687-2 6.687h-4v4h-2v4l-4 2-.437 3.688L745 534l-5-1v-3h-2l-1 2-1-4h-2c-.75 2.938-.75 2.938-1 6l2 1-1 4h-3l-1 2h-4v-2h4l-2-5v-6l-2-1 3-5v-2h2l.938-3.312C733 513 733 513 736 510h2l1-3 4-4c1.895-3.953 3.614-7.841 5-12h2l.375-3.875L751 483l4-2a169 169 0 0 0 2-6z"/><path fill="#cc7556" d="M891 340c1 2 1 2 .438 5.625L891 349h2v2l-5 1v2h-2c-.379 2.668-.379 2.668-.562 6.188-.227 4.11-.625 7.749-1.438 11.812l1 4 5 1 1 5 2-1-1-5 1-1c.69-4.759 1.173-8.306 0-13l5-1 3 4 2-2h2c-1.355 5.43-4.002 10.395-6.375 15.438-4.26 9.194-8.019 18.53-11.625 28-3.716 9.75-7.53 19.429-11.687 29l-1.28 2.96A266 266 0 0 1 871 445h-1c0-6 0-6 1-8h2l-.062-2.937c.096-6.29 2.274-11.487 5.062-17.063l.438-3.25L879 411h3v-3h-2c.554-2.772 1.113-5.544 1.688-8.312L882 397h-2l-1-2c-3 0-3 0-6 2l-1 4-5 1c-.187 4.125-.187 4.125 0 8l-2-1c-3.1 3.1-3.13 7.03-3.926 11.25L860 423l-5 2c.756-3.78 1.616-7.174 2.813-10.812l.957-2.958c1.23-3.23 1.23-3.23 3.128-6.984 2.325-4.696 4.114-9.45 5.914-14.371 2.827-7.523 5.894-14.699 9.606-21.82 1.46-2.818 2.792-5.656 4.082-8.555 2.952-6.606 6.23-13.047 9.5-19.5m-14 51 1 2 1-2z"/><path fill="#cb7151" d="m883 293 4 1c-1.63 4.074-3.322 7.337-5.562 11.063-11.792 20.464-19.676 42.782-25.625 65.562l-1.379 5.193c-4.442 16.889-8.576 33.855-12.638 50.839l-.748 3.105q-1.008 4.194-2.007 8.39L838 442h-1c.04-3.043.159-6.085.313-9.125l.238-5.133c.377-3.984.802-7.115 2.449-10.742h2q.569-4.992 1-10l1-1c.426-2.094.792-4.201 1.125-6.312l.57-3.489C846 393 846 393 845 389h2l-2-4-1 2-4-2-1 1h-2l-1 3-1-3h-2l1-4h-2l-.5 4.5-.5 4.5h-2l-.5 4-.5 4h-2l-1 5c-2.41-7.23 2.33-17.667 4.188-25.062l.81-3.256C834.832 356.35 840.817 337.6 848 319c1 4 1 4 1 10h-2l-.375 2.313c-.873 5.15-2.812 9.796-4.625 14.687a383 383 0 0 0-2 7l-1.062 2.938c-1.163 3.798-2.008 7.072-1.938 11.062 3.313-.25 3.313-.25 7-1l2 4 3 1 1-3 2-2 1-3h2v-2h2v-4.75c0-5.25 0-5.25 2-9.25h-2c-.812-3.437-.812-3.437-1-7l3-1 1-2h2v-2h2l1-4.5 1-4.5h2v-5h-2l1-2 2 1c1.125-3.437 1.125-3.437 2-7l-2 1 1-3 4-2c2-2 2-2 3-6h2l.5-3 .5-3h2zm-29 47 2 2h-2z"/><path fill="#cd7555" d="M621 531c3.43.39 6.648 1.162 10 2 2.244.07 4.49.084 6.734.063l3.926-.024 4.09-.039q4.024-.038 8.047-.062l3.604-.036L660 533v1c-10.262 2.228-20.552 2.228-31 2 8.171 10.084 17.382 15.846 30 19 8.108.342 16.241.644 24.188-1.187L687 553c-1 3-1 3-3.855 4.668-5.301 1.704-9.894 1.692-15.457 1.644l-5.926-.011C656 559 656 559 650.395 557.73L646 557l-2 4-1 1c3.188 1.188 3.188 1.188 7 2l4-2c-1.312 3.063-1.312 3.063-3 6l-3-1v2l-3.437-.5L641 568l-1 2-4 2v2c-5.308 3-5.308 3-8 3v2h2q1.508 3.497 3 7c2.188 2.938 2.188 2.938 4 5-13.331-6.666-23.544-24.52-31-37v-2h5c1.688 3.063 1.688 3.063 3 6l2-1v2l2-1v-3l3.375.563L625 556l2-4h3c1.375-3.437 1.375-3.437 2-7l-3-1v-2l-4-2c-4-6.222-4-6.222-4-9"/><path fill="#ce6f4d" d="M1021.469 154.848 1025 155v2h2v2h4v6h-2v2h-5l2 1-2 4c-10.323 1.588-28.976 4.016-38-2l-1 3-2-1 1-2h-2v2h-2v-2h-4v-3c-3.437-.813-3.437-.813-7-1l-1 2-2-5c-3.074-.348-3.074-.348-6.687-.063-3.637.278-3.637.278-6.313.063l1-4a159 159 0 0 1 11-1l2-1c18.028-1.818 36.365-1.648 54.469-2.152M381 155c4.349-.356 4.349-.356 10.203-.328l3.121.006q3.28.01 6.557.04c3.34.032 6.68.042 10.021.048 16.278.07 16.278.07 22.098 1.234v2c2.625.852 2.625.852 6 1.625 1.114.26 2.228.52 3.375.79L445 161c-3.858 2.572-5.644 1.982-10.187 1.5-2.265-.239-4.537-.428-6.813-.5v2h-2l1 4-2 4-2-1v2l2 1q-9.745-.104-19.489-.262-3.315-.051-6.631-.084c-3.175-.034-6.35-.086-9.525-.142l-5.792-.08C379 173 379 173 376 170l1-3-.125-4.125L377 159l3-1z"/><path fill="#cd6f4e" d="M556 376c4.718 4.718 5.867 8.744 8 15l2 4v8l2 1h-2v6h5v4l5 2c2.139 4.957 2.256 8.785 1 14l-3 5h-6c-2 4-2 4-1 8h-2l-1-3-2-1 .063-4.5L562 430l-3-1c-.875-4.562-.875-4.562-1-9h3l1-2-5-2c-1.312-3.125-1.312-3.125-2-6v5c-3.204-1.602-3.688-3.693-5-7l-.5-5.937L549 397l-3 1c-2.202-5.504-2.618-9.128-2-15 2.75-1.125 2.75-1.125 6-1h4l1-3.25z"/><path fill="#c97253" d="M795 417c1.256 5.024.208 7.48-1.309 12.414l-1.513 4.992-1.615 5.219a8234 8234 0 0 0-3.122 10.227l-1.415 4.588C785 458 785 458 785 460h-2a273 273 0 0 0-2.02 6.816c-1.535 4.987-3.543 9.769-5.52 14.594a263 263 0 0 0-3.273 8.527c-4.047 9.368-9.32 18.122-14.75 26.75C755 521 755 521 755 526l-5 3a140 140 0 0 0-5 5c-.312-3.937-.312-3.937 0-8l5-1v-4h2v-4h4c1-4 1-4 1.438-7.25L758 507h2l-.125-4 .125-4h4l1-4h2c.816-2.555.816-2.555 1.563-5.875 1.363-5.977 1.363-5.977 2.437-8.125h-2v-3l-2-1 1-3h-2l-1 3-5-4-1 3h-2l-2 5 2 1-5 1c-.406 3.325-.743 6.66-1 10l-3-1-1 5c-3.77 7.264-7.02 11.427-14 16 1.65-4.123 3.288-7.164 5.672-10.84 4.547-7.294 8.101-14.873 11.578-22.723l1.813-3.998A221 221 0 0 0 761 452c.967-2.347 1.95-4.689 3-7 1 4 1 4 0 8l3 3 3 3h2l1 2c3.46 1.016 3.46 1.016 7 1 1.164-2.578 1.164-2.578 1.625-6.25.795-4.936 1.715-9.016 3.938-13.5C788 437 788 437 789.125 431.313L790 427h3c1.188-5 1.188-5 2-10m-44 73 3 1Z"/><path fill="#cd6f4e" d="M519 314c6.566 3.648 10.577 8.398 14 15v2h2c2.792 5.905 3 10.56 3 17h3v-2l4 1v6h2v2h2c2.247 10.763 2.247 10.763 1 17-5-1-5-1-7-3l-1 5-3 1c-7-8.707-7-8.707-7-14l-3-1a236 236 0 0 1-1-7h-2l-1-6h-2l-.875-3.5L521 340h-4c-1.937-4.5-1.937-4.5-3-9h3l2-4 5-1v-2l-3-1v-2h-3l-2-4h2z"/><path fill="#cc6e4d" d="M779 271h5l1 3h3v2h3c1.139 5.694.3 7.803-2 13-2 2-2 2-5.562 2.125L780 292c-.812 3.313-.812 3.313-1 8a252 252 0 0 1-1 6.188L777 312l-1 5h-3l-.437 4.5L772 326h-4c-3.187.875-3.187.875-6 2l-1 2c-3 1.375-3 1.375-6 2l-1-4h-2l1-4h2v-3.125c0-3.823.471-6.393 2-9.875h2l1.313-4.562L762 302l5 1c2.313-2.437 2.313-2.437 4-5h-4c2-4 2-4 5-7h2v-2h-2v-2h-2c-1-3-1-3 .938-7.187.68-1.259 1.36-2.517 2.062-3.813l1 2h2l1-4z"/><path fill="#cc6e4c" d="m791 361 1 2 5-1c2 3 2 3 2 8l5-4c.125 6.625.125 6.625-1 10h2c-.702 2.94-1.415 5.88-2.207 8.797C802 388 802 388 801.5 392.75L801 396h-3c-3.338 3.338-4.056 5.45-5 10h2c.7 7.24-.801 12.511-4 19h-3v-6h-3l-1 4-2-1v-2l-3.062 1H776c0-6.18 1.146-12.11 3-18h2l1-4 2 1 2-3h2v-4l-4-3c.089-6.664 1.655-11.844 4-18 .346-2.999.682-5.998 1-9z"/><path fill="#ca7859" d="m393.688 151.5 3.749.056c36.38.838 74.078 7.907 107.563 22.444l1 2-5 1-1-3c-2.687.25-2.687.25-6 1-5.667 1.111-5.667 1.111-9 0l-3 1c-3.187-1.937-3.187-1.937-6-4l3-1v-2h-3l-1-4a137 137 0 0 0-13.062-1.875l-3.745-.43c-3.056-.323-6.125-.521-9.193-.695v2l4 1v3h-4l-1 4h2v4h-4l.125-4.062L446 168c-2.75.063-2.75.063-6 1l-4-1v7l5 .938 5 1.062v3c-7.238-.327-14.332-1.452-21.5-2.5-10.232-1.436-20.389-1.95-30.715-2.121C385.4 175.2 385.4 175.2 381 173c1.272.01 2.545.02 3.855.032q7.045.05 14.09.078 3.055.015 6.11.04c2.92.025 5.839.035 8.757.045l5.333.032L423 173v-2h2l.5-3.5.5-3.5h2v-2c4.935-1.234 8.98-.594 14 0-4-2-4-2-7-3s-3-1-7-3c-6.764-.544-13.544-.652-20.327-.798-3.359-.077-6.716-.186-10.073-.296q-3.18-.076-6.362-.148l-5.873-.152L381 155l-1 4h-3l.5 4.5.5 4.5h-3c-1.857-3.714-.787-7.066 0-11 5.116-6.236 11.208-5.694 18.688-5.5"/><path fill="#cb7051" d="M750 321h1c.36 7.098-.664 11.218-5 17-.844 3.39-.844 3.39-1.5 7.25-.759 4.129-1.503 7.758-3 11.688-1.963 5.316-2.807 10.68-3.754 16.257-.672 3.43-1.413 6.575-2.746 9.805h-2c-.738 3.281-.738 3.281-1.312 7.5l-.614 4.219L731 398h3v-5l4 1c.73 2.314 1.401 4.648 2 7h2l-1 7h2v-3h2c.107-3.951-.074-7.867-.223-11.816L745 390l3 1q.57-2.988 1-6h2l-.062-4.062L751 377l3 1 2-3c-.642 6.31-2.473 12.127-4.437 18.125l-1.065 3.278A2117 2117 0 0 1 747 407l-1.227 3.693C733.704 446.82 733.704 446.82 729 455l-3-2c-.5-3.875-.5-3.875 0-8 2.375-2.5 2.375-2.5 5-4h2v-6h3q.063-4 0-8h2c.25-4.937.25-4.937 0-10l-2-1c-1-4-1-4 0-8h2v-2l-2-1-4-2-2 5-3 3-1-2-3.71 8.887A726 726 0 0 0 719 426l-2 1a88 88 0 0 0-.375 6.188c-.328 5.341-.818 8.78-4.625 12.812l-3 1-2 2c.972-4.859 2.617-8.97 4.547-13.512 7.771-18.655 13.687-38.02 19.667-57.303q1.373-4.42 2.75-8.837c2.495-8.018 4.976-16.033 7.235-24.121 1.546-5.491 3.396-10.791 5.489-16.102l1.824-4.68c.49-1.137.982-2.274 1.488-3.445m-33 116 1 2-2-1z"/><path fill="#ce7657" d="M854 425h1c.397 5.855.13 7.784-3 13l-1 3c-1 3-1 3-4 8h-2c-.816 2.555-.816 2.555-1.562 5.875-1.364 5.977-1.364 5.977-2.438 8.125h2l1-5h2l1-2 4 2v2l3.5-.5 3.5-.5v2h2v-4h2l1-3.5 1-3.5h2l1-3 3-2c-2.341 11.705-9.733 22.48-15.375 32.938l-1.587 2.962c-3.802 6.982-3.802 6.982-6.038 8.1l.063-3.375L847 482l-3-1-1-3-4-1v-3c-5 1-5 1-9 5l-4 2 .5-2.812c.61-5.108.69-10.05.5-15.188h-2c.479-9.218.479-9.218 3-13l4-1a90 90 0 0 0 1-6l2 1 2-2c-.68 6.199-2.317 11.96-4.062 17.938l-1.66 5.714L830 470c4.178-3.764 6.471-7.4 8.883-12.46l2.097-4.368 2.145-4.547 2.168-4.523c5.194-10.875 5.194-10.875 7.37-16.085z"/><path fill="#cc6e4c" d="m817 289 3 3v2h2v3l3-1c.89 5.972-.869 9.973-4 15l-3.312 2-2.688 2c.25 4.25.25 4.25 1 8h-2l-1 5-1 4h1v5l-1 1v5l-2 5c-3.9-.607-5.832-1.847-8.75-4.5L799 342c-1.187 2.75-1.187 2.75-2 6h-2l-1 5h-1c0-4.695.494-6.719 2-11 1.683-5.656 2.982-10.799 3.5-16.687L799 321h3c.879-3.5.879-3.5 1.563-8 .411-2.678.872-5.35 1.437-8h2v-6h2l.375-3.375L810 292c4-2 4-2 7-3"/><path fill="#d07f60" d="M640 453c3 4 3 4 3 6l5 2c1.773 3.457 1.773 3.457 3.375 7.813 2.658 6.925 5.684 13.257 9.438 19.648C662 491 662 491 661 494c-4.547 3.41-6.157 3.457-11.687 3.5l-4.075.094L642 497l-1-5h-3c-.875-4-.875-4-1-8h3v-2h2l-1-3-3.812-.187L633 478c-2.375-3.812-2.375-3.812-4-8l-2-4v-6l3-3v5c4.126-2.802 6.979-4.972 10-9"/><path fill="#d28f76" d="M660 406c2 3 2 3 2.875 7.625L664 418l4 1 2 1 .5 5.063.5 4.937h2v2h2v-2l8-1v-2h3a263 263 0 0 0-2-10c-.07-2.332-.101-4.669 0-7 3.232 3.232 3.985 7.4 5.438 11.688 3.343 9.841 3.343 9.841 5.347 14.144 1.788 4.663.416 7.673-1.41 12.168-1.933 4.07-3.888 8.113-5.937 12.125l-1.754 3.445L684 466c-3-1-3-1-4.98-4.883a513 513 0 0 1-13.196-34.75 360 360 0 0 0-4.054-11.297C660 410 660 410 660 406"/><path fill="#cc704f" d="M796 241c0 5.024-2.997 8.994-5.312 13.375L789 258h2v-2l3 1v3l-2 1 2.375 2.375L797 266v3h2l1-5 4 1q.53-2.995 1-6c4-2 4-2 6-2l1-3 1-3h2v-2l4 2c-1.375 2.004-1.375 2.004-4 4.563-15.94 16.673-27.583 37.935-36.828 58.964L777 317h-1a672 672 0 0 1 1-8q.341-5.021.621-10.047C778 296 778 296 780 292q3.492-.553 7-1l1-3 1.563-3.375C791 281 791 281 791 276h-3v-2l-4 1v-4l-5 1a201 201 0 0 0-3 6l-3-1c-3 6.778-3 6.778-3 10a125 125 0 0 1-6 4c5.057-17.508 19.23-37.23 32-50"/><path fill="#cd7555" d="m732 513 1 2-2 5h-2l1 3-3 4 3 4-1 4 1 4h-4v2l5-2h3c-.27-2.341-.613-4.675-1-7l1-4h2l2 2h2v3l5 1c-6.89 11.485-17.34 21.005-28 29l-2-1 2-5h3v-2l-5-1 2-2h5l-1-1-1-3-2 1c-4.125-.812-4.125-.812-8-2v-2c-2.703.645-2.703.645-6.25 1.813-3.581 1.165-7.094 2.273-10.75 3.187v3h-6c1.64-3.28 4.917-3.891 8.188-5.375 14.54-7.147 25.504-17.778 33.812-31.625h2z"/><path fill="#cd6e4e" d="M652 338c5.55 2.775 7.319 10.11 9.188 15.563l1.542 4.44C664 362 664 362 665 367l3-1c2.57 6.426 2.057 10.94-.187 17.438C666 386 666 386 662.875 387.625L660 388l-1-4h-2l-1-2-4-2a370 370 0 0 1-3-11h-2c-.408-2.99-.73-5.994-1-9l-.562-3.312C645 354 645 354 645 350c4-2 4-2 7-2l1-4c-3 1-3 1-5 3 0-3 0-3 1-6z"/><path fill="#cc6d4d" d="m811 232 3 1h-2v2l4-1v2h2v2l3.5-.187 3.5.187v5l-3 3-2 4-5-1v2h-2v5c-4 3-4 3-8 3q-.51 2.999-1 6l-4 1-1 3h-2l-1-4c-2.562-2.25-2.562-2.25-5-4l3-1-1-3-2-1v2h-2c1.429-6.429 1.429-6.429 4-9l2-5c4.494-5.933 7.841-8.902 15-11z"/><path fill="#cd7250" d="m751 570 2 1-4 4-1 3h-2v5c-3.125.625-3.125.625-7 1a133 133 0 0 0-6 3h-2v3c-3.326.7-6.66 1.364-10 2l-4 3c-6.062 2.336-12.088 2.333-18.5 2.313l-3.05.048c-5.941.004-10.158-.728-15.45-3.361a200 200 0 0 0-7.875-2.375l-3.992-1.148L665 590l-1 3-3-1-2 4h-4c-1 3-1 3-1 5v2l4 1 2 3c-5.832-1.166-8.485-3.287-13.187-6.875l-4.293-3.242C639 594 639 594 637 591c3.875-1.187 3.875-1.187 8-2l-2 4 5 2 1-3h-2c-.812-3-.812-3-1-6h3l2-1 2 1v-2h2l-.834-3.441L654 577c3.008-.902 3.008-.902 7.34-.937l4.658-.083 4.94.02 4.927-.074c8.258-.09 8.258-.09 12.135.074v1c-9.648 1.754-19.212 2.523-29 3 15.64 9.83 32.309 15.76 50.867 12.273 15.029-3.78 26.55-9.624 38.196-19.836z"/><path fill="#cd6f4e" d="m594 334 2 2q-.491 3.501-1 7l2 1v-2l3 1 1 4h3l-1 4h3v3h2c1.338 5.844 2.184 10.082 1 16-3 2-3 2-5 2-3.062.375-3.062.375-6 1l-1 2c-4-1-4-1-5.625-3.5-1.61-4.098-2.441-8.203-3.375-12.5l-2-3-.937-4.437C584 347 584 347 581 343l2-5h3v2h3l3-5z"/><path fill="#ce7b5c" d="m785 523 2 1v4l3 1v2l-3 1-2-1-1 3h-2v2h-2a485 485 0 0 0-2 6l-2.625 5.063C773 552 773 552 773 557v2l1 2-2 1a210 210 0 0 0-4 7l4-3h2l3-3h4v-2h2v2h2l1-4h2l1-3 1-3h2l1 4c-2.21 3.504-2.21 3.504-5.375 7.563l-3.328 4.285L781 573l-2.734 3.496c-2.03 2.55-4.14 5.035-6.266 7.504h-2l-2 4-2-1 2-2v-5l-2-1v-2l-2-3-3 1-2-5h-6l2.5-2.875c7.317-8.623 14.071-16.981 19-27.25 2.064-3.957 4.825-7.309 7.5-10.875l1.75-3.562z"/><path fill="#cd6f4d" d="M953 219h6v2l2-1c5.224-.257 8.049.02 13 2l3 1-4 4-3-2v-3l-3 2h-6c-1 4.438-1 4.438-1 9l2 1-3.437 1.313L955 237l-1 3c-3.789 1.894-7.874 1.201-12 1l-4-3 1 3c-2 4-2 4-5.125 5.125L931 247v2h-3v-2l-2-1 4-1-3-4 4-2 1-3 3-1v-1l-3.062-.312L929 233l1-4a650 650 0 0 1 10-3v-3c4.449-1.243 8.376-2 13-2z"/><path fill="#cc6e4d" d="M449 162c8.802-.463 17.58.194 26 3l1 4h3v2l-3 3h-4l-1-2c-3 5-3 5-4 7 2.666.046 5.334.038 8 0l5 1c1.375 3.188 1.375 3.188 1 6-3.5-.5-3.5-.5-9-2-3.974-.54-7.952-.995-11.937-1.437L457 182l-1-2h-10l-2-2-4.562-1.5C435 175 435 175 434 173h2v-5c4.938-.562 4.938-.562 10 0 1 4 1 4 0 8h4v-4h-2l1-5h3v-2l-3-1z"/><path fill="#cd7d5f" d="m964 215-4.5.875L955 217v2h-2v2c-4.557 1.39-8.21 2-13 2v3c-3.664 2.249-5.645 3-10 3l-1 4h6l1 2-2 2-2-1-1 4-3 1 2 4-2 2v2h3v-2l2.938-.687L937 245c.387-2.325.73-4.659 1-7l4 2c3.326.396 6.66.736 10 1-2.784 2.784-5.95 3.99-9.5 5.688-5.086 2.492-9.8 5.034-14.375 8.375L924 258l-2-1 2-4h3v-4l-5-2-4-2c-3.687-.25-3.687-.25-7 0l-1 2-3-1c-6.82 2.728-11.236 6-16.312 11.188-1.07 1.086-2.138 2.173-3.239 3.292L885 263c0-4.752 2.995-6.544 6.25-9.875 8.723-8.567 18.305-14.85 28.75-21.125l3.871-2.363C931.611 225 931.611 225 934 225v-2a278 278 0 0 1 12.75-4.687l3.656-1.3 3.516-1.212 3.237-1.12C960 214 960 214 964 215"/><path fill="#cd6e4d" d="M746 343c2 2 2 2 3 6h4l1-2 3 1c1.044 4.177.97 7.223.688 11.5-.08 1.31-.158 2.62-.239 3.969C757 367 757 367 755 371l-3 2-1-2-3 3h-2l-1 5-2 1-.25 3.125L742 386l-3-.812-3-.188c-.812 5.313-.812 5.313-1 11l-1 2-4 1c.144-5.923.793-10.483 3-16h2c.54-2.508.54-2.508 1-6 3.036-17.815 3.036-17.815 6-24h2c.406-1.986.73-3.99 1-6z"/><path fill="#cd6f4e" d="M424 261v2l3 1-3 2-3.062-.687L418 265l-2 5c-4.312.688-4.312.688-9 1l-5 2-4 1-1 2h-2l2 2c-2.624.134-5.25.232-7.875.313l-4.43.175c-1.22-.16-2.439-.322-3.695-.488-2.098-5.245-3.386-8.73-2.437-14.312L380 261c13.363-3.417 30.458-1.498 44 0"/><path fill="#cf8d76" d="m1015 151.438 3.45-.082c4.888.023 8.04.327 12.234 2.933 3.101 3.63 3.389 5.975 3.316 10.711-1.677 4.679-2.917 5.937-7 9-4.476 1.119-8.447 1.187-13.062 1.313-17.679.767-35.219 3.645-52.485 7.464L959 183l1-3c3.03-.516 6.064-1.022 9.117-1.375C972 178 972 178 975 175c3.684-.506 7.239-.842 10.941-1.062l3.269-.235c4.622-.332 9.245-.63 13.869-.932 3.372-.225 6.742-.466 10.112-.708l3.189-.19c2.55-.184 5.088-.516 7.62-.873l2-3-4-1c3-1 3-1 7 0v-2h2v-6h-4v-2h-2v-2c-3.004.292-6.003.64-9 1-5.164.25-10.332.367-15.5.5-32.35.925-32.35.925-35.5 2.5l-5.562-.187L954 159l-1 4 2 1-3.312-.562C947 163 947 163 941.25 163.563 936 164 936 164 932 162c27.289-6.386 54.943-10.178 83-10.562"/><path fill="#cb6f4d" d="m612 374 4 4h1l.375 3.875L618 386l3 2c1.02 3.914 1.02 3.914 1.813 8.625l.832 4.727L624 405h-2v-3h-2v5l-3 2c-4-1-4-1-6-2l-1 3h-2v-2l-3-1c-3.056-7.73-4.893-14.676-5-23 3-2 3-2 6-2l1-4 3-1 2 1z"/><path fill="#cb6d4c" d="M927 300v3l3-1 2 1 1 4 4-1 3 1v2h-2v2l-2 1-.937 2.938C934 318 934 318 931 320v-3h-2v4h-2l-2 4c-5 3-5 3-10 4l-2 5-2-2 1-2-2-1v-5l-1-1h-3c1.188-3.5 1.188-3.5 3-7h2c2-4 2-4 3-8 6.373-8 6.373-8 13-8"/><path fill="#cb6e4d" d="m547 265 2 1 1 3 5 3c4.366 3.996 6.782 6.454 9 12l3 3-1 4-6-2-4 3h-2l-1 2-4-1v-2l-5-2-2-4-3-.875-3-1.125c-1.25-3.125-1.25-3.125-2-6h-2l-1-4c5-2 5-2 8-1v-3c5-3 5-3 8-4"/><path fill="#cc6e4e" d="M585 233c3.534 1.285 6.32 2.32 9 5v3h-3l1 2 2-1 3 3 4 1c3 5 3 5 5 10l3 3-1 3-3-1v2l-5 3-2 3-3-1v-2l-4-1a141 141 0 0 1-5-5l-2-1v-5l-4-1v-5h2l1-3-3-2 4-2c1-4 1-4 0-6z"/><path fill="#d28a6e" d="m917 302 2 1-2.375 2.813C914 309 914 309 914 313l-3 3h-2c-1 5-1 5-1 7l3-2-1 5 2 2v4l1 1 2-5q3.993-.554 8-1l1-4h2l1-2h2v-4h2l1 2 3-2c-2 4-2 4-5.062 7.375-8.238 9.243-14.074 20.428-19.993 31.227C908 359 908 359 905 363v-6h2v-6l4-1-1-4h-2q-.624-4.487-1-9l-1 3h-2l-.437-2.937L903 334l-3-1-3 3-1-1-3 5-1-2c6.093-11.444 14.106-21.762 22-32z"/><path fill="#ce704e" d="m1030 209-2 4-1 4h2c.563 3.438.563 3.438 0 7-6.312 1.717-12.968.897-19.437.563l-3.374-.159q-4.095-.195-8.189-.404l3-2-1-4h-3v-2l-2-2 1-5c9.973-3.198 24.262-3.895 34 0"/><path fill="#d18b70" d="M623 317c3 3 3 3 6 8l1-2 1.75 4.188C634 332 634 332 636.004 334.28c2.594 3.533 3.24 6.769 4.183 11.031A326 326 0 0 0 642 353h1v5h3c1 2 1 2 .938 6.625L647 369h2c.972 2.787 1.937 5.577 2.805 8.398C653 380 653 380 657 382v2h2l1 4 3-2h3l1-4 1.063-3.812c.873-3.903 1.103-7.21.937-11.188 4.354 6.532 6.35 14.65 9 22l1.828 4.93 1.672 4.57 1.531 4.156C684 406 684 406 683 409h-2c-.93-2.527-.93-2.527-1.875-5.937-3.556-11.879-3.556-11.879-6.125-16.063-3.593.372-5.816 1.408-9 3a101 101 0 0 0-2 6l-1-3h-2l-2 4h2q.624 4.487 1 9c-2.553-2.553-3.139-4.823-4.32-8.238-.45-1.285-.898-2.57-1.36-3.895l-1.445-4.18q-1.494-4.26-2.992-8.519l-1.487-4.229c-6.664-18.808-14.604-36.574-23.673-54.334C623 319 623 319 623 317"/><path fill="#cd714f" d="m943 280 2 1-2 3h-3l-2 4-4 4-1 5c2.813-.437 2.813-.437 6-2l2-4h3l2 2 5 2v-2h3v2c3.5.313 3.5.313 7 0v-3h3v-2c3.324-.416 6.66-.75 10-1-3.71 2.783-7.284 4.78-11.375 6.938C954.11 300.664 947.195 306.5 940 313a320 320 0 0 1-5 4v-5l3-1v-2h2v-2c-2.937-.75-2.937-.75-6-1l-1 2h-2l1-5h-5v-3a280 280 0 0 0-8 2v-2c1.838-1.667 3.685-3.325 5.578-4.93 2.57-2.197 5.057-4.47 7.547-6.757 3.448-3.104 6.788-6.065 10.875-8.313"/><path fill="#cc7352" d="M522 243c4.982 1.993 7.57 3.945 11.563 7.438l3.734 3.265C554.655 269.157 554.655 269.157 562 277l-1 2a722 722 0 0 1-8-8l-4-2-1-3c-4.562 1.125-4.562 1.125-9 3v3c-4 .688-4 .688-8 1l2.125 2.438L535 278l-2 1c-5.83-2.798-10.172-6.757-15-11-2.947-2.098-5.952-4.048-9-6 4-1 4-1 7.938 0 4.062 1 4.062 1 9.062 0l1-3 2-1 1-3h2v-2l-2-1v-2l-3.437-.812L523 248z"/><path fill="#ce7250" d="M1030.938 207.063c2.664 3.795 3.062 6.318 3.062 10.937-1.677 4.679-2.917 5.937-7 9-2.848.512-2.848.512-6.062.688l-3.454.195c-4.834.162-9.647.181-14.484.117 2-2 2-2 6.57-2.125l5.555.125c3.29.074 6.585.096 9.875 0v-2h4c.375-3.5.375-3.5 0-7h-2v-5l3-3c-10.607-2.121-23.586-2.092-34 1v4l2 2h2v2l2 1-1 2q2.988.57 6 1v1c2.496.214 4.998.37 7.5.5s5.004.286 7.5.5v1c-3.08.216-6.165.371-9.25.5-9.317.392-9.317.392-13.75 1.5-4.312.188-4.312.188-8 0l1-2-3-3v-2h2a194 194 0 0 0 2-9c-3.25-.062-3.25-.062-7 1l-3 4c-6 0-6 0-9-2l-4 1a90 90 0 0 1-6-1c10.894-7.263 28.156-7.912 41-9l4.105-.371c16.489-1.319 16.489-1.319 21.832 2.434"/><path fill="#cf9179" d="M1029.824 258.71c3.334 3.508 4.188 6.516 4.113 11.29-1.064 4.544-2.351 6.114-5.937 9-3.172 1.586-6.517 1.302-10 1.494-11.873.693-22.334 2.543-33.7 6.166-3.477 1.084-6.7 1.869-10.3 2.34l3-2 3-3 4.625-1.5L989 281l1-3 1 2c3.203.06 3.203.06 7.465-.207l4.611-.28 4.861-.326 4.85-.29c11.924-.752 11.924-.752 14.213-1.897v-4h2c.428-7.446.428-7.446-2-11-6.302-1.563-12.544-1.196-19-1q-4.344-.089-8.688-.188c-3.699-.042-3.699-.042-6.312.188v2c-2.844 1.07-2.844 1.07-6.5 2.125l-3.656 1.07L980 267h3l1 3-5 1c-3 2-3 2-4 4l-5-1v-2h-2l-1 2-5.563.312c-6.004.365-9.485 2.203-14.437 5.688l-2-1c15.985-13.108 64.784-32.43 84.824-20.29"/><path fill="#cf8265" d="M589 454c2.685 4.027 3.977 8.26 5.625 12.813 6.941 18.58 15.676 34.083 34.125 43 10.207 3.73 20.15 2.71 30.25-.813 3.051-1.921 6.066-3.904 9-6h2v-2l4-1c-1.187 2.938-1.187 2.938-3 6l-5 1-2 5c-4.625.688-4.625.688-9 1v2c-4.697.15-9.365-.009-14.062-.125L637 515v2c-8.13 1.435-8.13 1.435-13-1v2h-5c-1.366-4.197-.884-6.582 0-11l-5-2v-2a522 522 0 0 0-9-2l-3-2v-3h-4c0-5 0-5 2-9-1-2-1-2-3.625-4.125C594 480 594 480 594.313 475.688L595 472h-2c-3.227-3.227-3.948-4.449-4.098-8.918z"/><path fill="#cd6e4e" d="m626 414 3 1v6h2c2.915 4.858 3.526 6.88 3.938 12.313l.34 3.8L635 440h-4l-3 3c-4 2-4 2-8 2a268 268 0 0 1-3-10l-2 1c-1.87-4.676-2.423-7.803-2.75-12.75l-.297-4.047L612 416l2-1v3l5-2 3.813 1.125L626 418z"/><path fill="#cc6d4c" d="M920 244c3.938 2.25 3.938 2.25 7 5v4h-3l-1 4-5 2v-3h-2v3h-6l-5 3c-.687 3.625-.687 3.625-1 7-2 1-2 1-6 0l-3-6h-2l-1 3c-3.625.875-3.625.875-7 1l1-3 4 1-1-3c3-5 3-5 7.188-8.125L900 251v-3c3.77-1.669 6.848-3 11-3 3.16-1.58 5.5-1.344 9-1"/><path fill="#cc6e4c" d="M556 211c6 0 6 0 10 2v2l5 1 1 3-1 2 5 2 1 3h2l2 5c-5.664 3.776-9.218 5.356-16 4h-4a131 131 0 0 1-4-5l-4-2v-2l-4-2-1-3h2l1-3 2-2h3z"/><path fill="#cd6e4e" d="M516 186c3.375 1.375 3.375 1.375 6 3v3l4-1v2h2v2l2.563-.437c3.834-.628 6.674-.522 10.437.437l1 4c-1.75 2.813-1.75 2.813-4 5l-3-1-3 3h-2v2a492 492 0 0 1-6-2l-4.312-.437L516 205l-1-3-5-1v-3a239 239 0 0 0-10-3l-3-2a161 161 0 0 0-8-1c6-4 6-4 9-4v2h6c2.75 3.063 2.75 3.063 5 6 2-1 2-1 3.438-4l.562-3-5-1v-2c2.95-1.475 4.821-.734 8 0"/><path fill="#cb6e4d" d="M784 425h3c3.032 6.063 2.97 7.336 1 14l-1.937 4.125c-2.256 5.332-3.233 10.341-4.157 16.031L781 462c-4 1-4 1-9-1l-1-1-2 2v-4l-5-2c-1.26-5.04-.095-7.344 2-12h2l1-4 3-2 3 2 3-2v2h2l2 4 1-3h-1a135 135 0 0 1-.187-6.875l-.043-3.867C782 427 782 427 784 425"/><path fill="#cd6c4a" d="m835 247 2 2 5-1 5 3h2c-.687 3.063-.687 3.063-2 6l-3-1-1-3-1 4 3 1v5l-3 1 1 5-2 1-1-3-.375 3-.625 3h-2v3c-4.375.813-4.375.813-9 1l-2-2h-2c-1-2-1-2-1-8l4-1-2-1-1-5c2.188-2.375 2.188-2.375 5-5a417 417 0 0 0 4-7z"/><path fill="#ce7353" d="M588 315c4.349 4.809 7.063 10.529 10 16.25l1.578 3.027C608 350.547 608 350.547 608 354h-2v-3h-3l1-4h-3l-2-4-2-1v2l-3-1q.492-4 1-8h-3l-.937 3.063L590 341l-4-1v-2l-3 1-1 4 3 4a539 539 0 0 1 3 11l2 4v6c-3.937-3.937-5.788-9.63-8.125-14.625l-1.707-3.527c-2.934-6.273-4.678-10.793-4.168-17.848l-2-3c3.908 0 6.52 1.292 10 3v2h2v-12h2c.125-3.5.125-3.5 0-7"/><path fill="#cd704d" d="M687 555c2.344.25 4.676.607 7 1l4.5-.625L702 555l-1 3-1-1-2 1v2h3v3c4.5 1.313 4.5 1.313 9 2v-2h5c-3.936 3.936-8.534 5.897-13.5 8.25l-2.918 1.43c-7.216 3.442-7.216 3.442-10.582 2.32l2-3c-2 0-2 0-6 1v2c-7.238 1.448-14.652 1.093-22 1l2-1v-2l4.375-.375L673 572l2-4 3-3h2l1-5h3l1 3 5-1v3l3-2-1-5-4 1z"/><path fill="#d28c71" d="m398.25 204.125 4.173.15c30.762 1.352 64.134 7.351 91.577 21.725-4.155 1.385-5.76 0-9.687-1.812C473.605 219.46 473.605 219.46 469 219v5l-5-1-2 1v-3c-3.437-.625-3.437-.625-7-1l-1-1-3.875.063C446 219 446 219 443 217v-3c-4.318-.288-7.794-.052-12 1l-2-3c-10.126-5.39-21.188-5.504-32.375-5.562l-4.235-.044-3.976.04-3.595.033L382 207c-2 4-2 4-3.062 8.25L378 219h-1l-1-5-1 5h-1c.724-8.448.724-8.448 2-11h2v-2c6.628-2.853 13.184-2.138 20.25-1.875"/><path fill="#cc6d4c" d="M783 535c3.293 4.39 3.497 5.728 3 11l-2 1c3 0 3 0 7.125-1.812L795 544l1 5h-3l1 4-2 2v-2c-2 1-2 1-4 6h-2v5l-3-1v-2h-2v2l-2.937.375L775 564l-1 4v-2l-4 3h-2c2-4 2-4 5-9l-2-3c1.008-5.04 2.598-8.663 4.875-13.25l2.117-4.328C780 536 780 536 783 535"/><path fill="#ce8f77" d="M750 321h1c.36 7.098-.664 11.218-5 17-.844 3.39-.844 3.39-1.5 7.25-.759 4.129-1.503 7.758-3 11.688-1.963 5.316-2.807 10.68-3.754 16.257-.672 3.43-1.413 6.575-2.746 9.805h-2c-.703 3.246-.703 3.246-1.25 7.438l-.578 4.183L731 398l2 1-3.437.375L726 401c-.446 3.32-.749 6.66-1 10-1.69 5.133-3.635 10.139-6 15l-2 1a88 88 0 0 0-.375 6.188c-.328 5.341-.818 8.78-4.625 12.812l-3 1-2 2c.972-4.859 2.617-8.97 4.547-13.512 7.771-18.655 13.687-38.02 19.667-57.303q1.373-4.42 2.75-8.837c2.495-8.018 4.976-16.033 7.235-24.121 1.546-5.491 3.396-10.791 5.489-16.102l1.824-4.68c.49-1.137.982-2.274 1.488-3.445m-33 116 1 2-2-1z"/><path fill="#cc704f" d="M862 291h1l-.125 4.063L863 299l3-1c3.188.813 3.188.813 6 2v2l4 1c1 2.938 1 2.938 1 6l-4 2c-1 1-1 1-2 5l-2 4c-5-2-5-2-6-4h-3l-3.125-1.875L854 313c-.625 2.813-.625 2.813-1 6h-4c1.123-5.615 3.226-9.526 5.938-14.562l2.714-5.067L860 295z"/><path fill="#cf8d74" d="m883 293 4 1c-1.63 4.074-3.322 7.337-5.562 11.063-12.271 21.296-20.099 44.428-26.25 68.125l-1.444 5.462A1620 1620 0 0 0 848 401c-2.11-8.441.405-16.904 3-25h2v-7h2v-8h2v-4.75c0-5.25 0-5.25 2-9.25h-2c-.812-3.437-.812-3.437-1-7l3-1 1-2h2v-2h2l1-4.5 1-4.5h2v-5h-2l1-2 2 1c1.125-3.437 1.125-3.437 2-7l-2 1 1-3 4-2c2-2 2-2 3-6h2l.5-3 .5-3h2zm-29 47 2 2h-2z"/><path fill="#cc6e4d" d="M577 305c2.938.438 2.938.438 6 2 .625 3 .625 3 1 6l4 2c1 5 1 5 0 7h-2q.459 4.505 1 9l-1 3h-2v-2a706 706 0 0 0-7-1l-2-2-2 1v-3h-2l-1-3-2-2c-4-8-4-8-5-11l5 1v2h2l1-2 1 3 2 1v2l4-2v-2h-2v-2h-2l1-4h2z"/><path fill="#cf866c" d="m821 310 3 1c-.88 4.403-2.044 8.607-3.323 12.906-5.613 18.968-10.198 38.186-14.845 57.406Q804.418 387.158 803 393l-.723 2.99q-1.032 4.257-2.078 8.51l-1.212 4.969L798 413h-1a242 242 0 0 1 0-11h1l.5-3.5.5-3.5h1c.819-3.76 1.491-7.542 2.184-11.328C803 380 803 380 805 376h-2l1-3 1 1 .586-4.594.789-5.906.773-5.906L808 353h2q.062-4.5 0-9l1-1v-6h2l-2-3c.362-4.163 1.418-7.046 3-11h2l-2-4c1-5 1-5 3.875-7.375z"/><path fill="#cc6e4c" d="M615 274h5l1 4 2-3c1.5 2.625 1.5 2.625 3 6l2 3c-.187 4.688-.187 4.688-1 9h-3l.188 3.625L624 300c-2.937-.687-2.937-.687-6-2l-1 2-3-2 1-2-3 1c-.662-2.709-1-5.211-1-8h-2c-.89-4.205-1.053-6.788 0-11l5-1z"/><path fill="#d28f76" d="M891 340c1 2 1 2 .438 5.625L891 349h2v2l-5 1v2h-2c-.379 2.598-.379 2.598-.562 6.063l-.25 3.582a184 184 0 0 0-.25 7.605L884 374a124 124 0 0 1-8 1c-1.602 4.006-2.83 7.864-4 12l-1 2h2l-.562 3-.438 3h3l-2 2-1 4-5 1c-.187 4.125-.187 4.125 0 8l-2-1c-3.1 3.1-3.13 7.03-3.926 11.25L860 423l-5 2c.756-3.78 1.616-7.174 2.813-10.812l.957-2.958c1.23-3.23 1.23-3.23 3.128-6.984 2.325-4.696 4.114-9.45 5.914-14.371 2.827-7.523 5.894-14.699 9.606-21.82 1.46-2.818 2.792-5.656 4.082-8.555 2.952-6.606 6.23-13.047 9.5-19.5"/><path fill="#cb6e4d" d="M760 570v2c2 1 2 1 5 1l1 4 2 1c1 1 1 1 1 7l-4 3-2-3v4c-5 .875-5 .875-10 1v-2l-3 1v-3h-3c-1.25-2.875-1.25-2.875-2-6l1-2h2l1-4c5.75-5.75 5.75-5.75 11-4"/><path fill="#cd6d4c" d="M640 453c3 4 3 4 3 6l4 2c1.065 4.26 1.43 7.63 1 12l-5 1-4 4h-6c-2.25-3.75-2.25-3.75-4-8l-2-4v-6l3-3v5c4.126-2.802 6.979-4.972 10-9"/><path fill="#cc7150" d="m828 210 2 1-1 4h-4l-2 4-1.812 2.938L820 225l3 5v2h-2l-1 4h3v-2c6.264-2.245 6.264-2.245 10-1v-2h6l-8 8h-2l-2 4a136 136 0 0 1-6 5l2-4c1.563-3.25 1.563-3.25 2-6-3.375-.25-3.375-.25-7 0v-2q-2.999-.51-6-1l-1-2-5 3-5 2-4 3c5.152-10.305 16.191-18.633 25-26l3.375-3z"/><path fill="#c87455" d="m375 219 1.875 2.438C379 224 379 224 381 225c2.155.074 4.313.083 6.469.063l3.918-.024L395.5 225q4.015-.038 8.031-.062l3.612-.036C410 225 410 225 412 226c2.31.123 4.624.176 6.938.188l3.777.042C426 226 426 226 429 224l8-1 3-2c1 3 1 3 1 8 2.938-.375 2.938-.375 6-1l1 3 3 1v-2h4l2 4a157 157 0 0 0 10 3c5 2 5 2 9 6l-4.074-1.246c-6.88-2.062-13.805-3.947-20.738-5.816l-3.87-1.065c-11.54-3.107-22.918-4.863-34.818-5.935l-5.684-.516c-7.498-.544-14.99-.71-22.507-.785C380 227 380 227 376.91 224.645 375 222 375 222 375 219"/><path fill="#cb7355" d="m392.75 256.563 3.69.063c25.293.582 51.63 5.318 74.56 16.374-3.751 1.25-6.17.851-10 0l-1-3c-3.57-.477-3.57-.477-8.125-.625-4.387-.16-8.593-.33-12.93-1.023L436 268v2h-2l-1-2-3 1v-2l-5-1 1-2c-6.654-6.654-18.923-4.262-27.75-4.312l-5.215-.088-4.957-.026-4.55-.044L380 260c-2.575 5.15-2.394 8.833-1.375 14.438L379 277h-2c-2.59-3.74-3-5.97-3-10.562 2.378-10.555 9.194-10.155 18.75-9.875"/><path fill="#cd7353" d="M838 489h2l1 2c3.063-.875 3.063-.875 6-2-4.693 9.386-11.857 18.338-19 26h-2l-2 4a144 144 0 0 1-6 5.813l-3.25 3.019L812 530l-2-1 1-4h4v-4h4v-3h2c-1-4-1-4-4-6l1-4 5-1 3-1 2-4 3-3 1-2h6l-1-5z"/><path fill="#cc6e4d" d="m835 472 1 2h3v3l5 1 1 3 2 1c.5 3.438.5 3.438 0 7-2.937 1.313-2.937 1.313-6 2l-1 2v-4h-2l.25 4-.25 4h-6c.375-2.937.375-2.937 1-6l-4-1 3-4-3.437-.437L825 485c2-5 2-5 7-8z"/><path fill="#cb6d4c" d="M516 244c3.438.125 3.438.125 7 1v3q3.483 1.058 7 2v2l3 1-1 2h-2l-1 4c-3 3-3 3-7 4l-2 2v-2a128 128 0 0 0-7-1l-4-1v-2l-3-1v-4l-2-1c5 1 5 1 8 3v-2h2v-2h2v-2h6v-2l-5-1z"/><path fill="#cd6e4e" d="M690 433c1.75 3 1.75 3 3 6h-2v3l-2 2 1 5-4 1v3h2l-1 3-1-1-.25 3-.75 3h-4q-.516-3.998-1-8l-4-2c-1.075-4.298-1.498-7.592-1-12 3.204-1.709 5.391-2 9-2v-2c4-2 4-2 6-2"/><path fill="#cf8266" d="M646 313c3.073 4.097 4.838 7.874 6.875 12.563 2.185 5.002 4.367 9.996 6.688 14.937 9.965 21.917 9.965 21.917 8.437 26.5h-3c-1.01-2.83-2.005-5.668-2.895-8.54-4.622-14.471-4.622-14.471-9.105-17.46l-1-1-4-3v4l-3-1 1-4h2l-2-4v-3l2-1c-1.257-4.4-2.454-8.18-5-12l3-1z"/><path fill="#d69c84" d="M848 223v3l-2 2-1 5h-2l-.875 2.875C841 239 841 239 837 241v2h-2l-1.312 4.063c-1.658 4.85-3.375 8.058-6.688 11.937l-4 1c-1.187 2.688-1.187 2.688-2 6l-.75 3c-.25 3-.25 3 .938 6.375L822 278h-4l-2 5-2 3h-2v3h-3c1.405-5.62 3.813-10.77 6.125-16.062l1.398-3.28c4.167-9.54 9.402-18.054 15.602-26.408l2-2.727a894 894 0 0 1 5-6.648L841 231l-2-1c2.947-2.4 5.95-4.733 9-7"/><path fill="#d0937a" d="m751 570 2 1-4 4-1 3h-2v5c-3.125.625-3.125.625-7 1a133 133 0 0 0-6 3h-2v3c-3.326.7-6.66 1.364-10 2l-4 3c-6.062 2.336-12.088 2.333-18.5 2.313l-3.05.048c-5.813.004-10.37-.428-15.45-3.361v-2a110 110 0 0 0-7-2c4.575-1.144 5.951-.556 10.313.938 16.946 5.034 34.224 1.101 49.687-6.938 5.39-3.457 10.252-7.344 15.063-11.562z"/><path fill="#cd6c4a" d="m853 220 4 1 2 5-2 2 5 3-2-5 5 1c2 3 2 3 2 7h-2v3h-4v2l-5-1v-2l-3 1c-4.187-1.062-4.187-1.062-8-3 0-6 0-6 3.75-10.437z"/><path fill="#cc7151" d="M660 406c2 3 2 3 2.875 7.625L664 418l4 1 2 1 .5 5.063.5 4.937h2v2h2v-2l8-1v-2h3v8h-2v2l-5 1-2 2-2-1c-.25 3.875-.25 3.875 0 8l2 1-2 3a2408 2408 0 0 1-10.875-29.25l-1.228-3.318C660 410.458 660 410.458 660 406"/><path fill="#cf8165" d="M974 289c-3.71 2.783-7.284 4.78-11.375 6.938C954.11 300.664 947.195 306.5 940 313a320 320 0 0 1-5 4v-5l3-1v-2h2l1-5 1-1v-5h2v-5c5 1 5 1 7 2v-2h3v2c3.5.313 3.5.313 7 0v-3h3v-2c4-1 4-1 10-1"/><path fill="#d39a82" d="M573 475c2 2 2 2 3 7h2l1 8h2c2 5 2 5 2 10h2v4h2v2h2v8h2c4 10.118 4 10.118 4 13l3 1c1.352 5.296 1.352 5.296 0 8h3v3h2l1-3 2 16c-14.535-14.535-21.215-41-28-60l-1.417-3.856-1.392-3.808-1.27-3.46C573 478 573 478 573 475"/><path fill="#cd714f" d="M764 445c1 4 1 4 0 8l3 3 3 3h2l1 2 4 1c1 4 1 4 0 7q-3.492.553-7 1v2h-2v-4h-3l-1 4-2-1v-2h2c-.75-4.5-.75-4.5-2-9h-2l.313 2.813c-.462 6.18-3.794 10.223-7.313 15.187-1.471-4.413.687-6.89 2.598-10.887 1.816-4.032 3.14-8.156 4.488-12.363 1.11-3.341 2.458-6.546 3.914-9.75"/><path fill="#d4977f" d="M528 320c15.255 13.825 27.418 37.462 33 57-3.538-1.77-4.425-5.535-6-9v-3h-2v6h-3c-.125-3.375-.125-3.375 0-7l-1-2 .063-3.625L549 355h-2v-2h-2l-.437-2.937L544 347l-3-1v2h-3c-.42-2.99-.737-5.993-1-9-.937-4.562-.937-4.562-2-8h-2c-5-8.333-5-8.333-5-11"/><path fill="#d6a189" d="m732 513 1 2-2 5h-2l1 3c-3.312 4.688-3.312 4.688-7 9h-2l-1 4-4 1-3 3a174 174 0 0 0 5 4l1 5c-4.437-.562-4.437-.562-9-2v-2c-2.703.645-2.703.645-6.25 1.813-3.581 1.165-7.094 2.273-10.75 3.187v3h-6c1.64-3.28 4.917-3.891 8.188-5.375 14.54-7.147 25.504-17.778 33.812-31.625h2z"/><path fill="#d4a28b" d="M848 319c1 4 1 4 1 10h-2l-.375 2.313c-.873 5.15-2.812 9.796-4.625 14.687a140 140 0 0 0-2.68 9.953l-.758 3.235-.683 3.042C837 365 837 365 834 369c-.625 3.688-.625 3.688-1 8-.506 4.744-1.064 9.318-2 14h-2l-.5 4-.5 4h-2l-1 5c-2.41-7.23 2.33-17.667 4.188-25.062l.81-3.256C834.832 356.35 840.817 337.6 848 319"/><path fill="#d6a28a" d="M383 279c3.134-.103 6.27-.13 9.406-.133l5.88-.004 3.086.007q4.67.006 9.343-.007l5.879.004 5.459.004L426 279v1c4.938 1.188 4.938 1.188 10 2l1-2 5 1 1 3-1 1c11.996 2.908 11.996 2.908 17.75 3.438L463 289l1 4 3.063.5 2.937.5v4c-3.546-.743-6.66-2.288-9.977-3.734-21.918-9.505-44.786-13.157-68.527-13.871A427 427 0 0 1 383 280z"/><path fill="#d0886c" d="M606 552h5c1.688 3.063 1.688 3.063 3 6l2-1v2h3v2h2c1.25 3.5 1.25 3.5 2 7h-2l1 4h2l1-2v4h2c-.375-3-.375-3-1-6l2 1 1 4 3 1-1 3h-3v2h2q1.508 3.497 3 7c2.188 2.938 2.188 2.938 4 5-13.331-6.666-23.544-24.52-31-37z"/><path fill="#d08a6e" d="M823 404h1c.264 5.193-.032 8.08-2 13-2.702 10.108-4.537 19.531-4 30l1-2 4 1-1 2h-2l1 3-3 1q-.509 3.499-1 7l-3 2v-3l-1 2h-2l-.312 2.313c-.999 5.355-3.35 9.772-5.688 14.687-1.578-4.734.727-8.858 2.25-13.437 4.798-14.887 8.469-30.043 12.155-45.233l1.372-5.62 1.227-5.084z"/><path fill="#d18a6f" d="M706 449h1c.25 3.938.25 3.938 0 8l-3 1-1 5 4 2c-1.187 2.813-1.187 2.813-3 6l-1 5h-6c-5 3-5 3-8 8-.4 3.326-.74 6.66-1 10l-1 2-3-1a672 672 0 0 0-8 5l-2-1 2.938-2.875c3.711-3.769 6.38-7.488 9.117-11.992 2.177-3.507 4.528-6.867 6.883-10.258 4.655-6.912 8.187-14.077 11.566-21.684z"/><path fill="#d18467" d="M506 176c7.658 1.532 14.101 5.423 21 9l3.797 1.945c5.216 2.726 8.989 4.84 13.203 9.055l-2.992-.219-3.883-.281-3.867-.281c-1.75-.118-3.504-.219-5.258-.219v-2h-2v-2l-4 1v-3a190 190 0 0 0-9-3l-3-2 1-1h-4v-5z"/><path fill="#cf8e76" d="M705 496c0 7.331-10.293 15.239-15.062 20.375C682.427 523.29 673.674 529.482 664 533l-4-1c2-2 2-2 4-3l2 1 1-5h4l2-4h8v-4h4v-2h2v-2h2v-2h2v-2h2v-2h2l-.75-3.437L694 500c2.875-.812 2.875-.812 6-1l1-2z"/><path fill="#d3977f" d="m622 456 1 2h3c.763 2.687 1.514 5.379 2.172 8.094 1.047 3.674 2.83 6.668 4.828 9.906v2l3-1c3.188.75 3.188.75 6 2v3h-2v2h-3c.125 4 .125 4 1 8h3l2 4c5.625.75 5.625.75 11 1-3.626 3.626-8.125 2.946-13 3-4.85-3.573-6.647-10.552-9-16l-1.77-3.957C622 461.555 622 461.555 622 456"/><path fill="#cc6e4c" d="M640 482h5l-1 4 5-1c4.25 1.625 4.25 1.625 8 4l1 5c-5.695 4.271-8.98 3.604-16 3l-1-5h-3c-.875-4-.875-4-1-8h3z"/><path fill="#d18b71" d="M624 276c5.11 4.46 8.215 10.008 11.563 15.813l1.708 2.908C646 309.677 646 309.677 646 313h-4l-2-3-2-2h-2v-5h-2v-4l-4 1h-5a40 40 0 0 1 3-8h2c-3.36-9.36-3.36-9.36-6-12z"/><path fill="#d6a08a" d="M623 317c3 3 3 3 6 8l1-2 1.75 4.188C634 332 634 332 636.004 334.28c2.594 3.533 3.24 6.769 4.183 11.031A326 326 0 0 0 642 353h1v5h3c1 2 1 2 .938 6.625L647 369h2c2.826 6.764 4.517 12.629 5 20-2.767-2.767-3.467-5.641-4.793-9.324l-1.662-4.56q-1.705-4.726-3.406-9.454c-5.441-14.92-12.2-28.925-19.416-43.057C623 319 623 319 623 317"/><path fill="#d5957c" d="M471 274c11.393 2.279 20.523 10.47 29.531 17.426C504 294 504 294 508 296c3.07 2.846 5.476 5.635 8 9l-4 1c-3-3-3-3-6-8-10.91-4.364-10.91-4.364-15-3l-1-1v-6c-5.539-.583-8.986-.507-14 2v-4h3l1-2h2l-1-5c-2.812-1.125-2.812-1.125-6-2z"/><path fill="#cf9781" d="M745 605c-22.816 10.262-48.455 16.24-73.082 8.156-4.038-1.6-8.019-3.24-11.918-5.156 5.143-1.286 9.012-1.072 13.73 1.473 11.233 5.247 28.254 4.93 40.27 2.527l5.313.063L724 612v-2c2-1 2-1 8-1v-2h5v-2c5-1 5-1 8 0"/><path fill="#d38f76" d="M796 241c0 5.024-2.997 8.994-5.312 13.375L789 258h2v-2l3 1v3c-3.192 1.915-5.249 3-9 3l-1 2-3 1c-1.444 3.109-2.557 6.284-3.719 9.508L776 278l-3-1c-3 6.778-3 6.778-3 10a125 125 0 0 1-6 4c5.057-17.508 19.23-37.23 32-50"/><path fill="#ce8366" d="M772 287v2h2v2a381 381 0 0 1-6 5l-1 2h4c-1 3-1 3-4 6l-4-1a143 143 0 0 0-4 8h-2l-.875 3.875L755 319l-4 2c.55-6.146 3.169-11.455 5.688-17l1.279-2.945C764.314 287 764.314 287 772 287"/><path fill="#d28d74" d="M727 455c1 3 1 3-.266 6.09A1242 1242 0 0 1 720 474l-1.415 2.675C709.6 493.6 709.6 493.6 706 496v-4h2c.088-2.332.08-4.668 0-7v-3l-4-3 6-2h-2v-3h2v-2l4-1 1-2h6v-4l3-3a147 147 0 0 0 3-7"/><path fill="#d1866c" d="M773 317h3c-1.193 5.967-3.293 11.453-5.437 17.125l-1.237 3.324c-3.073 8.17-3.073 8.17-5.326 11.551l-.75-4.75C762 339 762 339 758 335l-4-1 1-3h5l1-3a49.7 49.7 0 0 1 9-4v2h2c.043-2.333.04-4.667 0-7z"/><path fill="#d5947b" d="M457 160c15.606.72 33.775 7.565 48 14l1 2-5 1-1-3c-2.687.25-2.687.25-6 1-5.667 1.111-5.667 1.111-9 0l-3 1c-3.187-1.937-3.187-1.937-6-4l3-1v-2h-3l-1-4c-3.273-.793-3.273-.793-7.375-1.187-7.484-.766-7.484-.766-10.625-1.813z"/><path fill="#d1967f" d="m840 267 2 1c1 3 1 3-.406 6.23l-2.094 3.957c-5.506 10.676-10.348 21.54-14.5 32.813-1.213-3.64-.74-5.793-.125-9.562l.555-3.504C826 295 826 295 827 293l-3-1 2-1v-5h2l1-4 1-2 3-.25 3-.75c.75-3.062.75-3.062 1-6h2l.5-3.062z"/><path fill="#cf876d" d="M916 256h2v3l4-1a136 136 0 0 1-12 11h-2v2l-3.625 3.125c-4.154 3.679-7.2 7.35-10.375 11.875 0-6.263.37-8.37 5-13h2v-2h2c.044-2.333.04-4.667 0-7l1-3h2l1-2h2l5-1 2 1z"/><path fill="#cf866b" d="m860 242 2-1c-2 4-2 4-4.625 7.438-3.51 4.745-6.53 9.637-9.543 14.707C846 266 846 266 843 269l-1-5 2-1v-5l-2-1v-5l2 1v3h3v-3h2v-2l-3 1v-3l4-1v-5l-3-1c4.854-.74 8.12-.976 13 0"/><path fill="#d1896f" d="m899 205 4 2c-2.224 1.694-4.477 3.355-6.812 4.89C886.104 218.565 877.31 226.24 869 235c0-3 0-3 2-5 .125-3.625.125-3.625 0-7l1 2 4-1v-2l-3 1-3-4 4-1v2h2v-2l3.563-.312L883 217l-1-5 4 2 3-1v-2h2v-2l4-.437 4-.563z"/><path fill="#d4a08b" d="M795 417c1.256 5.024.208 7.48-1.309 12.414l-1.513 4.992-1.615 5.219a8234 8234 0 0 0-3.122 10.227l-1.415 4.588C785 458 785 458 785 460h-2a269 269 0 0 0-2.008 6.777c-1.913 6.214-4.348 12.285-6.992 18.223h-1c0-5.581.714-9.075 2.375-14.312.44-1.42.882-2.839 1.336-4.301C778 463 778 463 780 462a102 102 0 0 0 1.313-6.375c.955-4.808 2.103-8.968 4.25-13.375C788 437 788 437 789.125 431.313L790 427h3c1.188-5 1.188-5 2-10"/><path fill="#d18265" d="M620 402h2c-.228 3.03-.466 6.062-.809 9.082C621 414 621 414 622 417h-5l-4 2c-.39 2.82-.39 2.82-.25 6.125L613 431c-2.543-3.815-3.722-7.655-5.187-12l-1.668-4.875C605 410 605 410 606 407l2 1v2l3-3 3.063.563L617 408l2-4z"/><path fill="#d99c84" d="M836 442c1.46 5.844-.713 10.652-2.437 16.25l-1.026 3.414A1661 1661 0 0 1 830 470l4-2c-1.91 4.774-4.226 8.692-7 13-1-4-1-4 0-7 .12-3.665.13-7.336 0-11h-2c.479-9.218.479-9.218 3-13l4-1a90 90 0 0 0 1-6l2 1z"/><path fill="#d2947b" d="m584 259 5 2 1 3 5 2 1 4 5-1c1.861 2.925 2.907 5.72 4 9h2l-.125 5.5.125 5.5h4c1.444 5.111 1.444 5.111 0 8l-1.617-2.605c-6.688-10.61-14.15-20.387-22.008-30.145C584 260 584 260 584 259"/><path fill="#d7977e" d="m959 228 1 2c3 .813 3 .813 6 1l1-3h3v2c8.567.777 16.629-.165 25-2 4.625-.187 4.625-.187 8 0v1c-3.346.65-6.702 1.242-10.062 1.813-11.366 1.994-22.385 4.4-33.188 8.5C955 241 955 241 952 240h2l1-4 5-2c-.187-3.125-.187-3.125-1-6"/><path fill="#d59f88" d="M772 485c1.48 5.922-1.691 9.591-4.562 14.625l-1.596 2.871a305 305 0 0 1-8.244 13.902C755 521 755 521 755 526l-5 3a140 140 0 0 0-5 5c-.312-3.937-.312-3.937 0-8l5-1v-4h2v-4h4c1-4 1-4 1.438-7.25L758 507h2l-.125-4 .125-4h4l1-4 3-1a165 165 0 0 0 4-9"/><path fill="#d2977f" d="M791 342h1c.24 10.043.24 10.043-1 15h2v4l-3 2c-.544 2.976-1.081 5.957-1.473 8.957C788 375 788 375 786 380q-.509 3.499-1 7c-.875 3.438-.875 3.438-2 6h-3c.294-6.92 2.22-13.718 3.813-20.437l.81-3.459q.808-3.438 1.62-6.876c.68-2.9 1.345-5.804 2.007-8.708l1.063-4.645.925-4.07z"/><path fill="#d1927a" d="M755 375c1.11 4.442.709 5.756-.695 9.988-.384 1.176-.769 2.35-1.164 3.562l-1.266 3.762-1.258 3.814q-1.236 3.742-2.485 7.48c-.952 2.854-1.884 5.715-2.812 8.578-2.42 7.451-2.42 7.451-3.32 9.816h-1c-.384-5.888.592-11.29 2-17h2c.107-3.951-.074-7.867-.223-11.816L745 390l3 1q.57-2.988 1-6h2l-.062-4.062L751 377l3 1z"/><path fill="#d08d75" d="M791 281h4c-1.922 4.806-4.193 9.006-6.75 13.5-3.162 5.629-6.155 11.241-8.812 17.125L777 317h-1a672 672 0 0 1 1-8q.341-5.021.621-10.047C778 296 778 296 780 292q3.492-.553 7-1l1-3c1.313-3.687 1.313-3.687 3-7"/><path fill="#d19177" d="M516 205c3.938-.25 3.938-.25 8 0l1 3q3.493.553 7 1v2c4 1 4 1 7 1v-2c4.063-.25 4.063-.25 8 0l-1 2h-2c.914 6.604 2.824 10.835 7 16-3.764-1.882-6.385-3.854-9.625-6.5-6.87-5.381-14.204-9.475-21.895-13.566L516 206z"/><path fill="#d59a82" d="M564 384c3.091 4.637 4.773 9.879 6.75 15.063l1.347 3.523c7.783 20.51 7.783 20.51 9.903 28.414l-1 2c-3.024-5.04-3.953-8.717-5.059-14.355C575 416 575 416 571 414v-4h-5c-.637-3.105-.637-3.105-.687-7.187-.095-5.133-.366-7.946-2.313-12.813h2c-.375-3-.375-3-1-6"/><path fill="#d6a28a" d="M808 289c2 3 2 3 1.75 6.688L809 299h-2v6h-2v6c-1.312 5.375-1.312 5.375-3 10h-3c-.418 2.32-.736 4.658-1 7a127 127 0 0 1-2 6l-1 3.25c-1 2.75-1 2.75-3 4.75 6.38-43.38 6.38-43.38 16-53"/><path fill="#d19077" d="M571 216c10.276 5.138 19.297 15.584 27 24v2h2c2.688 2.875 2.688 2.875 5 6l-1 2a149 149 0 0 1-5-4l-3-1v-2l-5 1v-3h3c-3.052-5.086-3.82-5.928-9-8l-5-1a90 90 0 0 1-1-6l-3 1v-4l-5-2z"/><path fill="#dcae99" d="M728 389c1.07 4.277.755 5.855-.375 10l-.836 3.125L726 405l-1 4c-1.668 5.837-3.326 11.536-6 17l-2 1a88 88 0 0 0-.375 6.188c-.328 5.341-.818 8.78-4.625 12.812l-3 1-2 2c.972-4.859 2.617-8.97 4.547-13.512C716.659 423.215 720.86 410.627 725 398q1.498-4.5 3-9m-11 48 1 2-2-1z"/><path fill="#d2937a" d="M588 315c4.349 4.809 7.063 10.529 10 16.25l1.578 3.027C608 350.547 608 350.547 608 354h-2v-3h-3l1-4h-3l-2-4-2-1v2l-3-1c-.004-2.723-.004-2.723.438-6.062.185-1.96.37-3.92.562-5.938h-2l-.375-2.937L592 325l-4-1c-.25-4.562-.25-4.562 0-9"/><path fill="#d08469" d="m762 584 3 1 1 4c-5.615 6.006-12.839 11.022-20 15h-2l-1-2-4-2 3-4h3l2-3h3l1-3 2 3h4v-2h2v-2h4z"/><path fill="#d28970" d="m897 361 4 4 2-2h2c-1.424 5.716-4.197 11.034-6.625 16.375l-2.477 5.46L894 389c-1-3-1-3-1-8l-1-5 1-1c.69-4.759 1.173-8.306 0-13z"/><path fill="#cf8d73" d="M869 445c1 3 1 3-.406 6.336l-2.094 4.039-2.223 4.305L862 464l-2.059 3.945c-3.465 6.557-3.465 6.557-4.941 9.055h-1c.61-8.415.61-8.415 3-12l-5 1v-2l-2-1c2-3 2-3 5.125-3.812L858 459v2h2v-4h2l1-3.5 1-3.5h2l1-3z"/><path fill="#daaa96" d="M1030.938 207.063c2.664 3.795 3.062 6.318 3.062 10.937-1.677 4.679-2.917 5.937-7 9-2.848.512-2.848.512-6.062.688l-3.454.195c-4.834.162-9.647.181-14.484.117 2-2 2-2 6.57-2.125l5.555.125c3.29.074 6.585.096 9.875 0v-2h4c.375-3.5.375-3.5 0-7h-2v-5l2-1v-3c-4.567-2.283-11.17-1.435-16.277-1.605A364 364 0 0 1 1005 206v-1c19.71-2.31 19.71-2.31 25.938 2.063"/><path fill="#d0896e" d="M613 431c6 6 6 6 7.313 11.25L622 447c3.063-.312 3.063-.312 6-1 1.5 3.25 1.5 3.25 2 7l-2 3c-.355 2.33-.691 4.663-1 7h-1v-5h-3v-2h-2a194 194 0 0 1-4.125-10.25l-1.129-2.934c-1.544-4.1-2.746-7.399-2.746-11.816"/><path fill="#d39177" d="M555 409c2 2 2 2 3 7l4 2c-.25 3.125-.25 3.125-1 6l-2-3c.255 2.675.591 5.344 1 8l2 1c.856 4.278 1 7.69 1 12 .292 2.006.612 4.01 1 6-4.429-4.429-5.687-12.052-7.687-17.875l-1.588-4.496-1.487-4.309-1.374-3.96C551 414 551 414 552 410l2 3z"/><path fill="#c77457" d="M613 296h2v2l2 1v2h2v3l5-2v2h2c.75 4 .75 4 1 8h-2c.863 2.668.863 2.668 2.313 6.188 1.66 4.051 2.821 7.484 3.687 11.812-3-4-3-4-5-8.062-2-3.938-2-3.938-5-6.938a233 233 0 0 1-4.75-8l-2.484-4.312C612 299 612 299 613 296"/><path fill="#d18c71" d="M544 196c5.129 2.051 8.558 4.478 12.938 7.813l4.152 3.144c7.538 5.866 7.538 5.866 9.91 8.043l-2 1-3-1-1-2h-3v-2l-3.437.625L555 212l-1-4-4 1-2-2-2 1v-4h2v-2h-2c-2-3-2-3-2-6"/><path fill="#d5a089" d="M871 183c3 1 3 1 7 3l-1 2q-4.5-.493-9-1v2h-2v2l-8 2v2h-5l-1 4-4 1-4 4c-5 2-5 2-8 2l-2 4-4-1c10.025-8.069 20.885-14.566 32-21l4.926-2.922z"/><path fill="#d7a692" d="M1027 173c-4.744 2.372-7.769 2.268-13.062 2.375-17.685.682-35.217 3.583-52.485 7.402L959 183l1-3c3.03-.516 6.064-1.022 9.117-1.375C972 178 972 178 975 175c4.376-.507 8.608-.826 13-1l4.058-.165c4.293-.154 8.586-.28 12.88-.398l4.439-.13c5.879-.17 11.741-.307 17.623-.307"/><path fill="#cd6b4b" d="M827 464c.3 6.303-.054 11.975-2 18-5 2-5 2-8 2-.875-4.937-.875-4.937-1-10 3-1 3-1 6 0v-2h-2l-1-3h2l2-4c3-1 3-1 4-1"/><path fill="#d69f87" d="m828 210 2 1-1 4h-4l-2 4-1.625 3.063C820 225 820 225 820 228l-3.375-.625L813 227l-2 5-2.687.875c-4.627 1.571-7.04 4.591-10.313 8.125 0-3 0-3 3.219-6.547l4.281-4.203 4.219-4.172c4.002-3.813 8.095-7.47 12.281-11.078l3.375-3z"/><path fill="#d3927a" d="M829 504c3.125.125 3.125.125 6 1-1.964 3.927-4.059 6.764-7 10h-2l-2 4a144 144 0 0 1-6 5.813l-3.25 3.019L812 530l-2-1 1-4h4v-4h4v-3h2l-.562-2.937L820 512l3-1v-2h2v-2l4-1z"/><path fill="#d3967e" d="M608 354c2.741 2.741 3.583 5.63 5.004 9.238l1.744 4.424 1.814 4.65 1.827 4.616c4.48 11.422 4.48 11.422 5.611 17.072l-3-3v-3l-4-2q-.57-3.49-1-7l-3-3-1-4-4 2-1-5h2c-.023-3.281-.023-3.281-.375-7.5l-.336-4.219z"/><path fill="#ddb3a1" d="m392.75 256.563 3.664.057c12.676.275 25.233 1.439 37.586 4.38v1c-9.26-.678-9.26-.678-13.83-1.524-7.223-1.084-14.63-.747-21.92-.788l-5.215-.088-4.957-.026-4.55-.044L380 260c-2.575 5.15-2.394 8.833-1.375 14.438L379 277h-2c-2.59-3.74-3-5.97-3-10.562 2.379-10.556 9.193-10.154 18.75-9.875"/><path fill="#d6a28e" d="m808 353 3 3c-.277 6.64-2.1 13.068-3.687 19.5l-.796 3.261q-.83 3.39-1.664 6.778c-.857 3.476-1.703 6.955-2.548 10.434l-1.617 6.59-.77 3.171A305 305 0 0 1 798 413h-1a242 242 0 0 1 0-11h1l.5-3.5.5-3.5h1c.819-3.76 1.491-7.542 2.184-11.328C803 380 803 380 805 376h-2l1-3 1 1z"/><path fill="#d28d73" d="M802 528h6v2l2 1-2.05 1.457c-4.053 3.494-5.758 7.46-8.138 12.23-4.618 9.216-4.618 9.216-6.812 10.313v-6h3l-1-4h2v-3l-2-1a370 370 0 0 1 4-6c.711-1.985 1.39-3.982 2-6z"/><path fill="#d29075" d="m869 392 3 3h3l-2 2-1 4-5 1c-.187 4.125-.187 4.125 0 8l-2-1c-3.1 3.1-3.13 7.03-3.926 11.25L860 423l-5 2c1.74-8.702 4.458-17.335 9-25l4-2c.75-3.125.75-3.125 1-6"/><path fill="#d39b84" d="M513 334h2l.875 3 1.125 3h4c2 3 2 3 2 7h2l1 6h2a772 772 0 0 1 2 7l2 1 .938 2.875C534 367 534 367 537 370l-1 5c-2.683-3.578-4.59-6.915-6.625-10.875-3.443-6.542-7.218-12.744-11.297-18.906-2.16-3.347-4.213-6.698-6.078-10.219z"/><path fill="#d48f73" d="m983 267 1 3-5 1c-3 2-3 2-4 4l-5-1v-2h-2l-1 2-5.562.313c-6.005.364-9.486 2.202-14.438 5.687l-2-1c11.665-8.85 23.345-12.706 38-12"/><path fill="#d9a690" d="M688 576v1c-9.648 1.754-19.212 2.523-29 3l4.75 2.813A100 100 0 0 1 673 589c-6.625.25-6.625.25-10-2l-5.187-.5L653 586v-2h2l-1.223-3.441L654 577c4.738-.735 8.809-.977 13.563-.937l3.908-.05c5.51-.06 11.019-.013 16.529-.013"/><path fill="#d28f74" d="m650 585 3 2-2 1v3l2 2-1.062 3.563L651 600l3 1v2l4 1 2 3c-5.832-1.166-8.485-3.287-13.187-6.875l-4.293-3.242C639 594 639 594 637 591c3.875-1.187 3.875-1.187 8-2l-2 4 5 2 1-3h-2c-.812-3-.812-3-1-6h3z"/><path fill="#d2957d" d="M655 332c4.163 5.551 6.234 11.63 8.75 18.063l1.574 3.916 1.473 3.744 1.354 3.43C669 364 669 364 668 367h-3c-1.011-2.832-2.005-5.672-2.887-8.547-1.1-3.412-2.392-6.658-3.8-9.953-2.515-5.98-3.436-10.106-3.313-16.5"/><path fill="#d4937a" d="M562 279c4.702 3.331 7.732 7.374 11.125 12l3.133 4.25L579 299l3 4-1 2-1.75-2.437L577 300l-5 1c-3.312-3.187-3.312-3.187-6-7v-4c-1-4-1-4-4-7z"/><path fill="#d49d85" d="M751 478c1.69 5.07.686 9.742 0 15l-3-1-1 5c-3.77 7.264-7.02 11.427-14 16 1.64-4.102 3.251-7.1 5.625-10.75 4.856-7.747 8.626-15.924 12.375-24.25m0 12 3 1Z"/><path fill="#d1957c" d="M470 298c7.491.491 7.491.491 11 4 3.592 2.832 6.306 4.815 10.75 6 3.25 1 3.25 1 6.25 6l3 3v5c-4.259-3.097-8.254-6.235-12.125-9.812-4.938-4.496-10.459-7.905-16.129-11.403L470 299z"/><path fill="#d5a18a" d="M854 425h1c.397 5.855.13 7.784-3 13l-1 3c-1 3-1 3-4 8h-2l-1.312 5.75c-.956 4.147-1.394 5.928-4.313 9.125L837 465l-1-2c.937-2.282 1.985-4.519 3.078-6.73l2.02-4.124 2.152-4.334q2.073-4.207 4.14-8.417l1.877-3.786a165 165 0 0 0 3.396-7.571z"/><path fill="#daaa93" d="m751 570 2 1-4 4-1 3h-2v5c-3.125.625-3.125.625-7 1a133 133 0 0 0-6 3h-2v3c-2.712 1.356-5.317 1.605-8.312 2.063l-3.426.535C716 593 716 593 711 593c3.815-1.907 7.543-3.275 11.563-4.687 11.042-4.099 20.105-9.98 28.437-18.313"/><path fill="#d3947b" d="M862 291h1c.241 6.517.241 6.517-1 9h2v3h-4c-2 4.438-2 4.438-3 9l4 1-1 2-3-1.25-3-.75c-.625 2.875-.625 2.875-1 6h-4c1.123-5.615 3.226-9.526 5.938-14.562l2.714-5.067L860 295z"/><path fill="#d59f89" d="M473 187c4.187.349 7.49 1.186 11.438 2.688L488 191v-2c4.382 1.27 8.19 2.46 12 5q2.994 1.02 6 2l4 2v3h5l1 4c-4.801-1.464-9.129-3.465-13.625-5.687-8.336-3.99-16.834-7.053-25.598-9.965L473 188z"/><path fill="#d29982" d="M551 228c4.037.188 5.606.585 8.438 3.563C562 234 562 234 565.688 234.125L569 234l2 3-2 1c.625 3.063.625 3.063 2 6h4c1.75 4 1.75 4 3 8-4.008-1.336-5.375-3.769-8-7l-2-1v-2l-4-2a250 250 0 0 1-6.75-5.562l-3.547-3.004L551 229z"/><path fill="#d7a38c" d="M431 230c2.773.066 5.544.205 8.313.375l4.675.273C448 231 448 231 451 232v-2h4l2 4a157 157 0 0 0 10 3c5 2 5 2 9 6l-4.043-1.242c-7.049-2.114-14.158-3.994-21.27-5.883l-4.072-1.09-3.916-1.043-3.536-.942c-2.701-.683-5.43-1.254-8.163-1.8z"/><path fill="#e0b5a1" d="m1032 271 1 3c-4.072 4.623-5.717 5.916-11.926 6.324l-3.075.17c-11.872.693-22.333 2.543-33.698 6.166-3.478 1.084-6.701 1.869-10.301 2.34l3-2 3-3 4.625-1.5L989 281l1-3 1 2c5.587.161 11.174-.342 16.75-.687l4.773-.24c.757-.046.757-.046 4.586-.272l4.218-.245C1025 278 1025 278 1030 275z"/><path fill="#d4967e" d="m510.25 234.438 2.758 1.486c6.747 3.709 6.747 3.709 8.992 7.076-5-2-5-2-6-3l-5.75-.25c-5.847-.423-5.847-.423-9.25-3.187L499 234l-4-2-1 2-2-4-2-2c7.638-1.91 13.674 2.803 20.25 6.438"/><path fill="#e0b5a1" d="M621 531c3.43.39 6.648 1.162 10 2 2.244.07 4.49.084 6.734.063l3.926-.024 4.09-.039q4.024-.038 8.047-.062l3.604-.036L660 533v1c-10.262 2.228-20.552 2.228-31 2l7 8h-3l-3-3h-4c-5-7.045-5-7.045-5-10"/><path fill="#d2947b" d="M803 477c3.124 3.124 3.233 6.751 4 11l-1 2h-2l1 3h-3l-2 5h-2v5c-2.5 2.313-2.5 2.313-5 4 1.093-5.464 2.978-10.397 5-15.562 3.875-9.94 3.875-9.94 5-14.438"/><path fill="#d39780" d="M589 454c3.74 5.611 5.52 12.326 7.832 18.633C599 478 599 478 601.824 483.055c.36.65.36.65 2.176 3.945l-1 2h-3l-1-4-2.625-2.25C594 480 594 480 594.313 475.688L595 472h-2c-3.227-3.227-3.948-4.449-4.098-8.918z"/><path fill="#d6a18a" d="M978 155v1q-5.496 1.022-11 2l-2 1-5.562-.187L954 159l-1 4 2 1-3.312-.562C947 163 947 163 941.25 163.563 936 164 936 164 932 162q6.966-1.477 13.938-2.937l3.962-.842c9.368-1.959 18.485-3.57 28.1-3.221"/><path fill="#d48f74" d="M715 541c3 3 3 3 4 8-4.437-.562-4.437-.562-9-2v-2c-2.703.645-2.703.645-6.25 1.813-3.581 1.165-7.094 2.273-10.75 3.187v3h-6c1.711-3.423 5.34-4.304 8.688-5.937l4.261-2.09L704 543l3.207-1.816C710 540 710 540 715 541"/><path fill="#dba791" d="M660 406c2 3 2 3 2.875 7.625L664 418l4 1 2 1c.996 3.883.985 7.274.938 11.313L671 436l2 1q1.014 4.497 2 9l2 2-2 3a2408 2408 0 0 1-10.875-29.25l-1.228-3.318C660 410.458 660 410.458 660 406"/><path fill="#d29781" d="m815 249 4 2c-1.375 2.004-1.375 2.004-4 4.563-5.951 6.147-10.692 12.87-15.531 19.91C797 279 797 279 795 281c-.086-2.665-.08-5.335 0-8l2-2h4q-.491-3.501-1-7l4 1q.53-2.995 1-6c4-2 4-2 6-2l1-3 1-3h2z"/><path fill="#d1957e" d="m739 421 2 1c-.6 7.061-3.752 13.497-6.375 20l-1.5 3.871-1.46 3.629-1.33 3.344L729 455l-3-2c-.5-3.875-.5-3.875 0-8 2.375-2.5 2.375-2.5 5-4h2v-6h3q.063-4 0-8h2l.5-3.062z"/><path fill="#cb7659" d="M843 460c2 4 2 4 .938 7.688L842 471l-5 1-1 2c-2.937 2.688-2.937 2.688-6 5l-2-1a278 278 0 0 1 5-8l2-5 4-1 1-3 1 2h2z"/><path fill="#ca7c5f" d="M553 365h2c1.262 2.751 2.519 5.507 3.684 8.3C560 376 560 376 563 379c2 7.684 2 7.684 2 11h-2c-1.254-2.59-1.254-2.59-2.562-5.937-2.359-5.984-2.359-5.984-3.438-7.063l-2 2-2-5-4 1-1-2h2l1-2h1l.438-3z"/><path fill="#d28c71" d="M523 184c3.981.995 6.896 2.382 10.5 4.313l3.406 1.8C540 192 540 192 544 196l-2.992-.219-7.75-.562c-1.75-.118-3.504-.219-5.258-.219v-2h-2v-2l-2-1 2-1-4-1z"/><path fill="#d6967d" d="M619 568h2l1 4h2l1-2v4h2c-.375-3-.375-3-1-6l2 1 1 4 3 1-1 3h-3v2h2q1.508 3.497 3 7c2.188 2.938 2.188 2.938 4 5-6.003-3.001-9.62-8.005-14-13l-3.187-3.437L618 572z"/><path fill="#d9a994" d="m672 500 2 1-3 5-5 1-2 5c-4.625.688-4.625.688-9 1v2c-3.867.036-7.643-.055-11.5-.25l-3.324-.121c-2.73-.126-5.455-.367-8.176-.629v-2c2.437-.07 4.877-.026 7.313.063 11.666.113 19.022-2.16 28.687-9.063h2v-2z"/><path fill="#d49b83" d="m943 280 2 1-2 3h-3l-2 4-4 4v3l-3 2-2 3v-2c-3 1-3 1-4 3-3.062.75-3.062.75-6 1v-2c1.838-1.667 3.685-3.325 5.578-4.93 2.57-2.197 5.057-4.47 7.547-6.757 3.448-3.104 6.788-6.065 10.875-8.313"/><path fill="#d08467" d="m783 388 1 2 3 1 2 2c-1.141 4.565-2.214 5.445-6 8l-1-1-1 3h-2l-2 5h-1c.397-5.236.888-10.155 3-15h2z"/><path fill="#cd6c4b" d="M938 178c5 0 5 0 8 1l4.25-.125L954 179l-1 3c-6.216 3.108-12.044 5-19 5l-1-3 1-2 5-1z"/><path fill="#d39178" d="M647 461c2.749 2.749 3.55 5.688 4.938 9.313 1.764 4.607 3.506 8.426 6.062 12.687v2l-5-1v-2h-2l-1-4-2-1v3h-2c-.25-3.5-.25-3.5 0-7h2c-.023-2.625-.023-2.625-.375-6l-.336-3.375z"/><path fill="#d5a08b" d="M845 398c2.93 4.394 1.856 6.765 1 12-1.226 5.549-2.6 11.055-4 16.563l-1.117 4.501c-2.041 8.108-2.041 8.108-2.883 10.936h-1c.04-3.043.159-6.085.313-9.125l.238-5.133c.377-3.984.802-7.115 2.449-10.742h2q.569-4.992 1-10l1-1q.554-3.993 1-8"/><path fill="#d29076" d="M528 320c7.954 7.208 14.048 15.055 15 26h-2v2h-3c-.42-2.99-.737-5.993-1-9-.937-4.562-.937-4.562-2-8h-2c-5-8.333-5-8.333-5-11"/><path fill="#c57457" d="m1022 272 1 3h5l-1 3c-2.737 1.368-5.043 1.216-8.102 1.316l-3.671.127-3.852.12-3.875.13q-4.75.159-9.5.307c5.014-3.76 8.125-3.432 14.2-3.594l2.8-.406 1-3c2-1 2-1 6-1"/><path fill="#e3b8a5" d="m390.875 203.953 3.988.129 4.137.168 4.043.121c8.71.313 17.4.887 25.957 2.629v1a168 168 0 0 1-6.062-.437c-8.77-.587-17.527-.783-26.313-.875l-4.235-.09-3.976-.024-3.595-.044L382 207c-2 4-2 4-3.062 8.25L378 219h-1l-1-5-1 5h-1c.724-8.448.724-8.448 2-11h2v-2c4.403-1.922 8.115-2.207 12.875-2.047"/><path fill="#ca6f4d" d="m500 174 2 2 3.125.313L508 177v5l4 1v1q-3.996.53-8 1l-4 1v-6h-4l-1-5c2-1 2-1 5-1"/><path fill="#d8a993" d="M381 173c5.812-.03 11.625-.047 17.438-.062l4.974-.026 4.834-.01 4.428-.016c4.522.12 8.86.368 13.326 1.114l2 3q-9.077-.355-18.152-.745-3.087-.13-6.175-.25c-2.959-.115-5.917-.244-8.876-.372l-5.396-.222C385 175 385 175 381 173"/><path fill="#d7a48f" d="m783 258 1 4a246 246 0 0 1-4 6l-2.062 5.438c-.64 1.505-1.28 3.01-1.938 4.562l-3-1c-3 6.778-3 6.778-3 10a125 125 0 0 1-6 4c3.421-12.02 11.695-22.995 19-33"/><path fill="#ce7e63" d="M760 328c2 2 2 2 4 6l2 1v-2h2c.625 5.879-.977 10.522-3 16-2-4-2-4-2.937-7.562C761 338 761 338 758 335l-4-1 1-3h5z"/><path fill="#dba992" d="M695 471c1 2 1 2 0 6l-4 4c-2.782 4.174-2.563 8.065-3 13l-1 2-3-1a672 672 0 0 0-8 5l-2-1 2.938-2.875c3.863-3.923 6.438-7.607 9.289-12.25A175 175 0 0 1 695 471"/><path fill="#d9a58d" d="M536 375c3 2 3 2 4 6l2 1q.57-2.988 1-6h1c.218 2.037.372 4.08.5 6.125.718 11.311.718 11.311 2.5 14.875h2c1.538 4.957 2 8.749 2 14-3.714-3.714-5.034-9.225-6.937-14.062l-1.342-3.358c-2.436-6.138-4.704-12.289-6.721-18.58"/><path fill="#d99c83" d="M932 163c-4 2-4 2-7 3l3.5.375 3.5.625v2c-6.395 1.303-6.395 1.303-9 0l-4.437 1C914 171 914 171 911 170l-2.937 1C905 172 905 172 901 171c23.715-8 23.715-8 31-8"/><path fill="#d19781" d="m924 188 1 2q5.5.124 11 0c-3.283 2.189-6.601 3.728-10.187 5.375-4.265 1.964-8.458 3.96-12.625 6.125L910 203l-2-1 1-4h2v2h2v-3h4v-2c3-3 3-3 6-4z"/><path fill="#d1937c" d="m954 297 3 1a114 114 0 0 1-9.312 8.375A506 506 0 0 0 935 317v-5l3-1v-2h2l1-5 4 1v-3c5-3 5-3 9-3z"/><path fill="#d59c85" d="M636 430c2.946 4.418 4.349 9.385 6.063 14.375l1.103 3.156c1.552 4.486 2.902 8.808 3.834 13.469-4-2-4-2-7-7l-2 1c-.156-3.515.01-6.996.125-10.512C638 441 638 441 636 437a98 98 0 0 1 0-7"/><path fill="#d7a893" d="M750 321h1c.36 7.098-.664 11.218-5 17-.879 3.531-.879 3.531-1.562 7.5-.765 4.388-1.433 7.49-3.438 11.5h-2l-1 3c1.743-13.588 6.587-26.47 12-39"/><path fill="#e2bcaa" d="m375 219 1.875 2.438C379 224 379 224 381 225c2.12.062 4.242.06 6.363.027l3.877-.037q4.055-.053 8.11-.117l3.888-.033 3.564-.051C410 225 410 225 415 227c3.446.356 6.871.503 10.332.656L428 228v2a244 244 0 0 1-12.187-.812c-14.372-1.228-14.372-1.228-21.106-1.375l-5.582-.125-4.992-.051C380 227 380 227 376.93 224.645 375 222 375 222 375 219"/><path fill="#ce7a5b" d="m377 162 4 1 1 3q2.988.57 6 1l2 2-3 1 2 1v2c-4.812.313-4.812.313-10 0l-3-3c.063-4.25.063-4.25 1-8"/><path fill="#dfad96" d="m909 239 2 1-2 3 3-1 2 2-3 1-1 2-3-1c-6.82 2.728-11.236 6-16.312 11.188-1.07 1.086-2.138 2.173-3.239 3.292L885 263c0-3 0-3 2.965-6.363C901.752 242.93 901.752 242.93 909 239"/><path fill="#c17155" d="M977 224c8.625-.125 8.625-.125 12 1v2q4.712-.732 9.422-1.48c8.795-.999 17.74-.864 26.578-.52v1c-3.123.191-6.249.326-9.375.438-7.09.319-13.71.883-20.625 2.562-9.556 2.111-9.556 2.111-14 1l2-2h5v-2h-9z"/><path fill="#dcaa93" d="m785 523 2 1v4l3 1v2l-3 1-2-1-1 3h-2v2l-3 1c-1.754 2.582-1.754 2.582-3.562 5.813l-1.817 3.207A228 228 0 0 0 770 553h-2c1.526-3.815 2.98-6.763 5.125-10.187C776 538 776 538 776 536l2.25-2.125C781 531 781 531 783.188 526.625z"/><path fill="#d6a590" d="M775 408h1c-.012 2.71-.113 5.419-.25 8.125l-.203 4.57c-.536 4.219-1.462 6.662-3.547 10.305-4 10-4 10-4 13l-3 1c1.655-7.965 3.827-15.746 6.063-23.562l1.103-3.924 1.057-3.705.96-3.382z"/><path fill="#d1957d" d="M738 530h2v3l5 1c-3.422 5.703-7.489 10.156-12 15l-2.937 3.188L728 554l-2-1 1-4h2v-2h2v-2l4-2v-2h3v-4h2l-1-3.5z"/><path fill="#ddb6a2" d="M823 404h1c.264 5.193-.032 8.08-2 13a171 171 0 0 0-1.473 5.895l-.787 3.396-.803 3.522-.814 3.486c-1.114 4.848-2.103 9.508-2.62 14.463L815 451l-3 1c.308-5.997 1.802-11.721 3.25-17.531l1.344-5.39L818 423.5l1.406-5.672 1.344-5.36 1.234-4.923z"/><path fill="#d08b71" d="M768 287h4v2h2v2c-2.437 2.313-2.437 2.313-5 4l-1-3-1.875 2.938C764 298 764 298 762 299l-1.5 3.563L759 306h-2c2.196-8.05 5.144-13.144 11-19"/><path fill="#dcac96" d="M1002 206v1c-4.9 1.073-9.821 2.012-14.746 2.965L983 211l-1 2c-2.659.392-5.327.72-8 1l-4 1a90 90 0 0 1-6-1c4.192-2.795 8.412-3.425 13.313-4.562l5.613-1.317c6.547-1.447 12.35-2.353 19.074-2.121"/><path fill="#ddac99" d="m395.375 151.625 3.965.043c3.221.05 6.441.183 9.66.332v1c-5.499.139-10.993.248-16.494.254l-3.526.074-3.253.028L383 154l-3 5h-3l.5 4.5.5 4.5h-3c-1.857-3.714-.787-7.066 0-11 5.325-6.827 12.48-5.605 20.375-5.375"/><path fill="#c8785c" d="m797 394 2 1c.188 4.563.188 4.563 0 9h-1c-.293 3.383-.45 6.765-.621 10.156L797 417h-2a424 424 0 0 0-2 10h-1c0-5.27.434-7.302 2-12 .75-4.875.75-4.875 1-9h-2c.75-4.437.75-4.437 2-9l2-1z"/><path fill="#d9a892" d="m881 265 1 2c-2.007 3.943-3.86 6.86-7 10h-2l-.5 3.563L872 284c-2-1-2-1-3-2v5c-2 3-2 3-6 4 1.525-3.812 3.003-7.423 5-11h2l1-4h2l2-4c3.063-3.875 3.063-3.875 6-7"/><path fill="#d38c74" d="M577 433h2l2 5 2-4c1.032 2.767 2.05 5.539 3.063 8.313l1.722 4.675C589 451 589 451 588 454h-2l-1.437-4.5L583 445h-3c-2.578-2.578-2.484-4.459-3-8l-1-2z"/><path fill="#d09479" d="M479 241c3.125.688 3.125.688 6 2v2l5-1 2 1v2l5 2v4c-4.754-1.005-9.137-3.342-13.5-5.437l-3.844-1.81L477 244z"/><path fill="#dda790" d="M848 223v3l-2 2-1 5h-2l-.875 2.875C841 239 841 239 837 241v2l-4 1c1.787-3.574 3.757-6.705 6-10l2-3-2-1c2.947-2.4 5.95-4.733 9-7"/><path fill="#d9ab96" d="M573 475c2 2 2 2 3 7h2l1 8h2c2 5 2 5 2 10h2v4h2c-.375 3-.375 3-1 6-2.744-3.66-3.975-6.181-5.48-10.41l-1.338-3.748-1.37-3.904-1.404-3.917C573 478.4 573 478.4 573 475"/><path fill="#d3a28e" d="M691 449c1 3 1 3-.547 6.39l-2.203 3.86-2.172 3.89L684 466c-3-1-3-1-4.422-3.652l-1.328-3.286-1.36-3.277C676 453 676 453 677 451l4 2c.4 2.323.74 4.657 1 7h2l.813-2.687c1.373-3.83 3.017-5.794 6.187-8.313"/><path fill="#d8a591" d="M624 394c3.606 5.41 5.14 11.865 7.188 18l1.443 4.219 1.35 4.031c.41 1.222.822 2.444 1.246 3.703C636 427 636 427 635 430c-4-5.625-4-5.625-4-9h-2a508 508 0 0 1-2-11h-1q-.508-4-1-8l-1-1q-.062-3.5 0-7"/><path fill="#c8856b" d="m779 536 1 2c-1.67 3.589-3.557 7.035-5.434 10.52C773 552 773 552 773 557a125 125 0 0 1-8 2l-1 3h-3c1.76-3.52 3.36-6.12 6-9h3l1-4a183 183 0 0 1 4.063-6.75l2.222-3.547z"/><path fill="#d9ac98" d="M857 359c1.124 4.495.634 6.274-.582 10.672l-1.076 3.953-1.154 4.125q-1.105 4.023-2.208 8.047l-1.049 3.795A406 406 0 0 0 848 401c-2.11-8.441.405-16.904 3-25h2v-7h2v-8h2z"/><path fill="#d39e87" d="m579 341 1 3 4 2c2 5 2 5 3 8.563 1 3.437 1 3.437 3 7.437v6c-3.535-3.535-5.133-8.432-7.187-12.937l-1.444-3.077c-3.488-7.628-3.488-7.628-2.369-10.986"/><path fill="#d3866b" d="m829 282 2 1c.25 3.563.25 3.563 0 7h-2l.125 4.313c-.144 6.574-1.65 10.653-4.125 16.687-1.213-3.64-.74-5.793-.125-9.562l.555-3.504C826 295 826 295 827 293l-3-1 2-1v-5h2z"/><path fill="#d49f89" d="M509 261c10.491 1.464 10.491 1.464 13.313 4.438C524 268 524 268 524 270h3v3l3 1 1 4c-4.816-3.042-9.17-6.516-13.586-10.098-2.704-2.13-5.54-4.01-8.414-5.902z"/><path fill="#c07156" d="M622 530c10.74.74 10.74.74 12 2 10.118-.706 10.118-.706 14-2a214 214 0 0 1 7.688-.062l4.136.027L663 530c-4.554 4.554-9.871 3.793-16 4l-4.098.16c-7.567.164-13.852-.013-20.902-3.16z"/><path fill="#d59880" d="m672 521 5 1v2l2 1c-12.485 7.852-12.485 7.852-19 8l2-4 4 1 1-5h4z"/><path fill="#ce714e" d="M624 564h6l2 4h2c-.625 3.063-.625 3.063-2 6l-4-1-1-3v4h-2l-1-2h-2l-1-4 2-1z"/><path fill="#d28f76" d="M838 489h2l1 2c3.063-.875 3.063-.875 6-2-1.778 3.556-3.673 6.484-6 9.688l-2.125 2.949C837 504 837 504 835 505v-6l-1-2h4l-1-5z"/><path fill="#cc876d" d="m691 433 1 3h3c1.344 3.936 1.03 5.91-.312 9.875L693 449h-2l-1 3-4 1v-3l4-1a169 169 0 0 0-2-6l3-1c1-4 1-4 0-9"/><path fill="#dcae9b" d="M434 262c12.978.695 25.219 5.846 37 11-3.751 1.25-6.17.851-10 0l-1-3-3.75-.375c-8.001-.953-15.075-4.038-22.25-7.625"/><path fill="#d49d86" d="m901 173-4 1v3l-3 .438-3 .562v4c-3.664.134-7.335.117-11 0-2.01.272-4.018.572-6 1 4.584-3.438 9.32-5.253 14.625-7.25l2.93-1.14c7.196-2.734 7.196-2.734 9.445-1.61"/><path fill="#d8a590" d="M687 554c-1.686 3.372-4.552 3.805-8 5-8.066.299-16.285-.589-24-3 5.828-1.457 11.537-.964 17.52-.84 5.056-.18 9.735-2.742 14.48-1.16"/><path fill="#deb19c" d="M764 445c1 4 1 4 0 8l1 2-1 3h-2v2h-2l.313 2.813c-.462 6.18-3.794 10.223-7.313 15.187-1.471-4.413.687-6.89 2.598-10.887 1.816-4.032 3.14-8.156 4.488-12.363 1.11-3.341 2.458-6.546 3.914-9.75"/><path fill="#d59d85" d="M522 243c5.159 2.063 8.12 4.346 12.313 7.938l3.8 3.214L541 257v3l-5-3-5 1 1-5-2-1v-2l-3.437-.812L523 248z"/><path fill="#d9a48e" d="M585 228c4.542 3.815 8.953 7.657 13 12v2h2c2.688 2.875 2.688 2.875 5 6l-1 2a149 149 0 0 1-5-4l-3-1v-2l-5 1v-3h3c-3-5-3-5-8-7-.812-3.125-.812-3.125-1-6"/><path fill="#d7a28a" d="M934 225v2l-5 2-3 5c-4.125 2.25-4.125 2.25-8 4l-1 1h-6c3.77-3.77 7.064-6.008 11.625-8.687l4.04-2.387C931.731 225 931.731 225 934 225"/><path fill="#d69b84" d="M779 569h4c-1.877 3.755-3.861 6.512-6.5 9.75l-2.406 2.984L772 584h-2l-2 4-2-1 2-2v-5l-2-1 4-1 1-4 1 3h3v-2h2v-2h2z"/><path fill="#daa58d" d="M716 424c1.738 5.213.862 10.637 0 16-1.875 3.75-1.875 3.75-4 6l-3 1-2 2c.815-4.074 1.753-7.062 3.375-10.812 2-4.69 3.875-9.399 5.625-14.188m1 13 1 2-2-1z"/><path fill="#e0b8a4" d="M590 368c3 4 3 4 3 6l3 1-1 4 3 1c3.393 8.624 5.564 17.855 7 27-3.969-3.969-5.058-10.665-6.814-15.955-1.75-5.175-3.634-10.16-5.948-15.111C590 371 590 371 590 368"/><path fill="#d49a84" d="M833 231h6l-8 8h-2l-2 4a136 136 0 0 1-6 5l2-4 .875-3.625L825 237l4-2v-2h4z"/><path fill="#d4a08b" d="M710 563h5c-3.936 3.936-8.534 5.897-13.5 8.25l-2.918 1.43c-7.216 3.442-7.216 3.442-10.582 2.32l1-2h5l-1-3c2-1 2-1 8-1v-2h6v-2h3z"/><path fill="#d9a38c" d="M542 259c5.12 3.072 8.657 6.357 12.875 10.563l4.117 4.066L562 277l-1 2a722 722 0 0 1-8-8l-4-2-1-3-2 1-2-1v-2l-3 .563-3 .437v-3l4-1z"/><path fill="#d08165" d="m897 361 4 4 2-2h2c-1.05 4.198-2.348 6.464-5 10v-2h-3l-1 2v-3l-2-1c-.875-3.5-.875-3.5-1-7z"/><path fill="#d29883" d="M613 296h2v2l2 1v2h2l1 4 3 3c.188 4.688.188 4.688 0 9-2.701-3.601-4.98-7.181-7.25-11.062l-2.203-3.723C612 299 612 299 613 296"/><path fill="#d9ac96" d="m964 215-4.5.875L955 217v2h-2v2c-4.557 1.39-8.21 2-13 2v2h-6v-2a278 278 0 0 1 12.75-4.687l3.656-1.3 3.516-1.212 3.237-1.12C960 214 960 214 964 215"/><path fill="#be775c" d="m1015.313 205.625 3.343-.041c7.973.045 7.973.045 11.344 3.416l-5-1c-2.353-.092-4.708-.13-7.062-.125l-3.66-.008C1011 208 1011 208 1007 209c-3.58.253-7.165.455-10.75.625l-5.797.29c-1.47.027-2.939.056-4.453.085v-1c9.634-2.771 19.355-3.317 29.313-3.375"/><path fill="#d07f60" d="M927 238c2 4 2 4 3 7l-2 2 .125 3.938L928 255l-4 3-2-1 2-4h3v-4l-5-2-1-2c2-5 2-5 6-7"/><path fill="#d29985" d="m899 205 4 2c-3.28 2.545-6.509 4.778-10 7q-2.566 1.714-5.125 3.438c-1.279.845-2.558 1.69-3.875 2.562l1-5h2v-2h2v-2h2v-2l4-.437 4-.563z"/><path fill="#d4a28e" d="M881 417c1.302 3.907.381 5.049-1.273 8.762l-1.5 3.388-1.602 3.538-1.578 3.572A434 434 0 0 1 871 445h-1c0-6 0-6 1-8h2l-.187-2.875c.31-6.816 3.407-12.345 8.187-17.125"/><path fill="#dcae98" d="m876 371 1 4-3 5a192 192 0 0 0-2 7l-1 2h2l-1 4h-2l-.937 2.938L868 399l-3 1c2.016-10.08 6.11-19.974 11-29"/><path fill="#d8aa96" d="M745 605c-22.233 10-22.233 10-32 10l1-3q5-.062 10 0v-2c2-1 2-1 8-1v-2h5v-2c5-1 5-1 8 0"/><path fill="#daac97" d="M999 259c-4 2-4 2-6 2v2c-8.119 3.14-16.353 4.533-25 5 4.156-2.77 8.522-4.025 13.25-5.625l5.578-1.914c4.428-1.251 7.635-1.8 12.172-1.461"/><path fill="#e3bdab" d="M413 153c10.45-.227 20.756 1.674 31 3.5l3.853.684c3.057.563 6.103 1.183 9.147 1.816v1c-5.765.18-11.304-.085-17-1l-1-1-3.312.063C432 158 432 158 428 156c-2.574-.419-5.16-.767-7.75-1.062-2.42-.279-4.84-.581-7.25-.938z"/></svg>