<svg xmlns="http://www.w3.org/2000/svg" width="1408" height="768"><path fill="#cf6e4c" d="M899.125 172.063 902 174v2l4 2a295 295 0 0 1 6.875 5.875c3.44 3.024 6.737 5.871 10.57 8.383L926 194v2l4 2a988 988 0 0 1 7.027 6.371c4.353 3.85 8.941 7.376 13.528 10.941 7.09 5.532 13.982 11.286 20.82 17.125 7.268 6.173 14.684 12.27 22.625 17.563v2l4 2c10.299 13.108 13.521 24.208 12 41-3.735 20.082-22.677 31.73-38 43a5467 5467 0 0 0-8.75 6.563C952 353 952 353 950 353v2c-1.631 1.382-3.335 2.679-5.062 3.938-1.096.806-2.192 1.613-3.32 2.445q-3.639 2.633-7.298 5.234c-16.952 12.16-28.45 23.635-37.23 42.551L895 412c-5.735.515-11.198-3.363-16.187-5.937l-2.91-1.479c-8.082-4.12-16.116-8.336-24.13-12.588A381 381 0 0 0 844 388c0-5.645 2.738-10.928 5-16h2l.719-2.453c5.975-16.54 23.341-30.353 37.054-40.399 4.258-3.17 8.373-6.47 12.477-9.836a425 425 0 0 1 17.25-13.433c2.097-1.576 4.121-3.249 6.125-4.942C927 299 927 299 929 299v-2c3.567-2.653 7.25-5.106 10.938-7.59L943 287v-3c-1.606-1.406-3.293-2.72-5-4-3.56-3.07-7.095-6.159-10.54-9.36-4.634-4.3-9.29-8.345-14.398-12.077-5.384-3.945-10.224-8.287-15.097-12.84C886.633 235.317 886.633 235.317 880 232a91 91 0 0 0-6 10l-2.694 5.1a1575 1575 0 0 0-2.72 5.384l-1.502 2.96q-2.359 4.65-4.709 9.306c-7.016 13.889-14.155 27.677-21.685 41.295-3.597 6.625-6.934 13.361-10.276 20.12-3.12 6.248-6.38 12.417-9.648 18.589A2762 2762 0 0 0 811 363.5a2780 2780 0 0 1-12.25 23.438c-4.207 7.967-8.235 16.015-12.246 24.082-4.797 9.542-9.83 18.96-14.852 28.386-3.5 6.58-6.964 13.168-10.277 19.844-7.364 14.83-15.057 29.5-22.73 44.172l-1.567 2.995q-1.508 2.88-3.02 5.76a481 481 0 0 0-7.808 15.635C717.712 544.926 707.87 561.706 694 575l-2.574 2.742c-12.352 13.07-30.447 23.004-48.656 23.559q-3.48.021-6.957.011l-3.463.05c-19.1.01-36.443-7.114-50.35-20.362-9-9.176-9-9.176-9-12h-2c-8.37-10.04-14.608-21.66-21-33l-1.861-3.214c-4.73-8.18-9.119-16.484-13.389-24.911-18.31-35.697-40.603-70.556-70.187-98l-2.747-2.57C459 405 459 405 455.965 403.508c-3.372-1.715-5.348-3.797-7.965-6.508-12.745-9.851-27.099-17.236-41.574-24.176-3.16-1.683-5.727-3.487-8.426-5.824 30.715.668 56.749 11.304 80.262 30.895a240 240 0 0 0 9.238 7.293L491 408v2h2a207 207 0 0 1 4 5l2.25 2.188c3.03 3.099 5.703 6.413 8.383 9.816a604 604 0 0 0 5.234 6.523c10.899 13.436 20.432 27.593 29.5 42.317C551.554 490.754 561.4 504.863 573 518l2.406 2.813C580.88 527.11 586.455 532.227 594 536l2 3c2.863 1.57 2.863 1.57 6.313 3.125l3.425 1.57c9.33 3.732 20.277 3.528 29.762.617 6.665-3.425 11.959-6.306 16.5-12.312l3.188-2.437c8.508-7.951 13.543-18.665 18.582-29.024 2.66-5.412 5.434-10.758 8.23-16.101l1.564-2.994q4.365-8.336 8.811-16.632a534 534 0 0 0 7.926-15.445c2.2-4.36 4.481-8.674 6.761-12.992 3.391-6.422 6.725-12.862 9.938-19.375a940 940 0 0 1 11.938-23.375C742 368.88 742 368.88 742 366h2l2-5c7.948-16.589 16.724-32.8 25.313-49.062a872 872 0 0 0 13.378-26.43c4.104-8.406 4.104-8.406 6.309-9.508l.82-2.477c1.538-4.592 3.769-8.63 6.055-12.898 4.89-9.153 4.89-9.153 7.148-13.695 2.122-4.219 4.405-8.318 6.727-12.43 3.25-5.807 6.345-11.638 9.25-17.625 9.3-18.864 22.127-41.392 43-48.875 12.313-2.463 23.829-1.586 35.125 4.063"/><path fill="#cf6e4c" d="m531.375 166.813 4.46-.043c11.83.654 21.966 8.14 29.868 16.52 3.917 4.622 7.15 9.54 10.297 14.71l2.402 3.945c8.05 13.47 15.267 27.323 22.243 41.371 9.297 18.487 18.96 36.8 28.687 55.063 3.528 6.63 7.017 13.269 10.356 19.996 7.645 15.397 15.654 30.615 23.687 45.813 3.618 6.852 7.109 13.758 10.555 20.699 4.963 9.861 10.136 19.62 15.445 29.3L692 419l2.438 4.375C696 427 696 427 695 432c-2.43 5.629-4.845 10.741-8 16h-4c-4.887-7.519-8.76-15.473-12.727-23.504-6.204-12.27-13.01-24.238-19.704-36.246-7.766-13.932-15.35-27.953-22.85-42.03-2.337-4.377-4.69-8.745-7.045-13.113q-2.32-4.31-4.631-8.627c-10.926-20.308-22.711-40.255-37.773-57.808-2.027-2.386-3.939-4.868-5.832-7.36C564.006 248.736 553.632 237.989 540 235c-8-.848-13.87-.044-21 4a221 221 0 0 0-7 6h-2v2c-1.679 1.376-3.422 2.674-5.187 3.938-8.782 6.443-17.01 13.483-25.063 20.812C467.345 283 467.345 283 464 283c2.407 6.016 5.827 8.183 10.938 11.75 6.3 4.514 12.469 9.096 18.421 14.063 6.921 5.733 14.063 11.203 21.184 16.683 16.86 13 30.324 25.234 41.457 43.504l1.828 2.941C564 381.993 564 381.993 564 388c-3.294 1.939-6.483 3.585-9.937 5.188q-3.035 1.458-6.067 2.921l-3.067 1.467c-5.481 2.664-10.832 5.572-16.202 8.451L525 408l-4.227 2.254C517 412 517 412 513 412a115 115 0 0 1-5.375-9.562c-3.293-6.461-6.78-12-11.625-17.438v-2h-2v-2l-5-2a153 153 0 0 1-6.187-5.312c-6.756-5.91-13.84-11.129-21.153-16.325-7.72-5.572-15.17-11.488-22.66-17.363a2878 2878 0 0 0-6.75-5.187l-3.086-2.38a1220 1220 0 0 0-6.828-5.21C410.89 318.44 401.599 309.394 398 295c-.77-15.06.636-26.846 10-39 3.938-3.75 3.938-3.75 8-7l3.5-3.187c5.445-4.613 11.142-8.819 16.89-13.043C440 230 440 230 444 226h2v-2c1.946-1.67 3.961-3.258 6-4.812 20.362-15.73 20.362-15.73 29.625-24.313 5.13-4.752 10.549-9.056 16.082-13.328a266 266 0 0 0 5.867-4.656c8.656-7.07 16.746-10.03 27.801-10.078M823 425c4.698.892 8.712 3.339 12.875 5.625A454 454 0 0 0 852.063 439l3.953 2.016a170 170 0 0 0 8.28 3.843c3.746 1.764 6.76 3.227 9.704 6.141-1.025 5.307-2.168 7.575-5 12q-2.135 3.84-4.25 7.688l-2.355 4.105c-5.285 9.284-10.206 18.766-14.957 28.332-4.077 8.202-8.25 16.354-12.438 24.5l-2.014 3.934a478 478 0 0 1-12.243 22.333c-1.673 2.983-3.14 5.997-4.556 9.108-3.666 7.472-8.83 13.678-14.187 20l-3.687 4.375c-12.791 10.752-27.991 15.497-44.536 14.414-13.698-1.913-27.664-8.265-36.402-19.164L714 578l-1-1c0-6.016 1.593-6.8 5.516-10.965 8.68-10.604 14.482-23.779 20.484-36.035 1.56-3.118 3.158-6.032 5-9h3c1.684 2.45 1.684 2.45 3.438 5.688 1.775 3.253 3.462 6.188 5.785 9.082C758 538 758 538 758 540c4-1 4-1 5.86-3.598l1.89-3.465 2.113-3.855c2.773-5.297 5.43-10.647 8.07-16.012 2.08-4.095 4.292-8.081 6.567-12.07 3.658-6.424 7.02-12.941 10.29-19.57 3.059-6.13 6.236-12.197 9.416-18.265 2.8-5.344 5.586-10.693 8.349-16.056l1.774-3.437q1.702-3.298 3.394-6.6c2.21-4.275 4.383-8.213 7.277-12.072"/><path fill="#cf704e" d="m531.375 166.813 4.46-.043c11.83.654 21.966 8.14 29.868 16.52 3.917 4.622 7.15 9.54 10.297 14.71l2.402 3.945c8.05 13.47 15.267 27.323 22.243 41.371 9.297 18.487 18.96 36.8 28.687 55.063 3.528 6.63 7.017 13.269 10.356 19.996 7.645 15.397 15.654 30.615 23.687 45.813 3.618 6.852 7.109 13.758 10.555 20.699 4.963 9.861 10.136 19.62 15.445 29.3L692 419l2.438 4.375C696 427 696 427 695 432c-2.43 5.629-4.845 10.741-8 16h-4c-4.887-7.519-8.76-15.473-12.727-23.504-6.204-12.27-13.01-24.238-19.704-36.246-7.766-13.932-15.35-27.953-22.85-42.03-2.337-4.377-4.69-8.745-7.045-13.113q-2.32-4.31-4.631-8.627c-10.926-20.308-22.711-40.255-37.773-57.808-2.027-2.386-3.939-4.868-5.832-7.36-6.851-8.594-14.443-15.051-23.438-21.312l-4-3c7.265-.616 7.265-.616 10.688 2.25L558 240l2.625 2c2.375 2 2.375 2 5.375 7 4 3 4 3 6 3l2 5 3 1 .938 2.938C579 264 579 264 583 266v2c5 2 5 2 7 2h3l-1 2 2.75-2c3.25-2 3.25-2 7.25-2l-1-3 5-1c.063-3.125.063-3.125-1-6l-4 1a169 169 0 0 1-1-10l-2-3v-4h-2l-1-3-4-1v-8c-1.875-2.75-1.875-2.75-4-5l-2-4-5 2c-2.402-3.603-3.235-6.758-4-11h3c-.687-2.937-.687-2.937-2-6l-2-1v-2l-5 1v-2h3c-1.125-3.437-1.125-3.437-3-7l-3-1a569 569 0 0 1-3-9c-3.082-3.082-4.85-3.985-9-5v2l-6-1v2l-5-1c-1.187-4.562-1.187-4.562-2-9h-2l-1 2c-6.395-1.395-6.395-1.395-9-4-4.937-.319-7.52-.24-12 2l-5 1c-4 4-4 4-4.062 8.313L509 186l-3-1-2-4-2 3 1 2a162 162 0 0 1-9 3c-4.048 1.35-5.452 3.648-8 7l-1 3 5-2c-2.842 4.263-6.217 4.565-11 6h5v3l-2 1 2 2v3l-4 1-1-4h-2l-2 5h-2l-2 2-5-2-4 1-1 5h-2v2l-3.937 1.375L451 225l-1 4h-3l-1 5-5 1-4 3c-3.866 2.138-6.583 3.117-11 4a127 127 0 0 1 10.563-9.687l2.816-2.325C442 228 442 228 446 226v-2c1.946-1.67 3.961-3.258 6-4.812 20.362-15.73 20.362-15.73 29.625-24.313 5.13-4.752 10.549-9.056 16.082-13.328a266 266 0 0 0 5.867-4.656c8.656-7.07 16.746-10.03 27.801-10.078"/><path fill="#ce714e" d="M398 367c30.715.668 56.749 11.304 80.262 30.895a240 240 0 0 0 9.238 7.293L491 408v2h2a207 207 0 0 1 4 5l2.25 2.188c3.03 3.099 5.703 6.413 8.383 9.816a604 604 0 0 0 5.234 6.523c10.899 13.436 20.432 27.593 29.5 42.317C551.554 490.754 561.4 504.863 573 518l2.406 2.813C580.88 527.11 586.455 532.227 594 536l2 4a475 475 0 0 1-7-3.562C586 535 586 535 582 534v-2h-3v3l-5 2 1 3c-2 4-2 4-4 5l-1 3h-4v-2l-2-1c-.644 6.121.295 9.173 4 14 1 3 1 3 1 5l4 1 1 2h4l2 4 3 3v5c2 2.813 2 2.813 4 5-4.178-2.089-6.155-4.061-9.25-7.5l-2.703-2.969C573 571 573 571 573 569h-2c-8.37-10.04-14.608-21.66-21-33l-1.861-3.214c-4.73-8.18-9.119-16.484-13.389-24.911-18.31-35.697-40.603-70.556-70.187-98l-2.747-2.57C459 405 459 405 455.965 403.508c-3.372-1.715-5.348-3.797-7.965-6.508-12.745-9.851-27.099-17.236-41.574-24.176-3.16-1.683-5.727-3.487-8.426-5.824"/><path fill="#cf6f4e" d="M398 367c30.715.668 56.749 11.304 80.262 30.895a240 240 0 0 0 9.238 7.293L491 408v2h2a207 207 0 0 1 4 5l2.25 2.188c3.024 3.092 5.69 6.399 8.367 9.792 3.813 4.832 7.69 9.614 11.551 14.407 2.727 3.479 5.41 6.914 7.832 10.613l-1 2c-4.146-2.69-6.335-5.919-9-10a281 281 0 0 0-5-5l-1-2-5 1-5-1-2 1v5l3 3c.688 3.688.688 3.688 1 7-3.323-3.012-5.933-6.226-8.5-9.875-6.67-9.351-14.305-18.08-22.5-26.125l-3.812-3.937c-9.422-9.141-9.422-9.141-15.188-11.063a643 643 0 0 1-5-5c-12.745-9.851-27.099-17.236-41.574-24.176-3.16-1.683-5.727-3.487-8.426-5.824"/><path fill="#cf795a" d="m531.375 166.813 4.46-.043c11.83.654 21.966 8.14 29.868 16.52 3.917 4.622 7.15 9.54 10.297 14.71l2.402 3.945c8.05 13.47 15.267 27.323 22.243 41.371 9.38 18.653 19.098 37.157 28.968 55.555.83 1.548 1.658 3.096 2.512 4.692l2.258 4.19C636 311 636 311 636 313h-2v-2h-3v-4h-2v-4l-3-1a448 448 0 0 1-2-9h-2l1-4h-3l-1-2-5-2v-5l-2-1-1-4-2 4-1-2c-3.062.25-3.062.25-6 1v2h2l-1 3h-2c-.25 5-.25 5 0 10h2v6h2l1 5h2l2 3h1q.562 3.993 1 8c-3.7-3.7-5.859-7.666-8.5-12.187-7.541-12.736-15.577-24.891-25.23-36.141-2.027-2.386-3.939-4.868-5.832-7.36-6.851-8.594-14.443-15.051-23.438-21.312l-4-3c7.265-.616 7.265-.616 10.688 2.25L558 240l2.625 2c2.375 2 2.375 2 5.375 7 4 3 4 3 6 3l2 5 3 1 .938 2.938C579 264 579 264 583 266v2c5 2 5 2 7 2h3l-1 2 2.75-2c3.25-2 3.25-2 7.25-2l-1-3 5-1c.063-3.125.063-3.125-1-6l-4 1a169 169 0 0 1-1-10l-2-3v-4h-2l-1-3-4-1v-8c-1.875-2.75-1.875-2.75-4-5l-2-4-5 2c-2.402-3.603-3.235-6.758-4-11h3c-.687-2.937-.687-2.937-2-6l-2-1v-2l-5 1v-2h3c-1.125-3.437-1.125-3.437-3-7l-3-1a569 569 0 0 1-3-9c-3.082-3.082-4.85-3.985-9-5v2l-6-1v2l-5-1c-1.187-4.562-1.187-4.562-2-9h-2l-1 2c-6.395-1.395-6.395-1.395-9-4-4.937-.319-7.52-.24-12 2l-5 1c-4 4-4 4-4.062 8.313L509 186l-3-1-2-4-2 3 1 2a162 162 0 0 1-9 3c-4.048 1.35-5.452 3.648-8 7l-1 3 5-2c-2.842 4.263-6.217 4.565-11 6h5v3l-2 1 2 2v3l-4 1-1-4h-2l-2 5h-2l-2 2-5-2-4 1-1 5h-2v2l-3.937 1.375L451 225l-1 4h-3l-1 5-5 1-4 3c-3.866 2.138-6.583 3.117-11 4a127 127 0 0 1 10.563-9.687l2.816-2.325C442 228 442 228 446 226v-2c1.946-1.67 3.961-3.258 6-4.812 20.362-15.73 20.362-15.73 29.625-24.313 5.13-4.752 10.549-9.056 16.082-13.328a266 266 0 0 0 5.867-4.656c8.656-7.07 16.746-10.03 27.801-10.078"/><path fill="#cf6f4d" d="M610 274c3.477 1.739 3.813 5.492 5 9v2l5 2v2h3l-1 4h2q1.519 4.494 3 9l2 1v4h2v4h3v2h2a221 221 0 0 1 2 7h1l1.375 4.813C642 330 642 330 645 333q.541 4.495 1 9h2v2l-4 1c-3.185 1.495-6.07 3.047-9 5h-3l-2-2v-4h-2v-3l-2-1-.875-3.5L624 333l-4-1c-5.02-7.425-8.475-15.157-10-24l-2-1v-3h-2l-1-5h-2v-6h-2c-.79-3.806-1.241-6.277 0-10l3-3h-2v-2a772 772 0 0 1 7-2z"/><path fill="#cf7453" d="M986 245c2.697 1.618 5.383 3.256 8 5v2l4 2c10.299 13.108 13.521 24.208 12 41-3.735 20.082-22.677 31.73-38 43a5467 5467 0 0 0-8.75 6.563C952 353 952 353 950 353v2l-4 3-2-1c.75-3.062.75-3.062 2-6h2v-5c3.563.375 3.563.375 7 1l-1-3h2l1-2 4 1-3-6v2h-2c.625-4.437.625-4.437 2-9l4-1v-2l3-1 1-2h2v2l3-1v3l-2 2h4v4h2v-5l4 1v-6h2l1-4 1-4h2l-1-5 4-1v-2l5-2 1-5-2-1h2l1-4c1 1 1 1 1 6h2v2h5v-5l-2-1c-1-3.375-1-3.375-1-7 2.717-1.872 4.658-3 8-3 .047-2.625.047-2.625-.25-6l-.266-3.375L1007 276h-2v-4c-4 1-4 1-7 4h-4v2h-2v-5h-2v-3h-4v-6h2l1-4 2-4-2-5-1-3-2-1z"/><path fill="#d0714f" d="M540 474c3.366 3.366 5.227 5.802 7.563 9.813C558.687 502.236 574.273 526.137 594 536l2 4a475 475 0 0 1-7-3.562C586 535 586 535 582 534v-2h-3v3l-5 2 1 3c-2 4-2 4-4 5l-1 3h-4v-2l-2-1c-.644 6.121.295 9.173 4 14 1 3 1 3 1 5l4 1 1 2h4l2 4 3 3v5c2 2.813 2 2.813 4 5-4.178-2.089-6.155-4.061-9.25-7.5l-2.703-2.969C573 571 573 571 573 569h-2c-7.295-8.751-12.903-18.73-18.504-28.605a348 348 0 0 0-6.183-10.457C544 526 544 526 544 524l4 1 2 5h3l1-2v2h2c.688-4.437.688-4.437 1-9l-1-1-1 3-1-3 2-2c4.687.302 7.771.886 12 3-2.086-5.679-4.81-9.636-9-14l-3-1-1 3-5 1c-.187-3.875-.187-3.875 0-8l-2-1-1-3 2-3-2-3v-6l-5-1c-1.539-3.884-2-6.816-2-11"/><path fill="#d07b5b" d="m742 493 1 2a306 306 0 0 1-5.937 11.625l-5.462 10.31c-1.894 3.627-3.659 7.307-5.413 11.002C717.67 545.008 707.834 561.74 694 575l-2.574 2.742C681.843 587.882 670.223 594.52 657 599l-4-1c4.559-3.616 8.364-6.45 14-8v-1h6v-3h6v-5h3v2l2-1 1-5 4-1v-2l-2-1 4-.875 4-1.125v-2l3-1 2-5h3c-.125-4.437-.125-4.437-1-9l-3-1c2.043-3.677 4.013-7.013 7-10v-5a237 237 0 0 1 11-3l1-3 2 1q.51-2.999 1-6h2c2-4.437 2-4.437 3-9-2.875-.625-2.875-.625-6-1-.231-5.66 2.188-10.203 5-15l3-1v-2c5 2 5 2 7 3v-2l2-1v-2h2l1-3z"/><path fill="#cf6e4c" d="M538 486h2v2l4-2h3c1.125 3.313 1.125 3.313 2 7l1 3h-2c1 5 1 5 2 6l-.25 4.188L550 510c5-2 5-2 6-4l-2-1c4.75 0 6.673 2.79 10 6 4 6.051 4 6.051 4 10-4.087-.32-7.977-1.195-12-2v1l2 1c0 6 0 6-2 9-2.937 1.063-2.937 1.063-6 1-1.687-2.875-1.687-2.875-3-6l-3-1a256 256 0 0 1 0-8h-2l.625-4.937L543 506l-4-1v-2l-4-2c-2.831-3.775-4-5.388-4-10l5-1z"/><path fill="#d0714f" d="M636 314c3.168 3.168 4.45 5.666 6.375 9.688 4.168 8.538 8.69 16.853 13.32 25.149 2.458 4.465 4.298 8.13 5.305 13.163l-2-1v-2h-2l-1 3-1-4c-5 2-5 2-9 4l-3 1 2 3v8l2-1 .938 3.375L649 380l3 1c2 5 2 5 3 9.25l1 3.75 2 1v5c-3.34-3.884-5.657-7.89-8-12.437a1058 1058 0 0 0-10.875-20.313A6945 6945 0 0 1 633 356l-1.625-2.98c-1.573-2.897-3.132-5.8-4.687-8.707l-2.801-5.2C622 335 622 335 623 332l2 1 .438 3.5.562 3.5 3 1-1 3h2l1 4 2-1v2c4-1 4-1 8-4l5-2 2 1v-2h-2l-.937-4.312C644 333 644 333 641 330a379 379 0 0 1-3-9h-1a202 202 0 0 1-1-7"/><path fill="#cd795a" d="m424 242 2 1c-1.864 1.868-3.822 3.642-5.812 5.375-6.08 5.304-6.08 5.304-7.188 8.625h-2l-1 5-2 2h-3a392 392 0 0 0-2.187 11.75l-.606 3.484L402 282l2 1h-2v3h2v3l3 3v4l-2 1c.074 5.012.184 8.017 3.438 11.938L411 311l2 2c5-2 5-2 6-4l5 2v2l4-1 1 2-1 2-3-1c-.767 3.067-1 5.84-1 9v2l5 2a224 224 0 0 1 10.688 8.188C442 338 442 338 447 341c3.676 3.318 6.37 6.812 9 11-4.461-2.23-7.99-4.948-11.937-8l-4.598-3.547L435 337l-6.875-5.25A4108 4108 0 0 1 422 327l-2.965-2.266C408.745 316.66 401.246 307.986 398 295c-.77-15.06.636-26.846 10-39 3.938-3.75 3.938-3.75 8-7l4.375-4z"/><path fill="#cf7251" d="M484 404c4 2 4 2 7 4v2h2a207 207 0 0 1 4 5l2.25 2.188c3.024 3.092 5.69 6.399 8.367 9.792 3.813 4.832 7.69 9.614 11.551 14.407 2.727 3.479 5.41 6.914 7.832 10.613l-1 2c-4.146-2.69-6.335-5.919-9-10a281 281 0 0 0-5-5l-1-2-5 1-5-1-2 1v5l3 3c.688 3.688.688 3.688 1 7-3.323-3.012-5.933-6.226-8.5-9.875-4.582-6.488-9.882-12.272-15.23-18.133L477 422c3-1 3-1 5-1l.688 2.938L484 427c3.5 1.375 3.5 1.375 7 1 1.313-3.937 1.313-3.937 2-8h2l-1-5-4-2-1-3h-2v-2h-2z"/><path fill="#ce704e" d="M667 398h3v4c3-1 3-1 6-4l1 3 3 1c1.508 6.43 2.122 12.415 2 19l1 1 1-7 1 3 4 1 1 4h2c1 4 1 4 0 8h-2l.125 4.063c-.134 5.305-1.052 7.689-4.125 11.937h-2v-4h-2q-1.034-3.49-2-7l-2-2 .563-5.437L679 423l-3-3-1 3-1-3-1-2-1-2h-2l-1 2c-2.905-5.577-2.92-8.864-2-15l-2-3z"/><path fill="#d17a5a" d="M896 172c4 1 4 1 6 2v2l4 2a295 295 0 0 1 6.875 5.875c3.44 3.024 6.737 5.871 10.57 8.383L926 194v2l4 2a875 875 0 0 1 7.004 6.355c4.429 3.91 9.108 7.476 13.797 11.067 2.944 2.373 5.584 4.85 8.199 7.578a237 237 0 0 1-11-3c1-2 1-2 2-3-3.437-.125-3.437-.125-7 0l-1 2-3-1-1-2c-3.38-.626-6.562-1-10-1l-3-4-4 1 1-4h4l1-4h2l-1-5-5-1-1-4-5-2-2-2-2 1-1 3v-2h-6l-3-3-4 1-1 2-.437-2.75c-.422-2.436-.963-4.852-1.563-7.25l3-2 1-4h-2v-3z"/><path fill="#d68f74" d="M500 315c4.375 2.625 8.053 5.356 12 8.563a519 519 0 0 0 14.875 11.625C543.161 347.715 556.348 364.87 564 384v4l-4 1c.313-2.687.313-2.687 1-6l-1-4h-3l-2-4h-2l-1-3-1-2h-2l-1 2c-4-4-4-4-5-7l-2 3h-3l-1-5 2-2.875c2-3.125 2-3.125 2.313-6.437-1.99-5.588-5.674-9.084-10.313-12.688-4.062-1.562-4.062-1.562-7-2l1 3-3 1v-3h-4l1-2c1-4 1-4 1-6-3.437-.75-3.437-.75-7-1l-1 2c-2.937-.625-2.937-.625-6-2l-2-4c-4.312-.187-4.312-.187-9 0l-5-1 2-3 1 1 1-2c3.5-.25 3.5-.25 7 0l1 2h2c-.75-2.937-.75-2.937-2-6l-2-1zm43 54 2 1Z"/><path fill="#cf6e4d" d="M933 361h2l1 2 2 1c-2.127 1.684-4.334 3.266-6.562 4.813-15.946 11.472-26.117 22.622-34.348 40.355L895 412c-5.25.346-9.814-2.707-14.375-5.062l-4.336-2.223L873 403c4-1 4-1 9-1v-2h4v-4l-4-1-1-4 5-1 1 4 4-2 2-1 3 3 2-5 2 3 3-1v-2h2l1-4h2v-2h4v-5c2.31-.743 4.646-1.411 7-2v-3c4-3 4-3 7-4v-2h4v-2h3z"/><path fill="#d28b70" d="M398 367c20.945.455 37.132 5.444 56 14-3 2-3 2-8 1v-2c-4.062-.312-4.062-.312-8 0l1 3v4a422 422 0 0 0 9 6l2 4c-4.6-1.84-7.952-4.091-11.95-6.945-9.964-6.712-20.81-12.046-31.624-17.23-3.16-1.684-5.727-3.488-8.426-5.825"/><path fill="#ce6c4a" d="M744 527h5c.74 1.974 1.388 3.983 2 6l3.125 4.125C757 541 757 541 757 545h5l1-2h3a253 253 0 0 0 2-6l2 1c-.305 4.12-.688 6.532-3 10l-1 4-4-1h-1a194 194 0 0 1-9-2v-3h2v-4h-4v-2a256 256 0 0 0-8 0l-2-1v2l2 1-2 2 2 1c.938 3.188.938 3.188 1 7-2.852 4.494-5.908 7.303-11 9l-2-3c.886-4.431 1.992-7.065 4-11l1.063-3.312C736 541 736 541 738 540l.875-4.312C740 531 740 531 744 527m-13 29 1 2 1-2z"/><path fill="#ce6f4e" d="M438 380c3.938-.25 3.938-.25 8 0l1 2 3.168-.098c6.486.166 11.062 3.925 15.832 8.098 1.56 3.454 2 5.326 2 9l1 2c-6.541 2.035-11.043-.096-17-3-3.937-3.125-3.937-3.125-7-6l-3-2-4-3v-3l-2-1 2-1z"/><path fill="#d18568" d="M823 425c5.013 1.326 9.337 3.657 13.875 6.125l4.055 2.195L844 435c-4 2-4 2-8 2l-1 3-2-1 1-5-4 3c-3-1-3-1-6-5-2.062 2.25-2.062 2.25-4 5h-2l1 4h3l.438 4.063L823 449l4-1-2 5h-2l-1 3h-2v-2h-2a110 110 0 0 1-2-7l-2.25 4.938L811 457l-4 1c-.906 2.582-.906 2.582-1.5 5.813-.977 5.279-1.422 6.11-5.5 10.187h-2c3.32-13.452 14.853-38.853 25-49"/><path fill="#d1724f" d="M769 582h5v2h3l1 3c4.161 1.296 7.634 2 12 2v2l2 1q-3.31 1.694-6.625 3.375l-3.727 1.898c-12.543 5.936-26.814 6.207-39.882 1.582A95 95 0 0 1 728 592c2-1 2-1 4.813-.062L736 593h5l3 2 2 1v2c5.5 1.454 11.227 1.168 16.875 1.188l5.742.042L773 599v-2l-3-1-2-3h-6v-5c4.108-4 4.108-4 7-4z"/><path fill="#cf6e4d" d="M770 435h3c-5.57 13.924-13.11 27.16-19.937 40.5l-2.612 5.129-2.478 4.84-2.242 4.388L744 493h-1v-10h-1v-5l5-1v2h2c.313-4.437.313-4.437 0-9l-3-1c2-2 2-2 6-5l3 1-3-3-3-3c3-3 3-3 7-5v-4h2v-6h2l2-4 2 1v2h4v-4h2z"/><path fill="#d17959" d="M804 369h3c-1.173 5.592-4.283 10.562-6.937 15.563a1810 1810 0 0 0-12.047 23.18l-2.602 5.095a6974 6974 0 0 0-5.177 10.17l-2.405 4.707-2.165 4.254L774 435h-1l.063-4.5L773 426h-2v-2l-3-1-1-3 2-1 1-3h3l-1-4h2v-6h-2v-2c3.375.625 3.375.625 7 2l2 4 3-1 1-4h3q.063-3.5 0-7h2l1-4 2-3v-2h2l.5-3 .5-3h2l1-4h2l-.062-3.312C801 372 801 372 804 369"/><path fill="#ce704d" d="M511 437c2.813 2.188 2.813 2.188 5 5l2.5 3 2.5 3 2.75 2.688C526 453 526 453 527 456h-5v-2l-4 1-1-2c-3.062.125-3.062.125-6 1v4l-5-2v-2l-3-1a227 227 0 0 1-3-8l-2-2v-5c4.53-3.02 7.774-1.956 13-1"/><path fill="#d59075" d="M560 179c17.91 14.398 27.436 38.731 37.735 58.811 2.664 5.191 5.332 10.361 8.214 15.435C608 257 608 257 608 259l-5-1-2 1q-.524-4.998-1-10l-2-3v-4h-2l-1-3-4-1v-8c-1.875-2.75-1.875-2.75-4-5l-2-4-5 2c-2.402-3.603-3.235-6.758-4-11h3c-.687-2.937-.687-2.937-2-6l-2-1v-2l-5 1v-2h3c-1.125-3.437-1.125-3.437-3-7l-3-1-3-9-4-4z"/><path fill="#d17a59" d="m517 452 5.063 2.063L527 456l1-2a216 216 0 0 1 7 10l3 4.5 2 3.5-1 2-4-2 1-3c-2.812-2.562-2.812-2.562-6-5l-2-2-2 1v-2h-2v2h-5l-1-3-4 2c.625 4.563.625 4.563 2 9l2 1v3l5 1c2 4 2 4 2 10l4 2-1 5c-3.303-3.303-5.128-6.502-7.437-10.562-4.77-8.254-9.96-16.07-15.387-23.903L503 455l1-2h3l2 4 2 1v-4l-2-1h6z"/><path fill="#cf704e" d="m518 460 2 2 4 1v-2c6.176 1.235 8.666 3.517 13 8l-1 5-3 1-2-1-1 4h2v3h-5l-2 1-.812-2.875L523 476l-5-1v-3l-3-1c-1.375-4.437-1.375-4.437-2-9 3-2 3-2 5-2"/><path fill="#cf7150" d="M625 303h4v4h2v4h3v2h2a221 221 0 0 1 2 7h1a280 280 0 0 1 2 8l-5-2v-3l-3-1v-3h2l-2-4-5 1c-3.187-.937-3.187-.937-6-2h-2l1 4c.019 2.063-.005 4.126-.062 6.188L621 330l2 1-2 2c-1.812-2.812-1.812-2.812-4-7l-2.75-4.812C612 317 612 317 612 315h3q.062-3.5 0-7c2 1 2 1 3 2l1-4 4 1zm-2 7 1 3Z"/><path fill="#d1886c" d="M915 259c6.625.625 6.625.625 10 4 4.176-.265 7.942-.986 12-2l-1 3-4 2c1.246 6.232 3.034 7.216 8 11a476 476 0 0 0 8 5l2 2h3l-1 2 2 1v3c-4.331 1.666-6.437 2.14-11 1-2.84 1.766-2.84 1.766-5.937 4.25-3.645 2.893-7.048 5.341-11.063 7.75l-2-1 3-3h2v-2c3.567-2.653 7.25-5.106 10.938-7.59L943 287v-3c-1.606-1.406-3.293-2.72-5-4-7.863-6.778-15.658-13.658-23-21"/><path fill="#d58e73" d="m849 177 2 1-3.312 3.25C844 185 844 185 843 190l-5 5c-1 4-1 4 0 7l-4 1 2 5v4l-3 1-1 2h-5c-1.625 2.813-1.625 2.813-3 6l-3 3-2 4-2 1c-1.638 3.35-3.088 6.766-4.562 10.191L811 242h-2c1.193-4.76 3.404-8.843 5.75-13.125 2.48-4.563 4.882-9.129 7.125-13.812C828.807 201.067 837.449 187.589 849 177"/><path fill="#d38e75" d="M844 436c6.02 1.204 10.09 3.764 15.309 6.902C863 445 863 445 866.535 446.442c3.153 1.308 3.153 1.308 7.465 4.558-1.158 4.98-2.44 7.694-5 12l-2.273 4.195c-3.004 5.499-5.965 10.789-9.727 15.805v-6h2v-5h3v-8l3-1v-3h2c.75-4 .75-4 1-8h-2v2h-2l-1 3-3-3h3l1-4c-4.125-.625-4.125-.625-9-1l-5-2c-1-3-1-3 0-7a129 129 0 0 0-6-1z"/><path fill="#d38c71" d="M728 396c1.308 5.233.024 8.085-2 13h-3v4h-2c-.375 3.563-.375 3.563 0 7l4-1c1.563 2.75 1.563 2.75 2 6l-5 3-2-2c-3 1-3 1-7 5h-2c-.583 4.19-.9 8.381-1.242 12.598L709 447l-4-1-1 5-2 5h-3v5l-3 3-1 2h-2c3.2-12.162 10.89-23.626 16.715-34.652A629 629 0 0 0 717 417c7.35-14.869 7.35-14.869 11-21"/><path fill="#d18e74" d="M740 529c1.827 3.654.042 7.25-1 11l-3 2a228 228 0 0 0-3 9l-2 4 .625 3.188L732 561l-4 1v3l-5 2-3 5-3 5 4 2a300 300 0 0 1 4 7l3 2v3c-4.033-2.017-5.958-3.74-9-7l-3.312-3.5C713 577 713 577 713 572c1.827-2 3.66-3.993 5.516-5.965 8.082-9.875 13.715-22.093 19.242-33.543C739 530 739 530 740 529m-9 27 2 1-2 1z"/><path fill="#d2886c" d="M454 382c10.493 2.803 24 13 30 22l-5-1v-2l-3-1-1-2h-5l3 5-2 2-1 3 4 1c1.813 4.938 1.813 4.938 3 10l-1 2c-1.742-1.588-3.387-3.282-5-5-11.357-11.786-11.357-11.786-18-14l-3-5c3.034 1.011 6.06 2.022 9.063 3.125C462 401 462 401 467 401v-5c-.849-3.86-1.477-5.582-4.602-8.082l-3.023-1.73A342 342 0 0 1 454 383z"/><path fill="#d7977e" d="m661 395 3 1 2 5 2 2-.562 3.813C667 411 667 411 670 416l5 2v4l1-2 3 1c1 5 1 5 .375 9-.375 4-.375 4 2.625 9v4h2v4h2l2-5 2-2c-.496 4.468-.69 5.69-4 9-4.627-2.314-5.335-4.25-7.469-8.785-5.642-11.846-12.193-23.271-18.66-34.68C658 402 658 402 658 400l3-1z"/><path fill="#cd6e4d" d="M662 377h6l-1 5h2c1.313 5 1.313 5 2 10h-3l-1 4-1-2h-2l-1 2-2 4h-3v-5l-3-1c-1.437-5-1.437-5-2-10l4-1 1-2h2z"/><path fill="#d38f74" d="m909 313 2 1c-3.113 4.273-6.26 8.26-10 12h-3l2.438 2.375L902 331c-3.046 1.28-5.676 2-9 2l-2 3-1-2-1 3h-5c-3 2-3 2-4 5l-2.75.875c-3.949 1.367-5.605 2.909-8.25 6.125a221 221 0 0 0-3 7l-3 3h-2l-1 5h-3c0-7.58 9.572-15.769 14.625-21.062 5.294-5.13 11.164-9.41 17.11-13.75 5.893-4.405 11.507-9.124 17.132-13.864z"/><path fill="#d59176" d="M659 526c0 3 0 3-2.082 5.305l-2.73 2.57c-3.557 3.356-5.612 5.832-8.188 10.125-2.663.358-5.33.694-8 1v4c-3.953.54-3.953.54-9.25.625-5.974.173-11.743.358-17.625 1.438C606 552 606 552 600 552c-2.002-3.913-2-6.538-2-11l-2-1c4 1 4 1 8.438 3 9.79 4.292 20.908 4.428 31.062 1.313 6.665-3.426 11.959-6.307 16.5-12.313a283 283 0 0 1 7-6"/><path fill="#d28266" d="M500 315c4.48 2.688 8.267 5.527 12.313 8.813 4.143 3.357 8.275 6.663 12.625 9.75L528 336v3l2 1-3.062-.687L524 339l1 3-3 1v-3h-4l1-2c1-4 1-4 1-6-3.437-.75-3.437-.75-7-1l-1 2c-2.937-.625-2.937-.625-6-2l-2-4c-4.312-.187-4.312-.187-9 0l-5-1 2-3 1 1 1-2c3.5-.25 3.5-.25 7 0l1 2h2c-.75-2.937-.75-2.937-2-6l-2-1z"/><path fill="#d38d73" d="M670 379c3.36 3.36 4.616 6.177 6.563 10.5 5.229 11.346 10.848 22.545 17.3 33.25C696 427 696 427 695 432c-1.937 4.5-1.937 4.5-4 8-2-3-2-3-1.75-6.187L690 431h2c.25-4 .25-4 0-8h-2l-2-4h-3l-2 5-3-3 1-5c-.357-6.788-1.386-12.708-4-19l-4-3c-1.047-3.574-1.047-3.574-1.75-7.687l-.734-4.137z"/><path fill="#ce7150" d="M959 223c4.458 2.675 7.923 5.403 11.813 8.813 3.939 3.421 7.854 6.788 12.062 9.875L986 244v1l-5.312.438C975 246 975 246 972 248l-2-4v2h-2v-6c-2.937-.625-2.937-.625-6-1l-1-4-1-3 3-1 1-2h-2l-1-3-2-1z"/><path fill="#d89d86" d="M523.035 230.906c6.03 1.664 12.049 1.55 18.274 1.75L545 233v2c-2.646.043-5.293-.02-7.938-.125-11.057-.11-16.89 2.787-25.062 10.125h-2v2c-1.679 1.376-3.422 2.674-5.188 3.938-5.981 4.361-11.551 9.072-17.097 13.972C485 267 485 267 482 267c.5-2.937.5-2.937 2-6l5-1v-5l3-1v2h2v-3h3v-2h2v-2l4 1v-5h4v-2l5-1 1-4 3.125-.375L519 237c-.25-3-.25-3-1-6 2-1 2-1 5.035-.094"/><path fill="#d28165" d="M540 474c3.366 3.366 5.227 5.802 7.563 9.813 5.403 8.965 11.443 17.61 18.332 25.503L568 512l-1 2c-2.504-1.773-2.504-1.773-5.562-4.375l-3.067-2.586L556 505v1l-1 3-5 1c-.187-3.875-.187-3.875 0-8l-2-1-1-3 2-3-2-3v-6l-5-1c-1.539-3.884-2-6.816-2-11"/><path fill="#cf8165" d="M868 232h4l1 2 4 2c-1.61 4.023-3.335 7.636-5.375 11.438l-1.637 3.162a549 549 0 0 1-3.311 6.267 355 355 0 0 0-3.362 6.442c-1.35 2.61-2.82 5.16-4.315 7.691l-2-2c.346-3.978 1.186-6.373 3-10h-3c-1-4-1-4 0-7h3l1-2h2v2l5-1c.25-3.25.25-3.25 0-7l1-5-2-1c.125-3.062.125-3.062 1-6"/><path fill="#d6a08a" d="M544 524c4 1 4 1 5.75 3.875C551 531 551 531 551 534h2v4l3 1v5l3 1v3l4-1c.72 2.653 1.38 5.322 2 8l4 4v5l4 1 1 2h4l2 4 3 3v5c2 2.813 2 2.813 4 5-4.178-2.089-6.155-4.061-9.25-7.5l-2.703-2.969C573 571 573 571 573 569h-2c-7.295-8.751-12.903-18.73-18.504-28.605a348 348 0 0 0-6.183-10.457C544 526 544 526 544 524"/><path fill="#d49882" d="M854 483h3c-1.033 4.35-2.995 8.176-5.055 12.121l-1.846 3.553-1.974 3.764-2.02 3.872a7834 7834 0 0 1-4.11 7.864c-1.864 3.575-3.71 7.157-5.55 10.744l-1.64 3.188a1638 1638 0 0 0-3.035 5.923c-1.985 3.838-3.694 6.895-6.77 9.971-.125-3.5-.125-3.5 0-7h2l1-3 1-3h2l.938-4.812C833 521 833 521 836 518l1-5h2v-4h3c.399-2.658.725-5.327 1-8l2-4h3l1-4h2v-5h3z"/><path fill="#d59a83" d="M705 560c0 6.054-6.998 10.824-11 15l-2.57 2.766C681.796 587.864 670.238 594.513 657 599l-4-1c4.559-3.616 8.364-6.45 14-8v-1h6v-3h6v-5h3v2l2-1 1-5 4-1v-2l-2-1 4-.875 4-1.125v-2l3-1 2-5z"/><path fill="#d6a088" d="M779 508c1.844 3.688-.22 8.095-1 12l-2 1-1 3-1 3-2 1-1 5-4 4-3 5-5 1-2 2a577 577 0 0 1-3-7l-2.687-3.125C749 532 749 532 749 527c-4 .688-4 .688-8 2 1.875-5.75 1.875-5.75 3-8h3c1.684 2.45 1.684 2.45 3.438 5.688 1.775 3.253 3.462 6.188 5.785 9.082C758 538 758 538 758 540c4-1 4-1 5.86-3.598l1.89-3.465 2.082-3.796a693 693 0 0 0 8.602-17.036C778 509 778 509 779 508"/><path fill="#d7967f" d="m587 584 4.563 1c5.437 1 5.437 1 9.5.938L604 586l1 3 2 2-1 3h5v2c13.792 2.791 27.978 2.63 42 3-5.55 2.775-10.868 2.329-16.937 2.313l-3.518.048c-11.864.007-22.059-2.004-32.545-7.736l-4.25-2.273c-3.461-2.171-6.021-4.335-8.75-7.352"/><path fill="#d38a70" d="M471 273c4 0 4 0 6 1-2.14 2.066-2.14 2.066-5.25 4.563l-3.078 2.503C466 283 466 283 464 283c2.371 5.928 4.57 7.188 9.75 10.75 2.456 1.695 4.888 3.427 7.25 5.25l-2 1c-3.625-1.312-3.625-1.312-7-3v-2c-2.937-.75-2.937-.75-6-1l-1 2-1-3c-4.062.313-4.062.313-8 1l1-2 4-1-3-2 3-1c-.687-3-.687-3-2-6l-2-1v-2h4l1-3 5 1 1-3 3 1z"/><path fill="#d7977d" d="m879 229 4 2c10.578 3.211 10.578 3.211 15 1h4v4h-2c-.437 4.375-.437 4.375 0 9 2.644 1.058 5.298 2.1 8 3l1 3 4 4 2 4c-7.309-3.654-13.295-9.269-19-15.062-3.168-3.119-6.257-5.9-9.75-8.625l-2.734-2.137L881 232l-4 3c1-4 1-4 2-6"/><path fill="#d3957d" d="M933 361h2l1 2 2 1c-2.127 1.684-4.334 3.266-6.562 4.813C917.583 378.78 907.18 388.946 899 404c-2.099-4.198-1.759-9.416-2-14l2-1 1 3 3-1v-2h2l1-4h2v-2h4v-5c2.31-.743 4.646-1.411 7-2v-3c4-3 4-3 7-4v-2h4v-2h3z"/><path fill="#d18468" d="M823 425c5.013 1.326 9.337 3.657 13.875 6.125l4.055 2.195L844 435c-4 2-4 2-8 2l-1 3-2-1 1-5-4 3c-3-1-3-1-6-5-2.062 2.25-2.062 2.25-4 5h-2l-1.437 4.438L815 446l-3 1c1.472-4.954 3.607-9.271 6.063-13.812l2.16-4.02C822 426 822 426 823 425"/><path fill="#d07f61" d="M661 362c7.232 7.232 10.02 17.21 12 27v5l5 2v5l-3-2-2 3h-3v-4l-3 1.125-3 .875v-6l3 1 1-3 2-1c-.25-4.562-.25-4.562-1-9h-2v-4h-2v-4h-2a772 772 0 0 1-2-7l-2-1z"/><path fill="#daa690" d="M760 334c1.545 3.091.285 5.195-.687 8.438l-1.012 3.496C757 349 757 349 753 352l-.812 4.438c-1.434 6.714-4.15 12.02-8.188 17.562h-2a506 506 0 0 0-2 6l-2 1c-1.897 3.87-3.608 7.809-5.344 11.754L731 396h-2c1.25-4.979 3.608-9.388 5.938-13.937 2.028-3.971 3.988-7.883 5.69-12.004C742 367 742 367 744 366l2-5a521 521 0 0 1 14-27"/><path fill="#d18e75" d="M467 360c6.23 1.246 8.477 2.477 13 7l3.563 1.875c3.908 2.416 4.444 4.139 6.437 8.125 3.644 1.664 7.043 2.209 11 3l1 4 2 1-1 3 3-1v3q.479 4.502 1 9c-9.609-11.826-9.609-11.826-11-16h-2v-2l-5-2a173 173 0 0 1-6.812-5.75c-3.938-3.449-7.838-6.846-12.063-9.937L467 361z"/><path fill="#d49279" d="M477 421h5c.73 1.977 1.394 3.98 2 6l4 2v2c3.563 1.375 3.563 1.375 7 2l-1-4c4 1 4 1 6 4l-.562 5-.438 5 3 3c.688 3.688.688 3.688 1 7-3.323-3.012-5.933-6.226-8.5-9.875-4.558-6.416-9.724-12.244-14.937-18.133C477 422 477 422 477 421"/><path fill="#d18b71" d="M830 319h3c-1.683 7.103-5.69 13.613-9 20.063l-1.945 3.896-1.867 3.639-1.708 3.36L817 352c-2-3-2-3-2-5h2c.813-3.437.813-3.437 1-7l-3-1v-3c2.438-2.25 2.438-2.25 5-4l1 1 .375-5 .625-5h2l1 4 2-4h3z"/><path fill="#d1896f" d="m756 461 3 1c-1.007 4.325-2.966 8.131-5.004 12.055l-1.744 3.36-1.814 3.46-1.827 3.531A514 514 0 0 1 744 493h-1v-10h-1v-5l5-1v2h2c.313-4.437.313-4.437 0-9l-3-1c2-2 2-2 6-5l3 1z"/><path fill="#d49c85" d="M804 369h3c-1.196 5.892-4.574 11.17-7.375 16.438l-3.23 6.125-1.686 3.187a1390 1390 0 0 0-5.135 9.875l-1.657 3.205q-1.59 3.077-3.17 6.158A384 384 0 0 1 781 421h-1v-6h2v-6h2l1-4h3q.063-3.5 0-7h2l1-4 2-3v-2h2l.5-3 .5-3h2l1-4h2l-.062-3.312C801 372 801 372 804 369"/><path fill="#d69a83" d="M636 314c3.168 3.168 4.45 5.666 6.375 9.688 4.168 8.538 8.69 16.853 13.32 25.149 2.458 4.465 4.298 8.13 5.305 13.163l-2-1v-2h-2l-1 3-1.875-5.125-1.113-3.031a120 120 0 0 1-2.074-6.469L650 345l-3-1 1-2h-2l-.937-4.312C644 333 644 333 641 330a379 379 0 0 1-3-9h-1a202 202 0 0 1-1-7"/><path fill="#d89d86" d="m691 468 1 2a104 104 0 0 1-2.5 5.688c-2.218 5.072-2.595 7.836-1.5 13.312-1.125 3.375-1.125 3.375-3 6l-5 1-2 4-3 3-1 5h-2v4h-3c3.812-15.25 14.168-30.479 22-44"/><path fill="#cf7c61" d="m813 351 3 1c-1.535 3.839-3.114 7.576-4.875 11.313l-1.492 3.238L808 369h-4v5l-2-2-.375 3.5L801 379h-2l-1 4-4-1v-3l3-1-3-4v-2h3v-2l3-2 1-2 3 2 1-5h2v-2h2l.438-3 .562-3h3z"/><path fill="#d89d86" d="m461 212 2 1a782 782 0 0 1-7 6l-1 3-5 5v2h-3l-1 5-5 1-4 3c-3.866 2.138-6.583 3.117-11 4a127 127 0 0 1 10.563-9.687l2.816-2.325C442 228 442 228 446 226v-2a178 178 0 0 1 6.938-5.562c7.058-5.434 7.058-5.434 8.062-6.438"/><path fill="#d79f89" d="M545 235c7.265-.616 7.265-.616 10.688 2.25L558 240l2.625 2c2.375 2 2.375 2 5.375 7 4 3 4 3 6 3l2 5 3 1 .938 2.938C579 264 579 264 583 266c1.75 4.625 1.75 4.625 3 9-3.808-3.644-7.006-7.49-10.187-11.687-7.908-10.13-16.261-18.015-26.813-25.313z"/><path fill="#d07555" d="M488 250c4.563.75 4.563.75 9 2l-3 1v3l-5-1v5h-3c-.98 1.959-1.897 3.948-2.812 5.938C481 270 481 270 477 273c-1.468-5.873-.663-10.178 1-16l4-1 5-2z"/><path fill="#d9a791" d="m728 591 3.688.938C736 593 736 593 741 593l3 2 2 1v2c5.5 1.454 11.227 1.168 16.875 1.188l5.742.042L773 599v-2h2v-2a280 280 0 0 1 8-2v-1q3.5-.063 7 0c-10.27 8.821-23.018 10.696-36.195 9.777-9.482-1.275-17.682-4.903-25.805-9.777z"/><path fill="#d8a48e" d="M784 288c1 2 1 2-.125 5.875-2.632 7.193-5.448 14.271-8.875 21.125h-2l-.437 2.938L772 321l-3 1v2h-2v4l-2 1-2 5h-2c1.092-4.134 2.802-7.794 4.793-11.562l1.651-3.147 1.744-3.291 3.527-6.719 1.714-3.265c2.54-4.876 4.98-9.8 7.4-14.735C783 289 783 289 784 288"/><path fill="#d28f76" d="m528 493 4 1a201 201 0 0 1 3 6l4 3v2h5a170 170 0 0 1-2 11h2l1 5-2 3c-1.604-2.29-1.604-2.29-3.477-5.98l-2.03-3.967-2.118-4.24-2.14-4.182C528 495.319 528 495.319 528 493"/><path fill="#d07d5e" d="M789 276h2c.087 4.022.097 7.984 0 12 0 3 0 3 1 6h-2l.125 5-.125 5h-4l-1-5h-2c.227-7.036 2.258-12.574 5-19z"/><path fill="#d49a82" d="M586 217c2.495 3.327 4.3 6.308 6.18 9.98l1.816 3.53 1.879 3.678q1.838 3.585 3.68 7.167l1.768 3.443a281 281 0 0 0 4.622 8.44C608 257 608 257 608 259l-5-1-2 1q-.524-4.998-1-10l-2-3v-4h-2l-1-3-4-1v-8a210 210 0 0 0-4-5c-.75-4.312-.75-4.312-1-8"/><path fill="#d69d86" d="M715 422c1 4 1 4 0 8l-4 1c-.797 4.21-1.016 8.36-1.312 12.633L709 447l-4-1-1 5-2 5h-3v5l-3 3-1 2h-2c4.006-15.226 13.973-30.622 22-44"/><path fill="#d28c71" d="m742 493 1 2c-1.064 2.522-1.064 2.522-2.71 5.664l-1.774 3.399-1.891 3.562-1.867 3.586c-3.369 6.412-3.369 6.412-4.758 8.789h-1l.125-4.437L729 511l-3-1c.912-4.194 1.916-5.916 5-9l4 1v-2l2-1v-2h2l1-3z"/><path fill="#d39b86" d="M855 271h3c-1.087 4.706-3.342 8.855-5.555 13.121l-2.113 4.084-2.207 4.233-2.184 4.22c-6.755 13.02-6.755 13.02-9.941 18.342h-1c-.241-6.517-.241-6.517 1-9h2l1.5-5 1.5-5h2l1-5 1-2h3l-1-5 1 2h2l.5-3.5.5-3.5h2v-5h2z"/><path fill="#d5967c" d="m520 170-1 3h-5c-2.812 2-2.812 2-5 5a127 127 0 0 0 0 8l-3-1-2-4-2 3 1 2c-4.65 1.761-9.122 3.024-14 4 3.524-5.056 8.102-8.326 13-12l4.188-3.25c8.445-6.092 8.445-6.092 13.812-4.75"/><path fill="#d8a48e" d="M495 414c4.397 2.199 5.696 3.906 8.563 7.813a256 256 0 0 0 11.125 13.875c4.475 5.245 8.602 10.495 12.312 16.312l-1 2c-4.146-2.69-6.335-5.919-9-10l-2.625-2.625C512 439 512 439 510 435l-3-2v-3h-3c-2.704-3.606-3.751-5.808-5-10l-1-3-3-1z"/><path fill="#d49a84" d="M507 399a105 105 0 0 1 5 4v2c4.438 1.375 4.438 1.375 9 2l1-4c5-2 5-2 11-2v-2h2v2l2 1c-20 10-20 10-24 10-1.703-2.336-1.703-2.336-3.25-5.375l-1.578-3.023C507 401 507 401 507 399"/><path fill="#cf7e62" d="M447 342c4.695 1.878 7.353 3.607 11 7v2l4.5.938L467 353v3c5 3 5 3 8 3l4 2v5l-3-1v-2c-5-2-5-2-8.312-2.75-7.741-2.624-12.262-7.61-16.688-14.25z"/><path fill="#d69780" d="M986 245c2.697 1.618 5.383 3.256 8 5v2l4 2c7.555 9.9 7.555 9.9 9 16l-4-1v-2h-2v-4h-3l-1-2-3 1-.437-3.187C993 255 993 255 989 251l-1-3-2-1z"/><path fill="#d5947a" d="m821 543 4 1c-1.33 5.32-3.9 9.866-6.437 14.688l-1.526 2.955c-3.79 7.234-3.79 7.234-6.037 8.357q.465-3.158.938-6.312l.527-3.551C813 557 813 557 814 554h1v-6h5z"/><path fill="#d89d86" d="M568 514c3.518 2.746 6.403 5.47 9.313 8.875 4.919 5.503 10.036 9.8 16.687 13.125l2 4a475 475 0 0 1-7-3.562C586 535 586 535 582 534l-4-4-2-1-1 2c-1-3-1-3 0-6h-2c-3.576-3.576-3.965-6.141-5-11"/><path fill="#d8a08a" d="M507 459c2.813.25 2.813.25 6 2 1.75 5.063 1.75 5.063 3 10l2 1v3l5 1c2 4 2 4 2 10l4 2-1 5c-3.389-3.389-5.307-6.777-7.687-10.937-3.743-6.463-7.65-12.712-11.915-18.84C507 461 507 461 507 459"/><path fill="#daa38d" d="M1007 270c5.249 7.873 4 19.675 2.316 28.64-1.967 6.368-4.974 11.343-9.316 16.36h-1v-5h3v-5l2-2c.703-3.004.703-3.004 1.25-6.562l.578-3.567L1006 290l-2-1 4-1c.373-6.124.073-11.962-1-18"/><path fill="#d6a38e" d="M421 325c6.73 1.289 10.79 4.683 16 9 3.322 2.718 6.263 4.758 10 7 3.676 3.318 6.37 6.812 9 11-4.461-2.23-7.99-4.948-11.937-8l-4.56-3.52L435 337l-3.973-3.012-3.527-2.675-3.156-2.387C422 327 422 327 421 325"/><path fill="#d8a58f" d="M587 274h2l.938 2.938L591 280l3 1c2 4 2 4 2 7h2v2l3 1v2h2v6h2l1 5h2l2 3h1q.562 3.993 1 8c-3.7-3.7-5.859-7.666-8.5-12.187-4.836-8.225-10.028-16.078-15.613-23.82L586 276z"/><path fill="#d59d85" d="M797 474c1.952 3.904.063 8.003-1 12l-4 1q-1.01 5.498-2 11l-4 2-.437 3.563L785 507l-5 1c.898-5.47 4.236-10.48 6.813-15.312l2.582-4.864c2.5-4.628 5.04-9.232 7.605-13.824"/><path fill="#d38d72" d="m661 395 3 1 2 5 2 2-.5 3.938C667 411 667 411 669 414v6c-3.306-3.306-5.007-6.436-7.187-10.562l-2.168-4.067C658 402 658 402 658 400l3-1z"/><path fill="#d1856a" d="m996 307 1 4h2c0 5 0 5-2.336 7.71l-3.039 2.665c-.998.895-1.995 1.79-3.023 2.71L988 326l-2-1 1-4h2v-3l2-2c-.375-3.625-.375-3.625-1-7l2 1v2h2v-4z"/><path fill="#d9a38d" d="m808 242 1 2q-1.982 4.508-4 9l-1 4.063c-1.12 4.41-2.692 8.02-5 11.937h-3l-.437 3.5L795 276h-4c1.019-5.523 4.251-10.478 6.875-15.375 2.511-4.7 5.01-9.393 7.383-14.164C807 243 807 243 808 242"/><path fill="#d3977f" d="M873 402c2.002.039 4.003.158 6 .313l3.375.238L885 403v2c3.438 1.313 3.438 1.313 7 2l1-3 2 1 1-2 2 1c-.778 2.815-1.694 5.388-3 8-5.391-.265-9.63-2.58-14.375-5l-4.336-2.187L873 403z"/><path fill="#d79f89" d="m623 332 2 1 .438 3.5.562 3.5 3 1-1 3h2l1 4 2-1 1.375 4.875L636 357l4 1c.875 3.438.875 3.438 1 7l-2 2a195 195 0 0 1-6.375-11.375l-1.75-3.293a815 815 0 0 1-3.354-6.401 563 563 0 0 0-3.998-7.533C622 335 622 335 623 332"/><path fill="#d39077" d="m962 341 4 1a854 854 0 0 1-5.187 4.375l-2.918 2.46C955 351 955 351 950 353v2l-4 3-2-1c.75-3.062.75-3.062 2-6h2v-5c3.563.375 3.563.375 7 1l-1-3h2l1-2 5 1z"/><path fill="#d18a70" d="M868 232h4l1 2 4 2c-1.359 3.679-2.808 6.867-4.625 10.313l-1.45 2.939c-1.402 2.736-1.402 2.736-3.925 6.748-2-3-2-3-2-5h3a97 97 0 0 0 0-7l1-5-2-1c.125-3.062.125-3.062 1-6"/><path fill="#daa28c" d="m643 365 2 1v8l2-1 .938 3.375L649 380l3 1c2 5 2 5 3 9.25l1 3.75 2 1v5c-3.554-4.094-5.952-8.442-8.437-13.25-2.484-4.782-4.976-9.531-7.688-14.187L640 369l1-2 2 1z"/><path fill="#dcac97" d="m424 242 2 1c-1.864 1.868-3.822 3.642-5.812 5.375-6.08 5.304-6.08 5.304-7.188 8.625h-2l-1 5-2 2h-3l-1 5-1 3h-2l-1 5c-1.647-6.586 2.116-11.38 5.25-17.125 3.136-4.418 6.567-7.441 10.75-10.875l4.375-4z"/><path fill="#d29177" d="M715 539h4c-1.95 4.877-4.275 8.872-7.062 13.313l-2.723 4.363L707 560h-1a124 124 0 0 1 3-19h2v4l1-2h2z"/><path fill="#d7a590" d="M684 406c3.626 3.626 5.61 8.5 8 13l2.438 4.375C696 427 696 427 695 432c-1.937 4.5-1.937 4.5-4 8-2-3-2-3-1.75-6.187L690 431h2c.25-4 .25-4 0-8h-2c-3.65-5.698-5.63-10.226-6-17"/><path fill="#d69177" d="M527 454c3.598 3.598 6.07 6.88 8.813 11.125l2.457 3.758L540 472l-1 2-4-2 1-3c-2.812-2.562-2.812-2.562-6-5l-2-2-2 1v-2h-2v2h-2l-1-4 2-2 1-2 3 1z"/><path fill="#d49278" d="M896 172c4 1 4 1 6 2v2l4 2c3.136 2.539 6.037 5.255 9 8v1h-5v-2l-5 1-3-2v-4h-2v-4h-2v-3z"/><path fill="#d6a792" d="M744 521h3c1.684 2.45 1.684 2.45 3.438 5.688 1.775 3.253 3.462 6.188 5.785 9.082C758 538 758 538 758 540l5-1-2 4h-2l-2 2a577 577 0 0 1-3-7l-2.687-3.125C749 532 749 532 749 527c-4 .688-4 .688-8 2 1.875-5.75 1.875-5.75 3-8"/><path fill="#dca892" d="M454 382c10.493 2.803 24 13 30 22l-5-1v-2l-3-1-1-2-4.062.563L467 399v-3c-.849-3.86-1.477-5.582-4.602-8.082l-3.023-1.73A342 342 0 0 1 454 383z"/><path fill="#d69c86" d="M620 283c3.861 3.861 5.607 7.968 8 12.875 2.53 5.174 5.036 10.185 8 15.125v2h-2v-2h-3v-4h-2v-4l-3-1a448 448 0 0 1-2-9h-2l1-4h-3z"/><path fill="#d18e76" d="m497 251 4 1c-2.463 3.975-5.894 6.77-9.5 9.688l-2.844 2.324C486 266 486 266 482 268c.688-3.437.688-3.437 2-7l5-1v-5l3-1v2h2v-3h3z"/><path fill="#dbac98" d="m531.375 166.75 4.46-.016c6.414.41 10.914 2.49 16.415 5.703l3.14 1.81C558 176 558 176 560 179a152 152 0 0 1-10-3v-3a131 131 0 0 0-9-2l-3-1v-2c-3.17.018-6.338.167-9.5.375l-5.344.336L519 169c4.585-2.292 7.287-2.268 12.375-2.25"/><path fill="#d9a793" d="M718 567v3l-1 1v5c1.636 1.37 3.307 2.7 5 4a201 201 0 0 1 3 6l3 2v3c-4.033-2.017-5.958-3.74-9-7l-3.312-3.5C713 577 713 577 713 572c2.5-2.812 2.5-2.812 5-5"/><path fill="#c77153" d="M820 224c1 3 1 3 0 6h-2l-1 5-2 5-1 3-1-1-2 5h-2l-1 5c-2 5-2 5-4 6 .507-5.96 2.297-10.676 5-16h2c.696-1.99 1.355-3.993 2-6 2-4.375 2-4.375 4-8h2z"/><path fill="#deb3a0" d="m895 170 1 2q-3.251-.461-6.5-.937l-3.656-.528L883 170v-1c-13.286-.299-13.286-.299-19 1v2l-6 1v2l-3 2-4-1c12.006-10.835 29.263-11.895 44-6"/><path fill="#d3957e" d="M807 569h2l1 4c-4.228 6.637-10.173 12.768-16 18l-2-1 3-5h2v-4h2v-2h3l1-4h2l1-4z"/><path fill="#d7a38f" d="M467 360c6.23 1.246 8.477 2.477 13 7l3.563 1.875c3.864 2.389 4.767 3.994 6.437 8.125l2 3c-4.066-2.033-6.826-4.28-10.25-7.25-3.779-3.246-7.545-6.429-11.562-9.375L467 361z"/><path fill="#daa58e" d="M934 203c3.838 1.919 6.443 3.918 9.688 6.688A411 411 0 0 0 959 222c-3.912 0-7.265-.88-11-2 1-2 1-2 2-3l-3.5-.312L943 216v-3l-2.812-1.812c-3.53-2.423-4.591-4.285-6.188-8.188"/><path fill="#d59076" d="M612 315h3l1 2 4-1c1.38 2.761 1.022 4.989.938 8.063L621 330l2 1-2 2c-1.812-2.812-1.812-2.812-4-7l-2.75-4.812C612 317 612 317 612 315"/><path fill="#dca792" d="M596 540c4 1 4 1 8.438 3 6.81 2.985 12.526 3.11 19.875 3.063l5.488-.028L634 546c-3.703 3.703-9.966 2.54-15 2.688l-3.68.142c-9.045.307-9.045.307-11.32-.83v-3l-3 .625-3 .375v-5z"/><path fill="#d49a84" d="m439 382-1 2c1 3 1 3 5.438 5.938C448 393 448 393 450 397c-4.712-1.885-8.314-4.239-12.418-7.18-3.437-2.422-6.995-4.628-10.582-6.82 4.701-2.35 6.944-2.028 12-1"/><path fill="#d8a691" d="M855 364c0 5.292-2.785 10.08-4.785 14.922-1.274 4.277-.936 6.76-.215 11.078-3-.187-3-.187-6-2-.277-5.54 2.785-11.034 5-16h2a253 253 0 0 0 2-6z"/><path fill="#d39b85" d="M770 435h3c-1.785 4.463-3.775 8.65-5.937 12.938l-2.09 4.152L763 456l-1.691 3.504L760 462h-1c-.187-3.5-.187-3.5 0-7h2a281 281 0 0 0 1-7l2-5h4v-4h2z"/><path fill="#d69880" d="M481 300c3.666 2.2 6.768 4.285 10.063 6.938l2.535 2.027c2.237 1.896 4.328 3.961 6.402 6.035-6.903-.677-11.069-3.441-17-7-1.312-4.187-1.312-4.187-2-8"/><path fill="#d59880" d="M850 390c2.142-.155 4.29-.222 6.438-.25l3.62-.078L863 390l1 3 4 2v2h2l3 3v2c-5.353-1.291-10.043-3.99-14.875-6.562l-4.617-2.442L850 391z"/><path fill="#dba791" d="M398 277h1l1 8h1q.514 4.499 1 9l1 2-.125 4.563L403 305l3 1c.688 3.063.688 3.063 1 6-5.981-5.981-8.873-12.864-9.133-21.328l.008-4.922-.008-4.953z"/><path fill="#d08a71" d="M484 404c4 2 4 2 7 4v2h2l1.313 2.688C496 416 496 416 498.75 418.75L501 421l-1 2-2-2-3 5-1-3-2 1 1-4h2l-1-5-4-2-1-3h-2v-2h-2z"/><path fill="#ddaa96" d="M959 223c4.458 2.675 7.923 5.403 11.813 8.813 4.935 4.28 9.886 8.37 15.187 12.187-3.32 0-5.806-.022-9-1l-1.937-3.437C973 236 973 236 969.313 234.813L966 234l-1-4-3-1-1-3-2-1z"/><path fill="#daaa94" d="M545 235c7.265-.616 7.265-.616 10.688 2.25L558 240l2.625 2c2.375 2 2.375 2 5.375 7l3 3-1 2a388 388 0 0 1-5.54-5.629c-4.112-3.963-8.793-7.102-13.46-10.371z"/><path fill="#ca7152" d="M749 527c1.563 3.938 1.563 3.938 2 8l-4 1-4-3-3 5c-1-4-1-4 .313-7.187 2.64-4.4 3.28-3.813 8.687-3.813"/><path fill="#e0b6a1" d="M940 280c4 2 4 2 7 6-5.138 7.78-13.148 12.289-21 17l-2-1 3-3h2v-2c3.567-2.653 7.25-5.106 10.938-7.59L943 287c0-3 0-3-3-7"/><path fill="#d49c86" d="M431 372c8.165 1.828 15.498 5.367 23 9-3 2-3 2-8 1v-2h-5l-5-3-5-2z"/><path fill="#deae99" d="m877 338 2 1c-1.887 2.04-1.887 2.04-4.687 4.625-4.058 3.917-6.443 6.984-8.313 12.375l-3 3h-2l-1 5h-3c0-8.717 12.114-18.457 17.969-24.367z"/><path fill="#d28f76" d="M464 408c7.515-.242 7.515-.242 10 1 1.688 4.938 1.688 4.938 3 10l-1 2c-1.742-1.588-3.387-3.282-5-5l-3.812-3.75C464 409 464 409 464 408"/><path fill="#d19f89" d="M617 598c2.625-.017 5.251.04 7.875.121l4.922.147 5.203.17 5.203.158q6.398.195 12.797.404c-4.056 2.028-5.727 2.256-10.121 2.266l-3.584.007-3.732-.023-3.721.023-3.588-.007-3.271-.007C622 601 622 601 617 599z"/><path fill="#d7a38f" d="M550 490c4.39 3.978 7.648 8.533 11.059 13.336C563 506 563 506 566.063 509.562L568 512l-1 2c-4.945-3.891-8.696-7.662-12-13l-2-1c-2-5-2-5-3-10"/><path fill="#d59b86" d="M560 389c-4.067 3.05-8.145 5.354-12.625 7.75l-4.602 2.484L539 401l-2-1 1-3h4l1-4h2l1-2 5 1v-2c4-1 4-1 9-1"/><path fill="#dbae99" d="M823 213h1c.25 3.813.25 3.813 0 8l-3 3-2 4-2 1c-1.638 3.35-3.088 6.766-4.562 10.191L811 242h-2c1.208-4.847 3.492-9.013 5.875-13.375 2.26-4.163 4.465-8.314 6.563-12.562z"/><path fill="#d7a48f" d="M823 425c4.431 1.003 8.346 3.066 12.375 5.125l3.21 1.633L841 433l-4 2-1-2h-4v-2l-4 1v-3c-3.5.125-3.5.125-7 1v3h-2c2-5 2-5 4-8"/><path fill="#d17e62" d="m943 355 1 4c-2.991 2.991-4.846 3.962-9 5v-4l-3-1c2.943-5.887 4.824-5.46 11-4"/></svg>