<svg xmlns="http://www.w3.org/2000/svg" width="1408" height="768"><path fill="#cf6c4b" d="m832.629 233.113 4.371 3.012 8.75 5.945 3.86 2.65c2.741 1.844 5.556 3.58 8.39 5.28v2c-2.569.5-5.157.895-7.75 1.25-13.307 2.244-22.286 6.698-30.25 17.75-6.358 12.148-10.046 25.197-14.063 38.25q-1.127 3.629-2.258 7.256-2.273 7.298-4.535 14.598a4539 4539 0 0 1-9.082 28.834l-1.61 5.076a7171 7171 0 0 1-11.55 36.002c-3.856 11.927-7.69 23.862-11.527 35.797l-1.168 3.634c-4.9 15.244-9.792 30.491-14.668 45.743q-2.014 6.297-4.035 12.59c-2.9 9.04-5.782 18.083-8.582 27.154l-1.389 4.449a843 843 0 0 0-2.441 7.967c-.917 2.922-1.989 5.794-3.092 8.65-4.158 2.08-6.016 2.265-10.557 2.306l-4.034.049-4.35.016c-1.475.01-2.95.018-4.468.027q-4.677.022-9.353.028c-4.785.011-9.569.06-14.353.111q-4.539.015-9.076.022l-4.357.059-4.025-.019-3.55.016L659 549c-3.343-5.572-5.135-11.16-7.063-17.312l-2.671-8.403-1.537-4.85a5153 5153 0 0 0-5.932-18.501c-6.828-21.194-13.644-42.391-20.36-63.621-6.965-22.02-14.02-44.012-21.087-66q-2.467-7.676-4.93-15.353-3.288-10.242-6.58-20.482l-2.541-7.916q-1.77-5.517-3.545-11.03l-1.065-3.323c-1.44-4.47-2.944-8.847-4.689-13.209-3.926 2.132-7.357 4.431-11 7a2060 2060 0 0 1-8.86 5.8q-4.946 3.255-9.89 6.513l-4.96 3.263A5075 5075 0 0 0 513 341q-4.566 3.046-9.134 6.088a5069 5069 0 0 0-5.602 3.742c-8.478 5.666-17.011 11.245-25.553 16.815l-3.274 2.136-3.222 2.102c-4.218 2.777-8.392 5.617-12.559 8.47C451 382 451 382 446 384v2l5 2a689 689 0 0 1 11.25 6.5l3.243 1.905q3.244 1.905 6.484 3.815 3.96 2.33 7.925 4.647c6.094 3.566 12.166 7.154 18.16 10.883 7.25 4.495 14.632 8.757 22.006 13.044 6.706 3.9 13.382 7.842 20.014 11.866a557 557 0 0 0 9.367 5.461c28.953 16.618 28.953 16.618 34.182 32.983 2.217 8.543 1.89 17.244 1.87 26.007a673 673 0 0 0 .085 9.518q.008 3.006.008 6.012l.021 5.516L585 530c-5.341-1.068-8.093-2.744-12.625-5.687-4.625-2.957-9.215-5.86-14.063-8.438-4.943-2.632-9.674-5.536-14.43-8.492-4.741-2.91-9.527-5.745-14.32-8.57l-2.859-1.687q-4.35-2.565-8.703-5.126c-16.754-9.87-33.442-19.847-50.106-29.868A5873 5873 0 0 0 432.5 441c-11.945-7.07-23.873-14.165-35.75-21.347a845 845 0 0 0-7.656-4.532c-9.205-5.5-15.091-9.78-18.969-20.121-1.92-8.537-1.36-14.81 1.875-23 5.551-7.883 12.57-12.246 20.695-17.309a230 230 0 0 0 10.867-7.253c4.427-3.103 8.929-6.01 13.536-8.836 9.157-5.7 18.083-11.721 27.003-17.78 4.735-3.216 9.477-6.422 14.22-9.627l2.812-1.9c10.4-7.018 20.902-13.874 31.425-20.704a914 914 0 0 0 9.754-6.466c7.298-4.888 14.65-9.692 22-14.5 7.916-5.179 15.826-10.364 23.688-15.625l9-6 3.442-2.301c3.89-2.596 7.786-5.18 11.683-7.761l3.777-2.53c10.369-6.847 18.5-10.77 31.098-9.408 8.552 2.777 14.888 7.322 19.402 15.184 3.497 7.286 5.617 15.025 7.91 22.754q1.594 5.272 3.192 10.542l1.711 5.662c3.105 10.226 6.327 20.415 9.535 30.608l2.046 6.512 4.144 13.183q3.024 9.621 6.04 19.246a70174 70174 0 0 0 25.57 81.41l.927 2.948a528 528 0 0 0 4.239 12.945C693 449 693 449 693 452h2c.756-2.844 1.497-5.692 2.168-8.557 1.302-5.387 2.98-10.646 4.64-15.931l1.1-3.529q1.76-5.648 3.53-11.295l3.687-11.832 2.45-7.862c3.272-10.49 6.513-20.99 9.737-31.494q8.42-27.407 16.917-54.79 1.866-6.014 3.726-12.03 2.523-8.157 5.058-16.313.975-3.137 1.943-6.275C761.599 234.398 761.599 234.398 776 224c20.067-10.424 39.424-2.517 56.629 9.113"/><path fill="#cf6c4b" d="M887.445 269.958c10.232 6.478 20.297 13.186 30.312 19.991 17.904 12.162 35.927 24.125 54.048 35.96 7.098 4.647 14.145 9.37 21.195 14.091q6.217 4.159 12.438 8.313l2.98 1.995c5.653 3.775 11.348 7.455 17.143 11.01 7.579 5.227 11.627 11.62 13.439 20.682.836 8.476-1.172 16.02-6.14 23.012-3.35 3.5-6.747 5.655-10.922 8.113l-4.817 2.863L1012 419a3446 3446 0 0 0-7.92 4.76c-4.022 2.42-8.052 4.829-12.08 7.24l-5.04 3.023a9183 9183 0 0 1-9.327 5.59 3952 3952 0 0 0-26.068 15.74c-10.506 6.4-21.047 12.71-31.717 18.835C909.826 480.002 899.923 486.019 890 492c-18.51 11.146-37.108 22.146-55.742 33.082-2.761 1.625-5.51 3.27-8.258 4.918h-3c-.372-4.004-.372-4.004-.363-9.562l-.002-2.97q.004-3.127.029-6.255c.023-3.171.02-6.342.014-9.514.04-14.823 1.17-25.778 9.822-38.324 3.098-2.988 5.755-4.897 9.402-7.102l3.514-2.128a3042 3042 0 0 1 16.647-9.895 3230 3230 0 0 0 23.812-14.187c9.54-5.74 19.148-11.363 28.757-16.985 7.265-4.253 14.521-8.515 21.716-12.887 2.991-1.795 6-3.548 9.023-5.289.466-.27.466-.27 2.822-1.643a549 549 0 0 1 5.55-3.188c2.146-1.258 4.212-2.653 6.257-4.071-1.592-4.777-6.025-6.493-10.125-9.062l-5.508-3.516-2.763-1.756c-5.93-3.794-11.755-7.748-17.604-11.666l-5.508-3.672q-6.87-4.579-13.734-9.168-3.816-2.55-7.633-5.097l-3.816-2.553a1298 1298 0 0 0-22.107-14.45 648 648 0 0 1-13.753-9.122c-3.565-2.354-7.155-4.597-10.804-6.813l-6.707-4.187-3.342-1.966c-2.881-1.826-5.316-3.432-7.596-5.972.191-4.684.191-4.684 2-9l2-5c11.787-19.644 34.976-24.11 54.445-13.042"/><path fill="#cf7354" d="M760 242h1c.188 4 .188 4 0 8h-2c-.367 2.662-.695 5.33-1 8a506 506 0 0 1-2 6l-.5 3.875L755 271h-2v4l5 1c.594 2.688.594 2.688.5 6l-.031 3.313L758 288l-3 1a184 184 0 0 0-.562 12.563A295 295 0 0 1 754 314h-2v-7h-2a400 400 0 0 0 0 10l-1 1h-6l-1 2h-1l-1 4-2 2-1 3.188-1 2.812-2-1a131 131 0 0 0-3 8c-1.288-3.865-.467-5.404.781-9.262l1.281-4.011 1.438-4.414q1.519-4.74 3.035-9.481l1.676-5.22a2596 2596 0 0 0 5.723-18.225l1.006-3.238a16574 16574 0 0 0 3.974-12.799c.93-3.003 1.866-6.004 2.8-9.006l1.63-5.244c1.762-5.427 3.617-10.771 5.656-16.1"/><path fill="#d17b5d" d="M813.438 221.625c6.365 2.877 12.21 6.77 18.062 10.563l2.959 1.91c2.697 1.82 2.697 1.82 6.541 4.902l-3 2-1-2-3-1-3-1-1-2-5-1-3-2-1 3-3.5.375-3.5.625-1 5-2-2-3 1v-4h-6v-4h-2l-.375-4-1.625-4c-10.364-1.09-10.364-1.09-15 2l-3-2c8.884-6.849 23.18-5.776 33.438-2.375"/><path fill="#d1785b" d="M621 431h2l2 4 2 3q.569 4.493 1 9l1 4h3l1-5 3-1 2 1-2-2.25c-2-2.75-2-2.75-2-6.75l4 2v3h2v2l4 1c-.625 5.563-.625 5.563-2 11h-2c.033 3.093.074 6.188.223 9.277L640 468l-3 1c-.312 4.563-.312 4.563 0 9h2c3.38 6.857 4.456 11.477 3 19-3.104-4.656-4.403-10.003-6.098-15.297L634.707 478q-1.25-3.883-2.493-7.768a4105 4105 0 0 0-3.825-11.857q-1.213-3.773-2.424-7.547l-1.159-3.574c-3.568-11.203-3.568-11.203-3.806-16.254"/><path fill="#cf7454" d="M527 434c3.726 1.49 6.821 2.945 10.246 4.941l3.018 1.756 3.173 1.865 3.256 1.913C576.177 461.87 576.177 461.87 582 474v2h-2v-3c-3-.062-3-.062-6 1v6h-2l-.937-3.125L570 474c-3 2-3 2-4 6h-2l-2-8h-2c-.25-3.937-.25-3.937 0-8l2-1v5h2c.813-4 .813-4 1-8h-3v-2l-4-2v-3q-2.999-.51-6-1l-1-3h-3v-2l-3 .5-3 .5v-2h-6c-1.187-3.5-1.187-3.5-2-7h-3v-2l-3 1z"/><path fill="#cf6f4f" d="M988 338c4.017 1.607 6.837 3.071 10.352 5.45l3.082 2.071 3.191 2.166q3.112 2.101 6.227 4.2l3.088 2.084c2.987 1.98 6.01 3.885 9.052 5.779 7.2 4.673 11.746 9.095 15.008 17.25 1.938 9.688.803 16.052-3 25l-2 1c-.25-3.437-.25-3.437 0-7h2c.482-9.277.482-9.277-2-13l-2-2h-3l-2-1a2627 2627 0 0 1-.578-9.04c-.516-3.617-1.865-5.403-4.422-7.96l1-2h-3v-2l-5-1c-2.824-1.812-2.824-1.812-5.687-4-5.213-3.95-5.213-3.95-7.313-5v-2h-3v-2h-3v-2l-5-1z"/><path fill="#cc7458" d="M582 477c5.108 7.662 3.3 18.722 3.35 27.658q.025 3.233.082 6.466c.054 3.102.077 6.203.091 9.306l.06 5.632L585 530c-5.4-1.08-8.28-2.846-12.875-5.812-4.978-3.198-9.963-6.297-15.125-9.188 4.936-1.234 6.554-.263 11 2l3 3 4 1v2c2.938.688 2.938.688 6 1l1-1v-6c-3.562.375-3.562.375-7 1l1-4h2v-6h2c1.192-5.962 1.068-11.704 1-17.75a539 539 0 0 1 0-12.25z"/><path fill="#d17c60" d="m835 240 2 2-1 2h2v4h2v2h4v-4h-2c-.625-3-.625-3-1-6 4.076 1.63 6.717 3.048 10.188 5.563C856 249 856 249 858 250v2c-2.569.5-5.157.895-7.75 1.25-10.688 1.762-19.295 5.237-27.25 12.75v-5h2v-2l5-1-1-4 5-1v-3h2v-2h-4v-6z"/><path fill="#cf6f50" d="M974 434h2l1 4 2 1-3.262 1.906c-8.19 4.8-16.317 9.65-24.297 14.793L949 457l-2-1c-1.026-4.822-1-9.041-1-14l2-1v5l4-4c4.25-.437 4.25-.437 8 0v3l5-3v-3q3.972-1.575 8-3z"/><path fill="#d99d87" d="M730 538h2c-.625 4.375-.625 4.375-2 9-4.19 2.095-6.014 2.248-10.589 2.243l-4.054.01-4.369-.023h-4.482q-4.689-.006-9.378-.024c-4.807-.018-9.613-.02-14.419-.02l-9.096-.018-4.387-.003-4.026-.02-3.563-.011C659 549 659 549 658 548v-5l1 3c2.733.401 2.733.401 6.432.436l4.176.058 4.548.01 4.63.03q4.857.022 9.714.022c4.979.006 9.955.06 14.934.118q4.704.014 9.41.017l4.548.066 4.176-.028 3.699.013L728 546c.84-2.92.84-2.92 1-6z"/><path fill="#d28266" d="M641 287c1.665 3.33 2.831 6.324 3.953 9.848l1.12 3.498 1.177 3.716 1.205 3.79 2.405 7.578q1.528 4.776 3.1 9.539c.55 1.68 1.1 3.362 1.665 5.094l1.477 4.472C658 338 658 338 657 341l-2-3h-2l-1-6h-2a281 281 0 0 1-1-7l-2-5h-1l.313-4-.313-4h-6v-6h2v4h2l1-5h-2a172 172 0 0 1-2-7l-1-1c-.239-7.522-.239-7.522 1-10"/><path fill="#d58f77" d="m848 268 2 1-4 4-1 4h-3v5h-3l-1 2h-3c-1.02 4.08-1.8 7.795-2 12 4 3 4 3 9 4v2h4v2h2v3h3l2 5c-5.394-2.158-10.078-4.932-14.937-8.062l-2.729-1.624c-2.549-1.662-2.549-1.662-6.334-5.314.638-9.558 5.175-17.678 12.188-24.062 4.336-3.7 4.336-3.7 6.812-4.938"/><path fill="#d7947c" d="M620 232c9.43 8.383 11.76 21.178 15.313 32.813l1.705 5.45 1.595 5.194 1.462 4.75C641 284 641 284 640 287l-1-2-2 1a247 247 0 0 1-1-9l-1-2 1-2-4-1v-4h-4v-2h2c-.25-5.5-.25-5.5-1-11h-2l-1 2-.148-3.281-.227-4.219-.21-4.219c-.138-1.083-.274-2.165-.415-3.281h-2l-.437-3-.563-3h-3z"/><path fill="#d38e76" d="M876 495h3l1 3c-2.848 2.023-2.848 2.023-7.062 4.375l-4.7 2.668-2.56 1.439c-4.72 2.675-9.384 5.443-14.053 8.205l-2.845 1.674c-4.916 2.902-9.76 5.878-14.53 9.014L830 528l-2-1c1-4 1-4 5-8 3-.04 6-.044 9 0v-3h5v-3h3v-2c3-2 3-2 7-2v-2l2-2h3v-2l5-2 2 1v-2l4-2z"/><path fill="#d99b85" d="m827 475 2 3-1 1c-.816 5.334-1.16 10.582-1.281 15.973l-.114 4.474-.21 9.242-.114 4.471-.092 4.051C826 521 826 521 825.295 524.927L825 528l3 1-5 1c-.6-3.89-.6-3.89-.559-9.465l.007-2.973q.015-3.136.065-6.273c.049-3.18.061-6.36.067-9.541.156-22.484.156-22.484 4.42-26.748"/><path fill="#d48d75" d="M391 415c8.738.738 8.738.738 10 2l3.625.375L408 418l-1 3c3 3 3 3 6.5 4.5s3.5 1.5 6.5 4.5l2 1v2h5v2l4.375.188L436 436c1.563 3.563 1.563 3.563 2 7-12.904-5.162-24.802-13.434-36.687-20.625l-3.098-1.866A434 434 0 0 1 391 416zm490-85q4.538 1.387 9 3v2l5-1v2h2v3l4 1 1 2 3.563 1.5L909 345v2l5 1 2.438 2.5c2.988 2.915 4.575 2.866 8.562 3.5l1 4c-4 1-4 1-6.733-.54l-3.126-2.308c-4.706-3.397-9.43-6.711-14.282-9.898l-3.55-2.346a4313 4313 0 0 0-7.258-4.773l-3.504-2.319-3.161-2.08C882 332 882 332 881 330"/><path fill="#d3846a" d="M600 366h4v3h2v5h4l-2 5c2.875.688 2.875.688 6 1v2h-5c0 3.375 0 3.375 1 7l3 2a172 172 0 0 1-2 7l2 1-2 4a8560 8560 0 0 1-5.5-16.812l-1.59-4.838-1.504-4.62-1.396-4.268C600 369 600 369 600 366"/><path fill="#d59078" d="M527 434c3.726 1.49 6.821 2.945 10.246 4.941l3.02 1.758 3.172 1.863 3.238 1.896c7.905 4.65 15.688 9.46 23.324 14.542l-2 1-3-1-3 1v-2l-4-2v-3q-2.999-.51-6-1l-1-3h-3v-2l-3 .5-3 .5v-2h-6c-1.187-3.5-1.187-3.5-2-7h-3v-2l-3 1z"/><path fill="#d5957e" d="M760 242h1c.188 4 .188 4 0 8h-2c-.367 2.662-.695 5.33-1 8a506 506 0 0 1-2 6l-.5 3.875L755 271h-2c-.043 2.333-.04 4.667 0 7l-1 2h-2v3h-2l.5 3 .5 3h-2a156 156 0 0 0-3 8c-1.495-4.486.17-7.407 1.605-11.875l1.733-5.426 1.85-5.699 1.79-5.605c5.956-18.55 5.956-18.55 9.022-26.395m-7 33h2l1 3-3-1z"/><path fill="#d38c73" d="M743 495h3c-1.891 9.507-5.023 18.682-8.062 27.875l-1.354 4.223-1.307 3.957-1.18 3.609L733 537l-2-2c0-6 0-6 2-11h2l-.062-3.437c.069-5.072 1.361-8.815 3.062-13.563v-3l3-1 1-4.062z"/><path fill="#e3ae9c" d="M584 485h1c.299 6.423.314 12.852.35 19.281q.025 3.286.082 6.568c.054 3.136.077 6.27.091 9.405l.06 5.729L585 530c-5.4-1.08-8.28-2.846-12.875-5.812-4.978-3.198-9.963-6.297-15.125-9.188 4.936-1.234 6.554-.263 11 2l3 3 4 1v2q2.988.57 6 1l1 1c1.66-3.32 1.21-6.832 1.281-10.508l.114-5.176.21-10.906.114-5.168.092-4.785c.03-.57.03-.57.189-3.457"/><path fill="#d4896f" d="M774 404c1.354 4.063.248 6.027-1.09 10.074l-1.377 4.21-1.47 4.404-1.46 4.439A2678 2678 0 0 1 765 438c-2-3-2-3-3-7 .88-3.01 1.875-5.987 2.938-8.937C766.772 416.95 768 413.454 768 408h2l1-3z"/><path fill="#d2896e" d="m594 226-5 1v2c-2.336 1.727-2.336 1.727-5.375 3.625l-3.023 1.914C578 236 578 236 576 236l.125 3.938L576 244l-4 1v-2l-3 3-5-1-5 1c3.137-3.137 5.638-5.239 9.281-7.602l3.051-1.984 3.168-2.039 3.168-2.062C589.246 224.81 589.246 224.81 594 226"/><path fill="#d69179" d="M1031 367c5.241 4.25 6.532 8.51 8 15 .755 7.659-1.04 13.037-4 20l-2 1c-.25-3.437-.25-3.437 0-7h2c.505-6.872-.473-12.66-2.266-19.215-.853-3.237-1.356-6.46-1.734-9.785"/><path fill="#d6947d" d="M884 269c7.468 2.987 13.81 7.573 20.5 12l4.344 2.813 4.062 2.687 3.76 2.469L919 291l-3 2-1-2-5-2-1-2-4.062-2-3.938-2v-2l-3.875-.375L893 280l-2-4h-3v2h-2l.063-3.437L886 271l-3-1z"/><path fill="#d58e75" d="M808 301c-1.532 8.096-4.162 15.896-6.625 23.75l-.949 3.034A308 308 0 0 1 798 335h-1a162 162 0 0 1 0-11l2-1v-3.687c0-4.045.39-6.644 2-10.313l2-1-1-5c3-2 3-2 6-2"/><path fill="#d3876d" d="M974 434h2l1 4 2 1-3.437 2.012-4.563 2.675-4.5 2.637a254 254 0 0 0-8.937 5.57L954 454l-2-1 2-4h5l-1-3 5 1v-4l2-1v-3q3.972-1.575 8-3z"/><path fill="#d99982" d="M701 431h1c.245 4.896.224 7.552-2 12-.65 3.946-1.207 7.895-1.73 11.86L697 458c-3.738.766-3.738.766-7 0l2-5c-1.312-4.312-1.312-4.312-3-8h-1a256 256 0 0 1 0-8c2.982 4.473 5 9.58 5 15h2c.767-2.902 1.524-5.808 2.207-8.73 1.015-4.187 2.31-8.227 3.793-12.27"/><path fill="#d78e75" d="M841 240c4.076 1.63 6.717 3.048 10.188 5.563C856 249 856 249 858 250v2c-2.957.52-2.957.52-6.812.813l-3.833.332C844 253 844 253 841 250h3v-4h-2c-.625-3-.625-3-1-6"/><path fill="#d6967f" d="m869 440 2 1c-3.683 6.138-6.505 6.502-13 9l-1 3-9 1-1 3h-4l-1 2-4 4-2-1v-2c2.14-1.523 2.14-1.523 5.25-3.375l3.535-2.113L849 452q2.625-1.613 5.246-3.23l5.442-3.332 2.682-1.664c2.174-1.32 4.398-2.555 6.63-3.774"/><path fill="#d27e61" d="m909 462 1 4h4v2h2l1-3 3 1v3c3.5.188 3.5.188 7 0-4.084 3.446-8.365 6.34-13 9l-2-1 1-4 3-1v-2l-4 1v-3h-6v-2h2z"/><path fill="#d47859" d="M734 338h2v8h2c.938 3 .938 3 1 6h-5l-1-1-1 3-3-1-1-3-2 3c.549-4.571 1.417-8.674 3-13l1 4 2 1c1-3 1-3 2-7"/><path fill="#d59179" d="M1032 403v3c-3.278 2.51-6.539 4.763-10 7l-4.156 2.715c-8.404 5.388-8.404 5.388-11.844 7.285l-2-1-1-3h4v-2h3l1-2h2v-2c4-2 4-2 10-2l1-4h3v-3z"/><path fill="#d79b86" d="M988 338c4.017 1.607 6.837 3.071 10.352 5.45l3.082 2.071 3.191 2.166q3.112 2.101 6.227 4.2l3.075 2.075c3.063 2.032 6.165 3.987 9.284 5.933C1028 363 1028 363 1029 365a110 110 0 0 1-7-2v-2h-3v-2l-5-1c-2.824-1.812-2.824-1.812-5.687-4-5.213-3.95-5.213-3.95-7.313-5v-2h-3v-2h-3v-2l-5-1z"/><path fill="#d48e76" d="M582 295c.188 3.813.188 3.813 0 8l1 4-2 3-1.312-5-1.688-5c-5.021 0-8.438 3.746-12.383 6.64-.863.45-1.727.898-2.617 1.36l-1-4h2l1-2h2v-2l3-1 1-2h4v-2c3-1 3-1 7 0"/><path fill="#d58f77" d="m646 503 2 1c1 4 1 4 .938 7.688L649 515l2 1v8h2v2l3-1-1 3 1 1c1.325 7.35 1.325 7.35-1 12q-2.227-6.81-4.437-13.625l-1.276-3.895c-.403-1.243-.806-2.487-1.22-3.77l-1.127-3.459c-1.428-4.94-2.201-8.205-.94-13.251"/><path fill="#d59077" d="m950 392 2 1-6 6-2 4c-3.625.125-3.625.125-7 0v2c-8.28 3.24-8.28 3.24-12 2q5.5-3.301 11.004-6.594a515 515 0 0 0 7.148-4.375c2.249-1.4 4.544-2.724 6.848-4.031"/><path fill="#d18165" d="m550 302 4 2v2l3.563.438L561 307c-1.451 4.354-4.206 5.456-8 7.938l-3.875 2.59L546 319l-1-4h2v-2l3-1c1-4 .807-6.055 0-10"/><path fill="#d48b73" d="M854 311c4.938 1.125 4.938 1.125 10 3l2 5 5-1c5 5.889 5 5.889 5 9-4.76-1.904-8.386-4.09-12.625-6.937l-3.977-2.653C856 315 856 315 853 312z"/><path fill="#d6937c" d="M483 470c4.614.42 6.133 1.1 10 4h7l-1 3 3 1v3l2.875-.687L508 480c1.375 2.938 1.375 2.938 2 6-4.594-1.838-8.637-3.944-12.937-6.375l-4.153-2.336c-3.398-1.99-6.7-4.009-9.91-6.289z"/><path fill="#d49078" d="m907 477 5 1c-4 3.365-8.22 6.104-12.687 8.813l-4.012 2.457c-1.09.57-2.179 1.142-3.301 1.73l-2-1 1-4c3.063-.625 3.063-.625 6-1v-2c3-2 3-2 7-2v-2h3z"/><path fill="#d9a28d" d="M884 268v1c-6.517.241-6.517.241-9-1a517 517 0 0 0-12.625-.062l-3.586.013q-4.395.02-8.789.049c8.367-8.367 24.365-3.814 34 0"/><path fill="#da9b84" d="M658 341c2.662 5.324 4.357 10.845 6.188 16.5l1.154 3.457c2.775 8.574 2.775 8.574 1.658 13.043l-2-5-1 3h-2q-.063-4.5 0-9h-1l-.437-5.187C660 352 660 352 658 347c-1-4-1-4 0-6"/><path fill="#d6947d" d="M641 287c2.441 4.882 4.031 9.94 5.688 15.125l1.01 3.074c2.421 7.563 2.421 7.563 1.302 9.801-2.847-3.623-4-5.306-4-10h-2a172 172 0 0 1-2-7l-1-1c-.239-7.522-.239-7.522 1-10"/><path fill="#d48c73" d="M943 455h3l1 3c-3.77 2.734-3.77 2.734-8.812 5.75l-5.02 3.047L929 469l-2-1v-3h5l1-4 4-1 1-3 5-1z"/><path fill="#d58f77" d="M514 335h2v2l2 1-5.062 3.188c-3.44 2.176-6.722 4.39-10 6.812L500 350l-2-1c1.119-4.476 1.05-4.05 4-7l3 1 1-3h4v-2h3z"/><path fill="#d69883" d="M510 486c7.411.607 7.411.607 11 3v2l3.125.813c4.341 1.33 6.647 3.036 9.875 6.187l1 3c-5.46-2.184-10.3-5.034-15.312-8.062l-2.823-1.682A370 370 0 0 1 510 487z"/><path fill="#d58a71" d="m474 458 2 4 4 1c1.75 3.563 1.75 3.563 3 7-4.33-1.732-8.01-3.62-12-6l-3.625-2.125L465 460c3-2 3-2 9-2"/><path fill="#d6927a" d="m590 335 3 2-1 3h2v2h2c2.77 6.464 3.205 11.098 2 18-2.636-3.953-3.703-7.968-5.125-12.5l-1.633-5.156C590 338 590 338 590 335"/><path fill="#d3856b" d="M529.563 323.688 533 324l1 3c-2.93 2.402-2.93 2.402-6.875 4.938l-3.93 2.59L520 336l-1-4 4 1v-4h2l-1-3c2-2 2-2 5.563-2.312"/><path fill="#d59680" d="m475 300 2 1c-3.1 3.57-5.88 5.528-10 8l-3 4c-6.111 3.222-6.111 3.222-11 2q5.428-3.794 10.875-7.562l3.129-2.194c2.624-1.81 5.306-3.534 7.996-5.244"/><path fill="#d2856c" d="M630 260h2v5l2 1 1 5h2c1.105 2.738 1.105 2.738 2.188 6.313l1.105 3.55C641 284 641 284 640 287l-1-2-2 1a247 247 0 0 1-1-9l-1-2 1-2-4-1v-4h-4v-2h2z"/><path fill="#d79a84" d="m498 285 2 1-1 4a270 270 0 0 1-9 4l-4.812 3.313L481 300l-4-1z"/><path fill="#d6947d" d="M635 475h2v3h2c3.38 6.857 4.456 11.477 3 19-2.264-3.396-3.334-6.567-4.625-10.437l-1.352-3.997C635 479 635 479 635 475"/><path fill="#d38f76" d="M490 353c-1.36 5.44-3.81 6.287-8.437 9.313l-4.122 2.738L474 367l-2-1 1-4 7-1 1-4 4-1v-2c3-1 3-1 5-1"/></svg>