<svg xmlns="http://www.w3.org/2000/svg" width="1408" height="768"><path fill="#ce6e4b" d="M1030.59 263.791c11.214 7.563 22.535 14.819 34.183 21.698a311 311 0 0 1 10.29 6.386c4.29 2.715 8.606 5.148 13.074 7.543 5.41 2.99 10.624 6.303 15.863 9.582l3.82 2.383q8.261 5.156 16.508 10.336l4.234 2.656 3.817 2.398a228 228 0 0 0 6.855 4.063c5.234 3.007 10.338 6.21 15.453 9.414l3.242 2.029c7.106 4.459 14.145 8.987 21.071 13.721l3.75 2.375c7.84 6.332 13.793 14.798 16.25 24.625.839 12.334-.13 21.154-7.063 31.625-9.475 10.528-21.123 17.419-33.142 24.681-4.492 2.722-8.956 5.49-13.42 8.256l-2.636 1.63a1748 1748 0 0 0-17.302 10.87c-8.218 5.207-16.532 10.231-24.886 15.215a800 800 0 0 0-10.739 6.535 795 795 0 0 1-12.285 7.45c-30.462 18.126-60.62 37.146-88.902 58.55-12.448 9.303-12.448 9.303-16.813 8.875-4.7-2.82-7.142-5.964-9.125-11.062-2.079-13.988-1.046-25.508 6.375-37.625 18.857-25.048 45.883-39.39 72.938-54 1.63-.88 3.259-1.76 4.937-2.668 6.4-3.417 12.84-6.738 19.336-9.969a3537 3537 0 0 0 28.164-14.238l4.987-2.527c39.893-20.38 39.893-20.38 44.576-30.598 0-5.448-1.426-8.031-5-12-16.058-12.865-35.61-21.613-53.693-31.239q-4.337-2.31-8.666-4.632c-7.55-4.019-15.127-7.855-22.891-11.442-9.294-4.344-18.141-9.307-27.027-14.417-5.36-3.081-10.782-6.023-16.223-8.958-8.507-4.662-16.523-9.803-24.5-15.312-25.295-17.155-51.192-32.594-82.973-27.344C871.573 276.738 851.02 306.863 835 333l-2.758 4.465c-17.796 29.204-32.91 59.868-47.187 90.918-4.137 8.991-8.426 17.908-12.717 26.827a2317 2317 0 0 0-4.045 8.485C743.713 515.441 743.713 515.441 728 536c-.643.842-1.286 1.684-1.95 2.55-6.364 7.727-16.747 16.73-27.1 17.75-10.759.04-17.657-2.028-25.555-9.527-10.544-12.212-13.538-29.474-15.895-44.96l-.637-4.168c-3.523-24.085-5.232-48.386-7.117-72.641l-.329-4.228a7084 7084 0 0 1-1.58-20.74c-.958-12.741-2.017-25.46-3.372-38.165l-.357-3.354C637.683 300.151 637.683 300.151 623 281c-4.06-2.707-6.16-2.553-11-2-17.705 9.358-27.891 29.564-38 46l-1.837 2.944c-4.667 7.511-9.085 15.123-13.35 22.868l-1.944 3.513c-4.84 8.764-9.612 17.563-14.369 26.372C534.963 394.64 527.09 408.37 519 422l-2.914 4.957C509.78 437.605 503.185 447.924 496 458l-2.781 3.937c-4.97 6.924-10.121 13.437-15.957 19.649-1.966 2.099-3.842 4.281-5.7 6.476C456.35 504.876 436.068 518.14 413 520c-35.822 1.628-68.283-20.694-97.184-39.285-6.306-4.047-12.68-7.982-19.066-11.903l-3.343-2.052a7218 7218 0 0 0-18.845-11.51c-7.662-4.674-15.25-9.459-22.82-14.281a384 384 0 0 0-9.484-5.75C228.43 427.104 215.56 418.704 210 403c-1.98-9.899-1.894-19.58 2-29 11.77-16.976 29.095-26.146 46.387-36.598a1135 1135 0 0 0 26.863-16.777c6.058-3.873 12.245-7.533 18.418-11.218 4.38-2.619 8.734-5.262 13.02-8.032 5.787-3.73 11.736-7.175 17.675-10.656A1033 1033 0 0 0 382 261l4.121-2.719c14.152-9.383 28.27-18.776 41.582-29.332 3.824-2.26 5.928-2.542 10.297-1.949 5.875 5.074 7.652 11.838 8.285 19.406.36 14.424-4.335 26.702-13.738 37.594-8.723 9.03-17.913 16.363-28.547 23l-3.355 2.145c-9.539 5.916-19.477 11.12-29.396 16.364-5.578 2.954-11.098 5.958-16.53 9.175-4.891 2.883-9.865 5.387-15.032 7.753a386 386 0 0 0-21.156 10.672c-3.416 1.83-6.865 3.559-10.344 5.266C272.852 375.983 272.852 375.983 264 388c-.78 4.363-.477 6.237 1.875 10 16.017 15.377 38.781 24.46 58.37 34.393 10.707 5.431 21.361 10.902 31.755 16.92 23.105 13.32 46.285 25.079 73.562 19.562 24.19-10.22 39.429-31.643 53.438-52.875l2.738-4.078c13.417-20.274 24.915-41.787 36.671-63.047C579.55 245.625 579.55 245.625 622 233c13.825-2.833 26.587-.89 38.812 6.125L665 242v2l3 1c16.48 18.418 22.199 43.698 26.562 67.312l.6 3.17c5.221 29.274 6.263 59.104 8.025 88.732 3.935 66.03 3.935 66.03 8.813 82.786l2 1c.707-1.986 1.365-3.99 2-6a129 129 0 0 1 3.258-5.602c3.627-6.092 6.68-12.325 9.617-18.773l1.642-3.57c11.29-24.643 22.3-49.406 32.885-74.36C771.412 360.86 779.95 342.358 789 324l2.238-4.598c7.434-15.129 15.19-30.504 24.762-44.402l2.223-3.234c16.889-24.09 16.889-24.09 27.777-32.766l2.629-2.316c59.788-52.146 127.331-9.772 181.962 27.107"/><path fill="#d08264" d="M434.625 226.313C438 227 438 227 440.75 229.375c6.296 10.143 6.58 21.287 4.188 32.688-5.524 14.074-13.418 24.1-24.938 33.937l-2-1c.563-3 .563-3 2-6l5-1 1-3h2v-4h3v-4h2v-4h2l2-4 2-4h2c.533-3.317.925-6.656 1.25-10l.578-5.625L443 245h-2c-1.511-4.282-2-7.407-2-12-2.937-1.062-2.937-1.062-6-1l-1 4h3v2l4 2-1 2h-4v-4l-5 1c-.687 3.563-.687 3.563-1 7h-2v-2c-4.76-.77-8.297-1.176-13 0l-4-1q3.53-2.595 7.063-5.187l3.972-2.918L424 232l3.77-2.82c3.23-2.18 3.23-2.18 6.855-2.868"/><path fill="#cf6f4e" d="M736 515h2c1 5 1 5-1.687 9.938C727.284 538.185 717.175 549.93 702 556c-7.486.738-14.17.415-21-3l-1-2h6l1 3c3.816.145 3.816.145 8.563-.187l4.753-.293L704 553v-2l3-1-1-5c-.25-3.687-.25-3.687 0-7l3-2-1-4c3.938-.375 3.938-.375 8 0v2h6l-1 5 2 1-1-4 2-3h2a153 153 0 0 0 2-7c2-5 2-5 4-6l1-4 2 1z"/><path fill="#ce6b48" d="m817 290 1 2h4v4l-3 1-1 5h-2v-2h-2v6c-2.937 1.438-2.937 1.438-6 2l-1-1-1 5-2.937.875L800 314c-1.403 3.508-2 6.23-2 10v6h-2l2 3c-1 4-1 4-5 7l-4-1v2h-2c.77-8.082 4.276-14.762 8-21.875l2.688-5.18L800 310h2l1-4 1.5-3.437C806 299 806 299 807 294l4-1v-2h5z"/><path fill="#cd6c48" d="m785 346 2 2h5l-4 2c-1.148 4.076-2 7.757-2 12h-4v6h-4v-2l-3 1-.437 3.938L774 375l-4 2a162 162 0 0 0 0 9l-2 1 2 1v2h2v-4h3c-.062 3-.062 3-1 6h-4v2h-2l-2 4-2-1-2 2-1-1c.47-5.644 1.97-10.724 4-16h2l-.125-2.937c.2-6.49 2.557-11.495 7.125-16.063h2l.5-4 .5-4h2v-4l2-1 2-3z"/><path fill="#d8a792" d="M640 324h1c2.192 5.206 2.48 10.42 3 16l1 1c.545 5.117.968 10.24 1.402 15.367C647 361 647 361 649 364c.283 2.647.452 5.306.563 7.965l.226 4.865.211 5.108c.444 10.537 1.133 20.683 3 31.062 1.05 12.592 1.092 25.246 1.125 37.875l.014 3.93c-.005 3.065-.066 6.13-.139 9.195h-1a191 191 0 0 1-.708-7.542l-.396-5.004-.42-5.5-.444-5.651q-.71-9.026-1.407-18.053c-5.095-65.675-5.095-65.675-9.074-88.492C640 330 640 330 640 324"/><path fill="#d2977e" d="m246 345 2 1-3 1-2 5c-3 2-3 2-7 2l-1 3c-3.577 2.227-7.231 4.115-11 6l-.937 2.813c-1.276 3.826-3.017 5.598-6.063 8.187h-2v2h-2c-.205 3.307-.26 6.624-.25 9.938l-.016 5.59c.248 5.094.995 9.546 2.266 14.472l1 4h3l1 3c2.29 2.05 4.621 4.054 7 6-3 0-3 0-5-1l2 3c-7.686-3.843-10.987-10.188-14-18-1.98-9.899-1.894-19.58 2-29 9.052-13.056 20.564-20.939 34-29"/><path fill="#d39d87" d="m294 458 1 2h3l1 5c3.563 2.5 3.563 2.5 7 4v-3h2c2 5 2 5 2 8h4v2l4 1 1 2 5 2v2h3v2l5 2 5 3 4 1 4 4c4.594 3.112 8.738 5.326 14 7l4 3v2c-16.408-3.906-32.746-17.061-46.856-26.012-6.414-4.055-12.862-8.054-19.303-12.065-10.36-6.467-10.36-6.467-13.841-8.923v-1c4.5.313 4.5.313 9 1v2l2-1z"/><path fill="#d39d88" d="M700 368h1c.233 2.305.391 4.618.525 6.931l.274 4.6.287 5.055.633 10.582q.49 8.345.973 16.69c3.392 58.255 3.392 58.255 8.308 75.142l2 1v3l-2 1 1 2-4-2c-.125-3.625-.125-3.625 0-7h-2v-6h-1a601 601 0 0 1-1-12.937c-.866-12.929-.866-12.929-2-14.063-.21-2.476-.369-4.956-.5-7.437-.39-7.342-.39-7.342-1.5-9.563a218 218 0 0 1-.316-7.742l-.128-4.885-.119-5.248-.126-5.305c-.24-10.752-.412-21.502-.436-32.257l-.014-3.584c.005-2.66.065-5.32.139-7.979"/><path fill="#cd8a6f" d="M817 274c1 4 1 4-.312 7.25L815 284h-2l-.875 4.438L811 293l-4 1v5c-.988 2.79-.988 2.79-2.312 5.625l-1.301 2.852C802 310 802 310 799 313a224 224 0 0 0-4.5 8.125l-2.344 4.383C790 330 790 330 788.383 334.887c-1.44 4.283-2.452 5.94-6.383 8.113l-1-2c4.352-11.218 9.855-21.877 15.887-32.273 1.997-3.522 3.793-7.081 5.55-10.727 9.075-18.512 9.075-18.512 14.563-24"/><path fill="#d28a6f" d="M964 518h1c.243 8.514.243 8.514-1 11-.368 6.164.04 10.535 3 16l2 1-1-4h2l1-2 1 2h4v2h2l-1 5-3 1v-2l-4-1 1 3-1 3c4.454-.202 5.767-.767 9-4h2v-2h2v-2c4-2 4-2 8-2v-3l4-1c-1.312 6.558-3.785 7.448-9.078 11.055L983 552l-4.312 3.125C975 557 975 557 971.813 556.688c-4.7-2.82-7.143-5.965-9.125-11.063-1.375-9.249-1.796-18.706 1.312-27.625"/><path fill="#cf8266" d="M301 361c-3.163 3.163-5.832 4.566-9.812 6.563C280.856 372.983 271.354 378.84 264 388h-1c-.937-4.5-.937-4.5-1-9h6c1.639-3.873 2-6.795 2-11a172 172 0 0 1 7-2l1-3h6l1 3 4-3c4.447-2.224 7.111-2.163 12-2"/><path fill="#cd8c74" d="M957 221c-3 2-3 2-8.375 1.313C943 221 943 221 938 218c-17.757-2.87-35.275-2.62-53 0l-7 1c3.262-2.175 5.986-3 9.75-4.062l3.61-1.036c22.093-5.476 44.907-1.195 65.64 7.098"/><path fill="#cc7d60" d="M775 441h3c-1.402 5.609-3.946 10.652-6.375 15.875l-1.61 3.474a1025 1025 0 0 1-11.202 23.276l-1.422 2.87A293 293 0 0 1 754 493h-1c-.527-6.384.722-10.35 3.625-16 1.176-2.308 2.321-4.634 3.375-7h-2l1-3 2 1a124 124 0 0 0 1-8l1 2c3-3 3-3 5.063-8.187L770 449h2l.5-3 .5-3h2z"/><path fill="#cd8c74" d="M441 235c4.954 4.954 5.161 7.935 5.25 14.625-.212 18.649-10.106 30.91-22.8 43.43L420 296l-2-1c.563-3 .563-3 2-6l5-1 1-3h2v-4h3v-4h2v-4h2l2-4 2-4h2c1.253-4.949 1.133-9.922 1.125-15l.008-4.687c-.11-3.568-.429-6.824-1.133-10.313"/><path fill="#d08064" d="M1054 449v2h-2v3l-4 4h-2l-2 4c-2 3.313-2 3.313-4 6l-2-1 1-3-2-1-1 2v-3h-2v2c-3.85 2.31-6.732 3.908-11 5v-2l-4 1c2.792-2.792 4.902-4.194 8.332-6.031l3.17-1.707 3.31-1.762 3.276-1.762C1051.51 449 1051.51 449 1054 449"/><path fill="#d08262" d="m339 288 2 1-2 5-4 1v4h-2v-2h-2l-1 3-5 2-5 3h-6l-1 4-4-1v3h-6c5.451-5.451 12.443-9.005 19-13l4.766-2.914 4.609-2.774 4.273-2.574zm-7 11 3 2-1 3h-4v2l-3-1v-2c2.313-2.25 2.313-2.25 5-4"/><path fill="#d39982" d="M750 411h1c1.375 5.25 1.375 5.25 2 11-2.25 2.688-2.25 2.688-5 4h-2v2h-2v4h-2l-.437 4.313C741 441 741 441 738 444a299 299 0 0 0-1 6h-2l-1 4.5-1 4.5h-2v4h-2l-1 2c-1.462-4.385.273-6.47 2.156-10.64l2.102-4.688 2.242-4.922 2.148-4.781A2516 2516 0 0 1 743 426l2.059-4.518 1.91-4.154 1.7-3.706z"/><path fill="#d29278" d="M994 300c6.148.615 11.862 2.575 17 6v2h4v2h3l1 2 3.063 1.5L1025 315v2l3-1 2 1v-2h2c1.188 2.875 1.188 2.875 2 6l-1 2c-5.42-2.168-10.45-4.833-15.562-7.625l-2.97-1.62c-7.088-3.908-13.88-8.037-20.468-12.755z"/><path fill="#d69d82" d="M285 322v3h-2v5l-5 .938-5 1.062v2l-4 1v2c-3.684 2.177-5.657 3-10 3l-1 2h-5l-1 3-4-1c21.006-13.414 21.006-13.414 29.75-18.875l2.984-1.867C283 322 283 322 285 322"/><path fill="#d29076" d="M384 261v2l-2.875.813L378 265l-2 5-3-1v2c-5 3-5 3-8 3l-1 3h-2l-2 5-2 3h-2v-2c-3.437.688-3.437.688-7 2l-1 3c-3.562.188-3.562.188-7 0 3.707-3.707 6.387-5.461 10.938-7.875 8.07-4.424 15.648-9.403 23.23-14.603C381.803 261 381.803 261 384 261"/><path fill="#d28b71" d="M736 515h2c1 5 1 5-1.687 9.938-4.81 7.117-10.242 13.981-16.313 20.062l-2-1 1-5 4 1-1-4 2-3h2a153 153 0 0 0 2-7c2-5 2-5 4-6l1-4 2 1z"/><path fill="#d7a08c" d="M691 299h1c.86 4.1 1.644 8.19 2.375 12.313l.675 3.794a448 448 0 0 1 3.763 26.58l.374 3.34c.63 6.011 1.035 11.929.813 17.973h-1c-.864-3.745-.987-7.006-.937-10.875L698 348h-2c-.598-2.738-.598-2.738-1.062-6.312-.86-6.452-.86-6.452-1.938-9.688-.03-4.205.067-8.401.16-12.605L693 316h-2c-.175-2.829-.213-5.666-.187-8.5l.019-4.781z"/><path fill="#d69b83" d="M262 388h1l.25 3.125c1.44 7.442 6.637 10.83 12.703 14.93 5.932 3.787 11.98 7.378 18.047 10.945-2.9 1.45-4.921.736-8 0v-2l-3.5-.5-3.5-.5v-2l-3.5-.937L272 410v-3h-2l-1 3c-1-2-1-2-1-5l-3-3-2-5h-2c-.35-6.3-.35-6.3 1-9"/><path fill="#d69e85" d="M605 241v2l-3 1c-2 3-2 3-2 6-5.111 3-5.111 3-8 3l-1 3h-3v2h-2l-2 4-5 2-3 5-4 2c2.356-5.891 5.44-8.644 10-13l2.563-2.625C599.316 241 599.316 241 605 241"/><path fill="#d28e74" d="m1136 403 2 1c-3.23 4.615-3.23 4.615-6 6l-1.687 4.125L1128 418c-3.625-.375-3.625-.375-7-1-1.312 3-1.312 3-2 6l-2-1c-2.996-.364-5.997-.7-9-1 5.818-4.364 12.177-7.722 18.496-11.309C1131 407 1131 407 1133.973 404.59z"/><path fill="#d29b84" d="M650 401h1c3.525 16.303 3.082 33.268 3.125 49.875l.014 3.93c-.005 3.065-.066 6.13-.139 9.195h-1c-.732-5.413-1.108-10.87-1.562-16.312l-.412-4.914c-1.092-13.92-1.637-27.817-1.026-41.774"/><path fill="#d3957c" d="m543 369 3 3c-1.09 6.086-4.845 11.514-7.812 16.875l-1.58 2.895c-3.034 5.521-6.141 10.965-9.608 16.23h-1c-.187-3.437-.187-3.437 0-7l2-1c1-5 1-5 0-8 4-2 4-2 7-2v-3h2v-4h2v-7h2l.938-3.687z"/><path fill="#d0947c" d="m612 278-2 1.563-3 2.437-3.562 2.813C597.073 290.377 592.16 297.349 587 304q-1.994 2.505-4 5v-6h2v-4h2v-2h3l.438-4 .562-4h4v-2h3l-1-4h4v-2h2v-2c4-2 4-2 9-1"/><path fill="#d9a893" d="M459 448c0 5.54-5.326 9.18-9 13l-3.562 3.875c-12.039 8.478-27.253 7.963-41.438 7.125v-1c2.956-.164 5.916-.28 8.875-.375 19.146-.95 31.785-9.285 45.125-22.625"/><path fill="#d5a089" d="M1126 324c8.423 3.369 15.928 8.138 23.563 13 5.8 3.688 11.604 7.365 17.437 11l-4 1-1-2-4.437-.375L1153 346l-2-4-3-1v-2l-4-1v-2h-3v-2l-5-1c-3.25-1.375-3.25-1.375-6-3l-1-3h-3z"/><path fill="#d7aa95" d="M450 506c-17.246 12.934-36.373 15.518-57.254 12.535L390 518v-1a136 136 0 0 1 6.273-.027l3.938.037q4.152.052 8.305.117l3.945.033 3.65.051C419 517 419 517 421 515c4.579-1.351 8.196-2 13-2v-2h4v-2h4v-2c3-1 3-1 8-1"/><path fill="#d6a48f" d="M668 247c13.344 10.065 18.928 30.392 23 46v5l-3-1c-.757-3.314-1.405-6.653-2-10-1.343-5.48-2.901-10.753-5-16l-2-1-2-6-2-1-1.437-3.937C672 255 672 255 669 253c-.687-3.125-.687-3.125-1-6"/><path fill="#cf886d" d="m294 458 1 2h3l1 5c3.563 2.5 3.563 2.5 7 4v-3h2c2 5 2 5 2 8-6.916.228-11.956-3.782-17.437-7.5l-2.795-1.84A308 308 0 0 1 283 460v-1c4.5.313 4.5.313 9 1v2l2-1z"/><path fill="#c77356" d="M694 335c2.838 4.257 2 7.983 2 13h2c2.432 10.431 2.28 21.292 2.188 31.938l-.002 4.42c-.033 7.805-.033 7.805-.186 10.642h-1a169 169 0 0 1-.5-6.687c-.248-4.267-.658-8.103-1.5-12.313-.36-4.146-.695-8.288-1-12.437-.871-11.822-.871-11.822-1.527-15.594-.689-4.325-.532-8.6-.473-12.969"/><path fill="#d18f76" d="m818 358 1 2c-.959 2.221-2.031 4.393-3.148 6.54l-2.047 3.944-2.18 4.141-2.156 4.164c-3.888 7.45-3.888 7.45-5.469 10.211h-1c-.369-6.08.166-9.686 3-15v-6l5 1v-4h2l1-5z"/><path fill="#d4a18b" d="M769 367c1 4 1 4-1 9l-.5 3.313L767 382h-2a391 391 0 0 0-2 9l-2 4h-2v5h-2v5h-2l-1 5-3 1c1.932-6.893 4.309-13.255 7.313-19.75A881 881 0 0 0 769 367"/><path fill="#d5a38d" d="M1118 367c7.54-.168 12.404 4.551 18 9l2.836 2.137L1141 380v2h2v2l3 1c.858 4.29 1.32 7.672 1 12-3 3-3 3-7 6l-2-1 2.938-3.625C1144 394 1144 394 1144.125 390.313c-2.094-6.167-6.083-9.252-11.375-12.813l-3.465-2.344a410 410 0 0 0-8.098-5.156l-3.187-2z"/><path fill="#d6a089" d="M657 492h2q.569 3.991 1 8l1 1c.21 2.288.369 4.581.5 6.875.39 6.797.39 6.797 1.5 10.125h2v6h2l-.062 4 .062 4h3l1 5-2 3c-8.396-13.92-12-31.902-12-48"/><path fill="#d0886d" d="m853 299 4 1c-2.39 4.779-5.435 8.941-8.562 13.25l-1.827 2.547A363 363 0 0 1 842 322h-1c.039-2.481.158-4.961.313-7.437l.238-4.184L842 307c2-1 2-1 3-1l3-2 2 1 1-4h2z"/><path fill="#d59b82" d="M1033 323c8.514-.243 8.514-.243 11 1l1 3q3.986 1.06 8 2l1 2 3.063.938L1060 333v3h6c2 2 2 2 4 6-12.882-3.93-25.364-11.296-37-18z"/><path fill="#daa791" d="M704 435h1c.272 2.128.473 4.265.648 6.402l.354 4.117.373 4.418c2.434 27.49 2.434 27.49 5.625 37.063l2 1v3l-2 1 1 2-4-2c-.125-3.625-.125-3.625 0-7h-2v-6h-1c-1.978-14.493-2.321-29.387-2-44"/><path fill="#d1947c" d="M294 418c4.633 1.078 8.724 3.268 12.93 5.441l3.906 2.018 4.039 2.103 4.11 2.116c7.438 3.857 7.438 3.857 10.015 5.322v1c-12.245-1.245-12.245-1.245-16-5v-2l-4.687-.937c-6.005-1.201-9.453-3.418-14.313-7.063z"/><path fill="#d7a790" d="M224 421c4 2 4 2 6 4l2.875.938C236 427 236 427 240 430v2l5 1 1 3 3.563.5 3.437.5v3l4.375.875L262 442l2 5 4 1v2c-8.234-3.293-15.495-8.31-23-13l-4.82-2.996-4.555-2.879-4.148-2.617c-3.172-2.288-5.253-4.325-7.477-7.508"/><path fill="#d08e75" d="M1068 486h2v2l5-1 3 1c-3.477 3.477-7.05 5.484-11.312 7.938-8.271 4.772-8.271 4.772-12.106 7.44L1052 505l-2-1 1-3h4l.125-2.875L1056 495q4.99-1.048 10-2v-5z"/><path fill="#d3947b" d="M507 377c1.577 3.153.679 5.605 0 9-1.437 3.438-1.437 3.438-3 6h-2c-1.446 3.657-2.225 7.125-3 11l-5 1v2l-4 1c2.294-5.734 5.341-10.842 8.5-16.125l1.8-3.035c4.354-7.32 4.354-7.32 6.7-10.84"/><path fill="#d18e74" d="M940 270c7.284-.239 7.284-.239 11 1l3 3 2 1v-2h-3v-2c3.375-.312 3.375-.312 7 0l2 3 5 2c1.188 3.75 1.188 3.75 1 7-4.624-1.042-8.688-3.27-12.875-5.437A130 130 0 0 0 940 271z"/><path fill="#d6a18b" d="M560 286v7l-3 3a425 425 0 0 0-4 9l-2 3h-2v4h-2v2h-2v2l-2 1-1 3h-2c4.501-11.253 11.348-25.348 20-34"/><path fill="#d39880" d="M539 320c1.304 5.216-.047 8.08-2 13h-2v2h-2l-.25 3c-.975 5.201-3.337 8.03-6.75 12h-2v2h-2c1.22-5.04 3.691-9.277 6.25-13.75l2.418-4.234A771 771 0 0 1 539 320"/><path fill="#d0957f" d="M1195 375c5.39 7.186 4.606 15.326 4 24-1.289 5.537-2.908 9.908-7 14-.305-5.28-.317-6.577 3-11 .34-2.933.34-2.933.293-6.297l-.03-3.652-.075-3.801-.042-3.848c-.035-3.134-.089-6.268-.146-9.402"/><path fill="#d59c85" d="M1019 468v2c-3 2-3 2-6 2l-1 4-5 3-1 3a907 907 0 0 1-10 3 148 148 0 0 0-6 4h-3c5.786-5.3 11.756-9.676 18.375-13.875l2.73-1.758C1016.47 468 1016.47 468 1019 468"/><path fill="#d69c83" d="M617 273c3.81.087 5.527.527 8.25 3.25C627 279 627 279 629 284h2v6l2 1 1 4h1q.063 4.5 0 9c-1.923-2.884-3.05-5.474-4.312-8.687-5.2-12.654-5.2-12.654-10.688-16.313a418 418 0 0 0-8-1v-1q3.491-.562 7-1l-2-1z"/><path fill="#cf8165" d="M1022 514c5 2 5 2 8 5-2.734 2.262-2.734 2.262-6.75 4.688l-3.984 2.449C1016 528 1016 528 1015 528v-5l3-2-4-2v-3c3 1 3 1 4 3v-3h4z"/><path fill="#d3957b" d="M1049 277c5.39 2.156 10.173 4.95 15.125 7.938l2.746 1.63c3.748 2.252 7.025 4.328 10.129 7.432-6.472-1.233-12.115-3.01-18-6v-2h-3l-2-5h-6l-1 3c0-4 0-4 2-7"/><path fill="#d29982" d="m441 267 1 2c-3.344 7.982-8.177 13.653-14.25 19.75l-2.187 2.206c-1.791 1.748-3.67 3.406-5.563 5.044l-2-1c.563-3 .563-3 2-6l5-1 1-3h2v-4h3v-4h2v-2l3 1 1-5h2v-3z"/><path fill="#d9a68e" d="m849 236 2 1-3 5-1 3h-2v2l-4 2-1 3-2.937.875L834 254l-2 5c-3.625 2.813-3.625 2.813-7 5 4.895-9.79 12.513-18.18 21-25z"/><path fill="#d2967e" d="M995 539c-1.312 6.558-3.785 7.448-9.078 11.055L983 552l-4.312 3.125C975 557 975 557 971.5 556.375L969 555v-1l4.563.188L978 554l-1-4 4-1v-2h2v-2c4-2 4-2 8-2v-3c2-1 2-1 4-1"/><path fill="#d3977f" d="M789 411h3c-.855 4.276-1.833 7.1-3.687 10.957l-1.618 3.37-1.695 3.486-1.695 3.544A482 482 0 0 1 779 441h-1c.039-2.335.158-4.67.313-7l.238-3.937L779 427h2l1-4h3q.562-3.993 1-8h2z"/><path fill="#d29a81" d="m833 327 4 1c-2.14 5.35-4.907 10.088-7.875 15l-1.605 2.695c-2.603 4.327-5.218 8.477-8.52 12.305-.125-3.5-.125-3.5 0-7h2l.5-3 .5-3h2l1-3 1-3h2l1-5h3l.438-3.562c.185-1.135.37-2.27.562-3.438"/><path fill="#d59b83" d="M336 343c-3.336 3.336-6.33 4.813-10.562 6.875-4.8 2.346-9.578 4.713-14.313 7.188L307 359l-2-1v-3c2-1 2-1 5.688-.875L314 354l-1-3 5-1 1-3h4v-2l5 1v-2c3-1 3-1 8-1"/><path fill="#d3967e" d="M977 231c4.565 1.826 8.597 3.907 12.875 6.313l4.117 2.3c3.842 2.288 7.5 4.61 11.008 7.387-2 1-2 1-5.125.25L997 246v-3a256 256 0 0 0-8 0v-2h-5v-4l-3.5-.437L977 236z"/><path fill="#d0886d" d="M1011 526h2v2l2 1c-2.49 1.95-5.074 3.781-7.687 5.563l-4.45 3.066C999 540 999 540 996 540l1-5-1-3h2l2-4v2c4.5.813 4.5.813 9 1v-3h2z"/><path fill="#d3977f" d="m557 344 4 1c-.952 5.153-3.86 9.563-6.437 14.063l-2.372 4.16A692 692 0 0 1 547 372h-1c.188-4.437.188-4.437 1-9l4-1v-4h2a195 195 0 0 0 0-7l1-5 2 1z"/><path fill="#d1957d" d="M1191 414c-3.464 6.928-10.35 12.107-17 16h-2c1-5 1-5 3-8q2.993-.541 6-1v-2h4v-4c2-1 2-1 6-1"/><path fill="#d6a38b" d="M817 274c1 4 1 4-.312 7.25L815 284h-2l-.875 4.438L811 293l-4 1v4l-3 3h-2c1.272-6.04 4.88-11.12 8.063-16.312l1.681-2.784c4.087-6.735 4.087-6.735 5.256-7.904"/><path fill="#cf7e5f" d="m968 270-1 4h3v6c3 4 3 4 7 5l2 5c-4.356-1.742-7.422-3.045-11-6a249 249 0 0 1-3-8l-4-2-1-4c2.94-1.47 4.914-.891 8 0"/><path fill="#deb29d" d="m655 236 4 3c-5.09 0-7.226-.189-11.687-1.937-5.521-2.144-9.152-3.236-15-3.313l-3.575-.078L626 234v3h-5l-1-1q-3.51.43-7 1c12.073-8.048 29.256-6.428 42-1"/><path fill="#d39e88" d="M711 546h2v2l2 1c-9.335 5.698-14.955 7.755-26 7-4.75-1.375-4.75-1.375-8-3l-1-2h6l1 3c3.816.145 3.816.145 8.563-.187l4.753-.293L704 553v-2l3.5-.937L711 549z"/><path fill="#d5a28c" d="M775 441h3c-1.502 6.007-4.279 11.394-6.875 17l-1.645 3.602-1.597 3.46-1.457 3.16C765 471 765 471 762 475q.383-4.513 1-9l2-1 1-3h2v-5h2v-4h2l.5-5 .5-5h2z"/><path fill="#d6a48b" d="m246 345 2 1-3 1-2 5c-3 2-3 2-7 2l-1 3a131 131 0 0 1-7 4l-5 3-2-1c7.26-7.394 15.877-13.117 25-18"/><path fill="#d49a83" d="M1005 248c5.513 2.205 10.074 5.228 14.938 8.563.45.3.45.3 2.728 1.826 2.157 1.472 4.253 3.033 6.334 4.611-3.441 1.72-6.489.076-10-1v-2h-3v-2l-5-2-3-3-3-2z"/><path fill="#d7a38a" d="m339 288 2 1c-2 5-2 5-6.687 7.063L329 298l-3.75 2.188c-3.22 1.796-5.61 2.457-9.25 2.812 4.658-4.658 10.372-7.627 16-11l4.188-2.562z"/><path fill="#d2977e" d="M1176 355c7.914 3.957 13.063 8.647 18 16l1 4c-4-2-4-2-7-6v-2l-4-1v-2l-3 1v-4h-2v-3h-3z"/><path fill="#d39a82" d="M791 320h1c.365 6.452.365 6.452-2 10l-1.312 4.438c-1.656 4.475-2.56 6.28-6.688 8.562l-1-2a218 218 0 0 1 4.375-10.062c.425-.937.85-1.874 1.29-2.838 3.175-6.94 3.175-6.94 4.335-8.1"/><path fill="#c37253" d="m930 262 5 3 3 1v-2l2 1v2q3.986 1.06 8 2v1c-4.194.294-7.183.401-11-1.473-5.423-2.07-10.707-2.095-16.437-2.214l-3.374-.104c-2.729-.082-5.459-.147-8.189-.209 4.166-2.777 7.223-2.125 12.188-2 2.936.074 5.876.096 8.812 0z"/><path fill="#d8a892" d="m480 421 1 2c-1.722 3.875-3.812 7.354-6 11h-2l-1 5a132 132 0 0 1-12 9c2.04-4.082 4.57-6.859 7.629-10.2 3.808-4.497 7.055-9.38 10.367-14.25z"/><path fill="#d08b70" d="m506 426 3 3h2c1.238 6.19.05 7.353-3.312 12.5l-2.489 3.906L503 448c-2-3-2-3-2-5h3v-5h2c.195-2.625.195-2.625.125-6l-.055-3.375z"/><path fill="#d59881" d="M344 444c4.981 1.245 8.779 3.54 13.25 6.063l4.953 2.785L366 455c-3 1-3 1-8 1v-2h-4v-2h-4l-2-5h-4z"/><path fill="#cd8d74" d="M1171 431c-3.723 3.095-7.58 5.75-11.687 8.313l-3.45 2.175L1153 443l-2-1v-3a169 169 0 0 1 6-2v-2h2l-1-3c3.313-.625 3.313-.625 7-1 2-1 2-1 6 0"/><path fill="#d69f88" d="M521 352c1.59 3.178.795 5.635 0 9l-4 1 1 5c-2.046 3.069-4.387 5.387-7 8l-1 2h-2c1.285-5.85 4.618-10.77 7.625-15.875l1.563-2.664q1.9-3.235 3.812-6.461"/><path fill="#d6a58e" d="M367 327c-8.524 6.393-18.284 11.635-28 16l-3-1h2v-3h4v-2l6-1v-2c3-2 3-2 9-2l-1-3c5-2 5-2 11-2"/><path fill="#daab94" d="m876 219 2 1-3 1v2c-3 2-3 2-7 2l-2 4h-3v2c-8.118 4-8.118 4-12 4 6.888-6.552 15.905-12.968 25-16"/><path fill="#d39a83" d="M875 283a6114 6114 0 0 1-8.437 8.5l-2.432 2.457A572 572 0 0 1 858 300h-1v-5h2v-4h5l2-5 3-1v-2c2-1 2-1 6 0"/><path fill="#d19179" d="M957 222c4.825.965 8.386 2.413 12.813 4.5l4.082 1.906L977 230v1c-5.193.264-8.08-.032-13-2v-2l-5 1v-2h-3z"/><path fill="#d49278" d="M366 456c4.244 1.061 7.79 2.649 11.75 4.5 1.356.63 2.712 1.258 4.11 1.906L385 464v1a211 211 0 0 1-8.562.188l-4.817.042L368 465c1-2 1-2 4-3l-3.562-.75L365 460z"/><path fill="#d6a38b" d="M780 343h1c.188 4 .188 4 0 8h-2v4h-2l-.375 3.938L776 363l-4 1-1 3-1-2c.998-2.618 2.1-5.196 3.25-7.75l1.89-4.234c3.203-6.916 3.203-6.916 4.86-10.016"/><path fill="#e4b9a5" d="m912.438 211.875 5.433-.008L922 212v1c-4.88.294-9.762.451-14.648.621C903 214 903 214 901 216c-2.549.442-5.116.78-7.687 1.063-5.118.576-10.218 1.182-15.313 1.937 3.262-2.175 5.986-3 9.75-4.062l3.61-1.036c7.086-1.756 13.778-2.038 21.077-2.027"/><path fill="#d29a83" d="m523 407 3 1c-2.116 5.29-4.749 9.896-7.625 14.813l-1.562 2.677Q514.91 428.747 513 432c-1.606-3.212-.058-5.709 1-9l1-2h2v-4h2v-4l4-1z"/><path fill="#d6957c" d="M1054 449v2h-2v3c-4.515 4.515-5.893 4.612-12 5-3 0-3 0-5-1q4.184-2.257 8.375-4.5c1.555-.835 3.11-1.67 4.71-2.531C1052 449 1052 449 1054 449"/><path fill="#d3967d" d="M373 316h2v2l4-1c2.664-.353 5.33-.689 8-1-3.306 3.306-6.436 5.007-10.562 7.188l-4.067 2.167C369 327 369 327 367 327v-4l4-1 1-2-3-1 3-1z"/><path fill="#e3beab" d="m917.5 265.688 4.207-.05 4.074-.001 3.69-.01c3.976.42 6.948 1.638 10.529 3.373-4.985 1.246-8 .112-13-1-10.87-.672-20.64-.356-31 3l-3-1h2v-2c7.41-2.688 14.721-2.33 22.5-2.312"/><path fill="#d9aa93" d="M384 261v2l-2.875.813L378 265l-2 5-3-1v2c-5 3-5 3-8 3l-1 3-5 2-2-2c2.988-2.172 2.988-2.172 7.313-4.75 9.52-5.748 9.52-5.748 14.062-8.875C382 261 382 261 384 261"/><path fill="#d59e87" d="M725 466c1.888 3.775.562 7.963 0 12l-2 1-2 4-4 1-1 4h-2c1.126-4.492 3.12-8.182 5.5-12.125 1.96-3.265 3.795-6.465 5.5-9.875"/></svg>