<svg xmlns="http://www.w3.org/2000/svg" width="1408" height="768"><path fill="#ce6e4c" d="m530.938-.437 4.63-.061c23.05.01 41.709 8.123 58.307 23.998 46.685 47.868 57.775 129.528 68.027 192.637l.518 3.178c3.643 22.42 6.689 44.905 9.58 67.435q.606 4.676 1.216 9.35c3.169 24.32 6.264 48.65 9.34 72.982q.785 6.208 1.573 12.415l.526 4.143 1.05 8.271c.845 6.672 1.688 13.345 2.52 20.018 3.457 27.692 7.132 55.325 11.494 82.891l.558 3.534C712.178 575.356 712.178 575.356 718 587c3.085-6.513 5.74-12.917 7.925-19.782.974-2.916 2.093-5.782 3.227-8.64 3.927-10.162 7.14-20.566 10.41-30.953l1.098-3.478c14.625-46.506 27.24-93.643 39.88-140.72 2.445-9.086 4.92-18.163 7.398-27.24l1.47-5.387q8.036-29.434 16.131-58.852 2.634-9.577 5.254-19.159c4.672-17.031 9.552-33.969 14.93-50.79q1.364-4.27 2.71-8.544c10.18-32.28 20.551-64.533 36.567-94.455l2.652-5.344C874.83 99.421 886.748 87.084 902 82c10.465-.357 10.465-.357 14 2 .88 7.326-1.534 12.924-5.715 18.844-33.11 49.174-42.345 122.872-56.354 179.36a7706 7706 0 0 1-5.023 20.143c-3.73 14.863-7.39 29.738-10.908 44.653-74.582 313.48-74.582 313.48-123 345-12.138 6.566-23.34 9.982-37.187 6.813-16.39-6.173-25.866-19.443-33.168-34.75-36.491-83.129-41.147-183.313-51.561-272.51C578.543 267.105 578.543 267.105 569 212l-.95-5.578C547.9 89.154 547.9 89.154 517 62c-11.33-7.882-22.627-10.253-36.25-8.125-40.778 8.634-77.788 33.258-112.89 54.73-32.195 19.673-64.785 39.438-99.126 55.172-4.062 1.907-8.046 3.91-12.043 5.95C216.55 189.858 170.858 206.82 126 212l-4.383.61c-34.658 4.281-77.656 4.797-107.367-15.923C.48 184.74.48 184.74-.406 175.989-.596 166.553-.681 160.3 6 153c5.661-5.54 10.508-7.828 18.438-8.375 6.411.432 11.047.814 15.703 5.555q2.268 2.61 4.504 5.25C57.01 168.924 77.24 174.71 95 176c40.584 1.578 79.705-11.23 116.756-26.655a710 710 0 0 1 8.353-3.388c8.048-3.22 15.795-6.805 23.512-10.75 4.045-2.039 8.123-3.995 12.22-5.926 28.773-13.578 56.754-28.752 84.309-44.639q4.62-2.66 9.245-5.31c11.477-6.59 22.89-13.269 34.222-20.105C395.012 52.374 406.51 45.692 418 39l3.089-1.801C454.865 17.543 491.07-.622 530.938-.437"/><path fill="#cf6d4c" d="M966 198c2.848 2.99 5.106 6.155 7.438 9.563 2.581 3.463 5.23 5.718 8.562 8.437l2.688 3.313c4.574 5.091 10.15 9.606 16.312 12.687v2l5 2a232 232 0 0 1 6.5 4.375c15.749 10.622 32.456 19.288 49.5 27.625a4748 4748 0 0 1 7.563 3.813q4.216 2.099 8.437 4.187l2.885 1.434c27.376 13.56 55.698 25.961 85.303 33.816 6.972 1.93 11.324 4.257 15.124 10.625 6.96 17.014 4.59 36.958-2.183 53.77-5.23 10.865-11.166 18.589-22.555 23.203l-3.816 1.566-4.07 1.649c-21.788 8.99-42.93 18.772-63.688 29.937l-4.668 2.488c-27.114 14.726-53.664 32.138-76.004 53.492C1002 490 1002 490 1000 490v2c-2.266 2.492-4.697 4.738-7.242 6.941-6.346 5.525-11.623 11.404-16.758 18.059l-2.14 2.7c-19.148 24.692-33.668 53.115-37.86 84.3l-.687 4.813c-1.91 25.59 4.101 49.728 18.562 70.937 9.16 9.699 20.11 14.567 33.25 15.563 26.963-1.729 50.922-14.348 72.875-29.313l3.918-2.652c14.897-10.164 29.47-20.782 44.082-31.348l13.484-9.738 9.157-6.617q4.564-3.3 9.132-6.594 3.89-2.807 7.766-5.633c20.207-14.647 41.537-27.523 63.461-39.418l2.889-1.599c27.841-15.358 58.002-27.862 89.486-33.151l3.535-.629c28.67-4.976 61.384-4.597 86.777 11.317 10.924 7.757 10.924 7.757 14.313 14.062 1.115 8.514 2.438 19.196-3 26.438-8.314 7.404-15.03 12.562-26.625 12.562-8.537-1.951-13.352-6.977-19.375-13-16.642-13.551-38.08-16.692-58.945-14.605-22.735 3.617-43.856 14.333-63.055 26.605l-2.582 1.566c-14.39 8.82-27.706 19.374-40.418 30.434q-3.216 2.723-6.437 5.438L1181 635l-3.684 3.113c-6.007 5.105-11.793 10.254-17.316 15.887a959 959 0 0 1-8 7c-5.784 5.128-11.47 10.356-17.125 15.625-13.83 12.852-13.83 12.852-18.875 15.375v2c-1.487 1.354-3.044 2.631-4.625 3.875a455 455 0 0 0-13.437 11.188c-11.55 9.916-23.599 19.028-35.938 27.937l-3.684 2.668c-16.53 11.502-34.861 21.008-54.316 26.332l-3.757 1.045c-6.924 1.559-13.797 1.324-20.868 1.33l-4.45.074c-20.184.054-37.45-7.2-51.925-21.449l-1-3h-2c-1.68-2.258-3.269-4.584-4.812-6.937l-2.583-3.903c-28.61-45.683-28.61-105.403-16.98-156.515 8.39-34.44 22.869-65.854 43.375-94.645l2.633-3.71C953.258 462.413 966.77 447.563 981 434h2v-2h2v-2c1.508-1.375 3.085-2.674 4.688-3.937a428 428 0 0 0 12.5-10.375c25.184-21.361 54.035-40.168 83.398-55.278C1088 359 1088 359 1089 357c-1.983-.715-3.99-1.364-6-2-14.904-6.647-29.129-14.288-43.254-22.437-4.27-2.43-8.606-4.737-12.934-7.063-31.229-17.145-67.57-39.766-78.812-75.5-3.603-16.211-2.07-32.838 5.938-47.562 3.928-4.644 6.126-5.625 12.062-4.438"/><path fill="#cf6e4d" d="M447 192c8.757 5.841 12.564 16.069 14.938 26 4.526 25.22-4.402 48.836-18.356 69.598-14.486 20.64-31.91 40.425-51.715 56.097-3.308 2.66-6.486 5.447-9.68 8.243C375.42 357.76 368.324 362.906 361 368q-3.22 2.343-6.437 4.688C344.609 379.804 334.29 386.384 324 393l-2.874 1.854C313.26 399.9 305.178 404.477 297 409c-1.121.63-2.243 1.258-3.398 1.906C286.244 415 286.244 415 284 415v2c2.237.71 4.48 1.404 6.738 2.043 13.228 3.881 25.897 9.212 38.575 14.57a515 515 0 0 0 13.812 5.575c5.791 2.3 11.315 4.94 16.855 7.789 3.943 1.984 7.928 3.86 11.928 5.724C399.766 465.759 427.136 481.205 450 502l2.57 2.176c16.792 14.397 30.041 32.06 31.805 54.62.322 13.077-.22 27.403-8.375 38.204-3.774 3.774-5.739 3.92-11 4-3.98-2.594-6.14-5.467-8.562-9.5-7.15-11.033-17.099-19.528-27.438-27.5l-3.074-2.437C384.69 529.966 334.112 510.265 286 492l-4.17-1.599c-26.373-10.092-53.754-19.974-81.642-24.839-8.334-1.683-12.53-3.153-17.5-10.375-8.233-15.89-5.431-35.189-.622-51.89 3.487-9.897 8.65-17.93 17.934-23.297 2.219-.904 4.45-1.78 6.688-2.637 8.646-3.42 16.969-7.39 25.312-11.488l4.645-2.272C256.572 353.817 276.042 343.562 295 332l3.006-1.826C311.45 321.985 324.341 313.365 337 304q3.62-2.57 7.25-5.125C368.855 281.308 393.492 261.064 412 237l2.684-3.46c7.783-10.3 15.077-21.11 19.566-33.29 2.965-7.2 4.971-8.25 12.75-8.25"/><path fill="#cf6e4d" d="M447 192c8.757 5.841 12.564 16.069 14.938 26 4.526 25.22-4.402 48.836-18.356 69.598C428.713 308.783 428.713 308.783 422 313l-1-4 4-2 1-4 1-1 1-2 2 1 2-4-3-4v-3h-7l-1-3a272 272 0 0 1 5-6l1-4h2c.344-2.844.344-2.844.5-6.5s.156-3.656.5-6.5h2l.375-2.937L433 258l4-1 1-3h2l1 2 1-4h3l2-5 2 1v3l3-.625 3-.375v5h2v-8l2-1c2.922-8.767.743-20.062-1-29l-2-1v-2l-4-1-1-2-3 1-4-2v-2h-2l-1 2-1-2h-1v3c-2.5 2.188-2.5 2.188-5 4v-2h-2c-4 4-4 4-5 7h-2c1.93-4.823 4.137-9.358 6.484-13.984a282 282 0 0 0 3.641-7.578c3.212-5.89 5.169-6.438 11.875-6.438"/><path fill="#d17f63" d="M657 193h1c1.37 6.54 2.361 13.156 3.438 19.75l.517 3.15c3.628 22.221 6.615 44.527 9.545 66.85l.682 5.18q.962 7.34 1.912 14.68l.586 4.488.529 4.135.465 3.61C676 318 676 318 676 323l-3 3c-2-5-2-5-2-10l1-1v-6l-2-1-.437-5.187L669 298l-3 2c-1-4-1-4-.437-7.25L666 290h-2v-2l2-1 2-5h-1c-.295-4.555-.451-9.11-.621-13.672C666 264 666 264 664 260l-3.125 1.125L658 262v-6h-4c-1-2-1-2-1-8 1.438-3.187 1.438-3.187 3-6l1-3h2c.738-2.879.738-2.879 1.313-6.562l.613-3.692L661 226l-3 1c1-4 1-4 2-6h-2l-1-5-4-2c.063-3.187.063-3.187 1-6l3 1c.258-3.402.258-3.402.125-7.937-.07-2.687-.12-5.375-.125-8.063"/><path fill="#cb6b4a" d="M447 192c8.757 5.841 12.564 16.069 14.938 26 2.207 12.298 1.32 23.945-1.938 36h-1c-.239-7.284-.239-7.284 1-11 .389-8.683-.336-17.466-2-26l-2-1v-2l-4-1-1-2-3 1-4-2v-2h-2l-1 2-1-2h-1v3c-2.5 2.188-2.5 2.188-5 4v-2h-2c-4 4-4 4-5 7h-2c1.93-4.823 4.137-9.358 6.484-13.984a282 282 0 0 0 3.641-7.578c3.212-5.89 5.169-6.438 11.875-6.438"/><path fill="#ce6e4e" d="M146 192h6v2l5-2 1 2 5 2 4-2c3.75.25 3.75.25 7 1v2c2.67-.018 5.339-.167 8-.375l4.5-.336L190 196c-3.362 2.241-6.125 2.985-10.027 4.023l-4.312 1.15-4.599 1.202-4.672 1.225c-15.677 4.061-31.132 7.87-47.39 8.4v-1a502 502 0 0 0-12.5-.062l-3.613.013q-4.444.02-8.887.049c4-2 4-2 9-2l1-2c3.438-.125 3.438-.125 7 0 2 0 2 0 5.625-1.187L120 205v3c5 .25 5 .25 10 0v-1c3.642-.334 7.286-.516 10.938-.719L144 206v-1l5-1 1-2-4-1-1-4-1-3h2z"/><path fill="#d6937c" d="M825 396c-.465 5.881-1.46 11.407-2.946 17.108l-1.215 4.697c-.436 1.656-.87 3.313-1.32 5.02l-1.365 5.25c-1.441 5.54-2.891 11.076-4.341 16.613l-2.87 11.025A9235 9235 0 0 1 803 486l-1.04 3.941q-1.278 4.823-2.573 9.641l-1.357 5.058L797 508h-1c-.687-4.5-.687-4.5-1-9h2v-6h2c.095-2.498.074-5.001 0-7.5s-.095-5.002 0-7.5h2c.75-3.375.75-3.375 1-7l-2-2 4-1 1-5 2-4 1-4.25 1-3.75h2q.062-3.5 0-7l1-1c.75-4.562.75-4.562 1-9h-3c-.875-4.375-.875-4.375-1-9 3-2 3-2 5-2 1.403-2.63 2.73-5.302 4-8l2-4-.125-4.937C820 401 820 401 821.938 397.875 824 396 824 396 825 396"/><path fill="#d07657" d="M640 119c2.217 3.326 2.882 5.928 3.84 9.8l1.033 4.155 1.064 4.357 1.053 4.229A1328 1328 0 0 1 650 154l.958 4.025.858 3.768.768 3.34C653 168 653 168 652 172c-3-3-3-3-3.25-6.125L648 163c-3.562-.687-3.562-.687-7-1v-3c-4 1-4 1-7 2v-4l-2-1 3-3h2l-1-3 4-4 4 4c.07-5.225.028-9.86-1-15h-2c-.314-2.656-.5-5.328-.625-8l-.227-4.5z"/><path fill="#d2866b" d="m1149 390 1 2c4.563 1.75 4.563 1.75 9 3v-2l5 1-1-3 3 1c-1 3-1 3-4.507 4.762l-4.692 1.925-5.104 2.118-5.384 2.195q-5.226 2.154-10.45 4.313l-4.71 1.925C1127 411 1127 411 1123.697 412.793 1121 414 1121 414 1117 413l-1-2 2.938.75 3.062.25 1-4 5-1v-3c0-5.401.7-6.923 4-11l2 1c1 4 1 4 0 6 3 2 3 2 6.688 1.75L1144 401v-2l-2-1 3-3h2v-2h2z"/><path fill="#d07858" d="m973 754 1 2h2a349 349 0 0 1 4 5c4.22 2.814 8.005 2.744 13 3l1-2 1 1 4-1c5-1 5-1 10.063-.312L1013 762v-5l1 4 2 1c-18.332 6.25-18.332 6.25-28.078 6.266-.745 0-.745 0-4.516.007l-4.656-.023-4.703.023-4.5-.007-4.099-.007C962 768 962 768 958 766h11l-2-3 1-2 5-1 1-2h-2z"/><path fill="#cf795b" d="M212 178h2v3c4.9-.25 8.411-1.165 13-3l4 1v2a240 240 0 0 1-11.125 4.813l-3.313 1.354c-22.563 9.166-22.563 9.166-26.562 7.833v-4c3.5-1.047 3.5-1.047 8-1.75l4.5-.734L206 188l-2-1 1-5h-3l-1 2-1-4c3.113-.066 6.23-.11 9.34.055L212 180z"/><path fill="#d18d73" d="m417 311 1 2 4 2c-1.39 2.104-1.39 2.104-4.035 4.691l-2.897 2.866-3.13 3.005-2.956 2.924a234 234 0 0 1-17.48 15.502c-4.632 3.725-9.063 7.69-13.533 11.606C375 358 375 358 372 359v-4h3v-3h2v-2h2l-1-4c2.333-.043 4.667-.04 7 0l1-3h2v-2h4v-5h4l1-3h2v-2l3.063-.25L405 330q-.49-3.001-1-6h6v-6l1 2h2v-2h2q.57-2.988 1-6z"/><path fill="#d48e75" d="M614 542c2.85 2.85 2 5.11 2 9h2v12h2c.408 2.319.697 4.658.938 7 .68 5.779 1.822 10.603 4.062 16v4h2c1.444 5.692 2.153 11.285 2.563 17.125L630 613h1l1 5h2a560 560 0 0 1 2 8l2 2h-2l1 3h-2q.376 4.016 1 8c-4.054-4.054-4.637-10.959-6.062-16.375l-1.188-4.495C614 560.934 614 560.934 614 542"/><path fill="#d48a70" d="m1241 549 2 1c-6.625 4-6.625 4-10 4l-1 2a272 272 0 0 1-6 5l4 1v2l-2.687.313c-4.122.855-5.594 2.569-8.313 5.687v-5h-4v2c-9.059 4-9.059 4-13 4v2h-3l-1 3-4 1v2h-5l1 5-2 1v-2a128 128 0 0 0-8 0c9.09-9.09 22.98-14.684 34.25-20.75l3.511-1.896c16.547-8.84 16.547-8.84 23.239-11.354"/><path fill="#d38366" d="M904 548c1.278 5.11.28 8.478-.812 13.625l-1.083 5.164L901 572l-1.012 5.398C899 582 899 582 897 586h-2c.25 5.5.25 5.5 1 11h2l1 5 3 3v5h-2v-2h-2v5l-2 1v-6l-3-4-.402 3.281-.535 4.219-.528 4.219L891 619h-1c-.313-7.145.523-14.021 1.625-21.062l.531-3.417c2.576-15.814 6.399-31.442 11.844-46.521"/><path fill="#dca38d" d="M1392.063 539.25 1394 541l-3 1-1-3h-5l-1-3-3 1v-2c-3.07-.266-3.07-.266-7.125-.25l-4.008-.016c-3.867.266-3.867.266-7.297 1.594L1360 537l-1-5c-3.062-1.187-3.062-1.187-6-2v-2c-3.038-.167-3.038-.167-7.27-.047l-4.634.129-4.909.168-4.779.121c-8.362.258-16.221.933-24.408 2.629-4.687.188-4.687.188-8 0v-1c28.464-5.762 68.084-9.101 93.063 9.25"/><path fill="#d3866b" d="M842 322c1.3 5.2.174 8.4-1.098 13.61l-.695 2.884c-.748 3.087-1.508 6.172-2.27 9.256l-1.534 6.305q-1.506 6.18-3.028 12.358a3969 3969 0 0 0-3.41 13.97c-2.852 11.665-2.852 11.665-3.965 15.617h-1c-.45-6.98.966-12.367 3-19l-1-4 1-5c-.875-3.062-.875-3.062-2-6l-1-4 5-1 2-4h2q.505-5.5 1-11l2-1v-6l2-4c1-4 1-4 0-6h3z"/><path fill="#d79278" d="M743 516c1 4 1 4 1 10h2v2h-3v3h-2c-4.335 8.526-5.494 16.272-4.687 25.723C736 560 736 560 733.688 562.87 731 565 731 565 728 566v6l-1 1c-.687 3.063-.687 3.063-1 6h2c-1 5-1 5-3 7h-2l-4 2c1.66-5.9 3.573-11.607 5.766-17.332 3.164-8.386 6.048-16.846 8.859-25.356l1.406-4.22A1024 1024 0 0 0 743 516"/><path fill="#d07a5c" d="M871 108c0 3.91-.896 7.26-2 11h-2v4l4 2c0 4 0 4-3 9h2v2h2v2l-2.937.938c-1.011.35-2.022.7-3.063 1.062l-1 3-3-2 2-3h-2v-2h-3v5h-3l-1 3c-1-3-1-3 1.133-7.754a646 646 0 0 1 2.992-5.809l1.477-2.884q1.464-2.862 2.942-5.718a629 629 0 0 0 4.26-8.487C870 109 870 109 871 108"/><path fill="#d38d74" d="m859 243 3 2c-.253 7.134-2.389 14.134-4.125 21.031l-.93 3.733a4527 4527 0 0 1-1.947 7.765 4439 4439 0 0 0-2.982 11.955l-1.891 7.547-.903 3.636A402 402 0 0 1 847 309h-1c.04-2.877.159-5.752.313-8.625l.238-4.852c.385-3.882.939-6.948 2.449-10.523h1c.244-10.511.244-10.511-1-13l3-5v-3h2l-1-5h3l-1-3 3-1c.406-2.793.406-2.793.5-6.187z"/><path fill="#cf7b5c" d="M338 376c3.563 0 3.563 0 7 1-1.616 4.847-6.217 6.636-10.375 9.25l-2.773 1.77q-2.715 1.731-5.437 3.452c-2.817 1.782-5.615 3.594-8.415 5.403-3.84 2.4-7.683 4.789-11.562 7.125l-3.004 1.813L301 407l-2-1 1-2-2-1h5l1-4v2h3l-1-4h2v2h2v-2h4a253 253 0 0 0 2-6l4-2v-3l-3-1 5-2v2h2v2h5l-1-3c1.99-.39 3.992-.719 6-1l1-2h3z"/><path fill="#d28569" d="M358 521c2.773-.309 2.773-.309 6.375-.437l3.586-.184L371 521c1.14 2.934 1.14 2.934 2 6 4.375 1.5 4.375 1.5 9 2l4-2v-3h4v2l2 1-2 3h2l-.687 2.875L391 536c5 2 5 2 8 2v2h2v4a97 97 0 0 1-10.754-5.047l-3.342-1.812-3.466-1.891c-6.71-3.655-13.42-7.269-20.278-10.64L358 522z"/><path fill="#d1866a" d="M1061 737c-10.34 8.578-30.967 24-45 24v-4c3-.687 3-.687 6-1v-1h5v-2h3v-2l-2-1c4-2 4-2 8-2v-2l4.063-.875L1044 744l-1-4c5-2 5-2 8-1 3.644-2.43 5.712-2.162 10-2"/><path fill="#d58f75" d="M518 0c-3.84 2.56-7.514 3.052-12 4l-2 1c-2.402.6-4.812 1.172-7.234 1.684l-3.516.753-3.547.747L487 9v2h-3v2l-4 1-2 4.875L476 23c-2.187-1.875-2.187-1.875-4-5l-1-1c-8.4.6-8.4.6-12 3h-3l-1 2-2-2c17.76-10.197 44.515-20 65-20"/><path fill="#d28b70" d="m1197 613 1 2 4 1c-6.312 6.522-13.105 12.52-20.187 18.188-6.216 4.997-11.9 10.522-17.626 16.066C1161 653 1161 653 1158 653v-4h3l-1-4h5v-2l2-2h3l1.875-4 2.125-4h5v-2l3-1 1-3 5-2 1-3 4-1 1-4h3z"/><path fill="#d58e75" d="M783 539h4c-.085 6.195-2.476 12.12-4.379 17.965l-1.005 3.131a4229 4229 0 0 1-3.178 9.841q-1.079 3.349-2.155 6.698A8734 8734 0 0 1 771 593c-2.386-4.773-1.806-6.839-1-12v-4h2l-.187-3.875L772 569l5-2c.085-2.665.082-5.335 0-8l3-3c.313-3.625.313-3.625 0-7l-2-1 1-4 4-2z"/><path fill="#daa591" d="M169 166v2c-2.65.727-5.32 1.39-8 2l-2 1-2-1-1 3q-2.993.541-6 1l1 2h-3v-2h-3v2c-4.437.15-8.844-.009-13.281-.125L128 176v2c-8.336 1.766-16.98.927-25.437.688l-5.108-.108-4.826-.13c-1.464-.039-2.927-.076-4.435-.115L85 178v-2l-3 .5-3 .5v-2l-2-1 3.234.438c28.76 3.582 54.607-.446 82.356-7.625C166 166 166 166 169 166"/><path fill="#d28c73" d="M453 263h3c-4.734 18.788-19.712 36.297-33 50l-2-1v-3l4-2 1-4 1-1 1-2 2 1a232 232 0 0 0 4-7l3-3h2v-2h2v-4h2v-4h2v-9h2l1-3h2v-2h2z"/><path fill="#d17b5e" d="m1178 583 2 1c-2.25 2.563-2.25 2.563-5 5h-2l-1 4c2.006-.294 4.005-.637 6-1 3.375.813 3.375.813 6 2v2c-2.666.044-5.334.04-8 0l-3 1a236 236 0 0 0-1 7h-2l-.187-4.625L1169 595c-3.312.125-3.312.125-7 2a263 263 0 0 0-4 5 252 252 0 0 1-7 3l-4 4c-3.75.75-3.75.75-7 1 6.271-6.717 14.076-11.318 21.688-16.375l4.65-3.137 4.424-2.949 4.061-2.712z"/><path fill="#d27f63" d="M1394 541c6.201 3.1 10.743 6.831 14 13 .531 5.04.531 5.04.5 10.625l.031 5.602C1408 575 1408 575 1404 579l-.187-3.062L1403 573l-5 1v-4l3.625-.312L1405 569c-.52-4.686-1.656-6.656-5-10l.188-4.75c-.224-6.269-1.811-7.964-6.188-12.25z"/><path fill="#d28a6f" d="m1154 653 4 1c-3.666 5.175-8.357 9.235-13.086 13.406-3.395 3.022-6.717 6.117-10.039 9.219C1121.76 688.827 1121.76 688.827 1117 692v-6l4-1 1-4h3v-2l2-2h3v-2h3l1-4h2l1-3 4-1v-2h4v-4l4-1v-3h4z"/><path fill="#d99e88" d="M889 622h1c1.183 5.916 1.319 11.656 1.523 17.676L892 643h3l-2 2c-.467 8.884.586 17.727 1.438 26.563l.408 4.462c1.027 10.848 1.027 10.848 2.154 11.975l.438 5.063L898 698h2c.125 3.5.125 3.5 0 7-11.884-17.826-11.186-47.933-11.125-68.75l-.012-4.172.004-3.937.004-3.578z"/><path fill="#d49279" d="M959 533h2c1 4 1 4-.371 6.637l-2.067 3.05c-11.283 17.653-19.032 37.56-22.054 58.297L936 604h-1c-.176-8.382-.176-8.382 0-12l1-1c1.253-5.529 2-10.308 2-16l1-2h2v-6h2l1-3 1-3h2v-4h2q.063-4 0-8h1l1-5 3-2 1-3h2v-3h2z"/><path fill="#d28d73" d="M1358 574c2 3 2 3 2 5h2l1-3c1 4 1 4 1 7l3-1 1 3c4.275 1.71 7.52 2.397 12 3l1 1c3.563-.375 3.563-.375 7-1v-1h5v-2h2v-2h3v-2h2l2-3 2 1c-2.847 5.695-6.833 8.857-12.437 11.813-7.06 2.353-12.48 2.586-19.563.187-5.165-2.846-8.925-6.774-13-11l-4-4z"/><path fill="#d3886d" d="M825 396c-.733 9.3-3.111 18.06-5.437 27.063l-1.237 4.935-1.197 4.662-1.092 4.27L815 440h-2v-6h-3c-.875-4.375-.875-4.375-1-9 3-2 3-2 5-2 1.403-2.63 2.73-5.302 4-8l2-4-.125-4.937C820 401 820 401 821.938 397.875 824 396 824 396 825 396"/><path fill="#d2856a" d="M1066 336h4c.782 3.91 1 7.071 1 11l3.5-.5 3.5-.5v2l3-.5 3-.5v2l4 1 1 5h4l-1 4-4 1 1-3c-2.589-1.03-2.589-1.03-6-2-3.986-1.73-7.893-3.624-11.812-5.5l-3.217-1.512c-7.85-3.746-7.85-3.746-8.971-5.988l4-.312 4-.688z"/><path fill="#d89982" d="M586 326h1c.252 3.351.386 6.701.523 10.059L588 339l3 1c.223 2.941.223 2.941.063 6.563-.09 2.144-.132 4.292-.063 6.437h2l-.062 5.438L593 364l3 1-1 1c-.076 2.51-.083 5.023-.062 7.535l.023 4.639.039 4.889q.038 4.767.063 9.535l.035 4.297L595 400h-1a254 254 0 0 1-1.086-8.598l-.628-5.528-.661-5.937c-1.574-13.901-3.19-27.783-5.145-41.636-.463-4.15-.647-8.13-.48-12.301"/><path fill="#d1886d" d="M966 198c3.76 3.853 6.818 8.067 9 13-4 2-4 2-8 2l.75-4.062L968 205c-3.937-.187-3.937-.187-8 1v3l-4 2 2-7c-4 4-4 4-5 9h-2l-1 2c.386-6.183 2.352-10.025 6-15 5-3 5-3 10-2"/><path fill="#d38366" d="M458 568h2l-1 7 .688 3.875L460 582l-4 1c.75 4.563.75 4.563 2 9a153 153 0 0 1-7.312-7.812c-3.43-3.894-6.985-7.556-10.688-11.188l-3-3c3.813.25 3.813.25 8 1l3 4-1 2 4-1 1-2 3-1 1-3h2z"/><path fill="#d28568" d="M975 211c3.817 1.272 5.23 3.6 7.766 6.598 5.257 5.653 11.321 10.945 18.234 14.402v2l3 1-2 1-3-1v-2h-3v-2c-11.345-1.328-11.345-1.328-14 0l-1-3-2-1-1-5h3l-1-5h-3c-1.187-3-1.187-3-2-6m0 13 3 1-2 5h-2c0-5 0-5 1-6"/><path fill="#d3866b" d="m869 206 3 1c-.5 7.774-3.05 15.425-5 22.938l-1.117 4.384-1.07 4.143-.981 3.8L863 245h-1c-.27-7.715.22-14.439 2-22l-5 2-2-3h3v-6l3 1 3-2v-5l2-1z"/><path fill="#d3876c" d="M761 607h2c1.286 6.43-.844 10.343-3.375 16.125l-1.367 3.2C754.088 636 749.623 645.53 745 655c-2-4-2-4-2-6h2l.438-3.937L746 641l3-1-3-2v-4l6-3a474 474 0 0 0 3.438-8.812L757 619h3c.441-2.625.441-2.625.563-6 .128-3.375.128-3.375.437-6"/><path fill="#d69379" d="M704 528h1c.54 2.367 1.008 4.75 1.453 7.137l.87 4.601.927 4.95c6.72 35.237 6.72 35.237 10.75 45.312h-2l-2 2c-2.217-4.68-2-8.918-2-14l-2-1c-.399-3.918-.51-7.82-.656-11.754L710 562h-2v2h-2l-2-5h4c.438-3.937.438-3.937 0-8l-3-1a109 109 0 0 1-1-7h-1c.066-2.502.204-5.003.375-7.5l.273-4.219z"/><path fill="#d38a6f" d="m195 383 2 1-3 5-1 4 2 1h-2l-1.312 4.563L190 403l-5-1v5h2v5l-3 2-2 4h-1l-.5 3.5-.5 3.5h-1c-.673-14.05 4.045-27.7 12.688-38.687z"/><path fill="#d38b72" d="M1172 314c5.774 2.31 6.884 3.751 10 9 3.76 8.945 3.803 18.429 3 28h-2a202 202 0 0 0-1 7h-1c-.24-11.04-.24-11.04 1-16l-1-3c.006-2.084.051-4.168.125-6.25L1181 327c-3 1-3 1-4 3l-3-1c-.312-3.562-.312-3.562 0-7h2l-2-5h-2z"/><path fill="#ce7657" d="m45 199 5 1v2h-2v5c4 .313 4 .313 8 0l-2 2c1.977.73 3.98 1.394 6 2v1c-12.643-.415-25.955-3.871-37-10v-1c5.712-.476 9.718.961 15 3v-2l3-1v2l4-2z"/><path fill="#d38b71" d="M371 68v2h-3l-1 3-6 1-1 3h-4v6l-2 2v-2h-2v3l-4 1-3 2-3.25-.625L339 88l1 4c-2.625-.312-2.625-.312-6-1l-5 1c2.782-2.782 4.94-4.237 8.34-6.11l3.224-1.788 3.373-1.852q3.265-1.803 6.528-3.61l3.257-1.798c4.352-2.445 8.638-4.995 12.917-7.566C369 68 369 68 371 68"/><path fill="#d08368" d="m416 232 1 3-2 3h-2v5c0 3 0 3-1 6a448 448 0 0 1-9 2v2l-1 1h4v2l2 1v3l-4 1-3-4h-4v2c-5 3-5 3-8 3l2.746-2.676c7.23-7.123 14.026-14.311 20.254-22.324q1.997-2.502 4-5"/><path fill="#d18a70" d="m991 494 4 1c-1 3-1 3-4.312 5.813-10.067 8.59-17.746 19.31-24.825 30.398L964 534h-1v-6h2l1-4 3-5h2v-2h2v-4h2v-2h4v-6l3-1 1-2 2 1-.937-3.062L984 497c2.343.256 4.678.593 7 1z"/><path fill="#d48d75" d="m1052 671 2 1-1 5h-6l-2 4-3 2v3h-3v-2c-5 1.377-8.293 2.293-12 6a100 100 0 0 1-6-1v2h-3v2c-2.844.414-2.844.414-6.5.625l-3.656.227L1005 694c3.4-2.267 6.48-3.188 10.375-4.437 11.92-4.123 23.708-9.807 34.113-16.961z"/><path fill="#d4957f" d="m547 113 1 2 2 1v6h2a168 168 0 0 1 2 6c2 3 2 3 6 4v5l-1-2h-2c1.294 10.588 1.294 10.588 3.688 15.375 1.647 3.294 1.065 5.11.312 8.625h2q-.375 5.012-1 10c-1.998-3.996-2.971-7.477-4.023-11.809l-1.157-4.705-1.195-4.923c-4.36-17.925-4.36-17.925-6.914-26.036C547 116 547 116 547 113"/><path fill="#d38d73" d="M248 359v2h-3v2h-4l-1 2c-4.353 4-4.353 4-9 4v2h-6l-1 4c-4.968 3.548-9.004 4.429-15 5a126 126 0 0 0-6 2c-4 1-4 1-6 0q6.844-3.043 13.691-6.078C221.27 371.206 231.688 366.27 242 361c4-2 4-2 6-2"/><path fill="#d2866a" d="M1084 280c6.018 1.204 11.037 3.754 16.5 6.438 10.998 5.361 10.998 5.361 16.5 7.562-4 2-4 2-9 3l-2 2v-2q-5.495-1.515-11-3l-1-2h2c1-4 1-4 0-6l-5 1v-2h-2v-2h-4z"/><path fill="#d79982" d="m178 425 3 2c.188 4.316.188 4.316 0 9.563-.187 5.253-.187 5.253 0 9.437l3 1a150 150 0 0 1-1 6l2 1c2.38 1.6 4.716 3.266 7 5v2l5.5.5 5.5.5v2h6v2l3 1c-17.97-1.494-17.97-1.494-26-7-6.56-8.096-8.274-16.257-8.125-26.437l.055-4.872z"/><path fill="#d18468" d="M1050 263c4.826 1.288 8.953 3.476 13.313 5.875 5.471 2.968 10.945 5.707 16.687 8.125-3 2-3 2-9 2l-1-3c-4.577-1.056-7.317-.937-12 0l-1-4h-3v2h-2l-1-3 1-1v-5l-3-1z"/><path fill="#d28569" d="m1112 691 4 1v2c-1.487 1.354-3.044 2.631-4.625 3.875-5.971 4.754-11.694 9.755-17.406 14.816C1091 715 1091 715 1088 715l1-4h3v-3h3c1-4 1-4-1-8l3-4 3 1 1 3c3.125-.062 3.125-.062 6-1l-1-4h5z"/><path fill="#d38368" d="M120 205v3c5 .25 5 .25 10 0v-1c3.166-.074 6.333-.083 9.5-.062l5.344.027L149 207c-4.526 2.263-8.316 2.854-13.312 3.625-1.647.26-3.293.52-4.989.79-3.98.495-7.698.79-11.699.585v-1a502 502 0 0 0-12.5-.062l-3.613.013q-4.444.02-8.887.049c4-2 4-2 9-2l1-2c3.438-.125 3.438-.125 7 0 3.284 0 5.716-2 9-2"/><path fill="#d4876b" d="M47 159c4 2 4 2 8.25 4.75 6.805 4.148 14.257 6.628 21.75 9.25-4.887 1.222-6.532-.024-11-2v2l-4 1v-2l-2 1v3h-3l-.75-3.062L55 170q-3.501.491-7 1c-1.433-3.851-1-6 0-10z"/><path fill="#d49279" d="M896 130c1.35 4.051.195 5.426-1.5 9.313-3.236 7.744-5.782 15.604-8.227 23.624A356 356 0 0 1 884 170h-1c-.187-3.5-.187-3.5 0-7h2c-.113-3.38-.53-6.698-.906-10.059L884 150l2-1c2-5 2-5 2-8l-2-3v-5h3l1 2h2v-2l3-1z"/><path fill="#d28b72" d="M1109 413c3.438-.375 3.438-.375 7 0l2 2c-3.634 2.022-7.247 3.847-11 5.625-8.41 4.071-16.6 8.277-24.586 13.145L1080 435l-2-1c0-4 0-4 1-6l4 1 2-2h3l1-4q4.5-.125 9 0v-2h3v-2h5v-2h2z"/><path fill="#d28468" d="M0 170c2 2 2 2 2 7h3c2 5 2 5 2 7l3.5-.875L14 183c.313 3.813.313 3.813 0 8l2 2h3v4h3l1 4c-9.899-3.96-18.209-11.417-23-21-.08-3.332-.088-6.668 0-10"/><path fill="#d2846a" d="M727 679c0 3 0 3-2.273 5.305-6.295 5.216-12.133 9.593-19.727 12.695l-3-1h2l-2-5 2-1 2 1 1-3 2 1 2-1v-5c5-1 5-1 10 0v-2c3-1.312 3-1.312 6-2"/><path fill="#ce6a49" d="M1265 564h3v2l-2 2h3l1-2h5v4q-3.49.57-7 1l-1 3c-3.375.188-3.375.188-7 0h-3c-6.628-.814-6.628-.814-9-2v-2l5 1 1-3h2v-2c6 0 6 0 8 1z"/><path fill="#d28c73" d="m1003 305-1 2 5 2 3 3 3.5 1.5c3.5 1.5 3.5 1.5 6.5 4.5q3.995 1.015 8 2v2l3 1 1 2 3.125.938c.949.35 1.898.7 2.875 1.062l-1 3c-11.12-2.513-21.347-10.771-30.812-16.875l-2.698-1.732c-6.369-4.15-6.369-4.15-7.49-6.393 2-1 2-1 7 0"/><path fill="#d99d86" d="M1285 568c-3.584 2.39-7.145 3.623-11.187 5.125-7.744 2.965-15.1 6.359-22.458 10.176C1248 585 1248 585 1243 587v-4l3-3v-3c3.384-.184 6.678.077 10.059.285L1259 577l1-4 7 1 1-4q5-.125 10 0v-2c2-1 2-1 7 0"/><path fill="#d2886d" d="M1129 300c6.462 1.31 12.493 3.125 18.688 5.375A328 328 0 0 0 1172 313c-9.061 3.02-22.363-.48-31-4l-2-4-2 2-4-1-2-5z"/><path fill="#d18267" d="m1043 449 1 2h4v-2h2l1 3c-2.105 1.727-2.105 1.727-5.187 3.625-5.731 3.636-11.13 7.555-16.512 11.688C1027 469 1027 469 1026 469v-5c5-3 5-3 7-3 1.25-3.437 1.25-3.437 2-7l-2-1c3.5-1.687 3.5-1.687 7-3v3l2 1z"/><path fill="#d7937a" d="M572 224h1q1.06 4.486 2 9l.25-3.375L576 226l4-2-.562 3.313C579 231 579 231 580 234l-3 1c.25 4.563.25 4.563 1 9h1c0 2.927-.004 5.854-.031 8.781.031 3.219.031 3.219.531 7.656.647 5.905.625 11.624.5 17.563h-1c-.6-3.335-1.127-6.684-1.629-10.035l-.466-3.111q-.49-3.274-.971-6.55c-.49-3.328-.992-6.655-1.495-9.982q-.473-3.179-.943-6.357l-.87-5.856c-.505-4.123-.856-7.967-.626-12.109"/><path fill="#d1886d" d="m388 263 1 4h-2v2l-3 2-2 4-4 2-2 3-5 1 1 5h-6v2l3-1-1 3-3-1-1 2c-3.062-.375-3.062-.375-6-1 5.095-5.24 10.63-9.915 16.176-14.668 3.317-2.89 6.512-5.864 9.699-8.894z"/><path fill="#d58d72" d="M628 83c4.221 4.221 5.335 11.31 7.188 16.875l1.443 4.207 1.35 4.035 1.246 3.707C640 115 640 115 639 119l-1.875-5.5L635 108h-2a101 101 0 0 1-3-6v2h-2l-1-3-3-1v-5l3.125.75L630 96c-.625-4.187-.625-4.187-2-9z"/><path fill="#d7967e" d="M682 373h1c.527 3.36.981 6.731 1.41 10.105l.4 3.126q.418 3.287.829 6.575.632 5.025 1.277 10.048C689 419.297 689 419.297 689 425h-2l-1-10h-2l-1-4-3-1 2-3c.168-3.56.214-7.125.188-10.687l-.02-5.825L682 386h-1c.066-2.17.204-4.336.375-6.5l.273-3.656z"/><path fill="#d7937b" d="M676 326h1c1.047 6.116 1.764 12.285 2.563 18.438l.708 5.263.67 5.108.616 4.681c.445 4.535.52 8.957.443 13.51-2.29-3.435-2.306-5.131-2.5-9.187L679 358h-2l-1 2h-2c-.812-2.75-.812-2.75-1-6l3-4v-5l-4-2 1-5 2-1q.556-5.495 1-11"/><path fill="#d3896e" d="M960 272c10.31 3.966 10.31 3.966 13 8l2-2c2 3 2 3 2 6l3 4v2l3 1 1 4 1 2c-4.623-2.312-7.607-5.149-11.375-8.687l-3.898-3.637c-3.468-3.421-6.692-6.866-9.727-10.676z"/><path fill="#d38c71" d="M419 480c10.946 4.378 25.35 14.026 32 24h-3l-2-3-3-1v-2l-4-1v-2c-5 0-5 0-10 1v-3h-3c-1-4-1-4 0-8-1.977-.73-3.98-1.394-6-2z"/><path fill="#d69076" d="M657 193h1c.526 2.555.981 5.126 1.41 7.7l.81 4.853c.279 1.694.556 3.389.842 5.135l.854 5.076C664 228.354 664 228.354 664 234c-3-4-3-4-3-8l-3 1c1-4 1-4 2-6h-2l-1-5-4-2c.063-3.187.063-3.187 1-6l3 1c.258-3.402.258-3.402.125-7.937-.07-2.687-.12-5.375-.125-8.063"/><path fill="#d3896e" d="m1013 757 1 4 2 1a910 910 0 0 1-12 4l-3.812 1.25c-6.306 1.13-12.812 1.498-19.188.75l-1-3c2-1 2-1 7.563-.937L993 764l1-2 1 1 4-1c5-1 5-1 10.063-.312L1013 762z"/><path fill="#d08064" d="m267 348 2 1-2 4h-4l.563 2.875L264 359c-5 2-5 2-7 2l-2 2c-5.125.25-5.125.25-10 0v-2h3v-3c4.086-2.516 4.086-2.516 9.375-5.25l5.273-2.766z"/><path fill="#d48a6f" d="M795 508c1.112 4.448.676 5.998-.617 10.297l-1.09 3.652-1.168 3.801-1.145 3.848c-2.067 6.848-2.067 6.848-2.98 9.402h-1a162 162 0 0 1 0-9l1-1c-1-2-1-2-3-3l3-3-2-5h-2v-2c3.2-1.848 5.271-3 9-3v-2h2z"/><path fill="#d58d73" d="m1349 560 3 2c-1 5-1 5-2 8l3 1 2 5c-5-2-5-2-9.75-4.375-6.403-2.969-13.04-4.365-19.918-5.828L1322 565v-1c2.122-.129 4.25-.176 6.375-.187l3.586-.043C1335 564 1335 564 1337 566c4.688.375 4.688.375 9 0l-1-4z"/><path fill="#d79a83" d="M809 280c1.829 7.316-.06 14.813-2 22h-2a340 340 0 0 0-1 7 316 316 0 0 1-1.687 5.938L801 320h2c-1 4-1 4-5 8l-2 3c.662-5.403 1.824-10.524 3.215-15.785l1.33-5.045 1.393-5.233 1.38-5.244c3.7-13.982 3.7-13.982 5.682-19.693"/><path fill="#d69179" d="M947 222h1c.173 4.669.298 9.332.342 14.004.075 2.673.353 5.339.658 7.996 4 2 4 2 7 2v2h2l-1 4h-2a174 174 0 0 0-2 9c-7.443-9.924-7.707-23.628-6.562-35.562.185-1.135.37-2.27.562-3.438"/><path fill="#d18367" d="M443 66c-4.04 2.693-8.281 4.9-12.562 7.188l-5.192 2.792L421 78l-2-1c2-4 2-4 4-5l-1-4c5-2 5-2 9-3 4.343-1.448 7.637-.075 12 1"/><path fill="#d58f77" d="M920 512h1c-.228 3.655-.59 7.292-.941 10.938-.02 1.01-.04 2.02-.059 3.062h2v2h-4l-1 2h-3a348 348 0 0 0-2 9h-2v3h-2l-1 4 2 1-4 1c.819-4.093 1.735-7 3.398-10.746l1.454-3.287 1.523-3.404 1.5-3.393C917.6 516.525 917.6 516.525 920 512"/><path fill="#d48f76" d="m880 169 3 1c-1.213 7.985-3.88 15.809-6.125 23.563l-1.129 3.923A6582 6582 0 0 1 873 207c-2-4-2-4-2-6h2v-6h2c-.3-2.005-.644-4.004-1-6-.336-7.496-.336-7.496 2-11q1.514-3.995 3-8z"/><path fill="#d7957c" d="M696 480h1c1.197 6.023 2.14 12.09 3.121 18.152.5 3.072 1.013 6.142 1.527 9.211l.954 5.84.885 5.396C704 523 704 523 703 527l-.687-5.5L701 516h-5v-3h2c.188-4 .188-4 0-8h-1l.188-5-.188-5h-4c1-5 1-5 3-8 .04-2.333.044-4.667 0-7"/><path fill="#d69178" d="m1281 536-3.937 1.063L1273 539c-.75 3.75-.75 3.75-1 7-4-1-4-1-6-3-3 1-3 1-4 3l-4-1v2c-5.092 1.91-9.597 2.19-15 2 2.92-1.946 5.504-3.064 8.77-4.312l3.443-1.32 3.6-1.368 3.564-1.367A867 867 0 0 1 1272 537l3.198-1.207C1278 535 1278 535 1281 536"/><path fill="#d2896e" d="m298 108 2 1-1 2h-2l-1 4h-2l-1.312 3.188L291 121l-5-3v2l-5-1v3c-4.447 2.224-7.111 2.163-12 2 5.225-3.919 10.844-6.736 16.625-9.75l3.508-1.863 3.344-1.746 3.065-1.609z"/><path fill="#d4937d" d="m176.914 195.805 4.711.07 4.727.055L190 196c-5.825 3.883-13.225 4.914-19.937 6.687l-4.772 1.3-4.568 1.212-4.195 1.12C153 207 153 207 149 206c2-2 2-2 6.125-2.5L159 203v-2c2.555-.781 2.555-.781 5.875-1.5 4.651-1.012 7.515-3.47 12.04-3.695"/><path fill="#d58b71" d="M472 588v5c4 1 4 1 6 0-2 4-2 4-5 7-4.406 1.066-6.859 1.645-10.875-.625C460 597 460 597 458 592l5 3 5-1-1-5c3-1 3-1 5-1"/><path fill="#d99d86" d="M689 427h1c.527 3.214.981 6.44 1.41 9.668l.4 2.99q.418 3.147.829 6.293.632 4.809 1.277 9.613C696 471.302 696 471.302 696 477c-2.125-3.188-2.502-5.265-3-9l-2 3c-1.611-3.223-1.05-6.498-1-10.062.037-2.646.047-5.293 0-7.938l-1-1c-.1-4.194-.139-8.368-.125-12.562l-.012-3.6c.004-2.946.065-5.893.137-8.838"/><path fill="#d18165" d="M954 754v2h-4c1.228 3.685 3.016 4.644 6 7l-1 1 3 2c-5.5-.51-9.541-1.971-14.437-4.5l-3.747-1.906L937 758v-1l2.938-.437L943 756l1-2c5-2 5-2 10 0"/><path fill="#d79b86" d="M457 206c7.837 11.755 7.135 28.11 4.563 41.375-.468 2.22-.97 4.435-1.563 6.625h-1c-.239-7.284-.239-7.284 1-11 .467-10.422-.959-20.794-3-31z"/><path fill="#ca6a48" d="M859 136h3v2h2v4l1 3-2 1-1 4c-3 1-3 1-6 1v3h-2c-1.243-3.921-1.025-5.923.25-9.875L856 141h3z"/><path fill="#d07d5f" d="m330 309 2 1-3 4h-2v2h4l1 2h2v4h-4v-2h-3l-1 4-1-2-3 1-3-1-1-2-2-1c2.174-1.804 4.446-3.49 6.75-5.125l3.922-2.82z"/><path fill="#dda38d" d="M480 542c6.654 9.981 5.037 25.732 3.172 37.008-2.586 11.406-2.586 11.406-5.172 13.992l.254-2.738.308-3.574.317-3.551C479 580 479 580 478 577h3c.074-4.594.074-4.594-.312-10.5l-.364-5.906L480 556l2 3c-.875-8.875-.875-8.875-2-10q-.062-3.5 0-7"/><path fill="#d8a08c" d="m507 51 1 2h2v2l2.938.875L516 57l1 4a179 179 0 0 1-7.562-4c-11.602-5.229-23.054-4.519-35.063-1.375C469 57 469 57 466 56h2v-2c12.278-3.938 26.257-3.719 39-3"/><path fill="#dca590" d="M934 604h1c.021 3.167-.01 6.334-.062 9.5-.05 14.603 1.658 27.598 6.062 41.5q.88 2.937 1.75 5.875L944 665l-3-1a530 530 0 0 1-2-10h-2c-2.256-4.512-2.449-7.546-2.781-12.562l-.364-5.102-.71-10.672-.364-5.101-.31-4.684C932 612 932 612 930 608h3z"/><path fill="#d89c86" d="M904 548c1.278 5.11.28 8.478-.812 13.625l-1.083 5.164L901 572l-1.012 5.398C899 582 899 582 897 586h-2q-.624 3.984-1 8c-3.292-13.17 5.789-33.597 10-46"/><path fill="#d2896f" d="M1062 434h2v3c4 .313 4 .313 8 0v-2l4 2-3.508 2.047-4.617 2.703-4.57 2.672c-2.63 1.574-5.22 3.216-7.735 4.969L1053 451l-2-1v-3h4l1-4h5c.688-4.5.688-4.5 1-9"/><path fill="#d17f62" d="m1132 393 2 1c1 4 1 4-1 8l2 1-1 2 2 1h-2v2c-2.703 1.543-2.703 1.543-6.25 3.188l-3.516 1.667C1121 414 1121 414 1117 413l-1-2 2.938.75 3.062.25 1-4 5-1v-3c0-5.401.7-6.923 4-11"/><path fill="#d48e73" d="M313 428c4.002.8 7.029 1.707 10.738 3.25l3.233 1.344 3.341 1.406 3.4 1.406A425 425 0 0 1 342 439v1c-3.06 0-6.12-.005-9.18-.062C330 440 330 440 328 441v-4a98 98 0 0 0-7 0l-3-2-1-5-3 1z"/><path fill="#d28265" d="M944 665c4.345 5.793 8.275 11.791 12 18-2.625 1.75-2.625 1.75-6 2a136 136 0 0 1-3-7h-5l-1-5h3l-1-5z"/><path fill="#d28b70" d="m1222 594 4 4c-3.19 4.295-7.763 7.097-12.125 10.125-3.594 2.5-6.777 4.777-9.875 7.875l-2-1 1-5 4-1 1-3 3-.437 3-.563 1-4 2-1 1-2 4 1z"/><path fill="#ca6947" d="M883 106v4l-8 4c-2.375 3.25-2.375 3.25-4 6h-2c-.538-5.49.032-7.054 3-12h2v-2c3.176-1.588 5.646-.808 9 0"/><path fill="#d38d74" d="m356 290 2 1c-1 4-1 4-3 7l2 1h-3c-5.05 2.02-9.592 4.023-14.062 7.125C337 308 337 308 332 309c3.694-3.91 7.59-6.988 12-10.062 6.708-4.691 6.708-4.691 9.813-7.31z"/><path fill="#d28164" d="m298 405 1 3c-2.605 1.895-2.605 1.895-6.187 3.813l-3.543 1.957L286 415c-4-2-4-2-6-4l3-5 1 2c5.143-2.135 8.422-3 14-3"/><path fill="#d49076" d="M1088 360v2h-3l1 4h-3l-2 4-4 2-2-1-5 2h-4l-1 2-3-1c22.35-14 22.35-14 26-14"/><path fill="#d2896f" d="M1019 246c4.725 1.119 8.438 3.34 12.5 5.938 4.081 2.599 8.137 4.966 12.5 7.062l-4 2-5-3-5-1c-3.312-.75-3.312-.75-6-2v-5c-3.937.313-3.937.313-8 1l-1-2 3-1z"/><path fill="#d18a71" d="M584 15c8.655 7.182 16.491 14.803 23 24l-1 2c-4.062.063-4.062.063-8-1-.437-3.437-.437-3.437 0-7l-1-2-3-1-3-5-3.687-4.187C584 17 584 17 584 15"/><path fill="#d18367" d="M1070 720h2v2l5 1v3c-3.246 2.84-3.246 2.84-7.437 5.938l-4.184 3.152L1062 737l-1-4h4c.625-3 .625-3 1-6h2v-5h2z"/><path fill="#d49279" d="M1209 566v3c-4 2-4 2-7 2v2h-3l-1 3-4 1v2h-5l1 5-2 1v-2a128 128 0 0 0-8 0c3.463-3.463 7.012-5.483 11.25-7.937l4.453-2.59L1200 570l3.922-2.316C1207 566 1207 566 1209 566"/><path fill="#d2876c" d="M777 567c.591 6.445-.866 11.454-3 17.5l-1.687 4.844L771 593c-2.386-4.773-1.806-6.839-1-12v-4h2l-.062-3.875L772 569c3-2 3-2 5-2"/><path fill="#d1856a" d="m417 311 1 2 4 2c-2.435 3.073-4.827 5.66-7.625 8.375l-2.316 2.387c-2.223 2.199-2.223 2.199-6.059 5.238-2-4-2-4-2-7h6v-6l1 2h2v-2h2q.57-2.988 1-6z"/><path fill="#d38d73" d="M741 655h3c-1.928 4.82-4.197 8.79-6.937 13.188l-2.653 4.292C732 676 732 676 729 678c-.25-3.5-.25-3.5 0-7h4v-5h2l-.625-2.875L734 660c4-2 4-2 7-2z"/><path fill="#dba793" d="m913 82 3 2c.675 5.627-.705 9.88-3 15l-2 1 1-4.75c1-5.25 1-5.25 1-9.25-3.29-.46-3.29-.46-7.625-.375l-4.29.04c-3.73.306-6.623.97-10.085 2.335 6.315-6.315 13.39-6.519 22-6"/><path fill="#d48e74" d="M915 736h5v2h2l2 4 2-2c3 5 3 5 3.438 8.25L930 751l4 1-1 2c-4.337-2.169-7.446-4.72-11-8v-2h-2a210 210 0 0 1-5-8"/><path fill="#d7957c" d="M282 415h2v2c2.205.7 4.416 1.383 6.645 2.004 6.878 2.042 13.602 4.575 20.355 6.996-3 1-3 1-9 1v-2h-3.687C294 425 294 425 289 423l-2 1v-2h-2v-4l-3-1z"/><path fill="#d2866b" d="m252 134 2 4c-4 1-4 1-5 1l-4 2v-2h-3l-2 5-4-1h-3l-4-1a973 973 0 0 1 8.125-4l4.57-2.25C246 134 246 134 252 134"/><path fill="#d4957d" d="m1167 590 2 1c-2.394 2.684-4.937 4.95-7.75 7.188C1159 600 1159 600 1158 602l-3.312 1.375C1151 605 1151 605 1147 609c-3.75.75-3.75.75-7 1 4.704-5.245 10.399-8.944 16.188-12.875l3.06-2.125c2.54-1.733 5.142-3.375 7.752-5"/><path fill="#d49279" d="M169 166v2c-2.65.727-5.32 1.39-8 2l-2 1-2-1-1 3q-2.993.541-6 1l1 2h-3v-2h-3v2a162 162 0 0 1-11 0v-1l4-.437 4-.563v-2a237 237 0 0 1 11.813-3.125l3.392-.84C165.551 166 165.551 166 169 166"/><path fill="#d28c72" d="m314 320 2 1-1 4h-4v2l-5 2-1 4-3 1-1-2-5 3-4-1 4.05-2.555 5.262-3.32 2.67-1.684c3.359-2.12 6.713-4.238 10.018-6.441"/><path fill="#d48e73" d="m889 88 2 1-2 3c1 2 1 2 3 3v3h-2v-3l-5 2-1 3h-2v2l-3.437 1.438c-1.176.515-2.352 1.03-3.563 1.562l-1 3h-2c2.305-5.762 5.116-8.516 9.5-12.875l4.094-4.117z"/><path fill="#dfae9b" d="M614 542c2.85 2.85 2 5.11 2 9h2v12h2c.453 2.463.786 4.948 1.063 7.438.843 7.468.843 7.468 1.937 8.562.235 2.35.414 4.706.563 7.063l.253 3.91L624 593c-1.861-3.723-2.643-6.492-3.437-10.531l-.774-3.899-.789-4.07c-.26-1.312-.52-2.625-.79-3.977C614 549.128 614 549.128 614 542"/><path fill="#d49278" d="m1299.832 561.207 3.916.28 4.065.326 4.123.29c7.313.547 7.313.547 10.064.897v1c-2.664.167-5.332.28-8 .375-7.824.371-15.195 1.433-22.84 3.102C1288 568 1288 568 1285 567c4.342-5.789 8-6.298 14.832-5.793"/><path fill="#d69881" d="M613 51c4.142 4.142 6.157 9.143 8.625 14.375l1.523 3.156c2.153 4.526 3.865 8.534 4.852 13.469l-2-1v-2l-4-2c-1.622-4.3-2-7.357-2-12h-2c-3.393-3.393-3.95-5.4-5-10z"/><path fill="#d58f75" d="m642 652 4 2c.407 3.66.744 7.327 1 11h2v-2h2v2h2l-1 4-1 5c-3.457-3.457-4.792-6.533-6.75-11l-1.922-4.312C641 655 641 655 642 652"/><path fill="#d07f62" d="M843 309h3a69 69 0 0 1-2 13h-2v3l-4-1 2-1c-1-4-1-4-2-6l-3-1 1-3 5 1z"/><path fill="#d48f74" d="M435 198c1 4 1 4 1 10l4 1c-2.187 3.188-2.187 3.188-5 6l-1-2h-2c-4 4-4 4-5 7h-2c1.943-4.857 4.189-9.41 6.563-14.062 1.267-2.59 2.366-5.26 3.437-7.938"/><path fill="#d69178" d="M971 693c2.93.471 5.858.951 8.777 1.48 8.063 1.3 16.148.263 24.223-.48-2 2-2 2-5.187 2.5L996 697l1 2-4.5-.562L988 698v1c-5.08.154-10.05.27-15-1v-2l-2-1z"/><path fill="#d28b72" d="m1015 473 4 2c-2.312 2.46-2.312 2.46-6 5.375-3.885 3.106-7.475 6.1-11 9.625l-3-1v-2l-2-2c2-1 2-1 6 0v-2h3v-3l4-3 1-1 4-1z"/><path fill="#d59077" d="M972 443h1v5l1 3h-8l1 3-3 5h-4v2l-5 2c2.344-4.689 5.265-7.326 9-11a793 793 0 0 0 7-8z"/><path fill="#d99e88" d="M789 353c1.111 4.445.736 7.513 0 12l-1 1-.375 4.5L787 375l-3 1 .625 4.813L785 386c-2.437 2.625-2.437 2.625-5 4 .638-7.94 2.9-15.371 5.063-23l1.142-4.082q1.39-4.96 2.795-9.918"/><path fill="#d89a83" d="M710 559h1c1.027 4.223 2 8.445 2.938 12.688q.788 3.57 1.59 7.136l.71 3.222C717 585 717 585 719 590h-2l-2 2c-2.217-4.68-2-8.918-2-14l-2-1c-.94-6.011-1.193-11.922-1-18"/><path fill="#d5987f" d="M447 192c4.848 3.2 7.53 6.765 10 12l-1 2-3-1 1-4-4-2v-2c-4.5-.75-4.5-.75-9-1v2h-5c3.043-6.086 4.052-6 11-6"/><path fill="#d5967e" d="m900 705 3 1v6l3 1v2l3 3v6h2c2 3 2 3 2 7l2 1v3c-7.447-7.447-11.25-17.293-15-27z"/><path fill="#dea894" d="M600 441h1c2.158 5.394 2.394 10.43 2.656 16.172C604 460 604 460 606 462c.172 3.902.232 7.725.188 11.625l-.002 3.297A287 287 0 0 1 606 485h-1c-1.045-5.802-1.763-11.66-2.562-17.5l-.71-5c-.22-1.598-.442-3.197-.67-4.844l-.615-4.443c-.433-4.114-.597-8.08-.443-12.213"/><path fill="#d5957d" d="m423 36 2 1-4 4h-4v2c-4.98 6.266-11.43 7.486-19 9 4.137-4.137 9.058-6.795 14.063-9.75l3.087-1.863c2.58-1.528 5.211-2.966 7.85-4.387"/><path fill="#d6967e" d="M208 187c3.5-.125 3.5-.125 7 0-3.948 2.632-8.055 4.027-12.5 5.688l-5.156 1.949C193 196 193 196 190 195v-4c6.09-1.933 11.668-2 18-2z"/><path fill="#dba18d" d="M941 567h4c-.172 4.417-1.765 8.239-3.375 12.313-2.609 7.05-3.914 14.044-5.047 21.46L936 604h-1c-.176-8.382-.176-8.382 0-12l1-1c1.253-5.529 2-10.308 2-16l1-2h2z"/><path fill="#d99e88" d="m606 486 2 4 1 1-.062 3.563L609 498h2c.177 3.86.23 7.641.188 11.5l-.002 3.324A294 294 0 0 1 611 521h-1a549 549 0 0 1-2.062-13.562l-.565-3.87-1.022-7.203c-.363-3.48-.41-6.87-.351-10.365"/><path fill="#dca893" d="m517 61 4 2 5 1c1.058 2.644 2.1 5.298 3 8l4 4c2 4 2 4 2 7l2 1a196 196 0 0 1 2 9c-2.478-3.304-4.034-6.001-5.75-9.687C529.098 74.863 523.16 68.06 517 61"/><path fill="#d99b85" d="M680 692h2c-1 4-1 4-2 5h22c-5.824 3.883-12.231 3.291-19 3-9.299-2.299-9.299-2.299-12-5l4.5-.375L680 694z"/><path fill="#daa18b" d="M640 119c2.091 3.137 2.79 5.465 3.727 9.094l.937 3.62.961 3.786.984 3.785C649 148.597 649 148.597 649 152l-4-1c-.758-3.598-.758-3.598-1.125-8.062-.227-2.653-.5-5.303-.875-7.938h-2c-.314-2.656-.5-5.328-.625-8l-.227-4.5z"/><path fill="#d39079" d="M653 672c2 2 2 2 2 6a141 141 0 0 0 5 5v2c5 2 5 2 7 2q2.1 3.95 4 8c-8.399-3.36-15.583-11.113-20-19z"/><path fill="#dba48e" d="M842 322c1.177 4.706.5 7.132-.617 11.828l-1.09 4.61-1.168 4.812-1.145 4.86c-2.077 8.693-2.077 8.693-2.98 11.89h-1c-.193-6.078.06-11.989 1-18l2-1v-6l2-4c1-4 1-4 0-6h3z"/><path fill="#d28d74" d="m368 106 1 2c-3.008 2.094-3.008 2.094-7.125 4.5l-4.07 2.406C354 117 354 117 349 119v-6c3.5-.25 3.5-.25 7 0v-2h5v-2l-2-1c4-2 4-2 9-2"/><path fill="#d39076" d="m315 392 3 1 1 3c-2.062 1.684-2.062 1.684-5 3.438l-3.059 1.84L308 403l-4.062 2.5L301 407l-2-1 1-2-2-1h5l1-4v2h3l-1-4h2v2h2v-2h4z"/><path fill="#cf866b" d="M338 376c3.563 0 3.563 0 7 1-1.48 4.437-4.432 5.707-8.25 8.313l-4.016 2.8L329 390l-5-2v-1h5l-1-3c1.99-.39 3.992-.719 6-1l1-2h3z"/><path fill="#d39078" d="M402 83h3l1 3a131 131 0 0 1-9.812 6.25l-2.854 1.719c-2.403 1.417-4.865 2.733-7.334 4.031l-2-1 1-2h2v-4h8v-4h4v-2h3z"/><path fill="#d5967e" d="M1353 528c5.896-.531 11.158.498 16.875 1.875l4.492 1.055C1378 532 1378 532 1380 534q-4-.171-8-.375c-1.485-.07-2.97-.14-4.5-.21-1.155-.138-2.31-.274-3.5-.415v-2l-4.937.063L1354 531z"/><path fill="#d58b70" d="m1304.625 530.688 5.414-.051L1314 531l-1 3-5 2-2-2c-3.117-.23-3.117-.23-6.875-.187l-3.742.019C1292 534 1292 534 1288 535a195 195 0 0 1-7 0c7.642-3.821 15.174-4.294 23.625-4.312"/><path fill="#daa08a" d="M29 204c3.686.6 7.336 1.267 11 2l3-1v2c2.844.195 2.844.195 6.5.125l3.656-.055L56 207l-2 2c1.977.73 3.98 1.394 6 2v1c-9.033-.296-24.527-1.527-31-8"/><path fill="#d28468" d="M896 130c1 3 1 3-1.187 8.313L892 143c-4-2-4-2-6-5v-5h3l1 2h2v-2l3-1z"/><path fill="#d5947d" d="M761 607h2c1.29 6.45-.873 10.494-3.375 16.313l-1.29 3.11A296 296 0 0 1 755 634h-1c-.405-5.774.144-9.922 3-15h3c.441-2.625.441-2.625.563-6 .128-3.375.128-3.375.437-6"/><path fill="#d2866c" d="M1246 577c5.063-.437 5.063-.437 10 0-1 4-1 4-5.937 7.313L1245 587l-2-1v-3l3-3z"/><path fill="#d28164" d="M6 153c2.927 2.927 4 6.86 4 11h2v-2h2l1 3-3 2-3-1-2-5c-4 1-4 1-7 5 .403-5.51 2.435-8.826 6-13"/><path fill="#d79b83" d="m935 488 2 4a204 204 0 0 1-7 9l-2 5-3 1-2 5h-2c1.233-5.915 4.736-10.642 8-15.625l3.25-5.04z"/><path fill="#d59880" d="M864 121c2 3 2 3 2 6l-2 5h-3l-1 4.5-1 4.5h-3l-1 3c-1.43-4.292.462-6.638 2.37-10.52l1.442-2.855 1.409-2.926c1.361-2.722 1.361-2.722 3.779-6.699"/><path fill="#d69c85" d="m451 21 2 1-4 2-1 2h-2l-1 3c-2.656.708-5.324 1.37-8 2l-5 3h-3l-1 3-3-2c2.855-1.988 2.855-1.988 7.188-4.312l4.488-2.418L441 26l3.23-1.738c2.219-1.163 4.49-2.226 6.77-3.262"/><path fill="#d59982" d="M401 544c3.875.25 3.875.25 8 1l2 3 4 1 1 2 4 1c4 4.333 4 4.333 4 7-4.78-2.39-9.237-5.213-13.75-8.062l-2.691-1.682A370 370 0 0 1 401 545z"/><path fill="#d6957d" d="M468 522c6.273 5.019 10.442 12.21 12 20-2.5-1.75-2.5-1.75-5-4v-4h-3l-2-3h-1l-1-5-1-2z"/><path fill="#d89d86" d="M248 359v2h-3v2h-4l-1 2c-4.353 4-4.353 4-9 4v2c-3.324.416-6.66.75-10 1 3.674-3.674 8.84-5.416 13.5-7.625l3.246-1.562C245.744 359 245.744 359 248 359"/><path fill="#d79780" d="M1129 300c9.007 1.638 17.43 4.87 26 8-4 2-4 2-8.75.75L1142 307v-2a194 194 0 0 0-9 2c-1.125-2.875-1.125-2.875-2-6z"/><path fill="#d68e74" d="m547 113 1 2 2 1v6h2a168 168 0 0 1 2 6c2 3 2 3 6 4v5l-1-2h-2l1 5-2-1-.437-3.062L555 133h-3c-1.387-3.613-1.387-3.613-2.687-8.312l-1.325-4.676C547 116 547 116 547 113"/><path fill="#d39079" d="M330 130c-3.166 3.166-6.189 5.023-10.062 7.25l-3.786 2.203L313 141l-2-1v-3h4v-2c8.421-6.316 8.421-6.316 15-5"/></svg>