<svg xmlns="http://www.w3.org/2000/svg" width="1408" height="768"><path fill="#ce6d4b" d="m532.117 236.863 3.258.012 3.234-.012c8.011.01 8.011.01 11.391 1.137 1.168 4.248 2.179 8.452 3.125 12.75 6.56 27.864 19.387 52.042 38.867 73.031a92 92 0 0 1 4.14 4.938C598 331 598 331 600 332v2h2v2l4 2c2.75 2 2.75 2 5 4v2l4 2a511 511 0 0 1 7.562 5.875c9.098 7.021 18.614 13.16 28.438 19.125l4.918 3.023c20.092 11.769 42.677 21.263 65.082 27.602 4.763 1.559 5.662 1.871 8.562 6.188L731 413c11.352 33.026 27.827 65.427 59.812 82.375 20.83 9.876 42.741 10.649 64.645 3.941 22.194-8.246 35.954-22.75 45.668-43.941 5.418-13.05 6.215-25.55 6.273-39.602L908 412c4.25 2.55 7.242 4.9 10.812 8.25 5.76 5.354 11.631 10.548 17.59 15.68 7.215 6.226 14.34 12.518 21.305 19.023C960 457 960 457 962 458v2l4 2a247 247 0 0 1 6.75 6.188c3.801 3.585 7.59 7.103 11.562 10.5C998.085 491.06 1007.342 505.71 1011 524c.093 2.582.13 5.166.125 7.75l-.004 4.32c-.121 3.93-.121 3.93-.934 8.555-.243 5.677 1.488 9.82 3.586 15.043 3.952 10.736 2.424 20.937-1.773 31.332-2.724 4.558-5.257 8.257-9 12h-3c-1.176-2.93-1.176-2.93-2.313-6.875-8.386-26.265-32.785-40.804-56.152-52.922-38.9-19.09-84.192-22.819-126.535-15.203l-3.195.571c-29.973 5.56-59.505 13.737-89.04 21.222q-9.954 2.521-19.909 5.038-18.522 4.685-37.042 9.375a21097 21097 0 0 1-90.841 22.807q-6.282 1.561-12.562 3.125-10.77 2.678-21.544 5.343-4.083 1.011-8.166 2.026-5.606 1.394-11.217 2.774l-3.364.84C513.988 602.134 510.272 603 506 603v-2a286 286 0 0 1 10.062-7l3.07-2.067A2459 2459 0 0 1 528 586l3.922-2.617a5429 5429 0 0 1 6.898-4.586c6.694-4.48 13.346-9.02 20-13.558A2193 2193 0 0 1 580 551c10.14-6.74 20.24-13.535 30.312-20.375a4383 4383 0 0 1 37.54-25.18 1496 1496 0 0 0 22.925-15.562c6.16-4.205 12.405-8.28 18.653-12.352C693 475 693 475 695 472l-5-2a125 125 0 0 1-5.105-3.238l-2.954-1.966-3.129-2.108-3.237-2.173a641 641 0 0 1-49.888-37.308 495 495 0 0 0-5.812-4.695l-3.063-2.45-2.792-2.214L612 412v-2l-4-2a362 362 0 0 1-8-8c-2.87-2.89-5.765-5.75-8.672-8.602-7.576-7.474-14.81-14.97-21.328-23.398l-2.633-3.258c-26.227-32.656-44.98-70.95-44.555-113.492l.002-3.844c.051-10.531.051-10.531 9.303-10.543"/><path fill="#ce6c4b" d="M554 166h2c-.844 5.555-1.839 10.541-3.707 15.852L552 186c3.743.75 6.308.734 10.063.438q3.345-.134 6.69-.239l3.591-.131c18.97-.352 38.102 2.208 56.656 5.932l3.094.608C655.087 197.225 677.486 204.671 699 214l3.238 1.39c38.995 17.489 75.638 41.44 107.18 70.274 2.057 1.86 4.15 3.682 6.254 5.488 4.98 4.428 9.69 9.065 14.39 13.786l2.604 2.591c29.448 29.493 58.068 69.683 58.646 112.846-.114 19.212-5.276 35.36-18.312 49.625-12.362 12.124-27.964 17.185-45 18.25-20.037-1.002-37.104-8.74-51-23.25-20.096-23.752-29.221-51.523-38.937-80.625C725.592 347.199 707.913 313.913 680 286v-2l-4-2-2.875-2.937c-38.402-37.82-94.675-54.405-147.48-55.137-44.668.587-89.629 13.709-127.172 38.004L395 264l-2-1a146 146 0 0 1 7.188-7.5l2.249-2.215C416.17 239.89 431.756 229.13 448 219l2.738-1.766c22.957-14.219 49.8-22.145 76.11-27.226L532 189l4.355-.645c5.059-1.88 6.277-4.527 8.895-9.167 5.623-9.787 5.623-9.787 8.75-13.188"/><path fill="#cc6c4b" d="M554 166h2c-.844 5.555-1.839 10.541-3.707 15.852L552 186c3.743.75 6.308.734 10.063.438q3.345-.134 6.69-.239l3.591-.131c47.569-.883 47.569-.883 60.656 8.932h4v2l4 1 2 1-2 4-3 1v-2h-4v2h-2v2h-2c-.625-3-.625-3-1-6l-1 4h-2v-4h-2v6l-4-1-2 1v-2h-2v2h-2v-2h-2v4h-2v-2l-4 .125-4-.125v-4h-2v4h-6l-1-3-1 3h-2v-2h-2v6h-2v2h4v4h2c.504 4.336 1 8.628 1 13l3 1 3 1v2l4 1 2.797.86c2.705.815 5.454 1.485 8.203 2.14v-3l5-1c1 3 1 3 1 6h2v2c2-1 2-1 4-5 3.125-2.25 3.125-2.25 6-4-.07 1.01-.14 2.021-.21 3.063l-.165 3.937c-.07 1.3-.14 2.599-.21 3.938L632 246h6v-2h2v5c4 4 4 4 7 5v2l5 2 3 5c-4.354-1.742-7.467-3.531-11.312-6.125C595.613 225.674 534.518 217.843 479 229c-28.6 6.969-55.728 16.882-80.527 32.93L395 264l-2-1a146 146 0 0 1 7.188-7.5l2.249-2.215C416.17 239.89 431.756 229.13 448 219l2.738-1.766c22.957-14.219 49.8-22.145 76.11-27.226L532 189l4.355-.645c5.059-1.88 6.277-4.527 8.895-9.167 5.623-9.787 5.623-9.787 8.75-13.188"/><path fill="#cc6d4c" d="M665 452c5 1 5 1 9 4 7.333 3 7.333 3 10 3l1 4c4 3 4 3 8 4v2l3 .25 3 .75v6l-4 4h3c-1 5-1 5-2 8h2v-2h2v4h-6v4h-2v4h-2v-2h-2v2h-4v2h-4v2h-4v4h2v2h-2v2c-5 2-5 2-8 2v2h-4v4h-4v2h-2l-2 4h-4v2l-6 2v2h-2v2h-2v2h-2v2h-4v2h-6v2h-2v2h-4v2h-8v2h-2v2h-4v4h-2v2h-2l-1 4-1-2c-4.062-.25-4.062-.25-8 0v2h-2v2h-2v2h-4v4h-6l2 5v5h-2v-4c-4-.5-4-.5-8 0v4h2l1 5c4.691.121 4.691.121 10.563-.562l5.878-.63L598 579v-2h5v-2c5.162-3.441 8.608-3.05 14.738-2.937C621 572 621 572 626 571l1-2q3.493-.553 7-1v-1a161 161 0 0 1 11 0l2 2-8.123 2.03-28.506 7.127a76458 76458 0 0 0-41.072 10.275l-17.525 4.388q-4.196 1.05-8.39 2.103l-11.755 2.944-3.486.876C511.114 603 511.114 603 506 603v-2a286 286 0 0 1 10.063-7l3.069-2.067q4.427-2.976 8.868-5.933l3.922-2.617q3.447-2.296 6.898-4.586c6.694-4.48 13.346-9.02 20-13.558 7.03-4.792 14.094-9.53 21.18-14.239 10.14-6.74 20.24-13.535 30.313-20.375a4383 4383 0 0 1 37.539-25.18 1496 1496 0 0 0 22.925-15.562c6.16-4.205 12.405-8.28 18.653-12.352C693 475 693 475 695 472l-5-2a155 155 0 0 1-5.703-3.625l-3.219-2.14L677.75 462l-3.375-2.234-3.203-2.141-2.935-1.96C666 454 666 454 665 452"/><path fill="#cd7252" d="m594 543-1 5c-4.312 2.125-4.312 2.125-9 4l-4 3h-2v3l-2 2v4h2l1-4 1 4h4v2h-2l2 5v5h-2v-4c-4-.5-4-.5-8 0v4h2l1 5c4.691.121 4.691.121 10.563-.562l5.878-.63L598 579v-2h5v-2c5.162-3.441 8.608-3.05 14.738-2.937C621 572 621 572 626 571l1-2q3.493-.553 7-1v-1a161 161 0 0 1 11 0l2 2-36.63 9.157a76458 76458 0 0 0-41.07 10.275l-17.526 4.388q-4.196 1.05-8.39 2.103l-11.755 2.944-3.486.876C511.114 603 511.114 603 506 603v-2a286 286 0 0 1 10.063-7l3.069-2.067q4.427-2.976 8.868-5.933l3.922-2.617q3.447-2.296 6.898-4.586c6.694-4.48 13.346-9.02 20-13.558a1954 1954 0 0 1 18.522-12.467 890 890 0 0 0 6.385-4.303l2.898-1.969 2.977-2.031C592 543 592 543 594 543"/><path fill="#ca6d4d" d="m486 203 3 3c-5 3-5 3-10 4v-2l-4 3 1 2 4 1v2h2v-2h2v6l4-1 1 3c6.007 2.002 12.919 1.25 19.148.5 5.63-.58 11.201-.646 16.852-.625l3.117-.012c6.027.008 11.917.255 17.883 1.137v1a602 602 0 0 1-11.625-.062c-47.878-.305-95.522 11.861-135.902 37.992L395 264l-2-1a146 146 0 0 1 7.188-7.5l2.249-2.215C416.17 239.89 431.756 229.13 448 219l2.738-1.766c6.816-4.22 14.006-7.496 21.325-10.734l3.105-1.388c7.47-3.233 7.47-3.233 10.832-2.112"/><path fill="#ce6c4c" d="M990 494v2l4-1c2.75 1.813 2.75 1.813 5 4v2l5 2c1.327 3.98.982 7.66.938 11.875L1005 520h2q.124 5.5 0 11l-1-3h-4v2h2v6h2l1-2v6l-5 2-1-5-4 2 .5 3 .5 3-4 2-1-4-1 5c-3.062 1.813-3.062 1.813-6 2-.5-3.875-.5-3.875 0-8h2v2h2q-.378-3.518-1-7l-1 3h-2v-2h-2v2h-2v-2h-2v2h-2v-2h-2v6h-4v-2h2c.095-2.331.074-4.668 0-7s-.095-4.669 0-7h2v6h2v-8h2v-4h6v-2h-4v-2h-2v-4h-2c-.25-4-.25-4 0-8h2l.875-4.875L982 496c4-2 4-2 8-2"/><path fill="#ce704f" d="M1004 505c2.465 2.465 2.99 4.505 4.063 7.813l1.035 3.144c1.593 5.372 2.038 10.229 2.027 15.793l-.004 4.32c-.121 3.93-.121 3.93-.933 8.555-.244 5.677 1.487 9.82 3.585 15.043 3.952 10.736 2.424 20.937-1.773 31.332-2.724 4.558-5.257 8.257-9 12h-3c-1.176-2.895-1.176-2.895-2.312-6.812-1.619-5.232-3.406-9.87-6.125-14.625L989 577h3l4-1v-4h-2c-.98-3.923-.998-6.007 0-10h4c.46-3.246.46-3.246.375-7.437l-.04-4.184c-.054-.558-.054-.558-.335-3.379l-2-1c0-4 0-4 1-8l5-2 1 5 2-3v2h2l-1-4h-2v-6h-2v-2h4c.875-4 .875-4 1-8h-2c-.414-3.281-.414-3.281-.625-7.5l-.227-4.219z"/><path fill="#ce6f4e" d="M902 476h2l1 3 3 1v2h-2v2h-4v2h2v2h2l1-4h1v6h-2v2h-2v2h-2v-4h-2v4h-4v-2h-2v2h-2v2h-2v-2h-2v4h-4v4h-4v2h-2c1-4 1-4 2-6l-4 2v-2c-9.285.11-18.404 2.581-26 8l-3 5-1-4c-4.283-.223-8.352-.22-12.625-.062-20.23.401-20.23.401-29.375-2.938v-2c-2.625-.344-2.625-.344-6-.5s-3.375-.156-6-.5v-2c-4.29-.252-7.754.15-12 1v4h-2v-4h-4v-2h-4v-6h-2v2h-2v-2h-2v-4c4 1 4 1 6 2l1-4h-2a110 110 0 0 1-2-7l3.375 2.563L775 485l4.625 3.438c18.442 12.706 39.527 17.806 61.691 14.277 15.865-3.079 29.296-9.077 41.414-19.93C885 481 885 481 889 480l2-1q.509 3.499 1 7h2l1-4 4-1 1-3h2z"/><path fill="#cd6f50" d="m715 312 1 2 4-2v4h6v4h2v2h-2v2l3-1 1-3h2l1 5 5 1v2h-2c-.375 4-.375 4 0 8h4v2h-4c-.375 4-.375 4 0 8h2c-.25 4.5-.25 4.5-1 9h-2v-2h-3c.75 3.313.75 3.313 2 7l1 3h2l1 5 2 1v3h2v2h2v-2h4v4c-4 2-4 2-7 2a342 342 0 0 0 2 9c.074 3 .095 6.002 0 9-1.981-2.972-2.875-5.342-3.96-8.723-4.212-12.816-8.665-25.344-14.352-37.59l-1.488-3.209c-2.131-4.489-4.32-8.666-6.997-12.865-2.793-4.58-3.13-8.3-3.203-13.613h2a236 236 0 0 0-1-7z"/><path fill="#d1886e" d="m486 203 3 3c-5 3-5 3-10 4v-2l-4 3 1 2 4 1v2h2v-2h2v6l4-1 1 3c6.007 2.002 12.919 1.25 19.148.5 5.63-.58 11.201-.646 16.852-.625l3.117-.012c6.027.008 11.917.255 17.883 1.137v1a602 602 0 0 1-11.625-.062c-33.695-.215-66.977 5.473-98.187 18.437L432 244c-2-1-2-1-3-3h7v-2h4v-2l7-2v-2h-3l-1-3h6v1c6 0 6 0 10-2q5.002.476 10 1v-2q3.499-.509 7-1l1-2h3v-3a169 169 0 0 0-6 2v-2l-4 1a162 162 0 0 1 0-9c-3.098 0-5.963.393-9 1l-1 3-4.437.938L451 220l-2 4c-2.957 1.478-5.742 1.06-9 1 8.72-8.72 21.198-13.774 32.375-18.687l3.044-1.352c7.206-3.086 7.206-3.086 10.581-1.961"/><path fill="#ce7152" d="M682 534h2l.438 3 .562 3h3v4h-2v2h4v-4h2v-2h2v2h4v-6h2c.375 4 .375 4 0 8h-4l1 3 3 1v3c2.563-.074 2.563-.074 6-.687l3.598-.63c2.629-.528 5.24-1.149 7.84-1.808C721 547 721 547 727 547v-2h6l1-1q4-.062 8 0c-3.095 2.064-5.252 2.714-8.835 3.6l-3.647.912-3.967.972-4.12 1.025a7016 7016 0 0 1-13.119 3.241l-8.6 2.133a6771 6771 0 0 1-12.67 3.134 1511 1511 0 0 0-19.337 4.872l-3.369.869c-2.957.765-5.912 1.541-8.867 2.317C651 568 651 568 647 567h2l2-4c4.578-1.501 8.16-2 13-2v-2l4.625-.437c4.888-.512 7.223-1.245 11.375-3.563l5-1 1-4-4-1-2-1v4h-2v-2h-2v3h-2v-5h-2v-4h4v-2h6c.25-4 .25-4 0-8"/><path fill="#cd7657" d="m767 479 3.375 2.563L775 485l4.625 3.438c18.487 12.738 39.459 17.702 61.664 14.304 4.96-.992 9.753-2.381 14.59-3.847 3.704-1.062 7.267-1.74 11.121-1.895v2a563 563 0 0 1-9 3c-5.914 2.535-7.601 3.335-11 9l-1-4c-4.283-.223-8.352-.22-12.625-.062-20.23.401-20.23.401-29.375-2.938v-2c-2.625-.344-2.625-.344-6-.5s-3.375-.156-6-.5v-2c-4.29-.252-7.754.15-12 1v4h-2v-4h-4v-2h-4v-6h-2v2h-2v-2h-2v-4c4 1 4 1 6 2l1-4h-2a110 110 0 0 1-2-7"/><path fill="#c46d51" d="m556 567 2 1c-2.062 2.25-2.062 2.25-5 5a140 140 0 0 0-5 5v2l-3.437 1.438c-1.176.515-2.352 1.03-3.563 1.562l-1 3a277 277 0 0 1-8 3l-4 3c4.98 1.66 9.809-.516 14.75-1.812l3.25-.83c4.36-1.12 8.7-2.27 13.02-3.542 3.451-.945 6.419-1.107 9.98-.816v2c-9.808 3-9.808 3-14 3v2c-3.204.974-6.449 1.813-9.703 2.602-.99.24-1.979.482-2.998.73q-3.151.766-6.305 1.519c-3.218.768-6.433 1.55-9.646 2.337C510.593 603 510.593 603 506 603v-2a286 286 0 0 1 10.063-7l3.042-2.05q4.44-2.984 8.895-5.95l4.344-2.898a2578 2578 0 0 1 7.234-4.801c4.706-3.164 9.313-6.462 13.91-9.781z"/><path fill="#ce8064" d="m560 223 5 2a230 230 0 0 0 8.875.875c8.574.832 17.037 2.03 25.125 5.125v2l4 1 2.797.86c2.705.815 5.454 1.485 8.203 2.14v-3l5-1c1 3 1 3 1 6h2v2c2-1 2-1 4-5 3.125-2.25 3.125-2.25 6-4-.07 1.01-.14 2.021-.21 3.063l-.165 3.937c-.07 1.3-.14 2.599-.21 3.938L632 246h6v-2h2v5c4 4 4 4 7 5v2l5 2 3 5c-4.354-1.742-7.467-3.531-11.312-6.125C615.08 238.309 581.672 228.717 548 225c4.527-2.264 7.005-2.307 12-2"/><path fill="#ce8e78" d="M554 166h2c-.844 5.555-1.839 10.541-3.707 15.852L552 186c3.743.75 6.308.734 10.063.438q3.345-.134 6.69-.239l3.591-.131c6.074-.113 12.099.255 18.156.682l3.651.257c11.72.92 23.35 2.54 34.849 4.993v1c-2.665.101-5.333.13-8 .125l-4.5.008L613 193v-1a567 567 0 0 0-12.5-1 567 567 0 0 1-12.5-1v-1c-6.489-.463-12.998-.566-19.5-.75l-5.578-.207-5.39-.152-4.952-.156c-4.784.277-8.19 1.417-12.58 3.265-3.336.441-3.336.441-6.375.563C528 192 528 192 526 194q-3.495.526-7 1l-5 2q-4.36.296-8.723.578c-3.49.45-6.467 1.364-9.777 2.547C490 202 490 202 486 201c13.479-4.604 26.767-8.23 40.742-10.957L532 189l4.367-.648c5.05-1.88 6.27-4.532 8.883-9.165 5.623-9.786 5.623-9.786 8.75-13.187"/><path fill="#ce795b" d="M728 407c2.388 3.583 3.469 7.047 4.875 11.125C739.869 437.263 748.393 458.393 763 473l-1 2-4-2-1-4h-2c-3-5-3-5-3-8l-5-1-.437 3.063L746 466c-3.062-.75-3.062-.75-6-2v2h-2v-2h-2c-1.438-10.905-1.438-10.905 1-17l2-1-2-4-3-1 1-5c.25-4.25.25-4.25 0-8l-3-1a212 212 0 0 1-2-10l-1.125-3.375C728 411 728 411 728 407"/><path fill="#ce7c5f" d="M748 410c3 1 3 1 5.188 4.75C755 419 755 419 755 424h2l1 3 2 1v-2h4l3 5 5 3v5l-4 1c-.437 3.375-.437 3.375 0 7l3 3h5c.086 2.665.08 5.335 0 8l3 2 1-2 1 4 3 1-1 1c.828 2.78 1.702 5.403 3 8-19.78-9.89-30.888-39.374-38-59z"/><path fill="#c66f4f" d="M630 193c28.714 2.523 58.296 15.702 84 28l5.125 2.313L722 225c-3.707 2.471-4.805 1.746-9 1v2h-2l1-4-5-2-10-5c-5.038-2.31-10.012-3.977-15.375-5.375l-4.273-1.148c-.553-.08-.553-.08-3.352-.477l-1 3h-5l-2 1v-4h2v-3l-5-1-1-2c-4.29-1.526-8.579-2.263-13.062-2.937-4.446-.709-8.127-1.522-11.938-4.063v-2l-5 1v-2z"/><path fill="#cd8167" d="M588 387h5c2 2 2 2 2 6h4v3h2v2l3 1v2l4 2 4.188 3.75L616 410l1-2c3.625-.562 3.625-.562 7 0-.062 3.5-.062 3.5-1 7l2-1 1-5c3.125-.125 3.125-.125 6 1l-1 5c0 2 0 2 1 5.5s1 3.5 1 5.5h2v2l2 1 1 3c-3.58-1.79-6.02-3.522-9.062-6.062-3.016-2.512-6.033-5.014-9.102-7.461l-3.024-2.414-2.792-2.215L612 412v-2l-4-2a362 362 0 0 1-8-8l-2.562-2.562L595 395l-3.812-3.75C588 388 588 388 588 387"/><path fill="#c77254" d="M1004 505c2.465 2.465 2.99 4.505 4.063 7.813l1.035 3.144c1.593 5.372 2.038 10.229 2.027 15.793l-.004 4.32c-.121 3.93-.121 3.93-.933 8.555-.244 5.677 1.487 9.82 3.585 15.043 3.704 10.061 2.387 19.346-.773 29.332h-1c-.062-5.472-.02-10.935.04-16.406l.023-3.516.035-3.237C1012 563 1012 563 1011 559h-2c-3-6.115-3-6.115-3-10l-3 1 1-5h2c.25-4.5.25-4.5 0-9h-2v-6h-2v-2h4c.875-4 .875-4 1-8h-2c-.414-3.281-.414-3.281-.625-7.5l-.227-4.219z"/><path fill="#d08d76" d="M908 412c4.177 2.506 7.354 4.895 10.938 8.125l3.027 2.695L924 425l-2 1-3-1v-2l-5-1v-2h-2c-.41 3.406-.698 6.827-.937 10.25-.82 10.38-1.613 19.667-7.063 28.75a143 143 0 0 0-2.062 5.813c-.64 1.711-1.28 3.423-1.938 5.187h-2l-2 4c-2.928 2.928-5.298 4.272-9 6 2-4 2-4 5.688-8.687 12.18-16.632 14.627-35.5 14.71-55.54z"/><path fill="#cf856a" d="m724 343 1 3 3 1v2h3a235 235 0 0 1 2 10l2 4h2l1 5 2 1v3h2v2h2v-2h4v4c-4 2-4 2-7 2a342 342 0 0 0 2 9c.074 3 .095 6.002 0 9-2.022-3.034-2.964-5.554-4.102-9.004l-1.225-3.66-1.298-3.899c-3.5-10.39-7.302-20.347-12.074-30.226C723 346 723 346 724 343"/><path fill="#cc917a" d="m431 230 2 1c-2.187 2.563-2.187 2.563-5 5h-3l-2 4-2.875 3.188L418 246l4 1v-2h3v-2l5 1c-2.69 2.69-5.63 3.85-9.062 5.5-7.798 3.825-15.192 8.142-22.586 12.691L395 264l-2-1a146 146 0 0 1 7.188-7.5l2.242-2.21c5.6-5.467 11.336-10.568 17.57-15.29l3.047-2.352c2.596-1.957 5.269-3.813 7.953-5.648"/><path fill="#d1927a" d="M798 524h2v2l5-1c11.27-1.15 22.683-1.414 34-1v1c-3.308.41-6.622.775-9.937 1.125-22.25 2.578-44.144 7.825-65.704 13.809C759 541 759 541 754 541l4-1v-2q2.999-.51 6-1l1-2a298 298 0 0 1 12.375-2.562c12.366-2.352 12.366-2.352 15.625-3.438l1-2h4z"/><path fill="#cc8870" d="M786 472a177 177 0 0 1 11 4c4-1 4-1 7-2l3 5 3 1v3c5.53 1.636 11.542 1.133 17.25 1.125l5.953.008C838 484 838 484 840 483l4.625.063L849 483v-2c3.5-.125 3.5-.125 7 0-2.767 2.767-5.414 3.083-9.187 4.063l-3.918 1.035c-17.134 3.97-34.411 1.216-49.602-7.684-6.034-3.896-6.034-3.896-7.293-6.414"/><path fill="#d08b70" d="M827 303c10.782 8.127 20.029 19.146 28 30l3 3.938 2 3.062-1 2c-3.832-1.549-5.677-2.516-8-6v-3h-4l-3-3v-3h-2v-3l-4-.937-4-1.063v-4l3-1h-4l1-5-5-1-1-5h-2z"/><path fill="#d0876e" d="M554 345c3 1 3 1 5 5l4.5.813L568 352c1.438 3.375 1.438 3.375 2 7l2 4v3l4 1v3l4-1c.421 2.989.753 5.992 1 9h2v2l4 1c.75 3.063.75 3.063 1 6-13.567-10.969-24.248-25.643-34-40z"/><path fill="#ce6b49" d="M540 308h2v6c4 .5 4 .5 8 0v-2h2v-2h2v2h2v-2h2v6h2v-4h2c.375 5 .375 5 0 10h-4v2h-2v-2c-8.118-1.294-8.118-1.294-12 0l-1-5h-2c-1.502-3.003-1.183-5.7-1-9"/><path fill="#d39b85" d="M695 472h2c-1.972 3.945-3.763 6.079-7 9l-3 1-2 4c-5.257 3.154-10.055 5.514-16 7l-1 4h-3v2l-5 2-1 2c-6.23 3-6.23 3-10 3l-2 4c-2.875 2.313-2.875 2.313-6 4l-4-1c6.236-4.345 12.478-8.675 18.813-12.875 6.071-4.027 12.065-8.163 18.058-12.305 5.353-3.656 10.776-7.2 16.215-10.726C693 475 693 475 695 472"/><path fill="#d39c86" d="m560 223 5 2a230 230 0 0 0 8.875.875c8.574.832 17.037 2.03 25.125 5.125v2l4 1q3.35.91 6.688 1.875l3.511.992L616 238l1 3h3v2c-3.03-.905-6.025-1.929-9-3-20.482-7.248-41.278-13.097-63-15 4.527-2.264 7.005-2.307 12-2"/><path fill="#c26f52" d="M867 497v2a563 563 0 0 1-9 3c-5.914 2.535-7.601 3.335-11 9l-1-4c-4.41-.248-8.599-.276-13-.125-7.984.23-15.241.416-23-1.875v-1c3.02-.021 6.042.01 9.063.063 12.912.045 24.487-1.312 36.816-5.16C859.549 497.84 863.166 497 867 497"/><path fill="#d49e88" d="M756 246c16.816 6.727 32.172 21.358 46 33l3.012 2.527c2.403 2.076 4.709 4.263 6.988 6.473l-3 1c-3-2-3-2-4-5l-3-1-1-2-4-1-1-4-5-2-2-1v-2l-5-2-1-3-3-1-3-1-1-3-3-1-3-1-1-3-4-1-1-2-4.062-1.937L756 249z"/><path fill="#d9a692" d="M663 202c6.352.44 12.042 2.629 17.938 4.875l3.141 1.188c7.84 3.019 15.53 6.322 23.171 9.812l3.082 1.406c4.232 1.97 7.92 3.908 11.668 6.719-5.625 1.125-5.625 1.125-9 0v2h-2l1-4-5-2-10-5c-3.853-1.794-7.148-3.032-11.312-3.937L682 212l-2-4a174 174 0 0 0-11-3c-2.016-.615-4.028-1.254-6-2z"/><path fill="#d19078" d="M560 276c2.809 2.81 3.839 5.988 5.438 9.625 4.837 10.443 10.9 20.008 18.457 28.707.694.88 1.39 1.76 2.105 2.668l-1 2-2-2h-3c-3-4-3-4-5-9l-5-3a442 442 0 0 1-3-7l-4-2q.424-4.508 1-9h-3a164 164 0 0 1-1-11"/><path fill="#d3937c" d="M924 426c4.441 2.665 7.578 5.226 11.313 8.75A534 534 0 0 0 950 448q3.957 3.581 7.898 7.18C960 457 960 457 962 458v2c-4.5-.062-4.5-.062-9-1v-5h-3v-2h-2l-2-5h-2l-1-3a299 299 0 0 0-8-1v-2q-3.518.378-7 1l1-2h5v-2h-2v-3h-2v-2l-3-1-1-3-2-1z"/><path fill="#d39880" d="M588 321c3.858 3.069 6.98 6.116 10 10l2 1v2h2v2l4 2c2.75 2 2.75 2 5 4v2l4 2a263 263 0 0 1 6.875 5.063l3.617 2.722L628 356l-2 1c-4.125-1.812-4.125-1.812-8-4v-2l-5-2v-2l-5-1-3-1-2 3h-3v-2l4-2-3-4v-4h-2v-2h-2v-2l-4-1c-1.625-2.812-1.625-2.812-3-6z"/><path fill="#cf7e60" d="M947 454h6l1 4 4.563.75c6.732 1.548 8.883 4.174 13.437 9.25a383 383 0 0 0 7 6l-3 1-3-2v-2l-5-1-1-4-4 1c-3.481 0-6.602-.216-10-1l1-4h2v-2h-5l-4-4z"/><path fill="#ce6b49" d="M535 280h3v4l2 1c.313 3.375.313 3.375 0 7l-3 3 1 3h2v2h-2v4h2v-2h2v4h-5c-3.817-6.434-6.243-14.445-6-22z"/><path fill="#cf8b72" d="M673 384c7.698 2.437 15.106 5.42 22.563 8.5q3.532 1.455 7.066 2.906l3.325 1.367c2.61 1.051 5.246 2.037 7.886 3.008L717 401v1c-11.446.37-11.446.37-15-2l-2.875-.937C696 398 696 398 691 395v-2a100 100 0 0 0-6-1l-3-1v-2l-3.937-.375L674 388z"/><path fill="#d2947c" d="m594 543-1 5c-4.312 2.125-4.312 2.125-9 4l-4 3h-2v3l-2 2v2l-3-1a150 150 0 0 0-6 4c-5 2-5 2-9 1 10.293-7.063 20.594-14.106 31-21 3-2 3-2 5-2"/><path fill="#cb6c4d" d="M626 409c3.125-.125 3.125-.125 6 1l-1 5c0 2 0 2 1 5.5s1 3.5 1 5.5h2v2l2 1 1 3c-3.657-1.829-6.436-3.723-9.625-6.25l-2.914-2.266c-2.729-2.754-3.886-4.643-4.461-8.484l4-1z"/><path fill="#dbad9a" d="M551 181h1v5c4.23.418 4.23.418 10.188.188 22.428-.52 44.842 1.126 66.812 5.812v1c-2.665.101-5.333.13-8 .125l-4.5.008L613 193v-1a567 567 0 0 0-12.5-1 567 567 0 0 1-12.5-1v-1a262 262 0 0 0-8.348-.07l-5.209-.032q-5.512-.023-11.023.024l-5.205-.055-4.84.004L550 188c-.076-3.554-.076-3.554 1-7"/><path fill="#d49880" d="M728 407c2.43 3.646 3.556 7.231 5 11.375 3.436 9.53 7.636 18.456 12.156 27.504L747 450l-1 2h-2v-5q-3.012.43-6 1l1-4c-2-2-2-2-5-3l1-5c.25-4.25.25-4.25 0-8l-3-1a212 212 0 0 1-2-10l-1.125-3.375C728 411 728 411 728 407"/><path fill="#d28d73" d="M979 475c9.602 5.761 20.21 15.838 23 27-3-1-3-1-5.437-3.562C994 496 994 496 990 496l-2-4 4 1c-1.618-2.697-3.256-5.383-5-8h-3v2l-4 1-2-4 4-1-1-5-2-1z"/><path fill="#d49781" d="m530 296 1 2 4 1c2.463 4.925 2.285 8.772 2.363 14.2L538 316l5 1c4.37 9.89 4.37 9.89 3 14h2v3l2 1-2 2c-8.033-11.25-16.405-27.137-18-41"/><path fill="#d38c72" d="M725 228c6.114 1.644 11.373 4.86 16.813 8l2.927 1.656c7.133 4.09 7.133 4.09 8.26 6.344q-3.518-.378-7-1v-2l-3-1-3-1v-2h-2l-1 4c-3.991-.177-6.389-1.194-10-3v-2l3-1-4-3z"/><path fill="#d2927a" d="m556 567 2 1c-2.062 2.25-2.062 2.25-5 5a140 140 0 0 0-5 5v2l-3.437 1.438c-1.176.515-2.352 1.03-3.563 1.562l-1 3c-2.941.73-2.941.73-6.562 1.188l-3.63.48L527 588c3.585-3.834 7.233-6.612 11.688-9.375 4.46-2.795 8.806-5.653 13.062-8.75z"/><path fill="#d19681" d="M908 412c4.177 2.506 7.354 4.895 10.938 8.125l3.027 2.695L924 425l-2 1-3-1v-2l-5-1v-2h-2a196 196 0 0 0-1.125 11l-.262 3.18c-.213 2.606-.414 5.213-.613 7.82-4.304-5.74-3.287-10.481-3-17.437l.059-3.78c.129-3.53.129-3.53.941-8.783"/><path fill="#cc7c5f" d="m890 479 2 3-1 4-2-1-3 2v3a101 101 0 0 1-6 3l-2 2c-4.25.375-4.25.375-8 0 2.134-4.268 3.553-5.403 7.375-8.062l2.898-2.036L883 483l4-3h2z"/><path fill="#d0917b" d="M888 438c1.843 7.372-2.368 14.266-6.129 20.566-3.825 5.69-7.443 10.185-12.871 14.434-.25-3.437-.25-3.437 0-7l4-1v-2h2v-2h2v-2h3l-1-4h1l.375-3 .625-3h3a354 354 0 0 0 2-10z"/><path fill="#daa995" d="m541 186 1 2-2 3c-2.75.441-2.75.441-6 .563-5.792.23-5.792.23-8 2.437q-3.495.526-7 1l-5 2q-4.36.296-8.723.578c-3.49.45-6.467 1.364-9.777 2.547C490 202 490 202 486 201c13.479-4.604 26.767-8.23 40.742-10.957 12.743-2.528 12.743-2.528 14.258-4.043"/><path fill="#ce8c74" d="m681 558-3 1v2c-2.415.885-2.415.885-5.766 1.762l-3.636.95-3.848.976-3.8 1.01-3.653.939-3.364.866C651 568 651 568 647 567h2l2-4c4.578-1.501 8.16-2 13-2v-2c5.684-.779 11.267-1.125 17-1"/><path fill="#c86b4a" d="m435 236 4 1-5 3-4 4-5-1v2h-3v2h-6l2.813-3.25A163 163 0 0 0 425 236c6.292-2.472 6.292-2.472 10 0"/><path fill="#cc6948" d="M542 581h2c2 4 2 4 2 9-3.648 1.469-3.648 1.469-8.375 2.5-1.555.36-3.11.722-4.71 1.094L529 594l-2-3c3.258-2.84 5.509-3.936 9.813-4.5L540 586l1-4z"/><path fill="#d59d87" d="M634 567a161 161 0 0 1 11 0l2 2c-6.6 1.7-13.206 3.383-19.812 5.063l-5.706 1.47-5.439 1.377-5.03 1.286C607 579 607 579 604 578h2v-2h8v-2h7v-2l5-1 1-2q3.493-.553 7-1z"/><path fill="#d6886d" d="m987 552 1 4h-5c.063 2.938.063 2.938 1 6l2 1v3l-3 1-1-3h-2c2 4 2 4 5.688 7.625L989 575l-1 2c-2.582-2.29-2.582-2.29-5.812-5.625l-3.208-3.29L976 565l-4-4 4 1 1-4c3.213-2.428 6.393-4.197 10-6"/><path fill="#c07254" d="m844.605 520.121 5.166.147 5.416.17 5.452.158q6.68.195 13.361.404c-2.773 2.773-4.53 2.311-8.414 2.414l-3.976.118-4.235.093-4.26.113c-22.584.567-22.584.567-28.115.262v-1a373 373 0 0 1 8-2c3.996-1.332 7.39-1.005 11.605-.879"/><path fill="#d2947d" d="M655 263c7.491.491 7.491.491 11 4l3 2a162 162 0 0 1 4.063 4.563C677 278 677 278 679 279l1 5c-4-2-4-2-6.875-4.937-4.797-4.725-9.968-8.717-15.309-12.805L655 264z"/><path fill="#d39b84" d="M748 410c3 1 3 1 5.125 4.438 2.037 4.957 2.433 9.254 2.875 14.562h2l1 5h2v3h2v5l2 1-2 3c-5.93-9.107-15-24.987-15-36"/><path fill="#ce7d60" d="M754 394h2c.336 2.625.336 2.625.375 6l.086 3.375L756 406h-4c.25 4 .25 4 1 8l-4-2v-2h-2c-4.237-10.29-4.237-10.29-3-14 4 4 4 4 6 8l1-2h3q.063-4 0-8"/><path fill="#d4a18c" d="M800 530v1a191 191 0 0 1-7.191 1.777l-4.553 1.057-4.818 1.104a9702 9702 0 0 0-9.317 2.152l-4.205.964a138 138 0 0 0-7.611 2.065C759 541 759 541 754 541l4-1v-2q2.999-.51 6-1l1-2c3.98-.984 7.918-1.842 11.938-2.625l3.345-.695c6.658-1.322 12.891-2.024 19.717-1.68"/><path fill="#bf7255" d="M527.787 220.794c3.234.019 6.467.02 9.701.02 15.772.038 15.772.038 21.512 1.186v1c-11.303 1.19-11.303 1.19-17.191.531-5.616-.62-11.169-.677-16.809-.656l-3.117-.012c-6.038.008-11.894.406-17.883 1.137-3.332.075-6.668.094-10 0v-1c11.21-2.356 22.38-2.273 33.787-2.206"/><path fill="#dab2a2" d="M555 591c-4.394 2.197-8.445 3.216-13.219 4.383-1.819.445-3.637.89-5.511 1.347l-5.77 1.395-5.77 1.418C510.51 603 510.51 603 506 603v-2c3.375-2.687 3.375-2.687 7-5l2 1-2 3q4.016-.376 8-1v-2h8v-2h8v-2c2.668-.633 2.668-.633 6.188-1.125l3.48-.508C550 591 550 591 555 591"/><path fill="#d2967f" d="M665 452c5 1 5 1 9 4 7.333 3 7.333 3 10 3l1 4c4 3 4 3 8 4l2 5c-4.1-1.64-7.08-3.215-10.703-5.625l-3.219-2.14L677.75 462l-3.375-2.234-3.203-2.141-2.935-1.96C666 454 666 454 665 452"/><path fill="#ce7f63" d="M651 442c3.765.434 7.32 1.08 11 2v-2h6c.125 3.438.125 3.438 0 7v1l2 1-1 2c-7.135-.93-12.591-5.55-18-10z"/><path fill="#d1927a" d="M1007 589h5c-.596 5.962-4.98 9.91-9 14h-3c-1.75-5-1.75-5-2-10 4.375-.375 4.375-.375 9 0z"/><path fill="#d4a18d" d="M738.063 543.938 742 544c-6.556 4.37-15.427 5.305-23 7.188l-5.664 1.443-5.399 1.35-4.972 1.246C699 556 699 556 696 555l1-2h8v-2c3.29-1.07 3.29-1.07 7.625-2.125l4.29-1.07C721 547 721 547 727 547v-2h6c1-1 1-1 5.063-1.062"/><path fill="#dbab96" d="M1004 505c2.465 2.465 2.99 4.505 4.063 7.813l1.035 3.144c3.155 10.641 2.943 22.399-.098 33.043-1.653-6.612-.956-13.522-.785-20.309.037-2.897-.075-5.796-.215-8.691h-3c-.512-3.281-.512-3.281-.687-7.5l-.2-4.219z"/><path fill="#d39a82" d="M863 346c3.842 3.842 5.902 7.034 8.5 11.75l2.281 4.11C880 373.464 880 373.464 880 376h-5c-1.25-4.437-1.25-4.437-2-9l-1-1v-5l-3-1v-2h-2v-3h-2a174 174 0 0 1-2-9"/><path fill="#cc886f" d="M443 230h6v1q4.493.561 9 1c-2 2-2 2-5.125 2.5L450 235v2c-2.915 1.328-5.885 2.538-8.875 3.688l-4.992 1.949C432 244 432 244 430 243l-1-2h7v-2h4v-2l7-2v-2h-3z"/><path fill="#d79d88" d="M630 193c7.042.589 13.65 2.047 20.438 3.938l3.005.802c7.303 2.006 7.303 2.006 9.557 4.26-18.37-.422-18.37-.422-26-5v-2l-5 1v-2z"/><path fill="#cd8066" d="m861 474 4-1 4 1c-9.457 6.815-9.457 6.815-15.687 7.563L850 481v-2l3-2v-2l-3-1c4.206-.728 6.801-1.05 11 0"/><path fill="#c07255" d="M524 238c7.549-2.61 14.269-1.569 22 0v1a971 971 0 0 1-14.941-.648L527 239c-.173 3.785.813 6.44 2 10l-2 1a91 91 0 0 0-1.062 6.563A189 189 0 0 1 525 263h-1c-1.376-8.638-2.286-16.487 0-25"/><path fill="#d39780" d="m614 528 2 1c-1.687 3.063-1.687 3.063-4 6h-3v2c-3.506 3.506-6.294 4.552-11 6l-4-1c13.79-10.156 13.79-10.156 20-14"/><path fill="#d29782" d="M588 387h5c2 2 2 2 2 6h4v3h2v2l3 1v2l4 2 2 4 2 3c-5.039-2.52-8.088-5.968-12-10l-2.562-2.562L595 395l-3.812-3.75C588 388 588 388 588 387"/><path fill="#e1b39e" d="M841 523c6.58-.251 13.166-.229 19.751-.24 3.338-.01 6.676-.04 10.015-.072q3.183-.01 6.367-.016l5.871-.028c4.629.33 7.14.898 10.996 3.356-3.808 1.27-6.199.682-10.187.125-10.762-1.309-21.513-1.549-32.345-1.783l-4.1-.096-3.716-.072c-.438-.03-.438-.03-2.652-.174z"/><path fill="#be7053" d="M885 394c7.622 11.433 6.262 29.758 4.063 42.688L888 441h-1c-.033-3.13.07-6.247.16-9.375L887 429h-2v-5l1 4 2-1c.5-8.9-.509-16.86-2.344-25.566C885 398 885 398 885 394"/><path fill="#d8aa96" d="M1011 554c4.556 6.834 5.68 15.95 5 24-.81 3.768-1.834 7.315-3 11h-1c-.062-5.325-.02-10.642.04-15.967.043-6.433-.165-12.642-1.04-19.033"/><path fill="#d9a38d" d="M476 226q4.016.376 8 1v1a502 502 0 0 1-11.625 2.938q-3.27.79-6.54 1.59l-2.95.71c-2.885.762-2.885.762-6 1.917C454 236 454 236 450 235l3.063-.875L456 233l-1-2c5.111-2.556 8.42-1.587 14-1v-2q3.491-.561 7-1z"/><path fill="#cc8369" d="M606 572c2.502.066 5.003.204 7.5.375l4.219.273L621 573v1l-3.5-.062-3.5.062v2h-8v2c-5.261 2.799-10.099 3.546-16 4l4-1v-2h4v-2h5v-2l3-2z"/><path fill="#d09077" d="m724 343 1 3 3 1v2h3c1.814 8.034 1.814 8.034 2 12l-2 3c-1.366-2.932-2.717-5.87-4.062-8.812l-2.286-4.958C723 346 723 346 724 343"/><path fill="#d29177" d="m953 548 5 1 4.25.25 3.75.75 1 5 4 1 1 5c-4.163-2.081-7.877-4.484-11.75-7.062l-4.11-2.723L953 549z"/><path fill="#d39781" d="M629 358c5.131 2.053 9.199 4.596 13.813 7.625l4.644 3.04L651 371c-4.266 1.422-7.209.335-11.25-1.375C637 368 637 368 636 365l-3.562-2-3.438-2z"/><path fill="#d1ac9d" d="m409 247 2 1-4 4 3 3c-2.918 2.297-2.918 2.297-7.187 4.75l-4.231 2.484L395 264l-2-1a170 170 0 0 1 7.75-8.125c.755-.767 1.51-1.534 2.29-2.324 1.924-1.915 3.936-3.741 5.96-5.551"/><path fill="#dfb5a5" d="m861 499-2.555 1.059-3.32 1.378-3.305 1.372A83 83 0 0 0 847 505c-10.497 1.157-21.592 2.082-32 0v-1c2.187-.022 4.376.01 6.563.063 12.113.056 23.172-1.668 34.707-5.356C859 498 859 498 861 499"/><path fill="#d3967e" d="M572 369c3.938-.687 3.938-.687 8 0 .875 4.5.875 4.5 1 9h2v2l4 1c.75 3.063.75 3.063 1 6-5.914-4.781-11.271-10.038-16-16z"/><path fill="#cb866d" d="m525 588 2 1a134 134 0 0 1-3 6v2h-3v2c-4.125.938-4.125.938-8 1 2.71-6.775 5.878-8.174 12-12"/><path fill="#d7a38d" d="M673 384c6.51 2.083 12.776 4.506 19.063 7.188l5.097 2.167L701 395c-3.723 1.241-6.194.79-10 0v-2a100 100 0 0 0-6-1l-3-1v-2l-3.937-.375L674 388z"/><path fill="#dcb09d" d="M849 481c3.5-.125 3.5-.125 7 0-2.767 2.767-5.414 3.083-9.187 4.063l-3.918 1.035C833.9 488.18 825.12 488.746 816 487v-1c2.167-.021 4.334.01 6.5.063 6.191.05 11.858-.242 17.5-3.063l4.625.063L849 483z"/><path fill="#d59e89" d="M785 493a517 517 0 0 1 8.418 3.438c7.204 2.986 13.9 5.262 21.582 6.562v1a162 162 0 0 1-11 0v-2c-2.625-.344-2.625-.344-6-.5s-3.375-.156-6-.5v-2l-3-1v-2h-4z"/><path fill="#dbaf9b" d="m680 284 3.188 2.813C687 290 687 290 692 293l1 3 2 1v2h2v2h2c1.688 3.375 1.688 3.375 3 7l-1 2c-1.918-2.33-3.824-4.669-5.672-7.055-4.736-5.99-9.931-11.548-15.328-16.945z"/><path fill="#d3947c" d="M701 218c5.785-.523 9.493.772 14.625 3.375l3.852 1.898L722 225c-3.707 2.471-4.805 1.746-9 1v2h-2l1-4-5-2a133 133 0 0 1-6-3z"/><path fill="#d4917a" d="m630 417 2 1 .5 4.063.5 3.937h2v2l2 1 1 3c-3.753-1.876-6.465-3.85-9.687-6.5l-2.95-2.406C623 421 623 421 622 419l2.875 1.25L628 421z"/><path fill="#e0b09c" d="M523 238h1c.175 5.05.297 10.094.342 15.146.197 7.789 1.752 13.632 4.658 20.854v3h-2l-2 2c-1.664-9.383-2.283-18.293-2.187-27.812l.001-3.87c.015-3.106.094-6.213.186-9.318"/></svg>