<svg xmlns="http://www.w3.org/2000/svg" width="452" height="452"><path d="M185.89-9.465c12.096-.548 24.19-.687 36.297-.666 3.313.006 6.626 0 9.94-.006C291.954-10.116 367.473-5.359 414 37c43.163 47.408 47.236 124.356 47.13 185.187q-.005 4.97.007 9.94C461.116 291.954 456.359 367.473 414 414c-47.408 43.163-124.356 47.236-185.187 47.13q-4.97-.005-9.94.007C159.046 461.116 83.527 456.359 37 414c-43.163-47.408-47.236-124.356-47.13-185.187.005-3.313 0-6.626-.007-9.94.05-143.163 43.01-220.468 196.028-228.338"/><path fill="#cf6d4d" d="M278 62c3.838 3.168 7.451 6.513 11 10l2.633 2.574c16.956 17.376 24.036 40.73 23.842 64.531-.383 13.323-3.426 25.086-9.475 36.895l-2.625 5.375c-11.674 20.976-32.043 35.243-54.75 41.938-22.866 6.345-47.582 2.633-68.187-8.813-5.011-2.913-9.847-5.955-14.438-9.5v-2h-2v-2l-4-2c-10.407-10.563-17.444-24.003-22-38l-.969-2.824c-6.42-22.263-1.825-46.57 8.875-66.594 12.897-22.064 32.635-36.713 57.13-43.89C228.855 41.67 256.22 47.087 278 62"/><path fill="#cf6e4f" d="M117 142c2.908 2.908 2.714 5.647 3.313 9.688 3.423 20.151 11.81 37.455 24.687 53.312l2.137 2.766C149 210 149 210 151 211v2h2v2l4 2a471 471 0 0 1 6.75 5.063c7.746 5.723 15.804 10.34 24.25 14.937q4.944 2.801 9.875 5.625l2.619 1.498c7.405 4.239 14.8 8.493 22.194 12.752l3.255 1.874c4.844 2.794 9.67 5.61 14.452 8.509 3.506 2.088 6.962 3.928 10.605 5.742q5.42 3.132 10.813 6.313a980 980 0 0 0 23.146 13.216c21.099 11.658 38.536 22.49 46.17 46.55 2.893 11.149 2.505 22.593 2.447 34.033-.014 3.935.021 7.868.059 11.802q0 3.73-.006 7.461l.04 3.585c-.038 3.25-.038 3.25-.669 8.04-5.192-1.038-8.296-2.645-12.875-5.25l-4.82-2.727-2.591-1.477a2019 2019 0 0 0-8.519-4.82 4501 4501 0 0 1-27.593-15.663 5678 5678 0 0 0-8.204-4.688 5970 5970 0 0 1-29.273-16.812 3479 3479 0 0 0-33.29-18.966c-14.095-7.94-28.183-15.893-42.21-23.952a534 534 0 0 0-8.25-4.633c-17.643-9.79-30.17-25.178-35.812-44.637-1.923-7.396-2.686-14.106-2.677-21.765v-3.165q.002-5.17.016-10.34l.005-7.175q.006-9.437.024-18.874.014-9.632.02-19.265.016-18.896.049-37.791"/><path fill="#d07c5d" d="M273 287c6.486 1.528 12.005 5.28 17.688 8.625l3.107 1.793C312.9 308.595 312.9 308.595 319 316l-1 2-4-3h-2v-3c-2.812-1.062-2.812-1.062-6-2l-3-2v-2l-5-2-5-2-1 2-3-1v4h-3v-2h-3v2h-2v-2h-6v-4h2l-.562-3-.438-3h3v2h3l2 4c-.687-4-.687-4-2-8h-5v-2l-4-1z"/><path fill="#d7a38e" d="M270 58a169 169 0 0 1-11-1l-1-3q-5.498-.523-11-1l-5-3c-3.41-.356-3.41-.356-7.277-.328l-4.244.016-4.417.062-4.404.016c-6.012.044-11.737.14-17.658 1.234l-3.312.313C197 52 197 52 192.313 54.125 188 56 188 56 184 55c26.376-11.348 61.377-15.467 86 3"/><path fill="#d9a892" d="M147 90c1.93 3.859-.004 8.015-1 12l-5 10c-4.36 12.561-4.36 12.561-3 18 .178 2.623.32 5.249.438 7.875.67 11.953 1.87 22.022 6.562 33.125v5c-2.777-3.703-4.044-6.331-5.562-10.625l-1.254-3.477c-6.688-22.027-4.485-45.529 5.629-66.085A287 287 0 0 1 147 90"/><path fill="#cf8164" d="M280 202h2l1 3c-15.409 14.663-37.034 21.157-57.937 21.125l-5.153.008L216 226v-1a706 706 0 0 1 16.113-.518c2.966-.09 5.927-.277 8.887-.482v-2q3.984-.624 8-1l-3-2c8.75-1.125 8.75-1.125 11 0v-3h5v-2h2v-2a101 101 0 0 1 6-3l-2-1-2 2-1-5h4l1-2c5 1 5 1 8 2z"/><path fill="#e7c4b2" d="M117 142c4.31 4.31 4 13.117 4 19l-2-3 .007 3.645q.03 16.953.045 33.906.007 8.716.023 17.433.016 8.403.02 16.807.003 3.215.01 6.43c.008 2.989.008 5.978.009 8.966l.006 5.168L119 254h-1c-1.06-5.3-1.12-9.985-1.114-15.39v-3.165q.002-5.17.016-10.34l.005-7.175q.006-9.437.024-18.874.014-9.632.02-19.265.016-18.896.049-37.791"/><path fill="#e0b19d" d="M331 343h1c1.914 9.571 1.306 19.614 1.35 29.358q.025 4.034.082 8.066c.054 3.867.077 7.733.091 11.6l.07 3.68c-.01 3.348-.01 3.348-.593 8.296-5.52-1.104-9.114-3.103-14-5.875l-4.75-2.68A586 586 0 0 1 305 390l2-1 2 1v-2h2v3q3.478 1.074 7 2l1 2 4 1.5c4 1.5 4 1.5 5 3.5h3c.26-4.204.32-8.264.258-12.469l-.02-3.834c-.024-4.066-.068-8.131-.113-12.197q-.053-6.1-.091-12.197-.025-3.807-.07-7.612c-.025-2.897 0-5.794.036-8.691"/><path fill="#c07155" d="M327 336c2 1 2 1 3.063 3.625 2.015 7.257 2.123 14.471 2.175 21.96l.025 3.327q.02 3.462.032 6.923.017 3.556.062 7.112c.042 3.421.058 6.842.069 10.264l.053 3.232c-.009 2.965-.009 2.965-.479 7.557l-4 1v-2h2c.207-4.033.28-7.997.266-12.031l.005-3.7q.002-3.883-.01-7.768c-.011-3.983 0-7.967.012-11.95q0-3.76-.007-7.52l.012-3.645c-.016-2.797-.135-5.593-.278-8.386h-2v-5h-2z"/><path fill="#d3977f" d="M165 224a266 266 0 0 1 11 6l3.158 1.8c3.184 1.824 6.358 3.666 9.53 5.512l3.318 1.917A516 516 0 0 1 200 244v1h-6l-1-3h-6l-4-4v-2l-3 1-5-3c-4.312-.187-4.312-.187-8 0l3-1v-2h-2l-1-4-2-1z"/><path fill="#b47257" d="m118 157 2 1 1 5-1 1a148 148 0 0 0-.13 6.59l-.009 4.293.006 4.699-.003 4.83q0 5.09.006 10.181.005 7.696-.007 15.393c-.003 16.032.006 32.015 1.137 48.014-4.148-6.222-3.127-14.946-3.145-22.23l-.02-5.346-.003-5.686-.01-5.883q-.009-6.131-.007-12.262c0-5.257-.014-10.515-.031-15.772-.014-5.007-.013-10.013-.014-15.02l-.022-5.754.01-5.241c-.002-.768-.002-.768-.005-4.653z"/><path fill="#d18f74" d="M219 340c5.339.356 7.623.717 12 4v-2c3-1 3-1 6-1v6l5 2c4 3 4 3 5 7-4.584-1.834-8.592-3.938-12.875-6.375l-4.117-2.336L226 345l-4.008-2.227L219 341z"/><path fill="#d0947c" d="m217.938 46.75 3.052.016c6.724.069 13.336.465 20.01 1.234v1c-2.187.15-4.379.229-6.57.281l-4.157.114-4.398.105q-4.254.104-8.508.219l-3.84.092c-3.256.174-6.324.604-9.527 1.189l-3.312.313C197 52 197 52 192.313 54.125 188 56 188 56 184 55c11.414-4.91 21.323-8.507 33.938-8.25"/><path fill="#ddab94" d="M269 214c-12.466 9.35-28.702 12.148-43.937 12.125l-5.153.008L216 226v-1a706 706 0 0 1 16.113-.518c2.966-.09 5.927-.277 8.887-.482v-2q3.984-.624 8-1l-3-2c8.75-1.125 8.75-1.125 11 0v-3h5v-2c2-1 2-1 7 0"/><path fill="#ce9279" d="M137 130h1c.194 2.538.327 5.082.438 7.625.66 12.05 1.834 22.185 6.562 33.375v5c-2.851-3.802-4.095-6.57-5.625-11l-1.29-3.687c-3.31-10.1-2.305-20.858-1.085-31.313"/><path fill="#d2987f" d="m167 66 2 1v4l-5 1-.437 2.875L163 78c-2.937 1.75-2.937 1.75-6 3-2 2-2 2-2.812 5.063L153 89l-5 1c3.745-9.363 11.257-17.573 19-24"/><path fill="#cc7e61" d="m181 58 1 2h-2v2l2 1-1 2h-2l-1 3-3 1-1 2-8-2c3.82-5.731 8.33-9.332 15-11"/><path fill="#d59e87" d="M291 297c10.778 4.311 19.82 10.82 28 19l-1 2-4-3h-2v-3c-2.812-1.062-2.812-1.062-6-2l-3-2v-2l-5-2-5-2v-2h-2z"/><path fill="#d2977f" d="M133 190c3.114 3.114 5.482 5.891 8 9.438 7.257 10.19 7.257 10.19 10 11.562v2h2l-1 2-3 1c-3-2-3-2-4-6l-2.562-2-2.438-2v-4h-2c-4.48-4.48-4.596-5.947-5-12"/><path fill="#d0977f" d="M121 161c2.439 3.658 3.445 7.486 4.777 11.645 1.655 4.54 3.849 8.713 6.149 12.957L133 188l-1 2h-2l-2-4-1.98-2.316c-2.36-3.135-3.273-5.853-4.332-9.621l-1.051-3.59c-.65-3.544-.46-5.992.363-9.473"/><path fill="#d18a6e" d="M309 160v4l2-2c-1.441 7.207-4.66 13.489-8 20l-1-2h-2c1.261-4.846 2.742-9.41 4.75-14l1.25-3-1-2c2-1 2-1 4-1"/><path fill="#c8896e" d="M201 222c9.114-.146 18.205.104 27.313.438l3.724.119c2.99.108 5.977.27 8.963.443v1c-6.603 1.353-13.292 1.184-20 1.188l-3.484.037c-5.827.01-11.004-.07-16.516-2.225z"/><path fill="#d08b72" d="M287 71c4.408 2.204 5.907 4.094 8.813 8l2.457 3.25L300 85l-1 2-5-3-2 4-2-4 2-3-4-1h2a190 190 0 0 0-3-9"/><path fill="#d3987f" d="M178 212c3.938-.25 3.938-.25 8 0l1 4c2.665.083 5.335.083 8 0l1 2h5v3c-5.21 1.303-7.214-.071-12.062-2.25l-4.286-1.89C181 215 181 215 178 212"/><path fill="#bf7255" d="M312 122c4.872 7.308 2.396 21.627 1 30h-1l-.375 4.75C311 162 311 162 308 166q.422-4.002.875-8l.492-4.5.633-3.5h2c-.046-2.608-.218-5.214-.437-7.812-.5-6.936-.436-13.301.437-20.188"/><path fill="#d9a58e" d="m157 194 2.563 2.438C163 199 163 199 166.813 199.5l3.187.5 1 5h2v2l4 2 1 3c-4.7-1.88-8.043-3.896-12-7v-2h-2v-2l-4-2-3-3z"/><path fill="#e1b8a5" d="M312 114c6.648 13.296 3.93 34.168 0 48h-1a242 242 0 0 1 0-11h1c.94-5.792 1.135-11.452 1.125-17.312l.008-4.739C313 125 313 125 312 122c-.04-2.666-.044-5.334 0-8"/></svg>