<svg xmlns="http://www.w3.org/2000/svg" width="1408" height="768"><path fill="#cf6e4d" d="m739 97 5.578.895C782.376 104.435 818.952 120.03 849 144l2.754 2.172C866.155 157.726 879.679 170.389 891 185l2.973 3.82 3.027 3.993 2.813 3.707c2.222 3.535 3.337 5.324 3.187 9.48-11.172 21.095-31.049 40.689-50 55l-4.156 3.227c-49.935 37.947-112.77 55.933-175.123 47.472C631.43 305.577 591.432 290.028 558 263l-2.562-1.98c-17.388-13.514-32.02-29.173-45.063-46.832l-3.164-4.27C505 206 505 206 504.805 202.984c16.482-41.15 69.825-73.038 107.883-90.047C651.923 96.587 696.814 89.908 739 97m-137.113 63.66c-4.837 2.912-9.354 5.97-13.887 9.34l-2.844 2.043C577.608 177.539 570.752 183.559 564 190l-3.457 3.191-3.356 3.184-3.082 2.898L552 202c1.303 6.514 4.917 9.52 9.5 14l2.597 2.559C587.971 241.69 626.378 267.607 661 270v-2l-3.5-2.625C644.748 255.811 636.093 243.1 631 228l-.965-2.828c-5.65-19.891-2.684-41.826 7-59.863 6.42-10.812 14.089-18.554 23.965-26.309-17.17-4.292-44.604 13.35-59.113 21.66M747 138c2.328 2.406 4.675 4.728 7.242 6.879C769.056 157.409 777.104 173.98 780 193c1.632 22.886-2.733 44.048-17.992 61.82-4.955 5.38-9.755 10.272-16.008 14.18v1c7.111-.417 13.544-2.164 20.25-4.437l3.168-1.072c25.791-8.977 49.24-22.895 69.309-41.405 2.107-1.934 4.282-3.795 6.46-5.649 4.002-3.607 7.556-7.14 10.813-11.437-1.225-6.123-3.72-8.569-8-13h-2l-2-4c-22.092-21.54-64.15-51-97-51"/><path fill="#ce6e4c" d="M647 342c4.45.156 4.45.156 10 1l4.895.719 9.812 1.562c26.275 3.568 53.722 2.898 79.715-2.383C756 342 756 342 761 342c.776 4.296 1.155 8.225 1.368 12.566l.257 4.096c.277 4.573.515 9.147.752 13.723q.277 4.89.557 9.783c1.642 29.747 2.608 59.522 3.383 89.303.535 20.068 1.286 40.076 2.558 60.11C777.223 649.495 777.223 649.495 761 673c-11.779 11.065-29.934 11.774-45.25 11.493a310 310 0 0 1-58.29-8.186l-3.184-.72c-2.878-.752-2.878-.752-7.276-2.587-1.694-6.088-1.138-12.602-1.127-18.881l-.005-3.98c-.004-4.407 0-8.815.003-13.223l-.006-9.471q-.004-12.87 0-25.74c.003-8.969 0-17.937 0-26.905q-.004-22.59.005-45.179.007-26.142-.002-52.286-.007-22.42-.003-44.843.003-13.402-.001-26.805-.004-12.594.005-25.19l-.002-9.263q-.002-6.304.006-12.607l-.007-3.737c.01-4.483.042-8.523 1.134-12.89"/><path fill="#d28a70" d="M644 154c1.527 4.581-.293 7.61-2 12l-3 3 1 3h-5v5h-2a689 689 0 0 0-1 7l-1.562 3.875c-2.05 7.304-2.069 14.578-1.438 22.125l2 2c.09 2.82.09 2.82-.062 6.125L631 224h3v-4h2c.52 3.684.52 3.684.813 8.438l.332 4.746L637 237l-3 1c-1.316-2.648-1.316-2.648-2.562-6.375l-1.254-3.648c-6.373-21.41-4.442-43.18 6-62.891 2.318-3.939 4.92-7.553 7.816-11.086"/><path fill="#d4896f" d="M642 134h3v2h3v-2h2v3c3.938-.145 3.938-.145 9-.812l5.063-.645L668 135l-8 8-2.562 2.75C655 148 655 148 651 149a136 136 0 0 0-6 5c2.002-4.004 3.632-5.723 6.938-8.625l2.652-2.352C657 141 657 141 660 139c-9.692 1.563-18.737 4.815-28 8q-4.5 1.505-9 3l1-3h5v-2h5v-2h4v-5h2v2l4-4h-2z"/><path fill="#dea893" d="M653 343c2.762.172 2.762.172 6.688.75 29.178 3.924 57.143 4.312 86.312.25q4-.507 8-1l-1 2c-15.523 4.899-31.488 4.527-47.57 4.357-4.242-.045-8.482-.062-12.723-.074q-4.034-.02-8.066-.045l-3.854-.022c-2.93-.033-5.859-.118-8.787-.216v-1c-2.33-.214-4.664-.37-7-.5s-4.67-.286-7-.5v-1l-5-1z"/><path fill="#d17f62" d="M769 162c5.251 5.251 8.689 13.658 10 21a185 185 0 0 1-1 11l-1-2-5-1c-.625-2.937-.625-2.937-1-6l-3-2 2-3h2c0-5.8-.96-8.728-3-14z"/><path fill="#d28d74" d="M601 157h3l1 3c-2.945 2.129-2.945 2.129-7.125 4.563a172 172 0 0 0-19.105 13.308C576 180 576 180 571 183v-6l1 2h2l1-4q2.992-.55 6-1v-3h2v-2h4l1-4 9-2 1-4h3z"/><path fill="#d17f61" d="m773 221 2 1c2.197 10.006-.065 15.374-5.117 24.14L768 249h-1v-5h2v-3h2c-.25-3.5-.25-3.5-1-7h-2c-.25-4-.25-4 0-8h2l2-4z"/><path fill="#d3866b" d="M807 119c5.61 1.434 10.363 4.292 15.375 7.125l4.898 2.758L831 131c-3 1-3 1-6.687.938L821 132v2h-3v-2h-2v4h-2c-.875-2.937-.875-2.937-1-6 4-1 4-1 6 0-2-2-2-2-4.875-3.312-3.365-1.818-4.983-3.558-7.125-6.688z"/><path fill="#daa18a" d="M845 190c2.938.625 2.938.625 6 2l1 5 4 1c1.722 4.346 2.147 6.41 1 11l-3 1.938C851 213 851 213 850 218c-5 3-5 3-9 5l-2.625 2.688L836 228l-2-1c3.527-3.779 7.061-7.234 11.063-10.5 3.782-3.22 6.916-6.555 9.937-10.5-1.366-6.83-5.175-10.175-10-15z"/><path fill="#d1846a" d="m628 210 3 2c.188 2.82.188 2.82 0 6.125V224h3v-4h2c.52 3.684.52 3.684.813 8.438l.332 4.746L637 237l-3 1c-1.352-2.824-1.352-2.824-2.625-6.687-.425-1.262-.85-2.524-1.29-3.825-1.88-6.044-2.168-11.157-2.085-17.488"/><path fill="#d69780" d="M892 188c4.972 4.533 10.681 10.097 11.25 17.063-1.783 4.19-4.359 7.443-7.25 10.937h-1c-.687-3.437-.687-3.437-1-7l2-1 3 1-1.437-5.812-.81-3.27A90 90 0 0 0 895 194l-2 1c-.625-3.437-.625-3.437-1-7"/><path fill="#d69a84" d="M842 140c5.027 2.01 7.66 4.03 11.688 7.563l3.714 3.25L861 154l3.066 2.688c6.647 5.882 6.647 5.882 8.934 9.312l-5-1v-2h-2v-2h-2v-2l-4-2-2-3-5-3c-3-3-3-3-4-5l-3-.875-3-1.125z"/><path fill="#dfa995" d="m668 136-3.187 2.063C661 141 661 141 658.375 144.75 656 148 656 148 651 149c-3.312 2.563-3.312 2.563-6 5 2.002-4.004 3.632-5.723 6.938-8.625l2.652-2.352C657 141 657 141 660 139l-4.75 1c-5.25 1-5.25 1-9.25 1v-2c4.138-1.684 8.285-2.507 12.688-3.187l3.386-.543C665 135 665 135 668 136"/><path fill="#dca38d" d="M740 135c3.504.206 7.004.491 10.5.813l5.906.519L761 137v2h2v2q2.999.51 6 1l1 2-5.062-1.375-3.04-.824a305 305 0 0 1-6.836-1.988C752 139 752 139 748 139l5 5c-5-1-5-1-8-3v-3l-5-2z"/><path fill="#d99c86" d="m645 104-2.937.813c-8.793 2.57-8.793 2.57-13.063 4.187l-1 3q-4.494.555-9 1v2c-4.87 1.36-8.045 2.239-13 1 30.685-14.079 30.685-14.079 39-12"/><path fill="#d38f75" d="M567 138c2 1 2 1 3 3l-5 1-1 4h-2l-1 4-5 1-1 2h-2v2q-3.482.622-7 1c3.476-4.926 7.86-8.23 12.625-11.875l4.602-3.555z"/><path fill="#d6947b" d="M588 282c5.163.405 7.395 1.237 12 4l3.313 1.063L606 288v2h3v-3c4 2 4 2 5.313 5.313L614 295c-6.482-1.71-12.176-4.463-18.062-7.625l-4.536-2.414L588 283z"/><path fill="#d79a83" d="M750 305c4.604-.354 6.796-.102 11 2q-4.781.972-9.562 1.938l-5.38 1.09c-7.15 1.374-13.758 2.197-21.058 1.972v-1c4.743-1.06 9.13-2 14-2l1-3q5.008.431 10 1z"/><path fill="#d48f75" d="M533 240q4.016.376 8 1v2h2v4l4 1v4h2l1-2 3 8c-4.738-2.37-7.83-5.37-11.687-9l-4.075-3.812C534 242 534 242 533 240"/><path fill="#d9a28d" d="M779 187h1c3.27 14.164 1.855 30.392-3 44h-1c.039-2.918.159-5.836.313-8.75l.238-4.922C777 213 777 213 779 209c.116-3.775.141-7.48.063-11.25A470 470 0 0 1 779 187"/><path fill="#d79e87" d="M653 343c2.762.172 2.762.172 6.688.75 8.74 1.223 17.485 1.984 26.28 2.688L690 347v2c-2.996.175-6 .213-9 .188l-5.062-.02L672 349v-1c-2.33-.214-4.664-.37-7-.5s-4.67-.286-7-.5v-1l-5-1z"/><path fill="#d59279" d="m563 185 5 1c-2.125 3-2.125 3-6 7l-2.352 2.57c-2.11 2.248-4.37 4.353-6.648 6.43-2-3-2-3-2-5h2v-2h3l1-4h4l1-5z"/><path fill="#dca38d" d="M644 305q5.5-.063 11 0v1c4.164.293 8.329.45 12.5.621l3.5.379v2q4.988 1.06 10 2v1c-12.104-.432-26.081-1.54-37-7"/><path fill="#d38a70" d="m882 227 3 2c-2.18 4.36-4.605 6.837-8.062 10.25l-3.286 3.266C871 245 871 245 870 245c-.187-3.937-.187-3.937 0-8l2-1 3 3v-4h3l-1-4h4z"/><path fill="#d89b84" d="M614 295c2.665-.083 5.335-.083 8 0v1l4.625 1.375c4.188 1.266 7.516 2.695 11.375 4.625h4v-2l3 1-1 4c-6.563 0-12.818-2.827-18.937-5l-3.229-1.117A341 341 0 0 1 614 296z"/><path fill="#da9c84" d="m551 202 2 4a266 266 0 0 0 7.125 7.25l3.883 3.828L567 220h-3l-3-3-4-1-1-1-2 1-1-4-2-1c-.687-4-.687-4-1-8z"/><path fill="#dba591" d="M635 175v2h-2a689 689 0 0 0-1 7l-1.496 4.031c-1.713 5.658-1.98 10.63-2.129 16.531A543 543 0 0 1 628 215h-1c-.707-13.25-.828-26.42 4-39 2-1 2-1 4-1"/></svg>