<svg xmlns="http://www.w3.org/2000/svg" width="1408" height="768"><path fill="#d0704c" d="M386 205c6.647 3.031 12.734 6.596 18.875 10.563 8.216 5.248 16.522 10.31 24.895 15.308 13.736 8.202 27.367 16.579 40.958 25.019 10.973 6.802 22.026 13.473 33.067 20.165a4936 4936 0 0 1 41.423 25.423C557.437 309.054 569.713 316.535 582 324a2471 2471 0 0 1 29.875 18.438c9 5.644 18.067 11.155 27.191 16.597 6.109 3.671 12.166 7.42 18.22 11.18A2383 2383 0 0 0 674 380.5c6.477 3.95 12.93 7.935 19.375 11.938a1342 1342 0 0 0 20.438 12.437c7.388 4.415 14.71 8.925 22 13.5 11.663 7.319 23.41 14.492 35.187 21.625 14.765 8.946 29.516 17.91 44.184 27.016 9.059 5.613 18.162 11.155 27.27 16.691a1403 1403 0 0 1 23.109 14.356A555 555 0 0 0 883.5 509c9.319 5.43 18.411 11.196 27.5 17l4.207 2.656 3.793 2.407 3.313 2.097C925 535 925 535 928 538v2h2a427 427 0 0 1 5.727 7.152c2.15 2.693 4.385 5.244 6.71 7.785a215 215 0 0 1 8.875 10.375c4.41 5.453 9.132 10.573 13.915 15.7 3.336 3.595 6.543 7.297 9.773 10.988 6.796 7.512 13.724 14.821 21.016 21.855C998 616 998 616 998 618h2v2c-6.56-.343-12.476-2.23-18.707-4.21l-3.108-.982a3868 3868 0 0 1-9.997-3.183l-6.962-2.204a9852 9852 0 0 1-13.863-4.399 7548 7548 0 0 0-24.613-7.772l-4.14-1.304a4270 4270 0 0 0-36.802-11.361c-9.864-3.017-19.687-6.147-29.5-9.323-14.747-4.774-29.525-9.449-44.318-14.08q-6.449-2.018-12.895-4.043c-13.924-4.366-27.858-8.693-41.825-12.916l-7.267-2.205a2683 2683 0 0 0-13.476-4.044l-6.02-1.822-5.23-1.562c-3.891-1.447-6.378-2.657-9.277-5.59v-2h-2v-2l-4-2v-2l-4-2a180 180 0 0 1-6.066-5.855l-3.712-3.722-4-4.04q-3.112-3.126-6.227-6.251c-2.91-2.923-5.814-5.85-8.72-8.777q-7.616-7.673-15.245-15.334-4.061-4.078-8.113-8.166l-3.721-3.741-3.268-3.293C640 457 640 457 637.113 454.743L635 453v-2l-4-2c-2.75-2.5-2.75-2.5-5-5v-2h-2v-2l-4-2a168 168 0 0 1-5.867-5.656l-3.58-3.59-3.858-3.899-3.975-3.99q-5.234-5.258-10.459-10.525-7.349-7.404-14.71-14.797-3.917-3.935-7.826-7.88l-3.6-3.62-3.153-3.177c-2.883-2.78-5.875-5.33-8.972-7.866a93 93 0 0 1-7.687-8.25C544 362 544 362 542 361v-2l-4-2a115 115 0 0 1-4.829-4.617l-2.891-2.902-3.1-3.141-3.197-3.213a6457 6457 0 0 1-10.108-10.19q-5.06-5.103-10.13-10.2a3419 3419 0 0 1-6.303-6.357l-2.872-2.892-2.534-2.559C490 309 490 309 488 308v-2h-2v-2h-2l-3-3v-2l-4-2a111 111 0 0 1-4.733-4.522l-2.833-2.843-3.043-3.084-3.154-3.17c-3.334-3.351-6.66-6.71-9.987-10.068q-4.969-5.011-9.944-10.016a3173 3173 0 0 1-6.184-6.237A295 295 0 0 0 421 242a688 688 0 0 1-8.437-8.27l-2.32-2.31a4179 4179 0 0 1-4.8-4.792 3085 3085 0 0 0-7.392-7.353q-2.34-2.333-4.676-4.67l-2.244-2.222C386 207.23 386 207.23 386 205m637-57c-2.9 3.8-5.873 7.393-9 11a4389 4389 0 0 0-5.5 6.5l-2.812 3.313c-3.167 3.756-6.27 7.56-9.372 11.37-2.594 3.155-5.233 6.268-7.879 9.38-3.184 3.748-6.325 7.515-9.375 11.375-3.19 4.03-6.511 7.926-9.875 11.812a360 360 0 0 0-11.875 14.5 227 227 0 0 1-12.14 14.336c-3.06 3.401-5.92 6.952-8.797 10.508-2.542 3.11-5.141 6.165-7.75 9.219a414 414 0 0 0-11.312 13.937 225 225 0 0 1-11.22 13.344c-3.647 4.192-6.989 8.628-10.398 13.015-3.407 4.286-7.033 8.323-10.695 12.391l-1 2h-2l-2 4a225 225 0 0 1-5.125 6.125c-3.355 3.913-6.68 7.83-9.875 11.875-3.977 5.018-8.12 9.887-12.266 14.766-5.311 6.282-10.494 12.666-15.609 19.109-4.073 5.116-8.317 10.08-12.574 15.043-2.155 2.603-4.087 5.232-5.989 8.02L816 398c-6.349-3.174-10.663-8.465-15.273-13.758-5.006-5.698-10.257-11.15-15.497-16.633C782 364 782 364 780 360h-2a435 435 0 0 1-7-8l-2.937-2.875C766 347 766 347 766 345h-2c-2.37-2.634-4.7-5.304-7-8l-4-4v-2h-2a465 465 0 0 1-7-8c-4.004-4.18-8.026-8.34-12.062-12.488L729 307c1.677-5.03 6.951-6.47 11.438-8.812l6.613-3.516 3.475-1.834c5.55-2.936 11.073-5.92 16.599-8.9l3.299-1.775Q780.73 276.615 791 271c13.409-7.33 26.872-14.556 40.332-21.791 12.134-6.523 24.257-13.064 36.345-19.673 8.15-4.451 16.327-8.854 24.506-13.253q10.98-5.905 21.942-11.845l2.98-1.616L926 198c12.366-6.705 24.736-13.4 37.125-20.062a4588 4588 0 0 0 24.125-13.063l2.662-1.448q7.145-3.893 14.24-7.876l3.06-1.705a764 764 0 0 0 5.822-3.278c6.629-3.68 6.629-3.68 9.966-2.568"/><path fill="#cf704c" d="M576 188c4.531 1.813 6.396 2.98 9.813 6.188l2.66 2.46L591 199c4.916 4.342 9.888 8.615 14.875 12.875 4.154 3.553 8.271 7.132 12.313 10.813a226 226 0 0 0 10.187 8.687c5.262 4.243 10.188 8.79 15.094 13.438C646 247 646 247 649 248l2.5 3c3.596 4.11 7.377 7.28 11.629 10.672 3.63 2.944 7.078 6.06 10.531 9.207 2.126 1.927 4.293 3.808 6.465 5.683 5.367 4.762 10.387 9.728 15.098 15.141 4.634 5.272 9.47 10.33 14.343 15.381 5.325 5.59 5.325 5.59 6.434 8.916h2a401 401 0 0 1 7 8q4.043 4.362 8.125 8.688l2.09 2.22c2.877 3.051 5.763 6.07 8.777 8.987C746 346 746 346 746 348h2a1197 1197 0 0 1 7 8l2.75 2.188C760 360 760 360 763 365a100 100 0 0 0 4.25 4.313c4.148 4.047 7.942 8.315 11.75 12.687l3.5 3.5a147 147 0 0 1 6.875 7.375 164 164 0 0 0 8.125 8.625c4.047 4 7.76 8.209 11.5 12.5 5.817 6.326 11.638 12.64 17.719 18.715 3.611 3.616 6.916 7.44 10.281 11.285l3.5 3.5c3.688 3.688 7.066 7.575 10.5 11.5l3.5 3.5c3.691 3.691 7.098 7.542 10.5 11.5l3.5 3.875L871 481l-1 2a175 175 0 0 1-9.875-5.625l-3.013-1.81c-7.87-4.75-15.638-9.653-23.39-14.592-6.579-4.142-13.256-8.112-19.933-12.094-5.722-3.44-11.376-6.981-17.027-10.535A613 613 0 0 0 786 431.813c-6.622-3.95-13.158-8.026-19.687-12.125a1434 1434 0 0 0-27.239-16.653 2147 2147 0 0 1-39.855-24.41c-5.217-3.246-10.467-6.437-15.719-9.625-8.007-4.86-15.987-9.756-23.902-14.766a232 232 0 0 0-7.29-4.343l-3.495-2.016-3.043-1.695c-6.756-5.317-9.668-14.128-12.903-21.86l-1.446-3.41a4317 4317 0 0 1-4.546-10.785l-2.977-7.035q-3.717-8.79-7.42-17.586-3.642-8.631-7.294-17.258l-1.39-3.283q-5.296-12.515-10.606-25.026l-1.733-4.088a7771 7771 0 0 0-9.459-22.216l-1.964-4.602a4734 4734 0 0 0-3.766-8.799l-1.696-3.978-1.507-3.521C576 190 576 190 576 188"/><path fill="#d07554" d="M576 188c4.531 1.813 6.396 2.98 9.813 6.188l2.66 2.46L591 199c4.916 4.342 9.888 8.615 14.875 12.875 4.154 3.553 8.271 7.132 12.313 10.813a226 226 0 0 0 10.187 8.687c5.262 4.243 10.188 8.79 15.094 13.438C646 247 646 247 649 248a312 312 0 0 1 6 7 275 275 0 0 0 5 5 174 174 0 0 1-9-2v-2h-2l-1-5-3 1v-2l-3-1-1-2-3-1v4h2v2h-2v6h2l-.125 4 .125 4h4v2h-4v2h-2v-2h-6c-.589 3.9-.745 7.104-.625 11l-.02 3.18c.043 3.007.043 3.007.645 7.82h4v6h2v2h-2v12h-2l1 3-2 5 2 1 1 5 1 2-2 3-12.344-28.967a17821 17821 0 0 1-20.472-48.234c-2.186-5.169-4.38-10.335-6.572-15.502l-3.368-7.94a7402 7402 0 0 0-8.58-20.166l-1.559-3.656q-1.448-3.398-2.906-6.793C576 190.225 576 190.225 576 188"/><path fill="#d17858" d="M699 515h5a159 159 0 0 1 5 6h3l1 5 3.563-1.062L720 524v6l5 2v2l2.875-.125c5.316.161 9.29 2.006 14.125 4.125l-2-1c.625-3.687.625-3.687 2-7l4 2v-4h2v6h2v-6h2v-4c4-.875 4-.875 8 0 .375 5 .375 5 0 10h2v2h-4v2h2l3 5h6l1-3h4v-4h6l2 4h2v5h2v-3h2v4h2v-4h2v4h2v2l-5 3c3.74 3.74 5.88 3.431 11 4l2 2h7v2l5 2c-5.915 1.479-10.725-.862-16.355-2.707l-3.753-1.201c-4.03-1.292-8.055-2.598-12.08-3.904a15075 15075 0 0 0-16.421-5.274l-4.064-1.307a1105 1105 0 0 0-35.197-10.663c-5.529-1.618-9.893-2.992-14.13-6.944v-2h-2v-2l-4-2v-2l-4-2z"/><path fill="#d07757" d="M880 508c5.227 2.09 9.836 4.775 14.625 7.688l2.686 1.63q3.845 2.34 7.689 4.682l3.863 2.277c2.445 1.47 4.808 3.075 7.137 4.723l-3 2v-2h-3v-2l-3 1-2-3c-4.062-1.375-4.062-1.375-8-2l-1 3h-2l1.125 3 .875 3h-4c.214 3.343.555 6.68 1 10l-1 2h-4v2h-2v-2h-2v4h-2c-.324-4.3-.431-6.353 2-10h-2v-6h-2c0-2 0-2 4-6h2v-4h-4v-4h-2l1-3h2v-2l-4-2z"/><path fill="#d17a5b" d="M753 430c4.629 1.852 8.34 3.94 12.563 6.563a1697 1697 0 0 0 17.742 10.84l3.818 2.3q3.78 2.277 7.569 4.545l3.523 2.127 3.16 1.898C804 460 804 460 807 463l-3 1-1-3q-5.496-1.515-11-3l-2-3-3 3h-3v2h-4v2h-4v-2h-2v2h-2v-2h-2v-2h2v-2h-6c-.952-5.397.11-7.182 3-12v-2l-3 2h-4a132 132 0 0 1-3-6 346 346 0 0 0-6-7z"/><path fill="#cf7555" d="M832 440h2a251 251 0 0 1 4.773 5.418c8.348 9.68 17.296 18.863 26.075 28.148C868 477 868 477 871 481l-1 2a178 178 0 0 1-10-5.687l-2.985-1.792C848.217 470.208 839.571 464.672 831 459l4-1 2-1 3-1v-2h2l-1-3-4-2v-2l-4-1c-.875-3.062-.875-3.062-1-6"/><path fill="#d7967d" d="M386 205c6.758 3.078 12.942 6.725 19.188 10.75a436 436 0 0 0 22.492 13.508L430 231l-3 2v-2h-3v-2c-5-1-5-1-8 1l3 5v2l2 1a187 187 0 0 1 4 6c-4.908-2.454-8.225-5.938-12.047-9.781l-2.337-2.331q-2.44-2.438-4.871-4.883a2251 2251 0 0 0-7.499-7.485l-4.73-4.739-2.282-2.27C386 207.23 386 207.23 386 205"/><path fill="#d07959" d="M706 370h2l-.062 5.5.062 5.5h3v-2l-2-1c.25-4.062.25-4.062 1-8h2v2h4v2h2v2l2 1v9c6.667 4 6.667 4 10 4v5l3 1v2c-12.813-5.125-24.493-13.45-36-21 4-1 4-1 9-1l-1-5z"/><path fill="#d17859" d="M942 556c3.918 2.6 6.665 5.832 9.563 9.5 2.701 3.409 5.344 6.407 8.437 9.5l-1 2c-4.625-1.187-4.625-1.187-9-3l1-3c-3.437.188-3.437.188-7 1v2h-2v-2h-2v2h-2v-3l-2-1v-2h-4v-2l2-1-2-1v-2h6l1-5z"/><path fill="#d37f61" d="M982 601c5.81 4.478 10.94 9.706 16 15v2h2v2c-6.804-.324-13.074-2.4-19.5-4.5l-3.07-.973A295 295 0 0 1 970 612v-1c7.347-2.327 7.347-2.327 12 0v-3h-2c1-5 1-5 2-7"/><path fill="#d38d72" d="m862 335 2 3c-2.098 4.197-4.478 7.037-7.562 10.563-6.727 7.754-13.23 15.659-19.625 23.687-3.189 3.992-6.413 7.935-9.813 11.75h-1c.313-3.5.313-3.5 1-7h2v-2h2v-2h3a257 257 0 0 0 2-7l3-3h4v-6l4-1v-3h2l.75-3.437L851 346c3.125-.687 3.125-.687 6-1v-4h2v-3h2z"/><path fill="#d5967e" d="M1023 148c-2.9 3.8-5.873 7.393-9 11a4389 4389 0 0 0-5.5 6.5l-2.777 3.266c-3.378 4.012-6.671 8.09-9.946 12.187C994 183 994 183 992 184v-6l4-1 1-4 4-2v-2h2v-4h2v-2h2v-2h2v-5l3-1-3-2c2.008-1.543 2.008-1.543 5.125-3.187l3.07-1.668C1020 147 1020 147 1023 148"/><path fill="#d8987f" d="M699 515h5a159 159 0 0 1 5 6h3l1 5 3.563-1.062L720 524v6l5 2v2l2.75-.187c6.05.266 10.787 2.73 16.25 5.187l5 2c-5.914 1.971-12.76-1.87-18.5-3.75l-4.363-1.383-4.168-1.351-3.83-1.242C715 532 715 532 712 529v-2h-2v-2l-4-2v-2l-4-2z"/><path fill="#d38e74" d="m923 261 3 1c-1.164 4.656-2.859 6.472-6 10.063l-3.023 3.496c-.492.567-.492.567-2.977 3.441a806 806 0 0 0-4.625 5.625l-2.164 2.652q-2.373 2.922-4.734 5.852L900 296.187l-2.25 2.793L896 301h-1c-.812-2.812-.812-2.812-1-6 4-3 4-3 7-3v-4h2v-3h2l2-4h2v-2h2l1-4h3l-1-3 3-1v-2h2v-2h2v-4z"/><path fill="#d38467" d="M831 478c4.855 1.942 9.055 4.235 13.563 6.875l4.503 2.617C853 490 853 490 857 494l-3 1-1-2-3.437-.437L846 492l-2-3-4-3-2 2-3-3-1 2-2-1v2h-2v-2h-2v4l-4-1 2-5-4-2 3-2 3 2v2l4-3z"/><path fill="#ce6e4c" d="m608 217 4 3 4 2 1 3 3 2v3l2 1c-2 3-2 3-5.125 4.938L614 236c-.25-5.875-.25-5.875-.016-9.305L614 224h-2v10h-2v-2h-2v-2h-2c0-5 0-5 2-9l-2-1z"/><path fill="#d79982" d="M852 461c4.966 3.876 8.93 8.202 13 13l3.5 3.875L871 481l-1 2a212 212 0 0 1-10.875-6.187l-3.09-1.83c-4.037-2.418-7.695-4.643-11.035-7.983l4.563.688L854 468l-1-3z"/><path fill="#d38569" d="M688 494v2h4v8l4 1 2 1q.617 4.487 1 9c-4.942-4.022-9.585-8.348-14.187-12.75l-3.606-3.422L679 496c4-2 4-2 9-2"/><path fill="#d5947b" d="M775 418h3v2l-2 2q3.48 1.546 7 3v2h3v2h3l3 3c4 2 4 2 6 2l4 4c4 2 4 2 6 2a101 101 0 0 1 3 6c-4.387-1.755-7.982-3.682-12-6.125l-4.016-2.437L791 435l-3.484-2.125A1223 1223 0 0 1 767 420c4-1 4-1 7-1z"/><path fill="#d8957b" d="M903 590c3.422.477 6.825.966 10.219 1.617l3.468.633 3.325.64C923 593 923 593 927 590l2 3 2 1-1 3 4 1 3 1v-3c3.812 1.27 5.128 3.128 8 6l3 2c-5.306-.618-10.14-1.834-15.234-3.434l-4.676-1.466-4.84-1.538-4.887-1.525c-11.977-3.78-11.977-3.78-15.363-6.037m37 5h2l-1 3z"/><path fill="#d7957d" d="m1007 154 2 1-1 2h-2v3c-5.99 3.411-11.292 5.385-18 7v2a207 207 0 0 1-8 3l-4 2-4-1 2.244-1.206 13.723-7.378 3.467-1.865 3.394-1.822c2.825-1.54 5.61-3.136 8.395-4.749z"/><path fill="#d48e75" d="M653 464c2 3 2 3 2 6h4v4h4v4h4v4l3-1 3 1v4c4 2 4 2 7 3-1 4-1 4-2 6-2.624-2.236-2.624-2.236-6.074-5.676l-3.71-3.697-3.904-3.94-3.939-3.904-3.697-3.709-3.44-3.45L651 468l2-1z"/><path fill="#d68f74" d="M512 282c5.331 2.132 9.667 4.842 14.5 7.938 4.808 3.072 9.607 6.126 14.5 9.062-2 1-2 1-6 0v-2c-4 2-4 2-6 5l-1-4-4-1 .563-3 .437-3-5-1v-2l-4-.312-4-.688z"/><path fill="#d58f74" d="M832 440h2c1.614 1.786 3.217 3.583 4.766 5.426a153 153 0 0 0 5.28 5.742l3.141 3.27 3.043 3.12L852 460l-4 1-2-2 1-2-3 1v2h-2v-2l-4 2 1 3c-5-2-5-2-8-5h6v-2h3v-2h2l-1-3-4-2v-2l-4-1c-.875-3.062-.875-3.062-1-6"/><path fill="#d0856a" d="M551 365c2.938.063 2.938.063 6 1l1 5 3 1 1 4h2v3h2l2.438 2.938C571 385 571 385 574 386c.688 3.063.688 3.063 1 6-5.292-4.41-10.131-9.131-15-14l-3.187-2.625c-3.009-2.54-5.375-5.292-7.813-8.375h2z"/><path fill="#d9a894" d="M386 205c6.979 3.17 13.358 6.981 19.813 11.125 4.704 3.011 9.397 6.001 14.187 8.875l-3 2v-2l-5-1-1-3a309 309 0 0 0-7-2v-2h-3v-2h-3l1 4c-4.542-3.815-8.953-7.657-13-12z"/><path fill="#d79982" d="M576 188c6.15 2.46 9.295 5.368 14 10l-2 2h-3c-.312 3.438-.312 3.438 0 7l2 1-2 3a4861 4861 0 0 1-4.5-10.375l-1.3-2.984c-3.2-7.414-3.2-7.414-3.2-9.641"/><path fill="#d29077" d="M746 299c-2 2-2 2-5.625 3L737 303v2h-4l4 3 2 5 2 4h2l1 5c-6.124-4.78-11.502-10.003-15-17 2.254-1.957 2.254-1.957 5.563-3.812l3.253-1.895C741 298 741 298 746 299"/><path fill="#d79b84" d="M984 612v2q3.496.526 7 1l3 2 1-4 3 3v2h2v2c-6.804-.324-13.074-2.4-19.5-4.5l-3.07-.973A295 295 0 0 1 970 612v-1c5.684-2.32 8.671-2.045 14 1"/><path fill="#da9f87" d="M597 414h5v3h2v2h2v2l4-1c3 3 3 3 3.625 6.125 2.054 5.79 5.897 8.717 10.375 12.875-3 0-3 0-5.544-2.187l-2.999-3.028-3.252-3.267-3.393-3.455-3.427-3.444C597 415.154 597 415.154 597 414"/><path fill="#d39077" d="M665 355c4.5 1.313 4.5 1.313 9 3l1 2 3 1v2l3 .438 3 .562v3l3.438.375L691 368l1 5c-5.39-2.156-10.173-4.95-15.125-7.937l-2.746-1.631c-3.748-2.252-7.025-4.328-10.129-7.432z"/><path fill="#d28e73" d="m881 313 4 1-1 2h-2l-2 4a235 235 0 0 1-5.375 6.5l-2.898 3.406c-2.155 2.445-4.423 4.79-6.727 7.094v-6h2v-2h2v-2h2v-2h2v-4l4-1v-3h2v-2h2z"/><path fill="#d2896e" d="m967 209 4 1c-1.86 2.899-3.797 5.365-6 8l-2.57 3.27c-5.252 6.575-5.252 6.575-7.43 8.73l-2-2v-3l4-2v-2h2l.438-3.437L960 214l3-1 2 1 1-4z"/><path fill="#d69076" d="M916 530c5.104 2.042 8.032 4.266 12 8v2h2c2.188 2.375 2.188 2.375 4 5l-1 2-5-2 1-3-2.937 1.25L923 544c-1-4-1-4 0-6l-2-1-4-2-3-1z"/><path fill="#d6937b" d="M667 266c8.107 5.855 15.893 12.03 22 20-3-.312-3-.312-6-1v-3l-3-1v-2h-3l-2 2-.937-3.312L673 274l-3-1c-3-5-3-5-3-7"/><path fill="#d5967d" d="M891 218v2h-3v2l-2 1-1 3-5-1v2h-3v2h-4v2c-5 2-5 2-9 2l-1 2-2-2c2.312-1.604 2.312-1.604 5.86-3.477l3.82-2.03 4.07-2.118 4.023-2.14C888.697 218 888.697 218 891 218"/><path fill="#d3896e" d="m939 240 2 1v2l2 1c-1.598 2.293-1.598 2.293-4.062 5.188-2.727 3.205-5.357 6.374-7.875 9.75L929 261l-2-4 2-1 1-3h2l1.438-4.5L935 244h3z"/><path fill="#d59278" d="M939 192v2h-3l-1 3h-2l-1 3c-3.286 2.19-6.219 2.95-10 4l-1 1h-6c3.786-3.786 7.818-5.71 12.563-8.187l5.19-2.731C937 192 937 192 939 192"/><path fill="#d27e60" d="M589 406h5v2h5v2h3v2h2v2h2l1 3-1 2h-2v-2h-2v-3h-6c-3.875-3.437-3.875-3.437-7-7z"/><path fill="#cf7759" d="M398 215h3v2h3l1 2 2.938.813L411 221l2 5h2v2l-3 1-2-1v-3h-3l-1-3-4 1c-3-3-3-3-4-8"/><path fill="#d28467" d="M706 370h2l-.062 5.5.062 5.5h3l2 5c-4.08-1.632-7.175-3.258-10.812-5.625l-2.958-1.914L697 377c4-1 4-1 9-1l-1-5z"/><path fill="#d48e74" d="M514 326a263 263 0 0 1 4 5l2 1v3h4c.75 4 .75 4 1 8-5.681-4.714-11.027-9.546-16-15 3-2 3-2 5-2"/><path fill="#d28264" d="M753 430c4.838 1.935 8.748 4.003 13 7l2 5-2 2h-4a132 132 0 0 1-3-6 346 346 0 0 0-6-7z"/><path fill="#d48b70" d="M751 400h1l.188 3.875L753 408c3.063 1.25 3.063 1.25 6 2v4c-4.359-1.743-7.858-3.648-11.812-6.125l-3.52-2.195L741 404c4-1 4-1 8 0z"/><path fill="#d2896e" d="M642 340h6l1 5h3v2l2.813.25L658 348c1.875 3.063 1.875 3.063 3 6-4.256-1.702-7.838-3.53-11.75-5.875l-3.484-2.055C643 344 643 344 642 340"/><path fill="#d59076" d="M590 199c4.353 2.612 7.692 5.186 11.438 8.563l3.308 2.94L607 213l-2 2v-2l-3.25.875L598 214c-2.312-3.687-2.312-3.687-4-8-2-4-2-4-4-5z"/><path fill="#d18063" d="m502 310 4 1c-1 4-1 4-2 6l1 4 3-1c.688 3.438.688 3.438 1 7-4.124-3.41-7.823-6.68-11-11h2v-2h2z"/></svg>