<svg xmlns="http://www.w3.org/2000/svg" width="1408" height="768"><path fill="#cf704f" d="M429 114c4.682 1.873 8.759 4.058 13.125 6.563 7.55 4.329 7.55 4.329 10.875 5.437v2l5 2a245 245 0 0 1 6.563 3.875l4.007 2.434L473 139q4.968 2.97 9.938 5.938c7.426 4.452 14.781 9.004 22.109 13.617 5.664 3.503 11.423 6.839 17.176 10.195 4.364 2.6 8.55 5.433 12.777 8.25a4333 4333 0 0 0 8.03 4.358c4.659 2.575 9.186 5.354 13.72 8.142l6.078 3.719 3.104 1.902c4.85 2.97 9.709 5.924 14.568 8.879l5.719 3.48 2.87 1.748q4.472 2.722 8.942 5.448A4443 4443 0 0 0 630 234a5334 5334 0 0 1 37.247 22.481 1485 1485 0 0 0 17.995 10.8l3.478 2.058q3.27 1.93 6.55 3.84c4.463 2.64 7.585 4.627 10.73 8.821-.423 4.164-1.031 8.064-1.84 12.156l-.704 3.795c-.781 4.186-1.588 8.367-2.394 12.549a7366 7366 0 0 0-1.659 8.855 7591 7591 0 0 1-3.553 18.852c-2.773 14.639-5.455 29.294-8.147 43.947q-1.332 7.245-2.67 14.488a9280 9280 0 0 0-11.458 63.184l-1 5.615-.857 4.835C671 474 671 474 670 477h-3c-2.023-2.281-2.023-2.281-4.375-5.5a434 434 0 0 0-12.062-15.437c-4.99-6.11-9.89-12.281-14.747-18.497-3.087-3.909-6.228-7.77-9.379-11.628l-3.261-4.024q-3.111-3.835-6.258-7.64l-2.793-3.462-2.492-3.042C610 405 610 405 611 400c3.727-2.762 3.727-2.762 8.625-5.687q2.61-1.584 5.219-3.172l2.636-1.592c3.62-2.225 7.13-4.6 10.645-6.986 5.171-3.48 10.36-6.66 15.875-9.563-15.277 3.332-30.27 7.587-45.22 12.145A622 622 0 0 1 599 388l-3.41 1.004c-7.03 1.888-11.272 2.315-18.153-.692l-4.878-2.011-2.661-1.123c-5.558-2.26-11.238-4.19-16.898-6.178a2258 2258 0 0 1-29.535-10.723A218 218 0 0 0 517 366v-3c4.663-.995 9.223-1.77 13.938-2.437l4.41-.655c10.916-1.592 21.854-2.96 32.81-4.239 13.99-1.643 27.946-3.529 41.904-5.419l3.601-.487A24322 24322 0 0 0 634 347c-4.402-2.201-10.504-1.231-15.402-1.281l-4.149-.054q-4.407-.057-8.814-.11-6.844-.084-13.688-.189c-12.588-.19-25.174-.371-37.763-.44l-9.184-.113-4.023.019c-11.141-.19-17.414-4.552-26.04-11.457-6.46-5.067-13.133-9.781-19.859-14.488a377 377 0 0 1-10.39-7.637c-5.73-4.345-11.686-8.295-17.688-12.25-2.375-1.607-4.731-3.247-7-5v-2c8.87-.509 17.262.766 26 2.188q4.462.7 8.926 1.398l4.592.722c6.881 1.063 13.775 2.035 20.67 3.005 14.198 2.006 28.381 4.104 42.564 6.219 20.062 2.99 40.126 5.906 60.248 8.468-5.97-2.39-11.858-4.007-18.125-5.437-14.839-3.455-29.56-7.362-44.29-11.248-9.89-2.602-19.788-5.102-29.752-7.408-5.77-1.366-11.489-2.904-17.208-4.47l-3.246-.88q-3.156-.858-6.308-1.725-3.146-.851-6.306-1.644c-2.606-.664-5.189-1.417-7.765-2.188v-2h-2a268 268 0 0 1-4-6 317 317 0 0 0-5.375-6.437l-2.918-3.422a917 917 0 0 0-6.394-7.329C467 251 467 251 467 249h-2c-1.583-1.909-3.09-3.88-4.562-5.875-3.15-4.183-6.32-8.218-9.875-12.062-4.652-5.048-8.83-10.417-13.032-15.84-2.001-2.549-4.095-5.025-6.219-7.473C429 205 429 205 429 203c5.523.331 10.37 2.611 15.438 4.688l5.433 2.21L455 212q3.498 1.411 7 2.813l3.55 1.421q5.586 2.215 11.18 4.407a7601 7601 0 0 0 11.021 4.314c5.462 2.138 10.905 4.304 16.312 6.576 6.2 2.602 12.466 5.013 18.75 7.406 12.5 4.788 24.927 9.731 37.321 14.79Q569.065 257.368 578 261l3.916 1.592q5.914 2.398 11.834 4.783l3.635 1.477c8.435 3.39 16.964 6.36 25.615 9.148-12.277-6.815-24.632-13.396-37.218-19.625-7.96-3.943-15.825-8.05-23.673-12.21-4.27-2.25-8.579-4.409-12.906-6.548-4.18-2.11-8.314-4.303-12.453-6.492-5.803-3.066-11.62-6.084-17.5-9a849 849 0 0 1-22.875-11.79c-4.153-2.208-8.177-4.259-12.57-5.956-11.007-4.27-14.476-12.256-19.427-22.575-2.308-4.695-4.894-9.235-7.44-13.804-4.826-8.79-9.32-17.712-13.758-26.703-1.706-3.362-3.458-6.59-5.43-9.797C429 119.182 429 119.182 429 114m196 165 1 2 3-1z"/><path fill="#cf7050" d="m908 352 5.383.363C942.032 354.4 942.032 354.4 954 362c1.662 2.43 3.32 4.864 4.875 7.363 3.533 4.385 8.215 6.889 13.016 9.727 3.691 2.268 5.805 3.69 6.875 7.984 1.094 8.165 1.246 14.88-.766 22.926-4-2-4-2-5.758-5.156L970 402c-3.68-.219-3.68-.219-7.875.5l-4.18.656L954 404l-2.973.574c-4.744 2.235-8.014 6-11.59 9.738l-2.248 2.303c-2.07 2.122-4.13 4.253-6.189 6.385-2.871 2.893-5.768 5.76-8.664 8.629l-3.961 3.933-3.977 3.942C911 443 911 443 908 447h-2v2a207 207 0 0 1-5 4 450 450 0 0 0-5 5c-11 11-11 11-13.582 13.543-2.31 2.347-4.463 4.77-6.606 7.27L872 483h-2v2h-2v2h-2l-1 3h-2l-2 4a145 145 0 0 1-5.312 5.5l-2.864 2.844C850 505 850 505 847.344 507.117c-4.38 3.519-7.806 8.105-11.475 12.346-6.153 6.665-11.363 9.553-20.057 11.85l-3.698 1.064c-4.362 1.244-8.737 2.434-13.114 3.623q-5.58 1.548-11.156 3.102a4927 4927 0 0 1-18.14 5.01 1816 1816 0 0 0-40.685 11.642 945 945 0 0 1-19.144 5.523l-3.633 1.004C703 563 703 563 698 563q2.99-4.007 6-8l3.063-4.125c3.17-4.08 6.64-7.806 10.187-11.562 6.374-6.784 12.1-13.924 17.75-21.313 7.144-9.29 7.144-9.29 10.938-12.437 4.705-3.938 8.257-8.771 12.062-13.563 5.078-6.346 10.248-12.248 16-18 3.785-4.43 7.428-8.974 11-13.578 3.406-4.368 6.891-8.381 10.875-12.235 4.794-4.675 8.804-9.745 12.8-15.109 3.528-4.671 7.183-8.936 11.325-13.078h2c.455 3.163.754 6.349 1.004 9.535l.247 3.091c.664 8.576 1.191 17.16 1.714 25.745l.243 3.974c.33 5.428.66 10.855.967 16.284.229 4.019.476 8.037.727 12.055l.2 3.758c.186 2.862.524 5.714.898 8.558h3a201 201 0 0 0 10.5-12.125c3.206-3.686 6.725-6.781 10.5-9.875h2l2-4a104 104 0 0 1 4.326-4.585l2.71-2.73c.968-.963 1.936-1.926 2.933-2.92l3.004-3.009q3.143-3.146 6.294-6.284c3.227-3.216 6.443-6.443 9.659-9.671l6.105-6.098 2.933-2.945C900.77 432 900.77 432 903 432c-3.475-10.946-9.874-20.95-16.312-30.39C885 399 885 399 885 397c-4 1-4 1-5.895 4.105-.632 1.348-1.265 2.695-1.918 4.082l-2.09 4.36L873 414q-1.924 3.975-3.875 7.938l-1.68 3.464C866 428 866 428 864 429c-2.172-1.512-2.172-1.512-4.75-3.687-2.91-2.417-5.704-4.61-8.875-6.688L848 417v-2l-4-2-2-1v-2l-4-2a192 192 0 0 1-5.625-4.625c-3.778-3.192-7.566-6.359-11.437-9.437l-2.399-1.922a500 500 0 0 0-5.64-4.407l-3.087-2.421-2.855-2.208L805 381l1-3c3.883-1.36 3.883-1.36 9.125-2.75q2.905-.788 5.809-1.582l3.046-.827c4.766-1.327 9.483-2.81 14.207-4.279 9.376-2.893 18.811-5.498 28.3-7.992 6.865-1.814 13.623-3.845 20.388-6.007 7.266-2.182 13.558-3.292 21.125-2.563m14 22c4.125 3.75 4.125 3.75 9 7 4-2 4-2 8-6v-2c-3.21-.484-3.21-.484-7.375-.75l-4.148-.297C924 372 924 372 922 374"/><path fill="#d07050" d="M716 287c4.827 1.207 5.89 3.15 8.762 7.023 2.734 3.637 5.607 7.144 8.488 10.664a1021 1021 0 0 1 15.508 19.52C751 327 751 327 754 330v2h2c1.274 1.574 2.469 3.212 3.625 4.875 5.247 7.393 10.934 14.373 16.688 21.375 6.547 7.984 12.903 16.12 19.187 24.313 2.95 3.74 5.974 7.374 9.063 11 8.98 10.615 8.98 10.615 11.437 14.437-1.27 6.35-4.722 9.437-9 14l-3.437 3.938a631 631 0 0 1-8 8.937A197 197 0 0 0 787 445c-3.362 4.264-6.923 8.287-10.578 12.3a421 421 0 0 0-17.672 21.075c-3.387 4.177-6.953 7.828-10.75 11.625-3.08 3.604-6.043 7.295-9 11l-2.176 2.719-2.074 2.594-1.96 2.449q-2.339 2.926-4.665 5.863L726 517h-2l-2 4a133 133 0 0 1-4.25 4.75c-2.714 2.955-5.175 5.826-7.562 9.063-3.907 5.131-8.254 9.74-12.676 14.43C695 552 695 552 694 554h-3c-.514-11.081.752-22.068 1.862-33.083.327-3.303.624-6.608.921-9.913q.315-3.17.635-6.34l.555-5.767C696.657 490.864 701.73 486.97 708 482h2v-2l3-2.5c3.174-2.777 5.32-5.076 7.813-8.375 4.116-5.34 8.857-9.02 14.187-13.125l2-3-3.812 2.375c-5.046 3.035-10.22 5.775-15.438 8.5-9.635 5.033-19.169 10.176-28.312 16.063C686 482 686 482 681 483c-.755-5.358.512-10.627 1.494-15.902l.995-5.402 1.097-5.848 1.13-6.107q1.197-6.48 2.406-12.957c1.883-10.094 3.749-20.192 5.616-30.289l1.852-10.003a5601 5601 0 0 0 8.507-47.087A7978 7978 0 0 1 709 322l1.017-5.673a2021 2021 0 0 1 2.858-15.39l.796-4.443c.759-3.904.759-3.904 2.329-9.494"/><path fill="#cf6d4d" d="M686 508c.113 2.657.113 2.657-.258 6.426l-.398 4.248-.469 4.639-.403 4.695c-.744 8.493-1.722 16.893-3.019 25.32C678.74 572.192 678.74 572.192 680 578c5.323 1.637 8.463-.697 13.34-3.094l2.804-1.508c4.482-2.194 9.14-3.257 13.981-4.398l5.07-1.312L719 567l1 2c-1.158 3.078-2.432 6.112-3.75 9.125l-1.22 2.796c-4.463 10.175-9.002 20.33-13.77 30.366-1.23 2.648-2.348 5.347-3.463 8.045-3.383 5.646-7.143 7.757-12.797 10.668a708 708 0 0 0-6.777 4.05l-7.16 4.263-3.69 2.205-3.525 2.095-3.188 1.9C658 646 658 646 655 647l-1-2a239 239 0 0 1 4.188-9.812c2.757-6.225 5.351-12.389 7.25-18.938L667 611l2-1-1-2a195 195 0 0 0-4 6 317 317 0 0 1-5.375 6.438l-2.773 3.246L653 627l-2.852 3.668c-3.54 3.748-6.402 5.244-11.148 7.207l-4.793 2.012L629 642q-2.808 1.164-5.613 2.332A1693 1693 0 0 1 607 651l-4.25 1.75c-2.885 1.164-5.813 2.224-8.75 3.25l-1-2c1.918-2.726 3.944-5.376 6-8a2690 2690 0 0 0 4.313-5.812c4.402-5.868 9.013-11.535 13.687-17.188q3.412-4.152 6.813-8.312l3.269-3.989c3.72-4.716 6.828-9.55 9.918-14.699a283 283 0 0 1 5-5 306 306 0 0 0 4.813-5.812l2.394-2.958L651 580c-4.887 2.443-9.499 5.998-12 11h-2l-2 4a290 290 0 0 1-5.588 4.886c-4.76 4.173-9.145 8.745-13.6 13.239l-2.943 2.957a5618 5618 0 0 0-5.409 5.442L605 624l-2.626 2.69c-4.429 4.309-7.993 4.954-13.999 6.06-10.326 1.986-20.518 4.385-30.73 6.883C543.743 643 543.743 643 539 643c3.042-6.083 7.164-10.639 12.625-14.687 5.252-3.977 9.66-8.515 14.273-13.204 3.552-3.56 7.28-6.842 11.102-10.109q2.756-2.493 5.5-5c4.45-4.06 8.967-8.034 13.5-12 3-3 3-3 4-6l5-3a130 130 0 0 0 4.688-4.125l2.625-2.406L615 570q2.592-2.315 5.188-4.625a216 216 0 0 0 8.437-8c3.649-3.649 7.474-6.998 11.375-10.375 11.66-10.377 23.091-20.993 34.434-31.715C682.342 508 682.342 508 686 508m-16 95 1 2Z"/><path fill="#cf6f4e" d="M979 206c-1.05 4.2-2.384 6.257-4.875 9.75l-2.48 3.512L969 223q-2.6 3.778-5.187 7.563a2442 2442 0 0 1-14.478 20.798 1476 1476 0 0 0-11.898 17.264c-5.301 7.775-10.772 15.411-16.304 23.023-4.827 6.705-9.478 13.527-14.133 20.352a728 728 0 0 1-17.422 24.395C887 340 887 340 885.29 344.102c-5.475 6.488-13.151 7.41-21.164 9.46q-5.19 1.41-10.379 2.825l-5.082 1.353c-5.867 1.585-11.675 3.327-17.476 5.135l-5.293 1.621q-4.943 1.518-9.883 3.04l-4.637 1.401-3.977 1.215C804 371 804 371 799 371c-2.316-2.23-2.316-2.23-4.562-5.187l-2.254-2.918L790 360l-2.34-2.55L786 355c1.659-8.293 6.774-11.552 13-17 4.048-3.953 8.024-7.975 12-12q2.498-2.502 5-5l3.5-3.5q2.945-2.946 5.895-5.887a604 604 0 0 0 5.148-5.226l2.644-2.7 2.606-2.675c8.417-7.905 17.72-14.149 27.394-20.387l7.79-5.062 3.715-2.41c3.81-2.48 7.596-4.995 11.37-7.528 5.613-3.76 11.27-7.45 16.938-11.125 29.872-19.372 29.872-19.372 34-23.5l4.188-2c7.39-3.62 14.029-8.369 20.812-13q4.15-2.82 8.313-5.625l3.738-2.54C977 206 977 206 979 206"/><path fill="#d07050" d="M676 364h2v6h2l1-3c2 2 2 2 2.047 4.785-.279 3.079-.66 6.148-1.047 9.215l-2 1v-2h-2l1 4-1 2h-6l-4 1c-.625 4.563-.625 4.563 0 9h6l2 4h2v2h2c-.314 2.308-.762 4.598-1.25 6.875a184 184 0 0 0-2.75 18.25c-1.75 16.652-1.75 16.652-4 22.875h-3l-5 3-1-2-3 3c-4.562-.5-4.562-.5-9-2l-2-5-2.8-.457c-4.454-.756-5.605-2.74-8.388-6.23l-2.886-3.579L632 433l-2.77-3.484a852 852 0 0 1-5.433-6.946 334 334 0 0 0-5.969-7.39l-3.078-3.743-2.828-3.378C610 405 610 405 611 400c3.727-2.762 3.727-2.762 8.625-5.687q2.604-1.578 5.203-3.16l2.635-1.591c4.923-3.031 9.667-6.334 14.435-9.601C645 378 645 378 650 376l-3 3h3l1-2h6v2c3.35-1.737 6.32-3.32 9-6l4 1v-4h2v-2z"/><path fill="#cf7758" d="M429 203c5.523.331 10.37 2.611 15.438 4.688l5.433 2.21L455 212q3.498 1.411 7 2.813l3.55 1.421q5.586 2.215 11.18 4.407l3.71 1.453q3.654 1.432 7.312 2.86c5.46 2.139 10.904 4.305 16.31 6.577 6.201 2.602 12.467 5.013 18.75 7.406C541.319 246.026 559.655 253.513 578 261c-3 1-3 1-8-1-3.698-.55-7.396-.946-11.113-1.34L556 258v-3a348 348 0 0 0-9-2v-2h-4v-2l-2.937.563L537 250l-1-3c-5-.875-5-.875-10-1l-1 3-1-3-2.812.938L518 248l-4-2 2-5h-2v2c-4 2-4 2-7.062 1.125L504 243h-3l3 3v4h-2v2l4-2v2h4v2h-4l1 3-2 4v3l-2 1-2 3c-6.737 2-6.737 2-10 2v3h-2v2c4.633 2.316 6.89 2.992 12.125 3.375 7.244.77 13.153 2.936 19.875 5.625v2c-6.837-.403-13.398-2.215-20-3.937l-3.215-.803c-2.615-.679-5.204-1.46-7.785-2.26v-2h-2a268 268 0 0 1-4-6 317 317 0 0 0-5.375-6.437l-2.918-3.422a917 917 0 0 0-6.394-7.329C467 251 467 251 467 249h-2c-1.583-1.909-3.09-3.88-4.562-5.875-3.15-4.183-6.32-8.218-9.875-12.062-4.652-5.048-8.83-10.417-13.032-15.84-2.001-2.549-4.095-5.025-6.219-7.473C429 205 429 205 429 203"/><path fill="#cf6f4f" d="M686 508c.113 2.657.113 2.657-.258 6.426l-.398 4.248-.469 4.639-.403 4.695c-.744 8.493-1.722 16.893-3.019 25.32C678.74 572.192 678.74 572.192 680 578c5.323 1.637 8.463-.697 13.34-3.094l2.804-1.508c4.482-2.194 9.14-3.257 13.981-4.398l5.07-1.312L719 567l1 2c-1.158 3.078-2.432 6.112-3.75 9.125l-1.22 2.796A1408 1408 0 0 1 700 614l-1.264 2.805C694.437 626.02 689.301 628.28 680 632v-3l3-.437 3-.563v-4l3.5-.25 3.5-.75c.75-4.125.75-4.125 0-8l-5 1c-3.054-6.108-3.332-11.342-2-18h2l2-4h4c.375-4.5.375-4.5 0-9h-2v-2c-3.027-.598-3.027-.598-6.937-1.062-6.97-.845-6.97-.845-8.063-1.938-.407-6.36-.22-12.11 1.313-18.312L679 558h-5v2l-5-1c-.625 3.188-.625 3.188-1 7-3 4-3 4-6.375 5.875-3.851 2.258-5.828 4.707-8.625 8.125h-3c-4.228 3.435-7.727 6.636-11 11h-2v-6h2l1-3 3 1v-2h3l-1-3h4l-1-3h3v-2h2v-4h2v-2h3l2-4h4c3.17-3.17 2.753-6.68 3-11h-2c-1.159-6.18-1.123-11.056 1-17l3-1 3-3 2-1 1-4h4l-1 4h2c.414-3.062.414-3.062.625-7l.227-3.937L681 516c-6.233 3.116-10.669 8.206-15.664 13.008C662 532 662 532 660 532v3l-4 1v2c-3.75 3.688-3.75 3.688-8 7l-4-1c5.157-5.25 10.454-10.158 16-15l3.5-3.5c3.691-3.691 7.546-7.093 11.5-10.5l4.313-3.937C683 508 683 508 686 508"/><path fill="#ce6e4e" d="M585 314c5.421-.167 10.68-.132 16 1v2q5.5.125 11 0l-2-2c9.389-.312 18.241.88 27.5 2.375l4.398.672c10.717 1.696 10.717 1.696 14.102 3.953l-2.695-.14c-3.1-.1-6.206.008-9.305.14l2 4v4h2v-2a98 98 0 0 1 7 0h3v6h-4v2c2.323.701 4.658 1.365 7 2l3 2-1 4v3l-3 3v2h-4v-2h-7v-2l3.5-.937L656 346v-3l-3 1a187 187 0 0 1-7.409.038l-4.67-.052-5.058-.072-5.166-.064q-5.41-.07-10.821-.147c-5.55-.078-11.1-.145-16.651-.21l-10.487-.141-5.075-.06-4.642-.07c-1.36-.02-2.718-.038-4.118-.057L576 343v-1l2.938-.375L582 341l1-3h3l-1-3 5-1v-2h-5v-2h2v-2l-3-1 1-2h3l-1-2-5-1v-2a156 156 0 0 1 8-3l-5-2z"/><path fill="#cf6e4c" d="m738 458 2 1v1h6l2 2 4 2v-5l2-1c.045 2.666.039 5.334 0 8l1 4h5v3h-3v4h-2l-1 4-3-1 1 3c-5.542 3.325-6.117 2.905-12 2l-1 3h-3l-3 2 2 1-3 1-1 4h2l1 5h-2l.688 2.75L733 507c-2.437 2.375-2.437 2.375-5 4v-3l-2 1v5l-3-1v2l-3.875.938C715 517 715 517 713 520l2 1-1 4h-2l-1 5-3 2v-2l-4-1c-1.262-4.856-1.053-9.12 0-14l2-2-2-2-.437-3.562L703 504l-3-1-1 4c0-6 0-6 1-9v-3h2v-3h3l1-4c2.875-1.375 2.875-1.375 6-2l3 2-3-4c1.588-1.742 3.282-3.387 5-5l2.938-5.062c2.817-4.544 4.355-6.637 9.062-8.938h3l1-4 5-1z"/><path fill="#cf7051" d="m651 580 2 3-3 5 1 5c-2.812.688-2.812.688-6 1l-2 2-2 1c-2.892 3.739-4.846 6.383-6 11h2l2 4-2 1-1 5 5-2 1-4h2v4h2v-4h2v3c3.16.753 6.265 1.024 9.5 1.313l2.5.687c-1.802 3.604-3.63 6.305-6.125 9.438l-2.195 2.808c-6.501 6.681-14.932 9.71-23.43 13.067l-3.58 1.43q-3.6 1.44-7.206 2.87a736 736 0 0 0-9.644 3.95l-5.445 2.25-4.852 2.019L594 656l-1-2c1.918-2.726 3.944-5.376 6-8a2690 2690 0 0 0 4.313-5.812c4.402-5.868 9.013-11.535 13.687-17.188q3.412-4.152 6.813-8.312l3.269-3.989c3.72-4.716 6.828-9.55 9.918-14.699a411 411 0 0 1 5-5c2.38-2.99 4.701-6.018 7.012-9.062z"/><path fill="#d07d5f" d="M820 420h2c.453 3.173.751 6.367 1 9.563l.242 3.064c.266 3.457.513 6.915.758 10.373l.282 3.89q.433 6.054.843 12.11l.266 3.823c.563 8.704 1.016 17.455.609 26.177h-1a430 430 0 0 1-1.062-11.5l-.276-3.324q-.336-4.087-.662-8.176v7c-2-4-2-4-3-8.312L819 461l-2 1-2-1-1 2-3-1v-2l-3 1c-2-3-2-3-3-5l1-3-3 1-1-3 2-2 1-4-3-1-1 4-3 1a589 589 0 0 0-3 7l-3 2c-2.562 3.625-2.562 3.625-4 7h6c1.188 2.938 1.188 2.938 1 6-5 1-5 1-7 1l-2 2-2-2c-5 3-5 3-7 5l-5 2c-5.275 4.574-9.743 8.589-10.5 15.688L762 498h-2v6l-2 1v-2c-4.375 1.125-4.375 1.125-9 3l-2 4-4 4-1 4 3 1c-8.625 4-8.625 4-12 4l-1 4c-1.253 5.011-2.677 7.15-7 10a201 201 0 0 1-6 3l-3 2c2.02-4.042 4.098-6.427 7.188-9.687 5.946-6.389 11.137-13.08 16.375-20.063C743 508 743 508 745.875 505.625c4.724-3.968 8.299-8.806 12.125-13.625 5.078-6.346 10.248-12.248 16-18 3.785-4.43 7.428-8.974 11-13.578 3.406-4.368 6.891-8.381 10.875-12.235 4.794-4.675 8.804-9.745 12.8-15.109 3.528-4.671 7.183-8.936 11.325-13.078"/><path fill="#ce7253" d="m895 402 4 1-2 1a283 283 0 0 0 3 11l1 5h6l2 3 4 1v3l2 1 2 1v2h2v-2h2v-2h2l1-3 1-3h2c2 2 2 2 3 4-1.798 1.625-3.608 3.238-5.465 4.797C918.524 435.02 912.78 440.627 908 447h-2v2a207 207 0 0 1-5 4 450 450 0 0 0-5 5c-11 11-11 11-13.582 13.543-2.31 2.347-4.463 4.77-6.606 7.27L872 483h-2v2h-2v2h-2l-1 3-2-1v-4h2l2-4 4-1v-3h2v-2h2v-3c-5-2-5-2-8.875-.562-4.392 2.728-7.627 5.773-11.125 9.562 0-3 0-3 1.733-5.107l2.458-2.456 2.771-2.79 3.03-3.002 3.08-3.082q3.23-3.225 6.471-6.443c3.32-3.295 6.625-6.604 9.93-9.915q3.134-3.125 6.27-6.248l3.017-3.02 2.79-2.762 2.463-2.449C901 432 901 432 903 432c-2.58-7.989-6.729-14.649-11.27-21.68C890 407 890 407 891 403l3 1z"/><path fill="#ce7151" d="m730 460 2 1a690 690 0 0 1-6.61 6.441c-3.225 3.452-5.16 7.418-7.39 11.559l-4 2c0 4 0 4 1 7l-5-1-4 2-1 3h-3v3h-2l1 5-1 3 4-1c.625 3.688.625 3.688 1 8l2 4-3 1 1 3-1 8 1 3h4l3-4h2l-1-3-1-3c2.063-2.187 2.063-2.187 5-4h6v-2h2l1-4-2-1h4l1 2 3-3v-6l1-5h-2l1-4 2-1v-3l4-2 1 1 1-2h7l2-2h3l-2-5 5 2 3-2c-2.046 4.092-4.481 6.508-7.723 9.668-4.078 4.176-7.646 8.768-11.277 13.332l-6.21 7.762q-2.339 2.926-4.665 5.863L726 517h-2l-2 4a133 133 0 0 1-4.25 4.75c-2.714 2.955-5.175 5.826-7.562 9.063-3.907 5.131-8.254 9.74-12.676 14.43C695 552 695 552 694 554h-3c-.514-11.081.752-22.068 1.862-33.083.327-3.303.624-6.608.921-9.913q.315-3.17.635-6.34l.555-5.767C696.657 490.864 701.73 486.97 708 482h2v-2l3-2.5c3.943-3.45 6.88-6.967 10.008-11.133 2.134-2.536 4.258-4.493 6.992-6.367"/><path fill="#cf714f" d="M612 355v4h-2l-1 2-2-3c-4.872.244-9.548.945-14 3l1 3h-4l1 3c-3.021 4.497-5.652 7.739-10 11l-3.562.5C574 379 574 379 571 382l4 1 1 2 4 2-2 1a291 291 0 0 1-11.187-4.125c-8.294-3.193-16.578-6.21-25.083-8.805C539 374 539 374 536 371l-4-2c3-2 3-2 6-2l2-3 2 1 4-2-3-2c9.397-1.5 18.568-2.184 28.063-2.437 8.234-.228 15.79-.886 23.804-2.915 5.52-1.142 11.57-1.722 17.133-.648"/><path fill="#cf6d4b" d="m679 515 3 1c.074 3.816.074 3.816-.312 8.563l-.364 4.753L681 533l-1-3h-2l-1-3h-2l-1 5h-3l-2 3h-3v6l-1 2c-.187 4.625-.187 4.625 0 9h2v2l2 1h-2v6c-2.5 2.375-2.5 2.375-5 4v-2c-2 1-2 1-4 6l-1-2h-2v2h-2v4h-2v2c-5.294 2.235-5.294 2.235-9 1v2h-2c-2-4-2-4-2-7h-2v-2a253 253 0 0 0-6-2l-2-2v-3l4-2 1-2h5l2 2 1-4h2l1-4h-2v-2h3l1-5c7.23-7 7.23-7 10-7v-2l4-1v-3c1.8-1.664 3.615-3.313 5.5-4.879 3.845-3.262 7.444-6.788 11.082-10.277z"/><path fill="#d08266" d="M701 299h1c-.54 7.494-1.762 14.83-3.117 22.21l-.645 3.566c-.7 3.867-1.407 7.733-2.113 11.599l-1.484 8.174c-1.54 8.485-3.09 16.968-4.641 25.451l-.741 4.055q-3.152 17.243-6.32 34.483a11385 11385 0 0 0-6.373 34.9l-.572 3.163q-1.315 7.272-2.622 14.546l-.911 5.044-.788 4.382C671 474 671 474 670 477h-3c-2.023-2.281-2.023-2.281-4.375-5.5-5.171-6.964-10.656-13.617-16.23-20.262L644 448l1-2h5l1 6h5l4 1 4-3 1 2 4-3 2 1c2.457-7.333 3.186-15.218 3.938-22.875.758-7.682 2.342-14.84 4.453-22.258L680 402h-2v-2h-2l-2-3-3.125-.125L668 396c-.687-4.437-.687-4.437 0-9l5-2 1 3c3.438 1.188 3.438 1.188 7 1 1.313-3.937 1.313-3.937 2-8h2q.062-4 0-8l1-1 .438-4.312C687 363 687 363 689 359c.365-3.402.504-6.782.656-10.2L690 346l2-1c.258-3.069.51-6.139.656-9.215C693 333 693 333 695 331c1.332-6.658 1.382-13.244 1.621-20.02L697 307h2l1-4z"/><path fill="#ce785a" d="M686 508c.113 2.657.113 2.657-.258 6.426l-.395 4.247-.472 4.64-.431 4.706a1627 1627 0 0 1-2.534 25.133l-.493 4.876q-.476 4.698-1.029 9.387l-.423 4.257-.418 3.784L680 578c3.002-.104 3.002-.104 6-1-1 2-1 2-5.062 3.438L677 580c-.719-6.755-.313-11.735 1.313-18.312L679 558h-5v2l-5-1c-.625 3.188-.625 3.188-1 7-3 4-3 4-6.375 5.875-3.851 2.258-5.828 4.707-8.625 8.125h-3c-4.228 3.435-7.727 6.636-11 11h-2v-6h2l1-3 3 1v-2h3l-1-3h4l-1-3h3v-2h2v-4h2v-2h3l2-4h4c3.17-3.17 2.753-6.68 3-11h-2c-1.159-6.18-1.123-11.056 1-17l3-1 3-3 2-1 1-4h4l-1 4h2c.414-3.062.414-3.062.625-7l.227-3.937L681 516c-6.233 3.116-10.669 8.206-15.664 13.008C662 532 662 532 660 532v3l-4 1v2c-3.75 3.688-3.75 3.688-8 7l-4-1c5.157-5.25 10.454-10.158 16-15l3.5-3.5c3.691-3.691 7.546-7.093 11.5-10.5l4.313-3.937C683 508 683 508 686 508"/><path fill="#d07f62" d="m643 545 1 2a211 211 0 0 1-8 7c-7.726 6.564-14.514 13.788-21.29 21.328-3.666 3.629-7.345 5.973-11.71 8.672-2.5 4.313-2.5 4.313-4 8l3-1h7l1 5-3-1-2 4-5-1-1 2v-2h-3v3l-5 1 1 3-3 2v-2l-4 1h-4c-8.19 5.507-15.983 12.147-22 20l3-3 4-1v2h3l1 4 2 2c2.341-.27 4.674-.622 7-1q5.466-.326 10.938-.562l5.714-.254L600 628c-3.842 3.842-6.298 3.87-11.625 4.813-10.337 1.935-20.517 4.323-30.73 6.82C543.743 643 543.743 643 539 643c3.042-6.083 7.164-10.639 12.625-14.687 5.252-3.977 9.66-8.515 14.273-13.204 3.552-3.56 7.28-6.842 11.102-10.109q2.756-2.493 5.5-5c4.45-4.06 8.967-8.034 13.5-12 3-3 3-3 4-6l5-3a130 130 0 0 0 4.688-4.125l2.625-2.406L615 570q2.592-2.315 5.188-4.625a216 216 0 0 0 8.437-8c4.494-4.494 9.077-8.843 14.375-12.375"/><path fill="#ce6e4d" d="M910 356h6v-1c10.923-.776 21.087.044 31 5l2 2h3v2l3 1-1 2c-3.562-.75-3.562-.75-7-2v-2h-4v2l3 1c-5-1-5-1-10-4l1 3c-.422 3.188-.422 3.188-2 6-3.703.438-3.703.438-8.25 0l-4.516-.375c-3.678-.543-6.817-1.182-10.234-2.625l-1-2-1 2-5 2-2-3c-2.937-1.375-2.937-1.375-6-2l-3 3h-2v-2h-2v2c-8.411.549-8.411.549-12 0l-4-4c1-3 1-3 4-5l5.688-.5L889 358v-2c7.264-1.453 13.701-.942 21 0m-8 8 2 1 1 2v-3z"/><path fill="#cf704f" d="M618 354c-.375 2.875-.375 2.875-2 6l-5 3c-.937 4.688-.937 4.688-1 9h2v4c-3 2-3 2-6 2v-3l-4.937-.375L596 374l-1-5c-3.562.188-3.562.188-7 1l2-4v-2h4v-2l-2-1c5.645-2.822 10.688-3.827 17-4v3l3-1v-4c-4.094-.023-4.094-.023-9.5.625l-5.344.602c-5.156.773-5.156.773-9 1.824-5.715 1.305-11.31 1.376-17.156 1.512-15.666.417-15.666.417-21 1.437l1 2c-4.875 1.688-4.875 1.688-10 3l-1-1-2 3-5 1 6 3c-4.366 1.455-6.77-.212-11-1.875l-4.312-1.68L520 367l-3-1v-3c4.663-.995 9.223-1.771 13.938-2.437l4.345-.642c4.57-.663 9.142-1.298 13.717-1.921l4.4-.6c48.876-6.545 48.876-6.545 64.6-3.4"/><path fill="#cf6e4d" d="M512 302c2.496.36 4.997.69 7.5 1 7.167.889 7.167.889 10.5 2 1.438 3.563 1.438 3.563 2 7h-4l-.875 3.125L526 318c-3.125-.812-3.125-.812-6-2v3c-6.097.452-6.097.452-9-1l1 4-2 3c-5.168-2.067-8.777-4.602-13.191-7.902-2.483-1.854-5.018-3.638-7.559-5.41L486 309l1-3 2 1v-3l3-2 2-2c6.26-1.832 11.97-.01 18 2"/><path fill="#d1704d" d="m659 582 5 2 2-1v2l5 1v4h3l5 1-2 2 3 1c-2 5-2 5-4 6l-.5 3.063L675 606h-2v2h-2v5q-1.486 4.005-3 8c-1.41 4.98-2.714 9.986-4 15l4-2v-2c8.328-1.448 8.328-1.448 12 1-3.496 2.38-6.95 4.489-10.625 6.563-.519.3-.519.3-3.145 1.826-7.686 4.43-7.686 4.43-11.23 5.611l-1-2a239 239 0 0 1 4.188-9.812c2.757-6.225 5.351-12.389 7.25-18.938L667 611l2-1-1-2a742 742 0 0 0-4 6l-4 3c0-6 0-6 1-8h2c.875-2.937.875-2.937 1-6l-4-1c-2.188-4.376-2.236-6.203-2-11l.188-5.062zm11 21 1 2Z"/><path fill="#d18468" d="M460 292c8.869-.509 17.262.765 26 2.188q4.423.695 8.848 1.386l4.582.72c7.327 1.132 14.667 2.17 22.007 3.206l8.672 1.234 4.377.623L539 302l4.85.69q7.17 1.023 14.337 2.06l4.504.639 4.102.595 3.641.523L573 307v1a303 303 0 0 1-10.687-.312l-3.173-.145c-7.518-.381-14.773-.997-22.14-2.543v-2c-2.887-.379-2.887-.379-6.687-.562-4.283-.218-8.086-.593-12.313-1.438a315 315 0 0 0-8.875-.687l-4.68-.325c-4.281.012-7.468.458-11.445 2.012v2h-4v3h-2v2c3.739 2.991 7.6 5.725 11.543 8.441l3.77 2.622 3.613 2.472C509 325 509 325 512 330c-9.798-4.899-18.602-12.139-27.312-18.75-5.73-4.345-11.686-8.295-17.688-12.25-2.375-1.607-4.731-3.247-7-5z"/><path fill="#d17150" d="m606 594 4 2v-2h4l-1 5c3.775 1.888 7.856 1.787 12 2v-3h2c-1.077 5.385-1.824 6.307-5.586 9.977l-2.82 2.78-2.969 2.868-2.945 2.89a1431 1431 0 0 1-5.428 5.296A517 517 0 0 0 602 627h-1v-6h3l-2-5-3-1v-2h-3v2h-2c-1.027-2.809-1.027-2.809-1.937-6.437l-.965-3.622L591 602l5-1v-3c6.097-.452 6.097-.452 9 1z"/><path fill="#d38e76" d="m573 290 1 4 4-2-1 4 1 3h5l3 2c4.99 1.996 7.122 2.16 12.313 1.75l3.8-.266L605 302v-2c4-1 4-1 7 0v3h2l-1 4q4.499.514 9 1l1 4c3.543 1.16 3.543 1.16 8.188 2.063l4.914.996c1.616.31 3.233.62 4.898.941q4.034.799 8.063 1.625l3.41.664L655 319l1 2q-5.094-.686-10.187-1.375l-3.048-.411a586 586 0 0 1-16.14-2.401c-4.671-.675-8.924-1.175-13.625-.813l-1 2c-4.084.445-7.873.22-12 0l1-3h-7v-3a398 398 0 0 0-10 0c-3.312-.937-3.312-.937-6-2l-5-1v-1c5.359-.196 10.396.222 15.684 1.059 1.422.22 2.845.442 4.31.67 1.466.233 2.933.467 4.443.709 17.81 2.801 17.81 2.801 25.563 3.562-5.97-2.39-11.858-4.007-18.125-5.437-12.13-2.833-24.195-5.917-36.251-9.048q-3.195-.83-6.388-1.653-4.528-1.169-9.052-2.35l-5.358-1.392L544 293v-1c2.668.039 5.336.158 8 .313l4.5.238 3.5.449v2q4.016-.376 8-1l-3-2c3-1 3-1 8 0z"/><path fill="#ce6d4c" d="M612 355v4h-2l-1 2-2-3c-7.459.459-7.459.459-9 2-4.535.248-9.07.385-13.61.523C580 361 580 361 575 364h-2v-2l-4 1-.312 3.5L568 370c-3.435 1-5.717 1.641-9 0v2h5v2h-6v2c-3.034-.249-6.055-.655-9.062-1.125l-5.098-.758c-4.659-1.075-8.008-2.258-11.84-5.117 3-2 3-2 6-2l2-3 2 1 4-2-3-2c9.397-1.5 18.568-2.184 28.063-2.437 8.234-.228 15.79-.886 23.804-2.915 5.52-1.142 11.57-1.722 17.133-.648"/><path fill="#d1704f" d="M751 538h3v2l2.938-.5L760 539l1 2c3.125.012 3.125.012 7-.312l3.875-.301C775 540 775 540 776 539q4.5-.062 9 0c-3.778 1.889-7.114 2.96-11.176 4.066l-4.404 1.21-4.732 1.287a2465 2465 0 0 0-40.523 11.48Q719.085 558.53 714 560l-3.132.918C706.378 562.2 702.703 563 698 563q2.99-4.007 6-8l3.563-4.75c2.701-3.34 4.952-5.821 8.437-8.25-2 4-2 4-6 8l-1 5h-2l1 2c4.772-.83 8.658-1.829 13-4h8v-2l4.5-.687L738 549q.062-3.5 0-7c4.16-1.091 6.9-1.367 11 0z"/><path fill="#d08469" d="M635 600c0 4.121-1.417 7.226-3 11l-2 1-2 4-2 1-1.312 2.813c-1.83 3.454-3.674 4.792-6.688 7.187l-2 5h2l-1 2-4-1-1 4h2v2h4v2l5-1v-1q4.997-.53 10-1l5-1c-3.439 2.58-5.933 3.952-9.84 5.523l-3.474 1.407-3.624 1.445-3.517 1.422q-3.5 1.41-7.01 2.8a675 675 0 0 0-7.278 2.94c-1.179.474-2.358.95-3.573 1.44l-3.237 1.322L594 656l-1-2c1.918-2.726 3.944-5.376 6-8a2690 2690 0 0 0 4.313-5.812c4.402-5.868 9.013-11.535 13.687-17.188q3.412-4.152 6.813-8.312l3.269-3.989c2.486-3.151 4.735-6.336 6.918-9.699z"/><path fill="#ce7254" d="M906 433c2.313 2.063 2.313 2.063 4 5v4h-3l-.375 3.25C906 449 906 449 903.5 451.313L901 453l-1 2h-3v-2h-2v2h-2v2h-2v2h-2l-1 4h-3v2h-2v2l-5 1-3-3 1-3 2-1 3-5c4.493-6.214 8.347-11.008 15-15l2.5-2.5c2.5-2.5 2.5-2.5 7.5-5.5"/><path fill="#ce6f4e" d="M596 369v5l4-1c3.25.75 3.25.75 6 2v3h4v3c-5.062.875-5.062.875-10 1l1-3-2 1h-6v2l4 2h-2v2h-5v2c-6.462.43-9.341.395-15-3v-2l-5-1c4-4 4-4 7.438-4.437 4.416-.698 5.712-2.224 8.562-5.563 3.14-3.14 5.71-4.43 10-3"/><path fill="#d99e86" d="m901 432 2 1a246 246 0 0 1-8.687 8.75 1194 1194 0 0 0-5.012 4.86l-2.276 2.186C885 451 885 451 882 456c-2.177 3.401-4.133 6.133-7 9l3 1v2l5-1v-2h2v-2l3-1 1-3h2v-2h2v-2h2v-2h2l1 3c-2.57 2.96-2.57 2.96-6.125 6.375l-3.508 3.398L885 469a154 154 0 0 0-9.187 9.813L872 483h-2v2h-2v2h-2l-1 3-2-1v-4h2l2-4 4-1v-3h2v-2h2v-3c-5-2-5-2-8.875-.562-4.392 2.728-7.627 5.773-11.125 9.562 0-4.045 1.367-4.747 4.19-7.58l2.772-2.799 3.03-3.012 3.08-3.088q3.23-3.233 6.471-6.456c3.322-3.305 6.626-6.625 9.93-9.948q3.133-3.13 6.27-6.258c.995-1.002 1.99-2.004 3.017-3.036l2.79-2.761 2.463-2.456z"/><path fill="#d08a71" d="M979 206c-1.05 4.2-2.384 6.257-4.875 9.75-.808 1.145-1.616 2.29-2.45 3.469-.44.624-.44.624-2.675 3.781a3104 3104 0 0 0-5.687 8.25l-2.786 4.047a597 597 0 0 0-6.152 9.203L952 248h-1c-.187-3.5-.187-3.5 0-7h2v-3h2l-1-5 2-3c-4.04-.473-7.949-.83-12-1 3.428-3.428 6.26-5.591 10.313-8.125 6.662-4.201 13.194-8.568 19.703-13.004C977 206 977 206 979 206"/><path fill="#d0866a" d="m781 466 2 4 2 1a149 149 0 0 1-6 4l-2 2-5 2c-5.275 4.574-9.743 8.589-10.5 15.688L762 498h-2v6l-2 1v-2c-4.375 1.125-4.375 1.125-9 3l-2 4-4 4-1 4 3 1c-8.625 4-8.625 4-12 4l-1 4c-1.253 5.011-2.677 7.15-7 10a201 201 0 0 1-6 3l-3 2c2.02-4.042 4.098-6.427 7.188-9.687 5.946-6.389 11.137-13.08 16.375-20.063C743 508 743 508 745.875 505.625c4.724-3.968 8.299-8.806 12.125-13.625 5.074-6.34 10.196-12.304 16-18q1.913-2.338 3.813-4.687c1.051-1.094 2.103-2.187 3.187-3.313"/><path fill="#d99b83" d="M872 276v3c-2.336 1.824-2.336 1.824-5.375 3.688l-3.023 1.886C861 286 861 286 859 286l-2 4-2 3h-2l-.437 2.813C852 299 852 299 849 302l-2-1-2 5-4 1v2l-6-2v2l-2-1c-4.76 3.235-8.621 7.556-12.637 11.645l-4.435 4.486q-3.482 3.527-6.953 7.065-3.36 3.42-6.737 6.824l-4.061 4.128L795 345l-2-1a224 224 0 0 1 8.563-8.75l2.501-2.46q2.405-2.365 4.817-4.72A702 702 0 0 0 816 321c7-7 7-7 9.395-9.387a604 604 0 0 0 5.148-5.226c9.067-9.255 18.742-16.685 29.457-23.887l2.865-1.929C869.755 276 869.755 276 872 276"/><path fill="#cd6e4d" d="M944 229c2.914-.336 2.914-.336 6.625-.375l3.727-.086L957 229l-2 4 1 2-1 3h-2v3h-2l.125 3.563L951 248l-4-1v2h-6v-2h2v-2c-3.714-.282-7.409-.316-11.133-.363L929 244c2.737-6.842 5.712-9.227 12-13h3z"/><path fill="#ce6d4c" d="m869 368-1 5h2l-2 5-3-1 1-3h-2v2h-2v2h-2v-2c-3 .25-3 .25-6 1v2l-2 1v3c-4 2-4 2-7.125 1.063L842 383l-2 1v-6l-2-3-1-2q3.996-1.015 8-2v-2c16.674-4.43 16.674-4.43 24-1"/><path fill="#daaa94" d="M529 341c2.62-.193 5.249-.238 7.875-.23l4.922.005 5.203.038 5.203.001c9.334.034 9.334.034 12.797.186v1c2.783.117 5.568.157 8.354.174l5.52.04 2.979.016q4.587.026 9.174.065 13.047.105 26.094.182 7.965.048 15.93.12 3.048.024 6.096.037c2.833.012 5.666.037 8.5.063l4.898.031L656 343v2l2 1c-9.707 4.854-26.108 3.402-37 4v-1a152 152 0 0 1 6.5-1.062l3.656-.536L634 347c-4.402-2.201-10.504-1.231-15.402-1.281l-4.15-.055q-4.407-.057-8.815-.11c-7.564-.09-15.128-.197-22.692-.304l-4.481-.063a2530 2530 0 0 1-33.96-.687l-4.226-.107c-9.026-.269-9.026-.269-11.274-1.393z"/><path fill="#cd6c4c" d="M718 299c4.18 0 7.075 1.43 11 3q.562 3.993 1 8l4 2v2l-3.125.875c-3.965 1.151-6.496 2.821-9.875 5.125h-3v2l-5 2c-.523-2.691-.523-2.691-.375-6.562l.102-3.817C713 310 713 310 714 305h2l.75-3.062z"/><path fill="#d0704e" d="M629 570c3.625.75 3.625.75 7 2v2l4-1v5h2v-2l3-1v2l4-1v2l-3 1v2h-3v2h-3l-1 2h-2l.188 3.75C637 593 637 593 634.625 595.313L632 597l-2 3-2-1 1-1 .5-3.5c.5-3.5.5-3.5 1.5-4.5l-3-3-1-4-3-1v-4l4 1v-3h-4v-2h2l1-2z"/><path fill="#d08d77" d="m852 481 2 1a966 966 0 0 1-6.656 6.508c-3 3.19-4.772 6.42-6.344 10.492l1 2c3.438.375 3.438.375 7 0l2-4h2v-2h2v-2h2v-2c3-.625 3-.625 6-1-2.048 4.095-4.075 6.31-7.312 9.5l-2.864 2.844C850 505 850 505 847.355 507.102 845 509 845 509 841.625 512.875c-3.322 3.78-6.734 6.949-10.625 10.125v-5l4-1v-4l4-1v-3h2c0-5 0-5-1-8l-2 1-1 5-1-3-4.5 1.5-4.5 1.5c-1.137-3.41-1.133-6.099-1.125-9.687l-.008-3.575L826 491h1c.25 3.123.386 6.245.523 9.375L828 503h3a201 201 0 0 0 10.5-12.125c3.212-3.694 6.686-6.812 10.5-9.875"/><path fill="#d49982" d="M429 114c4.682 1.873 8.759 4.058 13.125 6.563 7.55 4.329 7.55 4.329 10.875 5.437v2l3 1v3c-3.875.063-3.875.063-8-1a101 101 0 0 1-2-6h-6l-2-1a10221 10221 0 0 0 4.492 9.766A293 293 0 0 0 446 141l4 1q.562 5.495 1 11l3 1c.188 4.063.188 4.063 0 8-3.792-3.792-5.472-7.735-7.812-12.562-5.41-11.046-5.41-11.046-8.438-15.938C429 119.182 429 119.182 429 114"/><path fill="#d59278" d="M578 262c4.5.9 8.15 2.138 12.39 3.836l4.34 1.726 4.52 1.813c17.525 7.01 17.525 7.01 25.75 9.625l2.938 1.125c3.062.875 3.062.875 8.125 1.313C641 282 641 282 646 285l1 4c2.938 1.125 2.938 1.125 6 2l2 2q-4.5.125-9 0v-2c-10.824-1.294-10.824-1.294-16 0h-5l-1-3 4-1-1-5c-6.696-2.854-13.944-4.256-21-6l-2-1v-2h-6l-5-2v-2l-3.062-.437C585.8 267.97 582.7 266.924 579 265z"/><path fill="#da987f" d="M931 355c9.133.269 18.399 2.399 25 9 3 5 3 5 3 8l-3-3c-5.37-1.315-5.37-1.315-8 0v5l-4 1 1-3h-2l-1 4-2 2-3-1-2 4-2 2c-5-1-5-1-7-2v-2h-2v-3l-4-2-2-3c2.648-.477 2.648-.477 6.375-.625 2.21-.098 4.419-.215 6.625-.375v-1h5l-1-3 1-4c4 1 4 1 7 3v-2h4v2h6l-1-3-4 1-1-3-3 1-1-2a88 88 0 0 0-6.062-1.562A167 167 0 0 1 931 356zm-9 19c4.125 3.75 4.125 3.75 9 7 4-2 4-2 8-6v-2c-3.21-.484-3.21-.484-7.375-.75l-4.148-.297C924 372 924 372 922 374"/><path fill="#d7a088" d="m730 460 2 1a690 690 0 0 1-6.61 6.441c-3.225 3.452-5.16 7.418-7.39 11.559l-4 2c0 4 0 4 1 7l-5-1-4 2-1 3h-3v3h-2l1 5-2 4a261 261 0 0 0-1.562 9.563C696.09 522.73 696.09 522.73 695 526c-.268 3.06-.444 6.12-.621 9.188C694 538 694 538 692 541c-.266-9.655.711-19.151 1.688-28.75l.45-5.059.499-4.863.428-4.409c1.736-7.277 7.238-11.405 12.935-15.919h2v-2l3-2.5c3.943-3.45 6.88-6.967 10.008-11.133 2.134-2.536 4.258-4.493 6.992-6.367"/><path fill="#d5967c" d="M454 162c2.938-.062 2.938-.062 6 1l.375 3.75L461 170l4-1.5 4-1.5c1 3.313 1 3.313 1 7l-2-1v-3l-5 1c.737 4.235 1.932 5.932 5 9v2h2l1-3 4 1v2h3c-1 4-1 4-3 9 .813 3.063.813 3.063 2 6l1 4h2v2c-2.668-.309-2.668-.309-6-2-2.676-3.973-2.676-3.973-5.312-9.062l-1.414-2.691a746 746 0 0 1-2.865-5.52c-2.143-4.147-4.38-8.244-6.596-12.352C454 164.257 454 164.257 454 162"/><path fill="#d19b84" d="M960 372c14.037 7.279 14.037 7.279 18 12 2.5 8.894 2.226 17.097 0 26-4-2-4-2-5.766-5.137L970 402c-3.672-.332-3.672-.332-7.75.188-2.415.282-4.832.556-7.25.812v-1a257 257 0 0 1 7-2l3-1v-2l6-1v-2h3c.813-4.5.813-4.5 1-9h-2l-1-4h-6l-5-2c-.812-3.625-.812-3.625-1-7"/><path fill="#cf6b4b" d="M627 623c3.25.063 3.25.063 6 1l-3 4a140 140 0 0 0 7 4l-1 3-3-1v3c-3.191 2.127-5.282 2.422-9 3v1h-6v-2l-3.625-.312L611 638l2-5 5-1h-2l1-5 5-3 4 2z"/><path fill="#d5957c" d="M590 354v1c-2.92.5-5.851.933-8.785 1.34l-5.483.783a5189 5189 0 0 1-11.601 1.617l-5.479.787-5.094.711L550 361l1 2c-4.875 1.688-4.875 1.688-10 3l-1-1-2 3-5 1 6 3c-4.366 1.455-6.77-.212-11-1.875l-4.312-1.68L520 367l-3-1v-3c4.663-.995 9.223-1.771 13.938-2.437l4.314-.64c10.566-1.538 21.152-2.924 31.748-4.236l4.183-.519c12.658-1.506 12.658-1.506 18.817-1.168"/><path fill="#d58a6f" d="m791 345 2 1a374 374 0 0 1-4 6v3l2-5 2-1c1 2 1 2 2 5l3 1v3l3 1-1 3 4-2h5l-2 1-1 2-3-1v2h-2v3h2v-2c3.413.113 6.763.53 10.156.906L816 366v-2c2.694-.532 5.39-1.053 8.102-1.488 2.898-.512 2.898-.512 6.836-1.7C834 360 834 360 838 361a6955 6955 0 0 1-15.562 4.438l-4.448 1.275-4.306 1.22c-.652.187-.652.187-3.952 1.127-3.607.908-7.021 1.663-10.732 1.94-2.512-2.133-2.512-2.133-4.687-5.125l-2.2-2.945L790 360l-2.332-2.555L786 355c.973-4.866 1.661-6.56 5-10"/><path fill="#d1927b" d="M670 605c1.431 5.724-.325 10.293-1.937 15.813-1.458 5.04-2.838 10.083-4.063 15.187l4-2v-2c8.328-1.448 8.328-1.448 12 1-3.496 2.38-6.95 4.489-10.625 6.563-.519.3-.519.3-3.145 1.826-7.686 4.43-7.686 4.43-11.23 5.611l-1-2a239 239 0 0 1 4.188-9.812c2.757-6.225 5.351-12.389 7.25-18.938L667 611l2-1zm46-318c4.82 1.205 5.882 3.139 8.75 7.008 2.8 3.724 5.74 7.32 8.688 10.93l3.378 4.16a891 891 0 0 0 5.836 7.086c1.84 2.226 3.604 4.514 5.348 6.816l-1 2a149 149 0 0 1-5-4l-3-1c-2-2-2-2-3-5-4-4-4-4-6-5l-.875-4-1.125-4-4-1-3.125-.875L718 300l-2 5h-2v5l-2 1c.505-5.754 1.328-11.436 2.313-17.125l.675-4.008zm18 31h2v2h-2z"/><path fill="#d4947d" d="m725 458 2 1-3.664 1.906c-23.089 12.072-23.089 12.072-33.899 19.031C686 482 686 482 681 483c-.892-5.732.7-11.417 2-17h1c-.06 2.022-.148 4.043-.25 6.063L684 478l5-1v-2h4v-3h-2l3-6h5v3l1-2 4-1v-4h2v2c2.938-.25 2.938-.25 6-1l1-2a354 354 0 0 1 10-2z"/><path fill="#d49078" d="M573 308c5.359-.196 10.396.222 15.684 1.059 1.422.22 2.845.442 4.31.67l4.443.709c17.81 2.801 17.81 2.801 25.563 3.562l-4-3c7.182 1.132 14.23 2.809 21.313 4.438l4.228.947 4.01.924 3.677.837L655 319l1 2q-5.094-.686-10.187-1.375l-3.048-.411a586 586 0 0 1-16.14-2.401c-4.671-.675-8.924-1.175-13.625-.813l-1 2c-4.084.445-7.873.22-12 0l1-3h-7v-3a398 398 0 0 0-10 0c-3.312-.937-3.312-.937-6-2l-5-1z"/><path fill="#ce6e4c" d="M516 204h2v4h2v-4h2v4h2v-4h2c.25 4 .25 4 0 8h-2v2l5-2h1v6h2c.813 2.938.813 2.938 1 6l-3 1v-4h-2v2h-5l-2-4a150 150 0 0 0-8-1v-2h-3v-2l-2-1h10l-2-2c-.25-3.625-.25-3.625 0-7"/><path fill="#cf7a5c" d="m947 247 4 1c-2.294 4.964-5.536 9.28-8.75 13.688a383 383 0 0 0-11.656 17.082C929 281 929 281 927 282c2.625-10.75 2.625-10.75 6-13l1 1c1.273-3.979 2.18-7.899 3-12l-2-2-2-4 1-2c6 0 6 0 8 1v-3l5 1zm-12 11c-3.5 1.688-3.5 1.688-7 3v-3c5-1 5-1 7 0"/><path fill="#d28f76" d="M806 397c2.25 2.063 2.25 2.063 5 5l2.875 3 2.125 3c-1.27 6.35-4.722 9.437-9 14l-3.437 3.938C791.59 439.59 791.59 439.59 786 445v-6h4v-4h3v-4h4l.438-2.937L798 425l5-1c1.938-4 1.938-4 3-8l-2-1a149 149 0 0 1 4-5c1-3 1-3-1-8l-2-4z"/><path fill="#d69780" d="m908 352 3.07.192c3.065.206 6.12.466 9.18.745l3.16.264c2.534.224 5.063.506 7.59.799v1l-10 1v1c-2.415.102-4.833.13-7.25.125l-4.078.008C906 357 906 357 902 356a146 146 0 0 0-6.75-.187l-3.547-.043L889 356v2l-5.25.938C878 360 878 360 874 363c-3.233.52-6.489.901-9.75 1.188l-5.234.48L855 365c6.258-4.172 14.274-5.526 21.438-7.625l5.146-1.562c9.17-2.688 16.875-4.492 26.416-3.813"/><path fill="#d38d73" d="M613 225c6.047 2.419 11.423 5.674 17 9l5.125 3.023 5.438 3.227c.88.52 1.762 1.039 2.67 1.574 3.641 2.172 6.755 4.164 9.767 7.176-3.249-.387-5.69-.826-8.562-2.437-4.491-2.042-8.825-2.36-13.708-2.84L628 243l-1-4-4.562-.5L618 238v-4l3-1 1-2h-3v-2h-4v-2l-3-1z"/><path fill="#d28e75" d="M707 594c1.829 5.487-2.458 10.722-4.89 15.68-1.2 2.454-2.362 4.929-3.407 7.453-3.063 7.257-6.892 9.462-13.703 12.867l-5 2v-3l3-.437 3-.563v-4l7-1v-4h2c.044-2.666.04-5.334 0-8l1-4-4-2 3-1v-4l3-1v2l5-1 2-3z"/><path fill="#d08d73" d="M892 325h4c0 4.099-1.676 5.487-4.187 8.688-2.65 3.388-4.915 6.505-6.928 10.321-3.54 4.896-5.744 5.593-11.51 7.143l-5.078 1.412-5.297 1.373-5.297 1.456c-6.213 1.694-12.387 3.344-18.703 4.607l3-4c2.665-.08 5.335-.087 8 0v-2q3.972-1.575 8-3l1-1 4.875-.367 2.984-.25q3.137-.258 6.282-.399c2.984-.289 2.984-.289 7.859-1.984 1.063-5.383 1.063-5.383 1-11l2-4 3 2-1-3h4v-2l2-1z"/><path fill="#ce6d4d" d="M906 433c2.375 2 2.375 2 4 5v4h-3l-1 5-2 1-3-1v2h-2v2c-3 1-3 1-7 0l-2-2c2.367-5.917 5.09-8.029 10-12l3.25-2.75z"/><path fill="#d06c4b" d="M472 237v3h2l-1 4 3.125-.125c3.875.125 3.875.125 7.063 3L485 250l-4 2 2 3c-2.625 1.438-2.625 1.438-6 2l-4-4v-2h-2l-1-3-3-2v-4h-2l-1-4c2-1 2-1 8-1"/><path fill="#d4896e" d="m732 501 5 1c-2.362 4.724-5.5 8.063-9 12l-2 3h-2l-2 4a133 133 0 0 1-4.25 4.75c-3.88 4.225-7.388 8.595-10.75 13.25 0-5.684 1.608-9.478 5-14h2l-1-3-1-3c2.063-2.187 2.063-2.187 5-4h6v-2h2l1-4-2-1h4l1 2 3-3z"/><path fill="#d9a893" d="M646 371q4.5-.125 9 0c-12.087 6.043-26.387 8.515-39.406 12.057-6.938 1.896-13.817 3.908-20.665 6.109-5.805 1.653-8.108 2.162-13.929-.166v-1l3.313-.437C588 387 588 387 591 385c4.203-.38 8.389-.507 12.605-.656L607 384v-2l3.438.125L614 382l1-4a106 106 0 0 1 11.063-1.625c13.996-1.478 13.996-1.478 19.937-3.375z"/><path fill="#d79d86" d="M944 229v2l-3.562 1.625c-5.129 2.745-7.783 5.892-11.438 10.375-3.065 3.28-4.942 4.971-9 7h-6v2l-5 3-4 4c-3.75.25-3.75.25-7 0 4.432-4.432 9.276-7.473 14.563-10.75C931.866 236.134 931.866 236.134 937 231c5-2 5-2 7-2"/><path fill="#d38c72" d="M480 203c3.938-.25 3.938-.25 8 0l1 3c9.474-.474 9.474-.474 11-2h10v4l-4 1 1 5 2 1v2h2v2c-5.475-1.27-10.096-4.174-14.937-6.937-5.278-3.01-10.476-5.69-16.063-8.063z"/><path fill="#d59e8a" d="m718 567 2 2a145 145 0 0 1-4.187 10.375l-1.252 2.906c-1.882 4.297-3.736 7.952-6.561 11.719-1-5-1-5 0-9h2l1-4 1.688-3.812L713 574c-4.437.063-4.437.063-10 1l-3.812-.062C696 575 696 575 691 577l-4-1c7.308-2.563 14.658-4.815 22.125-6.875l4.945-1.367z"/><path fill="#d5a28d" d="M701 299h1c-.561 8.157-1.996 16.115-3.469 24.145l-.728 4.024a9811 9811 0 0 1-2.303 12.644l-1.55 8.552q-1.418 7.815-2.843 15.626l-.576 3.16A609 609 0 0 1 689 375h-1c-.102-2.102-.13-4.208-.125-6.312l-.008-3.551C688 362 688 362 689 359c.269-3.386.445-6.772.621-10.164L690 346l2-1c.258-3.069.51-6.139.656-9.215C693 333 693 333 695 331c1.332-6.658 1.382-13.244 1.621-20.02L697 307h2l1-4z"/><path fill="#d6a18e" d="m635 637 3 1q-4.96 2.13-9.924 4.254-3.96 1.696-7.918 3.398c-3.797 1.629-7.602 3.24-11.408 4.848l-3.95 1.703-3.753 1.578-3.38 1.44L595 656l-2-2c2.694-4.01 4.955-7.304 9-10l2 4c3.375-.75 3.375-.75 7-2h4v-3h3v-2l5-1v-1q4.999-.513 10-1z"/><path fill="#d1947e" d="M979 206c-1.075 4.302-2.572 6.534-5.125 10.125l-2.441 3.457L969 223q-2.034 2.904-4.062 5.813L962 233l-1-4h2l-2.312-2.875L959 223l5-2 1-5h3l1-5c7-5 7-5 10-5"/><path fill="#d49982" d="m566 242 4 3v2l3.313.938C577 249 577 249 580 252c3.249 1.351 6.545 2.475 9.871 3.621C593 257 593 257 597 261l3 1v-2h2v2h2l1 5c-5.72-.932-11.045-4.393-16.187-7l-2.901-1.46c-9.365-4.732-18.65-9.61-27.912-14.54z"/><path fill="#d5977f" d="M499 156c4.387 1.755 7.982 3.682 12 6.125l3.973 2.41A4017 4017 0 0 1 532 175c-3.625 1.813-7.263 0-11-1l-1-2c-3.17-1.24-5.582-2-9-2l-2-1v-2l-4 2-2-1 1-3h2l-1-2-3-1v-2l-3-1z"/><path fill="#d5a089" d="M466 297a228 228 0 0 1 10 3v2l5 1 2 4 4 2a974 974 0 0 1 8 6l3.527 2.441 3.786 2.622 3.613 2.472C509 325 509 325 512 330c-10.837-5.419-20.505-13.574-30.133-20.895-4.079-2.995-8.308-5.742-12.566-8.476C467 299 467 299 466 297"/><path fill="#dda994" d="M820 420h2c.453 3.173.751 6.367 1 9.563l.242 3.064c.266 3.457.513 6.915.758 10.373l.282 3.89q.433 6.054.843 12.11l.266 3.823c.563 8.704 1.016 17.455.609 26.177h-1a430 430 0 0 1-1.062-11.5l-.276-3.324q-.336-4.087-.662-8.176v7c-2.044-4.087-2.23-5.661-2.16-10.078l.033-3.516.064-3.656c.061-4.253.084-8.496.063-12.75h-1c-.075-3.27-.083-6.542-.062-9.812l.027-5.52L820 423z"/><path fill="#d69981" d="M758 337c3.308 3.227 6.35 6.527 9.25 10.125l2.344 2.895L772 353q2.373 2.908 4.75 5.813l2.227 2.734a261 261 0 0 0 5.148 6.015L786 370l-1 2-3-2-4-2-2-4.562-2-4.438-4-1c-5-3-5-3-6.312-5.937C763 349 763 349 763 345l-4-1c-.75-3.562-.75-3.562-1-7"/><path fill="#cf6d4b" d="M832 383c2 2 2 2 3 7h3c0 4 0 4-1 6-4.812 1.312-6.112.955-11-1l-1-3h-2l-1-3h2v-5l3 1z"/><path fill="#d7a08a" d="M707 334c2.582 3.872 2.3 6.433 2 11h-2c-.07 2.437-.026 4.877.063 7.313.096 7.232-.67 12.875-3.063 19.687l-2 2a133 133 0 0 0-1.562 7.125A214 214 0 0 1 699 388h-1c.517-6.96 1.584-13.743 2.848-20.602l.533-2.916a4906 4906 0 0 1 1.682-9.107l1.142-6.223Q705.597 341.575 707 334"/><path fill="#d79d86" d="M457 132c5.959-.066 10.463 3.411 15.375 6.438l2.64 1.616A1390 1390 0 0 1 483 145l4.867 3.02q5.578 3.474 11.133 6.98l-2 1-5-3v2h-5l-.437-2.937L486 149c-3-.625-3-.625-6-1l-1-4-3 1v-2l-2.937-.437L470 142l-1-3-5-1c-4.375-1.375-4.375-1.375-8-3z"/><path fill="#d28e75" d="m895 402 4 1-2 1c1.54 6.933 3.642 12.717 7 19 2 5 2 5 1 10-3.206-1.603-3.381-4.642-4.578-7.828-2.36-5.265-5.567-10.013-8.692-14.852C890 407 890 407 891 403l3 1z"/><path fill="#d2927a" d="M625 598h2c-1.077 5.385-1.824 6.307-5.586 9.977l-2.82 2.78-2.969 2.868-2.945 2.89a1431 1431 0 0 1-5.428 5.296A517 517 0 0 0 602 627h-1v-6h3l-1-3 2.875-.437L609 617l1-4 4-4h2l1-4h2l1-4h5z"/><path fill="#e6beab" d="m643 545 1 2a211 211 0 0 1-8 7c-7.726 6.564-14.514 13.788-21.29 21.328-3.679 3.641-7.298 6.009-11.71 8.672-2.68 2.492-2.68 2.492-4.875 4.875L594 593l-2-1a553 553 0 0 1 7-7l1-3 5-3a130 130 0 0 0 4.688-4.125l2.625-2.406L615 570q2.592-2.315 5.188-4.625a216 216 0 0 0 8.437-8c4.494-4.494 9.077-8.843 14.375-12.375"/><path fill="#dfb8a8" d="m579 603 2 1c-5.37 5.716-11.093 10.843-17 16-7.763 7.29-7.763 7.29-9 11a601 601 0 0 1-8 7l-1 2h6v1c-4.44 1.11-8.413 2-13 2 3.042-6.083 7.164-10.639 12.625-14.687 5.24-3.968 9.638-8.492 14.238-13.172 3.573-3.578 7.285-6.87 11.137-10.141z"/><path fill="#e0b7a4" d="M497 297c12.974.001 25.8 2.36 38.563 4.438q5.845.937 11.69 1.87l5.548.89c5.89.909 11.789 1.686 17.707 2.392L573 307v1a303 303 0 0 1-10.687-.312l-3.173-.145c-7.518-.381-14.773-.997-22.14-2.543v-2c-2.887-.379-2.887-.379-6.687-.562-4.283-.218-8.086-.593-12.313-1.438-3.768-.26-7.536-.442-11.309-.621-3.53-.363-6.41-1.045-9.691-2.379z"/><path fill="#dcae9a" d="M578 262c4.5.9 8.15 2.138 12.39 3.836l4.34 1.726 4.52 1.813c17.787 7.115 17.787 7.115 25.75 9.625 5.79 1.895 5.79 1.895 8 3v2a130 130 0 0 1-15-5 219 219 0 0 0-6.187-1.562C606 276 606 276 604 275v-2h-6l-5-2v-2l-3.062-.437C585.8 267.97 582.7 266.924 579 265z"/><path fill="#cc6f4f" d="M666 455v3l3 1c1.237 4.612 1.234 9.252 1 14l-2 3c-2-3-2-3-2-6h-2l-1-9h-2l-1-2-3-1v-2c5-2 5-2 9-1"/><path fill="#d4987f" d="M681 408h1c-.533 8.68-1.949 17.138-3.5 25.688l-.684 3.896A452 452 0 0 1 676 447h-1c-1.917-12.198-.595-25.198 3-37h2z"/><path fill="#d06c4b" d="M491 230v3c3.094-.033 6.19-.08 9.277-.285L503 233l1 4 2 1-4-.125-4 .125v2h-2v-2l-4-1 1-2-3.625.063C485 235 485 235 480 232v-4c5.388-1.078 6.572-.883 11 2"/><path fill="#d39178" d="M737 445c3.448-.431 5.855-.573 9 1-.187 3.438-.187 3.438-1 7-3 2-3 2-6 2v2l-5 3-2-1a136 136 0 0 1 6-6l-2.406 1.2c-2.823 1.357-5.707 2.586-8.594 3.8v-3h3v-2h3v-2h2l.688-3z"/><path fill="#d59078" d="M617 623c0 3.97-1.523 4.957-4 8a142 142 0 0 0-3.25 6.313l-1.578 3.238L607 643l3-1 1-2h3c1.059 2.875 1.059 2.875 1 6-2.527 1.313-2.527 1.313-5.937 2l-3.403.75-2.66.25v-2l-2-1c3.518-8.794 9.74-15.958 16-23"/><path fill="#ce6b4d" d="m565 628 2 4c-2 3-2 3-5 5l-4.625.5-4.375.5-1 2h-6c1.963-3.926 3.774-6.096 7-9h2v-2h9z"/><path fill="#d0876c" d="m573 290 1 4 4-2-1 4 1 3c-11.721 0-22.799-2.664-34-6v-1c2.668.039 5.336.158 8 .313l4.5.238 3.5.449v2q4.016-.376 8-1l-3-2c3-1 3-1 8 0z"/><path fill="#ce6948" d="M696 526c2.934-.293 2.934-.293 6 1 2.211 5.527 2.565 8.304.688 13.938L701 544l-3-2-2 4c-1.084-4.336-1.092-7.852-.937-12.312l.097-4.426z"/><path fill="#d7a089" d="M817 376v2l-3 .438-3 .562v3q4 .062 8 0l1 2h-2l-1 4c3 3 3 3 8 4 2.813 4.063 2.813 4.063 5 8-4.202-2.1-7.555-4.738-11.18-7.703a300 300 0 0 0-5.953-4.719l-3.054-2.39-2.856-2.208L805 381l1-3c3.753-1.15 7.066-2 11-2"/><path fill="#d5a48f" d="M429 203c4.974.372 9.286 2.14 13.875 4l4.055 1.625L450 210v1c-6.517.241-6.517.241-9-1 .969 4.705 1.844 8.687 4 13-4.545-4.27-8.187-9.078-12-14l-4-4z"/><path fill="#d9a18b" d="M539 180c5.241 2.096 9.673 4.7 14.5 7.625l2.677 1.618A2232 2232 0 0 1 577 202c-3 1-3 1-6 0l-1-2h-3v-2l-5-1v-2h-6l-4-4v-2h-11v-2h4v-3l-3 1v-2h-3z"/><path fill="#dcb6a4" d="M715 542v3l-2.437 2.375C710 550 710 550 709 555l-3 1-1 3c3.05-.293 3.05-.293 7.313-1.187l4.425-.915L721 556q3-.534 6-1.062l4-.938v-2c3.5-.125 3.5-.125 7 0-5.572 3.715-12.471 4.838-18.875 6.625l-4.457 1.273-4.285 1.204-3.925 1.104C703 563 703 563 698 563c11.714-15.714 11.714-15.714 17-21"/><path fill="#d59c86" d="m871 407 3 2c-.947 4.735-2.286 7.973-4.437 12.25l-1.872 3.766C866 428 866 428 864 429c-2.172-1.512-2.172-1.512-4.75-3.687-2.934-2.445-5.693-4.59-8.937-6.625L848 417l1-3 5 1v2c5 2 5 2 8 2l-1 5 2 2 1-3h2v-2h2l-1-4h3v-6z"/><path fill="#ddab95" d="M530 243c8.334 1.321 15.73 4.594 23.438 7.875l7.558 3.18 3.605 1.522c4.446 1.861 8.917 3.65 13.399 5.423-3 1-3 1-8-1-3.698-.55-7.396-.946-11.113-1.34L556 258v-3a348 348 0 0 0-9-2v-2h-4v-3l-5-1a166 166 0 0 1-8-3z"/><path fill="#d6a08c" d="M780.563 538.938 785 539c-6.874 3.437-14.422 5.024-21.812 7.063l-4.971 1.392-4.799 1.33-4.382 1.215c-3.682.912-7.274 1.543-11.036 2l2-1v-2c4-1 4-1 7.75-.937L751 548v-2l6-1v-2c4.016-1.896 7.944-2.23 12.313-2.562 5.623-.433 5.976-1.428 11.25-1.5"/><path fill="#d5957d" d="m896 259 2 1-3 2 2 1v2h-5v2l-4 4h2l-1 3h-3v2l-4-1h3v-2h2l-1-3-3 1v3c-4.331 1.666-6.437 2.14-11 1q4.266-2.846 8.54-5.684a564 564 0 0 0 6.858-4.664l3.227-2.214 2.977-2.067z"/><path fill="#d3967e" d="m775 450 4 2 2-1c-2.104 4.209-4.392 6.728-7.625 10.125-5.094 5.432-9.81 10.994-14.375 16.875 0-3 0-3 1-4l-.187-3.562L760 467h4v-2h2v-2h3v-4h2l1-4h3l-1-4z"/><path fill="#d59b84" d="M523 225c5.438.25 5.438.25 11 1l1 3 3.563 1 3.437 1v3c2.653.426 5.325.74 8 1 4.625.875 4.625.875 8 2l-2 3v2l2 1c-4.175-1.044-7.35-2.592-11.172-4.562l-4.2-2.165L538.25 234l-4.426-2.273c-8.036-4.158-8.036-4.158-10.824-5.727z"/><path fill="#d06b4a" d="M445 214c2.19.012 4.378.109 6.563.25l3.628.203L458 215v3l2 1-2 1-2 4c-6 0-6 0-10-2-1.312-3.562-1.312-3.562-2-7z"/><path fill="#d58b6f" d="M975 388h1a62.6 62.6 0 0 1 1 15l-2 1v-2h-2v3l-3-3c-3.574-.04-3.574-.04-7.687.375-2.436.235-4.873.45-7.313.625v-1a257 257 0 0 1 7-2l3-1v-2l6-1v-2h3c.625-3 .625-3 1-6"/><path fill="#c67356" d="m757 545-3 .375-3 .625v2l-11 1v2c-2 1-2 1-5.625.938L731 552v2c-8.328 3.265-17.074 5-26 5l1-4 2 2c4.786-.82 8.648-1.824 13-4h8v-2c21.41-8.196 21.41-8.196 28-6"/><path fill="#dbb09f" d="M683 508h3c.097 2.864.097 2.864-.293 6.883l-.409 4.45-.486 4.792-.454 4.81q-.454 4.794-.925 9.588a920 920 0 0 0-1.054 11.7C681.44 561.32 681.44 561.32 681 565h-1c-.76-6.673-1.33-13.277-1-20h2c.826-5.434.99-10.953 1.313-16.437l.337-4.745.276-4.502.263-4.173L683 512l-3-1z"/><path fill="#d38f78" d="M654 617h6c-4.235 8.47-10.379 15.838-19 20l-3-1c2-2 2-2 5-3v-5l3-2 4 1c2-3 2-3 2-6h2z"/><path fill="#d19882" d="M924 282h2c-1 3.998-2.116 5.9-4.457 9.21-.7.999-1.401 1.996-2.123 3.024l-2.232 3.141-4.333 6.148-2.045 2.882c-1.473 2.113-2.877 4.273-4.26 6.447L905 315c-1-2-1-2 0-6h2v-4h2v-4h2v-2h3a150 150 0 0 0 1-6h2l1-4 1-2h3l1-4z"/><path fill="#d08f78" d="M925 421h2c2 2 2 2 3 4-1.798 1.625-3.608 3.238-5.465 4.797C918.524 435.02 912.78 440.627 908 447l-2-1 1-4h3l-.562-3.062L909 436l4 1 2-4h2v-2h2v-2h2v-2h2l1-3z"/><path fill="#d0937d" d="M647 348v1l-3.937.438L639 350l-1 2c-2.498.097-5.001.073-7.5 0-6.175-.083-12.065.193-18.187 1-7.522.987-14.73 1.24-22.313 1v-1c13.266-2.265 26.652-3.508 40.059-4.57 2.939-.256 5.875-.58 8.789-1.047C642 347 642 347 647 348"/><path fill="#d48d73" d="M830 400c6.46-.345 9.337-.398 15 3v7l3 2v3l-6-3v-2l-4-2a240 240 0 0 1-8-7z"/><path fill="#be7357" d="M833 306c0 3 0 3-3.425 6.765a711 711 0 0 1-4.747 4.7l-2.527 2.514c-2.677 2.66-5.364 5.31-8.051 7.959l-5.39 5.35q-4.952 4.915-9.918 9.817c-7.93 7.835-7.93 7.835-8.942 12.895l-2-1c1.323-6.617 3.614-8.796 8.666-13.184 4.201-3.7 8.166-7.534 12.115-11.5l2.118-2.122q3.304-3.313 6.601-6.632l4.516-4.529Q827.512 311.52 833 306"/><path fill="#f3cfbd" d="M619 311c7.182 1.132 14.23 2.809 21.313 4.438l4.228.947 4.01.924 3.677.837L655 319l1 2a3298 3298 0 0 1-36.875-5.125l-3.638-.517A392 392 0 0 1 607 314v-1c2.669.092 5.336.25 8 .438l4.5.308 3.5.254z"/><path fill="#d49c85" d="m465 247 4 1v2l4 1c4 4.333 4 4.333 4 7h2v2h2v3l4 1c1.25 4.563 1.25 4.563 2 9-3.624-3.578-7.12-7.247-10.562-11l-2.817-3.062C467 251.518 467 251.518 467 249h-2z"/><path fill="#d49984" d="M670 605c2.138 8.552-2.649 22.385-7 30h-4c.938-3.562.938-3.562 3-9q1.288-3.998 2.563-8c.75-2.354 1.546-4.695 2.437-7l2-1z"/><path fill="#d9a997" d="m827 522 4 1c-4.056 4.802-7.705 6.222-13.695 7.93-1.685.484-3.37.97-5.106 1.468l-5.324 1.477c-1.765.51-3.53 1.02-5.348 1.547-13.11 3.717-13.11 3.717-16.527 2.578l5-1v-2h8v-2c4.721-1.889 7.107-2 12-2v-2h6v-2h8v-2l3-1z"/><path fill="#d4967d" d="M605 267c3.654-.138 6.513-.162 10 1l2 2 1-2 4 1 .375 3 .625 3q2.988.57 6 1l2 5c-5.902-1.637-11.058-4.6-16.375-7.562l-2.809-1.538A331 331 0 0 1 605 268z"/><path fill="#d18b71" d="M701 278c4 2 4 2 5 4-.36 2.886-.811 5.76-1.312 8.625l-.801 4.727L703 299h-2l-1 5-1 3-2 1-.875 3.625L695 315l-4-1 3-1q.063-4.5 0-9l2-1 2 1 .5-5 .5-5 2 1c1.415-5.52 1.81-11.572 0-17"/><path fill="#cd7a5e" d="M891 444c1 3 1 3 1 5l2 3 1-2 4 1v-2h2v-2h5v2a263 263 0 0 1-5 4l-1 2h-3v-2h-2v2h-2v2h-2v2c-3 1-3 1-6 0l-1-3 4-1-1 3h2c.75-2.937.75-2.937 1-6l-2-1c1.375-3.562 1.375-3.562 3-7"/><path fill="#d6957d" d="M676 263c5.473 2.19 10.299 5.07 15.313 8.125l2.822 1.707q3.435 2.08 6.865 4.168c-2 1-2 1-6-.25-4-1.75-4-1.75-6-4.75h-3l-2 3-4-1c-1-4-1-4 0-6l-4-1-1-3z"/><path fill="#d89c86" d="m671 594 4 2c-1.254 6.272-3.503 8.503-8 13l-3 5-4 3c0-6 0-6 1-8h2l2-4h2v-4h2l1-4z"/><path fill="#d6977f" d="M695 399c2.653 5.307 2.433 9.998 2.656 15.86L698 418h2v2h-2l-1 2-1-3-1.875 4.813C692 429 692 429 690 432c.653-7.466 1.736-14.758 3.063-22.125l.564-3.187q.682-3.846 1.373-7.688"/><path fill="#d09782" d="M694 526h1c.074 3.333.083 6.667.063 10l-.028 5.625L695 546l2-5 4 2 2-1c-2.38 4.759-5.344 8.151-9 12h-3c-.588-10.824-.588-10.824 2-16a93 93 0 0 0 .563-6.25z"/><path fill="#d08366" d="M537 218h1c.875 5.625.875 5.625 1 11l-5-2q-3.085-.47-6.187-.812c-6.486-.917-11.166-2.9-16.813-6.188v-1c3.875-.312 3.875-.312 8 0l2 4c3.625.375 3.625.375 7 0v-2h2l1 3 3-2 2-1z"/><path fill="#d9a087" d="M737 516v3l1 1v2l-5 1-1 4c-1.253 5.011-2.677 7.15-7 10a201 201 0 0 1-6 3l-3 2c2.02-4.042 4.098-6.427 7.188-9.687 4.585-4.918 8.766-9.947 12.812-15.313z"/><path fill="#e2b8a4" d="m852 481 2 1c-3.13 3.318-6.467 6.387-9.793 9.508-4.507 4.907-5.913 9.023-7.207 15.492l-1-3-4.5 1.5-4.5 1.5c-1.137-3.41-1.133-6.099-1.125-9.687l-.008-3.575L826 491h1c.25 3.123.386 6.245.523 9.375L828 503h3a201 201 0 0 0 10.5-12.125c3.212-3.694 6.686-6.812 10.5-9.875"/><path fill="#dda792" d="M661 567c0 3.944-1.373 5.141-3.812 8.188l-2.145 2.73L653 580h-3c-4.228 3.435-7.727 6.636-11 11h-2v-6h2l1-3 3 1v-2h3l-1-3h4l-1-3 2.5-.25c4.994-1.07 7.139-4.053 10.5-7.75"/><path fill="#d18164" d="m471 179 4 1v2h3c-1 4-1 4-3 9 .813 3.063.813 3.063 2 6l1 4h2v2c-4.094-.979-5.612-1.417-8-5a256 256 0 0 1 0-8l-1-5 2-2-3-3z"/><path fill="#ce7557" d="m674 590 5 1-2 2 3 1c-2 5-2 5-4 6l-.5 3.063L675 606h-2v2l-3 1c1.084-3.42 2.268-6.564 3.813-9.812L675 596l-3-1a134 134 0 0 0-3 6h-2v4h-2c.903-4.515 1.794-7.981 4-12h5z"/><path fill="#d8a894" d="m881 346 1 2c-3.295 1.221-3.295 1.221-8.04 2.566l-5.136 1.471-5.449 1.526-5.379 1.537c-13.07 3.715-13.07 3.715-18.996 4.9l3-4c2.665-.08 5.335-.087 8 0v-2q3.972-1.575 8-3l1-1c3.118-.54 6.245-1.032 9.375-1.5 9.314-1.396 9.314-1.396 12.625-2.5"/><path fill="#d4a08a" d="M487 273c3.142 1.536 6.086 3.057 9 5l5.125.438c7.27.696 13.14 2.868 19.875 5.562v2c-6.837-.403-13.398-2.215-20-3.937l-3.215-.803c-2.615-.679-5.204-1.46-7.785-2.26v-2h-2z"/><path fill="#d17d60" d="M532 176c3.063.188 3.063.188 6 2l1 5c3.063.625 3.063.625 6 1v3h-8l-1-1-2 2-1-3-3-1c.438-4.187.438-4.187 2-8"/><path fill="#d29780" d="m750 478 5 2 3-2c-2.04 4.081-4.456 6.49-7.7 9.633-3.404 3.503-6.392 7.313-9.417 11.144C739 501 739 501 737 502v-5l4-1v-5h4v-4h3l1-4h3z"/><path fill="#d49c86" d="M805 418h4c-2.39 4.78-5.42 8.021-9 12l-2.285 2.566c-3.801 4.258-7.611 8.463-11.715 12.434v-6h4v-4h3v-4h4l.438-2.937L798 425l5-1a253 253 0 0 0 2-6"/><path fill="#d8a994" d="M539 373c6.452-.365 6.452-.365 10 2 5.021 1.833 10.063 3.296 15.25 4.563C570 381 570 381 575 383l1 2 4 2-2 1a291 291 0 0 1-11.187-4.125c-8.396-3.228-16.795-6.29-25.375-9L539 374z"/><path fill="#d6a48f" d="m791 345 2 1a374 374 0 0 1-4 6v3l2 1v2l4 1v3h3l1.375 3 1.625 3h5v2c-3.207.945-3.207.945-7 1-2.512-2.133-2.512-2.133-4.687-5.125l-2.2-2.945L790 360l-2.332-2.555L786 355c.973-4.866 1.661-6.56 5-10"/><path fill="#d4967f" d="M529 341c6.001-.496 12.043-.324 18.063-.312l5.228-.05 4.932-.001 4.586-.01L565 341l-1 3c-3.111.356-3.111.356-7.246.328l-4.475-.015-4.716-.063-4.706-.016c-11.55-.08-11.55-.08-13.857-1.234z"/><path fill="#d5987d" d="M651 455c5 1.75 5 1.75 10 4v2h2l1 9h2l1 5c-4.697-3.316-7.636-7.375-11-12l-2.875-3.375C651 457 651 457 651 455"/><path fill="#dea990" d="m781 466 2 4 2 1a149 149 0 0 1-6 4l-2 2-5 2a133 133 0 0 0-6.312 6.625l-3.239 3.602L760 492c0-4.462 2.4-5.881 5.438-9.062 4.033-4.24 7.919-8.526 11.687-13z"/><path fill="#d19580" d="M946 403c4-.187 4-.187 8 0v1l-2.445.523c-5.219 2.168-8.589 6.091-12.43 10.102l-2.375 2.43c-1.926 1.973-3.84 3.958-5.75 5.945-1-4-1-4 0-6l2-1 2-3h2l2-4h2l1-4h4z"/><path fill="#d28267" d="M641 579h5v2h-3v2h-3l-1 2h-2l.188 3.75C637 593 637 593 634.625 595.313L632 597l-2 3-2-1 1-1 .25-3.5.75-3.5 5-1a109 109 0 0 0-1-7c3-2 3-2 7-2z"/><path fill="#d8a790" d="m648 376 2 1-3 2-1 3c-7.326 5-7.326 5-10 5v2a716 716 0 0 1-8 4l-1 2h-6c3.806-3.806 7.24-6.157 11.813-8.937 4.15-2.532 8.166-5.047 12.074-7.942z"/><path fill="#daaa94" d="M892 355c-4.189 4.189-8.262 3.968-14 5l-4 3c-3.233.52-6.489.901-9.75 1.188l-5.234.48L855 365c5.49-3.66 12.205-4.864 18.5-6.687l4.363-1.3 4.168-1.212 3.83-1.12C889 354 889 354 892 355"/><path fill="#ce6c4c" d="M870 469c2 1 2 1 5 3v3h-2v2h-2v3l-4 1-1-3h-3c-.062-2.812-.062-2.812 1-6 2.938-1.937 2.938-1.937 6-3"/><path fill="#ce6c4b" d="m849 406 5 3v3h4v6l-2 1-4-3-5-2-3-4 1-3z"/><path fill="#cf8568" d="M454 162c2.938-.062 2.938-.062 6 1l.375 3.75L461 170l4-1.5 4-1.5c1 3.313 1 3.313 1 7l-2-1v-3l-5 1 1 5-3-1v-2l-3-1c-4-7.2-4-7.2-4-10"/><path fill="#d59a82" d="M577 203c5.203 2.081 9.55 4.678 14.313 7.625l4.925 3.04c.621.384.621.384 3.762 2.335-2 1-2 1-6 1v-2l-4.562.125L585 215l1-4h-4l-1-4h-3z"/><path fill="#d49f8a" d="M944 256c0 4.962-3.497 8.49-6.25 12.438l-1.777 2.603c-2.777 4.022-5.505 7.49-8.973 10.959 2.625-10.75 2.625-10.75 6-13l1 1a257 257 0 0 0 2-7l1-2h2v-2h2v-2z"/><path fill="#d4a28c" d="M607 382q4.5-.125 9 0c-4.537 2.269-9.014 3.61-13.875 5.063l-5.305 1.597c-9.835 2.734-9.835 2.734-15.82.34v-1l3.313-.437C588 387 588 387 591 385c4.203-.38 8.389-.507 12.605-.656L607 384z"/><path fill="#c67457" d="m839 352 4 1-1 1 5-1a195 195 0 0 1 7 0l-4 1v2l-3.937-.062L842 356l-1 3c-3.746 1.387-3.746 1.387-8.437 2.688l-4.684 1.324C824 364 824 364 822 364v-2c2.703-1.29 2.703-1.29 6.25-2.625l3.516-1.352C835 357 835 357 839 357l-1-4z"/><path fill="#ca7456" d="m947 396 2 1v3c3.063.293 3.063.293 7 .188l3.938-.083L963 400c-4.284 2.856-7.725 3.004-12.812 2.938L946 403v2l-5-1v-3h2v-3z"/><path fill="#d5967d" d="m651 580 2 3-3 5 1 5c-2.812.688-2.812.688-6 1l-2 2-4 2-3 2c1.165-4.659 2.602-5.733 6-9 2.38-2.99 4.701-6.018 7.012-9.062z"/><path fill="#d59a84" d="M720 517h3c0 4.184-1.769 5.2-4.625 8.188C714.253 529.59 710.52 534.09 707 539c0-5.684 1.608-9.478 5-14h2v-2h3v-4h3z"/><path fill="#c57457" d="M600 354c-6.03 6.03-18.5 5.215-26.375 5.25-2.876-.027-5.753-.09-8.625-.25v-1c3.955-.752 7.9-1.43 11.875-2.062l3.36-.565c6.658-1.07 12.996-1.57 19.765-1.373"/><path fill="#dca891" d="M445 223h2l2.313 2.375C452 228 452 228 457 230l1 4h2c.694 1.99 1.356 3.993 2 6l3 5-1 2c-2.04-2.148-2.04-2.148-4.625-5.375-3.059-3.778-6.121-7.514-9.375-11.125-3-3.5-3-3.5-5-7.5"/><path fill="#cb8c76" d="M895 453h2l1 3c-2.64 2.996-2.64 2.996-6.25 6.438-3.58 3.435-6.77 6.588-9.75 10.562l-2-1 1-5h2v-2h2v-2l3-1 1-3h2v-2h2v-2h2z"/><path fill="#daab95" d="m667 522 2 1-8 8-1 4-4 1v2c-3.75 3.688-3.75 3.688-8 7l-4-1c5.157-5.25 10.454-10.158 16-15l3.875-4z"/><path fill="#d17b5e" d="M785 431c3.125.5 3.125.5 6 2 .125 3.125.125 3.125-1 6h-4v8l-4 3-1-5h2v-6h2q-.459-3.007-1-6z"/><path fill="#d2886e" d="m596 592 1 3-2 1-2 5-3-1-5 3-4-1c8.548-8.71 8.548-8.71 15-10"/><path fill="#d28f74" d="m747 505 3 1a435 435 0 0 1-7 8l-1 4 3 1c-3.312 1.625-3.312 1.625-7 3l-3-2 2-2 2-5c2.472-3.46 4.532-5.399 8-8"/><path fill="#d27759" d="m456 130 3 1-1 3c4.438 2.688 4.438 2.688 9 5l-2 1v2c-3.375.375-3.375.375-7 0l-2-4-3-2-1-4h4z"/><path fill="#d8a791" d="M616 411c2.875 1.063 2.875 1.063 6 3l2 5 2 1v2l3 1c3 5 3 5 3 7l4 1v5c-3.946-3.836-7.553-7.877-11.125-12.062l-3.133-3.66C616 413.414 616 413.414 616 411"/><path fill="#d06c4b" d="m875 388 1 2 4 1c-1.687 3.813-1.687 3.813-4 8l-1 4h-2l-1 2-1-5-.812-3.812L870 393h4z"/><path fill="#cf6949" d="M819 430c.875 4.375.875 4.375 1 9l-4 2-5-2c-.125-3.5-.125-3.5 1-7 5-2 5-2 7-2"/><path fill="#ddae9b" d="M701 299h1c-.572 8.31-2.025 16.44-3.5 24.625l-.684 3.91A466 466 0 0 1 696 337h-1c.211-2.431.432-4.862.684-7.29.537-6.3.707-12.622.937-18.94L697 307h2l1-4z"/><path fill="#d1896e" d="M499 156c11.194 4.478 11.194 4.478 13.688 9.188L513 168l-4 1v-2l-4 2-2-1 1-3h2l-1-2-3-1v-2l-3-1z"/><path fill="#d09580" d="M873 475h4c-1 4-1 4-5 8h-2v2h-2v2h-2l-1 3-2-1v-4h2l2-4 4-1v-3h2z"/><path fill="#dab5a3" d="M542 360c-4.696 3.13-10.03 3.723-15.562 4.5L524 365v2q2.999.51 6 1l1 2c-10.625-2.875-10.625-2.875-14-4v-3c4.2-.95 4.2-.95 9.688-1.687l5.449-.762C537 360 537 360 542 360"/><path fill="#c2785a" d="M623 311c7.37-.273 14.53.231 21.188 3.625C647 316 647 316 650.875 316H654v3c-6.667-.278-12.983-1.82-19.437-3.437l-5.31-1.31C625 313 625 313 623 311"/><path fill="#ce8468" d="M898 309c3.5-.187 3.5-.187 7 1 .73 5.84-3.742 10.52-7 15h-1c-.266-4.603-.105-6.79 2-11z"/></svg>