<svg xmlns="http://www.w3.org/2000/svg" width="1408" height="768"><path fill="#d06943" d="m726.563 118.688 4.732 1.164Q739.65 121.916 748 124l3.422.852a30249 30249 0 0 1 49.606 12.402q3.105.78 6.206 1.567c4.682 1.183 9.33 2.285 14.078 3.179 4.306.919 7.926 1.692 11.688 4-5.739 14.347-12.58 28.24-19.531 42.031-4.046 8.142-7.981 16.337-11.926 24.528A1724 1724 0 0 1 789 238c-6.019 11.982-11.938 24.01-17.812 36.063l-1.33 2.724c-5.074 10.406-10.132 20.821-15.108 31.276a1059 1059 0 0 1-10.586 21.578c-2.797 5.635-5.512 11.308-8.226 16.984C731.71 355.461 727.423 364.26 723 373q-1.91 3.78-3.812 7.563l-2 3.96a361 361 0 0 0-4.813 10.266l-1.352 2.963a413 413 0 0 0-2.61 5.858c-1.214 2.652-1.214 2.652-3.413 6.39-8.516-8.516-13.027-22.02-18.05-32.848a455 455 0 0 0-5.7-11.652c-3.34-6.624-6.564-13.298-9.762-19.992-5.597-11.687-11.276-23.331-16.991-34.96q-4.08-8.304-8.153-16.61l-1.641-3.345a12045 12045 0 0 1-14.765-30.218l-2.316-4.754a9251 9251 0 0 1-10.856-22.375c-6.935-14.342-13.932-28.644-21.091-42.875a655 655 0 0 1-10.288-21.45c-1.27-2.674-2.696-5.272-4.137-7.858-2.943-5.314-5.25-9.937-5.25-16.063 2.419-.995 2.419-.995 6.078-1.77l4.447-1.002L592 141c4.772-1.167 9.534-2.373 14.297-3.574q4.022-1.007 8.044-2.011l4.168-1.042 12.872-3.217c12.159-3.039 24.317-6.077 36.47-9.136l5.002-1.258q4.359-1.095 8.716-2.198c16.769-4.214 28.267-4.042 44.994.124M1003 85c-.977 8.613-2.763 17.04-4.625 25.5l-.788 3.63q-.848 3.903-1.7 7.803c-1.21 5.55-2.409 11.101-3.608 16.653l-3.002 13.883a65418 65418 0 0 0-7.902 36.594l-.718 3.326a19460 19460 0 0 0-8.907 41.459q-.872 4.077-1.75 8.152l-.902 5.148L968 251l-4 1v-2l-4-2-2-4h-2a959 959 0 0 1-7-8l-4-3v-2h-3l-3-5c-2.437-2.375-2.437-2.375-5-4-4.541 1.135-6.482 3.017-10 6h-2v2a103 103 0 0 1-5.125 4.313l-3.047 2.44L911 239c-2.917 2.377-5.7 4.696-8.34 7.375-2.511 2.478-5.09 4.676-7.847 6.875-3.7 2.991-7.298 6.044-10.813 9.25-4.3 3.919-8.76 7.592-13.281 11.25-2.64 2.185-5.186 4.442-7.719 6.75a234 234 0 0 1-10.5 9c-5.338 4.32-10.418 8.885-15.5 13.5-6.737 6-6.737 6-9 6v2c-5.476 5-5.476 5-8 5v2a362 362 0 0 1-6.375 4.95c-2.612 2.04-5.055 4.187-7.5 6.425-3.416 3.12-6.896 6.1-10.5 9-4.06 3.28-7.927 6.698-11.75 10.25-4.763 4.42-9.744 8.385-14.875 12.375-3.031 2.734-6.019 5.513-9.008 8.293-3.462 3.133-7.081 6-10.758 8.875C747 380 747 380 743.437 383.562 734 393 734 393 728 395c1.042-4.168 2.594-7.311 4.563-11.125 3.756-7.393 7.133-14.895 10.382-22.523 1.926-4.079 4.141-7.847 6.498-11.687 2.753-4.712 5-9.662 7.307-14.603 3.619-7.651 7.321-15.22 11.313-22.687 4.212-7.884 8.085-15.89 11.902-23.97 3.373-7.107 6.996-14.047 10.726-20.975 2.715-5.21 5.238-10.494 7.746-15.805 4.19-8.863 8.62-17.56 13.227-26.215 5.223-9.86 10.098-19.872 14.836-29.972a407 407 0 0 1 10.508-20.711c3.476-6.502 6.724-13.119 9.992-19.727l1-2c6.596.429 10.874 4.186 16 8 9.067 6.533 9.067 6.533 13.625 8.813L880 171v2l4 2a755 755 0 0 1 8.246 5.832L895 182c7.963-4.778 14.127-10.842 20-18h2v-2c4-3 4-3 6-3l1-3a338 338 0 0 1 5.3-4.586c3.49-3.12 6.731-6.451 10.013-9.789 5.254-5.307 10.604-10.16 16.464-14.777 2.802-2.33 4.944-5.015 7.223-7.848a300 300 0 0 1 5.473-4.79c4.645-4.063 9.076-8.363 13.55-12.612C985 99 985 99 987 99v-2h2l2-4c7.693-8 7.693-8 12-8m-598 0c4.957 1.24 7.318 3.53 11 7v2l4 2v2l4 2a551 551 0 0 1 7 7l4 3.5c3.836 3.356 7.398 6.898 11 10.5l2 1v2l4 2a484 484 0 0 1 6.656 6.652c1.949 1.952 4.01 3.792 6.094 5.598 5.064 4.468 9.762 9.237 14.492 14.055C482 155 482 155 484 156v2l4 2a131 131 0 0 1 7 6v2h2l3.125 3.625c3.73 4.212 7.08 7.437 11.875 10.375l5-2 5-2v-2h2l1-3c2.668-1.691 2.668-1.691 6.188-3.562 6.596-3.64 12.616-7.744 18.656-12.239 5.808-4.047 5.808-4.047 9.156-5.199 3.533 4.71 5.839 9.755 8.313 15.063 3.216 6.887 6.57 13.627 10.252 20.278 2.256 4.18 4.241 8.48 6.247 12.784 3.095 6.588 6.304 13.088 9.75 19.5 4.019 7.478 7.666 15.093 11.27 22.777 4.19 8.885 8.614 17.644 13.172 26.344 5.89 11.242 11.623 22.517 17.036 33.997 3.653 7.713 7.606 15.243 11.624 22.773 2.958 5.679 5.638 11.467 8.328 17.277 2.81 5.889 5.88 11.626 8.965 17.375a342 342 0 0 1 4.918 9.582C671 374 671 374 674 379a185 185 0 0 1 2.625 6.063c.425 1.022.85 2.044 1.29 3.097C679 391 679 391 680 395c-4.182-2.509-7.508-4.979-11.187-8.125l-3.465-2.96c-3.718-3.237-7.365-6.542-11.008-9.86-2.263-1.988-4.645-3.837-7.028-5.68-4.116-3.222-7.621-6.684-11.312-10.375a688 688 0 0 0-6.488-4.992c-2.923-2.337-5.645-4.836-8.387-7.383A262 262 0 0 0 600 328v-2l-4-2c-5.375-3.96-10.34-8.223-15-13-5.827-5.433-11.853-10.578-18.047-15.586-4.493-3.673-8.893-7.453-13.3-11.226C547 282 547 282 545 281v-2l-4-2a177 177 0 0 1-5.562-5.062 270 270 0 0 0-14.579-12.618A625 625 0 0 1 491.562 234c-4.713-4.27-9.302-8.413-14.562-12-5.819 1.164-7.185 3.188-10.887 7.594-3.06 3.485-6.62 6.363-10.113 9.406l-3.375 3.938L450 246h-2l-2 4h-2v2h-3c-4.543-10.514-5.976-22.902-8.25-34.062q-1.192-5.772-2.387-11.543l-1.2-5.81a2905 2905 0 0 0-5.226-24.46l-.982-4.527-1.962-9.026a9690 9690 0 0 1-3.06-14.15c-.34-1.584-.682-3.167-1.034-4.798l-2.024-9.392a2289 2289 0 0 0-7.061-31.725C405.138 90.7 405.138 90.7 405 85"/><path fill="#d06943" d="M931 257c2.466 1.127 4.9 2.324 7.313 3.563l4.335 2.21L947 265q3.717 1.846 7.438 3.688l3.914 1.976a703 703 0 0 0 7.74 3.843c3.418 1.665 6.82 3.359 10.22 5.055l3.348 1.607c7.733 3.902 7.733 3.902 10.305 7.835L991 293q1.005 3.294 2.016 6.586 1.125 3.892 2.234 7.789l1.2 4.174a3644 3644 0 0 1 8.021 28.429 1821 1821 0 0 0 6.154 21.522l.876 3.007c1.32 4.52 2.664 9.029 4.05 13.528l1.386 4.527 1.215 3.88c1.691 7.098.973 11.186-2.652 17.495-2.954 5.284-5.81 10.577-8.5 16a3355 3355 0 0 1-10.238 20.442 150 150 0 0 0-3.242 7.117c-2.32 5.348-5.173 10.38-8.004 15.473-1.871 3.741-3.245 7.014-4.532 10.937-5.1 14.598-5.1 14.598-11.587 18.766-6.951 3.046-14.343 4.544-21.724 6.192-8.2 1.994-16.206 4.64-24.241 7.205-4.835 1.536-9.683 3.029-14.53 4.529a1908 1908 0 0 0-20.023 6.336l-4.059 1.298q-3.64 1.168-7.27 2.368c-12.748 4.065-20.915-.989-32.55-6.6a277 277 0 0 1-6.625-3.812c-6.078-3.597-12.376-6.55-18.812-9.438-10.286-4.62-20.277-9.662-30.235-14.945-6.044-3.205-12.182-6.212-18.344-9.184-5.579-3.03-6.795-6.332-8.797-12.121a423 423 0 0 0-7.792-20.297l-1.937-4.709a1248 1248 0 0 0-3.922-9.394l-1.817-4.428-1.658-3.966c-1.183-4.131-1.22-6.582-.061-10.706 3.75-3.125 3.75-3.125 8-6l2.316-2.316c3.107-3.107 6.42-5.78 9.871-8.497 1.232-.975 2.463-1.951 3.731-2.957C772 389 772 389 774 389c.789 3.127 1.476 6.279 2.125 9.438C780.306 416.7 788.253 433.154 802 446c4 4 4 4 4 6l4 2 4.75 3.625c20.653 15.04 46.899 22.285 72.277 18.656 27.108-5.089 50.845-18.283 66.961-41.238 6.525-9.87 11.62-19.687 15.012-31.043l.969-3.078c6.334-23.813 1.584-48.213-8.969-69.922l-2.25-4.687c-3.358-5.267-7.29-9.82-11.422-14.493C945 309 945 309 944 306l-4-2-3.125-2.687c-10.418-8.906-21.457-14.588-34.496-18.81L899 281c3.287-5.28 8.14-9.168 13-13h2l1-3c2.328-2.297 2.328-2.297 5.25-4.75l2.89-2.484C926 256 926 256 931 257m-448 0c2.516 2.074 2.516 2.074 5.25 4.688 4.39 4.103 8.9 7.756 13.75 11.312 2.385 1.938 4.735 3.923 7 6v2c-2.213 1.004-4.474 1.9-6.75 2.75-27.801 10.833-47.405 28.961-59.746 56.363-2.503 6.47-4.118 13.1-5.504 19.887l-.586 2.785c-2.657 20.628-.416 44.383 11.149 62.152L450 428l2.313 4.313c11.36 19.814 32.992 34.443 54.687 40.937 26.093 6.851 52.657 4.014 76.719-8.754 6.09-3.729 11.246-7.443 16.281-12.496h2l1-3 3-3h2l2-4 3.25-3.625c10.651-12.427 18.66-29.992 20.105-46.41L634 389c4.86 2.43 8.74 5.64 13 9l3 2v2l4 2c7.615 5.423 7.615 5.423 10 9-.975 16.113-10.92 33.421-16.936 48.314a307 307 0 0 0-2.736 7.237c-2.766 7.184-7.619 8.714-14.265 11.762-6.726 3.112-13.292 6.34-19.779 9.935-7.703 4.11-15.614 7.822-23.471 11.627-32.145 15.598-32.145 15.598-40.001 19.85-7.684 3.483-17.36-1.316-24.875-3.85q-4.12-1.36-8.242-2.71l-4.612-1.516c-8.852-2.872-17.736-5.644-26.62-8.416q-4.605-1.437-9.207-2.878l-2.967-.925q-2.906-.908-5.808-1.827a287 287 0 0 0-14.206-4.085l-5.412-1.428-4.807-1.184c-8.238-3.871-10.08-12.87-13.056-20.906a328 328 0 0 0-4.937-9.375c-3.558-6.674-6.904-13.408-10.125-20.25-3.712-7.882-7.635-15.6-11.758-23.273-3.526-6.635-6.851-13.368-10.18-20.102l-1-2c-.649-7.378 1.478-13.75 3.688-20.687q1.242-4.015 2.476-8.032l1.372-4.453c2.477-8.17 4.825-16.376 7.181-24.58q1.267-4.395 2.551-8.784c2.429-8.34 4.823-16.67 6.92-25.1l.982-3.777a185 185 0 0 0 1.592-6.66c1.61-6.078 3.795-8.782 9.035-11.896A209 209 0 0 1 431 280l3.793-1.977 3.394-1.648c8.448-4.158 16.788-8.51 25.12-12.895 14.741-7.718 14.741-7.718 19.693-6.48"/><path fill="#d16a43" d="M703 434c5.01 2.505 6.857 5.445 10.188 9.938 3.755 5.009 7.502 9.993 11.5 14.812 4.119 4.969 8.047 10.07 11.953 15.207a165 165 0 0 0 5.156 6.305C744 483 744 483 744 485h2c1.568 2.011 3.053 4.088 4.5 6.188 4.313 6.214 8.895 12.085 13.762 17.875 2.175 3.676 1.69 4.862.738 8.937a390 390 0 0 1-4.75 11.938l-1.479 3.589c-4.214 10.202-8.5 20.375-12.783 30.549-5.627 13.392-11.079 26.854-16.526 40.32-2.096 5.167-4.217 10.322-6.337 15.479-2.663 6.5-5.272 13.014-7.812 19.563l-1.684 4.332a892 892 0 0 0-3.29 8.68l-1.589 4.175-1.39 3.727L706 663h-3c-4.301-6.15-6.57-13.397-9.187-20.375-4.884-12.824-10.028-25.524-15.313-38.187-4.985-11.946-9.923-23.903-14.687-35.938-5.905-14.903-12.175-29.647-18.491-44.38-2.003-4.727-3.322-7.908-3.322-13.12 2.055-2.84 2.055-2.84 4.875-5.937 3.981-4.516 7.635-9.052 11.063-14 4.335-6.205 9.12-11.844 14.101-17.536 3.887-4.63 7.326-9.518 10.785-14.472 2.525-3.545 5.297-6.793 8.176-10.055 6.616-8.473 6.616-8.473 9.688-12.687z"/><path fill="#d16943" d="M774 539c5.103.924 9.43 3.807 13.875 6.375 4.043 2.33 8.059 4.592 12.242 6.66 3.58 1.812 6.807 3.792 10.133 6.028 5.738 3.747 11.6 7.108 17.625 10.375 7.608 4.126 14.955 8.51 22.254 13.156 5.256 3.267 10.653 6.25 16.062 9.254 4.61 2.605 9.098 5.381 13.59 8.183 3.41 2.085 6.865 4.065 10.344 6.032 6.097 3.472 12.095 6.953 17.875 10.937v3c-2.747 1.425-2.747 1.425-6.55 2.867l-4.171 1.585c-6.455 2.335-12.943 4.54-19.466 6.673l-8.82 2.914-4.537 1.493c-7.01 2.31-14.015 4.636-21.019 6.968l-4.373 1.456c-15.594 5.201-31.157 10.496-46.72 15.787-16.368 5.564-32.746 11.094-49.16 16.517a738 738 0 0 0-22.467 7.826C718 684 718 684 716 684c1.095-6.41 3.057-12.352 5.313-18.437l1.738-4.747C725 656 725 656 727.414 651.203c2.928-5.891 5.298-11.878 7.649-18.015 4.403-11.36 8.98-22.637 13.664-33.884 2.833-6.81 5.619-13.634 8.336-20.491 3.172-7.98 6.468-15.903 9.812-23.813l1.446-3.423c1.802-4.246 3.615-8.45 5.679-12.577m-140 0c1.429 2.956 2.737 5.97 4 9l1.208 2.883q1.272 3.039 2.533 6.082c1.173 2.828 2.36 5.65 3.548 8.472 5.806 13.803 11.42 27.683 17.033 41.564a3557 3557 0 0 0 11.928 29.124 5806 5806 0 0 1 11.875 28.813l1.4 3.412c1.173 2.877 2.325 5.763 3.475 8.65l1.324 3.28L693 683c-3.928 1.31-5.507.399-9.41-.93l-4.112-1.384-4.54-1.561-4.768-1.615a6368 6368 0 0 1-13.277-4.524c-5.066-1.727-10.138-3.437-15.21-5.15-20.167-6.82-40.3-13.718-60.355-20.862-9.129-3.238-18.306-6.27-27.546-9.177C543.105 634.43 532.558 630.722 522 627l-5.812-2.023c-13.93-4.848-13.93-4.848-16.188-5.977v-3c4.853-4.08 10.249-6.657 15.902-9.41 3.885-1.994 7.489-4.302 11.145-6.684 8.83-5.7 17.926-10.92 27.14-15.968 5.012-2.758 9.867-5.55 14.563-8.813 6.453-4.45 13.352-8.06 20.247-11.764 6.547-3.53 12.771-7.31 19.003-11.361 21.91-13 21.91-13 26-13"/><path fill="#d06943" d="M1028 406h2c.996 3.83 1.842 7.623 2.625 11.5l.77 3.706A2619 2619 0 0 1 1036 434l1.012 5.01a7319 7319 0 0 1 6.087 30.48 829 829 0 0 0 1.806 8.797l.833 3.975.74 3.448c.567 3.575.869 6.68.522 10.29-2.899 3.38-5.693 6.308-8.937 9.313-9.014 8.59-9.014 8.59-10.063 10.687h-2l-2 4a493 493 0 0 1-8 7 618 618 0 0 0-8.34 8.338l-4.915 4.983-2.594 2.636c-4.56 4.628-9.136 9.24-13.71 13.856a6166 6166 0 0 0-17.394 17.613c-4.688 4.77-9.393 9.521-14.11 14.263q-2.69 2.712-5.361 5.445a1001 1001 0 0 1-7.494 7.563l-2.22 2.301c-5.048 4.987-5.048 4.987-9.134 5.06-3.608-1.4-7.029-2.984-10.478-4.745l-3.984-2.012c-3.967-2.14-7.811-4.431-11.663-6.768-4.356-2.566-8.856-4.853-13.353-7.158a1186 1186 0 0 1-26.246-14.008 1020 1020 0 0 0-17.879-9.554 549 549 0 0 1-17.312-9.438c-6.682-3.799-13.482-7.276-20.387-10.648-2.876-1.45-5.665-3.07-8.426-4.727v-2c9.281.38 18.294 1.735 27.434 3.328l4.1.7q6.453 1.104 12.904 2.222l8.455 1.45 4.213.722q4.196.717 8.392 1.427c7 1.187 13.985 2.423 20.958 3.755l4.107.757q3.833.707 7.654 1.478c9.344 1.688 15.087.22 23.088-5.179L926 546q3.712-1.95 7.5-3.75c9.124-4.535 18.175-9.201 27.188-13.953a396 396 0 0 1 12.187-6.156q2.688-1.35 5.375-2.703l4.766-2.317c5.35-4.191 6.864-8.898 8.984-15.121a3099 3099 0 0 1 3.297-8.687q1.73-4.656 3.453-9.313l1.785-4.793c4.337-11.693 4.337-11.693 5.465-16.207a641 641 0 0 1 3.75-8.812 247 247 0 0 0 8.031-21.551c1.739-5.188 3.794-10.232 5.867-15.293 1.105-2.733 2.117-5.503 3.102-8.281z"/><path fill="#d16a43" d="M378 406h2a190 190 0 0 1 3.938 9.938l2.09 5.59a348 348 0 0 1 3.378 9.769c2.177 6.422 4.678 12.705 7.156 19.015 4.103 10.508 8.059 21.051 11.813 31.688 11.133 31.507 11.133 31.507 16.89 34.957l3.985 1.856c10.834 5.178 21.36 10.875 31.895 16.632A968 968 0 0 0 495 553l2 1c6.127.225 11.762-.298 17.785-1.39l5.008-.896 5.27-.964q5.437-.975 10.875-1.945l5.28-.95c8.53-1.525 17.077-2.943 25.63-4.338 3.76-.617 7.52-1.243 11.28-1.869l8.497-1.398 4.05-.676 3.802-.62 3.377-.558C601 538 601 538 607 538c-8.429 8.429-21.203 13.23-31.66 18.688-3.25 1.731-6.402 3.497-9.528 5.437-3.976 2.376-7.913 4.457-12.062 6.5-7.578 3.736-14.992 7.738-22.395 11.807a1000 1000 0 0 1-18.105 9.693c-7.809 4.086-15.52 8.326-23.2 12.648L486 605l-4.207 2.352C478 609 478 609 473 608a149 149 0 0 1-8.351-7.913l-2.51-2.513a2284 2284 0 0 1-8.194-8.273l-5.712-5.737a7464 7464 0 0 1-15.035-15.15c-8.002-8.076-16.022-16.135-24.04-24.196a6605 6605 0 0 1-8.381-8.452l-5.167-5.206-2.337-2.367c-3.334-3.355-6.696-6.55-10.311-9.603L380 516v-2h-2a217 217 0 0 1-4.844-5.598C371 506 371 506 368.281 503.63l-2.781-2.442-2.656-2.207c-4.266-6.895-.022-19.068 1.484-26.75l.7-3.628q.732-3.789 1.472-7.576c.74-3.788 1.47-7.578 2.2-11.368 2.226-11.518 4.518-23.023 7.034-34.482l1.18-5.39z"/><path fill="#d06943" d="M892 331c-4.08 8.161-10.05 14.184-17 20l-1 3 2 4h2v2h2v2h2v2h2a369 369 0 0 1 7 8c3 3 3 3 6 4v-2q3.988-3.514 8-7c2.58-2.917 4.842-5.763 7-9l5-2c6.2 9.299 5.905 21.74 3.875 32.375-3.753 14.776-12.411 25.15-24.875 33.625-12.934 6.36-26.866 8.407-40.937 4.375C840.898 421.313 829.516 411.623 823 398c-4.929-14.452-5.75-28.167.477-42.367 7.2-14.238 18.526-23.502 33.523-28.633 11.3-2.325 25.089-2.607 35 4"/><path fill="#d06a45" d="M558 330c0 5.45-2.428 7.064-6 11l-1 2h-2v2a141 141 0 0 1-5 5l-3 3c1 4 1 4 5 7v2l4 2v2h2l3.188 4.063C559 374 559 374 562.313 374.188c5.006-1.613 7.093-4.289 10.5-8.25 2.03-2.34 4.086-4.66 6.187-6.938h2l1-3 3 1c5.425 12.883 4.988 25.803 1 39-5.995 14.436-16.303 23.157-30.375 29.375-12.862 4.519-27.137 4.145-39.625-1.375-13.355-6.95-23.061-17.678-28-32-3.367-15.151-1.9-28.919 6-42.437 7.412-11.272 17.072-18.313 30-22.563 10.956-2.212 23.94-2.497 34 3"/><path fill="#d06943" d="M993 105c1.311 5.244.698 9.673 0 15h-2v11h-2l-1 5-4 2v2h2c.036 4.363-.055 8.646-.25 13l-.121 3.758c-.126 3.085-.367 6.165-.629 9.242h-2v9h-2v10h-2a149 149 0 0 0-1 8c-.437 3.5-.437 3.5-1 6h-2a783 783 0 0 0-2 9l-2 2 1 2h-2l1 2c.357 9.286.357 9.286-2 14l-2-1 1-3h-2v2h-2l.5 3 .5 3h-2l-2-3a524 524 0 0 0-7 4l-1-3-5 1c-3.477-2.29-6.037-5.037-9-8v-2l-5-1v-2l-5-1v2c-4 2-4 2-10 2l-1-3h2v-2h-2v-2l2-1-3-3-1-5 2-3-4-1 4-1v-5l4-1-1-3-3 2v-5c-5-1-5-1-9 1l-5-1v-2h4c0-3 0-3-1-5l-5 1c3.5-4.875 3.5-4.875 8-6l2 2 3-5h-2l1-3h2l2-4c2.375-3.25 2.375-3.25 5-6h4v-2h2l1-3a141 141 0 0 1 5-5c4-4 4-4 7-9 3.693-4.094 5.795-5.918 11-8q3.509-3.993 7-8h3v-2l2-1 2-4c3.173-3.763 4.98-5.75 9.813-6.937L980 111l1 1 2-4c3.586-.992 5.447-1.184 9 0zm-62 152c2.466 1.127 4.9 2.324 7.313 3.563l4.335 2.21L947 265q3.717 1.846 7.438 3.688l3.914 1.976a703 703 0 0 0 7.74 3.843c3.418 1.665 6.82 3.359 10.22 5.055l3.348 1.607c7.733 3.902 7.733 3.902 10.305 7.835L991 293q1.005 3.294 2.016 6.586 1.125 3.892 2.234 7.789l1.2 4.174a3644 3644 0 0 1 8.021 28.429 1821 1821 0 0 0 6.154 21.522l.876 3.007c1.32 4.52 2.664 9.029 4.05 13.528l1.386 4.527 1.215 3.88c1.691 7.098.973 11.186-2.652 17.495a386 386 0 0 0-9 17l-2.031 4.09L1003 428c-1.559-3.118-.677-5.678 0-9h2c2.436-5.962 3.41-12.426 4.707-18.71L1011 397h5l1-1v-5l-1-1v-5h-3c-1-4-1-4 0-6h-2v-4l-3 1-2-1c0-5 0-5 1-9 .188-4.75.188-4.75 0-9h-2l-.437-4.375L1004 348l-3-2-1-4-2-1 1-5-3-1c-.187-3.562-.187-3.562 0-7l-1.062 3.75C993 336 993 336 989.313 338L986 340c-.312 4.25-.312 4.25 0 8h-2v-6h-2v-2h-4l-1 4h-1l-.437 3-.563 3h-2l-1-4a128 128 0 0 0 0 8h2c1.918 7.782 1.225 16.17 1.25 24.125l.063 4.96c.029 9.176-.466 17.166-3.313 25.915l-2 2-1 5h-3c1.053-5.264 2.527-10.291 4.063-15.43 6.215-23.67 1.406-48.034-9.063-69.57l-2.25-4.687c-3.358-5.267-7.29-9.82-11.422-14.493C945 309 945 309 944 306l-4-2-3.125-2.687c-10.418-8.906-21.457-14.588-34.496-18.81-.558-.247-.558-.247-3.379-1.503 3.287-5.28 8.14-9.168 13-13h2l1-3c2.328-2.297 2.328-2.297 5.25-4.75l2.89-2.484C926 256 926 256 931 257"/><path fill="#d06842" d="M831 472c7.114-1.317 13.818 1.6 20 5v2q4.5.062 9 0l1 1c2.06.1 4.125.13 6.188.133l3.804.004 4.008-.012 4.008.012 3.804-.004 3.52-.004C889 480 889 480 890 479c2.18-.287 4.37-.505 6.563-.687l3.628-.325L903 478v2l3.063-.687L909 479l-1 5h2l.438 5 .562 5h3v5h2c-1.076 4.843-1.864 5.898-6 9-5.627 1.717-11.163 2.39-17 3l-3 1-2-1v-3c-2.028 0-4.012.602-6 1v3h-2v2h-4l1 3c-4.712 1.885-6.92 2.016-12 1l3-1-4-1-1 3-1-2h-4v-2h-4l-3-3-4.625-1-4.375-1-1-3 3-2-4-2 2-1 2 1 1-3 1 2 2-2v-4l-4 2-4-1v-2l-2-1v2l-3.5.438-3.5.562v3c-4.74.774-6.692.2-10.75-2.437L817 495l-3-1-1-2-5-1-5-2v-2a100 100 0 0 1 6-1l3-1 1 2 5 1 2 4 2 1v-4l-2-1 1-4h9l-1.5-3.5-1.5-3.5h2z"/><path fill="#d06c46" d="M483 257c2.516 2.074 2.516 2.074 5.25 4.688 4.39 4.103 8.9 7.756 13.75 11.312 2.385 1.938 4.735 3.923 7 6v2c-2.213 1.004-4.474 1.9-6.75 2.75-27.801 10.833-47.405 28.961-59.746 56.363-2.503 6.47-4.118 13.1-5.504 19.887l-.586 2.785c-1.675 13.004-.944 26.5 2.027 39.23C439 405 439 405 438 408c-5.25-7.876-4.278-17.848-4.187-26.937l.028-4.167c.036-3.966.093-7.93.159-11.896l.09-5.75c.273-8.004 1.02-13.13 4.91-20.25 1.473-3.644 2.062-6.557 2.5-10.5.43-3.87 1.126-6.893 2.5-10.5l1-3 2 1-1-5 1-1-5-1-2-4h6v-2h2l1-4 2.438-2.312C454 294 454 294 454.875 290.375 456 287 456 287 459.563 285.188L463 284l1-2-3-1 1-5h-2v2c-3-.75-3-.75-6-2v-2c-3.5.25-3.5.25-7 1v2h-6l-1 4h-2v2a217 217 0 0 1-7 2c-3.687 1-3.687 1-7 3-2.25 4.625-2.25 4.625-4 10-1.817 5.45-3.675 10.745-6 16l-2 5-2 1q.989-4.502 2-9l.628-2.88c4.225-18.748 4.225-18.748 8.938-23.956 3.08-1.784 6.08-2.981 9.434-4.164a392 392 0 0 0 7.188-3.625l4.039-1.988c7.077-3.539 14.078-7.222 21.08-10.907 14.741-7.718 14.741-7.718 19.693-6.48"/><path fill="#d16b44" d="M957 531c.188 5.375.188 5.375-1 11-4.25 1.438-4.25 1.438-9 2a115 115 0 0 0-5 4l-3-1-2 1h2v2l-4 1-2 4h-1v-5c-2.937-1.062-2.937-1.062-6-1l-1 4c-1.99.39-3.992.719-6 1l-3 3c-4.748 2.374-8.746 2.585-14 3 6.875 3 6.875 3 8 3v5l-5 3-3 3c-7.04 1.32-7.04 1.32-11 0 .813-3.062.813-3.062 2-6l1 3h2c-.25-3-.25-3-1-6h-2v2c-4 0-4 0-7.625-.375L882 567c-1.625 3-1.625 3-2 6h3v4h-2c2 4 2 4 4 5v2c-5.87-1.32-10.983-4.593-16.187-7.5a5529 5529 0 0 0-8.92-4.92c-4.229-2.31-8.497-4.54-12.768-6.768a549 549 0 0 1-17.312-9.437c-6.682-3.799-13.482-7.276-20.387-10.648-2.876-1.45-5.665-3.07-8.426-4.727v-2c9.281.38 18.294 1.735 27.434 3.328l4.1.7q6.453 1.104 12.904 2.222l8.455 1.45 4.213.722q4.196.717 8.392 1.427c7 1.187 13.985 2.423 20.958 3.755l4.107.757q3.833.707 7.654 1.478c9.318 1.683 15.067.244 23.04-5.155L926 546q4.088-2.137 8.25-4.125c6.18-3.059 12.247-6.275 18.273-9.625C955 531 955 531 957 531"/><path fill="#d06943" d="M629 416c3 1 3 1 5 4l3.063-.875L640 419c1.125 4.375 1.125 4.375 1 9l-4 1v5h-5l1 2h3l-1 3-3-1 1 4-1 5 4 2v5h4l1 4 3 1c-.899 4.653-2.702 8.868-5 13-4.39 2.274-7.021 2-12 2l-3 1h-5l-2 4h-3l-1 4h-2l-2 4c-4.686 2.811-6.843 3.292-12 4v2l-2.437-.562c-4.749-.584-8.093 1.007-12.563 2.562l-3-1-1 2v-3h2v-2c5-1 5-1 7-1l1-2h2v-2h2v-4h2v-2h-2c.39-3.43 1.162-6.648 2-10a128 128 0 0 0-8 0v-2l3-3h2l1-3h3l1-3 2.938-1.375C602 456 602 456 604 451l3-1a200 200 0 0 0 3-6c3.286-4.416 7.109-8.109 11-12l2-4h2v-6c1.813-3.437 1.813-3.437 4-6m-35 52 1 2Z"/><path fill="#d06b44" d="M634 389c4.86 2.43 8.74 5.64 13 9l3 2v2l4 2c7.615 5.423 7.615 5.423 10 9-.975 16.113-10.92 33.421-16.936 48.314a307 307 0 0 0-2.736 7.237c-2.766 7.184-7.619 8.714-14.265 11.762-6.747 3.121-13.336 6.356-19.842 9.962-7.316 3.918-14.82 7.474-22.284 11.1l-5.146 2.52-4.889 2.378-4.453 2.17C570 510 570 510 568 510v-3h2v-2c4.173-1.58 8.15-2.866 12.563-3.562L585 501v-2h4v-2c5-3 5-3 8-3v-3l4.75-1.375c5.215-1.614 6.468-2.22 9.25-6.625l2-1 1-3 4-2 1-3c3.563-.125 3.563-.125 7 0v-1h8l5-1c1.188-4.312 1.188-4.312 2-9l2-4-3-3v-2h-4c-1.125-2.937-1.125-2.937-2-6l-2-1c-.312-4.5-.312-4.5 0-9l3-1-3-1v-2h5v-5l3-2c.625-4.25.625-4.25 0-8-3.437.75-3.437.75-7 2l-1-4h-3c-2.664 4.44-3.24 6.222-4 11l-2 1-1.375 2.938C620 435 620 435 616 437c2-5 2-5 4.25-8.437 6.567-10.895 11.98-23.829 13.105-36.598z"/><path fill="#d16a43" d="M462 447c3.775 2.265 6.512 4.222 9.75 7.063 20.957 17.29 43.932 23.603 70.667 22.915 2.527-.057 5.056-.028 7.583.022l-1 2c-4.73.301-9.432.416-14.17.479-6.27.164-11.036 1.223-16.83 3.521l-2-2-1 3-1-2h-6l-2 5h-2v-4h-5l-1 2h-2v3l2 1-4 2 2 3h2l-2 5 2 1v3h5l-1 3h-2v2a292 292 0 0 0 11 4c-5.71 1.427-10.172-.672-15.605-2.445l-3.493-1.112c-3.7-1.18-7.395-2.373-11.09-3.568q-5.46-1.75-10.923-3.495-3.538-1.131-7.072-2.273a416 416 0 0 0-23.978-6.935L436 491l-1-4 2.375.938c11.19 3.28 11.19 3.28 15.625 1.062l1-3 6 2 4-2v2h2c1.775-4.763 2.022-6.888 1-12l4-2v-4l5 1 1-1 3.563.063L484 470v-2l-4-2-2-5-5-1-3-1v-2l-5-2v-4l-3-2z"/><path fill="#d06a44" d="M607 538c-8.429 8.429-21.203 13.23-31.66 18.688-3.25 1.731-6.402 3.497-9.528 5.437-3.976 2.376-7.913 4.457-12.062 6.5-7.578 3.736-14.992 7.738-22.395 11.807a1000 1000 0 0 1-18.105 9.693c-7.809 4.086-15.52 8.326-23.2 12.648L486 605l-4.207 2.352C478 609 478 609 473 608c-3.113-2.723-3.113-2.723-6.312-6.062l-3.239-3.348L461 596h3a101 101 0 0 1 4.125 4.625c2.383 2.496 2.383 2.496 4.875 4.375 5-.312 5-.312 9-2l1-2 4.563-1 4.437-1v-2h3v-2c3.45-3.247 6.565-4.522 11-6l-1-2h4c1-3 1-3 0-6l3-1v-3l4 1v4c3.625-.375 3.625-.375 7-2a253 253 0 0 0-2-6c3.188-.25 3.188-.25 7 0l3-2-3-4v-2h4c-.062-3.375-.062-3.375-1-7l-3-2v-2h5l1-2c-3.437-.125-3.437-.125-7 0l2-1v-2c2.5-.578 5.03-1.016 7.566-1.402l4.854-.76 5.143-.775c10.42-1.603 20.788-3.268 31.116-5.396 4.608-.926 9.236-1.659 13.884-2.355l5.003-.761C601 538 601 538 607 538"/><path fill="#ca6e4c" d="M1003 85c-.977 8.613-2.763 17.04-4.625 25.5l-.788 3.63q-.848 3.903-1.7 7.803c-1.21 5.55-2.409 11.101-3.608 16.653l-3.002 13.883a65418 65418 0 0 0-7.902 36.594l-.718 3.326a19460 19460 0 0 0-8.907 41.459q-.872 4.077-1.75 8.152l-.902 5.148L968 251l-4 1v-2l-4-2-2-4h-2a959 959 0 0 1-7-8l-4-3v-2h-3l-3-5c-2.437-2.375-2.437-2.375-5-4-4.541 1.135-6.482 3.017-10 6h-2v2c-2.875 2.688-2.875 2.688-6 5l-2-1 1-5h3l-.25-4.5.25-4.5c3.25-.5 3.25-.5 7 0l4-1v-2l5 1v2l5 1c4 4 4 4 4 6 3.413 1.706 6.141 3 10 3l1 2 4-2.125 4-1.875 1 4h2l-.5-3-.5-3h2v-2h2l1 4c1-4 1-4 1-10s0-6 1-10h2l1-4.5 1-4.5h2c.402-2.992.727-5.994 1-9l1-5h2v-10h2v-9h2c.124-2.83.12-5.667.063-8.5-.091-4.817-.088-9.315.558-14.094L986 140h-2v-2l4-3 1-4h2v-11h2c.195-3.062.195-3.062.125-7l-.055-3.937L993 106l-1 2h-5l-4 1-2 4-1-2c-6.175 1.674-9.91 4.092-14 9v3h-3v2l-3 1-3.312 3.875c-3.423 3.828-5.235 5.04-9.688 7.125-3.91 3.526-6.262 6.436-9 11-2.885 3.486-5.8 6.8-9 10h-2v2h-4l-2 4c-2.536 3.186-5.12 6.12-8 9h2l-2 5h-3v-2c-3.854 2.453-6.727 4.727-10 8h-6l-1-2 5-1c3.191-2.547 3.191-2.547 6.563-5.75l3.378-3.172C911 169 911 169 913.277 166.11L915 164h2v-2c4-3 4-3 6-3l1-3a338 338 0 0 1 5.3-4.586c3.49-3.12 6.731-6.451 10.013-9.789 5.254-5.307 10.604-10.16 16.464-14.777 2.802-2.33 4.944-5.015 7.223-7.848a300 300 0 0 1 5.473-4.79c4.645-4.063 9.076-8.363 13.55-12.612C985 99 985 99 987 99v-2h2l2-4c7.693-8 7.693-8 12-8"/><path fill="#ce6c45" d="m674 591 4 1c1.563 3.25 1.563 3.25 3 7l3 5c1.148 4.465 1.985 8.512 2.125 13.125L687 620c4.28 0 7.86-.965 12-2h4l1-4h2l-.312-3.812L706 606c3.25-1.687 3.25-1.687 7-3l2.313-2.937L717 598l2 4a172 172 0 0 0 7-2l1 3h-2l.438 5.188c.156 9.625-4.244 17.417-8.189 25.992-2.072 4.678-3.846 9.462-5.624 14.258A649 649 0 0 1 708 658l-1.414 3.91L705 664c-4.24-3.403-6.045-6.792-7.875-11.836l-1.529-4.123-1.596-4.416a824 824 0 0 0-16.037-40.062l-1.576-3.684-1.4-3.232C674 594 674 594 674 591"/><path fill="#d16a44" d="M1025 516v3c-2.19 2.007-4.393 4-6.633 5.952-4.09 3.703-7.97 7.594-11.843 11.521l-2.384 2.417-5.015 5.093c-4.49 4.56-8.999 9.104-13.504 13.65a5991 5991 0 0 0-17.11 17.33q-6.931 7.048-13.904 14.056-2.649 2.67-5.277 5.361a968 968 0 0 1-7.372 7.44l-2.182 2.264c-4.964 4.903-4.964 4.903-9.04 4.967-10.13-3.892-19.478-9.45-28.736-15.051-4.53-2.412-9.075-4.787-13.633-7.145L885 585v-1h8l3-1 2 4 5-1 5.313-.937L913 584v-2l4 1v-3l5 1 3-3c5-1 5-1 8 0v2l4 1v2l5 1v2h3l1-3h5v2l3-2h3v-4h3v-2h2l1-3h2l2-4 3-1 1-4h3v-2h3v-3l3-3h3v-4h2v-2h2v-2h3v-2h4v-4h3v-4h2v-2h2v-2h2v-2h3l1-3 4-1 1-4 1-2h2v-2h3l1-4 4 1z"/><path fill="#d16a43" d="M588 371h1c.835 15.455-2.806 28.743-12.687 40.75-8.778 9.346-21.23 15.673-34.063 16.488-14.294.25-25.87-2.197-37.25-11.238l-3-4h2l1-2 1 3 3.563-.187L513 414v6h4v2c11.597 2.272 24.197 3.155 36 3v-2h-4v-2l-3 2-3-1-1-2h2v-2h2l1-4c4-2 4-2 7-2v-9l3-3h3v-4h2a172 172 0 0 0 2-7l1-1 3.938.125L573 388l2-3-4-3v-3l-2-1 4-1 4 3 5 1 3-3h2q.562-3.491 1-7"/><path fill="#d17452" d="M626 286c3.415 3.415 4.978 8.099 7 12.438 4.319 9.162 8.894 18.14 13.664 27.078 2.958 5.679 5.638 11.467 8.328 17.277 2.81 5.889 5.88 11.626 8.965 17.375a342 342 0 0 1 4.918 9.582C671 374 671 374 674 379a185 185 0 0 1 2.625 6.063c.425 1.022.85 2.044 1.29 3.097C679 391 679 391 680 395c-4.182-2.509-7.508-4.979-11.187-8.125l-3.465-2.96c-3.718-3.237-7.365-6.542-11.008-9.86-2.263-1.988-4.645-3.837-7.028-5.68-4.116-3.222-7.621-6.684-11.312-10.375a240 240 0 0 0-4.812-3.75C627 351 627 351 625 348l4 2c4.063 1.25 4.063 1.25 8 2l3-2v2l3.563.938L647 354l-1 3h2c.688-3 .688-3 1-6h-1v-5h-2l1-5 1 3h3l-2-4v-4h-2v-4c-2.812-.687-2.812-.687-6-1l-3-1v-4l-2 3c-2-2-2-2-3-5l1-2h-2v-4h-2v-2h-2c-.355-8.29-.355-8.29 1-11h2l-1.375-2.625C628 299 628 299 628 293l-2 1a128 128 0 0 1 0-8"/><path fill="#ce6c48" d="M766 316c1.222 4.887.242 5.688-2 10l-.5 3.375L763 332h-3l.563 3.25L761 339l-4 4 5-1v-2h2v2l4 1 1 4-3 5 2.875-1.5C772 349 772 349 774 349v2h2v-2h3a180 180 0 0 0-1-6l2-1-1-3h4l5-2c3.813.375 3.813.375 7 1-8.202 8.291-16.796 15.841-26 23-3.031 2.734-6.019 5.513-9.008 8.293-3.462 3.133-7.081 6-10.758 8.875C747 380 747 380 743.437 383.562 734 393 734 393 728 395c1.042-4.168 2.594-7.311 4.563-11.125 3.756-7.393 7.133-14.895 10.382-22.523 1.917-4.06 4.12-7.808 6.467-11.63 2.914-4.996 5.316-10.241 7.775-15.472l3.106-6.547 1.36-2.886A481 481 0 0 1 766 316"/><path fill="#cf6a44" d="M774 539c2.75.246 2.75.246 6 2l3.805 2.023 4.07 2.352c4.038 2.326 8.048 4.587 12.227 6.652 3.66 1.853 6.986 3.887 10.398 6.16 7.63 4.982 15.517 9.428 23.5 13.813l-2 1-4-2-3.5-.937C821 569 821 569 817 566l-4-1-3-1v-2h-3v2q-3.489.579-7 1c-2 1-2 1-4 4v-5h-2c.188-2.937.188-2.937 1-6l3-1-4-1-1 2v-2l-4-1-1 3h-2v2h-2v8l-2 1c-3.133-3.133-3.645-4.935-5-9h-2l-1 2 4 1-3 1-1 4c-3.421 6.614-3.421 6.614-7 9l-2-3a127 127 0 0 0-5 7l-2 1c-.75 4.563-.75 4.563-1 9h2c.938 4.063.938 4.063 1 8l-5-1-1 4c-3 2-3 2-5 2l-2 2c1.172-5.86 3.323-11.115 5.563-16.625l1.364-3.381c3.31-8.175 6.653-16.336 10.135-24.44a387 387 0 0 0 4-9.796l2.063-5.07 1.82-4.614z"/><path fill="#cd6a45" d="M405 85c4.957 1.24 7.318 3.53 11 7v2l4 2v2l4 2a551 551 0 0 1 7 7l4.188 3.625c3.022 2.676 5.453 5.132 7.812 8.375-4-2-4-2-6-4-2 4-2 4-1 8l-3 1q-.569-4.493-1-9h-2v5h-4l-1 3-2 1 3 2h-2v2c-2 2-2 2-5 3 .25 4.063.25 4.063 1 8h1c.168 2.018.28 4.04.375 6.063 1.29 19.825 1.29 19.825 6.625 26.937.65 3.21 1.18 6.444 1.625 9.688 1.29 9.226 1.29 9.226 2.375 10.312.1 2.853.13 5.708.125 8.563l.008 4.753L432 209h-1a264 264 0 0 1-1.969-8.586l-1.218-5.637-1.313-6.152-1.353-6.279q-2.08-9.67-4.147-19.346l-2.453-11.457q-1.71-7.983-3.414-15.968c-2.377-11.126-4.805-22.24-7.37-33.324C405.144 90.734 405.144 90.734 405 85"/><path fill="#d17756" d="m443 119 5 3v2l4 2a484 484 0 0 1 6.656 6.652c1.949 1.952 4.01 3.792 6.094 5.598 5.064 4.468 9.762 9.237 14.492 14.055C482 155 482 155 484 156v2l4 2a131 131 0 0 1 7 6v2h2l3.125 3.625c3.73 4.212 7.08 7.437 11.875 10.375l5-2 5-2v-2h2l1-3c2.668-1.691 2.668-1.691 6.188-3.562 6.596-3.64 12.616-7.744 18.656-12.239 5.808-4.047 5.808-4.047 9.156-5.199 3.533 4.71 5.839 9.755 8.313 15.063A382 382 0 0 0 579 190c1.424 2.958 2.79 5.949 4 9l-1 2c-1.975-2.222-3.667-4.334-5-7h-3l1-5h-2v-2l-2-1-.437-2.875C570 180 570 180 567 177a169 169 0 0 1-2-6l-2-3-.5-3.187L562 162h-2l-3-4c-4.187 2.063-4.187 2.063-8 5v3l-3 5h-2l-1-2c-5.437.563-5.437.563-11 2l-2 5-4 1-1 3c-2.187 2.188-2.187 2.188-5 4h-6l-1 2c-3.062-1.25-3.062-1.25-6-3v-2c-5 0-5 0-7 1l-3-1v2h-3l-1-3 2-3c-.187-3.625-.187-3.625-1-7l-3-1-1-4-4-1-3-1a506 506 0 0 0-2 6h-3l2-4-5-1v-2h-2l-.375-2.937L472 156l-4-1c-3.437-.875-3.437-.875-6-2l3-3c1-4.25 1-4.25 1-8l-5 1v-5l-3-1v-3h-4l-2-5-3.5-.812L445 127c-1.437-4.125-1.437-4.125-2-8"/><path fill="#d38d72" d="M1028 406h2c.996 3.83 1.842 7.623 2.625 11.5l.766 3.697a2424 2424 0 0 1 1.678 8.209c1.012 4.993 2.04 9.983 3.068 14.973l2.176 10.683 1.059 5.165c3.49 17.36 3.49 17.36 3.628 24.773l-3 1c-.66-3.113-.66-3.113-1.062-7.312-.736-7.486-.736-7.486-2.938-9.688l-2-5-3-3 3-1c-.11-4.219-.11-4.219-.75-9.5l-.61-5.281C1034 441 1034 441 1033 440l.188-4.562L1033 431h-4v-4h-2l-1 2-1-2-1.312 4.438L1022 436l-3 1c-1.717 4.292-2.82 8.667-3.437 13.25L1015 453h-2c-.562 2.844-.562 2.844-1 6.5s-.437 3.656-1 6.5h-2v5l3 1h-2v2h-2l-1 2-2-1c-.418 1.984-.723 3.991-1 6l-1.187 4.875L1002 490h2l-1 5h-4c-2.382 5.53-3.124 10.04-3 16l-2 1v4c-3.833 2.555-7.243 3.9-11.812 4.5L979 521v2c-3.577 1.997-7.188 3.475-11 5l-1 2q-4.989.617-10 1c3.284-2.463 6.115-4.165 9.754-5.96 1.101-.555 2.203-1.11 3.338-1.68a1149 1149 0 0 1 6.953-3.446l3.334-1.687 3.049-1.514c5.351-3.564 6.918-9.932 9.076-15.705l1.994-5.324 2.064-5.559 2.077-5.535c2.671-7.158 5.287-14.236 7.361-21.59a452 452 0 0 1 3.813-9 242 242 0 0 0 7.968-21.363c1.739-5.188 3.794-10.232 5.867-15.293 1.105-2.733 2.117-5.503 3.102-8.281z"/><path fill="#d06d46" d="M909 233h4l1 3c-2.129 2-4.267 3.994-6.508 5.867C905 244 905 244 902.52 246.492c-2.458 2.446-4.999 4.597-7.707 6.758-3.7 2.991-7.298 6.044-10.813 9.25-4.3 3.919-8.76 7.592-13.281 11.25-2.64 2.185-5.186 4.442-7.719 6.75a234 234 0 0 1-10.5 9c-5.338 4.32-10.418 8.885-15.5 13.5-6.737 6-6.737 6-9 6v2l-2-1 1-5c2-1 2-1 6-2v-3h2v-3l4-4h6l1-4 2-3 3 1 .25-3 .75-3q3.51.43 7 1v-5l1-3-5 2-3-1v-8h2l1 2 .375-4.5.625-4.5h2v-2l4 1 1-3 2 1v3h3v-2l4-2 1 4-2 1v4h-2l-1 3 3 1v-2l3-2 1-5a283 283 0 0 1 5-5v-3l4-2v2a626 626 0 0 0 9-2l2 1v-4l2-2h4a150 150 0 0 0-1-6c3 0 3 0 5 1v-5h4z"/><path fill="#d38c72" d="M560 639c3.438-.125 3.438-.125 7 0l1 1 5 .875 5 1.125 1 3c2.979.756 5.985 1.404 9 2l5.563 1.75L598 650v-2l-2-1c3.563-.687 3.563-.687 7-1l-1 3h3l2 3 3.125.438c4.568.663 7.764 2.507 11.875 4.562 5.824 1.482 10.224.423 16-1h4v3l3-1 1-4c4.188-1.437 4.188-1.437 8-1a193 193 0 0 1-2 11l5 1-2 1 1 2 3.063.5 2.937.5v2c3.31.771 6.65 1.422 10 2l3.875.75C679 674 679 674 683 672l1-4-2-1c-1.041-4.165-1.071-7.727-1-12 3.8 5.068 5.652 10.296 7.875 16.188l1.336 3.388c1.048 2.766 1.935 5.592 2.789 8.424-3.928 1.31-5.507.399-9.41-.93l-4.112-1.384-4.54-1.561-4.768-1.615a6368 6368 0 0 1-13.277-4.524c-5.066-1.727-10.138-3.437-15.21-5.15-20.467-6.92-40.915-13.886-61.258-21.17-5.415-1.933-10.809-3.82-16.331-5.424L560 640z"/><path fill="#d2886a" d="M848 153c6.547.089 10.964 4.252 16 8 9.067 6.533 9.067 6.533 13.625 8.813L880 171v2l4 2c5 3 5 3 9 6l-4 2c-5-3-5-3-6-6l-3-1v-2h-5l-1-4-4-1c-1 1-1 1-3 4l-5 1v-2h-2l.438-3.625L860 165c-4.312.688-4.312.688-9 2l-3-2-2 3h-2l1 2.625c1.185 3.998.809 5.672-1 9.375l-3 1-2 3-2-1v2h-3a149 149 0 0 0-1 8 251 251 0 0 1-2 6v3a373 373 0 0 1-2 8l-3-3v3l-3 3 1 3-2 5v3h-5l-2 5-3 5h-2v2l-4 3c3.106-12.423 10.588-24.139 16.559-35.379 5.292-10.018 10.249-20.18 15.066-30.434L842 164l1.691-3.684c1.496-3.066 1.496-3.066 4.309-7.316"/><path fill="#cf7c5b" d="M892 331c-4.08 8.161-10.05 14.184-17 20l-1 3 2 4h2v2h2v2h2v2h2a250 250 0 0 1 6 8h-5l-1-2-2.875-.937C878 368 878 368 875 365h-3v-3l-3-.5-3-.5v-3h3l-.062-3.437L869 351l4-1v-3l3-3h3v-3h2v-2h2v-2h2c1.238-3.469 1.238-3.469 1-7-4.207-.719-4.207-.719-9.812-.5l-5.583.156C866 330 866 330 864 331l-5.125-.125L854 331v3l-3 1h6v3a294 294 0 0 1-7 3l-2 3-3-1-1 3c-4-1-4-1-6-3h-3l-2 4-2 3h-2v2h-2v3.188c0 3.812 0 3.812-2 8.812h-3c.058 4.439.297 8.712.688 13.125l.279 3.75c.465 5.728 1.11 10.69 3.033 16.125.37 1.994.713 3.993 1 6-3.121-3.121-3.816-4.714-5.125-8.812l-1.008-3.083c-3.772-13.509-1.947-26.464 4.32-38.855C832.346 339.703 843.5 331.618 857 327c11.3-2.325 25.089-2.607 35 4"/><path fill="#ce6c49" d="M801 538c9.445.382 18.623 1.787 27.926 3.398l4.201.714q6.593 1.126 13.186 2.263l8.81 1.5 8.553 1.46 3.934.674q5.698.982 11.39 1.991l4.512.798 4.446.806 4.08.736L895 553v1c-2.69-.067-5.377-.206-8.062-.375l-4.536-.273c-2.584-.207-5.167-.47-7.73-.864-6.127-.814-12.313-.847-18.486-1.006-4.712-.162-7.916-.347-12.186-2.482-6 0-6 0-8 1v2l3 .875 3 1.125v4l2 1v3c2.66.38 5.329.703 8 1 4.438 1.438 4.438 1.438 8 3l1 2c2.984.735 5.986 1.397 9 2l4 1v3l4-1v2h-2c3 3 3 3 6.188 5.063L885 582v2c-5.87-1.32-10.983-4.593-16.187-7.5a5529 5529 0 0 0-8.92-4.92c-4.229-2.31-8.497-4.54-12.768-6.768a549 549 0 0 1-17.312-9.437c-6.682-3.799-13.482-7.276-20.387-10.648-2.876-1.45-5.665-3.07-8.426-4.727z"/><path fill="#d26b45" d="M565 557c3 .25 3 .25 6 1-3.168 3.168-5.666 4.45-9.687 6.375-7.322 3.59-14.52 7.367-21.688 11.25l-3.022 1.63c-4.68 2.542-9.302 5.14-13.853 7.905a157 157 0 0 1-12.375 6.653c-7.033 3.463-13.859 7.205-20.656 11.109L486 605l-4.156 2.328C478 609 478 609 473 608c-3.113-2.723-3.113-2.723-6.312-6.062l-3.239-3.348L461 596h3a101 101 0 0 1 4.125 4.625c2.383 2.496 2.383 2.496 4.875 4.375 5-.312 5-.312 9-2l1-2 4.563-1 4.437-1v-2h3v-2c3.45-3.247 6.565-4.522 11-6l-1-2h4c1-3 1-3 0-6l3-1v-3l4 1v4c3.625-.375 3.625-.375 7-2a253 253 0 0 0-2-6c3.188-.25 3.188-.25 7 0l3-2-3-4v-2h4l1-4c4.18-.795 7.71-.369 12 0l-2 4 3-3c3.375-.125 3.375-.125 7 0l5-1v-1l3.5.188L565 561z"/><path fill="#cf6c47" d="M834 573c5.695 2.278 10.796 5.27 16.063 8.375l3.222 1.89c8.441 4.958 16.834 9.996 25.219 15.051a598 598 0 0 0 12.058 6.996c5.951 3.389 11.796 6.8 17.438 10.688v3c-2.688 1.403-2.688 1.403-6.445 2.828l-4.158 1.58a802 802 0 0 1-21.272 7.342l-4.336 1.457c-6.882 2.288-13.653 4.42-20.789 5.793 3.578-3.578 8.939-4.306 13.691-5.781C868 631 868 631 869 629l5-1 2-4c3.117-3.117 6.503-2.65 10.813-3.062 4.819-.472 9.435-.988 14.187-1.938-1-4-1-4-4-6.187-4.505-2.042-8.057-2.813-13-2.813l-1 4-4-4-3 3v-5h-6l-2-2v-5l4-1v-2q-3.518.378-7 1l2-1c.125-2.937.125-2.937-1-6-4-1.25-4-1.25-8-2l-1-2a338 338 0 0 0-10-1l-3-1-1 2c-3.562-.75-3.562-.75-7-2v-2h3l1-4h-2l-1-5-3-1z"/><path fill="#d08467" d="M984 285c5 2 5 2 6.615 5.7l1.408 4.913 1.634 5.59 1.718 6.11q.902 3.128 1.81 6.254a2865 2865 0 0 1 4.805 16.86q1.549 5.474 3.107 10.944 5.86 20.572 11.635 41.169c.71 2.5 1.446 4.994 2.268 7.46.497 5.747-.648 8.973-3.5 13.938a386 386 0 0 0-9 17l-2.031 4.09L1003 428c-1.559-3.118-.677-5.678 0-9h2c2.436-5.962 3.41-12.426 4.707-18.71L1011 397h5l1-1v-5l-1-1v-5h-3c-1-4-1-4 0-6h-2v-4l-3 1-2-1c0-5 0-5 1-9 .188-4.75.188-4.75 0-9h-2l-.437-4.375L1004 348l-3-2-1-4-2-1 1-5-3-1q.431-5.008 1-10h-2c-.921-2.785-1.737-5.605-2.5-8.437A196 196 0 0 0 990 308l-2-1v4h-2v-2l-3-1c1-5 1-5 2-7l-3-2 4-2c-.047-2.82-.047-2.82-.75-6.125l-.672-3.32z"/><path fill="#d16d48" d="M973 205h2c.452 12.617-2.13 24.795-5 37l-.879 4.996L968 251l-4 1v-2l-4-2-2-4h-2a959 959 0 0 1-7-8l-4-3v-2h-3l-3-5c-2.437-2.375-2.437-2.375-5-4-4.541 1.135-6.482 3.017-10 6h-2v2c-2.875 2.688-2.875 2.688-6 5l-2-1 1-5h3l-.25-4.5.25-4.5c3.25-.5 3.25-.5 7 0l4-1v-2l5 1v2l5 1c4 4 4 4 4 6 3.413 1.706 6.141 3 10 3l1 2 4-2.125 4-1.875 1 4h2l-.5-3-.5-3h2v-2h2l1 4c1-4 1-4 1-10s0-6 1-10h2z"/><path fill="#d07857" d="m486 220 .813 3.375L488 227l5 2v-3l-2-1 3-1c.688 2.938.688 2.938 1 6l1-2c4 2 4 2 5 4l3 1 2 5-2 3h2l2.125 2.813c3.358 3.722 6.08 4.887 10.875 6.187v-2c3 1 3 1 4.875 4.063L525 255h-3l4 4v2c1.981.72 3.985 1.38 6 2l4 2v2h2l1-3 5 1 1-2h5v5l2 1-2 3v-2h-2l-2 5c2.375 4.813 2.375 4.813 5 9l-6-3v-2l-4-2a177 177 0 0 1-5.562-5.062 270 270 0 0 0-14.579-12.618c-11.044-8.962-21.74-18.334-32.218-27.949-2.257-2.027-4.598-3.96-6.954-5.871L479 223c2.254-2.254 3.792-3 7-3"/><path fill="#cf7f60" d="M972 489v2c-3.881 1.363-7.746 2.582-11.687 3.75l-7.981 2.422-4.482 1.353c-8.156 2.48-16.292 5.026-24.43 7.565q-4.38 1.364-8.76 2.722c-8.607 2.669-17.207 5.352-25.781 8.122l-4.059 1.298q-3.64 1.168-7.27 2.368c-13.832 4.41-24.111-2.293-36.5-8.616-3.362-1.859-3.362-1.859-8.05-4.984l3-2c5 2 5 2 6 4q4.494 1.026 9 2l3 2v2h4v2l5 1 1-2 5 1-3 1c3.47-.458 6.674-.891 10-2v-2h4v-2l2-2-2-2q5.476-1.131 11-2l1 2h-4v3c9.527-.912 18.748-2.956 28.066-5.098 2.968-.68 5.948-1.305 8.934-1.902v-2h7v-2h6l1-3 3.125-.5L945 496l-1-3a195 195 0 0 1 7 0l4-2c2.996-.364 5.997-.7 9-1 2-1 2-1 8-1"/><path fill="#d06842" d="M837 548c3.565-.42 6.22-.298 9.586.988 4.635 1.374 9.026 1.414 13.851 1.574 13.707.478 13.707.478 17.563 1.438l1 4h-2l-1 4h-4v-2l-3 2v4h-3v-2h-2l-2 5c-4.062-.5-4.062-.5-9-2l-5.062-1.5L844 562v-2l-2-1v-5l-4-1-2-1z"/><path fill="#d19379" d="M378 406h2a190 190 0 0 1 3.938 9.938l2.09 5.59a348 348 0 0 1 3.374 9.757c2.199 6.488 4.723 12.838 7.223 19.215 3.974 10.221 7.914 20.453 11.688 30.75l1.184 3.17c2.62 7.229 2.62 7.229 1.503 10.58l-3-4-2.625-2.562C403 486 403 486 402 483h2c0-6 0-6-2-9-.805-3.111-1.461-6.238-2.121-9.383L399 462l-3-1a380 380 0 0 1-3-9l-2-1c-.645-3.122-1.024-6.25-1.437-9.41L389 439h-2a164 164 0 0 1-2-9l-1-5-5 1-3 5h-2c-.331 5.404-.381 10.797-.46 16.21-.56 5.998-1.938 10.382-4.54 15.79l-2 1c.77-9.04 2.623-17.86 4.375-26.75l.922-4.75q1.322-6.755 2.703-13.5l.825-4.037c.648-3.005 1.399-5.988 2.175-8.963"/><path fill="#d28a72" d="M1025 516v3c-2.19 2.007-4.393 4-6.633 5.952-4.09 3.703-7.97 7.594-11.843 11.521l-2.384 2.417-5.015 5.093c-4.49 4.56-8.999 9.104-13.504 13.65a5991 5991 0 0 0-17.11 17.33q-6.931 7.048-13.904 14.056-2.649 2.67-5.277 5.361a968 968 0 0 1-7.372 7.44l-2.182 2.264c-2.047 2.022-2.047 2.022-5.776 4.916-3.497-.051-3.497-.051-6-1l4-1 1-3h4v-5h3l2-4h3v-2h3l1-5h2v-3c3-2 3-2 6-2v-4h3v-2h2l1-3h2l2-4 3-1 1-4h3v-2h3v-3l3-3h3v-4h2v-2h2v-2h3v-2h4v-4h3v-4h2v-2h2v-2h2v-2h3l1-3 4-1 1-4 1-2h2v-2h3l1-4 4 1z"/><path fill="#d48a6e" d="M607 538c-8.881 8.881-22.829 14.49-34 20h-2v-3h3v-5c-4.581-1.145-8.227-.91-12.937-.625l-4.778.273C552 550 552 550 547 551l-3-1-3 1c-4.016.183-7.976.087-12 0v-1c2.512-.49 5.038-.91 7.566-1.305l4.854-.77 5.143-.8c10.418-1.63 20.786-3.336 31.116-5.46 4.608-.923 9.236-1.657 13.884-2.352l5.003-.762C601 538 601 538 607 538"/><path fill="#d8967b" d="M412 495c2.927 3.902 3.833 6.356 5.188 10.938 1.63 4.618 2.374 6.682 6.125 9.937L428 518a1755 1755 0 0 1 7.313 3.688l4.207 2.078c12.123 6.046 24.011 12.492 35.789 19.183 5.15 2.861 10.396 5.47 15.691 8.051-3.163 1.581-5.695-.048-9-1-5 0-5 0-9 1h-4v-2l4-1-3-1-4 2-4-2 2-2-2.812-.625L458 543a299 299 0 0 1-1-8l-5-1v-2h-4l-3-3c-3.678-1.44-7.103-2.22-11-3v-3c-2.844-.223-2.844-.223-6.5-.062-2.165.09-4.334.13-6.5.062v-2h-4v-2a105 105 0 0 0-5-4l3-1c.313-5.062.313-5.062 0-10h-2v-3h-2c.375-3 .375-3 1-6"/><path fill="#d3957b" d="M558 152c4.549 4.549 6.743 9.311 9.375 15.063A358 358 0 0 0 579 190c1.424 2.958 2.79 5.949 4 9l-1 2c-1.975-2.222-3.667-4.334-5-7h-3l1-5h-2v-2l-2-1-.437-2.875C570 180 570 180 567 177a169 169 0 0 1-2-6l-2-3-.5-3.187L562 162h-2l-3-4c-4.187 2.063-4.187 2.063-8 5v3l-3 5h-2l-1-2c-5.437.563-5.437.563-11 2l-2 5-4 1-1 3c-2.187 2.188-2.187 2.188-5 4h-6l-1 2c-4.025-1.4-5.692-2.476-7.875-6.187L504 177c4 2 4 2 8 5l5-2 5-2v-2h2l1-3c2.668-1.691 2.668-1.691 6.188-3.562 6.613-3.652 12.675-7.762 18.753-12.239C553 155 553 155 558 152"/><path fill="#cf6c47" d="M637 548c2.766 3.688 4.12 6.454 5.754 10.7a873 873 0 0 0 6.648 16.57l3.535 8.543c8.112 19.682 8.112 19.682 11.5 28.187l1.622 4.063C667 619 667 619 666 621c-3.67-3.569-5.595-7.214-7.5-11.875L656 604h-5l-1-4h-2c-.088-5.17.012-10.303.166-15.469.05-2.844-.045-5.69-.166-8.531h-3v-3l-1 2-4-1-1 2-1-1v-5h-2v-5l-2-5 4-1v-4h-2q.378-3.518 1-7"/><path fill="#d18060" d="m814 183 1 2a261 261 0 0 1-5.25 10.688 4634 4634 0 0 0-3.344 6.574l-1.726 3.396c-2.552 5.078-4.996 10.206-7.43 15.342A1233 1233 0 0 1 784 248l-1.594 3.621L781 254c-2-3-2-3-2-7l-2 2c-.125-7.625-.125-7.625 1-11h-2v-4h2v-2h5c-1.187 4.5-1.187 4.5-3 9l4-1 1-5h2v-2h2c.688-4.5.688-4.5 1-9h-1c0-6 0-6 2.688-8.812L794 213l-3-1-1 2v-4l5-1 2-5 5 1c.563-2.437.563-2.437 1-6 1.938-4.375 1.938-4.375 4-8h2l1-3h2z"/><path fill="#d58769" d="M784 134c6.806.53 13.292 2.224 19.875 3.938A391 391 0 0 0 826 143c4.25 1.313 4.25 1.313 7 3-5.036 12.59-10.883 24.9-17 37-1.947-5.84-.467-10.995 2.063-16.437L820 163v-2l-3-1a100 100 0 0 0-1 6l-2 2v-2h-2v-6h2v-2l5-2v2l5 1c.996-2.492.996-2.492 1.438-5.875l.496-3.367L826 147c-2.744-1.372-5.192-1.305-8.25-1.5-3.37-.217-6.6-.472-9.922-1.094C805 144 805 144 801 145l-2-2-3 4-4-1 1-4h2v-2l-3-1-1-2a309 309 0 0 0-7-2z"/><path fill="#d16b46" d="m409 543 5 1v2h4v2h2v-2l3 1-1 4 1 2 3 1 1-3c3.938-.875 3.938-.875 8-1l2 3c5 3 5 3 7 3v4h2c-.125 4.625-.125 4.625-1 9l-4-2c0 3 0 3 2 6l-1 4q-7.054-7.018-14.1-14.044-2.4-2.393-4.8-4.781-3.445-3.427-6.881-6.859l-4.19-4.173C409 544 409 544 409 543"/><path fill="#cf6c48" d="M784 423c2.716 3.134 4.676 6.183 6.75 9.813 3.1 5.279 6.785 9.01 11.25 13.187 4 4 4 4 4 6l4 2 4.75 3.625c5.937 4.403 12.28 7.547 18.941 10.71C837 470 837 470 839 472l-3.312.375C832 473 832 473 829 475v-6c-5.086-1.079-9.795-1-15-1-3.375-2-3.375-2-6-4l1.188 2.875L810 470l-3 2c-3.306-5.904-2.592-8.631-1-15l-2-1v-2l-2.375-2.312C799 449 799 449 797 444h-6v-4h-2v-3h-2c-2.303-5.137-3-8.265-3-14"/><path fill="#ce7251" d="M909 233h4l1 3c-2.129 2-4.267 3.994-6.508 5.867C905 244 905 244 902.52 246.492c-2.458 2.446-4.999 4.597-7.707 6.758-3.7 2.991-7.298 6.044-10.813 9.25-4.382 3.997-8.924 7.751-13.555 11.457-2.26 1.888-4.363 3.96-6.445 6.043l-2-1c.063-3.062.063-3.062 1-6h5v-3h-4v2h-4v-4c4.017-.33 7.164-.279 11 1v-2l3-2 1-5a283 283 0 0 1 5-5v-3l4-2v2a626 626 0 0 0 9-2l2 1v-4l2-2h4a150 150 0 0 0-1-6c3 0 3 0 5 1v-5h4z"/><path fill="#cf6c46" d="M560 639c3.438-.125 3.438-.125 7 0l1 1 5 .875 5 1.125 1 3c2.979.756 5.985 1.404 9 2l5.563 1.75L598 650v-2l-2-1c3.563-.687 3.563-.687 7-1l-1 3h3l2 3 3.125.438c4.568.663 7.764 2.507 11.875 4.562 5.824 1.482 10.224.423 16-1h4v3l3-1 1-4c4.188-1.562 4.188-1.562 8-1 .359 4.523-.42 8.76-2 13l-4 1-4-3c-5-2-5-2-8-1-2.31-.69-4.618-1.389-6.912-2.13-3.38-.952-6.71-1.494-10.178-2.042-10.149-1.861-19.61-5.307-29.285-8.828q-5.23-1.878-10.46-3.75l-4.848-1.742a205 205 0 0 0-10.544-3.383L560 640z"/><path fill="#cf6c45" d="M626 286c3.444 3.444 5.023 8.187 7.063 12.563 4.174 8.877 8.586 17.558 13.355 26.136C648 328 648 328 648 332c-3.572-.202-6.61-.87-10-2v-4l-2 3c-2-2-2-2-3-5l1-2h-2v-4h-2v-2h-2c-.355-8.29-.355-8.29 1-11h2l-1.375-2.625C628 299 628 299 628 293l-2 1a128 128 0 0 1 0-8"/><path fill="#d9977c" d="m463 306 2 1-3.312 3.188C448.11 323.342 440.715 341.806 437 360l-.586 2.785c-1.675 13.004-.944 26.5 2.027 39.23C439 405 439 405 438 408c-5.25-7.876-4.278-17.848-4.187-26.937l.028-4.167c.036-3.966.093-7.93.159-11.896l.09-5.75c.273-8.004 1.02-13.13 4.91-20.25 1.473-3.644 2.062-6.557 2.5-10.5.43-3.87 1.126-6.893 2.5-10.5l1-3 3 1 2-3v2h3v-2h2l3-5z"/><path fill="#d06c46" d="M957 531c.188 5.375.188 5.375-1 11-4.25 1.438-4.25 1.438-9 2a115 115 0 0 0-5 4l-3-1-2 1h2v2l-4 1-2 4h-1v-5c-2.937-1.062-2.937-1.062-6-1l-1 4c-2.937.625-2.937.625-6 1l-2 2c-4.55.91-8.385 1.134-13 1.125l-4.187.008C896 557 896 557 891 556v-1c5.137-1.027 9.63-1.654 14.73-.246 4.654.35 7.116-1.403 11.145-3.692 5.742-3.187 11.483-6.286 17.375-9.187 6.18-3.059 12.247-6.275 18.273-9.625C955 531 955 531 957 531"/><path fill="#cc6e4b" d="M641 472v3a175 175 0 0 1-10.812 5.313c-6.795 3.116-13.43 6.332-19.971 9.962-7.313 3.921-14.817 7.474-22.28 11.1l-5.146 2.52-4.889 2.378-4.453 2.17C570 510 570 510 568 510v-3h2v-2c4.173-1.58 8.15-2.866 12.563-3.562L585 501v-2h4v-2c5-3 5-3 8-3v-3l4.75-1.375c5.215-1.614 6.468-2.22 9.25-6.625l2-1 1-3 4-2 1-3c3.563-.125 3.563-.125 7 0v-1c3.616-.075 7.223.005 10.84.063C640 473 640 473 641 472"/><path fill="#d5997e" d="M774 539c5.105 1.195 9.366 3.77 13.875 6.375 4.038 2.326 8.048 4.587 12.227 6.652 3.66 1.853 6.986 3.887 10.398 6.16 7.63 4.982 15.517 9.428 23.5 13.813l-2 1-4-2-3.5-.937C821 569 821 569 817 566l-4-1-3-1v-2h-3v2h-2l1-4h-2v-2l-3-1v-3a266 266 0 0 0-11-2l-5-2-2 2c-3.625-1.25-3.625-1.25-7-3v-2h-2l-.5 3-.5 3h-2l-1 5c-1.6 2.38-3.258 4.722-5 7-1.64-4.917 1.352-9.044 3.375-13.562.425-.972.85-1.943 1.29-2.944 2.969-6.761 2.969-6.761 4.335-9.494"/><path fill="#cc6c47" d="m779 254 1 2c-1.133 2.68-2.381 5.31-3.672 7.918l-2.44 4.96c-.87 1.753-1.74 3.505-2.638 5.31l-5.27 10.703-2.596 5.26a1503 1503 0 0 0-8.822 18.286C748.4 321.409 748.4 321.409 746 326h-1c-.187-4.5-.187-4.5 0-9h2v-2h2v-6h2l1-5 2 1 1-5h2c.392-2.659.72-5.327 1-8l1-3h2v-5c.875-3.312.875-3.312 2-6h2v-2h2v-3h-2c-1.703-3.407-1.407-6.283-1-10 3.063-1.312 3.063-1.312 6-2l-1-3 2-1 1 3 3-3h2v-2z"/><path fill="#d59077" d="m810 653-9.34 3.113-2.961.988-16.215 5.403c-9.986 3.327-19.971 6.656-29.949 10.008l-4.615 1.547q-4.223 1.417-8.443 2.84l-3.75 1.257-3.232 1.088C729 680 729 680 727 680l1-3 5-1v-1l3.5.063L740 675v-2h5v-2q2.994-1.02 6-2l1-2-1-1-2-5 2-2 2 2c6.09 1.09 10.173.876 16-1q3.057-.533 6.125-1C781 658 781 658 786 656l5.25-.437c6.548-.641 12.412-4.148 18.75-2.563"/><path fill="#d38f74" d="M801 538c9.445.382 18.623 1.787 27.926 3.398l4.201.714q6.593 1.126 13.186 2.263l8.81 1.5 8.553 1.46 3.934.674q5.698.982 11.39 1.991l4.512.798 4.446.806 4.08.736L895 553v1c-2.69-.067-5.377-.206-8.062-.375l-4.536-.273c-2.588-.207-5.175-.471-7.742-.868-6.034-.798-12.13-.805-18.21-.914-5.882-.185-10.172-1.035-15.45-3.57a92 92 0 0 0-6.375-1.062L829 546l-1-2c-4.083-.451-7.871-.217-12 0v3c-5.491-1.126-10.254-4.123-15-7z"/><path fill="#d38d71" d="M746 606h1c.492 9.344.492 9.344-3 14l-1 4h-2c-.396 2.324-.712 4.66-1 7l-1.187 4.75C738 640 738 640 740 643c-2 5-2 5-4 9l-4 1-4 4h-2c-.414 2.957-.414 2.957-.625 6.813l-.227 3.832A144 144 0 0 0 725 674h-2l-1 3h-2v3c3.5.188 3.5.188 7 0-3.677 2.451-6.586 3.626-11 4 .929-6.424 3.064-12.37 5.313-18.437l1.738-4.747C725 656 725 656 727.387 651.27c3.1-6.252 5.612-12.636 8.113-19.145 6.838-17.68 6.838-17.68 10.5-26.125"/><path fill="#d49981" d="M774 389c.86 3.249 1.61 6.526 2.313 9.813 1.819 8.024 3.979 14.877 7.687 22.187v2h-2v-2h-3a127 127 0 0 1-2-6l-2-1-1-5c-2.008.281-4.01.61-6 1l1-4 3-1c0-5 0-5-1-8-4.437 1.063-4.437 1.063-9 3l-2 4c-2.531 2.36-2.531 2.36-5.5 4.75l-2.969 2.422C749 413 749 413 747 413c.273 4.818.505 6.505 4 10 .838 4.116 1 7.782 1 12-2.728-2.728-3.708-5.629-5.187-9.187l-1.668-3.918c-1.247-4.242-1.347-6.66-.145-10.895 3.75-3.125 3.75-3.125 8-6l2.316-2.316c3.107-3.107 6.42-5.78 9.871-8.497 1.232-.975 2.463-1.951 3.731-2.957C772 389 772 389 774 389"/><path fill="#cf8b6d" d="m976 107 2 1c-2.964 3.192-6.14 6.125-9.305 9.117C966 120 966 120 966 123h-3v2l-3 1-3.312 3.875c-3.423 3.828-5.235 5.04-9.688 7.125-3.91 3.526-6.262 6.436-9 11-2.885 3.486-5.8 6.8-9 10h-2v2h-4l-2 4c-2.536 3.186-5.12 6.12-8 9h2l-2 5h-3v-2c-3.854 2.453-6.727 4.727-10 8h-6l-1-2 5-1c3.191-2.547 3.191-2.547 6.563-5.75l3.378-3.172C911 169 911 169 913.277 166.11L915 164h2v-2c4-3 4-3 6-3l1-3a338 338 0 0 1 5.3-4.586c3.49-3.12 6.731-6.451 10.013-9.789 5.254-5.307 10.604-10.16 16.464-14.777 2.802-2.33 4.944-5.015 7.223-7.848a601 601 0 0 1 8-7l2.875-3z"/><path fill="#d7967b" d="m674 591 4 1c1.563 3.25 1.563 3.25 3 7l3 5c1.137 4.423 1.977 8.497 2.188 13.063L687 620c3.438.188 3.438.188 7 0l2 4h2c.088 2.332.08 4.668 0 7v3h-3c0 6.089.988 9.315 3.25 14.875l1.828 4.617L702 657h4l2-2c-1 5-1 5-3 9-4.337-3.233-6.066-6.85-7.875-11.836l-1.529-4.123-1.596-4.416a824 824 0 0 0-16.037-40.062l-1.576-3.684-1.4-3.232C674 594 674 594 674 591"/><path fill="#d48769" d="m676 352 2 4h4c2.7 4.05 3.605 8.305 4.902 12.969C688 372 688 372 691 375l3-1 2 5 2 3v3h-2c.25 2.938.25 2.938 1 6l2 1 2 4 2-2 5 1h3c-.562 2.438-.562 2.438-2 6l-1.937 5.063L705 410c-8.494-8.494-13.011-21.963-18.008-32.77-2.676-5.682-5.54-11.261-8.426-16.84C677 357 677 357 676 352"/><path fill="#ce8d74" d="M916 356c5.774 5.774 5.633 12.937 6.027 20.758-.067 10.388-2.83 19.315-8.027 28.242l-2 1c.91-7.543.91-7.543 1.625-11.187C914 392 914 392 913 387l4-1c2.161-4.322 1.898-9.264 2-14l-5 1v-4h2c1.125-3.125 1.125-3.125 1-6-3.875.438-3.875.438-8 2l-1 3h-2l-1 5-5 1a505 505 0 0 0-2 6l-4-1v-2h-4l-1 2-1-5h2l1-2 3 3 3 1v-2q3.988-3.514 8-7c2.58-2.917 4.842-5.763 7-9z"/><path fill="#ce6c47" d="M926 256c4.822.964 7.974 2.334 12.313 4.563l4.32 2.203L947 265q3.842 1.91 7.688 3.813c6.633 3.32 13.23 6.703 19.812 10.125l2.846 1.47A336 336 0 0 1 984 284v1c-2.476.155-4.957.222-7.437.25l-4.184.078L969 285l-1-3 1-2-2-1v-2a1794 1794 0 0 0-11-1l-3-2v2c-5.437-.375-5.437-.375-11-2-.875-4-.875-4-1-8l-5-2v-2l-5-1v-2q-4.016.376-8 1z"/><path fill="#d36c43" d="M1045 485c2.244 4.488 2.876 6.087 2 11-2.899 3.38-5.693 6.308-8.937 9.313-9.014 8.59-9.014 8.59-10.063 10.687h-2l.688-3.437L1027 509l-5-1-1-2-4-1 1-4 3.625-.375L1025 500q-.459-3.007-1-6c2.875-2 2.875-2 6-3l1 2 3-2v2l3 1v4l-2.937.438L1031 499l-1 5c5-3 5-3 9-6h2v-2h3c.968-3.873 1.076-7.036 1-11"/><path fill="#d28668" d="m675 470 1 3c-1.67 2.506-3.35 5.009-5.14 7.43-1.758 2.43-3.317 4.999-4.86 7.57l2 1-3 3 1 2h-2v4l-3 1-1 2-4 2-1 4h-2v-2h-3v2l-4 2c-.496 3.04-.496 3.04-.437 6.625l.003 3.602L646 522h3c1.998 4.958 3 8.629 3 14l2 1v5c-3.69-3.69-5.14-9.043-7.125-13.812l-1.418-3.315-1.34-3.205-1.23-2.929C642 516 642 516 642 511c2.055-2.84 2.055-2.84 4.875-5.937 3.981-4.516 7.635-9.052 11.063-14 5.204-7.45 11.046-14.261 17.062-21.063"/><path fill="#cf9279" d="M827 403c4.595 1.149 5.41 2.206 8 6v2h4v3c11.805 10.432 26.889 11.529 42 11v-2h6v-2c3-3 3-3 7.125-3.375L898 417l1-5 4 1 1-3 4 2c-8.83 9.46-20.076 15.258-33.043 16.336-16.104.152-29.078-3.373-40.894-14.961C827 405.769 827 405.769 827 403"/><path fill="#d06b45" d="M800 490c5.082-.357 9.326-.103 14 2v2l5 1 2.438 2.063C824 499 824 499 830 499l1-3q3.5-.062 7 0v-2c3 1 3 1 4 3l3-.687 3-.313 1 5h-4l-1 2h-3l3.5.938L848 505v1c-8.364 1.212-8.364 1.212-12 0l-3.316-.16c-6.793-1.218-12.47-4.23-18.621-7.277l-3.768-1.815c-9.156-4.47-9.156-4.47-10.295-6.748"/><path fill="#cf6b46" d="M849 156c9.619.995 17.524 6.24 25 12l3.5 1.75L880 171v2l4 2c5 3 5 3 9 6l-4 2c-5-3-5-3-6-6l-3-1v-2h-5l-1-4-4-1c-1 1-1 1-3 4l-5 1v-2h-2l.438-3.625L860 165c-4.312.688-4.312.688-9 2l-3-2-3 3c.537-4.514 1.177-8.358 4-12"/><path fill="#d48465" d="M634 389c4.86 2.43 8.74 5.64 13 9l3 2v2l4 2 2 3-2 1-1-2-3.5-1.375L646 403l-1-4-5-2v-2h-4c-1.671 4.261-2 7.383-2 12q3.487 1.53 7 3c-1 4-1 4-2 6l1 3c-3.375 1.438-3.375 1.438-7 2l-1-4h-3c-2.664 4.44-3.24 6.222-4 11l-2 1-1.375 2.938C620 435 620 435 616 437c2-5 2-5 4.25-8.437 6.567-10.895 11.98-23.829 13.105-36.598z"/><path fill="#d69277" d="M462 447c3.775 2.265 6.512 4.222 9.75 7.063 20.957 17.29 43.932 23.603 70.667 22.915 2.527-.057 5.056-.028 7.583.022l-1 2c-4.73.301-9.432.416-14.17.479-6.27.164-11.036 1.223-16.83 3.521l-2-2-1 3-1-2-2-1 1-1c-3.749-2.5-7.575-3.166-11.906-4.223C497.2 474.8 493.61 473.772 490 472l-1-5h-6l-3-1-2-5-5-1-3-1v-2l-5-2v-4l-3-2z"/><path fill="#d4896e" d="M558 330c0 5.45-2.428 7.064-6 11l-1 2h-2v2a141 141 0 0 1-5 5l-3 3c1 4 1 4 5 7v2l4 2-1 2-2-2-3.062-.437L541 363l-1-3-3-2v-3h-2l-1-5h-2c.5-3.062.5-3.062 2-6 3.125 0 3.125 0 6 1v2h2l1-3h4v-4l2-1 1-3h2l2-4c-3.375-1.187-3.375-1.187-7-2v-1a315 315 0 0 0-10.062-.125l-5.66-.008c-4.216.106-8.135.409-12.278 1.133 8.165-8.165 29.708-5.077 39 0"/><path fill="#d38263" d="m921 285 3.313.375L927 286l1 4h2l1 2h5v2l5 1 1 3 4 1-1 6 4 1 .875 4 1.125 4c3.125 1.125 3.125 1.125 6 1v-2h2v3h2l1-2v3l-4 3-1-3v3l-1 2c-2.469-2.543-2.469-2.543-5.5-6.187l-3.031-3.606C945 309 945 309 944 306l-4-2-3.125-2.687c-7.67-6.558-15.158-11.165-24.383-15.149L910 285v-1c5.195-1.039 6.303-.725 11 1"/><path fill="#d48567" d="m895 583 3 3 4 1 1-1c2.163-.151 4.332-.222 6.5-.25l3.594-.078L916 586c1.166 3.497.773 5.444 0 9l-1 1 2 1v4l4.938.438L927 602l1 5c-8.15-1.322-16.074-6.99-22.996-11.246-5.433-3.172-11.05-6.008-16.637-8.899L885 585v-1h8z"/><path fill="#cd6d49" d="M984 285c5 2 5 2 6.47 5.11l1.17 3.995 1.305 4.424 1.305 4.659 1.352 4.505c5.581 19.376 5.581 19.376 4.398 28.307l-4-1c.247-3.34.58-6.677 1-10h-2c-.921-2.785-1.737-5.605-2.5-8.437A196 196 0 0 0 990 308l-2-1v4h-2v-2l-3-1c1-5 1-5 2-7l-3-2 4-2c-.047-2.82-.047-2.82-.75-6.125l-.672-3.32z"/><path fill="#d2876a" d="m752 435 1 2h3c2 5 2 5 2 9h2c1.32 2.64 1.443 5.07 1.813 8 .964 6.179 2.08 11.484 5.187 17 6.434 3.64 10.807 4.413 18 3l2 1v2l3 2-1 2a772 772 0 0 0 7 2v2l4 2v3c-7.177-1.435-12.908-5.054-19.305-8.535-3.522-1.85-6.804-3.288-10.508-4.652-6.556-4.404-7.803-10.52-10.187-17.813q-1.608-4.32-3.25-8.625c-.48-1.292-.96-2.583-1.453-3.914A413 413 0 0 0 752 438z"/><path fill="#d59c85" d="m961 321 1.438 5.313C964 332 964 332 967 335v2h2c1.703 5.962 3 10.802 3 17h2c1.918 7.782 1.225 16.17 1.25 24.125l.063 4.96c.029 9.176-.466 17.166-3.313 25.915l-2 2-1 5h-3c1.053-5.264 2.527-10.291 4.063-15.43 6.639-25.283.414-49.645-10.473-72.535-.925-1.984-1.77-4.005-2.59-6.035 2-1 2-1 4-1"/><path fill="#d27c5b" d="M552 282h2l3 3 4 3 1-1-1-2h5l1-2 2 2 2 1v2q-2.994 1.02-6 2l-1 2h2v-2h2l1 4a101 101 0 0 0 6-2c2 2 2 2 3 6l-4 1 1 4 4 2a252 252 0 0 1 5.75 4.125l2.984 2.195L590 313l-3 1 2 3c-5-2-5-2-7.125-4.562-3.212-3.84-6.718-6.674-10.613-9.793-3.833-3.108-7.584-6.302-11.324-9.52l-3.848-3.305C553 287 553 287 551 284z"/><path fill="#d49b85" d="M432 209h2c.784 3.312 1.451 6.652 2.063 10 .614 3.34 1.251 6.675 1.937 10h1c.427 4.717.776 9.436 1.11 14.16L441 247l5-1v-2h2v-3h2v-2h2v-2h2l1-3h4v-3h3v-4h3l-.687-3-.313-3h6l1-3c3.5-.437 3.5-.437 7 0l1 4h-6c-2.273 1.941-2.273 1.941-4.375 4.563-3.88 4.63-8.058 8.47-12.625 12.437l-3.375 3.938L450 246h-2l-2 4h-2v2h-3c-2.962-8.688-4.847-17.595-6.75-26.562l-.675-3.172C432.642 217.734 432 213.643 432 209"/><path fill="#d7997e" d="m727.563 119 4.501 1.117c8.108 2.041 8.108 2.041 10.936 2.883v1c-5.178.228-8.31.345-13-2h-5v-2c-2.957-.195-2.957-.195-6.812-.125l-3.833.055L711 120c-2.632 0-5.263-.033-7.895-.07l-5.918-.055-5.894-.07c-4.455.164-7.238.618-11.293 2.195h-4v2c-6.186 2.927-11.712 3.464-18.5 3.688l-5.406.199L648 128c4.267-2.133 8.16-3.161 12.79-4.312l5.292-1.32 5.543-1.368 5.473-1.367c19.059-4.733 31.465-5.46 50.465-.633"/><path fill="#d8a792" d="M886 604c4.397.99 7.834 2.971 11.563 5.438A302 302 0 0 0 908 616v3c-2.688 1.403-2.688 1.403-6.445 2.828l-4.158 1.58a802 802 0 0 1-21.272 7.342l-4.336 1.457c-6.882 2.288-13.653 4.42-20.789 5.793 3.578-3.578 8.939-4.306 13.691-5.781C868 631 868 631 869 629l5-1 2-4c3.117-3.117 6.503-2.65 10.813-3.062 4.819-.472 9.435-.988 14.187-1.938l-1-4q-4.488-2.521-9-5v-3h-5z"/><path fill="#d48b6f" d="M648 128v2l-7 1v2l4 1h-3l-1 2c-4.833 2.417-8.617 2.567-14 3-5.91.51-11.732 1.023-17.562 2.125-5.97.96-11.404 1.019-17.438.875 4.841-2.42 9.776-3.555 15.004-4.82l3.257-.799q3.405-.833 6.811-1.659c3.482-.845 6.962-1.699 10.442-2.554l6.615-1.613 3.163-.777C644.654 128 644.654 128 648 128"/><path fill="#c77d60" d="m504 411 2 1v2l3.5-.25 3.5.25v6h4v2c11.597 2.272 24.197 3.155 36 3v-2h4v-2h4v-3h4v-3h3v-2h4l2-1c-4.198 8.397-14.528 12.023-23 15-16.095 3.22-30.116.687-43.758-8.219C505 417 505 417 502 413h2z"/><path fill="#d8987e" d="M965 416c1 4 1 4-1 8l-.437 3.625L963 431l-3 2-1 3-3 2c-1.312 3.5-1.312 3.5-2 7l2 2-2 2 1 2h-3l-1 4c-2-2-2-2-3-5-3.599 2.019-6.725 4.555-10 7.063-3.298 2.421-6.22 4.407-10 5.937l-2-1c2.058-1.769 4.204-3.435 6.375-5.062C947.023 445.646 956.762 432.476 965 416"/><path fill="#d9987d" d="m613 438 2 1a376 376 0 0 1-5 6l-1.625 3.375L607 451h-3l-.812 2.813C602 457 602 457 598.938 458.75L596 460l-1 2-3 1-1 2h-2l-1 3h-2v2h4v2c-2.875 1.25-2.875 1.25-6 2l-2-2c-6.299-.47-10.347.328-16 3-5.495 1.657-10.266 2.205-16 2 4.435-2.218 8.726-3.405 13.5-4.75 13.904-4.138 26.123-9.873 36.5-20.25h2l1-3 3-3h2l2-4z"/><path fill="#d37c5b" d="m589 317 4 2 1-1 3 1 1 4 5-1h1v-2l3-1v2h3v3l4 1v2l3-1v2l-2 2h-3l-1 2 3 1 3 5 3 1a177 177 0 0 1 5 8c-3 0-3 0-6-2.937L615 340a298 298 0 0 0-15-12v-2l-4-2a184 184 0 0 1-7-6z"/><path fill="#d27957" d="M988 428h4a127 127 0 0 1 2 6l3 1v-4h2v-2l3-1c-1.646 5.687-4.333 10.731-7 16l-1.75 4.125L992 451h-1l-.062-3.875L990 443c-4.062-1.25-4.062-1.25-8-2v-4l-4-1v-2h3l2-3 5-1z"/><path fill="#d5967c" d="M848 153c5.483.13 8.87 2.558 13 6l-2 1-5-2.312-5-1.688c-1.5 2.375-1.5 2.375-2 6l-1.187 3c-.813 3-.813 3-.313 6 .606 3.638.045 5.679-1.5 9l-3 1-2 3-2-1v2h-3l-.437 3.875L833 193l-4 2-1 4h-2c1.786-6.493 4.488-12.16 7.688-18.062 4.595-8.572 9.003-17.219 13.312-25.938z"/><path fill="#ce7857" d="M630 254h2l2 3h2l1 2 4-1 1 4h2l-1 5-4 1 2 4v6l4 1v6l1 2h5v3l-2-1c-.625 2.938-.625 2.938-1 6-2.445-3.26-4.06-5.948-5.777-9.578l-1.557-3.27-1.604-3.402q-1.574-3.32-3.152-6.64l-1.5-3.186c-1.217-2.524-2.526-5.002-3.851-7.47C629 258 629 258 630 254"/><path fill="#d5947a" d="M805 239c1 2 1 2 1 8l-3 5h-2c-.37 1.993-.697 3.995-1 6l-2 5 .25 4.188L798 271c-2.937 1.375-2.937 1.375-6 2-1.135 2.27-2.057 4.643-3 7h-3l-.5 4-.5 4h-3a168 168 0 0 0-2 6l-3 3c1.841-5.926 3.995-11.201 7-16.625 4.316-7.969 8.262-16.065 12.105-24.268 2.75-5.837 5.701-11.5 8.895-17.107"/><path fill="#d59076" d="M1020 427c1.213 3.638.653 5.204-.312 8.875l-.801 3.117C1018 442 1018 442 1016 447l-.5 3.313-.5 2.687h-2c-.562 2.844-.562 2.844-1 6.5s-.437 3.656-1 6.5h-2v5l3 1h-2v2h-2l-1 2-2-1c-.418 1.984-.723 3.991-1 6l-1.187 4.875L1002 490h2l-1 4v-3l-3.062.688L997 492c.225-5.49 2.573-10.546 4.5-15.625 3.41-9.012 3.41-9.012 4.5-13.375a641 641 0 0 1 3.75-8.812c3.14-7.372 5.916-14.745 8.34-22.38C1019 429 1019 429 1020 427"/><path fill="#daa990" d="M634 539a190 190 0 0 1 3 9l-3-1-1-3c-3.562-.312-3.562-.312-7 0v2h-3v3c-4.705 2.388-8.816 3.963-14 5l-5 3v3l-2 1v3c-4 1-4 1-7 1-7.408 1.774-13.167 4.637-19.531 8.672L573 575l-2-1c7.255-5.548 15.46-9.423 23.543-13.617 4.711-2.519 9.055-5.36 13.457-8.383 21.761-13 21.761-13 26-13"/><path fill="#d79b82" d="M656 407c4 2 4 2 8 6-.305 14.842-10.232 31.715-15.766 45.418A491 491 0 0 0 643 472c-1.685-5.056.644-9.997 2-15a269 269 0 0 0 2-8h-1v-6h3c2-2 2-2 2.375-7.125L652 431h4c.743-2.31 1.411-4.646 2-7h2c.555-2.773.555-2.773.875-6.375l.367-3.586L661 411l-4-2z"/><path fill="#d79d86" d="M483 257c2.516 2.074 2.516 2.074 5.25 4.688 4.39 4.103 8.9 7.756 13.75 11.312 2.385 1.938 4.735 3.923 7 6v2c-2.414 1.16-4.884 2.204-7.375 3.188l-4.148 1.667C494 287 494 287 492 286l3-1v-2h4v-2h3c-.625-3.5-.625-3.5-2-7h-3v-2l-3.375-.187L490 271a110 110 0 0 1-2-7l-5-1-2-1v-2c-4 .25-4 .25-8 1v2a212 212 0 0 1-10 2c3.087-3.087 5.515-4.416 9.438-6.25l3.433-1.64C479 256 479 256 483 257"/><path fill="#d39d84" d="M663 360c3.332 4.443 5.544 9.026 8 14l3 5a185 185 0 0 1 2.625 6.063c.425 1.022.85 2.044 1.29 3.097C679 391 679 391 680 395c-10.31-6.186-19.193-14.85-28-23v-1h6l2 4h2l1 4 4 2 5 3-3-5-.937-3.062C667 373 667 373 663 369c-.25-4.75-.25-4.75 0-9"/><path fill="#d39379" d="m417 140 1 2h3c.625 2.824.625 2.824 1 6.688 2.224 19.536 2.224 19.536 6 23.312.6 3.174 1.108 6.365 1.563 9.563 1.34 9.34 1.34 9.34 2.437 10.437.1 2.853.13 5.708.125 8.563l.008 4.753L432 209h-1c-.77-3.118-1.47-6.254-2.145-9.395-.21-.975-.422-1.951-.64-2.957q-1.019-4.73-2.027-9.46l-1.33-6.167q-1.311-6.076-2.607-12.156-1.224-5.74-2.467-11.476l-1.108-5.15c-.325-1.5-.65-2.998-.983-4.542C417 144 417 144 417 140"/><path fill="#d9a28a" d="M447 273v4h-6l-1 4h-2v2a217 217 0 0 1-7 2c-3.687 1-3.687 1-7 3-2.25 4.625-2.25 4.625-4 10-1.817 5.45-3.675 10.745-6 16l-2 5-2 1q.989-4.502 2-9l.628-2.88c4.235-18.793 4.235-18.793 9.009-23.991 3.064-1.772 6.027-2.953 9.363-4.129a504 504 0 0 0 7.625-3.937C444.723 273 444.723 273 447 273"/><path fill="#d28d71" d="M583 201c5.252 5.252 7.79 12.365 11 19l2.969 6.066 3.031 6.246 1.494 3.056C605 242.655 605 242.655 605 246l-5-1 1-3h-2v-6h-2c-2-4-2-4-2-8l-3 1v-3h-2v-2h-2a195 195 0 0 1 0-7l-1-4h-4l-4-2h2c1-5 1-5 0-7h2z"/><path fill="#ca6f4e" d="M1028 406h2c2.366 7.023 3.834 14.617 3 22l-4 3v-4h-2l-1 2-1-2-1.375 4.563L1022 436l-2-1c-.146-10.375 3.575-19.71 8-29"/><path fill="#d17757" d="M458 536c11.662 1.64 22.95 9.173 33 15-3.163 1.581-5.695-.048-9-1-5 0-5 0-9 1h-4v-2l4-1-3-1-4 2-4-2 2-2-2.875-.687L458 543c-1-3.812-1-3.812 0-7"/><path fill="#d69880" d="M505 587c4.375-.25 4.375-.25 9 0l1 2c-2.893 1.797-5.871 3.457-8.875 5.063l-2.739 1.465q-2.808 1.503-5.624 2.994a480 480 0 0 0-7.703 4.24l-4.497 2.488-4.058 2.266C478 609 478 609 473 608c-3.113-2.723-3.113-2.723-6.312-6.062l-3.239-3.348L461 596h3a101 101 0 0 1 4.125 4.625c2.383 2.496 2.383 2.496 4.875 4.375 5-.312 5-.312 9-2l1-2 4.563-1 4.437-1v-2h3v-2c3.45-3.247 6.565-4.522 11-6z"/><path fill="#daa58d" d="m837 338 2 1-2 4h-2l-2 4-2 3h-2v2h-2v3.188c0 3.812 0 3.812-2 8.812h-3c.058 4.439.297 8.712.688 13.125l.279 3.75c.465 5.728 1.11 10.69 3.033 16.125.37 1.994.713 3.993 1 6-3.121-3.121-3.816-4.714-5.125-8.812l-1.008-3.083c-3.772-13.509-1.947-26.464 4.32-38.855 3.253-5.743 6.78-9.984 11.813-14.25"/><path fill="#d18f76" d="M972 489v2c-3.965 1.38-7.914 2.623-11.937 3.813q-3.951 1.19-7.899 2.386l-4.393 1.33c-5.244 1.617-10.465 3.298-15.685 4.99l-5.594 1.808q-5.518 1.786-11.029 3.594l-5.123 1.65-4.582 1.492C902 513 902 513 898 512q6.186-2.005 12.375-4l3.563-1.156C922.773 504 922.773 504 925 504v-2h7v-2h6l1-3 3.125-.5L945 496l-1-3a195 195 0 0 1 7 0l4-2c2.996-.364 5.997-.7 9-1 2-1 2-1 8-1"/><path fill="#d38061" d="M795 338c-6.94 7.015-14.089 13.88-21.937 19.875C769 361 769 361 766.063 364L764 366l-2-1 1-4h2v-5l4 1v-2c4-3 4-3 8-3 .421-2.989.753-5.992 1-9l2-1-1-3h4c5.118-2.047 6.817-2.016 12-1"/><path fill="#d17f60" d="M443 577c5 1 5 1 8 4v2c6.136-.568 6.136-.568 9-2l4 2-3 1v2h2l1 5 3 1 1 5 1 3h3l1 5c-3.439-2.92-6.81-5.81-10-9l-5-3a297 297 0 0 1-7.812-7.625l-4.083-4.102C443 578 443 578 443 577"/><path fill="#d7987f" d="M837 558c3.438-.375 3.438-.375 7 0v4c2.653.426 5.325.74 8 1 4.438 1.438 4.438 1.438 8 3l1 2c2.984.735 5.986 1.397 9 2l4 1v3l4-1v2h-2c3 3 3 3 6.188 5.063L885 582v2c-5.87-1.32-10.984-4.593-16.187-7.5a977 977 0 0 0-27.333-14.54C838 560 838 560 837 558"/><path fill="#d7997f" d="M839 472c4.436.403 8.638 1.388 12.938 2.5 14.387 3.637 28.54 3.014 43.125.742L898 475v2c-5.105 3.403-9.596 4.252-15.676 4.23l-3.756-.005-3.88-.038-3.94-.001c-9.608-.046-9.608-.046-10.748-1.186l-4.562-.437L851 479v-2l-4-1a207 207 0 0 1-8-3z"/><path fill="#d3866a" d="m380 514 5 1v2h2v2l5 1v2h2v-2h2v2l4 2 2 3-3 1 1 2 3-1 1 2 4-1-1.125 3-.875 3h2q.622 3.482 1 7c-6.49-5.42-12.357-11.321-18.281-17.344C387 522 387 522 383.03 518.656L380 516z"/><path fill="#d58d70" d="m921 260 2 1-3 4c1 2 1 2 6 4l-1 4q-3.489.579-7 1l-3 3h-3v-2l-4-1c-2 4-2 4-3 7l5 2c-3 1-3 1-7.562 0L899 281c3.287-5.28 8.14-9.168 13-13h2l1-3c2.938-2.75 2.938-2.75 6-5"/><path fill="#d68766" d="M420 98c4.689 2.344 7.326 5.265 11 9l4.188 3.625c3.022 2.676 5.453 5.132 7.812 8.375-4-2-4-2-6-4q-4-.508-8-1l-3-2-2 3h-2l-1-2-5-2c-.875-3.625-.875-3.625 0-7 4.5-.437 4.5-.437 9 0z"/><path fill="#d18161" d="M826 147h3v6h-1l-1.125 4.5c-2.298 8.738-5.41 19.036-11.875 25.5.357-7.85 1.021-13.07 5-20v-2l-3-1a100 100 0 0 0-1 6l-2 2v-2h-2v-6h2v-2l5-2v2l5 1c.82-2.527.82-2.527 1.125-5.937.32-3.403.32-3.403.875-6.063"/><path fill="#d28b72" d="M851 638c-6.04 4.027-13.428 5.818-20.25 8.188l-4.84 1.732-4.676 1.623-4.274 1.5c-4.133.999-6.86 1.026-10.96-.043v-2c3.071-1.116 6.184-2.117 9.313-3.062l5.238-1.598L825 643l3-1 1-3c2.879-.512 2.879-.512 6.563-.687l3.824-.196c3.874-.125 7.737-.195 11.613-.117"/><path fill="#d4886a" d="M529 551v1l5 1-1 3-5-1 1 3c-2.625 1.313-2.625 1.313-6 2l-5-2c-5.157-.315-10.286-.463-15.45-.566-8.249-.233-8.249-.233-11.55-2.434v-3l6 2c6.295.255 12.064-.368 18.25-1.5 4.748-.863 8.914-1.5 13.75-1.5"/><path fill="#d89c85" d="M1012 369c2.036 4.071 3.317 7.956 4.625 12.313l1.352 4.425c1.792 7.462 1.35 11.54-2.477 18.2a386 386 0 0 0-9 17l-2.031 4.09L1003 428c-1.559-3.118-.677-5.678 0-9h2c2.436-5.962 3.41-12.426 4.707-18.71L1011 397h5l1-1v-5l-1-1v-5h-3c-1.357-5.43-1.06-10.402-1-16"/><path fill="#dba78d" d="M571 575v2h-2v3c-4.089 3.328-5.571 4-11 4l-1 3c-3.731 1.566-7.528 2.822-11.363 4.11-4.445 2.31-5.435 4.477-7.637 8.89l-4 4c-4.25-.75-4.25-.75-8-2 4.668-5.532 10.736-8.426 17-11.812a3916 3916 0 0 0 10.02-5.516c3.706-2.08 7.32-4.285 10.918-6.547C569 575 569 575 571 575"/><path fill="#d3977e" d="M565 557c3 .25 3 .25 6 1-3.192 3.192-5.76 4.496-9.812 6.438-8.165 3.981-16.098 8.312-24 12.788-2.364 1.317-4.773 2.554-7.188 3.774l-2-1 1-3 3-1 1-2h3l2-3h5v-2l3.563-.5L550 568c-1-2-1-2-5-4l1-1h7l5-1v-1l3.5.188L565 561z"/><path fill="#d4987f" d="M703 434c5.146 2.573 7.143 5.827 10.563 10.438 6.199 8.324 6.199 8.324 9.437 11.562l-1 2c-2.06-1.592-4.05-3.275-6-5l-2.75-2c-2.25-2-2.25-2-4.25-7-5-1-6.516-.936-11 1l-1 2h-2l-.812 2.938L693 453l-5 1c4.453-7.329 8.815-14.018 15-20"/><path fill="#d49a81" d="m655 538 2 1 .938 4.875C659 549 659 549 662 552c2.286 7.429 2.286 7.429 1 10h2l1 5 3-1c.361 2.663.69 5.33 1 8l3 4c2.395 8.21 2.395 8.21 0 13l-2.379-5.746-1.534-3.705q-1.654-3.996-3.3-7.997c-2.347-5.694-4.709-11.374-7.178-17.017l-1.922-4.41-1.675-3.742c-1.163-3.89-1.048-6.475-.012-10.383"/><path fill="#daa892" d="M455 493c3.01.97 6.007 1.979 9 3 11.662 3.845 11.662 3.845 17.313 4.5 4.507.611 7.675 2.399 11.687 4.5 2.324.697 4.657 1.37 7 2l4 2q3.494 1.515 7 3c-5.833 1.458-10.535-.76-16.098-2.55l-3.593-1.134a2067 2067 0 0 1-7.517-2.394c-3.84-1.23-7.683-2.443-11.528-3.654l-7.3-2.319-3.494-1.105c-8.121-2.612-8.121-2.612-11.47-4.844h5z"/><path fill="#d59579" d="m524 602 2 1-2 5 4 1-1 3v-2c-2.937.25-2.937.25-6 1l-1 2-4-1-4 3h-7l1 3 5 2 2 3c-4.756-.58-8.739-1.784-13-4v-3c4.903-4.123 10.398-6.814 16.133-9.57 2.693-1.343 5.286-2.882 7.867-4.43"/><path fill="#dbac96" d="M405 85c4.957 1.24 7.318 3.53 11 7v2l4 2-1 2-6-3v-2l-4-1c.586 2.686 1.274 5.349 2 8v8h2q.562 4.994 1 10h1q.506 5 1 10l1 1q.125 5.5 0 11h-1a178 178 0 0 1-1.523-7.016l-.907-4.484-.945-4.75c-1.997-9.984-4.109-19.884-6.625-29.75-.937-5.312-.937-5.312-1-9"/><path fill="#d06740" d="M751 355c3.625.063 3.625.063 7 1v2l2 1-1 1 2 1-1 3c-3.062.688-3.062.688-6 1l3 1v3c-5 1-5 1-11 1l-1-1c.25-4.562.25-4.562 1-9h3z"/><path fill="#d49277" d="M648 295h5l2 4 4-1-1 3h-2c.92 3.025 1.929 6.025 3 9l1 3 3 1c1 3 1 3 .938 6.688L664 324h2l1 5-2 3c-2.84-5.789-5.67-11.581-8.5-17.375l-2.457-5.008-2.324-4.765-2.158-4.412C648 297 648 297 648 295"/><path fill="#d3967d" d="M366 464h1c.129 2.769.176 5.541.188 8.313l.042 4.675C367 481 367 481 365 484c-.75 5.688-.75 5.688-1 11h2l1-4 3 1-1 4h-2c3 5 3 5 6.5 7.375 3.902 2.927 5.16 4.98 6.5 9.625l-2 1c-1.65-1.822-3.285-3.66-4.844-5.562C371 506 371 506 368.281 503.625c-7.177-6.29-7.177-6.29-7.656-12.437.414-2.072.883-4.133 1.375-6.188q1.001-5.593 2-11.187c.622-3.28 1.274-6.555 2-9.813"/><path fill="#d59f86" d="M973 220c1.463 4.39.182 7.635-.812 12.125l-1.083 4.945L970 242l-.887 5.055L968 251l-4 1v-2l-4-2-2-4h-2c-3.247-3.537-6.334-7.001-9-11 5 1 5 1 9 3v4h2v2l5-1-1 3h2v2l2-1q1.024-4.995 2-10c.96-2.681 1.957-5.35 3-8 .69-2.326 1.366-4.658 2-7"/><path fill="#d06541" d="M698 636q4.506 1.481 9 3h3c0 5.03-.365 8.177-1.75 12.875l-.984 3.492L706 658h-4c-.687-3.062-.687-3.062-1-7-.375-3.875-.375-3.875-1-7l-3-1c0-6 0-6 1-7"/><path fill="#d6967d" d="m532 624 10 5 3 1 1 2q3.989 1.044 8 2c4 2 4 2 6 5-6.93-1.387-13.485-3.432-20.125-5.812l-6.074-2.145-2.978-1.053c-5.915-2.074-11.869-4.033-17.823-5.99 3-1 3-1 8 0l3-1c3-1 3-1 8 1"/><path fill="#d18161" d="m743 323 2 3c-1.281 5.583-4.12 10.725-6.562 15.875l-2.442 5.18L734 351h-1l-.312-4.062L732 343l-4 1-2-5 3-1 1-2h2v-2c4-3 4-3 9-3v-5h2z"/><path fill="#d3876a" d="M723 458c3.888 3.726 7.208 7.679 10.5 11.938 2.738 3.534 5.46 7.015 8.406 10.378L744 483l-1 2c-4-2-4-2-7-6v-2c-3.5-.25-3.5-.25-7 0v2h-2l-2-9h-2l-1 2 1-4h2c-.64-2.009-1.31-4.008-2-6z"/><path fill="#d3886b" d="m750 659 4 2 3.688.188L761 662c1.148 3.358 1.148 3.358 1 7-2.884 1.804-2.884 1.804-7.05 3.09l-4.495 1.435-4.768 1.413-4.732 1.494C729.537 680 729.537 680 727 680l1-3 5-1v-1l3.5.063L740 675v-2h5v-2q2.994-1.02 6-2l1-2-1-1-2-5z"/><path fill="#d0896e" d="M607 538c-6.276 6.276-13.445 10.263-22.312 11.313L579 549c-.078-2.973-.078-2.973 1-6 3.563-.75 3.563-.75 7-1v-2c2.852-.633 2.852-.633 6.625-1.125l3.727-.508C601 538 601 538 607 538"/><path fill="#d39076" d="m495 348 1 2-1 2h2v5h-5c-.707 4.031-.707 4.031-.812 9.5l-.141 5.762L491 378c-.015 1.636-.03 3.272-.047 4.957-.013 3.682 0 7.361.047 11.043-2-3-2-3-2-7h-2c-2.671-12.038-.14-24.782 5.75-35.5z"/><path fill="#d69477" d="m929 217 5 1v2l5 1c3.653 3.653 5.004 5.133 6 10h-3l-3-5c-2.437-2.375-2.437-2.375-5-4-4.541 1.135-6.482 3.017-10 6h-2v2c-2.875 2.688-2.875 2.688-6 5l-2-1 1-5h3l-.25-4.5.25-4.5c3.25-.5 3.25-.5 7 0l4-1z"/><path fill="#d99377" d="M834 573c3.806 1.523 6.96 3.032 10.457 5.082l3.123 1.826 3.232 1.904 3.198 1.87c5.72 3.353 11.388 6.77 16.99 10.318l-2 1a349 349 0 0 1-7-4l-4-1-1-2a338 338 0 0 0-10-1l-3-1-1 2c-3.562-.75-3.562-.75-7-2v-2h3l1-4h-2l-1-5-3-1z"/><path fill="#daa890" d="M592 142c-8 4-8 4-12 4 .188 4 .188 4 1 8h2c1.688 4.375 1.688 4.375 3 9l-1 2h2c3.55 3.683 4.894 7.099 6.188 12l.98 3.625c.684 2.775 1.272 5.573 1.832 8.375-2.926-3.901-4.873-7.625-7-12l-1.965-3.86C576 151.377 576 151.377 576 145c5.659-2.141 9.92-3 16-3"/><path fill="#d17c5c" d="M649 585h2l1 11h2v2h3c3.72 3.72 4.86 7.163 6.75 12.063l1.922 4.91C667 619 667 619 666 621c-3.67-3.569-5.595-7.214-7.5-11.875L656 604h-5l-1-4h-2c-.047-3.281-.047-3.281.25-7.5l.266-4.219z"/><path fill="#d9977c" d="m763 565 1 4-2 3-1 4.625-1 4.375-2 1c-.75 4.563-.75 4.563-1 9h2c.938 4.063.938 4.063 1 8l-5-1-1 4c-3 2-3 2-5 2l-2 2c1.205-6.027 3.452-11.454 5.75-17.125l1.305-3.266c2.8-6.96 5.795-13.8 8.945-20.609"/><path fill="#d59278" d="m409 543 5 1v2h4v2h2v-2l3 1-1 4 2 5h4v2h2v2h2l1.25 3.313c2.058 4.335 3.465 4.864 7.75 6.687l2 3-1 4q-7.054-7.018-14.1-14.044-2.4-2.393-4.8-4.781-3.445-3.427-6.881-6.859l-4.19-4.173C409 544 409 544 409 543"/><path fill="#d36b44" d="m750 544 3 1c-.984 4.921-2.52 8.746-4.562 13.313l-1.942 4.363L745 566l-2-4-4 1-4-2 1-4h2l1-3h4l-2-4 4 1a364 364 0 0 0 5-7"/><path fill="#d8a088" d="M766 316c1.222 4.887.242 5.688-2 10l-.5 3.375L763 332h-3l.625 3.375L761 339l-5 2v6h-2l-1 5h-2v5l-2 3h-4l-2 4c.944-4.718 1.934-6.88 4.375-10.875 4.942-8.418 9.053-17.177 13.207-26 1.762-3.735 3.547-7.445 5.418-11.125"/><path fill="#d39177" d="m608 213 4 1c1.57 3.636 2.22 7.095 3 11 2.375 2.875 2.375 2.875 5 5l3-1 1 5 3 1-1 2-2-1c.25 3.34.584 6.676 1 10h2v5h2v5c-2.418-3.224-4.013-5.852-5.707-9.437l-1.53-3.215-1.576-3.348-3.082-6.5-1.533-3.238c-1.61-3.34-3.278-6.645-4.959-9.95C608 215 608 215 608 213"/><path fill="#d38d74" d="M853 283h6c-4.125 4.254-8.52 8.122-13 12l-4 3.5-4 3.5-4.375 3.938C830 309 830 309 828 309v2l-2-1 1-5c2-1 2-1 6-2v-3h2v-3l4-4h6l1-4 2-3 3 1v-2h2z"/><path fill="#d7aa94" d="M801 538c10.584.37 20.896 2.176 31.313 4l4.88.828c8.767 1.516 8.767 1.516 11.807 2.172v1c-7.121.46-13.16-.046-20-2-4.336-.312-8.686-.603-13 0v3c-5.491-1.126-10.254-4.123-15-7z"/><path fill="#d6a28b" d="M758 371c-1.965 1.82-1.965 1.82-4.937 4.125-3.44 2.728-6.575 5.387-9.688 8.5C734 393 734 393 728 395c1.127-4.508 2.959-8.109 5.063-12.25l2.222-4.39L737 375c1 2 1 2 .063 5L736 383v2l5-2c1.188-3.125 1.188-3.125 2-6h2v-2l4-3v-1c6.568-1.216 6.568-1.216 9 0"/><path fill="#d6947b" d="M724 613c1.606 4.817-.972 8.029-3 12.563q-1.253 2.834-2.496 5.671l-1.273 2.9c-2.952 6.871-5.577 13.876-8.231 20.866-1-3-1-3 1-8 .09-3.086.09-3.086-.062-6.375-.084-5.226.204-9.074 3.062-13.625h3l1-3h3l.5-5.062.5-4.938 3 1z"/><path fill="#cf6741" d="M415 313h2v2l5 1v6h-2l-.437 2.875L419 328c-3 2-3 2-6 2l-2 5c-1.42-5.677-.743-10.183 0-16l3-2z"/><path fill="#d9a68f" d="M987 153h1c-.502 7.475-1.841 14.687-3.434 21.992l-.72 3.359q-.753 3.488-1.511 6.973a3032 3032 0 0 0-2.298 10.684l-1.47 6.797-.689 3.223c-.945 4.309-1.896 8.008-3.878 11.972a2175 2175 0 0 1-.062-8.375l-.036-4.71C974 201 974 201 975 199h2c.402-2.992.727-5.994 1-9l1-5h2v-10h2v-9h2v-4.25c0-4.75 0-4.75 2-8.75"/><path fill="#d2967d" d="M744 566c-.852 4.259-1.936 7.635-3.547 11.629l-1.562 3.889-1.641 4.044-1.594 3.963A3054 3054 0 0 1 731 601l-1.47 3.64A463 463 0 0 1 726 613h-1c-.187-5-.187-5 0-10h2v-4h2a455 455 0 0 0 3-10h1l.5-3 .5-3h1c1.11-4.648 2.063-9.314 3-14 4-3 4-3 6-3"/><path fill="#d48e74" d="m989 453 1 2a226 226 0 0 1-5.062 9.813c-3.362 6.265-6.642 12.512-9.563 19L973 489h-1c0-6 0-6 1-8h2c.044-2.333.04-4.667 0-7l1-3h2c.583-3.93.9-7.86 1.242-11.816L980 456l4 1c3-1 3-1 5-4"/><path fill="#daa088" d="M560 639c3.438-.125 3.438-.125 7 0l1 1 5 .875 5 1.125 1 3c2.979.756 5.985 1.404 9 2l5.563 1.75L598 650v-2l-2-1c3.563-.687 3.563-.687 7-1l-1 3h3l2 3c2.914 1.943 5.858 3.464 9 5-4.647 1.549-7.79-.452-12.348-2.078l-2.807-.992c-2.972-1.051-5.94-2.115-8.908-3.18a5701 5701 0 0 0-8.832-3.137q-4.037-1.434-8.07-2.88a249 249 0 0 0-10.677-3.396L560 640z"/><path fill="#d9a28a" d="M392 442c3.284 3.284 4.421 7.787 6.063 12.063l1.18 3.057A1788 1788 0 0 1 403 467l1.317 3.486a1559 1559 0 0 1 3.808 10.264l1.219 3.262c2.772 7.64 2.772 7.64 1.656 10.988l-3-4-2.625-2.562C403 486 403 486 402 483h2c0-6 0-6-2-9-.805-3.111-1.461-6.238-2.121-9.383L399 462l-3-1a424 424 0 0 1-2-10l-2-1a128 128 0 0 1 0-8"/><path fill="#d28d72" d="M909 233h4l1 3c-2.129 2-4.267 3.994-6.508 5.867C905 244 905 244 902.551 246.461c-2.626 2.614-5.364 4.952-8.239 7.289l-2.886 2.36C889 258 889 258 887 259v-5l4-1v-3l4 1v-4l2-2h4a150 150 0 0 0-1-6c3 0 3 0 5 1v-5h4z"/><path fill="#d8a289" d="m656 494 2 3-3 4h-2v2l3 1-1 3h-2v-2h-3v2l-4 2c-.496 3.04-.496 3.04-.437 6.625l.003 3.602L646 522h3c1.998 4.958 3 8.629 3 14l2 1v5c-3.69-3.69-5.14-9.043-7.125-13.812l-1.418-3.315-1.34-3.205-1.23-2.929C642 516 642 516 642 511c2.3-3.191 2.3-3.191 5.313-6.562 3.03-3.427 5.94-6.776 8.687-10.438"/><path fill="#d3714d" d="m907 405 3 1h2l-2 4c-4 1-4 1-6 1l-1 2-3 1-2 1v2l-5 2-4-2v-4c3.038-2.953 4.832-3.958 9-5l2 1 1-3 3 1v2h3z"/><path fill="#d49a82" d="m732 351 1 2c-1.057 2.416-2.225 4.783-3.437 7.125l-2.235 4.36L725 369q-2.1 4.185-4.187 8.375l-1.985 3.96a973 973 0 0 0-3.406 6.892A373 373 0 0 1 712 395h-1c.706-8.118.706-8.118 2-12h2l1-3 1-3h2v-6l3-3 1-5h2v-4h2v-6l3 1z"/><path fill="#d5977e" d="m403 423 4 1v2h2v5h2v4h3l1-2 3 1-2 1c.25 5.563.25 5.563 1 11h2a235 235 0 0 1 2 10l1 4c-2.905-2.905-4.068-4.86-5.777-8.516l-1.557-3.293c-.53-1.135-1.058-2.27-1.603-3.441-3.156-6.73-6.365-13.298-10.063-19.75z"/><path fill="#d69f87" d="M765 279h3c-1.118 4.79-3.407 9.121-5.555 13.523l-2.113 4.344-2.207 4.508-2.184 4.484A3405 3405 0 0 1 750 318l-2.176 4.487L746 326h-1c-.187-4.5-.187-4.5 0-9h2v-2h2v-6h2l1-5 2 1 1-5h2c.392-2.659.72-5.327 1-8l1-3h2l1-3h2l.438-3.5z"/><path fill="#e4bca7" d="m976 107 2 1c-2.964 3.192-6.14 6.125-9.305 9.117C966 120 966 120 966 123h-3v2l-3 1-3.312 3.875c-3.48 3.892-5.235 4.91-9.688 7.125-2.394 2.1-2.394 2.1-4.672 4.484l-2.512 2.582-2.566 2.684A289 289 0 0 1 928 156l-2-1a268 268 0 0 1 9.688-10l2.783-2.793c5.502-5.46 11.17-10.52 17.258-15.32 2.82-2.344 4.977-5.034 7.271-7.887a601 601 0 0 1 8-7l2.875-3z"/><path fill="#d49478" d="M800 490c5.082-.357 9.326-.103 14 2v2l5 1c2.813 1.938 2.813 1.938 5 4v2l3.938-.187L832 501l1 5c-7.38-1.68-14.207-5.287-21-8.562l-3.176-1.499c-7.7-3.69-7.7-3.69-8.824-5.939"/><path fill="#ca6d4c" d="m566 636 2 2c2.654.438 5.325.778 8 1.063 7.813.844 7.813.844 10 1.937l2-4 2-1v3h-2v3h-2v3l5 1c3.75.875 3.75.875 7 2l1 3c-13.499-3.588-13.499-3.588-20-6l-1-2a424 424 0 0 0-10-2l-1-1-3.5-.437L560 639l-1-2c3.313-.75 3.313-.75 7-1"/><path fill="#d17b5c" d="m512 577 4 1v4c3.375-.562 3.375-.562 7-2l2-3h4c-1 5-1 5-5.562 8.375-3.777 2.094-5.551 2.631-10 2.875L510 587c-1.187-3-1.187-3-1-6l3-1z"/><path fill="#d8a18c" d="m376 414 3 3c-.232 4.996-2.235 9.368-4 14-.91 4.547-1.167 8.57-1.312 13.188-.383 7.177-1.4 12.434-4.688 18.812l-2 1a188 188 0 0 1 2.594-17.578l.933-4.766.973-4.906.973-4.953A5457 5457 0 0 1 376 414"/><path fill="#d89b81" d="m921 285 3.313.375L927 286l1 4h2v3l3 1v2h4l3 5a207 207 0 0 0 4 5c-4-2-4-2-7.125-4.687-7.67-6.558-15.158-11.165-24.383-15.149L910 285v-1c5.195-1.039 6.303-.725 11 1"/><path fill="#d9a18a" d="M439 408c2 3 2 3 4.063 7.75 4.179 9.283 9.186 18.5 16.062 26.063L462 445l-1 2c-3.823-3.094-7.26-5.89-10-10h-2c-2.158-3.263-4.249-6.497-6-10h2v-3h-2v-2h-2c-1.124-4.747-2-9.114-2-14"/><path fill="#d8977d" d="m566 512-16 8-3.242 1.773c-5.087 2.263-10.142.68-15.32-.773L529 520v-1c3.13-.033 6.247.07 9.375.16L541 519v-2l-3-1c5 0 5 0 9 1v-2h9v-2c7.44-2.28 7.44-2.28 10-1"/><path fill="#d38c71" d="M488 285h2v2l2 1-4.812 2.5c-7.175 3.906-13.88 8.51-19.946 13.992L465 306l-1-4h2l1-3c3-2 3-2 6-2v-4l2-2h4l1-4c5-1 5-1 8 0z"/><path fill="#d69d85" d="M926 256c4.822.964 7.974 2.334 12.313 4.563l4.238 2.164L947 265q6.528 3.222 13.063 6.434L963 273v1c-6 0-6 0-10-2l-3.812-.937L946 270l1-3h-3l-1-2-3.562-.5L936 264v-2l-5-1v-2q-4.016.376-8 1z"/><path fill="#cd876b" d="M697 391c2 1 2 1 4 5l2-2 5 1h3c-.562 2.438-.562 2.438-2 6-.64 1.67-1.279 3.341-1.937 5.063L705 410c-4.995-4.995-7.463-11.155-9-18z"/><path fill="#d6957b" d="M389 389h1l.313 4.438L391 398l4 1 3 3 3 1-1 2h2l-1 5a309 309 0 0 0 2 7v6c-2.9-3.866-4.873-7.549-7-11.875l-2.062-4.18L392 403l-1.734-3.234c-1.69-3.693-1.542-6.76-1.266-10.766"/><path fill="#d39077" d="M817 314h6l-1 2h-2v2a342 342 0 0 1-6.355 4.93c-2.734 2.14-5.278 4.408-7.832 6.757-7.002 6.359-7.002 6.359-10.813 8.313l-1-3h2c1-4 1-4 0-8l5 1 5-1 1-4 5-1 1-5h4z"/><path fill="#d69179" d="M896 621v1h-6v2h-6l-1 4c-2.728 1.388-2.728 1.388-6.336 2.613l-3.914 1.342-4.125 1.357-4.102 1.417c-10.11 3.408-10.11 3.408-13.523 2.271l3.684-1.242 4.754-1.633 4.746-1.617C868 631 868 631 869 629l5-1 2-4c4.419-4.419 13.948-3.269 20-3"/><path fill="#d7977d" d="M784 423c2.716 3.134 4.676 6.183 6.75 9.813 3.1 5.279 6.785 9.01 11.25 13.187 4 4 4 4 4 6h-3l-6-6v-2h-6v-4h-2v-3h-2c-2.303-5.137-3-8.265-3-14"/><path fill="#d69a82" d="M588 371h1c.722 13.349-1.845 24.671-9 36l-3 2c0-6 0-6 2-8v-2h2q.52-2.997 1-6l2-2c.244-4.307-.147-7.734-1-12l4-1c.688-3.562.688-3.562 1-7"/><path fill="#cf7f61" d="M991 123h1c.686 10.15.187 20.277-3 30l-2 1-2 3c-.072-4.617-.003-8.981.625-13.562L986 140h-2v-2l4-3 1-4h2q.063-4 0-8"/><path fill="#d7977d" d="M667 621c2.552 3.402 3.905 5.823 5.445 9.684l1.325 3.31 1.355 3.443 1.379 3.432c1.894 4.77 3.485 9.075 4.496 14.131l-3-3-3-1-1-5-3-1c-.792-3.306-1.435-6.648-2-10l-1.125-5.375C667 625 667 625 667 621"/><path fill="#d6a18a" d="M634 389c4.86 2.43 8.74 5.64 13 9l3 2v2l4 2 2 3-2 1-1-2-3.5-1.375L646 403l-1-4-5-2v-2h-4c-.941 2.52-.941 2.52-1.562 5.813-1.132 5.88-1.132 5.88-4.438 9.187.514-4.965 1.397-9.291 3-14l.375-4z"/><path fill="#d39077" d="M1045 485c2.244 4.488 2.876 6.087 2 11-2.899 3.38-5.693 6.308-8.937 9.313-9.014 8.59-9.014 8.59-10.063 10.687h-2v-5h3v-4h2v-2h2v-2h2v-2c4-3 4-3 6-3v-2h3c.968-3.873 1.076-7.036 1-11"/><path fill="#d28567" d="M615 265c2.831 3.775 4.972 7.469 7.188 11.625l2.167 4.04C626 284 626 284 626 286h-2v-2l-3-1-3-3v2h-3l-1-2h-3l-1-3 4-1c.875-3.062.875-3.062 1-6h-2z"/><path fill="#d28060" d="M530 509a589 589 0 0 1 3 7l2 1v2c-8.633 1.06-16.04-2.063-24-5 4-1 4-1 7-1l3-2h2v2l2.375-2c2.625-2 2.625-2 4.625-2"/><path fill="#d28161" d="m435 487 2.438.938c4.184 1.247 8.222 1.634 12.562 2.062l5 1 3.625.438C462 492 462 492 465 494v-3c3 .313 3 .313 6 1l-3 2 1 4c-3.7-.87-7.367-1.882-11-3h-2c-15.063-1.98-15.063-1.98-20-4z"/><path fill="#d59077" d="m926 463-1 4h-3c-1.125 2.938-1.125 2.938-2 6-2.667 2.667-8.054 2-11.578 2.063q-5.212 0-10.422-.063c3.385-1.692 6.645-3.013 10.188-4.312C913.67 468.613 920.413 463 926 463"/><path fill="#d89f88" d="m532 169 2 1c-2.187 3.563-2.187 3.563-5 7h-3l-1 3c-2.187 2.188-2.187 2.188-5 4h-6l-1 2c-4.025-1.4-5.692-2.476-7.875-6.187L504 177c4 2 4 2 8 5l5-2 5-2v-2h2l1-3c3.438-2.25 3.438-2.25 7-4"/><path fill="#d79c83" d="m929 545 2 1-5 2-1 5c-2.937.688-2.937.688-6 1l-2 2c-4.55.91-8.385 1.134-13 1.125l-4.187.008C896 557 896 557 891 556v-1c5.109-1.022 9.62-1.694 14.68-.219 4.907.324 7.776-1.762 12.008-4.156 8.205-4.59 8.205-4.59 11.312-5.625"/><path fill="#d59176" d="M957 531v3l-5 5-2-1v2c-3.914 3.914-6.618 3.539-12 4l-1 1h-6c3.963-3.963 8.635-6.143 13.563-8.687l2.943-1.55C954.736 531 954.736 531 957 531"/><path fill="#dda891" d="m443 119 5 3v2l4 2a460 460 0 0 1 6.629 6.629c2.094 2.094 4.319 4.057 6.558 5.996 3.652 3.232 6.734 6.603 9.813 10.375-4-2-4-2-8-6h-6v-5l-3-1v-3h-4l-2-5-3.5-.812L445 127c-1.437-4.125-1.437-4.125-2-8"/><path fill="#d9a48e" d="m727 653 1 4h-2c-.414 2.957-.414 2.957-.625 6.813l-.227 3.832A144 144 0 0 0 725 674h-2l-1 3h-2v3c3.5.188 3.5.188 7 0-3.677 2.451-6.586 3.626-11 4 .939-6.584 3.184-12.664 5.5-18.875l1.844-4.992C725 656 725 656 727 653"/><path fill="#d59076" d="M492 233c3 .375 3 .375 6 1v2h2v-3h4l2 5-2 3h2a119 119 0 0 1 4.625 5.5l2.477 3.094L515 252c-5.903 0-10.53-5.633-14.687-9.5-2.861-3.093-5.597-6.28-8.313-9.5"/><path fill="#d69a81" d="M806 452c4 2 4 2 8.75 5.625 5.937 4.403 12.28 7.547 18.941 10.71C837 470 837 470 839 472l-3.312.375C832 473 832 473 829 475v-6h-3v-2h-3l-1-2-5.312-1.812c-4.563-1.592-7.273-2.797-9.688-7.188z"/><path fill="#dfb39e" d="M405 334h1c.44 6.153-.731 10.328-3 16q-1.006 4.5-2 9l-2 4-.5 5.063C398 373 398 373 396 376l-.875 4.438C394 385 394 385 390 389c2.107-9.9 4.897-19.598 7.65-29.332q1.375-4.876 2.739-9.756l1.74-6.166 1.596-5.666z"/><path fill="#d8a087" d="M861 160c5.154 2.062 8.59 4.676 13 8l3.5 1.75L880 171v2l4 2c5 3 5 3 9 6l-4 2c-5-3-5-3-6-6l-3-1v-2h-5l-1-4-4-1-5-2-1-4h-3z"/><path fill="#d38768" d="M778 543v2l3 1 1 2h3l-2 4c-3.625-1.125-3.625-1.125-7-3v-2h-2l-.5 3-.5 3h-2l-1 5c-1.6 2.38-3.258 4.722-5 7-1.382-4.147-.08-5.903 1.625-9.875l1.54-3.68C770.512 547.038 772.67 543 778 543"/><path fill="#d9a48c" d="m613 438 2 1a376 376 0 0 1-5 6l-1.625 3.375L607 451h-3l-.812 2.813C602 457 602 457 598.938 458.75L596 460l-1 2-3 1-1 2-5-1c4.875-4.875 9.82-8.91 16-12l1-3 3-3h2l2-4z"/><path fill="#daa690" d="M1001 89c1.13 4.521.626 6.777-.363 11.293l-.94 4.35-1.01 4.544-.974 4.487q-.931 4.278-1.88 8.554a945 945 0 0 0-2.001 9.323L993 135h-1a163 163 0 0 1-.687-7.5l-.325-4.219L991 120h2c.552-3.02 1.096-6.043 1.535-9.082C995 108 995 108 996 105h2l-.062-2.937c.074-4.822 1.4-8.564 3.062-13.063"/><path fill="#d08668" d="M773 397c2 3 2 3 2.5 6.188L776 406h2a250 250 0 0 1 4 11l1.375 3.688L784 423h-2v-2h-3a127 127 0 0 1-2-6l-2-1-1-5c-2.008.281-4.01.61-6 1l1-4 3-1c.688-4.062.688-4.062 1-8"/><path fill="#d3967c" d="M631 297c4.436 5.914 7.59 12.455 11 19l1.89 3.582c1.436 2.773 2.782 5.592 4.11 8.418l-1 2c-2.5-1.5-2.5-1.5-5-4-.687-3.25-.687-3.25-1-6h-2c-2-4-2-4-2-9l-4-2c-1.348-4.177-2-7.607-2-12"/><path fill="#dfae99" d="M892 331c-1.769 3.538-3.57 6.226-6 9.313l-2.125 2.738L882 345l-2-1 1-5h2v-2h2c1.25-3.937 1.25-3.937 1-8-3.678-.98-6.22-1.067-10-1h-10.125l-5.07.063L857 328v-1c11.235-2.409 25.15-2.566 35 4"/><path fill="#c66d4e" d="M1001 86c1.518 4.554-.355 7.614-2 12l-4 6h-3c-1.433-4.742-.924-6.189 1-11 4.063-4 4.063-4 8-7"/><path fill="#d68668" d="M871 595c13.182 5.273 13.182 5.273 17 11l3 1v3c-4.937.375-4.937.375-10 0l-1-3-3-1q.49-3.001 1-6h-3c-2.187-2.5-2.187-2.5-4-5"/><path fill="#dba791" d="M573 412v3c-10.921 8.673-21.784 13.149-35.812 13.125l-4.645.008L529 428v-1c3.91-.033 7.81.07 11.719.16L544 427v-2h9v-2h4v-2h4v-3h4v-3h3v-2h4z"/><path fill="#d48b6e" d="m879 264 2 1c-2.292 2.234-4.69 4.36-7.125 6.438l-4.133 3.558C866 278 866 278 862 280c.188-3.5.188-3.5 1-7h5v-3h-4v2h-4v-4c4.017-.33 7.164-.279 11 1v-2c2.644-1.058 5.298-2.1 8-3"/><path fill="#d49d85" d="M827 403c4.595 1.149 5.41 2.206 8 6v2h4v3c3.507 2.863 6.772 4.902 10.938 6.688L853 422v2l4 2c-11.615-1.511-19.51-8.532-27-17-3-4-3-4-3-6"/><path fill="#dea890" d="m916 356 2 1c-1 2-1 2-5 4-4 4-4 4-5 7h-2l-1 5-5 1a505 505 0 0 0-2 6l-4-1v-2h-4l-1 2-1-5h2l1-2 3 3 3 1v-2q3.988-3.514 8-7c2.58-2.917 4.842-5.763 7-9z"/><path fill="#e2b8a3" d="m582 356 3 1c3.249 8.006 3.249 8.006 2 13l-1.437-3.875C584 362 584 362 583 360c-5 3-5 3-8 8l-3 5h-3v2c-5 2-5 2-9 2l-2-1 1-2 3.137-.184c5.351-1.13 7.151-3.78 10.676-7.878 2.03-2.34 4.086-4.66 6.187-6.938h2z"/><path fill="#daa58e" d="m961 321 1.438 5.313C964 332 964 332 967 335v2h2c2.282 7.55 3.468 14.049 3 22h-1a186 186 0 0 1-1.75-6.25c-2.228-7.989-5.194-15.423-8.75-22.906-1.227-2.587-2.372-5.212-3.5-7.844 2-1 2-1 4-1"/><path fill="#d1876a" d="M666 332h4l1 2 5-1c.488 4.059.488 4.059.313 9.438l-.137 5.37L676 352c-2.736-3.649-4.663-7.059-6.687-11.125l-1.887-3.758C666 334 666 334 666 332"/><path fill="#ddaf9b" d="M613 489c-9.7 4.915-19.458 9.708-29.25 14.438l-3.318 1.612c-4.122 1.984-7.98 3.837-12.432 4.95v-3h2v-2c4.173-1.58 8.15-2.866 12.563-3.562L585 501v-2h4v-2l9-3a275 275 0 0 0 9.398-4.89C610 488 610 488 613 489"/><path fill="#deab96" d="M692 118a886 886 0 0 1-5.75 2l-3.234 1.125C680 122 680 122 676 122v2c-6.186 2.927-11.712 3.464-18.5 3.688l-5.406.199L648 128c7.057-3.529 14.922-4.833 22.563-6.687 1.721-.43 3.443-.858 5.216-1.3l4.975-1.212 4.572-1.12C689 117 689 117 692 118"/><path fill="#d9a790" d="M587 541v1l-7 2-3.437 1.563c-6.934 2.797-14.17 2.573-21.563 2.562l-5.125.008L546 548v-1a430 430 0 0 1 11.313-1.937l6.363-1.028 3.19-.511a377 377 0 0 0 9.052-1.653C581 541 581 541 587 541"/><path fill="#deab93" d="m752 435 1 2h3c2 5 2 5 2 9h2c1 2 1 2 1.75 7.813.913 6.392 2.875 11.887 5.422 17.8L768 474h-2c-1.297-2.719-1.297-2.719-2.75-6.5l-1.594-4.117c-4.383-11.598-4.383-11.598-6.36-16.922A413 413 0 0 0 752 438z"/><path fill="#dca992" d="M984 285c5 2 5 2 6.501 5.3l1.21 4.227 1.332 4.588 1.332 4.822 1.402 4.811c3.368 11.817 3.368 11.817 2.223 15.252-4.204-4.204-4.522-8.986-5.625-14.625-2.27-11.27-2.27-11.27-3.375-12.375v-5h-3c-1.187-3.5-1.187-3.5-2-7"/><path fill="#dca288" d="m602 557 2 1v2l-2 1v3c-4 1-4 1-7 1-7.408 1.774-13.167 4.637-19.531 8.672L573 575l-2-1c9.327-7.04 20.176-12.67 31-17"/><path fill="#d18a71" d="m904 410 4 2c-5.395 5.578-10.93 9.68-18 13l-3-1v-3c3-3 3-3 7.125-3.375L898 417l1-5 4 1z"/><path fill="#d59d84" d="M821 366h1c.46 5.193.825 10.384 1.162 15.586l.24 3.36.203 3.078c.424 3.192 1.324 5.947 2.395 8.976.37 1.994.713 3.993 1 6-3.121-3.121-3.816-4.714-5.125-8.812l-1.008-3.083c-2.363-8.463-2.897-16.728.133-25.105"/><path fill="#d5977d" d="m635 268 3 3 3 1v6l4 1v6l1 2h5v3l-2-1c-.625 2.938-.625 2.938-1 6-3.33-4.44-5.724-9.118-8.187-14.062l-1.405-2.76C635 271.366 635 271.366 635 268"/><path fill="#d07c5d" d="M829 195h2c1.837 5.512.298 9.83-2 15l-3-3v3c-3.125 1.063-3.125 1.063-6 1 .438-2.562.438-2.562 2-6l1.438-3.375L825 199h3z"/><path fill="#d08466" d="m553 160-5 5 1 2-3 4h-2l-1-2a193 193 0 0 0-10 2c3.12-6.242 8.485-9.082 14.938-11.437C551 159 551 159 553 160"/><path fill="#d59e86" d="M558 152c4.077 4.077 9 9.872 9 16h-4c-.625-3-.625-3-1-6h-2l-3-4c-3.437 1.313-3.437 1.313-7 3l-4-1a288 288 0 0 1 5.75-4.25l3.234-2.39z"/><path fill="#d6997f" d="M647 572c3.639 4.852 5.579 10.022 7.75 15.625l1.285 3.219c1.053 2.694 2.016 5.423 2.965 8.156l-1 2-1-3h-3v-2h-2c-1-4-1-4-.875-7.75L651 585h-3c-.512-2.844-.512-2.844-.687-6.5l-.2-3.656z"/><path fill="#d69980" d="m841 507 1 2q4.494 1.026 9 2l3 2v2h4v3h2v2c-4.987-1.264-9.475-3.588-14.062-5.875l-4.16-2.055c-3.272-1.793-5.973-3.631-8.778-6.07 3-1 3-1 8 1"/><path fill="#d29075" d="m779 254 1 2a285 285 0 0 1-5.375 11.625l-1.578 3.297A401 401 0 0 1 769 279h-1c.314-6.431.808-11.376 4-17h-2l-1-4 2-1 1 3 3-3h2v-2z"/><path fill="#cb7e63" d="M378 406h2c.598 2.625.598 2.625 1.063 6 .28 2.005.584 4.007.937 6h1c.313 3.438.313 3.438 0 7l-4 1c-2.25 2.563-2.25 2.563-4 5 .498-3.402 1.164-6.566 2.125-9.875L378 418h-1c-.24-8.28-.24-8.28 1-12"/><path fill="#d69982" d="M949 588h3c-1.416 5.662-5.192 8.784-9.187 12.813-.757.8-1.513 1.602-2.292 2.427-2.251 2.28-2.251 2.28-6.521 5.76-3.55.012-3.55.012-6-1l4-1 1-3h4v-5h3l2-4h3v-2h3z"/><path fill="#d7a893" d="M1028 406h2c.852 2.668.852 2.668 1.625 6.188.26 1.148.52 2.297.79 3.48C1033 419 1033 419 1033 424c-2-3-2-3-2.5-6.687L1030 414h-2c-.37 1.993-.697 3.995-1 6-2 5-2 5-6 7 .94-4.704 2.278-8.821 3.938-13.312l1.59-4.364z"/><path fill="#e0b8a5" d="M558 330v4l-3 2-1-4c-3.562-1.187-3.562-1.187-7-2v-1a315 315 0 0 0-10.062-.125l-5.66-.008c-4.216.106-8.135.409-12.278 1.133 8.165-8.165 29.708-5.077 39 0"/><path fill="#d58f73" d="M744 485h2c1.738 2.196 3.391 4.458 5 6.75l2.688 3.797C756 499 756 499 758 503l-3-2-1 2h-3l-1-4-2-1v2h-2v-7l-2-5z"/><path fill="#dba68f" d="M813 141c6.465-.136 14.597 1.442 20 5-1.89 4.723-3.921 9.358-6 14-1.774-3.549-.573-7.198 0-11l2-3-4.008-.078-5.117-.172-5.133-.14L811 145z"/><path fill="#d49178" d="M426 463c2 3 2 3 2 5h2a714 714 0 0 1 4 8l3 3h-2a128 128 0 0 0 0 8c-3.074-4.098-5.11-8.069-7.312-12.687-.74-1.53-1.478-3.06-2.239-4.637L424 466l2-1z"/><path fill="#d78e70" d="M687 454v3l-2 2c-1.5 3.625-1.5 3.625-2 7h6v2l-5 1-1 4-3 1-2-5-2 1c1.745-4.364 3.154-6.724 6.063-10.25l2.16-2.64c.895-1.063 1.794-2.127 2.777-3.11"/><path fill="#d79f88" d="m676 352 2 4h4c2.132 3.197 2.983 5.888 4.063 9.563 1.85 6.263 1.85 6.263 2.937 8.437l-1 2h2v5c-2.667-3.556-4.493-6.782-6.437-10.75-1.966-4.001-3.944-7.982-6-11.937C676 355 676 355 676 352"/><path fill="#d69880" d="m814 183 1 2a312 312 0 0 1-5.875 12.125l-1.723 3.441A447 447 0 0 1 803 209h-1c-.801-7.211 1.397-11.824 5-18h2l1-3h2z"/><path fill="#d9a78f" d="m417 140 1 2h3c.66 2.895.66 2.895 1.063 6.813.53 4.745 1.153 9.302 2.062 14 .873 5.175 1.103 9.949.875 15.187h-1a190 190 0 0 1-1.629-7.297l-.947-4.594-.986-4.859-.999-4.812C417 144.518 417 144.518 417 140"/><path fill="#dfae98" d="M744 124c8.474.441 16.427 2.823 24.563 5.063l4.212 1.142Q777.89 131.595 783 133c-4.713 1.178-8.295.797-13.125.313l-4.883-.45L761 132l-2-4c-3.687-.625-3.687-.625-8-1-4-1-4-1-7-2z"/><path fill="#d79276" d="M472 542c4.676 1.097 8.693 3.32 12.875 5.625l3.492 1.914L491 551c-3.163 1.581-5.695-.048-9-1-5 0-5 0-9 1h-4v-2l4-1-.625-3.187z"/><path fill="#cf704f" d="M576 498h4v2l5-1v2c-5.313 2.408-9.127 4-15 4v2h-2v4l-5 1v-3h4v-3h2a101 101 0 0 0-1-7l3 2h2z"/><path fill="#e4baa7" d="M938 498c2.665-.083 5.335-.083 8 0-6.062 4.041-13.62 5.57-20.524 7.76-2.902.924-5.8 1.864-8.697 2.804l-5.525 1.76-5.084 1.628C902 513 902 513 898 512q6.186-2.005 12.375-4l3.563-1.156C922.773 504 922.773 504 925 504v-2h7v-2h6z"/><path fill="#d2967f" d="M641 472v3a182 182 0 0 1-11.187 5.563l-3.198 1.498c-4.505 2.1-8.997 4.092-13.615 5.939v-4q3.992-.562 8-1v-3c5-1 5-1 7 0l-1-3h4v-2a285 285 0 0 1 9-2z"/><path fill="#d5a189" d="M648 330c3.388 3.388 4.939 8.007 6.938 12.313 2.5 5.369 5.009 10.598 8.062 15.687v2h-2v-2h-2c-2-4-2-4-2-7l-3-1a239 239 0 0 1-3-10l-2-4h-2c.375-3 .375-3 1-6"/><path fill="#d08366" d="M648 295h5l2 4 4-1-1 3h-2l1.625 5.563L659 312c-4-1-4-1-5.922-4.09l-1.828-3.848-1.86-3.84C648 297 648 297 648 295"/><path fill="#d89377" d="M963 274c4.988 1.36 9.334 3.624 13.875 6.063l4.055 2.16L984 284v1c-2.476.155-4.957.222-7.437.25l-4.184.078L969 285l-1-3 1-2a173 173 0 0 0-6-5z"/><path fill="#e1b099" d="m1003 85-1 3h-2c-6.131 4.348-7.91 7.892-10 15l-3 2-3-1 2-3-2.875 3.063L980 107l-2-1c3.25-3.562 3.25-3.562 7-7h2v-2h2l2-4c7.693-8 7.693-8 12-8"/><path fill="#d8a187" d="m517 330 2 1-2.937 1.25L513 334l-1 4c-5 3-5 3-7 3l-1 3c-4.343 4-4.343 4-8 4 3.907-7.813 12.643-15.214 21-18"/><path fill="#d69b83" d="M567 298c3.438.25 3.438.25 7 1l1 4 4 2a252 252 0 0 1 5.75 4.125l2.984 2.195L590 313l-3 1 2 3c-5-2-5-2-7.125-4.562-3.441-4.115-7.342-7.18-11.547-10.485C568 300 568 300 567 298"/><path fill="#d29278" d="M668 566h1l.375 3.75C670 574 670 574 673 578c2.395 8.21 2.395 8.21 0 13a652 652 0 0 1-3.562-8.062l-2.004-4.536c-1.465-4.497-1.605-6.878-.434-11.402z"/><path fill="#d27f5e" d="M626 286c5.247 5.247 5.906 12.984 7.156 19.988C634 309 634 309 637 311l-1 4v-2h-2l-1 2-1-5h-4l1-5h2l-1.375-2.625C628 299 628 299 628 293l-2 1a128 128 0 0 1 0-8"/><path fill="#d08266" d="m466 142 3.188 2.813C473 148 473 148 478 151c3.375 2.563 3.375 2.563 6 5l-1 2-5-1v-2h-2v-2h-2l-1 4-3-5-2-1v-5z"/><path fill="#d7987d" d="M999 324c2.548 3.822 3.444 7.516 4.688 11.938l1.386 4.84C1006 345 1006 345 1005 349c-4-3-4-3-5-7l-2-1 1-3c.07-2.395.084-4.792.063-7.187l-.028-3.856z"/><path fill="#cf9077" d="m421 287 3 1c-1.22 3.377-2.577 6.704-4 10l-1.562 4.688c-1.296 3.886-2.782 7.569-4.438 11.312l-2 5-2 1c1.352-6.446 2.89-12.756 5-19h2a438 438 0 0 0 1-6c1.375-4.437 1.375-4.437 3-8"/><path fill="#deb39e" d="M432 209h2c.784 3.312 1.451 6.652 2.063 10 .614 3.34 1.251 6.675 1.937 10h1c.411 2.554.752 5.12 1.063 7.688l.535 4.324C441 245 441 245 441 250c-1.932-3.865-2.805-7.017-3.727-11.215l-.937-4.267-.961-4.456-.984-4.443C432 214.635 432 214.635 432 209"/><path fill="#d39278" d="m750 544 3 1c-.98 4.9-2.49 8.755-4.5 13.313l-1.906 4.363L745 566h-1c-.457-7.013.247-14.115 3.938-20.187z"/><path fill="#cf7151" d="M421 457h3l1 2 4 1 1-2c2.492 3.738 2.785 6.55 3 11l-3 1v-2h-2l-2-3-3-1c-1.375-3.562-1.375-3.562-2-7"/><path fill="#d58d70" d="M565 557c3 .25 3 .25 6 1-5.11 5.11-10.678 7.792-17.875 8.438C549 566 549 566 545 564l1-1h7l5-1v-1l3.5.188L565 561z"/><path fill="#d4967d" d="m778 349 3 1c-1.926 2.195-1.926 2.195-5 5l-3.043 2.93-3.144 2.945-3.168 2.992L764 366l-2-1 1-4h2v-5l4 1v-2c4-3 4-3 8-3z"/><path fill="#ce8c70" d="M473 500c7.908.27 13.017 1.094 20 5 2.324.697 4.657 1.37 7 2l4 2q3.494 1.515 7 3c-4.556 1.139-6.344.573-10.75-.812l-3.547-1.083L494 509v-2c-5.096-1.954-10.268-3.338-15.562-4.625L473 501z"/><path fill="#dca38c" d="M462 447c3.888 2.333 7.006 4.55 10.438 7.438 3.07 2.558 6.025 4.866 9.375 7.062L484 463c-2 1-2 1-6 0v-2l-5-1-3-1v-2l-5-2v-4l-3-2z"/><path fill="#d18d74" d="M471 218c3.5-.437 3.5-.437 7 0l1 4h-6c-2.738 2.11-2.738 2.11-5.312 4.75-2.614 2.672-2.614 2.672-4.688 4.25l-1-4h3l-.687-3-.313-3h6z"/><path fill="#d4987e" d="M816 547c4.602-.156 8.46.092 13 1l1 5h4l3 3v2c-5.002-1.239-9.358-3.637-13.875-6.062l-4.055-2.16L816 548z"/><path fill="#d7a48e" d="M758 503c2.975 2.895 5.496 5.662 8 9-.246 4.483-1.756 8.27-3.5 12.375l-1.344 3.21L760 530h-1c-.241-6.517-.241-6.517 1-9h2c.375-5.312.375-5.312 0-11l-4-3z"/><path fill="#ce7251" d="m580 401-1 2h-2l.313 3.188C577 410 577 410 573.563 413.313L570 415c-1.062-2.375-1.062-2.375-1-6 2.587-6.467 3.96-8 11-8"/><path fill="#d0866b" d="M879 341h2c-1 5-1 5-4.187 8.5L874 353l2 5h-5c-2-3-2-3-2-7l4-1v-3l3-3h3z"/><path fill="#d18e75" d="M440 337h3a164 164 0 0 1-3 11l-1.062 4.188L438 355h-2l-1 4c-.524-9.02.137-14.31 5-22"/><path fill="#d8a48f" d="M529 265c3.622.168 5.543.605 8.313 3l2.687 3q2.34 2.286 4.688 4.563c2.944 2.855 4.438 4.689 6.312 8.437l-6-3v-2l-4-2a199 199 0 0 1-6.25-5.562l-3.266-3.004L529 266z"/><path fill="#c87252" d="M973 205h2c.222 8.125-.741 15.532-4 23-.356 1.996-.7 3.995-1 6h-1a162 162 0 0 1 0-9l1-1c0-3.007-.004-6.014-.062-9.02C970 212 970 212 971 208h2z"/><path fill="#d8a48d" d="m748 409 2 1-2 2c-.312 3.938-.312 3.938 0 8l3 3c.838 4.116 1 7.782 1 12-2.728-2.728-3.708-5.629-5.187-9.187l-1.668-3.918c-1.238-4.212-1.304-6.683-.145-10.895z"/><path fill="#d7a088" d="M604 330c4.813 1.125 4.813 1.125 10 3l3 5 3 1a177 177 0 0 1 5 8c-3 0-3 0-6-2.937L615 340a427 427 0 0 0-8.84-7.18L604 331z"/><path fill="#d3876a" d="M610 194h2c.438 4 .438 4 0 8h-5l2 5c-.375 3.313-.375 3.313-1 6-2.924-3.899-5.024-7.555-7-12l1-3 1 3c3 .063 3 .063 6-1 .75-3.062.75-3.062 1-6"/><path fill="#c96e4e" d="M770 133c7.533-.628 13.844.853 21 3l3 3-5.875-.437-3.305-.247C782 138 782 138 780 137v2l-6-3-4-1z"/><path fill="#d38a6d" d="m539 594 1 2c-1.8 4.547-2.489 5.744-7 8-4.062-.562-4.062-.562-7-2 3.09-4.82 7.661-6.487 13-8"/><path fill="#d69c84" d="M637 548c2.88 3.839 4.377 7.007 6.125 11.438l1.57 3.933C646 567 646 567 647 572l-2-1v-2h-3a262 262 0 0 1-1-8h-2l-1-6h-2q.378-3.518 1-7"/><path fill="#d79c84" d="m980 519-1 4c-3.545 2.095-7.166 3.467-11 5l-1 2q-4.989.617-10 1c4.066-3.05 8.135-5.313 12.625-7.687l4.602-2.45C978 519 978 519 980 519"/><path fill="#e0b39c" d="M1020 427c1.213 3.638.653 5.204-.312 8.875l-.801 3.117C1018 442 1018 442 1016 447l-.5 3.313-.5 2.687h-2a101 101 0 0 0-3 6c-1.504-4.513.419-7.153 2.188-11.5l1.953-4.867L1016 438a778 778 0 0 0 4-11"/><path fill="#d6977f" d="m504 411 2 1v2l3.5-.25 3.5.25v6h4v3l4 1c-3 1-3 1-6.031-.512l-3.469-2.175-3.469-2.137C505 417 505 417 502 413h2z"/><path fill="#d18568" d="M914 386h2c2.809 4.474 3.082 5.592 2 11-3.543 7.771-3.543 7.771-6 9 .91-7.543.91-7.543 1.625-11.187C914 392 914 392 913 387z"/><path fill="#d8a692" d="M616 658c10.11.453 19.332 2.8 28 8l1 2c-9.81-2.522-19.49-5.506-29-9z"/><path fill="#cd8468" d="M745 360c1.312 5.25.365 8.8-1 14l-4 4h-2l-1 2c1.13-5.651 2.369-10.847 5-16h2z"/><path fill="#d18c70" d="M918 223c5-.375 5-.375 10 0a105 105 0 0 1-4 5h-2v2c-2.875 2.688-2.875 2.688-6 5l-2-1 1-5h3z"/><path fill="#d59c82" d="M939 144c0 4.985-3.746 7.47-7 11l-3 3h-2v2l-6 2-3 3h-2l-2 4-2-1 3-4h2v-2c4-3 4-3 6-3l1-3 5-2c2.676-2.383 2.676-2.383 5.313-5.125l2.675-2.758z"/></svg>