<svg xmlns="http://www.w3.org/2000/svg" width="1024" height="1024"><path fill="#cf6d4d" d="M416 332c5.168 1.215 9.366 3.839 13.875 6.563 10.468 6.252 21.04 12.284 31.813 18a198 198 0 0 1 12.437 7.25c6.92 4.333 14.135 8.028 21.387 11.773 3.797 2.042 7.352 4.2 10.926 6.601L511 385c4.852-1.213 8.314-3.389 12.625-5.937 6.38-3.74 12.775-7.426 19.25-11 13.45-7.437 26.764-15.109 40.063-22.813l4.648-2.691q4.324-2.506 8.64-5.024l3.837-2.223 3.347-1.949C606 332 606 332 608 332c-2.703 10.813-11.842 20.733-18.117 29.805-5.045 7.342-9.955 14.774-14.883 22.195l-5.75 8.625-2.984 4.477L563 402l-1.893 2.839-8.164 12.248q-4.686 7.033-9.384 14.058c-8.478 12.678-8.478 12.678-12.371 18.855a280 280 0 0 1-8.426 12.43c-1.94 2.831-3.684 5.752-5.45 8.695L514 476h-4c-1.973-2.5-1.973-2.5-4.062-6-3.28-5.343-6.656-10.55-10.25-15.687-3.994-5.764-7.793-11.612-11.5-17.563-4.758-7.607-9.78-14.952-14.972-22.262-5.036-7.131-9.665-14.483-14.279-21.894-3.814-5.965-7.923-11.692-12.046-17.446-3.79-5.439-7.25-11.056-10.72-16.703-2.513-3.987-5.334-7.683-8.171-11.445-8-12.307-8-12.307-8-15"/><path fill="#cf6f4f" d="M634 318c4.254 1.701 6.813 3.17 10.375 5.875 3.128 2.334 6.093 4.389 9.5 6.313C657 332 657 332 659.188 334.25c3.388 3.313 7.041 5.865 10.937 8.563l4.586 3.199L679 349a573 573 0 0 1 8.277 5.992 409 409 0 0 0 6.352 4.578l3.683 2.68 3.426 2.453L703 367c-2.266 4.532-3.662 5.316-7.937 7.813l-3.594 2.132L688 379l-4.937 3.188c-6.517 4.18-13.22 8.051-19.92 11.93-4.6 2.687-9.057 5.464-13.405 8.546-3.77 2.655-7.455 4.998-11.488 7.211a246 246 0 0 0-14.062 8.5c-5.151 3.357-10.375 6.53-15.688 9.625-6.471 3.772-12.788 7.717-19.066 11.8-4.68 2.998-9.453 5.828-14.227 8.673a1404 1404 0 0 0-15.082 9.214l-2.63 1.62C551.92 462.76 546.447 466.347 541 470a159 159 0 0 1-10 6l-3-1c3.123-7.044 8.211-13.36 12.813-19.5 5.521-7.396 10.541-15.074 15.562-22.812 6.388-9.847 12.957-19.45 19.914-28.903 3.12-4.355 5.88-8.852 8.625-13.45 3.47-5.548 7.34-10.814 11.14-16.14 3.372-4.802 6.53-9.712 9.669-14.668 3.402-5.27 6.998-10.402 10.57-15.558 2.579-3.781 5.064-7.607 7.52-11.469 7.306-11.357 7.306-11.357 10.187-14.5"/><path fill="#cf6e4e" d="M388 318c4.543 1.514 5.775 4.72 8.41 8.664l3.252 4.844 3.4 5.117 3.319 4.953a5732 5732 0 0 1 12.341 18.523 1177 1177 0 0 0 14.054 20.675c3.855 5.589 7.598 11.253 11.349 16.911 8.433 12.722 8.433 12.722 12.367 18.301 5.101 7.236 9.945 14.646 14.836 22.024A906 906 0 0 0 485 458q2.704 3.958 5.375 7.938l2.586 3.84C495 473 495 473 496 476c-4.418-1.311-7.987-3.036-11.875-5.5l-3.45-2.168c-1.212-.77-2.425-1.54-3.675-2.332q-3.842-2.409-7.687-4.812l-4.063-2.543c-5.98-3.721-11.991-7.388-18.004-11.055a2336 2336 0 0 1-25.121-15.527 817 817 0 0 0-15.75-9.625A452 452 0 0 1 392 413.5c-6.037-3.914-12.171-7.638-18.352-11.32-8.244-4.926-16.387-10.014-24.523-15.118-6.578-4.124-13.222-8.122-19.918-12.054-6.01-3.763-6.01-3.763-8.207-6.008 2.333-4.666 5.213-6.514 9.41-9.465 4.373-3.088 8.666-6.282 12.965-9.473a653 653 0 0 1 19.824-14.101 174 174 0 0 0 7.738-5.774c3.287-2.578 6.57-4.91 10.063-7.187l3.688-2.812z"/><path fill="#cf6c4c" d="M635 620c-1.802 4.504-3.773 7.374-6.762 11.105-2.762 3.573-5.337 7.257-7.926 10.957A584 584 0 0 1 608 659c-5.108 6.76-10.005 13.645-14.867 20.582-3.321 4.683-6.717 9.304-10.133 13.918-5.42 7.322-10.704 14.725-15.934 22.184-3.317 4.67-6.714 9.279-10.129 13.879-5.285 7.134-10.355 14.379-15.343 21.722-3.271 4.685-6.773 9.164-10.301 13.656-2.26 3.016-4.26 6.099-6.23 9.309C522 779 522 779 519 780c-2.178-2.178-1.163-8.067-1.177-10.78l-.02-3.114c-.02-3.417-.031-6.834-.041-10.25l-.013-3.526q-.03-9.237-.044-18.474c-.011-6.372-.046-12.745-.085-19.117-.026-4.89-.035-9.778-.038-14.667q-.008-3.525-.035-7.049c-.025-3.285-.024-6.57-.017-9.854l-.018-5.67C518 673 518 673 522 669c2.545-1.394 2.545-1.394 5.469-2.672 1.11-.49 2.219-.982 3.362-1.488l3.669-1.59 7.918-3.488 4.236-1.854c5.89-2.585 11.762-5.208 17.635-7.829A8496 8496 0 0 1 605 632.063l4.1-1.81 3.775-1.655 3.305-1.453C619 626 619 626 623 625v-2c9-3 9-3 12-3"/><path fill="#cf6e4f" d="M389 620c7.022 1.76 13.392 4.383 19.938 7.438q2.913 1.347 5.828 2.69l3.076 1.423c5.427 2.49 10.886 4.906 16.346 7.324l6.882 3.05 3.47 1.538q5.135 2.283 10.265 4.58c12.591 5.629 25.215 11.148 37.973 16.393 4.5 1.872 8.302 3.624 12.222 6.564.526 4.141.526 4.141.562 9.485l.036 2.948c.035 3.224.04 6.448.047 9.672q.025 3.361.057 6.723.059 7.056.082 14.11c.02 6.019.063 12.036.114 18.054.048 5.746.085 11.492.122 17.238l.023 3.311a2971 2971 0 0 1 .042 9.327l.024 5.356c-.099 4.337-.479 8.487-1.109 12.776-3.783-2.76-6.115-5.358-8.5-9.375-2.555-4.188-5.327-7.875-8.5-11.625v-2h-2a586 586 0 0 1-4.762-7.555c-3.421-5.266-7.264-10.198-11.058-15.199-4.204-5.614-8.22-11.351-12.246-17.094-3.648-5.162-7.396-10.245-11.149-15.332-3-4.114-5.927-8.274-8.848-12.445-3.62-5.157-7.311-10.22-11.187-15.187-3.824-4.903-7.286-9.946-10.684-15.149-3.036-4.466-6.367-8.688-9.687-12.945-3.28-4.266-6.316-8.67-9.379-13.094a1541 1541 0 0 0-6.496-8.75C389 622 389 622 389 620"/><path fill="#cf6f50" d="M775 246c-.887 2.527-.887 2.527-2.687 5.938l-2.032 3.87a1655 1655 0 0 1-9.562 17.325c-7.54 13.497-14.863 27.111-22.157 40.742-10.092 18.857-10.092 18.857-14.75 27.5l-1.6 2.988A630 630 0 0 1 718 352c-.677 1.25-1.354 2.5-2.05 3.79L714 358c-5.643-2.257-10.122-5.46-15-9l-2.672-1.922a738 738 0 0 1-14.015-10.39c-4.662-3.515-9.423-6.843-14.25-10.125-5.292-3.632-10.569-7.276-15.75-11.063l-3.325-2.406L647 311c3.119-3.119 5.796-4.649 9.688-6.687l3.574-1.887c4.026-2.061 8.065-4.091 12.113-6.11 9.013-4.498 17.979-9.086 26.938-13.691 1.633-.84 3.266-1.679 4.95-2.543 9.467-4.87 18.916-9.77 28.327-14.75 7.375-3.9 14.768-7.764 22.172-11.61 3.091-1.606 6.179-3.22 9.258-4.85 7.643-3.984 7.643-3.984 10.98-2.872m-525-1c5.057 1.011 8.118 2.492 12.625 4.938 9.547 5.115 19.17 10.069 28.813 15 11.22 5.748 22.34 11.613 33.351 17.753 5.308 2.91 10.707 5.6 16.137 8.274 6.26 3.127 12.43 6.42 18.61 9.703 3.85 2.01 7.728 3.907 11.651 5.77 1.589.845 3.177 1.69 4.813 2.562v3c-7.54 6.47-15.844 12.024-24.293 17.23-4.358 2.849-8.407 6.083-12.508 9.286-4.65 3.611-9.411 7.058-14.199 10.484l-2.73 1.98c-4.046 2.899-7.624 5.162-12.27 7.02-1.746-1.953-1.746-1.953-3.437-5.25l-2.06-3.89L302 344a2490 2490 0 0 0-5.154-9.58q-1.854-3.435-3.698-6.876c-3.095-5.772-6.23-11.507-9.523-17.169-2.65-4.567-5.054-9.196-7.375-13.937-3.633-7.388-7.677-14.502-11.805-21.62-3.919-6.795-7.501-13.706-10.922-20.763C252 251 252 251 250 248z"/><path fill="#cf6e4f" d="M742 451h1c.784 12.717.759 25.518.911 38.258.072 5.924.175 11.844.351 17.766.17 5.719.26 11.434.295 17.156q.04 3.268.165 6.534c.244 6.67.246 12.834-1.722 19.286-4.822 4.537-9.897 6.626-16 9a119 119 0 0 0-6.168 4.07c-6.211 4.239-12.648 8.023-19.144 11.805-8.612 5.05-17.03 10.245-25.27 15.887-5.108 3.345-10.445 6.247-15.793 9.187a123 123 0 0 0-9 5.614C648 608 648 608 646 608c1.068-5.341 2.744-8.093 5.688-12.625 2.957-4.62 5.838-9.198 8.375-14.062 2.064-3.89 4.37-7.422 6.937-11 4.38-6.183 8.165-12.627 11.938-19.188 4.676-8.13 9.523-16.041 14.812-23.793 4.345-6.435 8.396-13.063 12.227-19.816 1.915-3.328 3.93-6.548 6.023-9.766A2721 2721 0 0 0 723.375 480l3.023-4.75C729 471 729 471 730.531 467.898c1.87-3.69 4.18-6.916 6.594-10.273l2.695-3.773z"/><path fill="#d07152" d="M281 451c3.407 3.334 6.07 6.393 8.5 10.5l2.07 3.45L294 469q3.18 5.16 6.375 10.313l1.69 2.73a3636 3636 0 0 0 10.373 16.644 748 748 0 0 1 8.804 14.422c5.452 8.965 11.048 17.857 16.899 26.567a156 156 0 0 1 6.609 10.949 196 196 0 0 0 9 14.438c4.693 6.916 8.817 14.065 12.902 21.347 2.855 5.062 5.829 9.972 9.098 14.778C379 606 379 606 379 608c-5.11-1.022-7.495-2.715-11.613-5.719-4.384-2.952-8.967-5.512-13.574-8.093a292 292 0 0 1-21.81-13.56c-5.822-3.823-11.844-7.287-17.86-10.794-6.835-4.005-13.435-8.277-19.983-12.736-3.94-2.616-7.991-4.87-12.16-7.098-1-1-1-1-1.12-4.84l.006-5.27v-5.945l.016-6.48.005-6.587q.006-8.688.024-17.376.014-8.858.02-17.715.016-17.393.049-34.787"/><path fill="#cf6e4f" d="M519 275c4.547-.155 6.584.448 10.727 2.059l3.378 1.136q3.608 1.216 7.192 2.502c4.796 1.687 9.646 3.151 14.514 4.614 6.203 1.868 12.381 3.818 18.564 5.752l7.559 2.353a5440 5440 0 0 1 14.463 4.526 801 801 0 0 0 12.62 3.847c.87.26.87.26 5.272 1.582l4.561 1.338L621 306v3a171 171 0 0 1-10.187 5.688q-3.057 1.618-6.11 3.246l-2.994 1.593c-3.293 1.79-6.478 3.72-9.646 5.723-4.389 2.768-8.844 5.275-13.438 7.688-6.256 3.287-12.295 6.833-18.332 10.503-6.267 3.736-12.627 7.302-18.99 10.873a644 644 0 0 0-15.553 8.998C521 366 521 366 518 366c-.367-2.829-.367-2.829-.356-6.846l-.01-4.535.038-4.97.006-5.079q.01-5.35.04-10.699c.032-5.423.042-10.846.048-16.27l.03-10.39.014-4.885q.027-4.539.122-9.078.068-4.282-.073-8.564c-.017-3.95-.017-3.95 1.141-9.684"/><path fill="#cf6f4f" d="M387 427c5.234 1.047 7.818 2.562 12.25 5.438 5.667 3.623 11.368 7.128 17.188 10.5 7.175 4.189 14.135 8.643 21.085 13.195 4.912 3.146 9.899 6.14 14.914 9.117C467.48 474.259 467.48 474.259 472 478c-1.803 3.605-3.563 6.064-6.125 9.125a618 618 0 0 0-9.25 11.375c-4.786 5.94-6.423 7.81-13.89 8.668l-4.387.518c-1.518.165-3.035.33-4.598.502l-4.55.537c-18.051 2.074-18.051 2.074-23.25-1.541l-4.262-3.747c-9.43-8.119-9.43-8.119-14.5-11.5-4.967-3.484-7.621-5.679-9.117-11.638l-.59-4.268-.659-4.668-.635-4.863-.693-4.863c-1.572-11.49-1.387-16.883 5.506-26.637l3.063-4.625z"/><path fill="#cf6f50" d="M638 428c2.29 2.906 2.29 2.906 4.625 6.5 4.194 6.41 4.194 6.41 6.375 7.5 1.668 8.746.112 16.974-1.125 25.688l-.61 4.822-.648 4.627-.575 4.21c-2.068 7.247-8.829 10.879-14.702 15.087C628 499 628 499 624.879 502.098c-5.22 4.956-8.683 7.765-16.027 8.222-5.683-.515-11.225-1.38-16.852-2.32q-4.937-.294-9.875-.562c-5.543-.641-8.889-1.182-12.687-5.375A170 170 0 0 1 566 497a421 421 0 0 0-4.687-5.687l-2.25-2.797c-1.678-2.046-3.452-4.013-5.25-5.954L552 480c2.671-5.343 6.723-7.05 11.75-9.875 9.042-5.202 17.895-10.628 26.663-16.279 5.797-3.73 11.665-7.317 17.587-10.846q4.566-2.776 9.125-5.562l4.508-2.754q4.394-2.701 8.672-5.586C634 427 634 427 638 428"/><path fill="#cf7153" d="M505 276c.54 3.372.54 3.372.594 8.154l.089 5.39c.01 1.943.02 3.887.032 5.89l.072 5.979q.07 6.278.107 12.557c.032 5.379.095 10.757.168 16.135.067 5.11.109 10.22.153 15.329l.075 5.883.022 5.4.038 4.784L506 365l-3 1a203 203 0 0 1-10.687-5.875L486 356.48l-3.121-1.814c-3.665-2.12-7.364-4.176-11.067-6.228-6.11-3.43-12.126-7.004-18.125-10.625-6.82-4.115-13.667-8.052-20.687-11.813a1926 1926 0 0 1-11.895-6.687 636 636 0 0 0-8.242-4.563L409 312.625l-3.5-1.898L403 309v-3c4.3-1.592 8.544-2.956 12.938-4.25l4.209-1.276q4.732-1.434 9.466-2.852a3075 3075 0 0 0 17.825-5.438A9937 9937 0 0 1 484 281l5.11-1.56 4.613-1.39 3.996-1.209C501 276 501 276 505 276"/><path fill="#d07152" d="M642 631c5.861-.017 9.758 3.207 14.438 6.438l4.82 3.296L666 644q3.901 2.602 7.813 5.188l3.597 2.43a244 244 0 0 0 7.586 4.827l3.754 2.367 3.422 2.083L694 663c-3.413 5.214-9.614 8.04-14.875 11.188a3120 3120 0 0 0-8.518 5.196c-4.685 2.904-9.234 6.005-13.802 9.089-4.39 2.916-8.842 5.724-13.305 8.527-5.72 3.593-11.395 7.23-17 11-7.158 4.81-14.44 9.408-21.742 13.996A1222 1222 0 0 0 591.5 730.5C559.916 751 559.916 751 557 751c3.956-7.912 9.186-15.044 14.625-22 4.34-5.557 8.417-11.273 12.438-17.062 4.416-6.36 8.902-12.643 13.585-18.81 6.347-8.444 12.6-16.982 18.442-25.784a166 166 0 0 1 7.785-10.657c3.313-4.26 6.458-8.562 9.438-13.062l1.949-2.941a295 295 0 0 0 4.363-6.996z"/><path fill="#cf7050" d="M511 508c5.104 1.701 7.186 6.95 10 11.313 6.824 10.453 6.824 10.453 10 14.687v2h2c1.114 1.726 2.14 3.51 3.125 5.313 3.074 5.45 6.488 10.433 10.273 15.41C548 559 548 559 549 562c-1.575 3.405-3.25 6.685-5 10a2487 2487 0 0 0-3.5 7.063c-4.136 8.279-8.413 16.482-12.697 24.686a1054 1054 0 0 0-11.315 22.337C515 629 515 629 513 632c-3-1-3-1-4.738-3.985l-1.907-3.988-2.135-4.406L502 615a2919 2919 0 0 0-4.324-8.684l-4.363-8.754-2.221-4.466c-3.553-7.123-7.17-14.167-11.092-21.096-4.143-8.286-4.143-8.286-3-14a203 203 0 0 1 5.688-8.75l3.136-4.61L489 540l3.148-4.742a231 231 0 0 1 6.79-9.633c3.955-5.386 7.508-10.967 11.062-16.625z"/><path fill="#d07153" d="M382 632a141 141 0 0 1 7 9l2.324 3.219A2146 2146 0 0 1 399 655a1914 1914 0 0 0 18.293 25.297 952 952 0 0 1 7.52 10.453c4.02 5.652 8.122 11.24 12.25 16.813 3.983 5.379 7.91 10.784 11.687 16.312 3.792 5.55 7.838 10.866 11.988 16.152C467 748.257 467 748.257 467 751c-8.852-3.54-16.592-8.606-24.437-13.937-5.201-3.528-10.4-7.008-15.801-10.223a230 230 0 0 1-11.512-7.34c-6.19-4.158-12.45-8.198-18.75-12.187q-11.556-7.32-23-14.813a1949 1949 0 0 0-26.057-16.758A2036 2036 0 0 1 340 671l-2.63-1.628c-2.175-1.38-4.28-2.867-6.37-4.372v-3c2.71-2.016 2.71-2.016 6.375-4.25a281 281 0 0 0 14.921-9.854c4.81-3.373 9.686-6.645 14.579-9.896l3.086-2.098c7.58-5.017 7.58-5.017 12.039-3.902"/><path fill="#cf6d4c" d="M339 519c4.687 1.875 7.319 3.625 11.188 6.75l3.722 2.977L358 532c16.16 12.663 16.16 12.663 24.375 18.75 5.117 3.802 9.993 7.845 14.836 11.988L400 565l2.602 2.293c7.857 3.947 18.604 1.447 26.964.176l3.156-.471c3.281-.491 6.561-.994 9.84-1.498q4.968-.752 9.938-1.498 4.473-.675 8.944-1.36C466 562 466 562 469 562c-1.373 4.12-3.287 4.556-7.062 6.625l-3.852 2.137L454 573c-7.856 4.377-15.684 8.775-23.375 13.438-6.895 4.167-13.895 8.11-20.965 11.972a346 346 0 0 0-9.664 5.586l-4.871 2.879-4.43 2.68L387 611c-3.935-3.935-5.3-6.387-7.5-11.375-3.222-7.057-6.735-13.85-10.5-20.625-3.556-6.415-6.944-12.827-10-19.5-4.004-8.74-8.609-17.102-13.266-25.504C339 521.691 339 521.691 339 519"/><path fill="#cf6b4b" d="M685 519c-1.066 5.33-2.865 8.85-5.437 13.625l-2.739 5.121L674 543c-4.71 8.875-9.407 17.75-13.875 26.75-3.361 6.77-6.819 13.486-10.312 20.188l-1.514 2.907a627 627 0 0 1-2.914 5.51c-1.36 2.598-2.618 5.249-3.873 7.899L639 610c-5.873.96-11.638-3.995-16.562-6.937-5.067-2.994-9.955-5.87-15.438-8.063v-2a381 381 0 0 0-6-2 118 118 0 0 1-5.625-3.437c-5.68-3.581-11.476-6.855-17.375-10.063-17.862-9.759-17.862-9.759-23-13.5v-2c3.831.257 7.57.643 11.375 1.125l3.524.423a591 591 0 0 1 28.118 4.181c17.746 2.93 17.746 2.93 24.14-.346l2.343-2.258 2.73-2.496L630 560a472 472 0 0 1 5.813-4.937l3.011-2.52c4.485-3.591 9.169-6.872 13.867-10.176 3.687-2.638 7.213-5.423 10.727-8.285C682.122 519 682.122 519 685 519"/><path fill="#d07050" d="M736 570c-1.384 6.824-3.772 13.2-6.191 19.719l-1.883 5.085L726 600q-1.77 4.803-3.535 9.605l-3.528 9.582-1.775 4.827a2684 2684 0 0 1-3.483 9.405 441 441 0 0 0-3.307 9.353l-1.556 4.466-1.357 4.021L706 654c-3.826-.956-5.874-2.011-9.125-4.125l-2.969-1.93c-3.366-2.253-6.672-4.586-9.976-6.93-3.76-2.586-7.593-5.047-11.43-7.515L664 628l-3.352-2.156c-2.283-1.518-4.48-3.165-6.648-4.844 1.58-4.74 5.34-5.688 9.625-8.062 6.151-3.46 12.164-7.026 18-11 6.4-4.352 12.982-8.265 19.676-12.145 7.442-4.423 14.71-9.114 21.996-13.79C732.697 570 732.697 570 736 570"/><path fill="#cf7153" d="M288 570c5.83 1.166 9.887 3.794 14.813 6.938l2.83 1.78q2.848 1.791 5.689 3.593c3.649 2.31 7.315 4.593 10.98 6.876q5.716 3.575 11.422 7.16l3.829 2.403 3.91 2.46a568 568 0 0 0 10.648 6.392l3.195 1.891q3.149 1.861 6.319 3.686c2.523 1.498 4.954 3.148 7.365 4.821v4c-3.156 2.41-3.156 2.41-7.5 5.063-10.643 6.637-20.934 13.717-31.187 20.937-8.625 6-8.625 6-12.313 6-1.481-3.469-2.738-6.869-3.937-10.437q-1.194-3.433-2.391-6.864l-1.295-3.748c-2.457-7.049-5.014-14.061-7.565-21.076l-1.474-4.088a630 630 0 0 0-9.016-23.43c-1.884-4.785-3.407-9.287-4.322-14.357"/><path fill="#cf6c4b" d="M711 380c4.25 1.417 4.66 3.62 6.688 7.563l2.125 4.105a2262 2262 0 0 1 8.355 16.71 188 188 0 0 0 4.832 8.935c2 3.687 2 3.687 2 6.687l2 1c3 6.23 3 6.23 3 10-2.55-.3-2.55-.3-6.312-1.312l-4.41-1.184a2070 2070 0 0 1-28.996-8.517q-4.503-1.353-9.009-2.698c-26.597-7.95-26.597-7.95-29.273-9.289v-2c2.45-1.68 4.963-3.268 7.5-4.812l4.219-2.583L678 400l4.07-2.547c5.034-3.142 10.122-6.186 15.22-9.223a359 359 0 0 0 6.796-4.18c2.26-1.421 4.582-2.747 6.914-4.05"/><path fill="#ce6c4c" d="M311 380c5.558.302 10.782 4.793 15.375 7.688l5.566 3.5 2.958 1.867c3.26 2.044 6.535 4.06 9.816 6.07l3.332 2.052q3.238 1.994 6.484 3.972c2.524 1.563 5.002 3.2 7.469 4.851v2a252 252 0 0 1-12 4.188l-3.713 1.214c-11.69 3.792-23.454 7.28-35.287 10.598l-3.554 1.011c-3.624 1.03-7.253 2.043-10.884 3.051l-3.45.981c-2.684.734-5.396 1.358-8.112 1.957l-1-2c3.44-8.29 7.33-16.55 12.063-24.187a175 175 0 0 0 12.804-25.43z"/><path fill="#cf7252" d="M698 436c4.102.181 7.072.861 11 2l5.438 1.574c11.038 3.387 11.038 3.387 15.562 5.426-1.032 4.128-2.513 6.947-4.625 10.625l-1.977 3.477c-1.806 2.935-3.74 5.793-5.734 8.605-4.63 6.536-8.484 13.489-12.414 20.459-3.655 6.383-7.54 12.175-12.25 17.834h-1c.204-14.321 1.669-28.625 3-42.875l.54-5.934c.976-10.602.976-10.602 1.46-15.191l.293-3.606z"/><path fill="#ce6e4f" d="M326 436c1.68 5.043 1.743 10.39 2.191 15.664l.332 3.824q.348 4.012.689 8.024c.347 4.076.703 8.151 1.06 12.226l.67 7.801.321 3.675c.53 6.285.851 12.472.737 18.786-3.65-3.425-6.309-6.783-8.855-11.086l-2.122-3.55-2.21-3.739c-5.397-9.02-10.885-17.913-16.782-26.617-2.874-4.257-5.575-8.494-8.031-13.008l1-3c3.328-1.313 6.716-2.477 10.125-3.562l5.633-1.817C322.468 436 322.468 436 326 436"/><path fill="#ce6e4d" d="M416 332c5.168 1.215 9.366 3.839 13.875 6.563 5.798 3.463 11.612 6.878 17.5 10.187l3.93 2.223a170 170 0 0 0 7.14 3.71c3.055 1.505 3.055 1.505 7.555 4.317 0 7.818 0 7.818-2 12-3.405 2.74-5.74 3.935-10 5-.687 3-.687 3-1 6l-1 1h2v-2l4-1 1 2 1-2h2v4h2c.41 3.645.51 7.274.656 10.938L465 398h2l1 3h-3v4h2v2l3-1c.563 2.563.563 2.563 1 6 .633 2.01 1.29 4.015 2 6-4.927-4.384-8.14-9.687-11.562-15.25-4.345-6.953-8.778-13.774-13.563-20.437-5.358-7.465-10.263-15.154-15.086-22.973-2.749-4.278-5.727-8.283-8.789-12.34a266 266 0 0 1-4.375-6.875l-2.086-3.367C416 334 416 334 416 332"/><path fill="#cf6f4f" d="M608 332c-2.703 10.813-11.842 20.733-18.117 29.805-6.193 9.012-12.204 18.147-18.238 27.265l-3.27 4.93-2.977 4.5C563 402 563 402 561 404c-.25-6.625-.25-6.625 2-10l2 1-3-5v-2h2l1-4 1 2h2v-3l4 1v-6h-4c1-4 1-4 2-6h-2v-3l-4.062 1.188L560 371c-.323-4.524 1.276-6.369 4-10l-1-1-4 2h-3l-1 5-4 4h-3l-1 3c-4 1-4 1-8 1l-3 3-1-1q-4.009.431-8 1c3.344-3.344 6.417-4.912 10.625-7.062 7.336-3.822 14.461-7.89 21.566-12.122 6.91-4.046 13.904-7.934 20.905-11.819A583 583 0 0 0 599 336c6.737-4 6.737-4 9-4"/><path fill="#d1785b" d="M389 620c7.022 1.76 13.392 4.383 19.938 7.438l5.757 2.66 3.068 1.418c5.827 2.671 11.69 5.262 17.55 7.859l9.768 4.331Q451.042 646.35 457 649l-4 2v-2c-4.875-.312-4.875-.312-10 0l-2 3-3-1 1-2c-2.666-.044-5.334-.04-8 0l-3-1v4h-2v4l2 1-1 2h-3l-1 5-2 2c-2.066-2.445-2.066-2.445-4.562-6.125-3.323-4.813-6.663-9.582-10.188-14.25l-2.227-2.953-5.148-6.797C389 622.565 389 622.565 389 620"/><path fill="#d27f62" d="M390 558c4.774 2.387 8.332 5.608 12.344 9.102 7.994 4.15 18.65 1.67 27.222.367l3.156-.471c3.281-.491 6.561-.994 9.84-1.498q4.968-.752 9.938-1.498 4.473-.675 8.944-1.36C466 562 466 562 469 562c-1.373 4.12-3.287 4.556-7.062 6.625l-3.852 2.137L454 573c-7.856 4.377-15.684 8.775-23.375 13.438-6.975 4.218-14.069 8.19-21.219 12.105-5.384 3.002-10.642 6.198-15.879 9.45L391 609l-1-4c3.282-4.15 4.66-4.932 10-6l4-3 5-1 1-3h2v-4h4v-6l6-2v-2h4c1-3.062 1-3.062 1-6l-4 1-2-1c-4.71-.28-9.418-.448-14.133-.621L403 571v-2l-4-1-3-3-3-2v-2h-2z"/><path fill="#cf7152" d="M339 519c4.687 1.875 7.319 3.625 11.188 6.75l3.722 2.977L358 532q4.556 3.57 9.125 7.125l4.57 3.559a624 624 0 0 0 14.118 10.546C388 555 388 555 390 558l-2 1-4-3h-4l-1 2-3-1c-1-4-1-4 1-8h-4v-2h-2l-2 4-3 5h-2v5l3-3 3 1q.063 3.5 0 7l2 1c-1 5-1 5-3 9l3 1-1 3h2v4c4 1 4 1 6 0v3l2 1v5h-2v2l2 1-2 3c-1.559-2.469-1.559-2.469-3.437-6.5a548 548 0 0 0-10.063-20 975 975 0 0 1-11.242-22.023 791 791 0 0 0-5.64-10.954l-1.806-3.446a2431 2431 0 0 0-3.597-6.826C339 521.219 339 521.219 339 519"/><path fill="#cf795c" d="m638 553 2 1-2 2v5h-5l1 4-3 3h-6l-2 3c-4.062.477-4.062.477-9 .625-8.837.294-8.837.294-11 1.375l-3-1v2l-2 1 3 1 3-2v4l1 4-1.687 3.688L602 589l4 1 1 3c-4.358-1.292-7.817-2.97-11.625-5.437-5.68-3.581-11.476-6.855-17.375-10.063-17.862-9.759-17.862-9.759-23-13.5v-2c3.831.257 7.57.643 11.375 1.125l3.524.423a591 591 0 0 1 28.118 4.181c17.794 2.937 17.794 2.937 24.28-.452l2.453-2.34 2.7-2.464L630 560a237 237 0 0 1 8-7"/><path fill="#cf7659" d="M685 519c-1.066 5.33-2.865 8.85-5.437 13.625l-2.739 5.121L674 543c-4.71 8.875-9.407 17.75-13.875 26.75-3.361 6.77-6.819 13.486-10.312 20.188l-1.514 2.907q-1.443 2.761-2.903 5.515a740 740 0 0 0-4.056 7.82L639 610c-3.25.188-3.25.188-6-1l-1-2q2.997-.52 6-1l1-2h2l-.562-3-.438-3h3v-3h2v-6h2v-4h2l-1-3h2v-2h3v-4l-2-1 2-1 2 1v-2h2v-4l3-3c1.083-4.332 1.543-8.563 2-13l-4 2-2-5h-2l-1-2c-5 2-5 2-8.187 3.688L642 553l-2-1c2.533-2.129 5.158-4.149 7.813-6.125l4.785-3.59L657 539a666 666 0 0 0 4.75-3.687C682.68 519 682.68 519 685 519"/><path fill="#d07b5e" d="M589 705c1 2 1 2 .813 6.563L590 716l4 1 3.188 1.25L600 719l1-3h2v2l2 1v-5c2 3 2 3 3 6-3.618 2.478-7.245 4.747-11 7a1124 1124 0 0 0-6.5 4.188C559.707 751 559.707 751 557 751c4.602-9.203 10.933-17.32 17.262-25.39 4.327-5.704 8.334-11.63 12.367-17.544z"/><path fill="#d07a5e" d="M698 436c9.932.56 19.752 4.51 29 8v1c-5-.312-5-.312-10-1v-2l-5 1-1-2c-5.469-1.84-5.469-1.84-11-2-1.317 4.37-1.587 6.991-1.5 11.438l-.121 3.376c-.035 3.182-.035 3.182.621 8.186l5-1a161 161 0 0 1 0 11h2v2h-2l1 4h-2l1 4h2l.5-3 .5-3h2c1 4 1 4-1.352 8.555a443 443 0 0 1-3.273 5.32l-1.621 2.684c-2.934 4.789-5.96 9.291-9.754 13.441h-1c.204-14.321 1.669-28.625 3-42.875l.54-5.934c.976-10.602.976-10.602 1.46-15.191l.281-3.61z"/><path fill="#ce6a49" d="m430 647 1 2h8v2h2l3-3c5.29.227 9.059 1.024 14 3v2l4 1c-4.769 1.907-7.05 2.09-12 2l-4 1h-2l-2 4-4 1 1 3 3-1v2h2c-.75 3-.75 3-2 6h-2v-2l-3 3c-3.062-.375-3.062-.375-6-1l-2 1v-3l-5-2-2-4c2-5 2-5 4-7v-5h2v-4z"/><path fill="#d07254" d="M518 673c2.139 4.278 2.27 6.36 2.319 11.063l.06 4.368.035 4.71.059 4.825c.06 5.095.106 10.19.152 15.284l.117 10.352Q520.885 736.3 521 749l2-3 5 1v3h4v6l4 1c-2.036 4.071-4.36 7.708-6.875 11.5l-2.617 3.969C524 776 524 776 520 780l-2-1c-.19-3.277-.235-6.562-.227-9.844v-3.133c0-3.436.016-6.872.032-10.308l.008-7.126c.008-6.265.028-12.53.05-18.795.02-6.388.03-12.775.04-19.163q.032-18.815.097-37.631"/><path fill="#cc6949" d="m368 332 2 1-3 4-1 5a391 391 0 0 1-9 2c-2.875 2.5-2.875 2.5-5 5-3 2-3 2-7 2l-1 5-3 2 1 4-1 5 3 1-5 3 1 5c-4.627 1.542-7.549-.243-12-2-4.187-2.437-4.187-2.437-7-5 2.333-4.666 5.213-6.514 9.41-9.465 4.373-3.088 8.666-6.282 12.965-9.473 6.663-4.93 13.392-9.74 20.254-14.39C366 334 366 334 368 332"/><path fill="#d17a5d" d="M439 712c3.598 3.416 6.44 6.875 9.188 11 3.973 5.854 8.182 11.463 12.55 17.027C467 748.257 467 748.257 467 751c-8.744-3.498-16.446-8.462-24.187-13.75l-2.674-1.785c-2.091-1.425-4.123-2.935-6.139-4.465l2-1 1-3 2-1c2.531-5.189 1.673-8.608 0-14"/><path fill="#d28166" d="M635 620c-1.812 4.53-3.826 7.484-6.855 11.234-3.554 4.583-6.755 9.417-10.008 14.215L616 648c-2-2-2-2-2.437-5.125L613 640h-3l-1-3h-3v-2c-4.437.75-4.437.75-9 2l-1 2-2-2c2.22-1.329 2.22-1.329 5.64-2.82l3.684-1.621 3.926-1.684 3.879-1.707C620.686 625 620.686 625 623 625v-2c9-3 9-3 12-3M387 427c5.364 1.073 8.482 3.014 13 6-3.993.998-6.077.98-10 0v-2h-2v6l-5 1c-3.783 4.035-4.942 6.25-5.375 11.813C378 454 378 454 379 456v6l3-1v5l3 4c-.424 7.848-.424 7.848-2 11l6-1-3 5v2l3 3v2c-5.337-2.135-6.85-3.349-10-8-1.042-3.815-1.042-3.815-1.617-8.066l-.649-4.659-.609-4.837-.68-4.85C373.907 450.13 374.131 444.72 381 435l3.063-4.625z"/><path fill="#d4866d" d="M719 393c3.35 3.35 4.814 6.368 6.875 10.625 2.266 4.637 4.54 9.22 7.125 13.688 2 3.687 2 3.687 2 6.687l2 1c3 6.23 3 6.23 3 10-11.667-1.529-24.034-5.828-35-10v-2c2.938-.812 2.938-.812 6-1l1 3c2.938.938 2.938.938 6 1l2-4v2h3l3-3 2 1v2l2-1c-.293-4.49-.72-5.72-4-9-4.48-4.48-4.706-5.915-5-12l1-2h-3c-.187-3.5-.187-3.5 0-7"/><path fill="#d28065" d="M736 570c-2.098 10.34-6.292 20.154-10 30l-1.754 4.781-1.621 4.407-1.46 3.98L720 616h-1a1352 1352 0 0 1-1-10l-1-3-2-1h3v-4l3.5-.875L725 596c0-6 0-6-1-10v-2l-4 1-1-4-2-1 2.738-1.68 3.574-2.195 3.551-2.18C733.225 570 733.225 570 736 570"/><path fill="#ce704f" d="m449 368 1 3-2 1c-.75 3.063-.75 3.063-1 6h2v3c2 1 2 1 5 2v-2l4-1 1 2 1-2h2v4h2c.41 3.645.51 7.274.656 10.938L465 398h2l1 3h-3v4h2v2l3-1c.563 2.563.563 2.563 1 6 .633 2.01 1.29 4.015 2 6-4.927-4.384-8.14-9.687-11.562-15.25a419 419 0 0 0-17.11-25.316C442 374 442 374 440 369c3 1 3 1 6 3l1-3z"/><path fill="#d2866c" d="M416 332c5.168 1.215 9.366 3.839 13.875 6.563 7.39 4.443 14.892 8.597 22.516 12.625L455 353l-3 2v-2l-4.312.188L443 353l-3-5-2-1v-2h-4c-2 5-2 5-2 8 2.75 4.188 2.75 4.188 6 8h4v2h-2l1 4-2 2c-2.574-3.39-2.574-3.39-5.687-8.25l-3.262-5.035L427 351a456 456 0 0 0-4-5.687c-7-10.063-7-10.063-7-13.313"/><path fill="#d17e62" d="M360 577c3.433 3.433 5.395 6.914 7.813 11.125 2.818 4.865 5.632 9.675 8.812 14.313C379 606 379 606 379 608c-5.152-1.03-7.78-2.837-11.953-5.879-5.804-4.04-11.954-7.538-18.047-11.121 4-1 4-1 7-1l3-4h1q.063-4.5 0-9"/><path fill="#d89881" d="m669 568 1 2c-1.25 3.625-1.25 3.625-3 7h-3c-2 5-2 5-2 10 3.908 3.908 6.622 3.61 12 4-3.078 3.078-5.83 4.717-9.625 6.813-4.325 2.422-8.536 4.883-12.625 7.687C648 608 648 608 646 608c1.068-5.341 2.744-8.093 5.688-12.625 3.023-4.722 5.955-9.41 8.562-14.375 2.59-4.708 5.287-8.893 8.75-13"/><path fill="#cd6847" d="M669 570c5.699 2.28 5.619 2.823 8 8l4 4v2h-3v3l-3 1-1 3c-4.46 1.115-5.874.756-10-1l-3-3c.224-4.183.661-6.492 3-10h3l.875-3.625z"/><path fill="#d3876c" d="M338 396c5.343 2.137 9.973 4.94 14.813 8l2.677 1.656c2.207 1.39 4.364 2.861 6.51 4.344v2a269 269 0 0 1-12.375 4.313l-3.709 1.214C319.803 426 319.803 426 314 426l1-3h5v-2l7 1v-2l9-1v-2h3v-2l3-3h2l.438-2.812C345 406 345 406 348 403h-3v-2l-5-1z"/><path fill="#d49078" d="M443 444c3.938.313 3.938.313 8 1l1 2q3.998 1.507 8 3l4 3v2l4-1v3h2v2l3.375.938C477 461 477 461 479 464c3.625.688 3.625.688 7 1l-3-2 1-4h-2v-3h-5c-.812-4.5-.812-4.5-1-9 5.071 4.549 8.54 9.974 12.25 15.625l1.93 2.89c4.684 7.077 4.684 7.077 5.82 10.485-4.418-1.311-7.987-3.036-11.875-5.5l-3.45-2.168c-1.212-.77-2.425-1.54-3.675-2.332q-3.842-2.409-7.687-4.812l-4.012-2.516c-6.274-3.898-12.599-7.71-18.926-11.52L443 445z"/><path fill="#d68f77" d="M389 620c7.622 1.874 14.535 4.87 21.625 8.188l3.043 1.404q3.67 1.697 7.332 3.408l-4 2v-2c-3.437-.375-3.437-.375-7 0l-1 4-3 1c.813 4.563.813 4.563 2 9-3.533-3.533-6.239-7.086-9.05-11.191-2.723-3.923-5.585-7.737-8.446-11.559C389 622 389 622 389 620"/><path fill="#d2846a" d="M250 245c5.635 1.127 9.62 3.24 14.688 5.938l5.136 2.714C274 256 274 256 276 258l-5 1-1 2h-2l-1 3h-3l-2 3h-2c-1.415-2.56-2.732-5.176-4-7.812-3.851-7.965-3.851-7.965-6-11.188z"/><path fill="#cf6e4d" d="M440 567c5-.5 5-.5 10 0 .875 3.25.875 3.25 0 7-3.329 3.329-5.548 5.087-9.562 7.25l-2.88 1.578C435 584 435 584 432 584v-3h-5l1-2h2v-3h2l-.937-3.437L431 569c4.438-.875 4.438-.875 9-1z"/><path fill="#d17f63" d="M719 487c1.875 3.75 1.157 7.912 1 12h-2l-1 2-4 1-1 3 2 1-1 5h-2l-2 4h-6l.438 2.625c.562 3.375.562 3.375-1.75 6.75C699 527 699 527 697 527v4h-3l-2 5-7 7c1.251-4.333 2.791-7.394 5.563-10.937 5.827-7.76 10.647-16.122 15.414-24.563 2.114-3.657 4.353-7.204 6.648-10.75l2.352-3.64q1.994-3.066 4.023-6.11"/><path fill="#ce6949" d="M421 634v3h5l1 4c-2.25 2.313-2.25 2.313-5 4l-3-1-1 5-3-2v2c-5-1-5-1-8-4l-2-5 1-2h2l2-5c3.672-1.836 7.247-.072 11 1"/><path fill="#d48f77" d="M608 332c-1.054 4.214-2.51 6.631-4.875 10.25l-2.445 3.742c-3.642 5.447-7.357 10.842-11.102 16.219-2.632 3.869-5.123 7.806-7.578 11.789-2-4-2-4-2-6h3q.562-3.491 1-7h2l3-5c3-5 3-5 4-6l1-2 2 1v-6l1-2a101 101 0 0 0-6 3v2c-3.5.125-3.5.125-7 0 3.13-3.13 6.022-4.85 9.875-7 12.489-7 12.489-7 14.125-7"/><path fill="#d4876c" d="M638 428c2.29 2.906 2.29 2.906 4.625 6.5 4.194 6.41 4.194 6.41 6.375 7.5 1.64 7.104.565 13.97-1 21h-1a170 170 0 0 1-2-11h2c-.25-3-.25-3-1-6h-2l-2-2h-4v2h-2l-1-5-1-3v-2l-2-1 4-2-1-3c-3.062.313-3.062.313-6 1 4.2-4.2 4.2-4.2 9-3"/><path fill="#d17b60" d="M358 556h3v4c4 0 4 0 8-2l1 1-.062 3.5.062 3.5 2 1c-1 5-1 5-3 9l3 1-1 3h2v4c4 1 4 1 6 0v3l2 1v5h-2v2l2 1-2 3c-1.559-2.469-1.559-2.469-3.437-6.5-4.183-8.764-8.673-17.317-13.243-25.883-3.611-7.187-3.611-7.187-4.32-10.617"/><path fill="#cf8066" d="M575 729h2l3 5 4-1v-2h3c-1.385 4.156-3.556 4.89-7.25 7.188l-3.812 2.382L572 743l-3.75 2.367C559.27 751 559.27 751 557 751c3.474-6.949 6.888-13.365 14-17h3z"/><path fill="#d3896f" d="M573 352v3h-3v2a147 147 0 0 1-7 3l-4 2h-3l-1 5-4 4h-3l-1 3c-4 1-4 1-8 1l-3 3-1-1q-4.009.431-8 1c3.344-3.344 6.417-4.912 10.625-7.062 7.673-3.994 15.14-8.248 22.57-12.676C570.73 352 570.73 352 573 352"/><path fill="#d48c75" d="M469 562c-1.426 4.28-3.858 4.902-7.75 7.063l-3.734 2.097C454 573 454 573 449 575l.063-3.375L449 568c-6 0-6 0-10 1q-3.996.53-8 1l-4.187.625C423 571 423 571 418 570v-1a344 344 0 0 1 10.395-1.629l3.206-.466q3.371-.49 6.742-.971 5.167-.74 10.33-1.495l6.534-.943 3.135-.454C465.65 562 465.65 562 469 562"/><path fill="#d48b71" d="M688 599v2h-2v2l-5 3 1 3c-2.812 3.688-2.812 3.688-6 7h-2l-1 2-5-2-5-1v2l-5 1c1.188 3.563 1.188 3.563 3 7-5-2-5-2-7-6 2.086-1.79 2.086-1.79 5.375-3.625l3.61-2.078L667 611q4.325-2.67 8.625-5.375l4.04-2.523C686.174 599 686.174 599 688 599"/><path fill="#d4896e" d="M673 297v2l-4 2-3 5-5 3-2 4 4 2h-3c1.313 3.5 1.313 3.5 3 7-3.787-1.894-7.002-3.973-10.437-6.437l-3.372-2.372L647 311c3.254-3.254 6.243-4.875 10.313-7l3.925-2.062L665 300l3.355-1.75C671 297 671 297 673 297"/><path fill="#ce6949" d="m291 528 2 3 2 1c1 1 1 1 1 6l-3 1 1 5c-2.375 3.938-2.375 3.938-5 7l-1-2-5-1c.063-5.062.063-5.062 1-10h2l-.125-3.437L286 531l4-1z"/><path fill="#d69882" d="M339 519c4.972 1.989 8.086 4.19 12.25 7.5l3.766 2.969C358 532 358 532 359 534l-3.312-1C352 532 352 532 349 532l2 4v5h2l1 2h2l1 4h2v2h-2v3l2 1-2 2c-1.556-2.248-1.556-2.248-3.371-5.719l-1.99-3.765-2.077-4.016-2.064-3.922A1289 1289 0 0 1 342 527l-1.719-3.299C339 521 339 521 339 519"/><path fill="#d6947c" d="M541 551c6.727 6.182 6.727 6.182 8 11-1.484 3.583-3.092 6.648-5 10a1014 1014 0 0 0-4.125 8.25L533 594l-1-3h-2c-.312-3.437-.312-3.437 0-7l3-1 2 1-1-4h2l1-5h2v-2h2v-3h2l-1-2.812-1-3.188 2-3h2l-2-2.75c-2-3.25-2-3.25-2-7.25"/><path fill="#d3886e" d="M565 420c1 2 1 2 0 6h-2v4h-2l1 4-5 3c-1.125 3.375-1.125 3.375-2 7l-3 5-1 4c-2.312 2.813-2.312 2.813-5 5l-4-1-2 1c3.776-7.551 8.852-14.381 13.563-21.375l3.271-4.91 3.107-4.613 2.866-4.271z"/><path fill="#d38b71" d="M387 427c5.364 1.073 8.482 3.014 13 6-3.993.998-6.077.98-10 0v-2h-2v6l-5 1c-3.783 4.035-4.942 6.25-5.375 11.813C378 454 378 454 379 456a127 127 0 0 1-.375 6.625l-.273 3.602L378 469h-1a284 284 0 0 1-1.625-9.687l-.852-5.45c-.897-8.336 1.774-12.208 6.477-18.863l3.063-4.625z"/><path fill="#ddb2a1" d="M518 673c2.44 4.88 2.21 7.925 2.148 13.374l-.05 5.894-.04 3.15c-.039 3.247-.063 6.494-.083 9.74q-.085 13.848-.242 27.694-.094 8.468-.13 16.937a751 751 0 0 1-.07 6.475 782 782 0 0 0-.069 9.009l-.052 5.192L520 774l5-1c-2 4-2 4-5 7l-2-1c-.19-3.277-.235-6.562-.227-9.844v-3.133c0-3.436.016-6.872.032-10.308l.008-7.126c.008-6.265.028-12.53.05-18.795.02-6.388.03-12.775.04-19.163q.032-18.815.097-37.631"/><path fill="#d28165" d="M500 609c5 3 5 3 8 6l3 1v2h2l3 3 1-3 3-1c-1.544 5.475-3.969 10.194-7 15-3-1-3-1-4.973-4.387l-2.09-4.3-2.097-4.262c-1.512-3.33-2.778-6.558-3.84-10.051"/><path fill="#d69881" d="M434 730c4 .25 4 .25 8 1v3q3.499.509 7 1l1 3c5 2 5 2 7 2l-1-3-5-1 3-1 1-2c12 14.164 12 14.164 12 18-8.727-3.49-16.367-8.436-24.062-13.75l-2.624-1.785A344 344 0 0 1 434 731z"/><path fill="#ce6847" d="M388 431h2v2l3.438-.125L397 433l1 4-4 1-1 2-2.75.813c-3.788 1.384-5.505 3.294-8.25 6.187l-3 1q.49 3.001 1 6h-3c-.82-5.83-.336-8.463 2.813-13.5C383 437 383 437 386 436l1 1 .375-3z"/><path fill="#d48268" d="M684 640c3.5.313 3.5.313 7 1v2h2l1-2c8 2 8 2 10 3v-2l3 1c1.41 4.772.94 6.151-1 11-8.103-2.026-15.403-8.015-22-13z"/><path fill="#d48d75" d="m368 332 2 1-3 4-1 5a391 391 0 0 1-9 2c-2.875 2.5-2.875 2.5-5 5-3 2-3 2-7 2l-1 5c-5.111 5-5.111 5-9 5v-2l-4 1c3.652-3.652 7.72-6.584 11.875-9.625l2.566-1.886a612 612 0 0 1 18.188-12.817C366 334 366 334 368 332"/><path fill="#d69780" d="m662 563 1 2a320 320 0 0 1-6.312 11.938c-7.624 13.832-7.624 13.832-10.637 20.046l-2.551 5.203-2.219 4.668L639 610c-3.219.113-3.219.113-6-1l-1-2q2.997-.52 6-1l1-2h2l-.562-3-.438-3h3v-3h2v-6h2v-4h2l-1-3h2v-2h3v-4l-2-1 2-1 2 1v-2h2v-4l3-3z"/><path fill="#ddb7a6" d="m519 275 4 2-2 1c-.235 2.656-.327 5.326-.366 7.992l-.09 5.208-.064 5.675-.08 5.773a4469 4469 0 0 0-.143 12.116 2786 2786 0 0 1-.216 15.567c-.076 4.93-.13 9.862-.186 14.794-.03 1.873-.062 3.746-.094 5.675l-.042 5.208-.055 4.614L520 364l3 1-5 1c-.608-2.709-.608-2.709-.583-6.733l-.01-4.534.07-4.987.014-5.083c.021-5.409.078-10.817.134-16.226q.024-5.392.043-10.787c.1-19.498.1-19.498.332-28.65l.1-4.316c.167-3.95.167-3.95.9-9.684"/><path fill="#d7927a" d="m638 553 2 1-2 2v5h-5l1 4-3 3h-6l-2 3c-4.062.477-4.062.477-9 .625-8.837.294-8.837.294-11 1.375l-3-1-1 2c-4-4.485-4-4.485-4-6l5.25.438 3.324.269c2.173.186 4.344.408 6.508.68 6.377.51 9.85-.536 14.668-4.45A242 242 0 0 0 630 560a237 237 0 0 1 8-7"/><path fill="#d38970" d="m556 654 2 1c-3 2-3 2-6 2v2h-3v2l-2 2-2.25 2.5c-2.901 2.637-4.957 3.638-8.75 4.5l-1-1c-5.04.451-10.02 1.106-15 2 3.451-2.588 6.225-4.134 10.121-5.848l3.584-1.584 3.732-1.63 3.721-1.643c4.925-2.169 9.845-4.296 14.842-6.295"/><path fill="#dca491" d="M698 436c9.932.56 19.752 4.51 29 8v1c-5-.312-5-.312-10-1v-2l-5 1-1-2c-5.492-1.898-5.492-1.898-11-2-1.104 4.627-1.314 7.717-1.125 12.375q.03 3.543.055 7.086L699 464h-1a407 407 0 0 0-1.5 10 407 407 0 0 1-1.5 10h-1c-.379-8.597.632-17.14 1.438-25.687l.408-4.495c.749-8.102.749-8.102 1.154-11.818l.27-3.484z"/><path fill="#dba794" d="M555 562c4.12.306 8.156.73 12.25 1.25l3.453.41c7.471.909 14.896 1.968 22.297 3.34v1c-4.918-.051-9.83-.2-14.746-.355L574 568l-1 4 3 1v2c-4.684-.937-6.66-1.818-10.5-4.375A288 288 0 0 0 555 564z"/><path fill="#cd6949" d="M644 633c2.938.188 2.938.188 6 1v2l3 1c2 2 2 2 3 4l-5 2-1 3-4 1-2-4c-3 1-3 1-6 4h-1c0-5 0-5 2-9l6-2z"/><path fill="#d2876d" d="M606 650h2c1.625 2.875 1.625 2.875 2 7-3.125 4.375-3.125 4.375-5.363 6.902-4.409 5.18-8.13 10.852-12 16.438C590 684 590 684 587 687v-6h2l-1-4h2l1-2h2l-1-4c2.538-3.032 4.225-4.742 8-6l1-4 3-2v-2h3a202 202 0 0 0-1-7"/><path fill="#cf6748" d="M574 567c6.209-.554 11.993.415 18 2v3l-4 4-1 3-2-2h-5v-2l-5-2-3-3z"/><path fill="#d79983" d="M634 318c4.262 1.705 7.005 3.26 10.625 5.938l2.852 2.09C650 328 650 328 653 331a190 190 0 0 1-9-3v-2l-4-1v-2c-3.375-.25-3.375-.25-7 0-2 2-2 2-2.812 6.313-1.691 6.673-4.826 8.666-10.188 12.687l-1 5-5 2c1.87-4.673 3.856-7.793 6.813-11.812 3.602-4.958 6.99-9.956 10.187-15.188z"/><path fill="#d58f75" d="M731 581c1.396 4.188.044 6.108-1.562 10.188l-1.672 4.292L726 600a5574 5574 0 0 0-4.8 13.063c-.397.969-.792 1.938-1.2 2.937h-1a1352 1352 0 0 1-1-10l-1-3-2-1h3v-4l3.438-.937L725 596c.8-4.002 1.446-7.96 2-12l1 2h2z"/><path fill="#d59782" d="M399 500c5.412.706 5.412.706 8 2v3c5.5 1.313 5.5 1.313 11 2v-2c2.938-.243 2.938-.243 7-.23l4.375.005 4.625.038 4.625.001c8.297.034 8.297.034 11.375.186v1c-2.316.381-4.643.69-6.973.973l-4.416.537-4.673.553-4.592.564c-18.074 2.169-18.074 2.169-22.436-.56l-2.848-2.505-2.902-2.496L399 501z"/><path fill="#ce6948" d="M285 465h4l2 4 2 1v5l-3 1v5l-4 1-3 2q-.079-4.219-.125-8.437l-.07-4.747L283 467l2-1z"/><path fill="#d7ab9a" d="M504 671h1c.133 3.046.19 6.096.221 9.145l.035 2.946c.037 3.24.066 6.48.096 9.721l.07 6.736q.072 7.083.136 14.164.083 9.063.185 18.125.074 6.966.139 13.934.031 3.339.07 6.678.048 4.686.086 9.371l.051 5.384c-.08 4.35-.453 8.497-1.089 12.796-2.562-1.875-2.562-1.875-5-4l1-2 3 1c.354-3.828.354-3.828.325-9.433l-.004-3.074c-.007-3.382-.035-6.763-.063-10.145q-.012-3.5-.02-7c-.017-6.163-.052-12.326-.09-18.49-.06-9.864-.093-19.728-.126-29.592-.014-3.461-.036-6.923-.058-10.384l-.03-6.32-.034-5.607z"/><path fill="#cd6a48" d="M299 274c3.875-.312 3.875-.312 8 0l2 3h2v3h4l-1 3h-3l-1 3-3-1 1-5c-3 1.188-3 1.188-6 3v5h-2v-2h-2c-1.751-4.055-2.098-5.61-1-10h2z"/><path fill="#ce694a" d="m356 576 4 1c1.063 4.25 1.063 4.25 1 9-2 3.125-2 3.125-5 5-3.562.063-3.562.063-7-1l-4-4v-2l4 1v-3h4v-2l3-1z"/><path fill="#d5917a" d="M317 483c3 .063 3 .063 6 1v5c2.938 1.75 2.938 1.75 6 2 .813-3.375.813-3.375 1-7h1c.241 3.67.425 7.325.563 11l.13 3.18q.16 3.91.307 7.82c-4.31-3.952-7.246-8.222-10.312-13.187l-2.676-4.293C317 485 317 485 317 483"/><path fill="#ce6947" d="M488 432h2v3h2v-3h2v4h2v-4h2c.045 2.666.039 5.334 0 8l1 5-1 5-4-1v-4h-2v-2l-4-2c-1-4-1-4 0-9"/><path fill="#d69780" d="M363 582c3.446 4.104 6.286 8.458 9.125 13l2.633 4.188C377 603 377 603 379 608c-6.476-1.295-9.697-4.111-15-8l3-1c-1-5-1-5-2-7v-6h-2z"/><path fill="#d28266" d="M321 514c3.226 3.893 6.05 7.953 8.813 12.188l2.457 3.73L334 533l-1 2-5-1v-2l-4 1v-4h-2c-1.75-2.437-1.75-2.437-3-6 .813-4.875.813-4.875 2-9"/><path fill="#d69780" d="M288 570c5.488 1.098 8.758 3.007 13.5 5.938l4.469 2.714L309 581l-3 2v-2h-3v-2l-3 1-5-2c-.27 2.648-.27 2.648.188 6.375l.417 3.71L296 591c-2.988-3.985-4.171-6.935-5.687-11.625l-1.325-4.04C288 572 288 572 288 570"/><path fill="#d58e75" d="M388 318c4.336 1.445 5.615 4.224 8 8-1 2-1 2-3 3v-4c-4.535 1.134-5.9 2.642-9 6v-4h-5v2h-2v2c-2.32.414-4.656.749-7 1 3.41-3.61 6.825-6.328 11-9l3.688-2.812z"/><path fill="#cf6b49" d="M370 644c.313 4 .313 4 0 8h-6l-2 4c-5 0-5 0-8-2h-2l1-5c5-2 5-2 10-2l4-2c2-1 2-1 3-1"/><path fill="#d69781" d="M669 407v2h-3v3c3.938.875 3.938.875 8 1l1-3c4.563 1.688 4.563 1.688 9 4v2l5.5 1.5 5.5 1.5v2h6v2c-6.778-.339-13.07-2.356-19.5-4.375l-3.012-.922C667.18 414.207 667.18 414.207 662 412v-2c5-3 5-3 7-3"/><path fill="#d3876c" d="M684 543h1v5l-3 1q.431 4.009 1 8h-2l-.437 3-.563 3h-3l1 3-5 3-3-1c2.184-5.46 5.034-10.3 8.063-15.312l1.681-2.823A370 370 0 0 1 684 543"/><path fill="#d58c73" d="m305 392 1 2-1 2 2 1-3 1c-1.358 7.925-1.358 7.925 0 12h2v2h-2l-1 3-2-2-4 1a201 201 0 0 0-3 6l-3 1c1.177-5.413 3.41-9.546 6.336-14.223 2.86-4.773 5.223-9.779 7.664-14.777"/><path fill="#d5927a" d="m591 638 3 1c-4.02 3.626-6.92 5.968-12 8v2h-2v-2h-3l-1 3c-3.02 1.203-3.02 1.203-6.812 2.25l-3.77 1.078C562 654 562 654 558 653l2.599-1.162 11.651-5.213 4.09-1.828 3.926-1.758 3.618-1.619A220 220 0 0 0 591 638"/><path fill="#d38c74" d="m576 693 1 2 3 1c-2.473 4.946-5.629 9.31-8.812 13.813l-1.87 2.658a1439 1439 0 0 1-3.629 5.133 433 433 0 0 0-4.576 6.658L559 727c-1-2-1-2-1-7l5-1v-5h2v-2h2l-1-4c5-3 5-3 7-3v-6l2-3z"/><path fill="#d5937c" d="M522 456h4c-2.11 4.219-4.437 8.212-6.875 12.25l-2.617 4.39L514 476h-4c-6-8.077-6-8.077-6-11l4-1a150 150 0 0 1 1 6l3-1h5v-6c2-4 2-4 5-7"/><path fill="#d48970" d="m722 335 3 2c-1.057 5.108-3.742 9.507-6.312 14l-2.301 4.125L714 358l-5-2v-6h2v-2l5 1v-6l3-1v-2h2z"/><path fill="#d89b83" d="m319 439-5.437 1.875C308 443 308 443 307 445l-3 1c-1.96 2.249-3.664 4.328-5 7h2v3l3 1c.688 3.563.688 3.563 1 7-3.008-3.008-4.998-5.903-7.25-9.5l-2.203-3.469L294 448l1-3a144 144 0 0 1 10.375-3.75l2.945-.996c7.286-2.385 7.286-2.385 10.68-1.254"/><path fill="#d2876c" d="M460 423c4.12 4.12 7.072 8.29 10.313 13.125l3.3 4.883L476 445l-1 2a187 187 0 0 1-6-4h-2l-3 3 .125-4.75C464 436 464 436 462 432l1-2h-2a101 101 0 0 1-1-7"/><path fill="#bf6b4f" d="M502 277h2c.204 2.692.256 5.395.259 8.094l.019 5.349-.012 5.842.005 5.926q.005 6.22-.01 12.442a3654 3654 0 0 0 .007 16.008c.009 5.062.003 10.124-.002 15.187l.012 5.848-.02 5.34-.004 4.743L504 365l-2-1v-2l-3-1 3-4c.347-3.518.347-3.518.309-7.798l-.02-4.852-.066-5.24-.028-5.364c-.03-5.666-.08-11.33-.132-16.996q-.074-8.52-.123-17.039-.03-5.308-.09-10.616l-.03-4.815-.04-4.27z"/><path fill="#d18368" d="m661 587 4 3c2.987.432 5.99.779 9 1-3.152 3.152-6.139 4.98-10 7.188l-3.75 2.167C657 602 657 602 654 602v-3h3q.57-3.49 1-7l2-1z"/><path fill="#d17d62" d="m680 398 3 1-2 1-.375 4-.625 4-4 1-2 4c-6 0-6 0-8-1v-3h3l1-4a188 188 0 0 1 9-6z"/><path fill="#d69883" d="M476 447c5.071 4.549 8.54 9.974 12.25 15.625l1.93 2.89c4.684 7.077 4.684 7.077 5.82 10.485-4.154-1.227-6.437-2.328-10-5l1-4-4-4 1-4h-2v-3h-5c-.812-4.5-.812-4.5-1-9"/><path fill="#d58e76" d="M719 393c3.35 3.35 4.814 6.368 6.875 10.625 2.278 4.666 4.571 9.265 7.188 13.75L735 421l-1 2h-3l-1.375-3.812C728 415 728 415 723 412c-2.179-4.456-1.794-7.235-1-12h-3c-.187-3.5-.187-3.5 0-7"/><path fill="#d58b73" d="M282 549h6l3 3 5-1 3 1 1 4h4c2.25 4.5 2.25 4.5 4 9-4.194-1.678-7.095-3.284-10.75-5.812-3.758-2.558-7.502-4.962-11.5-7.125L282 550z"/><path fill="#d49077" d="M740 453h1c.53 4.052.756 7.971 0 12-3.437.313-3.437.313-7 0-.812 3.5-.812 3.5-1 7h-2v5l-4 1-1 3h-2c4.01-10.024 9.633-19.293 16-28"/><path fill="#cf6949" d="m323 474 1 2 3 1c1.753 3.506 1.164 7.17 1 11h-2l-1 2-2-1-1-4-3-1-2-1c1-5 1-5 3.5-7.437z"/><path fill="#d18267" d="M568 383c3.313-.25 3.313-.25 6 1-1.455 3.342-3.003 5.98-5 9l-1.879 3.043c-1.661 2.681-3.387 5.322-5.121 7.957h-1c-.365-6.452-.365-6.452 2-10l2 1-3-5v-2h2l1-4 1 2h2z"/><path fill="#d38c72" d="M545 347q3.012.43 6 1c-4.574 4.028-9.797 6.802-15.125 9.688l-2.746 1.51c-6.71 3.662-6.71 3.662-10.129 4.802v-3h2l1-4 1-2c4-1 4-1 9 0v-2c3-2 3-2 9-2l-1-3z"/><path fill="#d28c73" d="M282 453h2c1.68 2.45 3.268 4.963 4.813 7.5l2.582 4.219L294 469l2.887 4.406L299 477l-1 2c-2.562-1.562-2.562-1.562-5-4v-5l-3-1-1-4-3 2h-3c-.582-3.062-.582-3.062-.812-7l-.27-3.937z"/><path fill="#d18970" d="m549 413 4 1c-1.011 4.045-2.268 6.211-4.562 9.64l-2.165 3.243L544 430.25l-2.273 3.414c-4.11 6.126-4.11 6.126-5.727 8.336h-1v-5h2l.5-3 .5-3h2l1-5a117 117 0 0 1 4-5l2-4 4-1v-2z"/><path fill="#d5937c" d="m355 674 2 3 3 1 1 4q2.988.57 6 1l2 3 4 1c2.875 3 2.875 3 5 6l-2 1c-2.474-1.308-2.474-1.308-5.559-3.297l-3.357-2.156-3.522-2.297-3.51-2.25c-8.626-5.574-8.626-5.574-12.052-9h6z"/><path fill="#d59179" d="M339 543c3.836 3.836 6.278 8.292 9 12.938 5.636 9.577 5.636 9.577 9 14.062l-1 2-4-4-4-1v-6l-3-1c-4.15-5.282-6-10.285-6-17"/><path fill="#d2876d" d="m409 594 5 1c-4.404 3.795-9.212 6.617-14.25 9.5l-4.89 2.844L391 609l-1-4c3.282-4.15 4.66-4.932 10-6l4-3 5-1z"/><path fill="#d49078" d="M715 566c-3.953 3.953-8.604 6.348-13.437 9.063l-2.893 1.642c-3.854 2.182-7.708 4.314-11.67 6.295v-4h3l1-3 2 1v-2h2v-2c6.115-3 6.115-3 10-3v-3c3.203-1.601 6.479-1.057 10-1"/><path fill="#d89881" d="m704 511 1 4h-2l.688 2.625c.312 3.375.312 3.375-2 6.75C699 527 699 527 697 527v4h-3l-2 5-7 7c1.251-4.333 2.791-7.394 5.563-10.937 5.036-6.691 9.223-13.836 13.437-21.063"/><path fill="#d3866b" d="M553 726h2l2 4c-1.852 3.023-1.852 3.023-4.625 6.375-2.69 3.291-5.291 6.5-7.648 10.04L543 749h-1c-.56-4.665-.415-6.46 2.5-10.25L547 736v-3l5-1h-2l1-4h2z"/><path fill="#d48a71" d="M411 424q4.016.376 8 1v2l4-2c1.693 1.3 3.364 2.63 5 4l1-3c2 3 2 3 2 9l4 2v2c-4.812-1.925-8.744-4.19-13.125-6.937l-4.258-2.653C414 427 414 427 411 424"/><path fill="#d6957f" d="M354 389h4v2h5l3 3 4 1 3 3 3-1v4a190 190 0 0 0 9 3v2l2 1v2c-5.46-1.202-9.648-4.187-14.25-7.25-4.887-3.224-9.762-6.413-14.812-9.375L354 390z"/><path fill="#d49580" d="M311 380c6.336 1.5 11.582 5.124 17.063 8.5l3.029 1.8c2.373 1.458 4.654 3.064 6.908 4.7l-3 2v-2h-3v-2l-5-1v-2l-5-1v-2l-5-1-2-2h-3v4h-3l-1 5-2-1c.688-2.687.688-2.687 2-6l1.25-3.5z"/><path fill="#d38c74" d="M353 322c2.344.251 4.68.586 7 1-4.597 3.718-9.321 7.25-14.062 10.781a124 124 0 0 0-5.688 4.563L338 340l-2-1c.625-3 .625-3 2-6l4-1 1-2h2l1-3h4l1-3h2z"/><path fill="#daa491" d="M326 436c1.176 3.53 1.425 6.739 1.754 10.45l.4 4.509.409 4.728.42 4.67c.604 6.911 1.094 13.7 1.017 20.643-2.019-4.038-2.52-6.817-3.062-11.25A197 197 0 0 0 326 463h-1a663 663 0 0 1-.342-16.025c-.074-3-.35-5.991-.658-8.975l-4-1c3-1 3-1 6-1"/><path fill="#cb694a" d="m699 437 1 2 3.75-.062C708 439 708 439 713 442h4l-2 5-3 1v-3l-4 1v-3l-4 1v-3l-1.375 3-1.625 3h-2a200 200 0 0 1 0-10"/><path fill="#d18467" d="M466 360c4.391 1.757 8.22 3.72 12.313 6.063l3.8 2.16L485 370v1c-3.812 1.25-3.812 1.25-8 2l-3-3v-2h-4l-2-3c-2 5-2 5-2 7h-2c.4-4.07 1.197-7.987 2-12"/><path fill="#d48e76" d="M633 698c3 .375 3 .375 6 1-4.002 3.31-8.187 6.235-12.5 9.125l-3.906 2.633C619 713 619 713 614 715v-5l4 1-1-3 3.375-.437L624 707l1-4 2 1v-2h2l1-2h3z"/><path fill="#d18066" d="m618 305 4 2c-3.511 3.511-5.501 5.256-10 7l-5-1v-6c3.914-2.61 6.364-2.285 11-2"/><path fill="#d58d73" d="M399 408h3v9l3 1 1 2 5 1v3c-5.265-1.053-9.301-3.965-13.687-6.937l-3.95-2.653C390 412 390 412 387 409c3.014.603 6.019 1.255 9 2l2-1 1 1z"/><path fill="#cc6849" d="M440 567c5-.5 5-.5 10 0 .75 3.438.75 3.438 0 7-2 1-2 1-6 0h-3l-1-2h-6v-2l-3-1 4.5-.437L440 568z"/><path fill="#d38d74" d="m525 378 2 1c-3 5-3 5-7 9-5.157 1.128-7.21 1.395-12-1v-2h-3v-2h-4v-3c5 2 5 2 10 5 3.799-.95 5.886-2.046 9.125-4.125z"/><path fill="#d0785a" d="m294 475 2 1v2l5 2 3 5-1 2c-4.562.875-4.562.875-9 1v-4l-4-2 4-2z"/><path fill="#d5917a" d="M574 464c2 1 2 1 3 3l-4 1c-1 4-1 4 0 8l-4-2v-2l-5 1v2l-3.937.813L556 477l-1 5-3-2c2.706-5.412 6.95-7.357 12-10.312l2.813-1.706c2.355-1.398 4.767-2.699 7.187-3.982"/><path fill="#d2876c" d="m473 419 5 1v2h2v-2l3 1-1 5h2c3.13 4.694 2.93 6.42 2 12-3.11-3.794-5.958-7.717-8.75-11.75l-2.422-3.484C473 420 473 420 473 419"/><path fill="#d5927b" d="M435 326c3.438.25 3.438.25 7 1l1 3h6l5 2v2h5l1 4 3 3-2 1c-3.11-1.642-6.164-3.391-9.187-5.187l-5.043-2.981L442 331c-1.357-.76-2.715-1.519-4.113-2.3L435 327z"/><path fill="#d5886e" d="m329 360 2 1c-1.875 2.563-1.875 2.563-4 5l3-.937 3-.063c.5 3.313.5 3.313 0 7l-2 2c-4.507 0-6.671-2.128-10-5 2.155-4.31 4.15-6.192 8-9"/><path fill="#d4917a" d="M754 276h4c-2.329 5.822-5.162 11.26-8.062 16.813l-1.682 3.255A463 463 0 0 1 744 304h-1v-5h2v-6h2v-6l3-4h3v-6z"/><path fill="#d0846b" d="M389 620c5 1.125 5 1.125 10 3v4l3.188.938L405 629l-3 5c-5.794-3.02-9.952-6.169-13-12z"/><path fill="#d79279" d="M463 394c2 2 2 2 2 4h2l1 3h-3v4h2v2l3-1c.563 2.563.563 2.563 1 6 .633 2.01 1.29 4.015 2 6-4.476-4.107-7.636-8.665-10.937-13.75l-3.028-4.61L457 396l2-1 4 4-1-4z"/><path fill="#d49078" d="m742 304 1 2a249 249 0 0 1-5.812 11.188l-1.698 3.177c-1.416 2.59-2.944 5.12-4.49 7.635l-2-1v-6l4-1v-5l2-2-2-1h4v-4l-2-1c2-2 2-2 7-3"/><path fill="#d3866c" d="M408 647c4 2 4 2 5 3q2.992.55 6 1l-2 1 2.438 1.625L422 656c-.312 3.688-.312 3.688-1 7l2 1-2 2c-2.277-2.691-2.277-2.691-4.937-6.562l-2.653-3.817c-1.88-2.824-3.664-5.712-5.41-8.621"/><path fill="#d7967f" d="M366 572c3.063 2.313 3.063 2.313 6 5l-1 3h2v4c4 1 4 1 6 0v3l2 1v5h-2v2l2 1-2 3c-1.77-2.89-1.77-2.89-3.812-7.25-4.59-9.615-4.59-9.615-7.188-14.125-2-3.625-2-3.625-2-5.625"/><path fill="#d89e89" d="M426 672h2v2l3 1 2 4 4 3v3l2 1c2.325 2.677 3.872 4.617 5 8l3 2v3l2 1 1 5c-4.138-4.138-7.056-8.331-10.312-13.187-3.405-5.073-6.83-10.063-10.606-14.864C426 673 426 673 426 672"/><path fill="#d5866b" d="M531 536h2c1.727 2.52 1.727 2.52 3.625 5.813l1.914 3.269C540 548 540 548 540 551l-1 1c-5 0-5 0-9-3 .813-3.125.813-3.125 2-6l-1-1 1-3z"/><path fill="#d4937d" d="M276 258c6.003.87 11.563 4.789 16.875 7.625l2.953 1.563q3.589 1.9 7.172 3.812l-4 2-1-2-3.937.25L290 271c-1.25-3-1.25-3-2-6h-4v-2c-.66.03-.66.03-4 .188l-4-.188z"/><path fill="#d48f78" d="M676 535c1 3 1 3-.477 6.004l-2.148 3.558c-2.596 4.38-5.09 8.732-7.312 13.313L664 562h-1c-.372-5.58-.456-7.391 3-12l1-5 4-4h2l-2-2 1-3 4 1z"/><path fill="#d38d75" d="m349 529 2 1-2 3 2 3v5h2l1 2h2l1 4h2v2h-2v3l2 1-2 2a162 162 0 0 1-6.187-10.687l-1.733-3.131c-1.448-2.682-2.773-5.429-4.08-8.182l1-3z"/><path fill="#d7967e" d="m449 368 1 3-2 1c-.75 3.063-.75 3.063-1 6h2v3l2 1c2 2 2 2 2 5l4 2v5c-3.52-3.52-6.185-7.312-9.062-11.375l-3.223-4.523C442 374 442 374 440 369c3 1 3 1 6 3l1-3z"/><path fill="#d7967f" d="M454 710h5c1.625 3.313 1.625 3.313 3 7l3 3v3l2 1v3h2v3h2l1 5c-4.428-4.117-7.784-8.682-11.25-13.625l-3.203-4.54C455 713 455 713 454 710"/><path fill="#ce6848" d="m421 305-1 5h-2l-1 3c-3.645-.89-6.635-2.317-10-4v-3c4.74-1.58 9.064-1.353 14-1"/><path fill="#d38a71" d="m576 729 4 4h4v-2h3c-1.427 4.28-3.973 5.184-7.75 7.563l-3.734 2.378C572 743 572 743 567 745v-4h5v-2h4l-2-4c.688-3.437.688-3.437 2-6"/><path fill="#dca491" d="M460 564c-3.822 1.91-6.334 2.494-10.5 3.063-3.593.498-6.974 1.056-10.5 1.937q-3.996.53-8 1l-4.187.625C423 571 423 571 418 570v-1c2.46-.454 4.934-.836 7.41-1.191l4.69-.674 4.962-.697 4.881-.71c1.557-.22 3.113-.442 4.717-.67l4.332-.615c3.712-.41 7.278-.526 11.008-.443"/><path fill="#d79b85" d="M566 290c7.02.32 13.786 2.962 20.438 5.063l3.662 1.142q4.451 1.392 8.9 2.795l-4 2-1-2h-4.812C584 299 584 299 580 297v-2c-2.662-.367-5.33-.695-8-1-3.5-.937-3.5-.937-6-2z"/><path fill="#d6927b" d="M607 593c3.5-.25 3.5-.25 7 0v2l5 1 4 4 4.188 1.5L631 603l1 4c-5.191-1.491-9.522-3.864-14.187-6.562-7.521-4.34-7.521-4.34-10.813-5.438zm10 1 2 1Z"/><path fill="#d1856c" d="M568 452c-3.731 3.114-7.604 5.718-11.75 8.25l-3.484 2.14C550 464 550 464 549 464v-6l4-1 1-2 4-1 2-2c3-1 3-1 8 0"/><path fill="#d59882" d="M416 332c6.01 1.581 10.766 4.746 16 8-4 2-4 2-7 2l-2 3c-3.211-4.26-5.698-7.792-7-13"/><path fill="#d38e76" d="m631 491 5 1c-3.565 3.565-7.16 6.588-11.125 9.688l-3.758 2.949C618 507 618 507 616 508v-5h2v-2h3l2-4c3-2 3-2 8-2z"/><path fill="#d89f8b" d="M539 458c0 3 0 3-1.375 6.125L537 467c2.875.875 2.875.875 6 1-3.903 2.927-7.764 5.58-12 8l-3-1c1.352-2.8 1.352-2.8 3.625-6.312l2.227-3.489c1.644-2.449 3.378-4.839 5.148-7.199"/><path fill="#d69c88" d="M290 421h1l-.25 4.563L291 430l5-1c2.666-.039 5.334-.045 8 0-3.907 1.953-7.484 3.099-11.687 4.25l-4.075 1.14L285 435l-1-2c1.18-2.82 1.18-2.82 2.875-6.125l1.68-3.32z"/><path fill="#d17859" d="M731 474c2.063 2.25 2.063 2.25 4 5l-1 4c-3.31.774-6.648 1.435-10 2l-4 2c2-5 2-5 6-7l3-3h2z"/><path fill="#d69d87" d="M338 396c5.343 2.137 9.973 4.94 14.813 8l2.677 1.656c2.207 1.39 4.364 2.861 6.51 4.344v2c-5 2-5 2-9 2v-2l3-1 1-2a126 126 0 0 0-6-2l-3-2v-2h-3v-2l-5-1z"/><path fill="#d06e4b" d="M318.063 627.438 322 628c.688 4 .688 4 0 8h-3l-2 4-1-4-1-2-2 1c0-6.862 0-6.862 5.063-7.562"/><path fill="#d3947e" d="m519 617 1 2c-1.328 3.074-1.328 3.074-3.25 6.688l-1.89 3.636L513 632c-3-1-3-1-5.187-4.937C506 623 506 623 506 621h3v3l4-1 4-1v-4z"/><path fill="#d5886e" d="M409 630c5.65 0 7.368.353 12 3l-4 2v-2c-3.437-.375-3.437-.375-7 0l-1 4-3 1c.813 4.563.813 4.563 2 9-4.778-4.778-4.778-4.778-5-10l2-3h2v-2h2z"/><path fill="#d1866b" d="M537 575h2c-.122 7.558-2.446 12.53-6 19l-1-3h-2c-.312-3.437-.312-3.437 0-7l3-1 2 1-1-4h2z"/><path fill="#d48c74" d="M359 534c4.039 2.02 7.285 4.333 10.875 7.063l3.617 2.722L376 546c-2 1-2 1-5.125.313L368 546v4h-2l-.375-3.125c-.693-4.295-1.865-6.547-4.625-9.875h-3z"/><path fill="#cc6748" d="M271 258h5l2 4h2l-1 3-8-2-1 3-3 1-2 3-2-1v-5l4-1 1-2h2z"/><path fill="#dba593" d="M775 246c-1.168 3.125-1.168 3.125-3.187 7l-1.981 3.875C768 260 768 260 766 261l.625-3.312C767 254 767 254 765 251l-5 1c3.978-3.978 9.301-7.9 15-6"/><path fill="#d48d74" d="m527 597 3 1c-1.7 4.249-3.566 8.233-5.625 12.313l-1.914 3.8L521 617c-1.99-3.982-1.148-8.665-1-13l2-2 3 1v-4h2z"/><path fill="#d48f77" d="M309 582c4.578 1.831 8.335 3.892 12.5 6.5l3.906 2.406L328 593l-3 2-3-1-1 3-2-2 1-2h2v-2l-3.687-.312c-4.901-.782-6.352-1.801-9.313-5.688z"/><path fill="#dca895" d="M685 519c-1.1 5.502-2.985 9.294-6 14-2-3-2-3-2-5h2l1-3-3 1-1 3-3 2-4-1q2.374-1.908 4.75-3.812l2.672-2.145C682.786 519 682.786 519 685 519"/><path fill="#d1876d" d="m585 439 3 1a185 185 0 0 1-10.687 7.438c-1.16.761-2.318 1.523-3.512 2.308L571 451c-1-4-1-4 0-9 3.563-.25 3.563-.25 7 0v-1l3.5.063L585 441z"/><path fill="#d5917a" d="M287 315c3.532 1.766 5.252 3.252 8 6l2-1a195 195 0 0 1 0 7l1 3-1 2 3 1-2 4a6703 6703 0 0 1-4.937-9.312l-2.778-5.239C288 318 288 318 287 315"/><path fill="#d58a70" d="m372 308 5 2c-3.087 4.19-7.236 6.984-12 9-1-5-1-5 0-10 3 .875 3 .875 6 2z"/><path fill="#d48e75" d="m626 627 3 2c-2.163 4.326-4.703 8.054-7.5 12l-2.969 4.25L616 648l-2-4 3-4h2l-1-3 2-1 1-3h4v-5z"/><path fill="#d48f78" d="m358 624 5 1c-2.73 2.73-5.115 4.433-8.375 6.438-2.966 1.826-5.679 3.607-8.352 5.847L344 639l-2-1 1-4h2l1-2v2h2l-1-3h2l1-3v2l3-1 1-2h5z"/><path fill="#d3876e" d="M438 572c5 .688 5 .688 10 2l1 2c-2.895 1.98-2.895 1.98-6.812 4.188l-3.895 2.23L435 584l-2-1 1-2h2v-2l2-1-1-3z"/><path fill="#cc6746" d="m514 513 1 5-3 3-2 4-4-1-1-5h2l1-5c3-1 3-1 6-1"/><path fill="#d48a70" d="m699 387 2 1c-1 4-1 4-3 6v3l-4-1q-4.506.974-9 2l-2-1a1435 1435 0 0 1 7.875-5.062l4.43-2.848z"/><path fill="#d6917a" d="M566 565c8.786-1.52 18.366.188 27 2v1c-4.918-.051-9.83-.2-14.746-.355L574 568l-1 4 3 1-1 2c-4.076-3.113-6.689-5.378-9-10"/><path fill="#d9a28d" d="M379 438c0 3 0 3-1 7-.23 8.538-.23 8.538 1 11a127 127 0 0 1-.375 6.625l-.273 3.602L378 469h-1a284 284 0 0 1-1.625-9.687l-.852-5.45c-.738-6.86.54-10.403 4.477-15.863"/><path fill="#d28d75" d="M615 423c-3.893 3.226-7.953 6.05-12.187 8.813-1.232.81-2.463 1.621-3.731 2.457L596 436l-2-1 1-4h5v-3l5-1 1-3c3-1 3-1 9-1"/><path fill="#d69782" d="M711 380c3 1 3 1 5.75 5.938L719 391l-1 2-3-3v-2c-5.495-2.198-8.266-1.856-14-1 3.152-3.152 6.025-5.013 10-7"/></svg>