<svg xmlns="http://www.w3.org/2000/svg" width="1024" height="1024"><path fill="#ce6d49" d="M318 311c1.043 4.173.83 6.147.082 10.31l-.695 3.94c-.26 1.429-.52 2.857-.79 4.328l-.815 4.578c-.898 5.033-1.81 10.063-2.72 15.094l-1.879 10.509a12721 12721 0 0 1-10.147 55.87 24951 24951 0 0 0-2.794 15.245l-.548 2.992q-1.356 7.402-2.729 14.8a9360 9360 0 0 0-3.055 16.568l-.941 5.027-.836 4.574-.74 3.995C289 482 289 482 290 485c2.45 1.91 2.45 1.91 5.688 4.063C302.883 493.92 309.95 498.932 317 504l4.219 3.031c7.816 5.63 15.6 11.302 23.344 17.031 7.33 5.415 14.736 10.71 22.195 15.946C374.22 545.27 381.604 550.644 389 556l4.469 3.219a2240 2240 0 0 1 23.094 16.843c7.304 5.397 14.69 10.66 22.125 15.875 6.272 4.455 12.44 9.048 18.625 13.625 5.73 4.203 11.54 8.284 17.359 12.364 4.735 3.363 9.411 6.804 14.078 10.261q4.624 3.409 9.25 6.813l3.95 2.922 3.488 2.515 2.996 2.184C511 644 511 644 515 643a260 260 0 0 0 8.625-6.25q2.572-1.923 5.145-3.844l2.639-1.976c9.075-6.759 18.307-13.31 27.529-19.867 5.502-3.921 10.943-7.92 16.375-11.938 7.404-5.478 14.89-10.83 22.43-16.121 6.032-4.256 12.008-8.589 17.987-12.918q5.622-4.062 11.27-8.086c8.36-5.962 16.679-11.983 25-18l13.504-9.754q4.478-3.234 8.96-6.46a2269 2269 0 0 0 23.098-16.848A999 999 0 0 1 716 497.625l4.145-2.969C724 492 724 492 727.575 489.97c3.112-1.844 3.112-1.844 7.425-5.969-.363-4.836-1.078-9.249-2-14q-.539-2.979-1.068-5.958a2865 2865 0 0 0-3.27-17.88c-1.244-6.716-2.48-13.433-3.717-20.15l-.757-4.111c-3.245-17.614-6.414-35.242-9.566-52.873q-1.68-9.377-3.4-18.747a7289 7289 0 0 1-2.298-12.641c-.536-2.946-1.081-5.89-1.626-8.835l-.962-5.328-.858-4.685C705 315 705 315 706 311c5.516 10.796 10.635 21.709 15.5 32.813 5.413 12.27 10.9 24.5 16.5 36.687a3224 3224 0 0 1 17.833 39.609c7.365 16.622 14.838 33.196 22.314 49.769L780 474l2.298 4.773C784 483 784 483 783 487a303 303 0 0 1-8 9l-3.437 3.938A856 856 0 0 1 763.5 509c-5.894 6.538-11.658 13.182-17.375 19.875-3.553 4.154-7.132 8.271-10.812 12.313a213 213 0 0 0-8.563 10.062c-4.659 5.762-9.689 11.138-14.754 16.543-4.381 4.69-8.567 9.531-12.73 14.414-4.748 5.562-9.503 11.098-14.453 16.48a214 214 0 0 0-9.188 10.688c-4.337 5.379-9.008 10.394-13.723 15.441a175 175 0 0 0-7.34 8.621c-3.507 4.374-7.224 8.476-11.062 12.563a256 256 0 0 0-13.25 15.277c-3.408 4.125-7.052 8.022-10.687 11.946-3.259 3.531-6.407 7.154-9.563 10.777q-2.185 2.408-4.375 4.813a231 231 0 0 0-8.875 10.437c-4.659 5.762-9.689 11.138-14.754 16.543-4.381 4.69-8.567 9.531-12.73 14.414-4.748 5.562-9.503 11.098-14.453 16.48a219 219 0 0 0-9.25 10.75c-4.135 5.123-8.53 9.959-13 14.79-4.106 4.443-8.13 8.933-11.848 13.707L518.312 789l-2.199 2.875L514 794h-4c-1.973-1.984-1.973-1.984-4.062-4.75-4.334-5.568-8.996-10.698-13.848-15.816C490 771 490 771 490 769h-2c-1.351-1.512-2.63-3.088-3.875-4.687-3.548-4.444-7.238-8.662-11.125-12.813-4.452-4.768-8.632-9.659-12.715-14.742-3.43-4.14-7.087-8.057-10.738-12-4.281-4.636-8.39-9.417-12.512-14.196-5.035-5.828-10.071-11.642-15.285-17.312a203 203 0 0 1-9-10.5c-4.829-5.993-10.116-11.518-15.395-17.113-3.56-3.859-6.865-7.85-10.14-11.95-3.397-4.12-7.037-8.007-10.664-11.925-5.302-5.74-10.35-11.697-15.426-17.637a698 698 0 0 0-13.129-14.918c-4.06-4.49-8.015-9.07-11.969-13.652-5.032-5.827-10.065-11.638-15.277-17.305a209 209 0 0 1-9.062-10.562c-4.582-5.685-9.56-10.954-14.555-16.274-3.465-3.776-6.68-7.694-9.883-11.691-3.412-4.13-7.061-8.031-10.7-11.961-5.301-5.74-10.35-11.697-15.425-17.637-3.62-4.231-7.266-8.43-11-12.562l-2.14-2.383a379 379 0 0 0-5.61-5.993L240 486c.931-4.656 2.225-7.99 4.21-12.266.332-.716.332-.716 2.006-4.344l2.159-4.64q2.22-4.814 4.438-9.629l2.19-4.758a999 999 0 0 0 7.372-16.55c4.754-10.89 9.619-21.73 14.5-32.563l2.366-5.252 4.624-10.26a12677 12677 0 0 0 10.28-22.876c3.055-6.815 6.086-13.64 9.105-20.471l2.2-4.974a5740 5740 0 0 0 4.26-9.654l1.954-4.42 1.733-3.93C315 316 315 316 318 311"/><path fill="#cd6d49" d="M267 230c7.637 1.321 14.566 3.951 21.75 6.75l7.809 3 4.163 1.605c7.353 2.827 14.722 5.61 22.09 8.395l4.682 1.772c11.556 4.372 23.123 8.71 34.693 13.04a5402 5402 0 0 1 40.595 15.384A7238 7238 0 0 0 438.5 293.5a10913 10913 0 0 1 41.375 15.688l4.006 1.527 3.799 1.453 3.643 1.388a294 294 0 0 1 7.737 3.173l4.01 1.697 3.595 1.564c6.94 2.102 12.735-1.133 19.276-3.646l2.97-1.135c3.219-1.231 6.435-2.47 9.652-3.709q3.357-1.287 6.716-2.571 5.178-1.98 10.357-3.965a4410 4410 0 0 1 23.153-8.796l3.066-1.155q7.18-2.704 14.36-5.404c7.527-2.836 15.038-5.69 22.492-8.714 6.596-2.664 13.273-5.035 19.989-7.376 7.125-2.514 14.18-5.207 21.241-7.894l4.777-1.812a22178 22178 0 0 0 31.257-11.901Q708.984 246.952 722 242l4.919-1.874A7127 7127 0 0 1 740.438 235l4.057-1.547 3.689-1.39 3.204-1.215C754 230 754 230 757 230c-2 4-2 4-5 7h-2l-2 4a471 471 0 0 1-8 7 662 662 0 0 0-8.375 8.313l-2.33 2.34A6170 6170 0 0 0 722 266q-4.808 4.847-9.625 9.688l-2.185 2.21c-4.562 4.583-9.325 8.846-14.19 13.102a662 662 0 0 0-8.375 8.313l-2.33 2.34A6170 6170 0 0 0 678 309q-4.808 4.847-9.625 9.688l-2.185 2.21c-3.28 3.295-6.604 6.463-10.108 9.52-4.8 4.212-9.278 8.672-13.77 13.207l-2.733 2.745A8576 8576 0 0 0 631 355q-5.653 5.692-11.312 11.375l-2.583 2.608c-4.87 4.889-9.89 9.493-15.105 14.017a379 379 0 0 0-5.969 5.906l-3.23 3.254-3.301 3.34c-6.658 6.737-13.3 13.335-20.5 19.5-18.815 16.246-30.306 29.95-36.865 54.055-1.927 6.698-4.427 13.177-6.885 19.695q-1.368 3.698-2.73 7.398l-1.295 3.507c-1.151 3.143-2.28 6.293-3.4 9.447l-1.888 5.273-1.597 4.523L513 522h-2a187 187 0 0 1-3.937-10.062l-1.188-3.23a2269 2269 0 0 1-7.975-22.213q-1.414-3.974-2.862-7.935c-2.149-5.928-4.163-11.74-5.542-17.896-5.89-23.884-27.622-40.623-45.563-56.193-3.736-3.297-7.265-6.704-10.769-10.244l-3.723-3.747-3.816-3.855a5844 5844 0 0 0-7.586-7.648l-3.369-3.404C412 373 412 373 410 372v-2l-4-2a318 318 0 0 1-8.422-8.262l-2.481-2.497q-3.929-3.959-7.847-7.928-3.899-3.942-7.804-7.876a1930 1930 0 0 1-4.849-4.902C369.903 331.8 365.03 327.382 360 323a616 616 0 0 1-7.605-7.508l-4.229-4.238-4.353-4.379-4.39-4.402A12767 12767 0 0 1 328 291l-2.645-2.678c-2.353-2.32-4.78-4.52-7.246-6.72-9.226-8.427-17.989-17.333-26.813-26.176a6836 6836 0 0 0-9.241-9.235l-5.852-5.855-2.802-2.796C267 231.115 267 231.115 267 230"/><path fill="#cd6f4b" d="M370 359c7.692 5.567 14.16 13.108 20.818 19.857l2.834 2.858 2.531 2.566a153 153 0 0 0 6.344 5.761c9.983 8.834 19.287 18.426 28.74 27.82q3.94 3.908 7.9 7.798c3.806 3.74 7.593 7.498 11.376 11.262l3.616 3.532 3.26 3.268 2.908 2.876L462 449c-3.967 3.967-8.596 5.611-13.687 7.75q-3.142 1.329-6.282 2.66l-3.117 1.321c-2.55 1.11-5.064 2.306-7.57 3.515l-4.031 1.942c-1.139.57-2.277 1.142-3.45 1.73-5.473 1.533-10.323.825-15.863.082l-4.945-.62c-5.716-.752-11.415-1.59-17.118-2.442l-2.998-.399a473 473 0 0 1-8.662-1.262l-5.18-.742C365 461 365 461 363.06 457.459L362 453l-1.15-4.605-1.077-5.012-1.187-5.528-1.211-5.73-1.234-5.707c-5.21-24.445-5.21-24.445-.809-34.82l2.17-5.194 2.31-5.341 2.276-5.424c5.496-13.015 5.496-13.015 7.912-16.639m285 0c1.25 2.456 1.25 2.456 2.645 5.887l1.552 3.787 1.615 4.014 1.58 3.86a894 894 0 0 1 3.099 7.703 231 231 0 0 0 3.046 7.22l1.412 3.299 1.272 2.85c1.938 8.413-.696 17.39-2.471 25.665l-.661 3.1q-.686 3.21-1.382 6.416c-.712 3.283-1.413 6.568-2.113 9.853-3.44 16.04-3.44 16.04-4.594 18.346a201 201 0 0 1-10.754 1.98l-3.301.537q-3.47.56-6.943 1.107c-3.528.558-7.05 1.137-10.574 1.718q-3.372.54-6.744 1.076l-3.18.527c-9.79 1.51-16.302.46-25.309-3.507l-4.953-2.165-5.117-2.273-5.187-2.273c-12.165-5.34-12.165-5.34-14.938-6.727 1.25-5.003 3.295-6.668 6.934-10.297l3.654-3.652 3.85-3.801 3.837-3.848C590.733 420 590.733 420 593 420v-2c2.904-3.226 5.074-5.037 9-7v-2h2v-2a336 336 0 0 1 5.62-4.915c4.225-3.702 8.116-7.74 12.06-11.737l5.5-5.537q4.3-4.337 8.591-8.678 4.168-4.211 8.346-8.41l2.61-2.651C652.774 359 652.774 359 655 359"/><path fill="#cd7352" d="M318 311c1.066 4.265.786 6.386.019 10.659l-.734 4.153-.828 4.54-.848 4.76c-.924 5.173-1.86 10.343-2.796 15.513q-.96 5.337-1.915 10.674-1.965 10.944-3.944 21.886-2.343 12.968-4.664 25.94a17749 17749 0 0 1-3.318 18.459q-.785 4.356-1.566 8.714-1.081 6.022-2.176 12.042l-.645 3.615A357 357 0 0 1 293 460h-1c-.4-8.819.485-16.574 2.441-25.176.559-3.824.559-3.824-.039-8.242L294 423l3-1c.125-3.437.125-3.437 0-7l1-2c.205-2.163.366-4.331.5-6.5.389-6.278.389-6.278 1.5-8.5h-2v-2h-2v2h-2v6h2c.375 3.438.375 3.438 0 7l-4 1q-.062 4.5 0 9c-3 0-3 0-6-1v2h-2v6l-3 3-1 3h-2c-.266 2.625-.266 2.625-.25 6l-.016 3.375L278 446h2v6h-2c.019 3.142.27 6.243.516 9.375L278 464h-6v2c-3 1.25-3 1.25-6 2v-2h-2v4h-2v-2h-2v8h-2l1.063 2.938L260 482l-3 1-1 3h2v2h-2v2h4v4l-5 1c.938 4.438.938 4.438 3 9l4 2 1 3h2v2l5 1v-4l3-2 2-4 1 4h2v4h2v4l-3.625-.25L273 514c.375 4 .375 4 2 8h3l2 5 2 1-1-4 1-2h2c1.303 6.395 1.303 6.395 0 9 1 3 1 3 4 6-3 0-3 0-5.453-2.344l-2.797-3.156-2.988-3.352L274 525l-3.437-3.875a2765 2765 0 0 1-9.438-11c-3.62-4.231-7.266-8.43-11-12.562l-2.14-2.383a379 379 0 0 0-5.61-5.993L240 486c.931-4.656 2.225-7.99 4.21-12.266.332-.716.332-.716 2.006-4.344l2.159-4.64q2.22-4.814 4.438-9.629l2.19-4.758a999 999 0 0 0 7.372-16.55c4.754-10.89 9.619-21.73 14.5-32.563l2.366-5.252 4.624-10.26a12677 12677 0 0 0 10.28-22.876c3.055-6.815 6.086-13.64 9.105-20.471l2.2-4.974a5740 5740 0 0 0 4.26-9.654l1.954-4.42 1.733-3.93C315 316 315 316 318 311"/><path fill="#cd704f" d="M757 230c-2 4-2 4-5 7h-2l-2 4a471 471 0 0 1-8 7 662 662 0 0 0-8.375 8.313l-2.33 2.34A6170 6170 0 0 0 722 266q-4.808 4.847-9.625 9.688l-2.185 2.21c-4.56 4.582-9.304 8.872-14.19 13.102a237 237 0 0 0-4.312 4.688L688 299l-3-4 2.813-.437L691 294v-5l2-1 1-4 8-2v-3h3l1-4 5-1a150 150 0 0 0-1-6l4-1 3-2h3v-3h-2v-2h-2v2h-2v-2h-2v2h-2v-4c3.5-.125 3.5-.125 7 0v-2l-3-1-1-5c-3.562-.812-3.562-.812-7-1 4.29-2.86 9.062-4.357 13.875-6.125l6.504-2.41 3.332-1.235c3.156-1.18 6.3-2.384 9.441-3.601l2.893-1.119q3.957-1.536 7.912-3.076C754 230 754 230 757 230"/><path fill="#cc7452" d="M318 311c1.06 4.244.795 6.366.044 10.617l-.709 4.076-.792 4.397-.797 4.52q-.838 4.736-1.688 9.47c-.866 4.833-1.718 9.668-2.568 14.504q-.816 4.598-1.635 9.193l-.773 4.391-.738 4.086-.641 3.59C307 383 307 383 305 388h-1c-.934-3.942-.97-7.284-.875-11.375L303 372h-3l-2 5-5 1c-2 3-2 3-2.437 6.688L290 388h-3l-4 2c2.34-7.564 5.408-14.625 8.688-21.812a13731 13731 0 0 0 5.34-11.804c2.113-4.696 4.2-9.404 6.28-14.114l2.176-4.921q2.115-4.788 4.222-9.579l1.958-4.426 1.733-3.932C315 316 315 316 318 311"/><path fill="#ce7150" d="m564 302 2 1c-1.75 3.063-1.75 3.063-4 6h-2v3h-2v2h-2v-2h-2v-2c-4.062-.25-4.062-.25-8 0l1 2 3-1-2 5h-4v2h4v2h-4v6h-2v2h-2v2h-2v4c-2.665.083-5.335.083-8 0v2h-4v-6h-2v2h-2v-2h-4v-4q-3.984-.624-8-1v-2h-5l-3-2v-2l-2-1c5 1 5 1 10 3 5.972-.274 11.497-2.936 17.016-5.07l6.476-2.465q5.091-1.95 10.179-3.905 4.92-1.885 9.845-3.755l3.093-1.2c2.442-.926 4.914-1.774 7.391-2.605"/><path fill="#d18e75" d="M705 311c3.332 3.332 4.61 6.104 6.547 10.387l2.062 4.537 2.141 4.764 2.094 4.61c2.066 4.562 4.112 9.131 6.156 13.702l2.111 4.643 1.967 4.377 1.778 3.928L731 365l-1 2h-2l-.812-5-1.188-5h-5l-1 3-3-2c1.967 21.967 1.967 21.967 4 24 .327 3.882.514 7.766.719 11.656C722 397 722 397 723 398c.915 5.696 1.18 11.235 1 17h-1a133 133 0 0 1-1.228-6.165l-.74-4.094-.798-4.507-.834-4.641q-1.33-7.42-2.65-14.843l-1.738-9.695q-1.704-9.504-3.397-19.01-1.56-8.759-3.152-17.512l-.712-3.931q-.654-3.609-1.317-7.216C705.68 319.204 705 315.26 705 311"/><path fill="#cd866b" d="M267 230c8.316 1.38 15.932 4.465 23.75 7.5l3.941 1.512c5.116 1.965 10.22 3.953 15.309 5.988l-4 2-2-1v-2c-3.33-.36-6.664-.69-10-1l-6-2-1 2-4-2h-2v2h4v2h2v2c5-2 5-2 6-3h5l-2 1v5h2v-2h2c.023 3.4-.204 6.762-.418 10.156L300 261h5c1.313 4.5 1.313 4.5 2 9-5.219-4.365-10.09-8.961-14.902-13.77l-2.19-2.186a3970 3970 0 0 1-4.535-4.54q-3.488-3.494-6.984-6.979-2.21-2.21-4.416-4.42l-4.055-4.057C267 231 267 231 267 230"/><path fill="#cd7d5e" d="M318 311c1.317 5.268.321 9.1-.617 14.453l-.535 3.077q-.562 3.213-1.136 6.425c-.587 3.295-1.16 6.591-1.732 9.889-2.056 11.704-2.056 11.704-2.98 16.156h-1l-.437-3-.563-3h-2v-3h-2v5l-3-1v-2h-3c2.2-9.05 6.753-17.565 10.625-26l2.102-4.621C316.86 312.14 316.86 312.14 318 311"/><path fill="#cf7e60" d="m252 498 5 2 1 4 4 2 1 3h2v2l5 1v-4l3-2 2-4 1 4h2v4h2v4l-3.625-.25L273 514c.375 4 .375 4 2 8h3l2 5 2 1-1-4 1-2h2c1.303 6.395 1.303 6.395 0 9 1 3 1 3 4 6-3 0-3 0-5.453-2.344l-2.797-3.156-2.988-3.352L274 525l-3.437-3.875c-4.318-5-8.607-10.022-12.891-15.05A119 119 0 0 0 252 500z"/><path fill="#d18a6f" d="m724 254 3 1v2l3 1c-1.92 2.39-1.92 2.39-5.113 5.54-.574.568-.574.568-3.475 3.448l-3.725 3.637-3.595 3.566c-4.794 4.733-9.579 9.447-14.678 13.852-2.807 2.432-5.26 4.883-7.726 7.644L688 299l-3-4 2.813-.437L691 294v-5l2-1 1-4 8-2v-3h3l1-4 5-1a150 150 0 0 0-1-6l4-1 3-2h4l-1-5 3-3z"/><path fill="#ce7c5e" d="M471 430c3.5.75 3.5.75 7 2v3c3-.187 3-.187 6-1v-2h2v2h2v6h2v4l4 1v3h2v2h-2l-1 2h-3l-3-3v3h2c1.97 4.925 2.176 7.81 2 13-2.629-3.943-3.55-7.966-4.937-12.5-3.27-9.621-7.36-15.078-15.063-21.5z"/><path fill="#ce7e5f" d="M546 750h4c-2.123 5.308-4.316 7.74-8.25 11.813-3.783 3.958-7.348 7.79-10.437 12.312L529 777c-2-4-2-4-2-6h3c1-2 1-2 1-4l3-1-2-4h-2c0-5 0-5 1-6l3.5.063L538 756l1-2v2h4v-3h2z"/><path fill="#d09177" d="M355 315h2l1 3 4 2 1 3 5 3c3.93 3.112 7.46 6.46 11 10l2 1v4l5 1 1 5 4 .375 4 .625c.875 3.563.875 3.563 1 7h2c3 5 3 5 3 8l-2.902-2.918q-5.376-5.401-10.758-10.797l-4.637-4.658a5414 5414 0 0 0-6.703-6.725l-4.062-4.078C368.07 330.069 364.06 326.542 360 323c-3.562-3.875-3.562-3.875-6-7z"/><path fill="#ce7e60" d="M293 244h5l-2 1v5h2v-2h2c.023 3.4-.204 6.762-.418 10.156L300 261h5c1.313 4.5 1.313 4.5 2 9-4.878-3.97-9.427-8.247-13.937-12.625l-3.465-3.352C287 251 287 251 287 247l5-2z"/><path fill="#ce8165" d="M373 636h2l1 2h4v2h2v-2h2v2l4 1 2 1v4l-4-1 2 5h4c1.125 3 1.125 3 2 6h2l1 2 2 1c.813 3.063.813 3.063 1 6h-3c-5.631-5.887-10.794-12.109-15.914-18.441-1.843-2.261-3.742-4.476-5.649-6.684C373 637 373 637 373 636"/><path fill="#cf8164" d="m685 520 2 1-2 3 .5 3.438L685 531c-4.687 2.25-4.687 2.25-10 4l-5 3-9 3-2 2-4-1c7.921-5.987 15.86-11.951 23.875-17.812l3.43-2.52z"/><path fill="#cf8a6e" d="M626 659h4c-1.22 4.88-3.17 6.631-6.625 10.25l-3.297 3.492L617 676c-3.535 3.99-7 8-10.375 12.125L604 691l-1-2-3-1 4-1v-3h3l-1-4 2 1c2-3 2-3 3-7l1 3h2v-5l2-1 2-4 4-1v-2h4z"/><path fill="#d08d73" d="M451 439c9.272 7.668 9.272 7.668 11 11-2.758 2.098-2.758 2.098-7.125 4.063l-4.516 2.066L446 458l-3.234 1.402C436.516 462 436.516 462 434 462v-3h6v-2h4v-2c3-2 3-2 8-2 .438-3.5.438-3.5 0-7h-2c.251-2.344.586-4.68 1-7"/><path fill="#ca7151" d="m711 330 3 1-1 4h3l-1 4h2c1.731 4.713 2.512 8.986 2 14h-6v-4h-2c-1.492-5.519-2.579-13.842 0-19"/><path fill="#d0886c" d="M566 303c-1.75 3.063-1.75 3.063-4 6h-2v3h-2v2h-2v-2h-2v-2c-3.875-.437-3.875-.437-8 0l-2 5c-3.477.707-3.477.707-7.625.813l-4.164.144L529 316c5.755-3.837 12.612-5.766 19.063-8.187l4.533-1.733 4.314-1.623 3.973-1.5C564 302 564 302 566 303"/><path fill="#d08d73" d="m574 600 2 1-1 4-5 2a141 141 0 0 0-5 5c-5.046 4.84-10.153 7.775-16.426 10.703C546 624 546 624 544 626l-4-1a938 938 0 0 1 29.746-21.7C573 601 573 601 574 600"/><path fill="#cf8163" d="M764 494h2v4l2-1 4-2 2 1c-2.346 4.692-5.288 7.288-9 11a368 368 0 0 0-4.375 5.563L757 517l-1-2h-2v-2l2-1v-2h3v-4l5-1-1-5h-3l1-4h3z"/><path fill="#d7a28c" d="M356 391h1c.188 4 .188 4 0 8h-2c-.266 3.5-.266 3.5-.25 8l-.016 4.5.266 3.5h2c.618 2.981 1.119 5.988 1.563 9a379 379 0 0 0 1.437 9h1c.293 3.904.45 7.808.621 11.719L362 448h2q.125 4.5 0 9c-2.215-4.43-3.087-8.382-4.129-13.227l-1.197-5.566-1.236-5.832-1.249-5.762-1.193-5.59-1.088-5.096c-1.799-9.76-2.337-15.809 2.092-24.927"/><path fill="#cc8266" d="m659 321 5 1c-2.255 4.035-5.953 6.729-9.434 9.688-4.762 4.29-9.194 8.926-13.687 13.496C638 348 638 348 637 348v-5h2v-2h3v-5l5-1v-2h2v-2h2v-2h2l1-5 3-2 2 1z"/><path fill="#cc7f61" d="M305 352h2c3 3 3 3 3.375 8.188-.231 9.484-1.852 19.004-5.375 27.812h-1c-.097-6 .148-12.002.313-18l.107-5.203.13-4.922c.039-1.508.076-3.016.115-4.57z"/><path fill="#d18467" d="m574 437 4 2-2 5h2c-.25 4.563-.25 4.563-1 9l-2-1-3-1-1-4h-4v3l4 2 3 3c-8.75-2.875-8.75-2.875-11-4 1.142-4.567 2.563-6.054 5.813-9.375l2.644-2.773z"/><path fill="#ce7b5c" d="m302 368 2 1-1 3h-3l-2 5-5 1c-2 3-2 3-2.437 6.688L290 388h-3l-4 2c1.966-6.194 4.09-12.18 7-18l2 1c3.125-.312 3.125-.312 6-1v-2h4z"/><path fill="#d19d89" d="M705 311c4.336 4.336 6.236 9.523 8.75 15.063l1.574 3.376c1.292 2.825 2.492 5.69 3.676 8.561l-1 2-3-1 1-4h-3l1-4-3 1-1 5h-1a362 362 0 0 1-2.062-10.75l-.565-3.078c-.738-4.108-1.373-7.99-1.373-12.172"/><path fill="#d5a089" d="M583 459c3.938-.187 3.938-.187 8 0l1 2 5 1 2 2c2.986.44 5.992.746 9 1l3.484.352c3.166.297 6.341.48 9.516.648v-2c3.063-.23 3.063-.23 7-.187l3.938.019L635 464v1a385 385 0 0 1-12 2.125l-3.41.59c-10.596 1.722-17.621.592-27.59-3.715l-5.125-2.187L583 460z"/><path fill="#d08a6e" d="m292 537 3 1v6h2v2h3v-2h2l-1.062 2.938c-.31 1.01-.62 2.02-.938 3.062l3 1a253 253 0 0 1 2 6h2l1 5c-4.972-3.88-8.944-8.175-13-13l-2.293-2.703c-1.972-2.376-3.849-4.83-5.707-7.297l2-1 4 2z"/><path fill="#d19f8b" d="M318 311c1.064 4.257.784 6.465.04 10.734-.225 1.296-.45 2.591-.68 3.926l-.735 4.09c-.235 1.365-.47 2.73-.71 4.137-1.307 7.427-1.307 7.427-1.915 10.113h-1c-.687-3.5-.687-3.5-1-7h2c-.687-3.062-.687-3.062-2-6l-3 1c2.238-7.459 5.407-14.128 9-21"/><path fill="#d09279" d="m624 564 2 1-5 5 1 2a755 755 0 0 1-9 4c-6.698 4.395-6.698 4.395-8 7l-5 2-1 2h-5c4.03-4.331 8.455-7.576 13.313-10.937 4.45-3.088 8.83-6.175 13.105-9.504z"/><path fill="#ce886d" d="M595 384h4c-2.612 5.224-6.483 8.852-10.562 12.938l-2.405 2.478c-1.932 1.943-3.973 3.777-6.033 5.584l-1-3-2-1h4l-1-4h3l2-5 4 1-1-5 2.875.5 3.125.5z"/><path fill="#d08a70" d="m725 491 2 1-1 5c-3.562.688-3.562.688-7 1v2h-2v6c-4.375.75-4.375.75-9 1l-2 2-4-1q3.78-2.845 7.563-5.687l4.253-3.2L718 496l3.902-2.957z"/><path fill="#d39982" d="M729 434h2a236 236 0 0 1-1 7l1 1 .938 5.25C733 453 733 453 735 458c.264 2.702.445 5.413.563 8.125.34 7.586.34 7.586 1.437 10.875l-2 4a3336 3336 0 0 1-3.562-18.437l-1.038-5.264-.966-5.108-.905-4.681c-.558-4.754-.385-8.805.471-13.51"/><path fill="#d18f76" d="M514 503h2v2h2l1-2c-1.297 6.703-3.192 12.77-6 19h-2c-3.206-6.175-3.206-6.175-2-11h5c-.25-3.437-.25-3.437-1-7z"/><path fill="#cf7a5a" d="M474 720h2c.3 2.625.3 2.625.313 6l.05 3.375L476 732h-3l-2 3 1 3h-5v5c-4.127-3.21-6.243-5.404-9-10 5 2 5 2 7 4a423 423 0 0 0 7-9h2z"/><path fill="#d0866a" d="M771 456c2.557 3.836 4.295 7.858 6.188 12.063l2.23 4.91L781 477l-1 2-3-1-1-2-2 1v-3h-2v-3h-2l-1 2 1-4 2-1 1-4h-2a128 128 0 0 1 0-8"/><path fill="#d29c87" d="M757 230c-2 4-2 4-5 7h-2l-2 4-4 2-1-5-5-1c3.108-2.072 6.019-3.284 9.5-4.625l3.469-1.352C754 230 754 230 757 230"/><path fill="#d3957d" d="M753 416c3.55 5.325 5.984 11.274 8.688 17.063l1.876 3.955 1.76 3.767 1.628 3.465L768 447l-1 2h-2v-4h-3c-1.591-4.271-2-7.397-2-12h-2v-2h-2l-1-7h-2a128 128 0 0 1 0-8"/><path fill="#ce7b5b" d="M282 390c3 1 3 1 4 3l4-3v4h-2l-1 4c-1.875 2.813-1.875 2.813-4 5l-3-1-3 1c1.458-4.507 2.879-8.758 5-13"/><path fill="#cf8b70" d="M589 701h4c-1.287 5.147-3.73 7.236-7.375 11.063l-3.523 3.722A486 486 0 0 1 576 722v-6l3-1v-2h3v-4h3v-4l4-2z"/><path fill="#cc8266" d="M410 370c4 1 4 1 7 2v3l2.875.375L423 376l2 5 3 1v6a161 161 0 0 1-11.812-10.812C412 373 412 373 410 372z"/><path fill="#d3967d" d="M307 270c2.813.688 2.813.688 6 2l3 5c3 3 3 3 7.563 3.563L328 282c1.563 5.125 1.563 5.125 2 10-4.417-2.208-5.877-4.239-9-8l-3.937-3.437c-3.76-3.297-6.907-6.697-10.063-10.563"/><path fill="#ce886c" d="M723 548h4c-1.143 4.57-2.628 6.105-5.812 9.5l-2.645 2.844A429 429 0 0 1 712 567v-4l-2-1c4-3 4-3 6-3v-2h3v-4h2v-2h2z"/><path fill="#cb7e61" d="M699 282h3c-1.287 5.15-3.684 7.22-7.375 11l-3.523 3.688L688 299l-3-4 2.813-.437L691 294v-5l2-1 1-4 4-1z"/><path fill="#d08b70" d="M271 520c3.375.688 3.375.688 7 2l2 5 2 1-1-4 1-2h2c1.303 6.395 1.303 6.395 0 9 1 3 1 3 4 6-3 0-3 0-5.594-2.45l-2.906-3.237-2.906-3.2C274 525 274 525 271 520"/><path fill="#d18d73" d="M653 359h2c1.301 2.75 2.491 5.552 3.625 8.375l1.914 4.71C662 376 662 376 662 378l-3-1v-3h-2l-1 2v-4h-4l-1-3 3-1 1-5h-5z"/><path fill="#ce876b" d="M640 640c3.625-.5 3.625-.5 7 0-2.35 5.877-5.453 8.66-10 13l-4 4-1-6 2 1 1-3h2l1-4h4v-2h-2z"/><path fill="#d48f75" d="M286 460h2l1 4 3-3a469 469 0 0 1-1.937 17.625l-.465 3.664L289 485h-2c-.122-2.643-.12-5.292-.062-7.937.054-2.688.082-5.375.062-8.063l-1-1c-.187-4.062-.187-4.062 0-8"/><path fill="#d49c85" d="m736 237 2 1-4 1v2c-3.143 3.143-6.7 2.647-11 3h-3l-1 3c-4.925 1.97-7.81 2.176-13 2 4.607-3.071 9.831-4.656 15-6.562l3.352-1.249c8.001-2.973 8.001-2.973 11.648-4.189"/><path fill="#d09d87" d="M267 230c7.742 1.312 14.76 4.068 22 7l-4 2-1-2c-3.5-.875-3.5-.875-7-1l-1 4a1766 1766 0 0 1-4.5-4.437l-2.531-2.497C267 231 267 231 267 230"/><path fill="#cf866a" d="M678 598c3.375-.187 3.375-.187 6 1-2.25 3.625-2.25 3.625-6 8l-3.25 4.25L672 614c-2-4-2-4-2-6h2l1.438-2.937C675 602 675 602 678 601z"/></svg>