<svg xmlns="http://www.w3.org/2000/svg" width="1408" height="768"><path fill="#d07556" d="M480 150c5.238 2.391 9.456 5.919 13.887 9.543 5.345 4.219 10.92 8.12 16.453 12.09 5.654 4.085 11.227 8.27 16.797 12.469 3.768 2.827 7.56 5.618 11.363 8.398 5.11 3.736 10.19 7.508 15.25 11.313 9.037 6.792 18.141 13.491 27.25 20.187 10.331 7.594 20.638 15.217 30.887 22.922a2591 2591 0 0 0 31.144 22.914c6.509 4.744 12.983 9.536 19.465 14.317q8.374 6.174 16.75 12.343 4.77 3.517 9.54 7.04a2361 2361 0 0 0 23.402 17.089 1177 1177 0 0 1 20.64 15.246c6.329 4.747 12.71 9.42 19.09 14.098L756 353l2.562 1.79c2.927 2.653 4.004 4.964 5.524 8.6l1.62 3.817 1.669 4.043 3.469 8.207 1.66 3.971a850 850 0 0 0 5.371 12.51l1.594 3.64c2.148 4.8 4.399 9.55 6.668 14.293 1.388 3.077 2.665 6.204 3.883 9.352 4.645 11.843 9 19.011 18.98 26.777a568 568 0 0 1 6.75 6.25c3.525 3.305 6.891 6.215 10.813 9.063 5.185 5.562 5.96 11.36 7.437 18.687q.67 3.087 1.348 6.172C839 507.056 839 507.056 839 512c-3.75-1.875-6.378-3.982-9.477-6.758-3.051-2.711-6.162-5.348-9.273-7.992l-3.652-3.172a178 178 0 0 0-6.852-5.594c-6.318-5.131-9.78-9.968-13.02-17.457l-2.341-5.387q-1.197-2.819-2.385-5.64l-2.308-5.472q-2.926-7.014-5.807-14.044-1.842-4.494-3.694-8.982a7004 7004 0 0 1-10.949-26.725l-1.655-4.047q-1.476-3.61-2.934-7.228c-3.665-8.956-7.15-14.403-14.528-20.627l-4.035-3.43L742 366a4691 4691 0 0 1-7.312-6.25l-3.477-2.973a445 445 0 0 1-8.399-7.464c-4.24-3.852-8.641-7.461-13.093-11.063-3.497-2.894-6.834-5.943-10.188-9-2.62-2.329-5.306-4.546-8.031-6.75-4.464-3.611-8.73-7.387-12.973-11.254-2.597-2.308-5.261-4.502-7.965-6.683A228 228 0 0 1 659.5 295c-6.551-6.025-13.38-11.66-20.5-17 4.78 8.667 9.901 16.978 15.445 25.176 3.388 5.071 6.596 10.245 9.813 15.426 3.094 4.963 6.225 9.902 9.367 14.836l1.763 2.768a5659 5659 0 0 0 9.854 15.407 5753 5753 0 0 0 6.252 9.736A626 626 0 0 1 703 380c-5.061-1.265-6.996-3.527-10.75-7.125A472 472 0 0 0 677 359q-2.755-2.495-5.5-5a580 580 0 0 0-9.437-8.437c-4.46-3.91-8.82-7.919-13.184-11.934-3.577-3.267-7.23-6.443-10.879-9.629-2.789-2.526-5.568-5.062-8.348-7.598a482 482 0 0 0-6.59-5.84c-4.459-3.91-8.818-7.918-13.183-11.933-3.577-3.267-7.23-6.443-10.879-9.629q-2.755-2.495-5.5-5c-3.142-2.866-6.3-5.7-9.5-8.5s-6.358-5.634-9.5-8.5a640 640 0 0 0-16.86-14.852C551.53 246.953 545.614 241.74 540 236l-2-1v-2l-4-2c-2.227-2.73-2.227-2.73-4.625-6.187l-2.68-3.848c-3.345-4.92-6.64-9.873-9.922-14.836-3.83-5.702-7.784-11.312-11.736-16.93a614 614 0 0 1-10.951-16.113c-3.78-5.592-7.777-11.034-11.742-16.496C480 153 480 153 480 150"/><path fill="#d07454" d="M629 367c4.39.586 8.066 1.684 12.137 3.414l3.637 1.535 3.913 1.676 4.084 1.73Q659.39 378.168 666 381l4.684 2.003a10568 10568 0 0 1 22.578 9.685l3.958 1.722a169 169 0 0 0 7.532 2.961c3.393 1.254 3.393 1.254 8.248 3.629a104 104 0 0 1-4.984 10.734l-1.812 3.396a1382 1382 0 0 1-3.992 7.342c-3.413 6.24-6.699 12.476-9.685 18.934-7.901 16.57-7.901 16.57-14.597 19.18-4.853.043-9.162-.691-13.93-1.586-4.06-.265-8.12-.34-12.187-.437-9.888-.425-9.888-.425-14.22-1.07-5.283-.724-10.581-.78-15.905-.93q-3.743-.137-7.485-.278a803 803 0 0 0-12.658-.38 1011 1011 0 0 1-13.607-.405l-4.3-.049c-10.413-.43-15.256-3.336-22.638-10.451a162 162 0 0 0-4.809-3.625 5528 5528 0 0 1-9.586-7.004L542 431q-6.023-4.47-12-9l-2.691-2.031c-6.187-4.725-6.187-4.725-7.309-6.969 4.112.822 7.597 1.841 11.512 3.266l3.938 1.43 4.237 1.554 4.375 1.595c12.413 4.547 24.762 9.257 37.081 14.052l4.091 1.583 3.601 1.404C592 439 592 439 597 440c-13.614-6.144-27.234-12.267-40.96-18.157-18.713-8.039-35.11-15.904-51.04-28.843l-3.516-2.836A894 894 0 0 1 494 384c5.233-1.744 10.378 1.45 15.375 3.313q3.86 1.41 7.723 2.816l4 1.461c5.88 2.125 11.796 4.143 17.715 6.16 11.665 3.994 23.275 8.133 34.875 12.313 11.786 4.246 23.582 8.455 35.43 12.528 9.663 3.324 19.304 6.707 28.944 10.096l4.612 1.622Q657.841 439.645 673 445l-1.278-2.237-8.186-14.325q-4.897-8.56-9.778-17.13c-4.146-7.274-8.3-14.54-12.54-21.761l-1.936-3.302a2365 2365 0 0 0-3.74-6.342c-2.498-4.25-4.707-8.316-6.542-12.903"/><path fill="#d17657" d="M840 480c6.399 4.517 12.045 9.636 17.766 14.98 3.548 3.313 7.15 6.561 10.765 9.801 2.71 2.435 5.402 4.889 8.094 7.344a560 560 0 0 0 9.25 8.25c4.776 4.197 9.425 8.519 14.074 12.855C903 536 903 536 905.535 537.754c8.13 7.407 14 21.09 14.528 31.933A988 988 0 0 1 920 577a101 101 0 0 0 3.625 15.063c1.426 5.122 1.885 8.654 1.375 13.937-2.52 3.836-2.52 3.836-5.812 7.375l-3.27 3.586A416 416 0 0 1 910 623h-2c-1-2-1-2-1.375-6.312C906 612 906 612 903 607c-8.506-6.036-18.21-9.653-27.792-13.654-6.104-2.561-12.186-5.176-18.27-7.784l-3.695-1.576-3.466-1.482-3.086-1.318c-2.26-.996-4.482-2.081-6.691-3.186v-2c3.163-.149 6.333-.167 9.5-.125l5.344.055L859 576c-4.69-3.607-8.332-4.246-14.07-4.316-15.738-.306-15.738-.306-22.93-3.684-4.255-7.242-4.286-14.217-4.661-22.481-.672-8.956-2.54-17.756-4.152-26.582q-.926-5.36-1.832-10.722l-.792-4.653C810 500 810 500 810 498c4.66 1.165 6.13 2.71 9.563 6 3.86 3.63 7.735 7.13 11.875 10.438 5.418 4.361 10.49 9.048 15.578 13.789C852.86 533.657 858.943 538.81 865 544l3.652 3.184C872 550 872 550 876.562 553.063c5.502 6.3 8.438 16.48 8.438 24.937 3.33.149 6.667.167 10 .125l5.625-.055L905 578c-6.265-9.607-12.232-17.503-21-25a1257 1257 0 0 1-5-4.5 785 785 0 0 0-9-8 894 894 0 0 1-11.312-10.094C856 528 856 528 851.968 525.352c-6.013-6.594-6.815-13.878-8.468-22.477-.345-1.644-.69-3.287-1.047-4.98C840 485.989 840 485.989 840 480"/><path fill="#d17758" d="M667 310c4.99 3.02 9.077 6.718 13.355 10.637 3.297 2.946 6.744 5.666 10.215 8.402 3.129 2.525 6.105 5.211 9.09 7.902 2.519 2.216 5.105 4.327 7.715 6.434A234 234 0 0 1 718.5 353c4.36 4.01 8.855 7.78 13.46 11.504 6.127 5.031 12.123 10.221 18.04 15.496.815.713 1.63 1.425 2.468 2.16 3.14 3.523 4.608 6.948 6.423 11.305l2.135 5.077 2.224 5.396 2.314 5.532A3578 3578 0 0 1 772 425l1.425 3.452a2290 2290 0 0 1 5.208 12.755c2.577 6.34 5.228 12.65 7.873 18.962 2.6 6.22 5.179 12.449 7.758 18.677a783 783 0 0 0 4.56 10.666c5.827 13.663 9.35 27.633 10.176 42.488-5.134-1.711-7.057-7.165-9.75-11.625a4366 4366 0 0 0-4.078-6.633l-2.104-3.419c-3.108-4.994-6.333-9.91-9.568-14.823-5.755-8.762-11.345-17.614-16.875-26.52A1007 1007 0 0 0 753.5 448.5c-5.723-8.718-11.296-17.518-16.802-26.375-6.494-10.432-13.131-20.77-19.768-31.113a4837 4837 0 0 1-9.055-14.2l-1.727-2.715-3.43-5.395a28901 28901 0 0 0-10.45-16.426 9245 9245 0 0 0-9.05-14.198l-1.886-2.957a5347 5347 0 0 0-3.539-5.539C667 312.658 667 312.658 667 310"/><path fill="#d17858" d="M515 222c4.869 2.434 8.26 5.88 12.125 9.625 4.825 4.625 9.649 9.153 14.938 13.25L546 248v2l4 2a247 247 0 0 1 6.75 6.188c5.003 4.708 10.07 9.3 15.25 13.812a2026 2026 0 0 1 6 5.5 692 692 0 0 0 14 12.5q2.505 2.245 5 4.5c11.304 10.192 11.304 10.192 16 13.813l2 1.687v2l4 2a247 247 0 0 1 6.75 6.188c5.003 4.708 10.07 9.3 15.25 13.812a2026 2026 0 0 1 6 5.5 589 589 0 0 0 17.145 15.172c7.024 5.98 13.912 12.064 20.66 18.355 4.271 3.974 8.6 7.883 12.93 11.793C700 387 700 387 701 389c-5.843-1.887-11.508-3.966-17.152-6.379l-4.734-2.017-5.052-2.166-5.25-2.243q-5.532-2.362-11.06-4.731-7.314-3.133-14.632-6.258-5.787-2.472-11.573-4.947l-8.289-3.544-5.086-2.18-4.497-1.925c-6.76-2.961-9.3-5.48-13.55-11.548q-1.745-2.468-3.492-4.933l-1.816-2.574c-2.886-4.058-5.853-8.054-8.817-12.055a1923 1923 0 0 1-13.812-18.937 945 945 0 0 0-12.825-17.391c-2.937-3.942-5.805-7.931-8.676-11.922A826 826 0 0 0 538 256.063c-5.657-7.493-10.943-15.197-16.187-22.981C519 229 519 229 516.625 226.074 515 224 515 224 515 222"/><path fill="#d07353" d="M718 406c4.316 3.265 6.854 7.672 9.625 12.25a740 740 0 0 0 10.75 17.063A1535 1535 0 0 1 750 453.5a1884 1884 0 0 0 14.082 21.98c3.959 6.132 7.864 12.297 11.763 18.466 4.356 6.867 8.885 13.597 13.557 20.253L791 517l-1 3c-2.363-.89-2.363-.89-5.527-2.68l-3.55-1.982-3.86-2.213-3.97-2.234c-9.507-5.366-18.964-10.821-28.404-16.304-7.825-4.539-15.71-8.96-23.626-13.337q-3.353-1.86-6.704-3.723a1834 1834 0 0 0-9.388-5.187 1119 1119 0 0 1-8.159-4.527l-4.605-2.543L689 463c0-5.38 2.084-8.395 4.625-13.125l2.777-5.176c1.871-3.385 3.761-6.719 5.785-10.012 2.311-3.851 4.334-7.664 6.313-11.687l3.5-7 1.602-3.293c1.523-2.894 1.523-2.894 4.398-6.707"/><path fill="#d17556" d="M791 315c3.924 1.962 6.564 4.026 9.875 6.875l3.492 2.992L808 328l7 6 3.52 3.02c8.352 7.152 16.733 14.253 25.335 21.105 5.214 4.559 5.167 10.406 6.088 16.89l.552 3.76c.601 4.11 1.19 8.222 1.778 12.334l1.231 8.537q1.287 8.947 2.557 17.895a5838 5838 0 0 0 3.33 23.02 4830 4830 0 0 1 2.527 17.624q.608 4.246 1.233 8.493c.578 3.94 1.133 7.881 1.683 11.825l.544 3.595c.433 3.221.433 3.221.622 7.902-5.061-1.265-6.996-3.527-10.75-7.125-4.997-4.739-10.045-9.364-15.25-13.875a2161 2161 0 0 1-12.719-11.469l-2.656-2.406-2.398-2.18c-1.996-1.744-4.107-3.355-6.227-4.945.055-8.152 2.628-16.233 4.598-24.105l2.177-8.854q1.72-6.943 3.444-13.885 1.665-6.722 3.316-13.449l1.051-4.195.961-3.915.852-3.43C833 373 833 373 833 367c-2.047-2.417-4.117-4.818-6.309-7.105-2.889-3.107-5.471-6.351-8.066-9.707-4.538-5.845-9.243-11.51-14.043-17.141-4.915-5.8-9.661-11.512-13.582-18.047"/><path fill="#d27e60" d="M494 383c8.675 1.464 16.81 4.612 25.063 7.563l4.867 1.725q5.255 1.863 10.508 3.733a9060 9060 0 0 0 17.09 6.057c21.816 7.714 43.62 15.461 65.422 23.218 16.673 5.93 33.358 11.826 50.05 17.704l-4 2-1-2a256 256 0 0 0-8 0l-3-1v-3h-6l-1-1c-5.062-1.437-5.062-1.437-10-2v6l-8-2v6l-2-1v-3h-2v2h-2v-2l-5-1 1 3q3.487 1.53 7 3v2h5l1 2 4.563 1.5L638 454v2c4.017.29 7.977.47 12 .563 4.005.105 7.998.25 12 .437v1c-3.353.102-6.708.13-10.062.125l-5.66.008c-4.25-.107-8.093-.527-12.278-1.133-4.106-.18-8.205-.322-12.312-.437q-3.743-.137-7.485-.278a803 803 0 0 0-12.658-.38 1011 1011 0 0 1-13.607-.405l-4.3-.049c-10.413-.43-15.256-3.336-22.638-10.451a162 162 0 0 0-4.809-3.625 5528 5528 0 0 1-9.586-7.004L542 431q-6.023-4.47-12-9l-2.691-2.031c-6.187-4.725-6.187-4.725-7.309-6.969 4.112.822 7.597 1.841 11.512 3.266l3.938 1.43 4.237 1.554 4.375 1.595c12.413 4.547 24.762 9.257 37.081 14.052l4.091 1.583 3.601 1.404C592 439 592 439 597 440c-13.614-6.144-27.234-12.267-40.96-18.157-18.716-8.04-35.1-15.912-51.04-28.843-1.16-.924-2.32-1.849-3.516-2.8A396 396 0 0 1 494 384z"/><path fill="#d17758" d="M691 227c4.29 2.574 7.625 5.115 11.375 8.375l3.746 3.246L710 242l7.438 6.438 3.757 3.261q3.864 3.352 7.735 6.696c5.483 4.738 10.96 9.477 16.32 14.355 4.302 3.906 8.768 7.577 13.305 11.207 6.066 5.068 7.158 7.976 8.297 15.68l.89 5.88.883 6.17q.45 3.01.906 6.018c1.698 11.41 3.208 22.829 4.469 34.295-4.193-2.096-5.714-3.733-8.625-7.312l-2.676-3.286c-3.381-4.262-6.69-8.575-9.988-12.902-4.154-5.363-8.46-10.6-12.75-15.855-3.385-4.167-6.674-8.401-9.961-12.645q-2.87-3.597-5.75-7.187a2692 2692 0 0 1-12.187-15.313l-2.59-3.281L707 271l-2.474-3.2c-2.606-3.92-4-7.341-5.42-11.816l-1.456-4.539-1.462-4.695-1.522-4.742C691 230.456 691 230.456 691 227"/><path fill="#d17757" d="M591 461c4.132-.069 8.186.017 12.313.188l4.13.166q4.85.2 9.697.413c5.552.22 11.102.389 16.657.544 5.232.155 10.462.349 15.692.549q3.916.138 7.833.235c16.068.408 27.976 1.68 41.678 10.905a592 592 0 0 0 6.086 3.512q2.648 1.581 5.289 3.175c6.175 3.712 12.38 7.314 18.719 10.739 8.97 4.858 17.865 9.86 26.775 14.828q3.98 2.219 7.963 4.43c.626.35.626.35 3.793 2.128l3.164 1.77C773 516 773 516 774 518c-5.48-.562-10.444-1.58-15.695-3.23l-4.532-1.412-4.898-1.545-10.621-3.31c-1.85-.576-3.7-1.154-5.605-1.749-9.266-2.877-18.552-5.688-27.836-8.504a14445 14445 0 0 1-57.02-17.466 9627 9627 0 0 0-44.463-13.6l-4.088-1.243-3.535-1.072C593 464 593 464 591 463z"/><path fill="#d17859" d="M480 150c5.238 2.391 9.456 5.919 13.887 9.543 5.345 4.219 10.92 8.12 16.453 12.09 5.654 4.085 11.227 8.27 16.797 12.469 3.768 2.827 7.56 5.618 11.363 8.398 5.11 3.736 10.19 7.508 15.25 11.313 9.037 6.792 18.142 13.49 27.25 20.187 10.366 7.624 20.728 15.25 31 23l-4 1-2-3-3 1c-3-2-3-2-4-6l-3-1c-2-2-2-2-3-4l-4-1c-3.187-1.312-3.187-1.312-6-3l-1-4c-3.325-.41-6.66-.746-10-1v-2h-4v2c-2.324.395-4.66.722-7 1l-3 1v-2h-2v2h-2v-2h-6v4l4 2v2h2v4h4v2h2v6h-4c2 4 2 4 4 7-4.727-2.363-7.74-5.353-11.562-9-7.151-6.809-7.151-6.809-10.438-9v-2l-4-2c-2.227-2.73-2.227-2.73-4.625-6.187l-2.68-3.848c-3.345-4.92-6.64-9.873-9.922-14.836-3.83-5.702-7.784-11.312-11.736-16.93a614 614 0 0 1-10.951-16.113c-3.78-5.592-7.777-11.034-11.742-16.496C480 153 480 153 480 150"/><path fill="#d27d60" d="M644 486c5.666.633 10.796 2.052 16.227 3.773l5.51 1.734 2.908.923a4547 4547 0 0 0 15.234 4.793l3.109.975c9.496 2.97 19.029 5.808 28.574 8.615 11.795 3.473 23.53 7.085 35.217 10.904 10.006 3.257 20.082 6.264 30.19 9.19 18.752 5.51 18.752 5.51 23.031 12.093.755 1.02 1.51 2.042 2.29 3.094 5.44 7.932 8.6 14.16 8.71 23.906-2.501-.433-2.501-.433-6-2l-3.722-1.625-4.2-1.945-4.744-2.192-5.084-2.363-5.276-2.443c-12.544-5.816-25.055-11.702-37.557-17.607-10.788-5.085-21.63-10.04-32.497-14.955-11.501-5.209-22.965-10.497-34.42-15.808l-5.106-2.366q-4.844-2.248-9.683-4.504-4.83-2.246-9.672-4.466l-4.695-2.167-4.213-1.932C645 488 645 488 644 486"/><path fill="#d17657" d="M771 361c4.41.501 8.647 1.176 13 2l3.947.716c31.63 5.81 31.63 5.81 39.053 8.284-.254 7.256-2.116 14.212-3.871 21.227l-.856 3.475q-1.349 5.464-2.71 10.923l-1.815 7.36q-.87 3.527-1.744 7.054l-.821 3.318c-.718 2.883-1.45 5.763-2.183 8.643l-.938 4.31L811 441c-5.172-1.293-5.93-2.64-9-7-2.31-4.312-4.346-8.737-6.375-13.187l-1.812-3.926C771 367.07 771 367.07 771 361"/><path fill="#d27c5e" d="M667 310c4.99 3.02 9.077 6.718 13.355 10.637 3.297 2.946 6.744 5.666 10.215 8.402 3.129 2.525 6.105 5.211 9.09 7.902 2.519 2.216 5.105 4.327 7.715 6.434A234 234 0 0 1 718.5 353c5.323 4.897 10.872 9.461 16.5 14q3.005 2.493 6 5l-4 1-1-3c-6 0-6 0-10 1v-3h-4v-6h-4v2h2l-1 4h-3c-.864 3.815-1.247 6.259 0 10h2v2l4 1v3c-3-.312-3-.312-6-1l2 4-1 4c-11.435-17.756-22.853-35.525-34.098-53.402a1457 1457 0 0 0-6.273-9.852l-1.68-2.627a3904 3904 0 0 0-4.648-7.24C668 314 668 314 667 310"/><path fill="#d1795b" d="M773 305c4.955 2.477 7.082 5.442 10.563 9.75l3.777 4.66c4.014 5.034 7.98 10.103 11.937 15.18 3.846 4.817 7.878 9.465 11.907 14.129C822 361.32 822 361.32 822 364c-5.23.382-9.977-.435-15.086-1.496l-4.566-.943c-1.559-.33-3.117-.66-4.723-.998l-4.793-.987c-11.694-2.438-11.694-2.438-12.832-3.576a432 432 0 0 1-1.629-10.238l-.466-3.128q-.49-3.285-.971-6.57a4003 4003 0 0 0-1.495-10.054C773 309.554 773 309.554 773 305"/><path fill="#d27c5e" d="M691 261c4.066 2.991 6.944 6.244 10 10.25 8.48 10.978 17.287 21.683 26.125 32.375a838 838 0 0 1 15.063 18.813c4.29 5.434 8.727 10.747 13.16 16.066C758 342 758 342 760 347c-5.845-3.138-11.057-6.917-16.312-10.937A1074 1074 0 0 0 719.113 318L715 315l-4.497-3.05c-5.188-4.55-6.547-7.646-8.663-14.153l-.97-2.908a691 691 0 0 1-2.933-9.139 2526 2526 0 0 0-2.044-6.187C691 264.667 691 264.667 691 261"/><path fill="#ce795b" d="M591 461c4.132-.069 8.186.018 12.313.188l4.117.159q4.842.195 9.683.407 6.507.272 13.016.5c6.564.23 13.127.492 19.69.77q3.976.163 7.956.297c3.791.131 7.58.298 11.37.472l3.431.095c8.164.428 13.618 2.51 20.424 7.112-3 2-3 2-7 2l-2 3a126 126 0 0 1-3-7h2v-2a187 187 0 0 0-11.375.25l-3.273.121c-8.098.375-8.098.375-10.352 2.629l-4.062.75L650 472c-.812 3.125-.812 3.125-1 6h-3l6 2c-5.413 1.353-8.5-.141-13.812-1.824l-2.924-.917c-3.091-.973-6.177-1.96-9.264-2.947l-6.145-1.935q-5.86-1.846-11.71-3.726c-3.083-.99-6.168-1.97-9.258-2.93-2.652-.84-5.275-1.766-7.887-2.721z"/><path fill="#ce704f" d="M718 362h4v6h4v3l4-2c5.435.435 5.435.435 8 3l3 1 1 4h-2v2h-2v5h4v6h-4v6h-2v-2h-2v2h-2v4h-2v-4h-2l-1-5-3 1v-4l-2 1 1 3-5-1v-4l-2-1v-3q3.001.49 6 1l-1-3-3-1v-2h-2l-2-3c1-5 1-5 2-7l3-1 1-3h-2z"/><path fill="#d58b72" d="M639 268c4.797 1.919 7.869 4.229 11.816 7.473 3.85 3.055 7.816 5.912 11.809 8.777 8.548 6.134 16.977 12.412 25.375 18.75l7 5.25 5 3.75-4 1v-2l-3-.437-3-.563v-3h-2c-2-2-2-2-3-4h-4l-1 2h-2v4l4-1v4l1 2c-3.81-1.905-5.996-3.677-9.062-6.562-3.743-3.465-7.531-6.798-11.5-10-5.32-4.296-10.381-8.838-15.438-13.438-6.506-5.877-6.506-5.877-11-7l-2-5 4 1 5 1v-2l-3-1z"/><path fill="#d3866a" d="M494 383c6.027 1.152 11.705 2.811 17.48 4.863l4.78 1.69 4.928 1.76 4.869 1.724a3205 3205 0 0 1 9.464 3.372 703 703 0 0 0 8.774 3.053l3.88 1.331 3.424 1.153L554 403v2q-4.5.507-9 1l-1 2-1-4-4 4c-3.25-.375-3.25-.375-6-1v2h4v3l4-1v2h5l1 4c-16.203-4.63-29.053-13.497-42-24-1.16-.924-2.32-1.849-3.516-2.8A396 396 0 0 1 494 384z"/><path fill="#d27b5c" d="M801 535c2.955 2.983 4.947 6.357 7 10l3 5c1.057 4.227 1.448 7.664 1 12l-5-2 1-3h-2v-3h-6c-6 0-6 0-8-1v-2l-3.437.313L785 551c-1.125-3.437-1.125-3.437-1-7l3-1v-3l1-4c4.815-1.204 8.048-1.726 13-1"/><path fill="#d4866c" d="M791 315c3.924 1.962 6.564 4.026 9.875 6.875l3.492 2.992L808 328l7 6 3.484 2.996c4.623 3.95 9.292 7.842 13.97 11.727C835 351 835 351 837 354l-3 1-1 5-2 2-1 2c-2.254-2.486-4.398-5.072-6.5-7.687l-1.937-2.397c-1.86-2.3-3.712-4.608-5.563-6.916q-2.277-2.784-4.562-5.562l-2.075-2.543q-2.84-3.479-5.695-6.946l-3.543-4.324-3.305-4.023C794 320 794 320 791 315"/><path fill="#d48d74" d="M644 486c5.668.512 10.817 2.059 16.227 3.773l5.516 1.736 5.882 1.866q6.074 1.915 12.152 3.82l3.093.97c11.647 3.643 23.354 7.078 35.08 10.458l4.343 1.268 3.798 1.094C733 512 733 512 735 514l-3-.625-3-.375v2c-4-1-4-1-6-2v-2h-5v-2h-6v-2h-8v-2q-3.507.975-7 2l-2-1 2 5c-7.868-2.398-15.14-5.693-22.562-9.187l-3.738-1.75c-20.408-9.585-20.408-9.585-26.7-13.063z"/><path fill="#d17d5f" d="M718 406c5.875 4.364 10.981 12.242 12.89 19.285L731 428l-3 1-2-2-2-1v-2h-2v-2h-2v8h-2v2h-2v6h-2l-1-2-1 4h-2a150 150 0 0 1-4-7l-1 3h-2v3h-2c1.103-4.228 2.883-7.91 4.969-11.73l1.73-3.182 1.801-3.276c.594-1.092 1.189-2.184 1.8-3.31 4.38-8.022 4.38-8.022 6.7-11.502"/><path fill="#d27d5e" d="M920 584c4.418 6.626 5.76 14.171 5 22-2.52 3.836-2.52 3.836-5.812 7.375l-3.27 3.586A416 416 0 0 1 910 623h-2c-1-2-1-2-1.375-6.312-.846-6.346-3.136-9.199-7.625-13.688 3.313-.312 3.313-.312 7 1 1.21 3.414 1.827 6.714 2.395 10.29L909 617l2-1q.062-4 0-8c1-2 1-2 2-3l-3-1-1 2-1-1v-5h-5l1-2h2l2-4h2v2h2v-4h2v2h2v-2l4 1c.25-4.437.25-4.437 0-9"/><path fill="#d28368" d="M515 222c4.869 2.434 8.26 5.88 12.125 9.625 4.825 4.625 9.649 9.153 14.938 13.25L546 248v2l4 2c1.813 3 1.813 3 3 6l-1 2h-2v-5c-2.687 2.313-2.687 2.313-5 5l3 3v5c-4.31-4.033-7.64-8.449-11.062-13.25l-3.434-4.805q-6.542-9.219-13.043-18.468A337 337 0 0 0 515 224z"/><path fill="#c77356" d="M588 442c8.963-.65 15.523 1.553 23.688 4.813l3.646 1.369c2.94 1.147 5.813 2.467 8.666 3.818l-1 3c-3.465.328-3.465.328-7.937.25-1.453-.015-2.906-.03-4.403-.047a165 165 0 0 1-9.472-.691c-6.795-.67-13.591-.857-20.413-1.03-2.595-.09-5.186-.277-7.775-.482l-1-2 4.688-.437C582 450 582 450 586 447h2v-2h2v-2z"/><path fill="#d38064" d="M551 254c6.694 4.8 13.374 9.953 19 16l-2 1-3-1v-2l-2 1-2 1v5l3 3c-1 5-1 5-3 9-2.277-2.312-2.277-2.312-4.937-6l-2.653-3.625L551 274l-3-4-1-7-3-4h2l2-4h2l2 4z"/><path fill="#d4896d" d="M771 488c3.43 3.43 5.703 7.032 8.313 11.125 3.07 4.811 6.153 9.583 9.437 14.25L791 517l-1 3c-2.649-1.049-2.649-1.049-6.16-3.031l-3.846-2.149-4.057-2.32-3.974-2.227C765.545 506.662 759.199 502.98 753 499c4-1 4-1 8 0l1 4h6l-1-5a150 150 0 0 1 4-6z"/><path fill="#d17c5e" d="m700 439 4 2 3.25.5 2.75.5v2h-2v4l-3-1q-.569 4.493-1 9h-2v4h2a195 195 0 0 1 0 7l1 4c-6.05-1.592-10.851-4.521-16-8 0-5.54 2.323-8.83 4.938-13.687l2.777-5.2C699 440 699 440 700 439"/><path fill="#d27d61" d="M771 382c2.397 3.595 3.955 7.288 5.688 11.25a664 664 0 0 0 9.867 21.418c1.473 3.396 2.509 6.754 3.445 10.332l-3-1v-3l-5-1c-1.062 4.313-1.062 4.313-1 9l4 2 1 3 2-1-2 10c-4.248-4.248-5.918-10.956-8.187-16.437l-1.733-4.088-1.623-3.909-1.5-3.595C772 412 772 412 773 409l3 1v2l5-1c-.562-3.562-.562-3.562-2-7h-2v-5l-3.062-.937L771 397c.188-2.562.188-2.562 1-6-.27-3.006-.592-6.01-1-9"/><path fill="#cf704e" d="M828 432h6c.25 4 .25 4 0 8h2v2h2c.375 4 .375 4 0 8h-4l-1 2-3-1-1 2h2l-1 2c-3.062-1.125-3.062-1.125-6-3v-4l-5 1c.562-5.248 1.035-9.552 4-14v2l3-3h2z"/><path fill="#d5957d" d="M791 473c9.792 14.688 14.714 33.73 17 51l.773 4.645L809 532c-5.23-1.743-7.25-7.454-10-12q-2.016-3.286-4.035-6.57l-2.02-3.294c-3.575-5.763-7.323-11.41-11.066-17.066C780 490 780 490 780 488c3 1 3 1 5 2l1 4h2l.438 2.813C789 500 789 500 792 503v3h3v4h2l1 2h2l2 4q.079-3.75.125-7.5l.07-4.219L802 501h-2c-2-4-2-4-3-8h-2c-2.795-6.988-4.266-12.43-4-20"/><path fill="#d8937b" d="M725 490c4.94 1.427 8.924 3.586 13.313 6.25 8.745 5.242 17.628 10.207 26.571 15.103 8.007 4.43 8.007 4.43 9.116 6.647-5.519-.561-10.5-1.603-15.781-3.285l-4.297-1.358-4.422-1.42-4.516-1.431A3471 3471 0 0 1 734 507c4-1 4-1 7.75.188L745 508v-4l-4-1-4-1-1-2h-4l-2-1c-1-4-1-4-1-6h-3z"/><path fill="#cf704f" d="m562 267 3 1v2l5 1c2.486 3.196 4.187 6.374 6 10h-2v5h-2c-.25 4-.25 4 0 8h2v2l4 2-1 2-5-2-1-4-3-1a131 131 0 0 1-4-5l-3-3 2-3c-1-5-1-5-3-9 .688-3.312.688-3.312 2-6"/><path fill="#cf6f4e" d="m796 441 4 2 1 4h2l-.562 3.563L802 454l3-1-1-2c5 2 5 2 7 4v3h2v2h-5l1 3-3 1v-2h-2v2h-2l-3-5-3 1v-2h-3c-2.8-4.2-2.47-7.034-2-12 2.25-3.187 2.25-3.187 5-5"/><path fill="#d48d74" d="M691 261c4.179 3.059 7.112 6.456 10.25 10.563a392 392 0 0 0 13.266 16.328L716 290l-1 2-5-2v-2l-5 1-1-2c-.625 3.438-.625 3.438-1 7l2 1-2 4a8716 8716 0 0 1-6-17.312l-1.734-4.983-1.641-4.756-1.523-4.396C691 264 691 264 691 261"/><path fill="#cf714f" d="M756 523h6l1 1h5l2 4-4-1v5h6v-2h2v2l4-2c.5 4 .5 4 0 8l-4-2-1 5 3 4c-3.437.125-3.437.125-7-1-.812-5.062-.812-5.062-1-10h-2v5c-3.937.625-3.937.625-8 0-1-5-1-5-.437-10.25L758 524z"/><path fill="#d4896f" d="M494 383c6.203 1.177 12.03 2.927 17.973 5.04l4.97 1.757 5.12 1.828 5.224 1.852Q533.647 395.73 540 398l-2 1-1 2a200 200 0 0 1-6-3l-5-1v-2l-5 1c-.37 3.397-.55 5.9 1 9-4.043-2.022-7.094-4.314-10.625-7.125l-3.734-2.969L504 392l-3.14-2.469A490 490 0 0 1 494 384z"/><path fill="#d49079" d="M480 150c5.344 2.44 9.7 6.054 14.215 9.766 4.12 3.306 8.416 6.368 12.707 9.449L509 171c-2 1-2 1-6 2l-3 1c.813 4.563.813 4.563 2 9-3.591-3.591-6.004-6.834-8.75-11.062-3.168-4.838-6.405-9.563-9.875-14.188C480 153 480 153 480 150"/><path fill="#ce7251" d="M605 463c2.7-.28 2.7-.28 6.258-.145l3.832.14 4.035.192 4.059.135c7.318.303 7.318.303 9.816.678l-1 2c5.804 1.16 11.1.932 16.992.742L652 467c-1 3-1 3-4 5l-2 1-2-1v-2c-3.562-.312-3.562-.312-7 0l1 3c-5.301 0-8.946-.737-14-2v-2h-6l-1-1-3.187.063c-3.767-.062-6.415-.449-9.813-2.063z"/><path fill="#cf704f" d="M544 204h2v4c3.666.044 7.334.04 11 0l4 3-1 2h3l-2 4a706 706 0 0 1-7-1v4h2v2h-2v2h-2v-6c-5-.25-5-.25-10 0v-2h-2c-.25-4-.25-4 0-8h2v-2h2z"/><path fill="#d69076" d="M678 368c4.128 2.064 6.653 4.558 9.84 7.84 2.066 2.066 4.268 3.993 6.472 5.91C698 385 698 385 701 389c-7.375-2.334-14.445-5.18-21.562-8.187l-3.346-1.405q-4.048-1.7-8.092-3.408l3-1v-2a300 300 0 0 1 7-4z"/><path fill="#d5886e" d="M520 413c4.303.86 7.956 1.988 12.05 3.504l4.054 1.494 4.208 1.565 4.268 1.576q5.212 1.925 10.42 3.861c-4 2-4 2-9 3 1 3 1 3 3 5v2c-8.356-4.178-24.704-13.407-29-22"/><path fill="#d0714f" d="M800 535c2.063 2.813 2.063 2.813 3 6l-1 3h-4v-2h-2v2h-2c0 4 0 4 1 7l3 1-1 3-5-2v-2l-3.437.313L785 551c-1.125-3.437-1.125-3.437-1-7l3-1v-3l1-4c4.311-1.078 7.578-1.491 12-1"/><path fill="#cf7151" d="M855 443h2c.125 3.5.125 3.5 0 7l-2-3q-.079 3-.125 6l-.07 3.375L855 459h2v-2h2q.562 3.491 1 7h1a281 281 0 0 1 1.563 9.188l.816 5.167C864 483 864 483 864 488h-2l-1-5-4-1-2-4h2c.188-3.5.188-3.5 0-7h-1l-.937-3.937L854 463l-2-1a99 99 0 0 1 0-7.062c.074-2.312.095-4.627 0-6.938h-2v-2h4z"/><path fill="#d38b72" d="M738 319c8.066 7.861 15.666 16.674 22 26l-1 2c-2.598-1.57-2.598-1.57-6.062-4.125l-3.793-2.781L745 337l-4.488-3.344A2873 2873 0 0 1 729 325c4-1 4-1 9 0l3 5-1-3z"/><path fill="#d4866a" d="M878 547c4.438.313 4.438.313 9 1l1 2 4 1v-3h4v2h2v2l-3.062.875L892 554l1 4h2v3h3a309 309 0 0 1 2 7l2-1 1-3h3l1 3-2 1c.358 3.791 1.076 7.304 2 11-3.747.338-7.194.415-10.937.313l-3.194-.03c-2.624-.039-5.247-.154-7.869-.283v-1c3.333-.074 6.667-.083 10-.062l5.625.027L905 578c-7.185-11.018-14.27-19.472-24.5-27.875L878 548z"/><path fill="#d58f76" d="M840 480c9.255 6.633 9.255 6.633 12 11l-2 1-.5 5.063L849 502h-2c-.25 4-.25 4 0 8h2c.633 2.844.633 2.844 1.125 6.5l.508 3.656L851 523c-4.16-2.773-3.99-5.061-5.043-9.895l-1.064-4.834-1.08-5.084-1.116-5.048C840 485.723 840 485.723 840 480"/><path fill="#db9d86" d="M854 413h1c.453 2.351.832 4.716 1.187 7.084l.706 4.682.752 5.113.764 5.186q.797 5.443 1.586 10.888c.815 5.59 1.655 11.177 2.495 16.764q.767 5.268 1.53 10.537l.782 5.12.658 4.671.61 4.152L866 490l-4-1 2-1c-.49-3.904-1.092-7.7-1.812-11.562l-.58-3.311A302 302 0 0 0 860 465h-1l.063-4-.063-4h-2v2h-2c-1.874-3.749-1.155-7.912-1-12l2-1 1-3h-2c-.16-3.035-.16-3.035-.062-7.062.116-5.131-.148-9.87-.938-14.938-.075-2.666-.094-5.335 0-8"/><path fill="#d4927b" d="M791 315c3.924 1.962 6.564 4.026 9.875 6.875l3.457 2.965L808 328l3.824 3.254c4.866 4.143 9.655 8.225 14.176 12.746-5-1-5-1-8-5l-4-1c1 4 1 4 3 6h-3c-2.637-2.71-2.637-2.71-5.687-6.375l-3.227-3.863L802 330l-2.46-2.98c-3.17-3.894-5.952-7.706-8.54-12.02"/><path fill="#d49078" d="M629 367c4.497.371 8.26 1.78 12.375 3.563l3.21 1.378L647 373l-4 2v-2l-5 3c0 3.188 0 3.188 1 6h3l3 5 3 1c.125 3.438.125 3.438 0 7l1 2-1 2h2v3l2 1-2 2c-1.616-2.216-1.616-2.216-3.52-5.648l-2.1-3.739-2.192-3.988q-2.133-3.826-4.27-7.648l-2.038-3.667c-1.558-2.743-3.213-5.43-4.892-8.1C629 369 629 369 629 367"/><path fill="#dfab97" d="M591 461c4.504-.038 8.94.063 13.438.25l4.234.156c4.777.183 9.552.387 14.328.594l5.54.236q8.48.37 16.96.764l5.54.251 5.116.249 4.588.219L664 464v1c-5.21.033-10.415-.07-15.625-.16L644 465v2c-4.812.813-4.812.813-10 1l-3-3c-4.42-.433-8.696-.697-13.125-.812l-3.691-.155c-3.06-.1-6.123-.077-9.184-.033l-1 2c2.938.625 2.938.625 6 1-4.883 1.22-7.03.293-11.75-1.312l-4.11-1.364L591 463z"/><path fill="#d6937b" d="M667 310c4.976 3.012 9.055 6.696 13.32 10.605 4.085 3.65 8.373 7.01 12.68 10.395-3 1-3 1-7.125.313L682 331l-1 4-5.312-8.687-2.989-4.887C667 312.08 667 312.08 667 310"/><path fill="#cf6e4e" d="M588 442c4.375.313 4.375.313 9 1l2 3 4.063.438L607 447l1 4 2 1c-3.506 1.753-7.17 1.164-11 1v-2c-2.837.072-5.672.26-8.5.5s-5.663.428-8.5.5v-2c4-3 4-3 6-3v-2h2v-2z"/><path fill="#d79982" d="m697 428 1 2c-1.14 2.566-1.14 2.566-2.895 5.777l-1.896 3.494-2.021 3.666-1.987 3.655C684.38 455.43 684.38 455.43 682 459c-4.133.328-4.133.328-9.125.25l-5.008-.047L664 459v-1c4.43.135 8.855.33 13.281.55L681 458v-6l-4 1v-4c4-2 4-2 7-3l1-3h2l2-5h2v-6c2.938-2.5 2.938-2.5 6-4"/><path fill="#d5937b" d="M804 342c3.752 2.812 6.642 5.776 9.563 9.438l2.253 2.808L818 357l2.277 2.723C822 362 822 362 822 364c-5.989.518-11.587-.744-17.437-1.937l-5.434-1.09L795 360v-1c2.123-.102 4.25-.13 6.375-.125l3.586-.008C808 359 808 359 810 360c.813-3.937.813-3.937 1-8h-3c-4-8-4-8-4-10"/><path fill="#d79279" d="M783 551c4.5-.187 4.5-.187 9 0v2l5 1 3-2v2h6v3h2v3l4 2-1-10 2 1c.844 3.012.844 3.012 1.5 6.688l.719 3.699L815 566c-6.757-1.708-13.074-5.144-19.375-8.062l-3.676-1.682-3.472-1.604c-1.052-.484-2.103-.97-3.185-1.469L783 552z"/><path fill="#d79780" d="M687 356c3.946 3.946 6.82 8.485 9.875 13.125l1.914 2.824c1.505 2.287 2.874 4.662 4.211 7.051l-3 1c-3.328-2.754-3.328-2.754-7.25-6.562-4.805-4.636-9.639-9.14-14.75-13.438l4-1 1 3 4 1-2-4h2z"/><path fill="#d58e76" d="M771 361c2.662.103 2.662.103 6.344.766l3.965.699 4.191.785 4.191.738c7.4 1.334 7.4 1.334 10.309 2.012v1c-2.248.102-4.5.13-6.75.125l-3.797.008C786 367 786 367 782 366c-1 5-1 5-.812 8.813L781 378h-4c-1.703-2.957-1.703-2.957-3.25-6.812l-1.578-3.833C771 364 771 364 771 361"/><path fill="#d68f75" d="M664 320c3.991 3.991 6.374 7.668 9.25 12.5 3.365 5.609 6.788 11.115 10.5 16.5l3.25 5-1 2c-3.5.063-3.5.063-7-1-.875-3.312-.875-3.312-1-7l-1-4h-2c-3.871-5.242-6.398-9.714-8-16l-3-4zm11 27 2 1Z"/><path fill="#d38368" d="M560 253c3.5.813 3.5.813 7 2v3l3-1 1-3h3v4h2v2h2v2h2c1 4 1 4 0 6l2 1-1 4c-2.441-1.77-2.441-1.77-5.562-4.812l-3.274-3.141L569 262a373 373 0 0 0-4.687-4.062C561 255 561 255 560 253"/><path fill="#d58b70" d="m511 178 1 4-1 1 3 1 1-2 1 4h-4c-1.241 6.206.122 8.477 3 14l4 4v3h2v3l2 1h-3a160 160 0 0 1-6.375-9.062q-1.698-2.55-3.398-5.098L507 192l-2.914-3.996C502 185 502 185 502 183a831 831 0 0 1 8-3z"/><path fill="#d0795b" d="M502 171c8.3 0 12.098 2.582 18 8-2 1-2 1-7 1v-2h-2l-2 4c-3.5 1.125-3.5 1.125-7 1-1.657-3.17-2-5.439-2-9l2-2z"/><path fill="#d4866a" d="M697 474c4.943 1.977 9.375 4.377 14 7-3 1-3 1-7 0v-2c-3.085 1.542-3.653 3.896-5 7-1.203 4.627-1.224 5.551 1 10-8.625-1.75-8.625-1.75-12-4h5l1-4h-2v-2h-2c0-2 0-2 2-4 5-2 5-2 8-2-1-2-1-2-3-3z"/><path fill="#d38165" d="M714 466h2v4h2v2l3 1-1 3 5-1v2l2 1c2 2 2 2 2 5-6.318.008-10.669-2.836-15.937-6.062l-4.59-2.786L705 472c4-1 4-1 7 0l1-4z"/><path fill="#d89b85" d="m765.313 511.438 4.3 2.433C773 516 773 516 774 518c-6.266-.602-11.981-1.978-18-3.812l-5.125-1.52c-1.279-.55-2.558-1.1-3.875-1.668v-4c7.419-1.855 11.827.722 18.313 4.438"/><path fill="#e7b9a6" d="M620 449c2.848.506 5.68 1.106 8.5 1.75l4.719 1.047L637 453l1 3c4.063.362 7.993.56 12.063.625 3.982.09 7.956.214 11.937.375v1c-3.353.102-6.708.13-10.062.125l-5.66.008C641 458 641 458 637.595 457.509c-3.499-.495-6.874-.696-10.405-.79l-3.76-.114-7.82-.21A551 551 0 0 1 606 456v-1c4.43-.033 8.852.07 13.281.16L623 455v-2l-4-3z"/><path fill="#d68e75" d="M757 284c4 2 4 2 8 6 1.047 4.012 1.047 4.012 1.75 8.688l.734 4.636c.512 4.637.827 9.018.516 13.676l-3 1c-3-3-3-3-3.312-8.437.083-4.556.67-8.787 1.562-13.25L764 291l-4-1c-1.75-3.062-1.75-3.062-3-6"/><path fill="#d79178" d="M784 411c3.34 3.34 4.414 7.625 6 12l-1 2-2-1v-3l-5-1c-1.062 4.313-1.062 4.313-1 9l4 2 1 3 2-1-2 10c-2.983-2.983-4.066-6.5-5.687-10.375l-1.95-4.586C777 424 777 424 778 420l3 1v-5l2-1z"/><path fill="#d4876b" d="m845 468 1 2h2v3l5 1v-5l3-1 2 2a150 150 0 0 1-1 8v4l4 1 1 5c-5.359-3.783-10.33-7.91-15.25-12.25l-3.578-3.14L841 470z"/><path fill="#d89c86" d="M780 502c3.191 3.191 5.404 5.835 7.813 9.563l1.894 2.878L791 517l-1 3a177 177 0 0 1-11.562-6.312l-3.311-1.92A1330 1330 0 0 1 767 507c3.672-1.836 7.247-.072 11 1v3l3-1c-.312-4.062-.312-4.062-1-8"/><path fill="#cf6d4d" d="m771 390 2 1v5l-1 1 5 2v5h2c2 3 2 3 2 7l-5 1v-2l-4-1v-5l-2-1c-.345-8.966-.345-8.966 1-13"/><path fill="#d06f4f" d="M680 302c3.438.625 3.438.625 7 2l1 3h2c1.125 4.625 1.125 4.625 1 9-3.75-.187-3.75-.187-8-2l-3-4 1-1h-3v-4h2z"/><path fill="#d0704f" d="M747 384c2.875-.187 2.875-.187 6 1l1 5h1v5h2v5c-5-2-5-2-6-4l-.375 5-.625 5h-2c-.15-3.658.009-7.279.125-10.937L748 392h-2v-2h2l-.75-3.062z"/><path fill="#cf6f4f" d="m730 312 3 1 1 4 4 2c2.006 3.008 2.929 5.571 4 9l1 3-4-2-1-4h-5l-1-3h-2l-1-3h-4l-1-3h2v2h2l1-5z"/><path fill="#d8947c" d="M899 603c3.313-.312 3.313-.312 7 1 1.21 3.414 1.827 6.714 2.395 10.29L909 617l2-1v-6c3 0 3 0 7 1-1.339 5.354-4.242 8.045-8 12h-2c-1-2-1-2-1.375-6.312-.846-6.346-3.136-9.199-7.625-13.688"/><path fill="#d06e4d" d="M782 366c4.125.188 4.125.188 8 1-1 4-1 4-4 7h-2v4h2v5l-2 1v-2l-3 1c-.547-2.64-.547-2.64-.75-6.25l-.234-3.578C780 370 780 370 781 367z"/><path fill="#da9e87" d="M791 473c3.316 4.974 5.246 10.605 7.5 16.125l1.512 3.633C803.304 500.808 806 508.192 806 517c-1.88-3.76-2.447-6.165-3-10.25l-1-5.75h-2c-2-4-2-4-3-8h-2c-2.795-6.988-4.266-12.43-4-20"/><path fill="#d07150" d="M521 395h5v2l3.188.438C533 398 533 398 538 401v1h-6v-2l-3 1-1 4h-6c-2-3-2-3-2-9z"/><path fill="#d48b72" d="M773 305c5.609 2.804 6.92 6.756 9.563 12.25L783 320c-5 3-5 3-8 3-.73-3.937-.73-3.937-1.187-9l-.481-5.062z"/><path fill="#d78f76" d="M790 425c2.547 2.547 3.616 5.169 5.125 8.438l1.633 3.496C798 440 798 440 798 443c-4 2-4 2-7 3-.187 4.563-.187 4.563 0 9-3.366-3.366-3.956-7.475-5-12h4c2.303-3.455 2.69-5.899 3-10h-2q-.624-3.984-1-8"/><path fill="#d8a390" d="M515 222c4.379 2.19 7.274 4.757 10.875 8.063l3.617 3.285L532 236l-2 1-2-1 1 4h2c.625 3 .625 3 1 6-3.908-3.705-7.065-7.616-10.187-12l-2.606-3.625C517 227 517 227 515 222"/><path fill="#d38063" d="M737 435c3.82 3.82 6.357 7.318 9 12l-1 2c-3 .688-3 .688-6 1l-1-1v-5h-6c.438-3.375.438-3.375 2-7z"/><path fill="#d79881" d="M655 288h3v3l4 2 4 3-1 2 4 1c7.748 6.245 7.748 6.245 9 10l4-1v4l1 2c-3.81-1.905-5.996-3.677-9.062-6.562-4.714-4.372-9.577-8.453-14.625-12.43C657 293 657 293 654 289z"/><path fill="#d4876c" d="M647 374c4.921.984 8.746 2.52 13.313 4.563l4.363 1.94c.548.248.548.248 3.324 1.497l-3 2v-2l-2 1-1 3h-2v-2h-6v-2l-2-1c-4-3-4-3-5-7"/><path fill="#d9a28e" d="M834 489c1.984 3.968 2.781 7.17 3.625 11.5.26 1.31.52 2.62.79 3.969C839 508 839 508 839 512c-6.677-3.338-11.834-8.672-17-14 5.322 1.228 6.965 1.965 11 6l2 1z"/><path fill="#d58b71" d="M768 384c3 3 3 3 3.328 6.285l-.078 3.777c-.015 1.25-.03 2.499-.047 3.786C771 401 771 401 770 403l3 1-1 5c-3.32-3.32-4.455-7.681-6.187-12l-2.231-5.5L762 387l1-2 4 3z"/><path fill="#ce7051" d="M901 600c3.438-.437 3.438-.437 7 0l1 5 5-1v2h-2c-.195 2.844-.195 2.844-.125 6.5l.055 3.656L912 619l-1-2h-2l-1 2-.191-3.246-.371-4.192-.317-4.183L906 604c-3.59-.973-3.59-.973-7-1l2-1z"/><path fill="#d17150" d="m542 403 3 3 2-1c4.563.313 4.563.313 9 1l1 2a195 195 0 0 1-7 0l-4 1-1 4h-4v-2l-4 1v-3h-4l-1-3 3.25.563L539 407z"/><path fill="#daa490" d="M691 227c4.197 2.518 7.6 5.046 11.313 8.188l3.238 2.73L708 240c-3.729 0-5.8-1.152-9-3v-2h-3c.188 4.438.188 4.438 1 9l2 1-2 4a3273 3273 0 0 1-3-9.312l-1.687-5.239C691 230 691 230 691 227"/><path fill="#ddb1a0" d="M644 486c5.926.635 11.276 2.227 16.938 4.063l5.152 1.66L670 493l-4 2 2 1v2c-5.192-1.325-9.975-3.737-14.812-6l-4.583-2.125C645 488 645 488 644 486"/><path fill="#d6967f" d="M640 282c3.302 3.302 5.373 6.645 7.813 10.625 2.866 4.657 5.75 9.262 8.875 13.75L659 310l-1 2-3-2v-2h-2l-2-4-3-3-1-4-2-1c-5-9.167-5-9.167-5-14"/><path fill="#cf7151" d="M774 499c2.875.625 2.875.625 6 3 1.625 4.688 1.625 4.688 2 9h-4v-3a270 270 0 0 0-9-1l-2-2 2-3 5 2z"/><path fill="#d59179" d="M771 382c2.504 3.756 4.127 7.676 5.938 11.813 3.796 8.663 3.796 8.663 5.816 12.636C784 409 784 409 784 411h-2c-3-5-3-5-3-7h-2v-5l-3.062-.937L771 397c.188-2.562.188-2.562 1-6-.27-3.006-.592-6.01-1-9"/><path fill="#d89a84" d="m617 467 1 2h6v2h8v2h6v2l3 3c-10.492-2.468-20.93-5.108-31-9v-1c3.438-.687 3.438-.687 7-1"/><path fill="#daa995" d="M494 383c9.003 1.473 17.465 4.884 26 8l-4 2-1-2h-6l-2-1 1 4c-3.562-1.781-6.173-3.584-9.25-6.062l-2.703-2.16L494 384z"/><path fill="#d07150" d="M806 347c2 2 2 2 2 5h3c.125 4.063.125 4.063-1 8-3.375.188-3.375.188-7-1l-3-3 1-4h2l1-2z"/><path fill="#d16f4f" d="M672 293v2h2v2h2c1.313 3.438 1.313 3.438 2 7l-3 1-4-3v-2l-3.062-.875L665 298l1-4-2-1c5.75-1.125 5.75-1.125 8 0"/><path fill="#cb8369" d="M882 568c2 3 2 3 1.926 7.137L885 579c4.115.79 7.084.986 11.188.813l3.216.017c3.014-.06 3.014-.06 7.596-.83l-2-5h2v2h2v5c-4.138.499-7.801.649-11.937.563l-3.444.033c-3.271-.03-3.271-.03-8.619-.596l-1-4h-4c1-3 1-3 2-5z"/><path fill="#da9a83" d="M639 268c4.679 1.871 7.29 3.721 11 7-3 1-3 1-6 1v3l2 1 1 3c-4-2-4-2-7-5l-4-1-2-5 4 1 5 1v-2l-3-1z"/><path fill="#e4ac96" d="M897 561c2 2 2 2 3 7l2-1 1-3h3l1 3-2 1c.358 3.791 1.076 7.304 2 11-3.747.338-7.194.415-10.937.313l-3.194-.03c-2.624-.039-5.247-.154-7.869-.283v-1c3.333-.074 6.667-.083 10-.062l5.625.027L905 578l-1.715-2.484-2.222-3.266-2.215-3.234C897 566 897 566 896 562z"/><path fill="#d79a83" d="M825 377c1.099 4.394.696 6.198-.398 10.516l-.954 3.789-1.023 3.945-1 3.992c-1.815 7.13-1.815 7.13-2.625 9.758h-1c.012-3.251.112-6.502.25-9.75l.203-5.484C819 389 819 389 822 385c.708-2.321 1.38-4.654 2-7z"/><path fill="#d8a591" d="M520 413c4.364.873 8.148 2.044 12.313 3.563l3.8 1.378L539 419l-4 2v1l2 1v3c-4.552-1.82-7.058-3.427-10.75-6.5l-2.922-2.406C521 415 521 415 520 413"/><path fill="#d79179" d="M683 314h5l1 4h6l3 4h2v5l2 1 2 4c-3.678-1.84-5.839-3.496-8.812-6.25a315 315 0 0 0-9.313-8.25L683 315z"/><path fill="#d69178" d="M718 251c4.757 1.19 6.46 2.972 10 6.313l3.125 2.925A480 480 0 0 1 738 267c-4.108-1.187-5.894-1.894-9-5l-4-1-3-3h-3c-.937-3.562-.937-3.562-1-7"/><path fill="#d88b71" d="M685 443h2v4h-2a303 303 0 0 0-2 10l-1 2c-3.017.172-6.041.213-9.062.188l-5.036-.02L664 459v-1c4.43.135 8.855.33 13.281.55L681 458v-6l-4 1v-4c4-2 4-2 7-3z"/><path fill="#d06f4e" d="m714 251 4 1 2 5 3 1v2l5 2-2 4-4-2v-4l-3 1-3 1v-4h-2l1-5z"/><path fill="#d17556" d="M551 254c2.813 2 2.813 2 5 5-2.062 4.313-2.062 4.313-5 8h-2v-2h-2l-3-6h2l2-4h2l2 4z"/><path fill="#cf7050" d="m732 498 5 2v2l4.5.25 4.5.75v6c-2.59.07-2.59.07-5.937-.875l-3.34-.867L734 506l-1-4h-3v-2h2z"/><path fill="#d0704f" d="m555 426 1 3h2v3h-4v2l-5 1c-3-4-3-4-3-7 3-2 3-2 9-2"/><path fill="#dba996" d="M746 329a140 140 0 0 1 9.875 10.688l2.43 2.886L760 345l-1 2c-3.125-1.922-3.125-1.922-7-4.75l-3.875-2.797C745 337 745 337 744 335l4 1-1-3z"/><path fill="#d2856a" d="M570 271c5.429 3.838 10.105 7.567 14 13l-2 3c-4.125-1.125-4.125-1.125-8-3v-3h2l-3-3.875C570 273 570 273 570 271"/><path fill="#cf6e4c" d="m831 402 2 3c-1.057 5.283-2.585 10.17-5 15l-3-1c.31-7.15 1.7-11.266 6-17"/><path fill="#ce6f4e" d="M652 282c4.318.083 6.48.582 9.875 3.313C664 288 664 288 665 292l-4 1-3-2v-3l-4 1-3-5z"/><path fill="#d89983" d="M587 229c8.795 5.717 17.566 11.566 25 19l-5-1-1-2-3 1c-3-2-3-2-4-6l-3-1c-2-2-2-2-3-4l-4-1z"/><path fill="#d8967e" d="M853.688 579.125 857 580v4q4.514-.94 9-2v3l4 4-2 1a251 251 0 0 1-10.625-4.437l-3.008-1.315A1745 1745 0 0 1 847 581c3-2 3-2 6.688-1.875"/><path fill="#d7a999" d="M791 315c4.173 2.086 7.141 4.482 10.688 7.5l3.511 2.969C808 328 808 328 809 330l-4-1-1 3a1956 1956 0 0 1-5.375-6.25l-3.023-3.516C793 319 793 319 791 315"/><path fill="#d48367" d="M768 524c8.941 1.294 8.941 1.294 13 4l-4 1-1 3h-2v-2h-2v2h-6v-5h3z"/><path fill="#dd9e87" d="M664 465c11.197-.973 19.818-.852 29 6-3 2-3 2-7 2l-2 3a126 126 0 0 1-3-7h2v-2c-3.16-.288-6.33-.454-9.5-.562A408 408 0 0 1 664 466z"/><path fill="#daa08a" d="m822 564 1 3c4.194.197 8.25.23 12.438.125 12.35-.231 12.35-.231 14.562.875v2h4v2c-5.36-.14-10.683-.965-16-1.625l-4.625-.504-4.375-.535-4.062-.483L822 568z"/><path fill="#dca28c" d="M703 504c7.457 1.038 14.498 3.284 21.625 5.625l3.043.984q3.668 1.189 7.332 2.391c-3 1-3 1-6 0v2c-4-1-4-1-6-2v-2h-5v-2h-6v-2l-3.937.063L704 507z"/><path fill="#dea995" d="M849 377h1a536 536 0 0 1 2.063 13.5l.564 3.844c.888 6.243 1.748 12.331 1.373 18.656h-1v-6h-2v-10h-2c-.175-3.33-.213-6.666-.187-10l.019-5.625z"/><path fill="#ce6e4e" d="M814 338c5.578 1.116 5.901 1.661 9 6l3 3v4l-5-2v-3l-3 1c-4-5.029-4-5.029-4-9"/><path fill="#cf7151" d="M704 505v2h5v2c-4 3-4 3-8.062 2.875C697 511 697 511 694 508l1-2c5-1 5-1 9-1"/></svg>